<svg width="388" height="274" viewBox="0 0 388 274" fill="none" xmlns="http://www.w3.org/2000/svg">
<g filter="url(#filter0_d_360_22187)">
<rect x="24.8438" y="20" width="339" height="226" rx="16" fill="#0D2F4F"/>
<path d="M59.9517 57.2898H57.8267C57.7661 56.9413 57.6544 56.6326 57.4915 56.3636C57.3286 56.0909 57.1259 55.8598 56.8835 55.6705C56.6411 55.4811 56.3646 55.339 56.054 55.2443C55.7472 55.1458 55.4157 55.0966 55.0597 55.0966C54.4271 55.0966 53.8665 55.2557 53.3778 55.5739C52.8892 55.8883 52.5066 56.3504 52.2301 56.9602C51.9536 57.5663 51.8153 58.3068 51.8153 59.1818C51.8153 60.072 51.9536 60.822 52.2301 61.4318C52.5104 62.0379 52.893 62.4962 53.3778 62.8068C53.8665 63.1136 54.4252 63.267 55.054 63.267C55.4025 63.267 55.7282 63.2216 56.0312 63.1307C56.3381 63.036 56.6127 62.8977 56.8551 62.7159C57.1013 62.5341 57.3078 62.3106 57.4744 62.0455C57.6449 61.7803 57.7623 61.4773 57.8267 61.1364L59.9517 61.1477C59.8722 61.7008 59.6998 62.2197 59.4347 62.7045C59.1733 63.1894 58.8305 63.6174 58.4062 63.9886C57.982 64.3561 57.4858 64.6439 56.9176 64.8523C56.3494 65.0568 55.7188 65.1591 55.0256 65.1591C54.0028 65.1591 53.09 64.9223 52.2869 64.4489C51.4839 63.9754 50.8513 63.2917 50.3892 62.3977C49.9271 61.5038 49.696 60.4318 49.696 59.1818C49.696 57.928 49.929 56.8561 50.3949 55.9659C50.8608 55.072 51.4953 54.3883 52.2983 53.9148C53.1013 53.4413 54.0104 53.2045 55.0256 53.2045C55.6733 53.2045 56.2756 53.2955 56.8324 53.4773C57.3892 53.6591 57.8854 53.9261 58.321 54.2784C58.7566 54.6269 59.1146 55.0549 59.3949 55.5625C59.679 56.0663 59.8646 56.642 59.9517 57.2898ZM64.3026 65.1761C63.7495 65.1761 63.2514 65.0777 62.8082 64.8807C62.3688 64.6799 62.0204 64.3845 61.7628 63.9943C61.509 63.6042 61.3821 63.1231 61.3821 62.5511C61.3821 62.0587 61.473 61.6515 61.6548 61.3295C61.8366 61.0076 62.0848 60.75 62.3991 60.5568C62.7135 60.3636 63.0677 60.2178 63.4616 60.1193C63.8594 60.017 64.2704 59.9432 64.6946 59.8977C65.206 59.8447 65.6207 59.7973 65.9389 59.7557C66.2571 59.7102 66.4882 59.642 66.6321 59.5511C66.7798 59.4564 66.8537 59.3106 66.8537 59.1136V59.0795C66.8537 58.6515 66.7268 58.3201 66.473 58.0852C66.2192 57.8504 65.8537 57.733 65.3764 57.733C64.8726 57.733 64.473 57.8428 64.1776 58.0625C63.8859 58.2822 63.6889 58.5417 63.5866 58.8409L61.6662 58.5682C61.8177 58.0379 62.0677 57.5947 62.4162 57.2386C62.7647 56.8788 63.1908 56.6098 63.6946 56.4318C64.1984 56.25 64.7552 56.1591 65.3651 56.1591C65.7855 56.1591 66.2041 56.2083 66.6207 56.3068C67.0374 56.4053 67.4181 56.5682 67.7628 56.7955C68.1075 57.0189 68.384 57.3239 68.5923 57.7102C68.8045 58.0966 68.9105 58.5795 68.9105 59.1591V65H66.9332V63.8011H66.8651C66.7401 64.0436 66.5639 64.2708 66.3366 64.483C66.1132 64.6913 65.831 64.8598 65.4901 64.9886C65.1529 65.1136 64.7571 65.1761 64.3026 65.1761ZM64.8366 63.6648C65.2495 63.6648 65.6075 63.5833 65.9105 63.4205C66.2135 63.2538 66.4465 63.0341 66.6094 62.7614C66.776 62.4886 66.8594 62.1913 66.8594 61.8693V60.8409C66.795 60.8939 66.6851 60.9432 66.5298 60.9886C66.3783 61.0341 66.2079 61.0739 66.0185 61.108C65.8291 61.142 65.6416 61.1723 65.456 61.1989C65.2704 61.2254 65.1094 61.2481 64.973 61.267C64.6662 61.3087 64.3916 61.3769 64.1491 61.4716C63.9067 61.5663 63.7154 61.6989 63.5753 61.8693C63.4351 62.036 63.3651 62.2519 63.3651 62.517C63.3651 62.8958 63.5033 63.1818 63.7798 63.375C64.0563 63.5682 64.4086 63.6648 64.8366 63.6648ZM70.9787 68.2727V56.2727H73.0014V57.7159H73.1207C73.2268 57.5038 73.3764 57.2784 73.5696 57.0398C73.7628 56.7973 74.0241 56.5909 74.3537 56.4205C74.6832 56.2462 75.1037 56.1591 75.6151 56.1591C76.2893 56.1591 76.8973 56.3314 77.4389 56.6761C77.9844 57.017 78.4162 57.5227 78.7344 58.1932C79.0563 58.8598 79.2173 59.678 79.2173 60.6477C79.2173 61.6061 79.0601 62.4205 78.7457 63.0909C78.4313 63.7614 78.0033 64.2727 77.4616 64.625C76.92 64.9773 76.3063 65.1534 75.6207 65.1534C75.1207 65.1534 74.706 65.0701 74.3764 64.9034C74.0469 64.7367 73.7817 64.536 73.581 64.3011C73.384 64.0625 73.2306 63.8371 73.1207 63.625H73.0355V68.2727H70.9787ZM72.9957 60.6364C72.9957 61.2008 73.0753 61.6951 73.2344 62.1193C73.3973 62.5436 73.6302 62.875 73.9332 63.1136C74.2401 63.3485 74.6113 63.4659 75.0469 63.4659C75.5014 63.4659 75.8821 63.3447 76.1889 63.1023C76.4957 62.8561 76.7268 62.5208 76.8821 62.0966C77.0412 61.6686 77.1207 61.1818 77.1207 60.6364C77.1207 60.0947 77.0431 59.6136 76.8878 59.1932C76.7325 58.7727 76.5014 58.4432 76.1946 58.2045C75.8878 57.9659 75.5052 57.8466 75.0469 57.8466C74.6075 57.8466 74.2344 57.9621 73.9276 58.1932C73.6207 58.4242 73.3878 58.7481 73.2287 59.1648C73.0734 59.5814 72.9957 60.072 72.9957 60.6364ZM83.4901 65.1761C82.937 65.1761 82.4389 65.0777 81.9957 64.8807C81.5563 64.6799 81.2079 64.3845 80.9503 63.9943C80.6965 63.6042 80.5696 63.1231 80.5696 62.5511C80.5696 62.0587 80.6605 61.6515 80.8423 61.3295C81.0241 61.0076 81.2723 60.75 81.5866 60.5568C81.901 60.3636 82.2552 60.2178 82.6491 60.1193C83.0469 60.017 83.4579 59.9432 83.8821 59.8977C84.3935 59.8447 84.8082 59.7973 85.1264 59.7557C85.4446 59.7102 85.6757 59.642 85.8196 59.5511C85.9673 59.4564 86.0412 59.3106 86.0412 59.1136V59.0795C86.0412 58.6515 85.9143 58.3201 85.6605 58.0852C85.4067 57.8504 85.0412 57.733 84.5639 57.733C84.0601 57.733 83.6605 57.8428 83.3651 58.0625C83.0734 58.2822 82.8764 58.5417 82.7741 58.8409L80.8537 58.5682C81.0052 58.0379 81.2552 57.5947 81.6037 57.2386C81.9522 56.8788 82.3783 56.6098 82.8821 56.4318C83.3859 56.25 83.9427 56.1591 84.5526 56.1591C84.973 56.1591 85.3916 56.2083 85.8082 56.3068C86.2249 56.4053 86.6056 56.5682 86.9503 56.7955C87.295 57.0189 87.5715 57.3239 87.7798 57.7102C87.992 58.0966 88.098 58.5795 88.098 59.1591V65H86.1207V63.8011H86.0526C85.9276 64.0436 85.7514 64.2708 85.5241 64.483C85.3007 64.6913 85.0185 64.8598 84.6776 64.9886C84.3404 65.1136 83.9446 65.1761 83.4901 65.1761ZM84.0241 63.6648C84.437 63.6648 84.795 63.5833 85.098 63.4205C85.401 63.2538 85.634 63.0341 85.7969 62.7614C85.9635 62.4886 86.0469 62.1913 86.0469 61.8693V60.8409C85.9825 60.8939 85.8726 60.9432 85.7173 60.9886C85.5658 61.0341 85.3954 61.0739 85.206 61.108C85.0166 61.142 84.8291 61.1723 84.6435 61.1989C84.4579 61.2254 84.2969 61.2481 84.1605 61.267C83.8537 61.3087 83.5791 61.3769 83.3366 61.4716C83.0942 61.5663 82.9029 61.6989 82.7628 61.8693C82.6226 62.036 82.5526 62.2519 82.5526 62.517C82.5526 62.8958 82.6908 63.1818 82.9673 63.375C83.2438 63.5682 83.5961 63.6648 84.0241 63.6648ZM93.973 65.1705C93.1018 65.1705 92.3537 64.9792 91.7287 64.5966C91.1075 64.214 90.6283 63.6856 90.2912 63.0114C89.9579 62.3333 89.7912 61.553 89.7912 60.6705C89.7912 59.7841 89.9616 59.0019 90.3026 58.3239C90.6435 57.642 91.1245 57.1117 91.7457 56.733C92.3707 56.3504 93.1094 56.1591 93.9616 56.1591C94.67 56.1591 95.2969 56.2898 95.8423 56.5511C96.3916 56.8087 96.8291 57.1742 97.1548 57.6477C97.4806 58.1174 97.6662 58.6667 97.7116 59.2955H95.7457C95.6662 58.875 95.4768 58.5246 95.1776 58.2443C94.8821 57.9602 94.4863 57.8182 93.9901 57.8182C93.5696 57.8182 93.2003 57.9318 92.8821 58.1591C92.5639 58.3826 92.3158 58.7045 92.1378 59.125C91.9635 59.5455 91.8764 60.0492 91.8764 60.6364C91.8764 61.2311 91.9635 61.7424 92.1378 62.1705C92.312 62.5947 92.5563 62.9223 92.8707 63.1534C93.1889 63.3807 93.562 63.4943 93.9901 63.4943C94.2931 63.4943 94.5639 63.4375 94.8026 63.3239C95.045 63.2064 95.2476 63.0379 95.4105 62.8182C95.5734 62.5985 95.6851 62.3314 95.7457 62.017H97.7116C97.6624 62.6345 97.4806 63.1818 97.1662 63.6591C96.8518 64.1326 96.4238 64.5038 95.8821 64.7727C95.3404 65.0379 94.7041 65.1705 93.973 65.1705ZM99.4006 65V56.2727H101.457V65H99.4006ZM100.435 55.0341C100.109 55.0341 99.8286 54.9261 99.5938 54.7102C99.3589 54.4905 99.2415 54.2273 99.2415 53.9205C99.2415 53.6098 99.3589 53.3466 99.5938 53.1307C99.8286 52.911 100.109 52.8011 100.435 52.8011C100.764 52.8011 101.045 52.911 101.276 53.1307C101.51 53.3466 101.628 53.6098 101.628 53.9205C101.628 54.2273 101.51 54.4905 101.276 54.7102C101.045 54.9261 100.764 55.0341 100.435 55.0341ZM107.93 56.2727V57.8636H102.913V56.2727H107.93ZM104.152 54.1818H106.209V62.375C106.209 62.6515 106.25 62.8636 106.334 63.0114C106.421 63.1553 106.535 63.2538 106.675 63.3068C106.815 63.3598 106.97 63.3864 107.141 63.3864C107.269 63.3864 107.387 63.3769 107.493 63.358C107.603 63.339 107.686 63.322 107.743 63.3068L108.089 64.9148C107.98 64.9527 107.822 64.9943 107.618 65.0398C107.417 65.0852 107.171 65.1117 106.879 65.1193C106.364 65.1345 105.9 65.0568 105.487 64.8864C105.074 64.7121 104.747 64.4432 104.504 64.0795C104.266 63.7159 104.148 63.2614 104.152 62.7159V54.1818ZM110.929 68.2727C110.649 68.2727 110.389 68.25 110.151 68.2045C109.916 68.1629 109.728 68.1136 109.588 68.0568L110.065 66.4545C110.365 66.5417 110.632 66.5833 110.866 66.5795C111.101 66.5758 111.308 66.5019 111.486 66.358C111.668 66.2178 111.821 65.983 111.946 65.6534L112.122 65.1818L108.957 56.2727H111.139L113.151 62.8636H113.241L115.259 56.2727H117.446L113.952 66.0568C113.789 66.5189 113.573 66.9148 113.304 67.2443C113.035 67.5777 112.705 67.8314 112.315 68.0057C111.929 68.1837 111.467 68.2727 110.929 68.2727Z" fill="white"/>
<path d="M54.4474 82.6719C54.4077 82.2997 54.2401 82.0099 53.9446 81.8026C53.652 81.5952 53.2713 81.4915 52.8026 81.4915C52.473 81.4915 52.1903 81.5412 51.9545 81.6406C51.7188 81.7401 51.5384 81.875 51.4134 82.0455C51.2884 82.2159 51.2244 82.4105 51.2216 82.6293C51.2216 82.8111 51.2628 82.9687 51.3452 83.1023C51.4304 83.2358 51.5455 83.3494 51.6903 83.4432C51.8352 83.5341 51.9957 83.6108 52.1719 83.6733C52.348 83.7358 52.5256 83.7884 52.7045 83.831L53.5227 84.0355C53.8523 84.1122 54.169 84.2159 54.473 84.3466C54.7798 84.4773 55.054 84.642 55.2955 84.8409C55.5398 85.0398 55.733 85.2798 55.875 85.5611C56.017 85.8423 56.0881 86.1719 56.0881 86.5497C56.0881 87.0611 55.9574 87.5114 55.696 87.9006C55.4347 88.2869 55.0568 88.5895 54.5625 88.8082C54.071 89.0241 53.4759 89.1321 52.777 89.1321C52.098 89.1321 51.5085 89.027 51.0085 88.8168C50.5114 88.6065 50.1222 88.2997 49.8409 87.8963C49.5625 87.4929 49.4119 87.0014 49.3892 86.4219H50.9446C50.9673 86.7259 51.0611 86.9787 51.2259 87.1804C51.3906 87.3821 51.6051 87.5327 51.8693 87.6321C52.1364 87.7315 52.4347 87.7812 52.7642 87.7812C53.108 87.7812 53.4091 87.7301 53.6676 87.6278C53.929 87.5227 54.1335 87.3778 54.2812 87.1932C54.429 87.0057 54.5043 86.7869 54.5071 86.5369C54.5043 86.3097 54.4375 86.1222 54.3068 85.9744C54.1761 85.8239 53.9929 85.6989 53.7571 85.5994C53.5241 85.4972 53.2514 85.4062 52.9389 85.3267L51.946 85.071C51.2273 84.8864 50.6591 84.6065 50.2415 84.2315C49.8267 83.8537 49.6193 83.3523 49.6193 82.7273C49.6193 82.2131 49.7585 81.7628 50.0369 81.3764C50.3182 80.9901 50.7003 80.6903 51.1832 80.4773C51.6662 80.2614 52.2131 80.1534 52.8239 80.1534C53.4432 80.1534 53.9858 80.2614 54.4517 80.4773C54.9205 80.6903 55.2884 80.9872 55.5554 81.3679C55.8224 81.7457 55.9602 82.1804 55.9688 82.6719H54.4474ZM60.3271 89.1278C59.6708 89.1278 59.104 88.9915 58.6268 88.7188C58.1523 88.4432 57.7873 88.054 57.5316 87.5511C57.2759 87.0455 57.1481 86.4503 57.1481 85.7656C57.1481 85.0923 57.2759 84.5014 57.5316 83.9929C57.7901 83.4815 58.1509 83.0838 58.614 82.7997C59.0771 82.5128 59.6211 82.3693 60.2461 82.3693C60.6495 82.3693 61.0302 82.4347 61.3881 82.5653C61.7489 82.6932 62.0671 82.892 62.3427 83.1619C62.6211 83.4318 62.8398 83.7756 62.9989 84.1932C63.158 84.608 63.2376 85.1023 63.2376 85.6761V86.1491H57.8725V85.1094H61.7589C61.756 84.8139 61.6921 84.5511 61.5671 84.321C61.4421 84.0881 61.2674 83.9048 61.043 83.7713C60.8214 83.6378 60.5629 83.571 60.2674 83.571C59.9521 83.571 59.6751 83.6477 59.4364 83.8011C59.1978 83.9517 59.0117 84.1506 58.8782 84.3977C58.7475 84.642 58.6808 84.9105 58.6779 85.2031V86.1108C58.6779 86.4915 58.7475 86.8182 58.8867 87.0909C59.0259 87.3608 59.2205 87.5682 59.4705 87.7131C59.7205 87.8551 60.0131 87.9261 60.3484 87.9261C60.5728 87.9261 60.7759 87.8949 60.9577 87.8324C61.1396 87.767 61.2972 87.6719 61.4308 87.5469C61.5643 87.4219 61.6651 87.267 61.7333 87.0824L63.1737 87.2443C63.0827 87.625 62.9094 87.9574 62.6538 88.2415C62.4009 88.5227 62.0771 88.7415 61.6822 88.8977C61.2873 89.0511 60.8356 89.1278 60.3271 89.1278ZM67.8111 82.4545V83.6477H64.0483V82.4545H67.8111ZM64.9773 80.8864H66.5199V87.0312C66.5199 87.2386 66.5511 87.3977 66.6136 87.5085C66.679 87.6165 66.7642 87.6903 66.8693 87.7301C66.9744 87.7699 67.0909 87.7898 67.2188 87.7898C67.3153 87.7898 67.4034 87.7827 67.483 87.7685C67.5653 87.7543 67.6278 87.7415 67.6705 87.7301L67.9304 88.9361C67.848 88.9645 67.7301 88.9957 67.5767 89.0298C67.4261 89.0639 67.2415 89.0838 67.0227 89.0895C66.6364 89.1009 66.2884 89.0426 65.9787 88.9148C65.669 88.7841 65.4233 88.5824 65.2415 88.3097C65.0625 88.0369 64.9744 87.696 64.9773 87.2869V80.8864ZM74.9329 89.1278C74.2795 89.1278 73.7184 88.9844 73.2496 88.6974C72.7837 88.4105 72.4244 88.0142 72.1715 87.5085C71.9215 87 71.7965 86.4148 71.7965 85.7528C71.7965 85.0881 71.9244 84.5014 72.18 83.9929C72.4357 83.4815 72.7965 83.0838 73.2624 82.7997C73.7312 82.5128 74.2852 82.3693 74.9244 82.3693C75.4556 82.3693 75.9258 82.4673 76.3349 82.6634C76.7468 82.8565 77.0749 83.1307 77.3192 83.4858C77.5636 83.8381 77.7028 84.25 77.7369 84.7216H76.2624C76.2028 84.4062 76.0607 84.1435 75.8363 83.9332C75.6147 83.7202 75.3178 83.6136 74.9457 83.6136C74.6303 83.6136 74.3533 83.6989 74.1147 83.8693C73.8761 84.0369 73.69 84.2784 73.5565 84.5938C73.4258 84.9091 73.3604 85.2869 73.3604 85.7273C73.3604 86.1733 73.4258 86.5568 73.5565 86.8778C73.6871 87.196 73.8704 87.4418 74.1062 87.6151C74.3448 87.7855 74.6246 87.8707 74.9457 87.8707C75.1729 87.8707 75.3761 87.8281 75.555 87.7429C75.7369 87.6548 75.8888 87.5284 76.011 87.3636C76.1332 87.1989 76.217 86.9986 76.2624 86.7628H77.7369C77.6999 87.2259 77.5636 87.6364 77.3278 87.9943C77.092 88.3494 76.771 88.6278 76.3647 88.8295C75.9585 89.0284 75.4812 89.1278 74.9329 89.1278ZM80.8871 89.1321C80.4723 89.1321 80.0987 89.0582 79.7663 88.9105C79.4368 88.7599 79.1754 88.5384 78.9822 88.2457C78.7919 87.9531 78.6967 87.5923 78.6967 87.1634C78.6967 86.794 78.7649 86.4886 78.9013 86.2472C79.0376 86.0057 79.2237 85.8125 79.4595 85.6676C79.6953 85.5227 79.9609 85.4134 80.2564 85.3395C80.5547 85.2628 80.8629 85.2074 81.1811 85.1733C81.5646 85.1335 81.8757 85.098 82.1143 85.0668C82.353 85.0327 82.5263 84.9815 82.6342 84.9134C82.745 84.8423 82.8004 84.733 82.8004 84.5852V84.5597C82.8004 84.2386 82.7053 83.9901 82.5149 83.8139C82.3246 83.6378 82.0504 83.5497 81.6925 83.5497C81.3146 83.5497 81.0149 83.6321 80.7933 83.7969C80.5746 83.9616 80.4268 84.1562 80.3501 84.3807L78.9098 84.1761C79.0234 83.7784 79.2109 83.446 79.4723 83.179C79.7337 82.9091 80.0533 82.7074 80.4311 82.5739C80.8089 82.4375 81.2266 82.3693 81.6839 82.3693C81.9993 82.3693 82.3132 82.4062 82.6257 82.4801C82.9382 82.554 83.2237 82.6761 83.4822 82.8466C83.7408 83.0142 83.9482 83.2429 84.1044 83.5327C84.2635 83.8224 84.343 84.1847 84.343 84.6193V89H82.8601V88.1009H82.8089C82.7152 88.2827 82.5831 88.4531 82.4126 88.6122C82.245 88.7685 82.0334 88.8949 81.7777 88.9915C81.5249 89.0852 81.228 89.1321 80.8871 89.1321ZM81.2876 87.9986C81.5973 87.9986 81.8658 87.9375 82.093 87.8153C82.3203 87.6903 82.495 87.5256 82.6172 87.321C82.7422 87.1165 82.8047 86.8935 82.8047 86.652V85.8807C82.7564 85.9205 82.674 85.9574 82.5575 85.9915C82.4439 86.0256 82.3161 86.0554 82.174 86.081C82.032 86.1065 81.8913 86.1293 81.7521 86.1491C81.6129 86.169 81.4922 86.1861 81.3899 86.2003C81.1598 86.2315 80.9538 86.2827 80.772 86.3537C80.5902 86.4247 80.4467 86.5241 80.3416 86.652C80.2365 86.777 80.1839 86.9389 80.1839 87.1378C80.1839 87.4219 80.2876 87.6364 80.495 87.7812C80.7024 87.9261 80.9666 87.9986 81.2876 87.9986ZM85.8942 91.4545V82.4545H87.4112V83.5369H87.5007C87.5803 83.3778 87.6925 83.2088 87.8374 83.0298C87.9822 82.848 88.1783 82.6932 88.4254 82.5653C88.6726 82.4347 88.9879 82.3693 89.3714 82.3693C89.8771 82.3693 90.3331 82.4986 90.7393 82.7571C91.1484 83.0128 91.4723 83.392 91.7109 83.8949C91.9524 84.3949 92.0732 85.0085 92.0732 85.7358C92.0732 86.4545 91.9553 87.0653 91.7195 87.5682C91.4837 88.071 91.1626 88.4545 90.7564 88.7188C90.3501 88.983 89.8899 89.1151 89.3757 89.1151C89.0007 89.1151 88.6896 89.0526 88.4425 88.9276C88.1953 88.8026 87.9964 88.652 87.8459 88.4759C87.6982 88.2969 87.5831 88.1278 87.5007 87.9688H87.4368V91.4545H85.8942ZM87.407 85.7273C87.407 86.1506 87.4666 86.5213 87.5859 86.8395C87.7081 87.1577 87.8828 87.4062 88.1101 87.5852C88.3402 87.7614 88.6186 87.8494 88.9453 87.8494C89.2862 87.8494 89.5717 87.7585 89.8018 87.5767C90.032 87.392 90.2053 87.1406 90.3217 86.8224C90.4411 86.5014 90.5007 86.1364 90.5007 85.7273C90.5007 85.321 90.4425 84.9602 90.326 84.6449C90.2095 84.3295 90.0362 84.0824 89.8061 83.9034C89.576 83.7244 89.2891 83.6349 88.9453 83.6349C88.6158 83.6349 88.3359 83.7216 88.1058 83.8949C87.8757 84.0682 87.701 84.3111 87.5817 84.6236C87.4652 84.9361 87.407 85.304 87.407 85.7273ZM95.2777 89.1321C94.8629 89.1321 94.4893 89.0582 94.157 88.9105C93.8274 88.7599 93.5661 88.5384 93.3729 88.2457C93.1825 87.9531 93.0874 87.5923 93.0874 87.1634C93.0874 86.794 93.1555 86.4886 93.2919 86.2472C93.4283 86.0057 93.6143 85.8125 93.8501 85.6676C94.0859 85.5227 94.3516 85.4134 94.647 85.3395C94.9453 85.2628 95.2536 85.2074 95.5717 85.1733C95.9553 85.1335 96.2663 85.098 96.505 85.0668C96.7436 85.0327 96.9169 84.9815 97.0249 84.9134C97.1357 84.8423 97.1911 84.733 97.1911 84.5852V84.5597C97.1911 84.2386 97.0959 83.9901 96.9055 83.8139C96.7152 83.6378 96.4411 83.5497 96.0831 83.5497C95.7053 83.5497 95.4055 83.6321 95.1839 83.7969C94.9652 83.9616 94.8175 84.1562 94.7408 84.3807L93.3004 84.1761C93.4141 83.7784 93.6016 83.446 93.8629 83.179C94.1243 82.9091 94.4439 82.7074 94.8217 82.5739C95.1996 82.4375 95.6172 82.3693 96.0746 82.3693C96.3899 82.3693 96.7038 82.4062 97.0163 82.4801C97.3288 82.554 97.6143 82.6761 97.8729 82.8466C98.1314 83.0142 98.3388 83.2429 98.495 83.5327C98.6541 83.8224 98.7337 84.1847 98.7337 84.6193V89H97.2507V88.1009H97.1996C97.1058 88.2827 96.9737 88.4531 96.8033 88.6122C96.6357 88.7685 96.424 88.8949 96.1683 88.9915C95.9155 89.0852 95.6186 89.1321 95.2777 89.1321ZM95.6783 87.9986C95.9879 87.9986 96.2564 87.9375 96.4837 87.8153C96.7109 87.6903 96.8857 87.5256 97.0078 87.321C97.1328 87.1165 97.1953 86.8935 97.1953 86.652V85.8807C97.147 85.9205 97.0646 85.9574 96.9482 85.9915C96.8345 86.0256 96.7067 86.0554 96.5646 86.081C96.4226 86.1065 96.282 86.1293 96.1428 86.1491C96.0036 86.169 95.8828 86.1861 95.7805 86.2003C95.5504 86.2315 95.3445 86.2827 95.1626 86.3537C94.9808 86.4247 94.8374 86.5241 94.7322 86.652C94.6271 86.777 94.5746 86.9389 94.5746 87.1378C94.5746 87.4219 94.6783 87.6364 94.8857 87.7812C95.093 87.9261 95.3572 87.9986 95.6783 87.9986ZM103.14 89.1278C102.487 89.1278 101.925 88.9844 101.457 88.6974C100.991 88.4105 100.631 88.0142 100.379 87.5085C100.129 87 100.004 86.4148 100.004 85.7528C100.004 85.0881 100.131 84.5014 100.387 83.9929C100.643 83.4815 101.004 83.0838 101.469 82.7997C101.938 82.5128 102.492 82.3693 103.131 82.3693C103.663 82.3693 104.133 82.4673 104.542 82.6634C104.954 82.8565 105.282 83.1307 105.526 83.4858C105.771 83.8381 105.91 84.25 105.944 84.7216H104.469C104.41 84.4062 104.268 84.1435 104.043 83.9332C103.822 83.7202 103.525 83.6136 103.153 83.6136C102.837 83.6136 102.56 83.6989 102.322 83.8693C102.083 84.0369 101.897 84.2784 101.763 84.5938C101.633 84.9091 101.567 85.2869 101.567 85.7273C101.567 86.1733 101.633 86.5568 101.763 86.8778C101.894 87.196 102.077 87.4418 102.313 87.6151C102.552 87.7855 102.832 87.8707 103.153 87.8707C103.38 87.8707 103.583 87.8281 103.762 87.7429C103.944 87.6548 104.096 87.5284 104.218 87.3636C104.34 87.1989 104.424 86.9986 104.469 86.7628H105.944C105.907 87.2259 105.771 87.6364 105.535 87.9943C105.299 88.3494 104.978 88.6278 104.572 88.8295C104.165 89.0284 103.688 89.1278 103.14 89.1278ZM107.211 89V82.4545H108.753V89H107.211ZM107.986 81.5256C107.742 81.5256 107.532 81.4446 107.355 81.2827C107.179 81.1179 107.091 80.9205 107.091 80.6903C107.091 80.4574 107.179 80.2599 107.355 80.098C107.532 79.9332 107.742 79.8509 107.986 79.8509C108.233 79.8509 108.444 79.9332 108.617 80.098C108.793 80.2599 108.881 80.4574 108.881 80.6903C108.881 80.9205 108.793 81.1179 108.617 81.2827C108.444 81.4446 108.233 81.5256 107.986 81.5256ZM113.608 82.4545V83.6477H109.845V82.4545H113.608ZM110.774 80.8864H112.317V87.0312C112.317 87.2386 112.348 87.3977 112.411 87.5085C112.476 87.6165 112.561 87.6903 112.666 87.7301C112.771 87.7699 112.888 87.7898 113.016 87.7898C113.112 87.7898 113.2 87.7827 113.28 87.7685C113.362 87.7543 113.425 87.7415 113.467 87.7301L113.727 88.9361C113.645 88.9645 113.527 88.9957 113.374 89.0298C113.223 89.0639 113.038 89.0838 112.82 89.0895C112.433 89.1009 112.085 89.0426 111.776 88.9148C111.466 88.7841 111.22 88.5824 111.038 88.3097C110.859 88.0369 110.771 87.696 110.774 87.2869V80.8864ZM115.857 91.4545C115.647 91.4545 115.452 91.4375 115.273 91.4034C115.097 91.3722 114.956 91.3352 114.851 91.2926L115.209 90.0909C115.434 90.1563 115.634 90.1875 115.81 90.1847C115.986 90.1818 116.141 90.1264 116.275 90.0185C116.411 89.9134 116.526 89.7372 116.62 89.4901L116.752 89.1364L114.378 82.4545H116.015L117.523 87.3977H117.591L119.104 82.4545H120.745L118.124 89.7926C118.002 90.1392 117.84 90.4361 117.638 90.6832C117.436 90.9332 117.189 91.1236 116.897 91.2543C116.607 91.3878 116.26 91.4545 115.857 91.4545ZM128.104 82.4545V83.6477H124.235V82.4545H128.104ZM125.202 89V81.8366C125.202 81.3963 125.293 81.0298 125.475 80.7372C125.659 80.4446 125.907 80.2259 126.216 80.081C126.526 79.9361 126.87 79.8636 127.248 79.8636C127.515 79.8636 127.752 79.8849 127.959 79.9276C128.167 79.9702 128.32 80.0085 128.419 80.0426L128.113 81.2358C128.047 81.2159 127.965 81.196 127.865 81.1761C127.766 81.1534 127.655 81.142 127.533 81.142C127.246 81.142 127.043 81.2116 126.924 81.3509C126.807 81.4872 126.749 81.6832 126.749 81.9389V89H125.202ZM131.921 89.1278C131.282 89.1278 130.728 88.9872 130.259 88.706C129.79 88.4247 129.427 88.0312 129.168 87.5256C128.913 87.0199 128.785 86.429 128.785 85.7528C128.785 85.0767 128.913 84.4844 129.168 83.9759C129.427 83.4673 129.79 83.0724 130.259 82.7912C130.728 82.5099 131.282 82.3693 131.921 82.3693C132.56 82.3693 133.114 82.5099 133.583 82.7912C134.052 83.0724 134.414 83.4673 134.67 83.9759C134.928 84.4844 135.058 85.0767 135.058 85.7528C135.058 86.429 134.928 87.0199 134.67 87.5256C134.414 88.0312 134.052 88.4247 133.583 88.706C133.114 88.9872 132.56 89.1278 131.921 89.1278ZM131.93 87.892C132.276 87.892 132.566 87.7969 132.799 87.6065C133.032 87.4134 133.205 87.1548 133.319 86.831C133.435 86.5071 133.494 86.1463 133.494 85.7486C133.494 85.348 133.435 84.9858 133.319 84.6619C133.205 84.3352 133.032 84.0753 132.799 83.8821C132.566 83.6889 132.276 83.5923 131.93 83.5923C131.575 83.5923 131.279 83.6889 131.043 83.8821C130.81 84.0753 130.636 84.3352 130.519 84.6619C130.406 84.9858 130.349 85.348 130.349 85.7486C130.349 86.1463 130.406 86.5071 130.519 86.831C130.636 87.1548 130.81 87.4134 131.043 87.6065C131.279 87.7969 131.575 87.892 131.93 87.892ZM136.367 89V82.4545H137.863V83.5455H137.931C138.05 83.1676 138.255 82.8764 138.544 82.6719C138.837 82.4645 139.171 82.3608 139.546 82.3608C139.631 82.3608 139.726 82.3651 139.831 82.3736C139.939 82.3793 140.029 82.3892 140.1 82.4034V83.8224C140.034 83.7997 139.931 83.7798 139.789 83.7628C139.65 83.7429 139.515 83.733 139.384 83.733C139.103 83.733 138.85 83.794 138.625 83.9162C138.404 84.0355 138.229 84.2017 138.101 84.4148C137.973 84.6278 137.909 84.8736 137.909 85.152V89H136.367ZM145.06 91.4545C144.85 91.4545 144.655 91.4375 144.476 91.4034C144.3 91.3722 144.159 91.3352 144.054 91.2926L144.412 90.0909C144.637 90.1563 144.837 90.1875 145.013 90.1847C145.189 90.1818 145.344 90.1264 145.478 90.0185C145.614 89.9134 145.729 89.7372 145.823 89.4901L145.955 89.1364L143.581 82.4545H145.218L146.726 87.3977H146.794L148.307 82.4545H149.948L147.327 89.7926C147.205 90.1392 147.043 90.4361 146.841 90.6832C146.64 90.9332 146.392 91.1236 146.1 91.2543C145.81 91.3878 145.463 91.4545 145.06 91.4545ZM153.648 89.1278C153.009 89.1278 152.455 88.9872 151.986 88.706C151.517 88.4247 151.153 88.0312 150.895 87.5256C150.639 87.0199 150.511 86.429 150.511 85.7528C150.511 85.0767 150.639 84.4844 150.895 83.9759C151.153 83.4673 151.517 83.0724 151.986 82.7912C152.455 82.5099 153.009 82.3693 153.648 82.3693C154.287 82.3693 154.841 82.5099 155.31 82.7912C155.778 83.0724 156.141 83.4673 156.396 83.9759C156.655 84.4844 156.784 85.0767 156.784 85.7528C156.784 86.429 156.655 87.0199 156.396 87.5256C156.141 88.0312 155.778 88.4247 155.31 88.706C154.841 88.9872 154.287 89.1278 153.648 89.1278ZM153.656 87.892C154.003 87.892 154.293 87.7969 154.526 87.6065C154.759 87.4134 154.932 87.1548 155.045 86.831C155.162 86.5071 155.22 86.1463 155.22 85.7486C155.22 85.348 155.162 84.9858 155.045 84.6619C154.932 84.3352 154.759 84.0753 154.526 83.8821C154.293 83.6889 154.003 83.5923 153.656 83.5923C153.301 83.5923 153.006 83.6889 152.77 83.8821C152.537 84.0753 152.362 84.3352 152.246 84.6619C152.132 84.9858 152.075 85.348 152.075 85.7486C152.075 86.1463 152.132 86.5071 152.246 86.831C152.362 87.1548 152.537 87.4134 152.77 87.6065C153.006 87.7969 153.301 87.892 153.656 87.892ZM162.265 86.2472V82.4545H163.808V89H162.312V87.8366H162.244C162.096 88.2031 161.853 88.5028 161.515 88.7358C161.18 88.9687 160.767 89.0852 160.275 89.0852C159.846 89.0852 159.467 88.9901 159.137 88.7997C158.811 88.6065 158.555 88.3267 158.37 87.9602C158.186 87.5909 158.093 87.1449 158.093 86.6222V82.4545H159.636V86.3835C159.636 86.7983 159.75 87.1278 159.977 87.3722C160.204 87.6165 160.502 87.7386 160.872 87.7386C161.099 87.7386 161.319 87.6832 161.532 87.5724C161.745 87.4616 161.92 87.2969 162.056 87.0781C162.196 86.8565 162.265 86.5795 162.265 86.2472ZM165.394 89V82.4545H166.89V83.5455H166.958C167.077 83.1676 167.282 82.8764 167.572 82.6719C167.864 82.4645 168.198 82.3608 168.573 82.3608C168.658 82.3608 168.754 82.3651 168.859 82.3736C168.967 82.3793 169.056 82.3892 169.127 82.4034V83.8224C169.062 83.7997 168.958 83.7798 168.816 83.7628C168.677 83.7429 168.542 83.733 168.411 83.733C168.13 83.733 167.877 83.794 167.653 83.9162C167.431 84.0355 167.256 84.2017 167.129 84.4148C167.001 84.6278 166.937 84.8736 166.937 85.152V89H165.394ZM176.397 82.4545V83.6477H172.634V82.4545H176.397ZM173.563 80.8864H175.106V87.0312C175.106 87.2386 175.137 87.3977 175.2 87.5085C175.265 87.6165 175.35 87.6903 175.455 87.7301C175.56 87.7699 175.677 87.7898 175.805 87.7898C175.901 87.7898 175.989 87.7827 176.069 87.7685C176.151 87.7543 176.214 87.7415 176.256 87.7301L176.516 88.9361C176.434 88.9645 176.316 88.9957 176.163 89.0298C176.012 89.0639 175.827 89.0838 175.609 89.0895C175.222 89.1009 174.874 89.0426 174.565 88.9148C174.255 88.7841 174.009 88.5824 173.827 88.3097C173.648 88.0369 173.56 87.696 173.563 87.2869V80.8864ZM180.515 89.1278C179.858 89.1278 179.292 88.9915 178.814 88.7188C178.34 88.4432 177.975 88.054 177.719 87.5511C177.463 87.0455 177.336 86.4503 177.336 85.7656C177.336 85.0923 177.463 84.5014 177.719 83.9929C177.978 83.4815 178.338 83.0838 178.801 82.7997C179.265 82.5128 179.809 82.3693 180.434 82.3693C180.837 82.3693 181.218 82.4347 181.576 82.5653C181.936 82.6932 182.255 82.892 182.53 83.1619C182.809 83.4318 183.027 83.7756 183.186 84.1932C183.346 84.608 183.425 85.1023 183.425 85.6761V86.1491H178.06V85.1094H181.946C181.944 84.8139 181.88 84.5511 181.755 84.321C181.63 84.0881 181.455 83.9048 181.23 83.7713C181.009 83.6378 180.75 83.571 180.455 83.571C180.14 83.571 179.863 83.6477 179.624 83.8011C179.385 83.9517 179.199 84.1506 179.066 84.3977C178.935 84.642 178.868 84.9105 178.865 85.2031V86.1108C178.865 86.4915 178.935 86.8182 179.074 87.0909C179.213 87.3608 179.408 87.5682 179.658 87.7131C179.908 87.8551 180.201 87.9261 180.536 87.9261C180.76 87.9261 180.963 87.8949 181.145 87.8324C181.327 87.767 181.485 87.6719 181.618 87.5469C181.752 87.4219 181.853 87.267 181.921 87.0824L183.361 87.2443C183.27 87.625 183.097 87.9574 182.841 88.2415C182.588 88.5227 182.265 88.7415 181.87 88.8977C181.475 89.0511 181.023 89.1278 180.515 89.1278ZM186.273 85.1648V89H184.73V82.4545H186.205V83.5668H186.281C186.432 83.2003 186.672 82.9091 187.001 82.6932C187.334 82.4773 187.744 82.3693 188.233 82.3693C188.685 82.3693 189.078 82.4659 189.413 82.6591C189.751 82.8523 190.013 83.1321 190.197 83.4986C190.385 83.8651 190.477 84.3097 190.474 84.8324V89H188.932V85.071C188.932 84.6335 188.818 84.2912 188.591 84.044C188.366 83.7969 188.055 83.6733 187.658 83.6733C187.388 83.6733 187.148 83.733 186.938 83.8523C186.73 83.9687 186.567 84.1378 186.447 84.3594C186.331 84.581 186.273 84.8494 186.273 85.1648ZM193.926 89.1321C193.511 89.1321 193.138 89.0582 192.805 88.9105C192.476 88.7599 192.214 88.5384 192.021 88.2457C191.831 87.9531 191.736 87.5923 191.736 87.1634C191.736 86.794 191.804 86.4886 191.94 86.2472C192.077 86.0057 192.263 85.8125 192.499 85.6676C192.734 85.5227 193 85.4134 193.295 85.3395C193.594 85.2628 193.902 85.2074 194.22 85.1733C194.604 85.1335 194.915 85.098 195.153 85.0668C195.392 85.0327 195.565 84.9815 195.673 84.9134C195.784 84.8423 195.839 84.733 195.839 84.5852V84.5597C195.839 84.2386 195.744 83.9901 195.554 83.8139C195.364 83.6378 195.089 83.5497 194.732 83.5497C194.354 83.5497 194.054 83.6321 193.832 83.7969C193.614 83.9616 193.466 84.1562 193.389 84.3807L191.949 84.1761C192.063 83.7784 192.25 83.446 192.511 83.179C192.773 82.9091 193.092 82.7074 193.47 82.5739C193.848 82.4375 194.266 82.3693 194.723 82.3693C195.038 82.3693 195.352 82.4062 195.665 82.4801C195.977 82.554 196.263 82.6761 196.521 82.8466C196.78 83.0142 196.987 83.2429 197.143 83.5327C197.303 83.8224 197.382 84.1847 197.382 84.6193V89H195.899V88.1009H195.848C195.754 88.2827 195.622 88.4531 195.452 88.6122C195.284 88.7685 195.072 88.8949 194.817 88.9915C194.564 89.0852 194.267 89.1321 193.926 89.1321ZM194.327 87.9986C194.636 87.9986 194.905 87.9375 195.132 87.8153C195.359 87.6903 195.534 87.5256 195.656 87.321C195.781 87.1165 195.844 86.8935 195.844 86.652V85.8807C195.795 85.9205 195.713 85.9574 195.597 85.9915C195.483 86.0256 195.355 86.0554 195.213 86.081C195.071 86.1065 194.93 86.1293 194.791 86.1491C194.652 86.169 194.531 86.1861 194.429 86.2003C194.199 86.2315 193.993 86.2827 193.811 86.3537C193.629 86.4247 193.486 86.5241 193.381 86.652C193.276 86.777 193.223 86.9389 193.223 87.1378C193.223 87.4219 193.327 87.6364 193.534 87.7812C193.741 87.9261 194.006 87.9986 194.327 87.9986ZM200.476 85.1648V89H198.933V82.4545H200.408V83.5668H200.484C200.635 83.2003 200.875 82.9091 201.205 82.6932C201.537 82.4773 201.947 82.3693 202.436 82.3693C202.888 82.3693 203.281 82.4659 203.616 82.6591C203.955 82.8523 204.216 83.1321 204.401 83.4986C204.588 83.8651 204.68 84.3097 204.678 84.8324V89H203.135V85.071C203.135 84.6335 203.021 84.2912 202.794 84.044C202.57 83.7969 202.259 83.6733 201.861 83.6733C201.591 83.6733 201.351 83.733 201.141 83.8523C200.933 83.9687 200.77 84.1378 200.651 84.3594C200.534 84.581 200.476 84.8494 200.476 85.1648ZM209.514 82.4545V83.6477H205.751V82.4545H209.514ZM206.68 80.8864H208.223V87.0312C208.223 87.2386 208.254 87.3977 208.317 87.5085C208.382 87.6165 208.467 87.6903 208.572 87.7301C208.678 87.7699 208.794 87.7898 208.922 87.7898C209.018 87.7898 209.107 87.7827 209.186 87.7685C209.268 87.7543 209.331 87.7415 209.374 87.7301L209.634 88.9361C209.551 88.9645 209.433 88.9957 209.28 89.0298C209.129 89.0639 208.945 89.0838 208.726 89.0895C208.339 89.1009 207.991 89.0426 207.682 88.9148C207.372 88.7841 207.126 88.5824 206.945 88.3097C206.766 88.0369 206.678 87.696 206.68 87.2869V80.8864Z" fill="white" fill-opacity="0.6"/>
<path d="M57.1747 118.217H55.581C55.5355 117.956 55.4517 117.724 55.3295 117.523C55.2074 117.318 55.0554 117.145 54.8736 117.003C54.6918 116.861 54.4844 116.754 54.2514 116.683C54.0213 116.609 53.7727 116.572 53.5057 116.572C53.0313 116.572 52.6108 116.692 52.2443 116.93C51.8778 117.166 51.5909 117.513 51.3835 117.97C51.1761 118.425 51.0724 118.98 51.0724 119.636C51.0724 120.304 51.1761 120.866 51.3835 121.324C51.5938 121.778 51.8807 122.122 52.2443 122.355C52.6108 122.585 53.0298 122.7 53.5014 122.7C53.7628 122.7 54.0071 122.666 54.2344 122.598C54.4645 122.527 54.6705 122.423 54.8523 122.287C55.0369 122.151 55.1918 121.983 55.3168 121.784C55.4446 121.585 55.5327 121.358 55.581 121.102L57.1747 121.111C57.1151 121.526 56.9858 121.915 56.7869 122.278C56.5909 122.642 56.3338 122.963 56.0156 123.241C55.6974 123.517 55.3253 123.733 54.8991 123.889C54.473 124.043 54 124.119 53.4801 124.119C52.7131 124.119 52.0284 123.942 51.4261 123.587C50.8239 123.232 50.3494 122.719 50.0028 122.048C49.6563 121.378 49.483 120.574 49.483 119.636C49.483 118.696 49.6577 117.892 50.0071 117.224C50.3565 116.554 50.8324 116.041 51.4347 115.686C52.0369 115.331 52.7188 115.153 53.4801 115.153C53.9659 115.153 54.4176 115.222 54.8352 115.358C55.2528 115.494 55.625 115.695 55.9517 115.959C56.2784 116.22 56.5469 116.541 56.7571 116.922C56.9702 117.3 57.1094 117.732 57.1747 118.217ZM60.4379 124.132C60.0231 124.132 59.6495 124.058 59.3171 123.911C58.9876 123.76 58.7262 123.538 58.533 123.246C58.3427 122.953 58.2475 122.592 58.2475 122.163C58.2475 121.794 58.3157 121.489 58.4521 121.247C58.5884 121.006 58.7745 120.812 59.0103 120.668C59.2461 120.523 59.5117 120.413 59.8072 120.339C60.1055 120.263 60.4137 120.207 60.7319 120.173C61.1154 120.134 61.4265 120.098 61.6651 120.067C61.9038 120.033 62.0771 119.982 62.185 119.913C62.2958 119.842 62.3512 119.733 62.3512 119.585V119.56C62.3512 119.239 62.256 118.99 62.0657 118.814C61.8754 118.638 61.6012 118.55 61.2433 118.55C60.8654 118.55 60.5657 118.632 60.3441 118.797C60.1254 118.962 59.9776 119.156 59.9009 119.381L58.4606 119.176C58.5742 118.778 58.7617 118.446 59.0231 118.179C59.2844 117.909 59.604 117.707 59.9819 117.574C60.3597 117.438 60.7773 117.369 61.2347 117.369C61.5501 117.369 61.864 117.406 62.1765 117.48C62.489 117.554 62.7745 117.676 63.033 117.847C63.2915 118.014 63.4989 118.243 63.6552 118.533C63.8143 118.822 63.8938 119.185 63.8938 119.619V124H62.4109V123.101H62.3597C62.266 123.283 62.1339 123.453 61.9634 123.612C61.7958 123.768 61.5842 123.895 61.3285 123.991C61.0756 124.085 60.7788 124.132 60.4379 124.132ZM60.8384 122.999C61.1481 122.999 61.4165 122.937 61.6438 122.815C61.8711 122.69 62.0458 122.526 62.168 122.321C62.293 122.116 62.3555 121.893 62.3555 121.652V120.881C62.3072 120.92 62.2248 120.957 62.1083 120.991C61.9947 121.026 61.8668 121.055 61.7248 121.081C61.5827 121.107 61.4421 121.129 61.3029 121.149C61.1637 121.169 61.043 121.186 60.9407 121.2C60.7106 121.232 60.5046 121.283 60.3228 121.354C60.141 121.425 59.9975 121.524 59.8924 121.652C59.7873 121.777 59.7347 121.939 59.7347 122.138C59.7347 122.422 59.8384 122.636 60.0458 122.781C60.2532 122.926 60.5174 122.999 60.8384 122.999ZM65.445 126.455V117.455H66.962V118.537H67.0515C67.131 118.378 67.2433 118.209 67.3881 118.03C67.533 117.848 67.729 117.693 67.9762 117.565C68.2234 117.435 68.5387 117.369 68.9222 117.369C69.4279 117.369 69.8839 117.499 70.2901 117.757C70.6992 118.013 71.0231 118.392 71.2617 118.895C71.5032 119.395 71.6239 120.009 71.6239 120.736C71.6239 121.455 71.506 122.065 71.2702 122.568C71.0344 123.071 70.7134 123.455 70.3072 123.719C69.9009 123.983 69.4407 124.115 68.9265 124.115C68.5515 124.115 68.2404 124.053 67.9933 123.928C67.7461 123.803 67.5472 123.652 67.3967 123.476C67.2489 123.297 67.1339 123.128 67.0515 122.969H66.9876V126.455H65.445ZM66.9577 120.727C66.9577 121.151 67.0174 121.521 67.1367 121.839C67.2589 122.158 67.4336 122.406 67.6609 122.585C67.891 122.761 68.1694 122.849 68.4961 122.849C68.837 122.849 69.1225 122.759 69.3526 122.577C69.5827 122.392 69.756 122.141 69.8725 121.822C69.9918 121.501 70.0515 121.136 70.0515 120.727C70.0515 120.321 69.9933 119.96 69.8768 119.645C69.7603 119.33 69.587 119.082 69.3569 118.903C69.1268 118.724 68.8398 118.635 68.4961 118.635C68.1665 118.635 67.8867 118.722 67.6566 118.895C67.4265 119.068 67.2518 119.311 67.1325 119.624C67.016 119.936 66.9577 120.304 66.9577 120.727ZM74.8285 124.132C74.4137 124.132 74.0401 124.058 73.7077 123.911C73.3782 123.76 73.1168 123.538 72.9237 123.246C72.7333 122.953 72.6381 122.592 72.6381 122.163C72.6381 121.794 72.7063 121.489 72.8427 121.247C72.979 121.006 73.1651 120.812 73.4009 120.668C73.6367 120.523 73.9023 120.413 74.1978 120.339C74.4961 120.263 74.8043 120.207 75.1225 120.173C75.506 120.134 75.8171 120.098 76.0558 120.067C76.2944 120.033 76.4677 119.982 76.5756 119.913C76.6864 119.842 76.7418 119.733 76.7418 119.585V119.56C76.7418 119.239 76.6467 118.99 76.4563 118.814C76.266 118.638 75.9918 118.55 75.6339 118.55C75.256 118.55 74.9563 118.632 74.7347 118.797C74.516 118.962 74.3683 119.156 74.2915 119.381L72.8512 119.176C72.9648 118.778 73.1523 118.446 73.4137 118.179C73.6751 117.909 73.9947 117.707 74.3725 117.574C74.7504 117.438 75.168 117.369 75.6254 117.369C75.9407 117.369 76.2546 117.406 76.5671 117.48C76.8796 117.554 77.1651 117.676 77.4237 117.847C77.6822 118.014 77.8896 118.243 78.0458 118.533C78.2049 118.822 78.2844 119.185 78.2844 119.619V124H76.8015V123.101H76.7504C76.6566 123.283 76.5245 123.453 76.354 123.612C76.1864 123.768 75.9748 123.895 75.7191 123.991C75.4663 124.085 75.1694 124.132 74.8285 124.132ZM75.229 122.999C75.5387 122.999 75.8072 122.937 76.0344 122.815C76.2617 122.69 76.4364 122.526 76.5586 122.321C76.6836 122.116 76.7461 121.893 76.7461 121.652V120.881C76.6978 120.92 76.6154 120.957 76.4989 120.991C76.3853 121.026 76.2575 121.055 76.1154 121.081C75.9734 121.107 75.8327 121.129 75.6935 121.149C75.5543 121.169 75.4336 121.186 75.3313 121.2C75.1012 121.232 74.8952 121.283 74.7134 121.354C74.5316 121.425 74.3881 121.524 74.283 121.652C74.1779 121.777 74.1254 121.939 74.1254 122.138C74.1254 122.422 74.229 122.636 74.4364 122.781C74.6438 122.926 74.908 122.999 75.229 122.999ZM82.6907 124.128C82.0373 124.128 81.4762 123.984 81.0075 123.697C80.5415 123.411 80.1822 123.014 79.9293 122.509C79.6793 122 79.5543 121.415 79.5543 120.753C79.5543 120.088 79.6822 119.501 79.9379 118.993C80.1935 118.482 80.5543 118.084 81.0202 117.8C81.489 117.513 82.043 117.369 82.6822 117.369C83.2134 117.369 83.6836 117.467 84.0927 117.663C84.5046 117.857 84.8327 118.131 85.0771 118.486C85.3214 118.838 85.4606 119.25 85.4947 119.722H84.0202C83.9606 119.406 83.8185 119.143 83.5941 118.933C83.3725 118.72 83.0756 118.614 82.7035 118.614C82.3881 118.614 82.1112 118.699 81.8725 118.869C81.6339 119.037 81.4478 119.278 81.3143 119.594C81.1836 119.909 81.1183 120.287 81.1183 120.727C81.1183 121.173 81.1836 121.557 81.3143 121.878C81.445 122.196 81.6282 122.442 81.864 122.615C82.1026 122.786 82.3825 122.871 82.7035 122.871C82.9308 122.871 83.1339 122.828 83.3129 122.743C83.4947 122.655 83.6467 122.528 83.7688 122.364C83.891 122.199 83.9748 121.999 84.0202 121.763H85.4947C85.4577 122.226 85.3214 122.636 85.0856 122.994C84.8498 123.349 84.5288 123.628 84.1225 123.83C83.7163 124.028 83.239 124.128 82.6907 124.128ZM86.7614 124V117.455H88.304V124H86.7614ZM87.5369 116.526C87.2926 116.526 87.0824 116.445 86.9062 116.283C86.7301 116.118 86.642 115.92 86.642 115.69C86.642 115.457 86.7301 115.26 86.9062 115.098C87.0824 114.933 87.2926 114.851 87.5369 114.851C87.7841 114.851 87.9943 114.933 88.1676 115.098C88.3438 115.26 88.4318 115.457 88.4318 115.69C88.4318 115.92 88.3438 116.118 88.1676 116.283C87.9943 116.445 87.7841 116.526 87.5369 116.526ZM93.1587 117.455V118.648H89.396V117.455H93.1587ZM90.3249 115.886H91.8675V122.031C91.8675 122.239 91.8988 122.398 91.9613 122.509C92.0266 122.616 92.1119 122.69 92.217 122.73C92.3221 122.77 92.4386 122.79 92.5664 122.79C92.663 122.79 92.7511 122.783 92.8306 122.768C92.913 122.754 92.9755 122.741 93.0181 122.73L93.2781 123.936C93.1957 123.964 93.0778 123.996 92.9244 124.03C92.7738 124.064 92.5891 124.084 92.3704 124.089C91.984 124.101 91.636 124.043 91.3263 123.915C91.0167 123.784 90.771 123.582 90.5891 123.31C90.4102 123.037 90.3221 122.696 90.3249 122.287V115.886ZM95.4077 126.455C95.1974 126.455 95.0028 126.438 94.8239 126.403C94.6477 126.372 94.5071 126.335 94.402 126.293L94.7599 125.091C94.9844 125.156 95.1847 125.188 95.3608 125.185C95.5369 125.182 95.6918 125.126 95.8253 125.018C95.9616 124.913 96.0767 124.737 96.1705 124.49L96.3026 124.136L93.929 117.455H95.5653L97.0739 122.398H97.142L98.6548 117.455H100.295L97.6747 124.793C97.5526 125.139 97.3906 125.436 97.1889 125.683C96.9872 125.933 96.7401 126.124 96.4474 126.254C96.1577 126.388 95.8111 126.455 95.4077 126.455ZM105.33 119.73V121H101.401V119.73H105.33ZM114.819 119.636C114.819 120.577 114.643 121.382 114.291 122.053C113.941 122.72 113.464 123.232 112.859 123.587C112.257 123.942 111.574 124.119 110.809 124.119C110.045 124.119 109.36 123.942 108.755 123.587C108.153 123.229 107.676 122.716 107.324 122.048C106.974 121.378 106.799 120.574 106.799 119.636C106.799 118.696 106.974 117.892 107.324 117.224C107.676 116.554 108.153 116.041 108.755 115.686C109.36 115.331 110.045 115.153 110.809 115.153C111.574 115.153 112.257 115.331 112.859 115.686C113.464 116.041 113.941 116.554 114.291 117.224C114.643 117.892 114.819 118.696 114.819 119.636ZM113.23 119.636C113.23 118.974 113.126 118.416 112.919 117.962C112.714 117.504 112.43 117.159 112.066 116.926C111.703 116.69 111.284 116.572 110.809 116.572C110.335 116.572 109.916 116.69 109.552 116.926C109.189 117.159 108.903 117.504 108.696 117.962C108.491 118.416 108.389 118.974 108.389 119.636C108.389 120.298 108.491 120.858 108.696 121.315C108.903 121.77 109.189 122.115 109.552 122.351C109.916 122.584 110.335 122.7 110.809 122.7C111.284 122.7 111.703 122.584 112.066 122.351C112.43 122.115 112.714 121.77 112.919 121.315C113.126 120.858 113.23 120.298 113.23 119.636ZM117.788 120.165V124H116.246V117.455H117.72V118.567H117.797C117.947 118.2 118.188 117.909 118.517 117.693C118.849 117.477 119.26 117.369 119.749 117.369C120.2 117.369 120.594 117.466 120.929 117.659C121.267 117.852 121.528 118.132 121.713 118.499C121.901 118.865 121.993 119.31 121.99 119.832V124H120.447V120.071C120.447 119.634 120.334 119.291 120.107 119.044C119.882 118.797 119.571 118.673 119.173 118.673C118.903 118.673 118.663 118.733 118.453 118.852C118.246 118.969 118.082 119.138 117.963 119.359C117.847 119.581 117.788 119.849 117.788 120.165ZM126.456 124.128C125.8 124.128 125.233 123.991 124.756 123.719C124.281 123.443 123.916 123.054 123.661 122.551C123.405 122.045 123.277 121.45 123.277 120.766C123.277 120.092 123.405 119.501 123.661 118.993C123.919 118.482 124.28 118.084 124.743 117.8C125.206 117.513 125.75 117.369 126.375 117.369C126.778 117.369 127.159 117.435 127.517 117.565C127.878 117.693 128.196 117.892 128.472 118.162C128.75 118.432 128.969 118.776 129.128 119.193C129.287 119.608 129.366 120.102 129.366 120.676V121.149H124.001V120.109H127.888C127.885 119.814 127.821 119.551 127.696 119.321C127.571 119.088 127.396 118.905 127.172 118.771C126.95 118.638 126.692 118.571 126.396 118.571C126.081 118.571 125.804 118.648 125.565 118.801C125.327 118.952 125.141 119.151 125.007 119.398C124.876 119.642 124.81 119.911 124.807 120.203V121.111C124.807 121.491 124.876 121.818 125.016 122.091C125.155 122.361 125.349 122.568 125.599 122.713C125.849 122.855 126.142 122.926 126.477 122.926C126.702 122.926 126.905 122.895 127.087 122.832C127.268 122.767 127.426 122.672 127.56 122.547C127.693 122.422 127.794 122.267 127.862 122.082L129.303 122.244C129.212 122.625 129.038 122.957 128.783 123.241C128.53 123.523 128.206 123.741 127.811 123.898C127.416 124.051 126.964 124.128 126.456 124.128ZM134.639 119.73V121H130.71V119.73H134.639ZM141.831 115.273H143.412V120.974C143.412 121.599 143.264 122.149 142.969 122.624C142.676 123.098 142.264 123.469 141.733 123.736C141.202 124 140.581 124.132 139.871 124.132C139.158 124.132 138.536 124 138.004 123.736C137.473 123.469 137.061 123.098 136.768 122.624C136.476 122.149 136.33 121.599 136.33 120.974V115.273H137.911V120.842C137.911 121.206 137.99 121.53 138.149 121.814C138.311 122.098 138.538 122.321 138.831 122.483C139.124 122.642 139.47 122.722 139.871 122.722C140.271 122.722 140.618 122.642 140.911 122.483C141.206 122.321 141.433 122.098 141.592 121.814C141.751 121.53 141.831 121.206 141.831 120.842V115.273ZM149.873 117.672C149.833 117.3 149.666 117.01 149.37 116.803C149.078 116.595 148.697 116.491 148.228 116.491C147.899 116.491 147.616 116.541 147.38 116.641C147.145 116.74 146.964 116.875 146.839 117.045C146.714 117.216 146.65 117.411 146.647 117.629C146.647 117.811 146.689 117.969 146.771 118.102C146.856 118.236 146.971 118.349 147.116 118.443C147.261 118.534 147.422 118.611 147.598 118.673C147.774 118.736 147.951 118.788 148.13 118.831L148.949 119.036C149.278 119.112 149.595 119.216 149.899 119.347C150.206 119.477 150.48 119.642 150.721 119.841C150.966 120.04 151.159 120.28 151.301 120.561C151.443 120.842 151.514 121.172 151.514 121.55C151.514 122.061 151.383 122.511 151.122 122.901C150.86 123.287 150.483 123.589 149.988 123.808C149.497 124.024 148.902 124.132 148.203 124.132C147.524 124.132 146.934 124.027 146.434 123.817C145.937 123.607 145.548 123.3 145.267 122.896C144.988 122.493 144.838 122.001 144.815 121.422H146.37C146.393 121.726 146.487 121.979 146.652 122.18C146.816 122.382 147.031 122.533 147.295 122.632C147.562 122.732 147.86 122.781 148.19 122.781C148.534 122.781 148.835 122.73 149.093 122.628C149.355 122.523 149.559 122.378 149.707 122.193C149.855 122.006 149.93 121.787 149.933 121.537C149.93 121.31 149.863 121.122 149.733 120.974C149.602 120.824 149.419 120.699 149.183 120.599C148.95 120.497 148.677 120.406 148.365 120.327L147.372 120.071C146.653 119.886 146.085 119.607 145.667 119.232C145.252 118.854 145.045 118.352 145.045 117.727C145.045 117.213 145.184 116.763 145.463 116.376C145.744 115.99 146.126 115.69 146.609 115.477C147.092 115.261 147.639 115.153 148.25 115.153C148.869 115.153 149.412 115.261 149.877 115.477C150.346 115.69 150.714 115.987 150.981 116.368C151.248 116.746 151.386 117.18 151.395 117.672H149.873Z" fill="white"/>
<path d="M168.898 119.574L166.418 122.074C166.281 122.191 166.125 122.25 165.969 122.25C165.793 122.25 165.637 122.191 165.52 122.074L163.039 119.574C162.844 119.398 162.785 119.125 162.883 118.891C162.98 118.656 163.215 118.5 163.469 118.5H168.449C168.703 118.5 168.918 118.656 169.016 118.891C169.113 119.125 169.074 119.398 168.898 119.574Z" fill="#6461EE"/>
<path d="M55.7862 138.181H54.4581C54.4202 137.963 54.3504 137.77 54.2486 137.602C54.1468 137.432 54.0201 137.287 53.8686 137.169C53.7171 137.051 53.5443 136.962 53.3501 136.903C53.1584 136.841 52.9512 136.81 52.7287 136.81C52.3333 136.81 51.983 136.91 51.6776 137.109C51.3722 137.305 51.133 137.594 50.9602 137.975C50.7874 138.354 50.701 138.817 50.701 139.364C50.701 139.92 50.7874 140.389 50.9602 140.77C51.1354 141.149 51.3745 141.435 51.6776 141.629C51.983 141.821 52.3321 141.917 52.7251 141.917C52.9429 141.917 53.1465 141.888 53.3359 141.832C53.5277 141.772 53.6993 141.686 53.8509 141.572C54.0047 141.459 54.1338 141.319 54.2379 141.153C54.3445 140.988 54.4179 140.798 54.4581 140.585L55.7862 140.592C55.7365 140.938 55.6288 141.262 55.4631 141.565C55.2997 141.868 55.0855 142.136 54.8203 142.368C54.5552 142.598 54.245 142.777 53.8899 142.908C53.5348 143.036 53.1406 143.099 52.7074 143.099C52.0682 143.099 51.4976 142.951 50.9957 142.656C50.4938 142.36 50.0985 141.932 49.8097 141.374C49.5208 140.815 49.3764 140.145 49.3764 139.364C49.3764 138.58 49.522 137.91 49.8132 137.354C50.1044 136.795 50.5009 136.368 51.0028 136.072C51.5047 135.776 52.0729 135.628 52.7074 135.628C53.1122 135.628 53.4886 135.685 53.8366 135.798C54.1847 135.912 54.4948 136.079 54.767 136.299C55.0393 136.517 55.263 136.784 55.4382 137.102C55.6158 137.416 55.7318 137.776 55.7862 138.181ZM58.2214 139.804V143H56.9359V135.727H58.193V138.472H58.2569C58.3848 138.165 58.5824 137.922 58.85 137.744C59.1199 137.564 59.4631 137.474 59.8798 137.474C60.2586 137.474 60.5888 137.554 60.8706 137.712C61.1523 137.871 61.3701 138.103 61.524 138.408C61.6802 138.714 61.7583 139.087 61.7583 139.527V143H60.4728V139.726C60.4728 139.359 60.3781 139.074 60.1887 138.87C60.0017 138.664 59.7389 138.561 59.4004 138.561C59.1731 138.561 58.9695 138.611 58.7896 138.71C58.612 138.807 58.4724 138.948 58.3706 139.133C58.2711 139.317 58.2214 139.541 58.2214 139.804ZM65.4835 143.107C64.9366 143.107 64.4643 142.993 64.0666 142.766C63.6712 142.536 63.367 142.212 63.1539 141.793C62.9409 141.371 62.8343 140.875 62.8343 140.305C62.8343 139.744 62.9409 139.251 63.1539 138.827C63.3694 138.401 63.67 138.07 64.0559 137.833C64.4418 137.594 64.8952 137.474 65.416 137.474C65.7522 137.474 66.0694 137.529 66.3677 137.638C66.6684 137.744 66.9335 137.91 67.1632 138.135C67.3952 138.36 67.5775 138.646 67.71 138.994C67.8426 139.34 67.9089 139.752 67.9089 140.23V140.624H63.438V139.758H66.6767C66.6743 139.512 66.621 139.293 66.5169 139.101C66.4127 138.907 66.2671 138.754 66.0801 138.643C65.8954 138.531 65.68 138.476 65.4338 138.476C65.171 138.476 64.9402 138.54 64.7413 138.668C64.5424 138.793 64.3874 138.959 64.2761 139.165C64.1672 139.368 64.1116 139.592 64.1092 139.836V140.592C64.1092 140.91 64.1672 141.182 64.2832 141.409C64.3992 141.634 64.5614 141.807 64.7697 141.928C64.978 142.046 65.2219 142.105 65.5012 142.105C65.6883 142.105 65.8575 142.079 66.0091 142.027C66.1606 141.973 66.292 141.893 66.4032 141.789C66.5145 141.685 66.5985 141.556 66.6554 141.402L67.8556 141.537C67.7799 141.854 67.6355 142.131 67.4224 142.368C67.2117 142.602 66.9418 142.785 66.6127 142.915C66.2837 143.043 65.9073 143.107 65.4835 143.107ZM71.3757 143.107C70.8312 143.107 70.3636 142.987 69.973 142.748C69.5848 142.509 69.2853 142.179 69.0746 141.757C68.8662 141.333 68.7621 140.846 68.7621 140.294C68.7621 139.74 68.8686 139.251 69.0817 138.827C69.2947 138.401 69.5954 138.07 69.9837 137.833C70.3743 137.594 70.8359 137.474 71.3686 137.474C71.8113 137.474 72.2031 137.556 72.544 137.719C72.8873 137.88 73.1607 138.109 73.3643 138.405C73.5679 138.698 73.6839 139.042 73.7124 139.435H72.4837C72.4339 139.172 72.3156 138.953 72.1286 138.778C71.9439 138.6 71.6965 138.511 71.3864 138.511C71.1236 138.511 70.8928 138.582 70.6939 138.724C70.495 138.864 70.34 139.065 70.2287 139.328C70.1198 139.591 70.0653 139.906 70.0653 140.273C70.0653 140.644 70.1198 140.964 70.2287 141.232C70.3376 141.497 70.4903 141.701 70.6868 141.846C70.8857 141.988 71.1188 142.059 71.3864 142.059C71.5758 142.059 71.745 142.023 71.8942 141.952C72.0457 141.879 72.1723 141.774 72.2741 141.636C72.3759 141.499 72.4458 141.332 72.4837 141.136H73.7124C73.6816 141.522 73.5679 141.864 73.3714 142.162C73.175 142.458 72.9074 142.69 72.5689 142.858C72.2304 143.024 71.8326 143.107 71.3757 143.107ZM75.9398 141.288L75.9363 139.737H76.1422L78.1025 137.545H79.6046L77.1934 140.23H76.927L75.9398 141.288ZM74.7679 143V135.727H76.0534V143H74.7679ZM78.1912 143L76.4157 140.518L77.2821 139.612L79.7289 143H78.1912ZM81.2532 143.078C81.0378 143.078 80.8531 143.002 80.6992 142.851C80.5453 142.699 80.4696 142.515 80.4719 142.297C80.4696 142.084 80.5453 141.902 80.6992 141.75C80.8531 141.598 81.0378 141.523 81.2532 141.523C81.4615 141.523 81.6426 141.598 81.7965 141.75C81.9528 141.902 82.0321 142.084 82.0344 142.297C82.0321 142.441 81.9942 142.573 81.9208 142.691C81.8498 142.809 81.7551 142.904 81.6367 142.975C81.5207 143.044 81.3929 143.078 81.2532 143.078ZM81.2532 139.186C81.0378 139.186 80.8531 139.11 80.6992 138.959C80.5453 138.805 80.4696 138.62 80.4719 138.405C80.4696 138.192 80.5453 138.009 80.6992 137.858C80.8531 137.704 81.0378 137.627 81.2532 137.627C81.4615 137.627 81.6426 137.704 81.7965 137.858C81.9528 138.009 82.0321 138.192 82.0344 138.405C82.0321 138.547 81.9942 138.677 81.9208 138.795C81.8498 138.914 81.7551 139.009 81.6367 139.08C81.5207 139.151 81.3929 139.186 81.2532 139.186ZM85.8279 143V142.048L88.3528 139.573C88.5943 139.329 88.7955 139.113 88.9565 138.923C89.1175 138.734 89.2382 138.55 89.3187 138.373C89.3992 138.195 89.4395 138.006 89.4395 137.805C89.4395 137.575 89.3874 137.379 89.2832 137.215C89.179 137.049 89.0358 136.922 88.8535 136.832C88.6712 136.742 88.4641 136.697 88.2321 136.697C87.993 136.697 87.7834 136.746 87.6035 136.846C87.4236 136.943 87.2839 137.081 87.1845 137.261C87.0874 137.441 87.0389 137.656 87.0389 137.904H85.7853C85.7853 137.442 85.8907 137.041 86.1014 136.7C86.3121 136.359 86.6021 136.095 86.9714 135.908C87.3431 135.721 87.7692 135.628 88.2498 135.628C88.7375 135.628 89.166 135.719 89.5353 135.901C89.9047 136.084 90.1911 136.333 90.3947 136.651C90.6007 136.968 90.7037 137.33 90.7037 137.737C90.7037 138.009 90.6516 138.277 90.5474 138.54C90.4432 138.803 90.2598 139.094 89.997 139.413C89.7366 139.733 89.3708 140.12 88.8997 140.575L87.6461 141.849V141.899H90.8137V143H85.8279ZM94.5673 143.099C94.0938 143.099 93.67 143.011 93.296 142.833C92.9219 142.653 92.6248 142.407 92.4047 142.094C92.1868 141.782 92.0708 141.424 92.0566 141.022H93.335C93.3587 141.32 93.4877 141.564 93.7221 141.754C93.9565 141.941 94.2382 142.034 94.5673 142.034C94.8253 142.034 95.055 141.975 95.2562 141.857C95.4574 141.738 95.6161 141.574 95.7321 141.363C95.8481 141.152 95.9049 140.912 95.9025 140.642C95.9049 140.367 95.8469 140.124 95.7285 139.911C95.6101 139.697 95.448 139.531 95.242 139.41C95.036 139.287 94.7993 139.225 94.5318 139.225C94.314 139.223 94.0997 139.263 93.889 139.346C93.6783 139.429 93.5114 139.538 93.3883 139.673L92.1987 139.477L92.5787 135.727H96.7974V136.828H93.6689L93.4593 138.756H93.502C93.6369 138.598 93.8275 138.466 94.0737 138.362C94.3199 138.256 94.5898 138.202 94.8833 138.202C95.3237 138.202 95.7167 138.307 96.0623 138.515C96.408 138.721 96.6802 139.005 96.8791 139.367C97.0779 139.729 97.1774 140.144 97.1774 140.61C97.1774 141.091 97.0661 141.519 96.8436 141.896C96.6234 142.27 96.3168 142.564 95.9238 142.78C95.5332 142.993 95.081 143.099 94.5673 143.099ZM102.692 138.987L101.52 139.115C101.487 138.997 101.429 138.885 101.346 138.781C101.266 138.677 101.157 138.593 101.02 138.529C100.882 138.465 100.714 138.433 100.515 138.433C100.248 138.433 100.023 138.491 99.8407 138.607C99.6608 138.723 99.572 138.874 99.5744 139.058C99.572 139.217 99.63 139.346 99.7484 139.445C99.8691 139.545 100.068 139.626 100.345 139.69L101.275 139.889C101.791 140 102.175 140.177 102.426 140.418C102.679 140.66 102.807 140.976 102.809 141.366C102.807 141.71 102.706 142.013 102.508 142.276C102.311 142.536 102.038 142.74 101.687 142.886C101.337 143.033 100.934 143.107 100.48 143.107C99.8123 143.107 99.2749 142.967 98.8677 142.688C98.4605 142.406 98.2179 142.014 98.1397 141.512L99.3933 141.391C99.4501 141.638 99.5708 141.823 99.7555 141.949C99.9402 142.074 100.18 142.137 100.476 142.137C100.782 142.137 101.027 142.074 101.211 141.949C101.398 141.823 101.492 141.668 101.492 141.484C101.492 141.327 101.432 141.198 101.311 141.097C101.193 140.995 101.008 140.917 100.757 140.862L99.8265 140.667C99.3033 140.558 98.9163 140.375 98.6653 140.116C98.4144 139.856 98.2901 139.527 98.2924 139.129C98.2901 138.793 98.3812 138.502 98.5659 138.256C98.7529 138.007 99.0121 137.815 99.3436 137.68C99.6774 137.543 100.062 137.474 100.498 137.474C101.137 137.474 101.64 137.611 102.007 137.883C102.376 138.155 102.605 138.523 102.692 138.987Z" fill="white" fill-opacity="0.6"/>
<path d="M55.6832 156.092H54.5753C54.5327 155.856 54.4534 155.647 54.3374 155.467C54.2214 155.287 54.0793 155.135 53.9112 155.009C53.7431 154.884 53.5549 154.789 53.3466 154.725C53.1406 154.661 52.9216 154.629 52.6896 154.629C52.2706 154.629 51.8954 154.735 51.5639 154.945C51.2348 155.156 50.9744 155.465 50.7827 155.872C50.5933 156.279 50.4986 156.777 50.4986 157.364C50.4986 157.955 50.5933 158.455 50.7827 158.862C50.9744 159.269 51.236 159.577 51.5675 159.786C51.8989 159.994 52.2718 160.098 52.6861 160.098C52.9157 160.098 53.1335 160.067 53.3395 160.006C53.5478 159.942 53.736 159.848 53.9041 159.725C54.0722 159.602 54.2143 159.452 54.3303 159.274C54.4486 159.094 54.5303 158.888 54.5753 158.656L55.6832 158.66C55.6241 159.017 55.5092 159.346 55.3388 159.647C55.1707 159.945 54.9541 160.203 54.6889 160.421C54.4261 160.637 54.1255 160.804 53.7869 160.922C53.4484 161.04 53.0791 161.099 52.679 161.099C52.0492 161.099 51.4882 160.95 50.9957 160.652C50.5033 160.351 50.1151 159.922 49.831 159.363C49.5492 158.804 49.4084 158.138 49.4084 157.364C49.4084 156.587 49.5504 155.921 49.8345 155.364C50.1186 154.806 50.5069 154.377 50.9993 154.079C51.4917 153.778 52.0516 153.628 52.679 153.628C53.0649 153.628 53.4247 153.683 53.7585 153.795C54.0947 153.904 54.3965 154.065 54.6641 154.278C54.9316 154.488 55.1529 154.746 55.3281 155.052C55.5033 155.355 55.6217 155.702 55.6832 156.092ZM57.9728 157.761V161H56.911V153.727H57.9586V156.433H58.0261C58.1539 156.14 58.3493 155.906 58.612 155.734C58.8748 155.561 59.2181 155.474 59.6419 155.474C60.0159 155.474 60.3426 155.551 60.622 155.705C60.9037 155.859 61.1215 156.089 61.2754 156.394C61.4316 156.697 61.5098 157.076 61.5098 157.531V161H60.448V157.658C60.448 157.258 60.345 156.948 60.139 156.728C59.9331 156.505 59.6466 156.394 59.2797 156.394C59.0287 156.394 58.8038 156.447 58.6049 156.554C58.4084 156.661 58.2534 156.817 58.1397 157.023C58.0285 157.226 57.9728 157.473 57.9728 157.761ZM64.514 161.121C64.1684 161.121 63.8559 161.057 63.5765 160.929C63.2972 160.799 63.0758 160.611 62.9125 160.364C62.7515 160.118 62.671 159.816 62.671 159.459C62.671 159.151 62.7302 158.898 62.8485 158.699C62.9669 158.5 63.1267 158.343 63.3279 158.227C63.5292 158.111 63.7541 158.023 64.0027 157.964C64.2512 157.905 64.5046 157.86 64.7626 157.829C65.0893 157.791 65.3545 157.76 65.5581 157.737C65.7617 157.71 65.9096 157.669 66.002 157.612C66.0943 157.555 66.1404 157.463 66.1404 157.335V157.31C66.1404 157 66.0529 156.76 65.8777 156.589C65.7048 156.419 65.4468 156.334 65.1035 156.334C64.746 156.334 64.4643 156.413 64.2583 156.572C64.0547 156.728 63.9139 156.902 63.8358 157.094L62.8379 156.866C62.9563 156.535 63.1291 156.268 63.3564 156.064C63.586 155.858 63.85 155.709 64.1483 155.616C64.4466 155.522 64.7602 155.474 65.0893 155.474C65.3071 155.474 65.5379 155.5 65.7818 155.553C66.028 155.602 66.2576 155.695 66.4707 155.83C66.6861 155.964 66.8625 156.157 66.9998 156.408C67.1371 156.657 67.2058 156.98 67.2058 157.378V161H66.1689V160.254H66.1262C66.0576 160.392 65.9546 160.527 65.8173 160.659C65.68 160.792 65.5036 160.902 65.2882 160.989C65.0727 161.077 64.8147 161.121 64.514 161.121ZM64.7449 160.268C65.0384 160.268 65.2894 160.21 65.4977 160.094C65.7084 159.978 65.8682 159.827 65.9771 159.64C66.0884 159.451 66.144 159.248 66.144 159.033V158.33C66.1061 158.367 66.0327 158.403 65.9238 158.436C65.8173 158.467 65.6954 158.494 65.5581 158.518C65.4208 158.539 65.287 158.559 65.1568 158.578C65.0266 158.595 64.9177 158.609 64.8301 158.621C64.6241 158.647 64.4359 158.691 64.2654 158.752C64.0974 158.814 63.9624 158.902 63.8606 159.018C63.7612 159.132 63.7115 159.284 63.7115 159.473C63.7115 159.736 63.8085 159.935 64.0027 160.07C64.1968 160.202 64.4442 160.268 64.7449 160.268ZM69.6818 157.761V161H68.62V155.545H69.6392V156.433H69.7067C69.8321 156.144 70.0286 155.912 70.2962 155.737C70.5661 155.562 70.9058 155.474 71.3153 155.474C71.687 155.474 72.0125 155.553 72.2919 155.709C72.5713 155.863 72.7879 156.092 72.9418 156.398C73.0956 156.703 73.1726 157.081 73.1726 157.531V161H72.1108V157.658C72.1108 157.263 72.0078 156.954 71.8018 156.732C71.5959 156.507 71.313 156.394 70.9531 156.394C70.7069 156.394 70.4879 156.447 70.2962 156.554C70.1068 156.661 69.9564 156.817 69.8452 157.023C69.7363 157.226 69.6818 157.473 69.6818 157.761ZM76.8835 163.159C76.4503 163.159 76.0774 163.102 75.7649 162.989C75.4548 162.875 75.2015 162.725 75.005 162.538C74.8085 162.351 74.6617 162.146 74.5646 161.923L75.4773 161.547C75.5412 161.651 75.6264 161.761 75.733 161.877C75.8419 161.996 75.9886 162.096 76.1733 162.179C76.3603 162.262 76.6006 162.303 76.8942 162.303C77.2966 162.303 77.6293 162.205 77.892 162.009C78.1548 161.814 78.2862 161.504 78.2862 161.078V160.006H78.2188C78.1548 160.122 78.0625 160.251 77.9418 160.393C77.8234 160.535 77.66 160.658 77.4517 160.762C77.2434 160.866 76.9723 160.918 76.6385 160.918C76.2076 160.918 75.8194 160.818 75.4737 160.616C75.1304 160.413 74.8582 160.113 74.657 159.718C74.4581 159.32 74.3587 158.831 74.3587 158.251C74.3587 157.671 74.4569 157.174 74.6534 156.76C74.8523 156.346 75.1245 156.028 75.4702 155.808C75.8158 155.586 76.2076 155.474 76.6456 155.474C76.9841 155.474 77.2576 155.531 77.4659 155.645C77.6742 155.756 77.8364 155.886 77.9524 156.036C78.0708 156.185 78.1619 156.316 78.2259 156.43H78.304V155.545H79.3445V161.121C79.3445 161.589 79.2356 161.974 79.0178 162.275C78.8 162.576 78.5052 162.798 78.1335 162.942C77.7642 163.087 77.3475 163.159 76.8835 163.159ZM76.8729 160.038C77.1783 160.038 77.4363 159.967 77.647 159.825C77.8601 159.68 78.0211 159.474 78.13 159.207C78.2412 158.937 78.2969 158.614 78.2969 158.237C78.2969 157.87 78.2424 157.547 78.1335 157.268C78.0246 156.988 77.8648 156.771 77.6541 156.614C77.4434 156.456 77.183 156.376 76.8729 156.376C76.5533 156.376 76.2869 156.459 76.0739 156.625C75.8608 156.788 75.6998 157.011 75.5909 157.293C75.4844 157.574 75.4311 157.889 75.4311 158.237C75.4311 158.595 75.4856 158.908 75.5945 159.178C75.7034 159.448 75.8643 159.659 76.0774 159.81C76.2929 159.962 76.558 160.038 76.8729 160.038ZM83.1193 161.11C82.5819 161.11 82.1191 160.995 81.7308 160.766C81.3449 160.534 81.0466 160.208 80.8359 159.789C80.6276 159.368 80.5234 158.874 80.5234 158.308C80.5234 157.75 80.6276 157.257 80.8359 156.831C81.0466 156.405 81.3402 156.072 81.7166 155.833C82.0954 155.594 82.5381 155.474 83.0447 155.474C83.3525 155.474 83.6508 155.525 83.9396 155.627C84.2285 155.729 84.4877 155.889 84.7173 156.107C84.947 156.324 85.1281 156.607 85.2607 156.955C85.3932 157.301 85.4595 157.721 85.4595 158.216V158.592H81.1236V157.797H84.419C84.419 157.518 84.3622 157.27 84.2486 157.055C84.1349 156.837 83.9751 156.665 83.7692 156.54C83.5656 156.414 83.3265 156.352 83.0518 156.352C82.7536 156.352 82.4931 156.425 82.2706 156.572C82.0504 156.716 81.88 156.906 81.7592 157.14C81.6409 157.372 81.5817 157.624 81.5817 157.896V158.518C81.5817 158.882 81.6456 159.192 81.7734 159.448C81.9036 159.704 82.0848 159.899 82.3168 160.034C82.5488 160.167 82.8198 160.233 83.13 160.233C83.3312 160.233 83.5147 160.205 83.6804 160.148C83.8461 160.089 83.9893 160.001 84.1101 159.885C84.2308 159.769 84.3232 159.626 84.3871 159.455L85.392 159.636C85.3116 159.932 85.1671 160.192 84.9588 160.414C84.7528 160.634 84.4936 160.806 84.1811 160.929C83.871 161.05 83.517 161.11 83.1193 161.11Z" fill="#00D4FF"/>
<path d="M101.643 161V153.727H104.235C104.799 153.727 105.266 153.824 105.638 154.018C106.012 154.213 106.291 154.481 106.476 154.825C106.661 155.165 106.753 155.56 106.753 156.007C106.753 156.452 106.659 156.844 106.472 157.183C106.288 157.519 106.008 157.78 105.634 157.967C105.263 158.154 104.795 158.248 104.232 158.248H102.268V157.303H104.132C104.487 157.303 104.776 157.252 104.999 157.151C105.223 157.049 105.388 156.901 105.492 156.707C105.596 156.513 105.648 156.279 105.648 156.007C105.648 155.732 105.595 155.495 105.489 155.293C105.384 155.092 105.22 154.938 104.995 154.832C104.772 154.723 104.48 154.668 104.118 154.668H102.74V161H101.643ZM105.233 157.719L107.03 161H105.78L104.018 157.719H105.233ZM110.285 161.11C109.748 161.11 109.285 160.995 108.897 160.766C108.511 160.534 108.213 160.208 108.002 159.789C107.794 159.368 107.689 158.874 107.689 158.308C107.689 157.75 107.794 157.257 108.002 156.831C108.213 156.405 108.506 156.072 108.883 155.833C109.261 155.594 109.704 155.474 110.211 155.474C110.519 155.474 110.817 155.525 111.106 155.627C111.394 155.729 111.654 155.889 111.883 156.107C112.113 156.324 112.294 156.607 112.427 156.955C112.559 157.301 112.626 157.721 112.626 158.216V158.592H108.29V157.797H111.585C111.585 157.518 111.528 157.27 111.415 157.055C111.301 156.837 111.141 156.665 110.935 156.54C110.732 156.414 110.492 156.352 110.218 156.352C109.92 156.352 109.659 156.425 109.437 156.572C109.216 156.716 109.046 156.906 108.925 157.14C108.807 157.372 108.748 157.624 108.748 157.896V158.518C108.748 158.882 108.812 159.192 108.939 159.448C109.07 159.704 109.251 159.899 109.483 160.034C109.715 160.167 109.986 160.233 110.296 160.233C110.497 160.233 110.681 160.205 110.846 160.148C111.012 160.089 111.155 160.001 111.276 159.885C111.397 159.769 111.489 159.626 111.553 159.455L112.558 159.636C112.478 159.932 112.333 160.192 112.125 160.414C111.919 160.634 111.66 160.806 111.347 160.929C111.037 161.05 110.683 161.11 110.285 161.11ZM117.891 156.877L116.929 157.048C116.888 156.924 116.824 156.807 116.737 156.696C116.652 156.585 116.536 156.494 116.389 156.423C116.242 156.352 116.059 156.316 115.838 156.316C115.538 156.316 115.287 156.384 115.086 156.518C114.884 156.651 114.784 156.823 114.784 157.033C114.784 157.216 114.851 157.362 114.986 157.474C115.121 157.585 115.339 157.676 115.64 157.747L116.506 157.946C117.008 158.062 117.382 158.241 117.628 158.482C117.874 158.724 117.998 159.037 117.998 159.423C117.998 159.75 117.903 160.041 117.713 160.297C117.526 160.55 117.265 160.749 116.929 160.893C116.595 161.038 116.208 161.11 115.767 161.11C115.157 161.11 114.658 160.98 114.272 160.719C113.886 160.457 113.65 160.084 113.562 159.601L114.588 159.445C114.652 159.712 114.784 159.915 114.983 160.052C115.181 160.187 115.441 160.254 115.76 160.254C116.108 160.254 116.386 160.182 116.595 160.038C116.803 159.891 116.907 159.712 116.907 159.501C116.907 159.331 116.843 159.188 116.716 159.072C116.59 158.956 116.397 158.868 116.137 158.809L115.213 158.607C114.704 158.491 114.328 158.306 114.084 158.053C113.843 157.799 113.722 157.478 113.722 157.09C113.722 156.768 113.812 156.487 113.992 156.245C114.172 156.004 114.42 155.815 114.738 155.68C115.055 155.543 115.418 155.474 115.828 155.474C116.417 155.474 116.881 155.602 117.22 155.858C117.558 156.111 117.782 156.451 117.891 156.877ZM121.516 161.11C120.978 161.11 120.516 160.995 120.127 160.766C119.741 160.534 119.443 160.208 119.232 159.789C119.024 159.368 118.92 158.874 118.92 158.308C118.92 157.75 119.024 157.257 119.232 156.831C119.443 156.405 119.737 156.072 120.113 155.833C120.492 155.594 120.935 155.474 121.441 155.474C121.749 155.474 122.047 155.525 122.336 155.627C122.625 155.729 122.884 155.889 123.114 156.107C123.343 156.324 123.525 156.607 123.657 156.955C123.79 157.301 123.856 157.721 123.856 158.216V158.592H119.52V157.797H122.816C122.816 157.518 122.759 157.27 122.645 157.055C122.531 156.837 122.372 156.665 122.166 156.54C121.962 156.414 121.723 156.352 121.448 156.352C121.15 156.352 120.89 156.425 120.667 156.572C120.447 156.716 120.276 156.906 120.156 157.14C120.037 157.372 119.978 157.624 119.978 157.896V158.518C119.978 158.882 120.042 159.192 120.17 159.448C120.3 159.704 120.481 159.899 120.713 160.034C120.945 160.167 121.216 160.233 121.526 160.233C121.728 160.233 121.911 160.205 122.077 160.148C122.243 160.089 122.386 160.001 122.507 159.885C122.627 159.769 122.72 159.626 122.784 159.455L123.789 159.636C123.708 159.932 123.564 160.192 123.355 160.414C123.149 160.634 122.89 160.806 122.578 160.929C122.267 161.05 121.914 161.11 121.516 161.11ZM127.58 155.545V156.398H124.601V155.545H127.58ZM125.4 154.239H126.462V159.398C126.462 159.604 126.492 159.759 126.554 159.864C126.616 159.965 126.695 160.035 126.792 160.073C126.891 160.109 126.999 160.126 127.115 160.126C127.2 160.126 127.275 160.121 127.339 160.109C127.403 160.097 127.452 160.087 127.488 160.08L127.68 160.957C127.618 160.981 127.531 161.005 127.417 161.028C127.303 161.054 127.161 161.069 126.991 161.071C126.711 161.076 126.451 161.026 126.21 160.922C125.968 160.818 125.773 160.657 125.624 160.439C125.474 160.221 125.4 159.948 125.4 159.619V154.239Z" fill="#00D4FF"/>
<rect x="271.844" y="124" width="68" height="27" rx="6" fill="#0FD38D"/>
<path d="M282.705 142V133.273H285.977C286.648 133.273 287.21 133.389 287.665 133.622C288.122 133.855 288.467 134.182 288.7 134.602C288.936 135.02 289.054 135.507 289.054 136.064C289.054 136.624 288.935 137.109 288.696 137.521C288.46 137.93 288.112 138.247 287.652 138.472C287.192 138.693 286.626 138.804 285.956 138.804H283.625V137.491H285.743C286.135 137.491 286.456 137.437 286.706 137.33C286.956 137.219 287.141 137.058 287.26 136.848C287.382 136.635 287.443 136.374 287.443 136.064C287.443 135.754 287.382 135.49 287.26 135.271C287.138 135.05 286.952 134.882 286.702 134.768C286.452 134.652 286.129 134.594 285.734 134.594H284.286V142H282.705ZM287.213 138.045L289.374 142H287.609L285.487 138.045H287.213ZM294.613 139.247V135.455H296.156V142H294.66V140.837H294.592C294.444 141.203 294.201 141.503 293.863 141.736C293.528 141.969 293.114 142.085 292.623 142.085C292.194 142.085 291.815 141.99 291.485 141.8C291.158 141.607 290.903 141.327 290.718 140.96C290.533 140.591 290.441 140.145 290.441 139.622V135.455H291.984V139.384C291.984 139.798 292.097 140.128 292.325 140.372C292.552 140.616 292.85 140.739 293.219 140.739C293.447 140.739 293.667 140.683 293.88 140.572C294.093 140.462 294.268 140.297 294.404 140.078C294.543 139.857 294.613 139.58 294.613 139.247ZM299.284 138.165V142H297.742V135.455H299.216V136.567H299.293C299.444 136.2 299.684 135.909 300.013 135.693C300.346 135.477 300.756 135.369 301.245 135.369C301.696 135.369 302.09 135.466 302.425 135.659C302.763 135.852 303.025 136.132 303.209 136.499C303.397 136.865 303.489 137.31 303.486 137.832V142H301.944V138.071C301.944 137.634 301.83 137.291 301.603 137.044C301.378 136.797 301.067 136.673 300.669 136.673C300.4 136.673 300.159 136.733 299.949 136.852C299.742 136.969 299.578 137.138 299.459 137.359C299.343 137.581 299.284 137.849 299.284 138.165ZM306.597 138.165V142H305.054V135.455H306.529V136.567H306.605C306.756 136.2 306.996 135.909 307.326 135.693C307.658 135.477 308.069 135.369 308.557 135.369C309.009 135.369 309.402 135.466 309.738 135.659C310.076 135.852 310.337 136.132 310.522 136.499C310.709 136.865 310.801 137.31 310.799 137.832V142H309.256V138.071C309.256 137.634 309.142 137.291 308.915 137.044C308.691 136.797 308.38 136.673 307.982 136.673C307.712 136.673 307.472 136.733 307.262 136.852C307.054 136.969 306.891 137.138 306.772 137.359C306.655 137.581 306.597 137.849 306.597 138.165ZM312.367 142V135.455H313.909V142H312.367ZM313.142 134.526C312.898 134.526 312.688 134.445 312.512 134.283C312.336 134.118 312.248 133.92 312.248 133.69C312.248 133.457 312.336 133.26 312.512 133.098C312.688 132.933 312.898 132.851 313.142 132.851C313.39 132.851 313.6 132.933 313.773 133.098C313.949 133.26 314.037 133.457 314.037 133.69C314.037 133.92 313.949 134.118 313.773 134.283C313.6 134.445 313.39 134.526 313.142 134.526ZM317.038 138.165V142H315.496V135.455H316.97V136.567H317.047C317.197 136.2 317.438 135.909 317.767 135.693C318.099 135.477 318.51 135.369 318.999 135.369C319.45 135.369 319.844 135.466 320.179 135.659C320.517 135.852 320.778 136.132 320.963 136.499C321.151 136.865 321.243 137.31 321.24 137.832V142H319.697V138.071C319.697 137.634 319.584 137.291 319.357 137.044C319.132 136.797 318.821 136.673 318.423 136.673C318.153 136.673 317.913 136.733 317.703 136.852C317.496 136.969 317.332 137.138 317.213 137.359C317.097 137.581 317.038 137.849 317.038 138.165ZM325.655 144.591C325.101 144.591 324.625 144.516 324.227 144.365C323.83 144.217 323.51 144.018 323.268 143.768C323.027 143.518 322.859 143.241 322.766 142.938L324.155 142.601C324.217 142.729 324.308 142.855 324.428 142.98C324.547 143.108 324.707 143.213 324.909 143.295C325.114 143.381 325.371 143.423 325.68 143.423C326.118 143.423 326.48 143.317 326.767 143.104C327.054 142.893 327.197 142.547 327.197 142.064V140.824H327.121C327.041 140.983 326.925 141.146 326.771 141.314C326.621 141.482 326.42 141.622 326.17 141.736C325.923 141.849 325.612 141.906 325.237 141.906C324.734 141.906 324.278 141.788 323.869 141.553C323.463 141.314 323.139 140.959 322.898 140.487C322.659 140.013 322.54 139.419 322.54 138.706C322.54 137.987 322.659 137.381 322.898 136.886C323.139 136.389 323.464 136.013 323.874 135.757C324.283 135.499 324.739 135.369 325.241 135.369C325.625 135.369 325.94 135.435 326.188 135.565C326.438 135.693 326.636 135.848 326.784 136.03C326.932 136.209 327.044 136.378 327.121 136.537H327.206V135.455H328.727V142.107C328.727 142.666 328.594 143.129 328.327 143.496C328.06 143.862 327.695 144.136 327.232 144.318C326.768 144.5 326.243 144.591 325.655 144.591ZM325.668 140.696C325.994 140.696 326.273 140.616 326.503 140.457C326.733 140.298 326.908 140.07 327.027 139.771C327.146 139.473 327.206 139.115 327.206 138.697C327.206 138.286 327.146 137.925 327.027 137.615C326.911 137.305 326.737 137.065 326.507 136.895C326.28 136.722 326 136.635 325.668 136.635C325.324 136.635 325.037 136.724 324.807 136.903C324.577 137.082 324.403 137.328 324.287 137.641C324.17 137.95 324.112 138.303 324.112 138.697C324.112 139.098 324.17 139.449 324.287 139.75C324.406 140.048 324.581 140.281 324.811 140.449C325.044 140.614 325.33 140.696 325.668 140.696Z" fill="#0D2F4F"/>
<path d="M49.7045 195V186.273H55.3807V187.598H51.2855V189.967H55.0866V191.293H51.2855V193.675H55.4148V195H49.7045ZM56.9254 195V188.455H58.3999V189.567H58.4766C58.6129 189.192 58.8388 188.899 59.1541 188.689C59.4695 188.476 59.8459 188.369 60.2834 188.369C60.7266 188.369 61.1001 188.477 61.4041 188.693C61.7109 188.906 61.9268 189.197 62.0518 189.567H62.12C62.2649 189.203 62.5092 188.913 62.853 188.697C63.1996 188.479 63.6101 188.369 64.0845 188.369C64.6868 188.369 65.1783 188.56 65.5589 188.94C65.9396 189.321 66.13 189.876 66.13 190.607V195H64.5831V190.845C64.5831 190.439 64.4751 190.142 64.2592 189.955C64.0433 189.764 63.7791 189.669 63.4666 189.669C63.0945 189.669 62.8033 189.786 62.593 190.018C62.3857 190.249 62.282 190.548 62.282 190.918V195H60.7692V190.781C60.7692 190.443 60.6669 190.173 60.4624 189.972C60.2607 189.77 59.9964 189.669 59.6697 189.669C59.4482 189.669 59.2464 189.726 59.0646 189.839C58.8828 189.95 58.7379 190.108 58.63 190.312C58.522 190.514 58.468 190.75 58.468 191.02V195H56.9254ZM67.7631 195V186.273H69.3058V189.537H69.3697C69.4492 189.378 69.5614 189.209 69.7063 189.03C69.8512 188.848 70.0472 188.693 70.2944 188.565C70.5415 188.435 70.8569 188.369 71.2404 188.369C71.7461 188.369 72.2021 188.499 72.6083 188.757C73.0174 189.013 73.3413 189.392 73.5799 189.895C73.8214 190.395 73.9421 191.009 73.9421 191.736C73.9421 192.455 73.8242 193.065 73.5884 193.568C73.3526 194.071 73.0316 194.455 72.6254 194.719C72.2191 194.983 71.7589 195.115 71.2447 195.115C70.8697 195.115 70.5586 195.053 70.3114 194.928C70.0643 194.803 69.8654 194.652 69.7148 194.476C69.5671 194.297 69.4521 194.128 69.3697 193.969H69.2802V195H67.7631ZM69.2759 191.727C69.2759 192.151 69.3356 192.521 69.4549 192.839C69.5771 193.158 69.7518 193.406 69.979 193.585C70.2092 193.761 70.4876 193.849 70.8143 193.849C71.1552 193.849 71.4407 193.759 71.6708 193.577C71.9009 193.392 72.0742 193.141 72.1907 192.822C72.31 192.501 72.3697 192.136 72.3697 191.727C72.3697 191.321 72.3114 190.96 72.195 190.645C72.0785 190.33 71.9052 190.082 71.6751 189.903C71.445 189.724 71.158 189.635 70.8143 189.635C70.4847 189.635 70.2049 189.722 69.9748 189.895C69.7447 190.068 69.57 190.311 69.4506 190.624C69.3342 190.936 69.2759 191.304 69.2759 191.727ZM78.1513 195.128C77.495 195.128 76.9283 194.991 76.451 194.719C75.9766 194.443 75.6115 194.054 75.3558 193.551C75.1001 193.045 74.9723 192.45 74.9723 191.766C74.9723 191.092 75.1001 190.501 75.3558 189.993C75.6143 189.482 75.9751 189.084 76.4382 188.8C76.9013 188.513 77.4453 188.369 78.0703 188.369C78.4737 188.369 78.8544 188.435 79.2124 188.565C79.5732 188.693 79.8913 188.892 80.1669 189.162C80.4453 189.432 80.6641 189.776 80.8232 190.193C80.9822 190.608 81.0618 191.102 81.0618 191.676V192.149H75.6967V191.109H79.5831C79.5803 190.814 79.5163 190.551 79.3913 190.321C79.2663 190.088 79.0916 189.905 78.8672 189.771C78.6456 189.638 78.3871 189.571 78.0916 189.571C77.7763 189.571 77.4993 189.648 77.2607 189.801C77.022 189.952 76.8359 190.151 76.7024 190.398C76.5717 190.642 76.505 190.911 76.5021 191.203V192.111C76.5021 192.491 76.5717 192.818 76.7109 193.091C76.8501 193.361 77.0447 193.568 77.2947 193.713C77.5447 193.855 77.8374 193.926 78.1726 193.926C78.397 193.926 78.6001 193.895 78.782 193.832C78.9638 193.767 79.1214 193.672 79.255 193.547C79.3885 193.422 79.4893 193.267 79.5575 193.082L80.9979 193.244C80.907 193.625 80.7337 193.957 80.478 194.241C80.2251 194.523 79.9013 194.741 79.5064 194.898C79.1115 195.051 78.6598 195.128 78.1513 195.128ZM84.7958 195.115C84.2816 195.115 83.8214 194.983 83.4151 194.719C83.0089 194.455 82.6879 194.071 82.4521 193.568C82.2163 193.065 82.0984 192.455 82.0984 191.736C82.0984 191.009 82.2177 190.395 82.4563 189.895C82.6978 189.392 83.0231 189.013 83.4322 188.757C83.8413 188.499 84.2972 188.369 84.8001 188.369C85.1836 188.369 85.4989 188.435 85.7461 188.565C85.9933 188.693 86.1893 188.848 86.3342 189.03C86.479 189.209 86.5913 189.378 86.6708 189.537H86.7347V186.273H88.2816V195H86.7646V193.969H86.6708C86.5913 194.128 86.4762 194.297 86.3256 194.476C86.1751 194.652 85.9762 194.803 85.729 194.928C85.4819 195.053 85.1708 195.115 84.7958 195.115ZM85.2262 193.849C85.5529 193.849 85.8313 193.761 86.0614 193.585C86.2915 193.406 86.4663 193.158 86.5856 192.839C86.7049 192.521 86.7646 192.151 86.7646 191.727C86.7646 191.304 86.7049 190.936 86.5856 190.624C86.4691 190.311 86.2958 190.068 86.0657 189.895C85.8384 189.722 85.5586 189.635 85.2262 189.635C84.8825 189.635 84.5955 189.724 84.3654 189.903C84.1353 190.082 83.962 190.33 83.8455 190.645C83.729 190.96 83.6708 191.321 83.6708 191.727C83.6708 192.136 83.729 192.501 83.8455 192.822C83.9648 193.141 84.1396 193.392 84.3697 193.577C84.6026 193.759 84.8881 193.849 85.2262 193.849ZM92.3544 195.115C91.8402 195.115 91.38 194.983 90.9737 194.719C90.5675 194.455 90.2464 194.071 90.0107 193.568C89.7749 193.065 89.657 192.455 89.657 191.736C89.657 191.009 89.7763 190.395 90.0149 189.895C90.2564 189.392 90.5817 189.013 90.9908 188.757C91.3999 188.499 91.8558 188.369 92.3587 188.369C92.7422 188.369 93.0575 188.435 93.3047 188.565C93.5518 188.693 93.7479 188.848 93.8928 189.03C94.0376 189.209 94.1499 189.378 94.2294 189.537H94.2933V186.273H95.8402V195H94.3232V193.969H94.2294C94.1499 194.128 94.0348 194.297 93.8842 194.476C93.7337 194.652 93.5348 194.803 93.2876 194.928C93.0405 195.053 92.7294 195.115 92.3544 195.115ZM92.7848 193.849C93.1115 193.849 93.3899 193.761 93.62 193.585C93.8501 193.406 94.0249 193.158 94.1442 192.839C94.2635 192.521 94.3232 192.151 94.3232 191.727C94.3232 191.304 94.2635 190.936 94.1442 190.624C94.0277 190.311 93.8544 190.068 93.6243 189.895C93.397 189.722 93.1172 189.635 92.7848 189.635C92.4411 189.635 92.1541 189.724 91.924 189.903C91.6939 190.082 91.5206 190.33 91.4041 190.645C91.2876 190.96 91.2294 191.321 91.2294 191.727C91.2294 192.136 91.2876 192.501 91.4041 192.822C91.5234 193.141 91.6982 193.392 91.9283 193.577C92.1612 193.759 92.4467 193.849 92.7848 193.849ZM100.382 195.128C99.7255 195.128 99.1587 194.991 98.6815 194.719C98.207 194.443 97.842 194.054 97.5863 193.551C97.3306 193.045 97.2028 192.45 97.2028 191.766C97.2028 191.092 97.3306 190.501 97.5863 189.993C97.8448 189.482 98.2056 189.084 98.6687 188.8C99.1317 188.513 99.6758 188.369 100.301 188.369C100.704 188.369 101.085 188.435 101.443 188.565C101.804 188.693 102.122 188.892 102.397 189.162C102.676 189.432 102.895 189.776 103.054 190.193C103.213 190.608 103.292 191.102 103.292 191.676V192.149H97.9272V191.109H101.814C101.811 190.814 101.747 190.551 101.622 190.321C101.497 190.088 101.322 189.905 101.098 189.771C100.876 189.638 100.618 189.571 100.322 189.571C100.007 189.571 99.7298 189.648 99.4911 189.801C99.2525 189.952 99.0664 190.151 98.9329 190.398C98.8022 190.642 98.7354 190.911 98.7326 191.203V192.111C98.7326 192.491 98.8022 192.818 98.9414 193.091C99.0806 193.361 99.2752 193.568 99.5252 193.713C99.7752 193.855 100.068 193.926 100.403 193.926C100.627 193.926 100.831 193.895 101.012 193.832C101.194 193.767 101.352 193.672 101.485 193.547C101.619 193.422 101.72 193.267 101.788 193.082L103.228 193.244C103.137 193.625 102.964 193.957 102.708 194.241C102.456 194.523 102.132 194.741 101.737 194.898C101.342 195.051 100.89 195.128 100.382 195.128ZM107.026 195.115C106.512 195.115 106.052 194.983 105.646 194.719C105.239 194.455 104.918 194.071 104.683 193.568C104.447 193.065 104.329 192.455 104.329 191.736C104.329 191.009 104.448 190.395 104.687 189.895C104.928 189.392 105.254 189.013 105.663 188.757C106.072 188.499 106.528 188.369 107.031 188.369C107.414 188.369 107.729 188.435 107.977 188.565C108.224 188.693 108.42 188.848 108.565 189.03C108.71 189.209 108.822 189.378 108.901 189.537H108.965V186.273H110.512V195H108.995V193.969H108.901C108.822 194.128 108.707 194.297 108.556 194.476C108.406 194.652 108.207 194.803 107.96 194.928C107.712 195.053 107.401 195.115 107.026 195.115ZM107.457 193.849C107.783 193.849 108.062 193.761 108.292 193.585C108.522 193.406 108.697 193.158 108.816 192.839C108.935 192.521 108.995 192.151 108.995 191.727C108.995 191.304 108.935 190.936 108.816 190.624C108.7 190.311 108.526 190.068 108.296 189.895C108.069 189.722 107.789 189.635 107.457 189.635C107.113 189.635 106.826 189.724 106.596 189.903C106.366 190.082 106.192 190.33 106.076 190.645C105.96 190.96 105.901 191.321 105.901 191.727C105.901 192.136 105.96 192.501 106.076 192.822C106.195 193.141 106.37 193.392 106.6 193.577C106.833 193.759 107.119 193.849 107.457 193.849ZM114.817 187.598V186.273H121.78V187.598H119.083V195H117.515V187.598H114.817ZM123.054 195V188.455H124.597V195H123.054ZM123.83 187.526C123.586 187.526 123.375 187.445 123.199 187.283C123.023 187.118 122.935 186.92 122.935 186.69C122.935 186.457 123.023 186.26 123.199 186.098C123.375 185.933 123.586 185.851 123.83 185.851C124.077 185.851 124.287 185.933 124.461 186.098C124.637 186.26 124.725 186.457 124.725 186.69C124.725 186.92 124.637 187.118 124.461 187.283C124.287 187.445 124.077 187.526 123.83 187.526ZM126.183 195V188.455H127.658V189.567H127.734C127.871 189.192 128.097 188.899 128.412 188.689C128.727 188.476 129.104 188.369 129.541 188.369C129.984 188.369 130.358 188.477 130.662 188.693C130.969 188.906 131.185 189.197 131.31 189.567H131.378C131.523 189.203 131.767 188.913 132.111 188.697C132.457 188.479 132.868 188.369 133.342 188.369C133.945 188.369 134.436 188.56 134.817 188.94C135.197 189.321 135.388 189.876 135.388 190.607V195H133.841V190.845C133.841 190.439 133.733 190.142 133.517 189.955C133.301 189.764 133.037 189.669 132.724 189.669C132.352 189.669 132.061 189.786 131.851 190.018C131.643 190.249 131.54 190.548 131.54 190.918V195H130.027V190.781C130.027 190.443 129.925 190.173 129.72 189.972C129.518 189.77 129.254 189.669 128.928 189.669C128.706 189.669 128.504 189.726 128.322 189.839C128.141 189.95 127.996 190.108 127.888 190.312C127.78 190.514 127.726 190.75 127.726 191.02V195H126.183ZM139.85 195.128C139.194 195.128 138.627 194.991 138.15 194.719C137.676 194.443 137.311 194.054 137.055 193.551C136.799 193.045 136.672 192.45 136.672 191.766C136.672 191.092 136.799 190.501 137.055 189.993C137.314 189.482 137.674 189.084 138.137 188.8C138.6 188.513 139.145 188.369 139.77 188.369C140.173 188.369 140.554 188.435 140.912 188.565C141.272 188.693 141.591 188.892 141.866 189.162C142.145 189.432 142.363 189.776 142.522 190.193C142.681 190.608 142.761 191.102 142.761 191.676V192.149H137.396V191.109H141.282C141.279 190.814 141.216 190.551 141.091 190.321C140.966 190.088 140.791 189.905 140.566 189.771C140.345 189.638 140.086 189.571 139.791 189.571C139.475 189.571 139.199 189.648 138.96 189.801C138.721 189.952 138.535 190.151 138.402 190.398C138.271 190.642 138.204 190.911 138.201 191.203V192.111C138.201 192.491 138.271 192.818 138.41 193.091C138.549 193.361 138.744 193.568 138.994 193.713C139.244 193.855 139.537 193.926 139.872 193.926C140.096 193.926 140.299 193.895 140.481 193.832C140.663 193.767 140.821 193.672 140.954 193.547C141.088 193.422 141.189 193.267 141.257 193.082L142.697 193.244C142.606 193.625 142.433 193.957 142.177 194.241C141.924 194.523 141.6 194.741 141.206 194.898C140.811 195.051 140.359 195.128 139.85 195.128ZM154.909 190.636C154.909 191.577 154.733 192.382 154.381 193.053C154.031 193.72 153.554 194.232 152.949 194.587C152.347 194.942 151.663 195.119 150.899 195.119C150.135 195.119 149.45 194.942 148.845 194.587C148.243 194.229 147.766 193.716 147.413 193.048C147.064 192.378 146.889 191.574 146.889 190.636C146.889 189.696 147.064 188.892 147.413 188.224C147.766 187.554 148.243 187.041 148.845 186.686C149.45 186.331 150.135 186.153 150.899 186.153C151.663 186.153 152.347 186.331 152.949 186.686C153.554 187.041 154.031 187.554 154.381 188.224C154.733 188.892 154.909 189.696 154.909 190.636ZM153.32 190.636C153.32 189.974 153.216 189.416 153.009 188.962C152.804 188.504 152.52 188.159 152.156 187.926C151.793 187.69 151.374 187.572 150.899 187.572C150.425 187.572 150.006 187.69 149.642 187.926C149.278 188.159 148.993 188.504 148.786 188.962C148.581 189.416 148.479 189.974 148.479 190.636C148.479 191.298 148.581 191.858 148.786 192.315C148.993 192.77 149.278 193.115 149.642 193.351C150.006 193.584 150.425 193.7 150.899 193.7C151.374 193.7 151.793 193.584 152.156 193.351C152.52 193.115 152.804 192.77 153.009 192.315C153.216 191.858 153.32 191.298 153.32 190.636ZM160.507 192.247V188.455H162.05V195H160.554V193.837H160.486C160.338 194.203 160.096 194.503 159.757 194.736C159.422 194.969 159.009 195.085 158.517 195.085C158.088 195.085 157.709 194.99 157.38 194.8C157.053 194.607 156.797 194.327 156.613 193.96C156.428 193.591 156.336 193.145 156.336 192.622V188.455H157.878V192.384C157.878 192.798 157.992 193.128 158.219 193.372C158.446 193.616 158.745 193.739 159.114 193.739C159.341 193.739 159.561 193.683 159.775 193.572C159.988 193.462 160.162 193.297 160.299 193.078C160.438 192.857 160.507 192.58 160.507 192.247ZM166.905 188.455V189.648H163.142V188.455H166.905ZM164.071 186.886H165.614V193.031C165.614 193.239 165.645 193.398 165.707 193.509C165.773 193.616 165.858 193.69 165.963 193.73C166.068 193.77 166.185 193.79 166.312 193.79C166.409 193.79 166.497 193.783 166.577 193.768C166.659 193.754 166.722 193.741 166.764 193.73L167.024 194.936C166.942 194.964 166.824 194.996 166.67 195.03C166.52 195.064 166.335 195.084 166.116 195.089C165.73 195.101 165.382 195.043 165.072 194.915C164.763 194.784 164.517 194.582 164.335 194.31C164.156 194.037 164.068 193.696 164.071 193.287V186.886Z" fill="white"/>
<path d="M49.6428 214V206.727H52.2351C52.7985 206.727 53.2661 206.824 53.6378 207.018C54.0118 207.213 54.2912 207.481 54.4759 207.825C54.6605 208.165 54.7528 208.56 54.7528 209.007C54.7528 209.452 54.6593 209.844 54.4723 210.183C54.2876 210.519 54.0083 210.78 53.6342 210.967C53.2625 211.154 52.795 211.248 52.2315 211.248H50.2678V210.303H52.1321C52.4872 210.303 52.776 210.252 52.9986 210.151C53.2235 210.049 53.388 209.901 53.4922 209.707C53.5964 209.513 53.6484 209.279 53.6484 209.007C53.6484 208.732 53.5952 208.495 53.4886 208.293C53.3845 208.092 53.2199 207.938 52.995 207.832C52.7725 207.723 52.4801 207.668 52.1179 207.668H50.7401V214H49.6428ZM53.233 210.719L55.0298 214H53.7798L52.0185 210.719H53.233ZM58.2853 214.11C57.7479 214.11 57.2851 213.995 56.8968 213.766C56.5109 213.534 56.2127 213.208 56.002 212.789C55.7936 212.368 55.6895 211.874 55.6895 211.308C55.6895 210.75 55.7936 210.257 56.002 209.831C56.2127 209.405 56.5062 209.072 56.8826 208.833C57.2614 208.594 57.7041 208.474 58.2108 208.474C58.5185 208.474 58.8168 208.525 59.1056 208.627C59.3945 208.729 59.6537 208.889 59.8833 209.107C60.113 209.324 60.2941 209.607 60.4267 209.955C60.5592 210.301 60.6255 210.721 60.6255 211.216V211.592H56.2896V210.797H59.585C59.585 210.518 59.5282 210.27 59.4146 210.055C59.301 209.837 59.1412 209.665 58.9352 209.54C58.7316 209.414 58.4925 209.352 58.2179 209.352C57.9196 209.352 57.6592 209.425 57.4366 209.572C57.2164 209.716 57.046 209.906 56.9252 210.14C56.8069 210.372 56.7477 210.624 56.7477 210.896V211.518C56.7477 211.882 56.8116 212.192 56.9395 212.448C57.0697 212.704 57.2508 212.899 57.4828 213.034C57.7148 213.167 57.9859 213.233 58.296 213.233C58.4972 213.233 58.6807 213.205 58.8464 213.148C59.0121 213.089 59.1554 213.001 59.2761 212.885C59.3968 212.769 59.4892 212.626 59.5531 212.455L60.5581 212.636C60.4776 212.932 60.3332 213.192 60.1248 213.414C59.9189 213.634 59.6596 213.806 59.3471 213.929C59.037 214.05 58.6831 214.11 58.2853 214.11ZM65.891 209.877L64.9286 210.048C64.8884 209.924 64.8245 209.807 64.7369 209.696C64.6516 209.585 64.5356 209.494 64.3888 209.423C64.2421 209.352 64.0586 209.316 63.8384 209.316C63.5378 209.316 63.2868 209.384 63.0856 209.518C62.8844 209.651 62.7837 209.823 62.7837 210.033C62.7837 210.216 62.8512 210.362 62.9862 210.474C63.1211 210.585 63.3389 210.676 63.6396 210.747L64.506 210.946C65.0079 211.062 65.382 211.241 65.6282 211.482C65.8744 211.724 65.9975 212.037 65.9975 212.423C65.9975 212.75 65.9028 213.041 65.7134 213.297C65.5264 213.55 65.2648 213.749 64.9286 213.893C64.5948 214.038 64.2077 214.11 63.7674 214.11C63.1566 214.11 62.6583 213.98 62.2724 213.719C61.8865 213.457 61.6497 213.084 61.5621 212.601L62.5884 212.445C62.6523 212.712 62.7837 212.915 62.9826 213.052C63.1815 213.187 63.4407 213.254 63.7603 213.254C64.1083 213.254 64.3865 213.182 64.5948 213.038C64.8031 212.891 64.9073 212.712 64.9073 212.501C64.9073 212.331 64.8434 212.188 64.7156 212.072C64.5901 211.956 64.3971 211.868 64.1367 211.809L63.2134 211.607C62.7044 211.491 62.328 211.306 62.0842 211.053C61.8427 210.799 61.7219 210.478 61.7219 210.09C61.7219 209.768 61.8119 209.487 61.9918 209.245C62.1718 209.004 62.4203 208.815 62.7376 208.68C63.0548 208.543 63.4182 208.474 63.8278 208.474C64.4173 208.474 64.8813 208.602 65.2198 208.858C65.5584 209.111 65.7821 209.451 65.891 209.877ZM69.5158 214.11C68.9784 214.11 68.5156 213.995 68.1273 213.766C67.7414 213.534 67.4431 213.208 67.2324 212.789C67.0241 212.368 66.9199 211.874 66.9199 211.308C66.9199 210.75 67.0241 210.257 67.2324 209.831C67.4431 209.405 67.7367 209.072 68.1131 208.833C68.4919 208.594 68.9346 208.474 69.4412 208.474C69.749 208.474 70.0473 208.525 70.3361 208.627C70.6249 208.729 70.8842 208.889 71.1138 209.107C71.3435 209.324 71.5246 209.607 71.6571 209.955C71.7897 210.301 71.856 210.721 71.856 211.216V211.592H67.5201V210.797H70.8155C70.8155 210.518 70.7587 210.27 70.6451 210.055C70.5314 209.837 70.3716 209.665 70.1657 209.54C69.9621 209.414 69.723 209.352 69.4483 209.352C69.15 209.352 68.8896 209.425 68.6671 209.572C68.4469 209.716 68.2765 209.906 68.1557 210.14C68.0373 210.372 67.9782 210.624 67.9782 210.896V211.518C67.9782 211.882 68.0421 212.192 68.1699 212.448C68.3001 212.704 68.4812 212.899 68.7132 213.034C68.9453 213.167 69.2163 213.233 69.5265 213.233C69.7277 213.233 69.9112 213.205 70.0769 213.148C70.2426 213.089 70.3858 213.001 70.5066 212.885C70.6273 212.769 70.7196 212.626 70.7836 212.455L71.7885 212.636C71.708 212.932 71.5636 213.192 71.3553 213.414C71.1493 213.634 70.8901 213.806 70.5776 213.929C70.2675 214.05 69.9135 214.11 69.5158 214.11ZM75.5803 208.545V209.398H72.6009V208.545H75.5803ZM73.3999 207.239H74.4616V212.398C74.4616 212.604 74.4924 212.759 74.554 212.864C74.6155 212.965 74.6948 213.035 74.7919 213.073C74.8913 213.109 74.9991 213.126 75.1151 213.126C75.2003 213.126 75.2749 213.121 75.3388 213.109C75.4027 213.097 75.4524 213.087 75.4879 213.08L75.6797 213.957C75.6181 213.981 75.5305 214.005 75.4169 214.028C75.3033 214.054 75.1612 214.069 74.9908 214.071C74.7114 214.076 74.451 214.026 74.2095 213.922C73.968 213.818 73.7727 213.657 73.6236 213.439C73.4744 213.221 73.3999 212.948 73.3999 212.619V207.239Z" fill="#00D4FF"/>
<rect x="274.844" y="186" width="65" height="27" rx="6" fill="#00D4FF" fill-opacity="0.2"/>
<path d="M288.815 204.119C288.398 204.116 287.99 204.044 287.592 203.902C287.195 203.757 286.837 203.523 286.518 203.199C286.2 202.872 285.947 202.439 285.76 201.899C285.572 201.357 285.48 200.685 285.483 199.884C285.483 199.136 285.563 198.47 285.722 197.885C285.881 197.3 286.109 196.805 286.408 196.402C286.706 195.996 287.065 195.686 287.486 195.473C287.909 195.26 288.382 195.153 288.905 195.153C289.453 195.153 289.939 195.261 290.362 195.477C290.788 195.693 291.132 195.989 291.393 196.364C291.655 196.736 291.817 197.156 291.879 197.625H290.324C290.244 197.29 290.081 197.023 289.834 196.824C289.589 196.622 289.28 196.521 288.905 196.521C288.3 196.521 287.834 196.784 287.507 197.31C287.183 197.835 287.02 198.557 287.017 199.474H287.077C287.216 199.224 287.396 199.01 287.618 198.831C287.839 198.652 288.089 198.514 288.368 198.418C288.649 198.318 288.946 198.268 289.259 198.268C289.77 198.268 290.229 198.391 290.635 198.635C291.044 198.879 291.368 199.216 291.607 199.645C291.845 200.071 291.963 200.56 291.96 201.111C291.963 201.685 291.832 202.2 291.568 202.658C291.304 203.112 290.936 203.47 290.464 203.732C289.993 203.993 289.443 204.122 288.815 204.119ZM288.807 202.841C289.116 202.841 289.393 202.766 289.638 202.615C289.882 202.464 290.075 202.261 290.217 202.006C290.359 201.75 290.429 201.463 290.426 201.145C290.429 200.832 290.361 200.55 290.222 200.297C290.085 200.044 289.896 199.844 289.655 199.696C289.413 199.548 289.138 199.474 288.828 199.474C288.598 199.474 288.384 199.518 288.185 199.607C287.986 199.695 287.813 199.817 287.665 199.973C287.517 200.126 287.401 200.305 287.315 200.51C287.233 200.712 287.19 200.928 287.188 201.158C287.19 201.462 287.261 201.741 287.401 201.997C287.54 202.253 287.732 202.457 287.976 202.611C288.22 202.764 288.497 202.841 288.807 202.841ZM296.626 204.166C295.925 204.166 295.322 203.989 294.82 203.634C294.32 203.276 293.935 202.76 293.665 202.087C293.398 201.411 293.264 200.597 293.264 199.645C293.267 198.693 293.402 197.884 293.669 197.216C293.939 196.545 294.324 196.034 294.824 195.682C295.327 195.33 295.928 195.153 296.626 195.153C297.325 195.153 297.926 195.33 298.429 195.682C298.932 196.034 299.317 196.545 299.584 197.216C299.854 197.886 299.989 198.696 299.989 199.645C299.989 200.599 299.854 201.415 299.584 202.091C299.317 202.764 298.932 203.278 298.429 203.634C297.929 203.989 297.328 204.166 296.626 204.166ZM296.626 202.832C297.172 202.832 297.602 202.564 297.918 202.027C298.236 201.487 298.395 200.693 298.395 199.645C298.395 198.952 298.322 198.369 298.178 197.898C298.033 197.426 297.828 197.071 297.564 196.832C297.3 196.591 296.987 196.47 296.626 196.47C296.084 196.47 295.655 196.74 295.339 197.28C295.024 197.817 294.865 198.605 294.862 199.645C294.859 200.341 294.929 200.926 295.071 201.401C295.216 201.875 295.42 202.233 295.685 202.474C295.949 202.713 296.263 202.832 296.626 202.832ZM301.422 204V197.455H302.896V198.567H302.973C303.109 198.192 303.335 197.899 303.65 197.689C303.966 197.476 304.342 197.369 304.779 197.369C305.223 197.369 305.596 197.477 305.9 197.693C306.207 197.906 306.423 198.197 306.548 198.567H306.616C306.761 198.203 307.005 197.913 307.349 197.697C307.696 197.479 308.106 197.369 308.581 197.369C309.183 197.369 309.674 197.56 310.055 197.94C310.436 198.321 310.626 198.876 310.626 199.607V204H309.079V199.845C309.079 199.439 308.971 199.142 308.755 198.955C308.539 198.764 308.275 198.669 307.963 198.669C307.591 198.669 307.299 198.786 307.089 199.018C306.882 199.249 306.778 199.548 306.778 199.918V204H305.265V199.781C305.265 199.443 305.163 199.173 304.958 198.972C304.757 198.77 304.493 198.669 304.166 198.669C303.944 198.669 303.743 198.726 303.561 198.839C303.379 198.95 303.234 199.108 303.126 199.312C303.018 199.514 302.964 199.75 302.964 200.02V204H301.422Z" fill="#00D4FF"/>
<path d="M329.109 199.789L326.133 202.789C325.969 202.93 325.781 203 325.594 203C325.383 203 325.195 202.93 325.055 202.789L322.078 199.789C321.844 199.578 321.773 199.25 321.891 198.969C322.008 198.688 322.289 198.5 322.594 198.5H328.57C328.875 198.5 329.133 198.688 329.25 198.969C329.367 199.25 329.32 199.578 329.109 199.789Z" fill="#00D4FF"/>
</g>
<defs>
<filter id="filter0_d_360_22187" x="0.84375" y="0" width="387" height="274" filterUnits="userSpaceOnUse" color-interpolation-filters="sRGB">
<feFlood flood-opacity="0" result="BackgroundImageFix"/>
<feColorMatrix in="SourceAlpha" type="matrix" values="0 0 0 0 0 0 0 0 0 0 0 0 0 0 0 0 0 0 127 0" result="hardAlpha"/>
<feOffset dy="4"/>
<feGaussianBlur stdDeviation="12"/>
<feColorMatrix type="matrix" values="0 0 0 0 0.0235294 0 0 0 0 0.0941176 0 0 0 0 0.172549 0 0 0 0.4 0"/>
<feBlend mode="normal" in2="BackgroundImageFix" result="effect1_dropShadow_360_22187"/>
<feBlend mode="normal" in="SourceGraphic" in2="effect1_dropShadow_360_22187" result="shape"/>
</filter>
</defs>
</svg>
