<svg width="362" height="309" viewBox="0 0 362 309" fill="none" xmlns="http://www.w3.org/2000/svg">
<g filter="url(#filter0_d_360_22261)">
<g filter="url(#filter1_d_360_22261)">
<g filter="url(#filter2_d_360_22261)">
<rect x="29.3291" y="25" width="303.514" height="251" rx="14.2411" fill="#0D2F4F"/>
</g>
<path d="M54.5106 66.7021V55.0503H58.88C59.7751 55.0503 60.5261 55.2172 61.133 55.551C61.7437 55.8848 62.2045 56.3437 62.5155 56.9278C62.8303 57.5081 62.9877 58.1681 62.9877 58.9077C62.9877 59.6549 62.8303 60.3187 62.5155 60.899C62.2007 61.4793 61.7361 61.9363 61.1216 62.2701C60.5072 62.6001 59.7505 62.7651 58.8516 62.7651H55.9557V61.0298H58.5671C59.0905 61.0298 59.5191 60.9388 59.8529 60.7568C60.1867 60.5747 60.4332 60.3244 60.5925 60.0058C60.7556 59.6872 60.8372 59.3211 60.8372 58.9077C60.8372 58.4943 60.7556 58.1302 60.5925 57.8153C60.4332 57.5005 60.1848 57.2559 59.8472 57.0814C59.5134 56.9032 59.0829 56.814 58.5557 56.814H56.6213V66.7021H54.5106ZM67.0884 66.8785C66.5346 66.8785 66.0358 66.7799 65.5921 66.5827C65.1521 66.3816 64.8031 66.0858 64.5452 65.6951C64.2911 65.3045 64.164 64.8228 64.164 64.25C64.164 63.7569 64.2551 63.3492 64.4371 63.0268C64.6192 62.7044 64.8676 62.4465 65.1824 62.2531C65.4972 62.0596 65.8519 61.9136 66.2463 61.815C66.6446 61.7126 67.0561 61.6386 67.4809 61.5931C67.993 61.54 68.4083 61.4926 68.7269 61.4509C69.0455 61.4053 69.2769 61.3371 69.421 61.246C69.5689 61.1512 69.6429 61.0052 69.6429 60.808V60.7738C69.6429 60.3452 69.5158 60.0133 69.2617 59.7782C69.0076 59.543 68.6416 59.4254 68.1637 59.4254C67.6592 59.4254 67.259 59.5354 66.9632 59.7554C66.6711 59.9754 66.4739 60.2352 66.3715 60.5349L64.4485 60.2618C64.6002 59.7308 64.8505 59.287 65.1995 58.9305C65.5484 58.5701 65.9751 58.3008 66.4796 58.1226C66.9841 57.9405 67.5416 57.8495 68.1523 57.8495C68.5733 57.8495 68.9924 57.8988 69.4096 57.9974C69.8269 58.096 70.208 58.2591 70.5532 58.4867C70.8983 58.7105 71.1752 59.0158 71.3838 59.4027C71.5962 59.7896 71.7024 60.2732 71.7024 60.8535V66.7021H69.7225V65.5017H69.6543C69.5291 65.7444 69.3527 65.972 69.1252 66.1844C68.9014 66.393 68.6188 66.5618 68.2774 66.6908C67.9399 66.8159 67.5435 66.8785 67.0884 66.8785ZM67.6232 65.3651C68.0366 65.3651 68.395 65.2836 68.6985 65.1205C69.0019 64.9536 69.2352 64.7336 69.3983 64.4605C69.5651 64.1874 69.6486 63.8897 69.6486 63.5673V62.5375C69.5841 62.5906 69.4741 62.6399 69.3186 62.6855C69.1669 62.731 68.9962 62.7708 68.8066 62.8049C68.6169 62.8391 68.4292 62.8694 68.2433 62.896C68.0575 62.9225 67.8963 62.9453 67.7597 62.9642C67.4525 63.006 67.1775 63.0742 66.9348 63.169C66.692 63.2639 66.5005 63.3966 66.3601 63.5673C66.2198 63.7342 66.1496 63.9504 66.1496 64.2159C66.1496 64.5952 66.2881 64.8815 66.5649 65.075C66.8418 65.2684 67.1946 65.3651 67.6232 65.3651ZM74.7406 69.9792C74.4599 69.9792 74.2001 69.9565 73.9611 69.911C73.726 69.8692 73.5382 69.8199 73.3979 69.763L73.8758 68.1586C74.1754 68.2459 74.4428 68.2876 74.678 68.2838C74.9132 68.28 75.1199 68.206 75.2981 68.0619C75.4802 67.9216 75.6338 67.6864 75.759 67.3564L75.9353 66.8842L72.7664 57.9633H74.9511L76.9651 64.5629H77.0561L79.0759 57.9633H81.2663L77.7673 67.7604C77.6042 68.2231 77.388 68.6195 77.1187 68.9495C76.8494 69.2832 76.5195 69.5374 76.1288 69.7118C75.7419 69.8901 75.2792 69.9792 74.7406 69.9792ZM91.0918 57.9633V59.5563H85.9259V57.9633H91.0918ZM87.2174 66.7021V57.1383C87.2174 56.5504 87.3387 56.0611 87.5815 55.6705C87.828 55.2798 88.158 54.9877 88.5714 54.7943C88.9849 54.6008 89.4438 54.5041 89.9483 54.5041C90.3048 54.5041 90.6215 54.5326 90.8984 54.5895C91.1753 54.6464 91.3801 54.6976 91.5128 54.7431L91.1032 56.3361C91.016 56.3096 90.906 56.283 90.7732 56.2565C90.6405 56.2261 90.4926 56.2109 90.3295 56.2109C89.9464 56.2109 89.6752 56.3039 89.5159 56.4897C89.3604 56.6718 89.2826 56.9335 89.2826 57.2749V66.7021H87.2174ZM96.1881 66.8728C95.3347 66.8728 94.5951 66.6851 93.9692 66.3096C93.3434 65.9341 92.8579 65.4088 92.5128 64.7336C92.1714 64.0585 92.0007 63.2696 92.0007 62.3668C92.0007 61.4641 92.1714 60.6733 92.5128 59.9944C92.8579 59.3154 93.3434 58.7882 93.9692 58.4127C94.5951 58.0372 95.3347 57.8495 96.1881 57.8495C97.0415 57.8495 97.7811 58.0372 98.4069 58.4127C99.0328 58.7882 99.5164 59.3154 99.8577 59.9944C100.203 60.6733 100.375 61.4641 100.375 62.3668C100.375 63.2696 100.203 64.0585 99.8577 64.7336C99.5164 65.4088 99.0328 65.9341 98.4069 66.3096C97.7811 66.6851 97.0415 66.8728 96.1881 66.8728ZM96.1995 65.2229C96.6622 65.2229 97.0491 65.0958 97.3601 64.8417C97.6711 64.5838 97.9025 64.2386 98.0542 63.8063C98.2097 63.3739 98.2875 62.8922 98.2875 62.3612C98.2875 61.8264 98.2097 61.3428 98.0542 60.9104C97.9025 60.4742 97.6711 60.1271 97.3601 59.8692C97.0491 59.6113 96.6622 59.4823 96.1995 59.4823C95.7254 59.4823 95.3309 59.6113 95.0161 59.8692C94.7051 60.1271 94.4718 60.4742 94.3163 60.9104C94.1646 61.3428 94.0887 61.8264 94.0887 62.3612C94.0887 62.8922 94.1646 63.3739 94.3163 63.8063C94.4718 64.2386 94.7051 64.5838 95.0161 64.8417C95.3309 65.0958 95.7254 65.2229 96.1995 65.2229ZM102.124 66.7021V57.9633H104.12V59.4197H104.212C104.371 58.9153 104.644 58.5265 105.031 58.2534C105.421 57.9765 105.867 57.8381 106.368 57.8381C106.482 57.8381 106.609 57.8438 106.749 57.8552C106.893 57.8628 107.013 57.876 107.107 57.895V59.7896C107.02 59.7592 106.882 59.7327 106.692 59.7099C106.506 59.6834 106.326 59.6701 106.152 59.6701C105.776 59.6701 105.439 59.7516 105.139 59.9147C104.843 60.074 104.61 60.2959 104.439 60.5804C104.268 60.8649 104.183 61.1929 104.183 61.5646V66.7021H102.124ZM113.73 69.9792C113.449 69.9792 113.189 69.9565 112.95 69.911C112.715 69.8692 112.527 69.8199 112.387 69.763L112.865 68.1586C113.165 68.2459 113.432 68.2876 113.667 68.2838C113.902 68.28 114.109 68.206 114.287 68.0619C114.469 67.9216 114.623 67.6864 114.748 67.3564L114.925 66.8842L111.756 57.9633H113.94L115.954 64.5629H116.045L118.065 57.9633H120.256L116.757 67.7604C116.594 68.2231 116.377 68.6195 116.108 68.9495C115.839 69.2832 115.509 69.5374 115.118 69.7118C114.731 69.8901 114.268 69.9792 113.73 69.9792ZM125.195 66.8728C124.342 66.8728 123.602 66.6851 122.977 66.3096C122.351 65.9341 121.865 65.4088 121.52 64.7336C121.179 64.0585 121.008 63.2696 121.008 62.3668C121.008 61.4641 121.179 60.6733 121.52 59.9944C121.865 59.3154 122.351 58.7882 122.977 58.4127C123.602 58.0372 124.342 57.8495 125.195 57.8495C126.049 57.8495 126.788 58.0372 127.414 58.4127C128.04 58.7882 128.524 59.3154 128.865 59.9944C129.21 60.6733 129.383 61.4641 129.383 62.3668C129.383 63.2696 129.21 64.0585 128.865 64.7336C128.524 65.4088 128.04 65.9341 127.414 66.3096C126.788 66.6851 126.049 66.8728 125.195 66.8728ZM125.207 65.2229C125.669 65.2229 126.056 65.0958 126.367 64.8417C126.678 64.5838 126.91 64.2386 127.061 63.8063C127.217 63.3739 127.295 62.8922 127.295 62.3612C127.295 61.8264 127.217 61.3428 127.061 60.9104C126.91 60.4742 126.678 60.1271 126.367 59.8692C126.056 59.6113 125.669 59.4823 125.207 59.4823C124.733 59.4823 124.338 59.6113 124.023 59.8692C123.712 60.1271 123.479 60.4742 123.324 60.9104C123.172 61.3428 123.096 61.8264 123.096 62.3612C123.096 62.8922 123.172 63.3739 123.324 63.8063C123.479 64.2386 123.712 64.5838 124.023 64.8417C124.338 65.0958 124.733 65.2229 125.207 65.2229ZM136.701 63.0268V57.9633H138.76V66.7021H136.763V65.1489H136.672C136.475 65.6382 136.151 66.0384 135.699 66.3494C135.252 66.6604 134.7 66.8159 134.044 66.8159C133.471 66.8159 132.965 66.6889 132.525 66.4347C132.089 66.1768 131.747 65.8032 131.501 65.3139C131.254 64.8209 131.131 64.2254 131.131 63.5275V57.9633H133.19V63.2089C133.19 63.7626 133.342 64.2026 133.646 64.5288C133.949 64.855 134.347 65.0181 134.84 65.0181C135.144 65.0181 135.438 64.9441 135.722 64.7962C136.007 64.6483 136.24 64.4283 136.422 64.1362C136.608 63.8404 136.701 63.4706 136.701 63.0268ZM140.878 66.7021V57.9633H142.875V59.4197H142.966C143.125 58.9153 143.399 58.5265 143.785 58.2534C144.176 57.9765 144.622 57.8381 145.122 57.8381C145.236 57.8381 145.363 57.8438 145.504 57.8552C145.648 57.8628 145.767 57.876 145.862 57.895V59.7896C145.775 59.7592 145.636 59.7327 145.447 59.7099C145.261 59.6834 145.081 59.6701 144.906 59.6701C144.531 59.6701 144.193 59.7516 143.893 59.9147C143.598 60.074 143.364 60.2959 143.194 60.5804C143.023 60.8649 142.938 61.1929 142.938 61.5646V66.7021H140.878ZM158.111 60.2732L156.234 60.478C156.181 60.2883 156.088 60.1101 155.955 59.9432C155.826 59.7763 155.652 59.6416 155.432 59.5392C155.212 59.4368 154.942 59.3856 154.624 59.3856C154.195 59.3856 153.835 59.4785 153.543 59.6644C153.254 59.8502 153.112 60.0911 153.116 60.3869C153.112 60.6411 153.205 60.8478 153.395 61.0071C153.588 61.1664 153.907 61.2972 154.351 61.3997L155.841 61.7183C156.668 61.8965 157.282 62.1791 157.685 62.566C158.09 62.9529 158.295 63.4592 158.299 64.085C158.295 64.635 158.134 65.1205 157.815 65.5415C157.501 65.9587 157.062 66.2849 156.501 66.5201C155.94 66.7552 155.295 66.8728 154.567 66.8728C153.497 66.8728 152.636 66.649 151.984 66.2015C151.331 65.7501 150.943 65.1224 150.817 64.3183L152.826 64.1249C152.917 64.5193 153.11 64.8171 153.406 65.0181C153.702 65.2191 154.087 65.3196 154.561 65.3196C155.05 65.3196 155.443 65.2191 155.739 65.0181C156.038 64.8171 156.188 64.5686 156.188 64.2728C156.188 64.0225 156.092 63.8157 155.898 63.6526C155.708 63.4895 155.413 63.3644 155.011 63.2771L153.52 62.9642C152.682 62.7898 152.062 62.4958 151.659 62.0824C151.257 61.6652 151.058 61.1379 151.062 60.5007C151.058 59.9621 151.204 59.4956 151.5 59.1011C151.8 58.7029 152.215 58.3957 152.746 58.1795C153.281 57.9595 153.897 57.8495 154.595 57.8495C155.619 57.8495 156.425 58.0676 157.013 58.5038C157.605 58.9399 157.971 59.5297 158.111 60.2732ZM165.567 63.0268V57.9633H167.627V66.7021H165.63V65.1489H165.539C165.341 65.6382 165.017 66.0384 164.566 66.3494C164.118 66.6604 163.566 66.8159 162.91 66.8159C162.337 66.8159 161.831 66.6889 161.391 66.4347C160.955 66.1768 160.614 65.8032 160.367 65.3139C160.121 64.8209 159.997 64.2254 159.997 63.5275V57.9633H162.057V63.2089C162.057 63.7626 162.209 64.2026 162.512 64.5288C162.815 64.855 163.214 65.0181 163.707 65.0181C164.01 65.0181 164.304 64.9441 164.589 64.7962C164.873 64.6483 165.106 64.4283 165.288 64.1362C165.474 63.8404 165.567 63.4706 165.567 63.0268ZM169.836 66.7021V55.0503H171.895V59.4084H171.981C172.087 59.196 172.237 58.9703 172.43 58.7313C172.623 58.4886 172.885 58.2819 173.215 58.1112C173.545 57.9367 173.966 57.8495 174.478 57.8495C175.153 57.8495 175.762 58.0221 176.304 58.3672C176.851 58.7086 177.283 59.2149 177.602 59.8863C177.924 60.5538 178.085 61.3731 178.085 62.3441C178.085 63.3037 177.928 64.1192 177.613 64.7905C177.298 65.4619 176.87 65.9739 176.327 66.3266C175.785 66.6794 175.17 66.8558 174.484 66.8558C173.983 66.8558 173.568 66.7723 173.238 66.6054C172.908 66.4385 172.642 66.2375 172.441 66.0024C172.244 65.7634 172.09 65.5377 171.981 65.3253H171.861V66.7021H169.836ZM171.855 62.3327C171.855 62.8979 171.935 63.3928 172.094 63.8176C172.257 64.2424 172.491 64.5743 172.794 64.8133C173.101 65.0484 173.473 65.166 173.909 65.166C174.364 65.166 174.746 65.0446 175.053 64.8019C175.36 64.5554 175.591 64.2197 175.747 63.7949C175.906 63.3663 175.986 62.8789 175.986 62.3327C175.986 61.7903 175.908 61.3086 175.753 60.8876C175.597 60.4666 175.366 60.1366 175.058 59.8977C174.751 59.6587 174.368 59.5392 173.909 59.5392C173.469 59.5392 173.096 59.6549 172.788 59.8863C172.481 60.1176 172.248 60.4419 172.089 60.8592C171.933 61.2764 171.855 61.7676 171.855 62.3327ZM186.743 60.2732L184.866 60.478C184.812 60.2883 184.719 60.1101 184.587 59.9432C184.458 59.7763 184.283 59.6416 184.063 59.5392C183.843 59.4368 183.574 59.3856 183.255 59.3856C182.827 59.3856 182.466 59.4785 182.174 59.6644C181.886 59.8502 181.744 60.0911 181.748 60.3869C181.744 60.6411 181.837 60.8478 182.027 61.0071C182.22 61.1664 182.539 61.2972 182.982 61.3997L184.473 61.7183C185.3 61.8965 185.914 62.1791 186.316 62.566C186.722 62.9529 186.927 63.4592 186.931 64.085C186.927 64.635 186.766 65.1205 186.447 65.5415C186.132 65.9587 185.694 66.2849 185.133 66.5201C184.572 66.7552 183.927 66.8728 183.199 66.8728C182.129 66.8728 181.268 66.649 180.616 66.2015C179.963 65.7501 179.574 65.1224 179.449 64.3183L181.458 64.1249C181.549 64.5193 181.742 64.8171 182.038 65.0181C182.334 65.2191 182.719 65.3196 183.193 65.3196C183.682 65.3196 184.075 65.2191 184.371 65.0181C184.67 64.8171 184.82 64.5686 184.82 64.2728C184.82 64.0225 184.723 63.8157 184.53 63.6526C184.34 63.4895 184.044 63.3644 183.642 63.2771L182.152 62.9642C181.313 62.7898 180.693 62.4958 180.291 62.0824C179.889 61.6652 179.69 61.1379 179.694 60.5007C179.69 59.9621 179.836 59.4956 180.132 59.1011C180.432 58.7029 180.847 58.3957 181.378 58.1795C181.913 57.9595 182.529 57.8495 183.227 57.8495C184.251 57.8495 185.057 58.0676 185.645 58.5038C186.237 58.9399 186.603 59.5297 186.743 60.2732ZM192.441 66.8728C191.569 66.8728 190.819 66.6813 190.194 66.2982C189.572 65.9151 189.092 65.386 188.754 64.7109C188.42 64.0319 188.254 63.2506 188.254 62.3668C188.254 61.4793 188.424 60.6961 188.766 60.0171C189.107 59.3344 189.589 58.8034 190.211 58.4241C190.837 58.041 191.576 57.8495 192.43 57.8495C193.139 57.8495 193.767 57.9803 194.313 58.242C194.863 58.5 195.301 58.866 195.627 59.3401C195.953 59.8104 196.139 60.3604 196.185 60.99H194.216C194.136 60.569 193.947 60.2182 193.647 59.9375C193.351 59.653 192.955 59.5108 192.458 59.5108C192.037 59.5108 191.667 59.6246 191.349 59.8521C191.03 60.0759 190.782 60.3983 190.603 60.8193C190.429 61.2403 190.342 61.7448 190.342 62.3327C190.342 62.9282 190.429 63.4402 190.603 63.8688C190.778 64.2936 191.022 64.6217 191.337 64.8531C191.656 65.0807 192.029 65.1945 192.458 65.1945C192.761 65.1945 193.033 65.1376 193.272 65.0238C193.514 64.9062 193.717 64.7374 193.88 64.5174C194.043 64.2974 194.155 64.03 194.216 63.7152H196.185C196.135 64.3335 195.953 64.8815 195.638 65.3595C195.324 65.8336 194.895 66.2053 194.353 66.4746C193.81 66.7401 193.173 66.8728 192.441 66.8728ZM197.876 66.7021V57.9633H199.873V59.4197H199.964C200.123 58.9153 200.396 58.5265 200.783 58.2534C201.174 57.9765 201.619 57.8381 202.12 57.8381C202.234 57.8381 202.361 57.8438 202.501 57.8552C202.645 57.8628 202.765 57.876 202.86 57.895V59.7896C202.772 59.7592 202.634 59.7327 202.444 59.7099C202.258 59.6834 202.078 59.6701 201.904 59.6701C201.528 59.6701 201.191 59.7516 200.891 59.9147C200.595 60.074 200.362 60.2959 200.191 60.5804C200.021 60.8649 199.935 61.1929 199.935 61.5646V66.7021H197.876ZM204.228 66.7021V57.9633H206.287V66.7021H204.228ZM205.263 56.723C204.937 56.723 204.656 56.6149 204.421 56.3987C204.186 56.1787 204.069 55.9151 204.069 55.6079C204.069 55.2969 204.186 55.0332 204.421 54.817C204.656 54.5971 204.937 54.4871 205.263 54.4871C205.593 54.4871 205.874 54.5971 206.105 54.817C206.341 55.0332 206.458 55.2969 206.458 55.6079C206.458 55.9151 206.341 56.1787 206.105 56.3987C205.874 56.6149 205.593 56.723 205.263 56.723ZM208.405 69.9792V57.9633H210.431V59.4084H210.55C210.656 59.196 210.806 58.9703 211 58.7313C211.193 58.4886 211.455 58.2819 211.785 58.1112C212.115 57.9367 212.536 57.8495 213.048 57.8495C213.723 57.8495 214.332 58.0221 214.874 58.3672C215.42 58.7086 215.853 59.2149 216.171 59.8863C216.494 60.5538 216.655 61.3731 216.655 62.3441C216.655 63.3037 216.497 64.1192 216.183 64.7905C215.868 65.4619 215.439 65.9739 214.897 66.3266C214.354 66.6794 213.74 66.8558 213.054 66.8558C212.553 66.8558 212.138 66.7723 211.808 66.6054C211.478 66.4385 211.212 66.2375 211.011 66.0024C210.814 65.7634 210.66 65.5377 210.55 65.3253H210.465V69.9792H208.405ZM210.425 62.3327C210.425 62.8979 210.505 63.3928 210.664 63.8176C210.827 64.2424 211.06 64.5743 211.364 64.8133C211.671 65.0484 212.043 65.166 212.479 65.166C212.934 65.166 213.315 65.0446 213.622 64.8019C213.93 64.5554 214.161 64.2197 214.317 63.7949C214.476 63.3663 214.556 62.8789 214.556 62.3327C214.556 61.7903 214.478 61.3086 214.322 60.8876C214.167 60.4666 213.935 60.1366 213.628 59.8977C213.321 59.6587 212.938 59.5392 212.479 59.5392C212.039 59.5392 211.665 59.6549 211.358 59.8863C211.051 60.1176 210.818 60.4419 210.658 60.8592C210.503 61.2764 210.425 61.7676 210.425 62.3327ZM222.782 57.9633V59.5563H217.759V57.9633H222.782ZM218.999 55.8696H221.058V64.0737C221.058 64.3505 221.1 64.5629 221.184 64.7109C221.271 64.855 221.385 64.9536 221.525 65.0067C221.665 65.0598 221.821 65.0864 221.992 65.0864C222.12 65.0864 222.238 65.0769 222.344 65.0579C222.454 65.039 222.538 65.0219 222.595 65.0067L222.942 66.6168C222.832 66.6547 222.674 66.6965 222.469 66.742C222.268 66.7875 222.022 66.814 221.73 66.8216C221.214 66.8368 220.749 66.759 220.336 66.5884C219.922 66.4139 219.594 66.1446 219.352 65.7805C219.113 65.4163 218.995 64.9612 218.999 64.415V55.8696ZM224.505 66.7021V57.9633H226.564V66.7021H224.505ZM225.54 56.723C225.214 56.723 224.933 56.6149 224.698 56.3987C224.463 56.1787 224.346 55.9151 224.346 55.6079C224.346 55.2969 224.463 55.0332 224.698 54.817C224.933 54.5971 225.214 54.4871 225.54 54.4871C225.87 54.4871 226.151 54.5971 226.382 54.817C226.617 55.0332 226.735 55.2969 226.735 55.6079C226.735 55.9151 226.617 56.1787 226.382 56.3987C226.151 56.6149 225.87 56.723 225.54 56.723ZM232.494 66.8728C231.641 66.8728 230.901 66.6851 230.275 66.3096C229.649 65.9341 229.164 65.4088 228.819 64.7336C228.477 64.0585 228.307 63.2696 228.307 62.3668C228.307 61.4641 228.477 60.6733 228.819 59.9944C229.164 59.3154 229.649 58.7882 230.275 58.4127C230.901 58.0372 231.641 57.8495 232.494 57.8495C233.348 57.8495 234.087 58.0372 234.713 58.4127C235.339 58.7882 235.822 59.3154 236.164 59.9944C236.509 60.6733 236.681 61.4641 236.681 62.3668C236.681 63.2696 236.509 64.0585 236.164 64.7336C235.822 65.4088 235.339 65.9341 234.713 66.3096C234.087 66.6851 233.348 66.8728 232.494 66.8728ZM232.505 65.2229C232.968 65.2229 233.355 65.0958 233.666 64.8417C233.977 64.5838 234.208 64.2386 234.36 63.8063C234.516 63.3739 234.593 62.8922 234.593 62.3612C234.593 61.8264 234.516 61.3428 234.36 60.9104C234.208 60.4742 233.977 60.1271 233.666 59.8692C233.355 59.6113 232.968 59.4823 232.505 59.4823C232.031 59.4823 231.637 59.6113 231.322 59.8692C231.011 60.1271 230.778 60.4742 230.622 60.9104C230.471 61.3428 230.395 61.8264 230.395 62.3612C230.395 62.8922 230.471 63.3739 230.622 63.8063C230.778 64.2386 231.011 64.5838 231.322 64.8417C231.637 65.0958 232.031 65.2229 232.505 65.2229ZM240.489 61.5817V66.7021H238.43V57.9633H240.398V59.4482H240.5C240.702 58.9589 241.022 58.5701 241.462 58.2819C241.906 57.9936 242.454 57.8495 243.106 57.8495C243.709 57.8495 244.235 57.9784 244.682 58.2364C245.134 58.4943 245.482 58.8679 245.729 59.3572C245.979 59.8465 246.103 60.44 246.099 61.1379V66.7021H244.039V61.4565C244.039 60.8724 243.888 60.4154 243.584 60.0854C243.284 59.7554 242.869 59.5904 242.338 59.5904C241.978 59.5904 241.657 59.6701 241.377 59.8294C241.1 59.9849 240.882 60.2106 240.722 60.5064C240.567 60.8023 240.489 61.1607 240.489 61.5817Z" fill="white"/>
<path d="M54.2552 80.7602H56.2642L58.9546 87.327H59.0608L61.7513 80.7602H63.7602V89.8228H62.1849V83.5967H62.1008L59.5962 89.7962H58.4192L55.9146 83.5834H55.8305V89.8228H54.2552V80.7602ZM67.433 89.9599C67.0023 89.9599 66.6144 89.8832 66.2693 89.7298C65.927 89.5735 65.6556 89.3434 65.455 89.0395C65.2574 88.7357 65.1586 88.361 65.1586 87.9155C65.1586 87.532 65.2294 87.2149 65.371 86.9642C65.5126 86.7134 65.7058 86.5128 65.9506 86.3624C66.1955 86.2119 66.4713 86.0983 66.7781 86.0216C67.0879 85.942 67.408 85.8844 67.7384 85.849C68.1366 85.8077 68.4597 85.7709 68.7075 85.7384C68.9553 85.703 69.1352 85.6499 69.2473 85.5791C69.3624 85.5054 69.4199 85.3918 69.4199 85.2384V85.2118C69.4199 84.8785 69.3211 84.6203 69.1234 84.4374C68.9258 84.2545 68.6411 84.1631 68.2694 84.1631C67.877 84.1631 67.5658 84.2486 67.3357 84.4197C67.1085 84.5908 66.9551 84.7929 66.8755 85.026L65.3798 84.8136C65.4978 84.4006 65.6925 84.0554 65.9639 83.7781C66.2353 83.4979 66.5672 83.2884 66.9596 83.1498C67.3519 83.0081 67.7856 82.9373 68.2605 82.9373C68.588 82.9373 68.914 82.9757 69.2385 83.0524C69.563 83.1291 69.8595 83.256 70.1279 83.433C70.3964 83.607 70.6117 83.8445 70.774 84.1454C70.9392 84.4463 71.0218 84.8224 71.0218 85.2738V89.8228H69.4819V88.8891H69.4288C69.3314 89.0779 69.1942 89.2549 69.0172 89.4201C68.8432 89.5823 68.6234 89.7136 68.3579 89.8139C68.0953 89.9113 67.7871 89.9599 67.433 89.9599ZM67.849 88.7829C68.1706 88.7829 68.4493 88.7194 68.6853 88.5926C68.9213 88.4628 69.1028 88.2917 69.2296 88.0793C69.3594 87.8669 69.4243 87.6353 69.4243 87.3845V86.5836C69.3742 86.6249 69.2886 86.6633 69.1677 86.6987C69.0497 86.7341 68.9169 86.765 68.7694 86.7916C68.6219 86.8181 68.4759 86.8417 68.3313 86.8624C68.1868 86.883 68.0614 86.9007 67.9552 86.9155C67.7163 86.9479 67.5024 87.001 67.3136 87.0748C67.1248 87.1485 66.9758 87.2518 66.8666 87.3845C66.7575 87.5143 66.7029 87.6825 66.7029 87.889C66.7029 88.184 66.8106 88.4067 67.0259 88.5572C67.2413 88.7076 67.5156 88.7829 67.849 88.7829ZM74.2344 85.8402V89.8228H72.6325V83.0258H74.1636V84.1808H74.2432C74.3996 83.8002 74.6489 83.4979 74.9911 83.2737C75.3362 83.0494 75.7625 82.9373 76.2699 82.9373C76.739 82.9373 77.1475 83.0376 77.4957 83.2383C77.8467 83.4389 78.1181 83.7294 78.3099 84.11C78.5046 84.4905 78.6004 84.9522 78.5975 85.495V89.8228H76.9956V85.7428C76.9956 85.2885 76.8776 84.9331 76.6416 84.6764C76.4086 84.4197 76.0855 84.2914 75.6725 84.2914C75.3923 84.2914 75.143 84.3534 74.9247 84.4773C74.7093 84.5982 74.5397 84.7738 74.4158 85.0039C74.2949 85.234 74.2344 85.5127 74.2344 85.8402ZM82.1818 89.9599C81.7511 89.9599 81.3632 89.8832 81.018 89.7298C80.6758 89.5735 80.4044 89.3434 80.2038 89.0395C80.0061 88.7357 79.9073 88.361 79.9073 87.9155C79.9073 87.532 79.9781 87.2149 80.1197 86.9642C80.2613 86.7134 80.4545 86.5128 80.6994 86.3624C80.9443 86.2119 81.2201 86.0983 81.5269 86.0216C81.8366 85.942 82.1567 85.8844 82.4871 85.849C82.8854 85.8077 83.2084 85.7709 83.4562 85.7384C83.704 85.703 83.884 85.6499 83.9961 85.5791C84.1111 85.5054 84.1687 85.3918 84.1687 85.2384V85.2118C84.1687 84.8785 84.0698 84.6203 83.8722 84.4374C83.6745 84.2545 83.3898 84.1631 83.0181 84.1631C82.6258 84.1631 82.3146 84.2486 82.0844 84.4197C81.8573 84.5908 81.7039 84.7929 81.6242 85.026L80.1286 84.8136C80.2466 84.4006 80.4413 84.0554 80.7127 83.7781C80.9841 83.4979 81.316 83.2884 81.7083 83.1498C82.1007 83.0081 82.5343 82.9373 83.0093 82.9373C83.3367 82.9373 83.6627 82.9757 83.9872 83.0524C84.3117 83.1291 84.6082 83.256 84.8767 83.433C85.1451 83.607 85.3605 83.8445 85.5227 84.1454C85.6879 84.4463 85.7705 84.8224 85.7705 85.2738V89.8228H84.2306V88.8891H84.1775C84.0802 89.0779 83.943 89.2549 83.766 89.4201C83.5919 89.5823 83.3721 89.7136 83.1066 89.8139C82.8441 89.9113 82.5358 89.9599 82.1818 89.9599ZM82.5978 88.7829C82.9193 88.7829 83.1981 88.7194 83.4341 88.5926C83.6701 88.4628 83.8515 88.2917 83.9784 88.0793C84.1082 87.8669 84.1731 87.6353 84.1731 87.3845V86.5836C84.1229 86.6249 84.0374 86.6633 83.9164 86.6987C83.7984 86.7341 83.6657 86.765 83.5182 86.7916C83.3707 86.8181 83.2246 86.8417 83.0801 86.8624C82.9355 86.883 82.8102 86.9007 82.704 86.9155C82.465 86.9479 82.2511 87.001 82.0623 87.0748C81.8735 87.1485 81.7245 87.2518 81.6154 87.3845C81.5062 87.5143 81.4517 87.6825 81.4517 87.889C81.4517 88.184 81.5593 88.4067 81.7747 88.5572C81.99 88.7076 82.2644 88.7829 82.5978 88.7829ZM90.3372 92.5132C89.7619 92.5132 89.2678 92.435 88.8548 92.2787C88.4418 92.1253 88.1099 91.9188 87.8592 91.6592C87.6084 91.3996 87.4344 91.1119 87.337 90.7963L88.7796 90.4467C88.8445 90.5794 88.9389 90.7107 89.0628 90.8405C89.1867 90.9733 89.3534 91.0824 89.5628 91.168C89.7752 91.2565 90.0422 91.3007 90.3638 91.3007C90.8181 91.3007 91.1942 91.1901 91.4921 90.9688C91.7901 90.7505 91.9391 90.3906 91.9391 89.8891V88.6014H91.8594C91.7768 88.7666 91.6559 88.9363 91.4966 89.1103C91.3402 89.2844 91.1322 89.4304 90.8726 89.5484C90.616 89.6664 90.293 89.7254 89.9035 89.7254C89.3814 89.7254 88.9079 89.603 88.4831 89.3581C88.0612 89.1103 87.7249 88.7416 87.4742 88.2519C87.2264 87.7592 87.1025 87.1426 87.1025 86.4022C87.1025 85.6558 87.2264 85.026 87.4742 84.5127C87.7249 83.9964 88.0627 83.6055 88.4875 83.34C88.9123 83.0716 89.3858 82.9373 89.908 82.9373C90.3062 82.9373 90.6337 83.0052 90.8903 83.1409C91.1499 83.2737 91.3564 83.4344 91.5098 83.6232C91.6632 83.8091 91.7798 83.9846 91.8594 84.1498H91.9479V83.0258H93.5277V89.9334C93.5277 90.5145 93.389 90.9954 93.1117 91.376C92.8344 91.7565 92.4553 92.0412 91.9745 92.23C91.4936 92.4188 90.9479 92.5132 90.3372 92.5132ZM90.3505 88.4687C90.6897 88.4687 90.9788 88.3861 91.2178 88.2209C91.4567 88.0557 91.6382 87.8182 91.7621 87.5084C91.886 87.1987 91.9479 86.827 91.9479 86.3933C91.9479 85.9656 91.886 85.5909 91.7621 85.2694C91.6411 84.9478 91.4612 84.6985 91.2222 84.5215C90.9862 84.3416 90.6956 84.2516 90.3505 84.2516C89.9935 84.2516 89.6956 84.3445 89.4566 84.5304C89.2177 84.7162 89.0377 84.9714 88.9168 85.2959C88.7958 85.6175 88.7353 85.9833 88.7353 86.3933C88.7353 86.8093 88.7958 87.1736 88.9168 87.4863C89.0407 87.7961 89.2221 88.038 89.461 88.212C89.7029 88.3831 89.9994 88.4687 90.3505 88.4687ZM98.1784 89.9555C97.497 89.9555 96.9084 89.8139 96.4128 89.5307C95.9202 89.2445 95.5411 88.8404 95.2756 88.3182C95.0101 87.7931 94.8773 87.1751 94.8773 86.4641C94.8773 85.765 95.0101 85.1514 95.2756 84.6233C95.544 84.0923 95.9187 83.6793 96.3995 83.3843C96.8804 83.0863 97.4453 82.9373 98.0943 82.9373C98.5133 82.9373 98.9086 83.0052 99.2803 83.1409C99.6549 83.2737 99.9853 83.4802 100.271 83.7604C100.561 84.0407 100.788 84.3976 100.953 84.8313C101.118 85.262 101.201 85.7753 101.201 86.3712V86.8624H95.6296V85.7827H99.6652C99.6623 85.4759 99.5959 85.203 99.4661 84.964C99.3363 84.7221 99.1549 84.5318 98.9218 84.3932C98.6917 84.2545 98.4233 84.1852 98.1165 84.1852C97.789 84.1852 97.5014 84.2649 97.2536 84.4242C97.0058 84.5805 96.8126 84.787 96.6739 85.0437C96.5382 85.2974 96.4689 85.5762 96.4659 85.88V86.8226C96.4659 87.2179 96.5382 87.5571 96.6827 87.8403C96.8273 88.1206 97.0294 88.3359 97.289 88.4864C97.5486 88.6339 97.8524 88.7076 98.2005 88.7076C98.4336 88.7076 98.6445 88.6752 98.8333 88.6103C99.0221 88.5424 99.1859 88.4436 99.3245 88.3138C99.4632 88.184 99.5679 88.0232 99.6387 87.8315L101.134 87.9996C101.04 88.3949 100.86 88.7401 100.595 89.0351C100.332 89.3271 99.9957 89.5543 99.5856 89.7166C99.1755 89.8759 98.7065 89.9555 98.1784 89.9555ZM106.642 92.3716C106.424 92.3716 106.222 92.3539 106.036 92.3185C105.853 92.286 105.707 92.2477 105.598 92.2034L105.97 90.9556C106.203 91.0234 106.411 91.0559 106.594 91.0529C106.777 91.05 106.937 90.9924 107.076 90.8803C107.218 90.7712 107.337 90.5883 107.435 90.3316L107.572 89.9644L105.107 83.0258H106.806L108.373 88.1589H108.443L110.014 83.0258H111.718L108.997 90.6458C108.87 91.0057 108.702 91.314 108.492 91.5707C108.283 91.8303 108.026 92.0279 107.722 92.1636C107.421 92.3023 107.061 92.3716 106.642 92.3716ZM115.56 89.9555C114.896 89.9555 114.321 89.8095 113.834 89.5174C113.348 89.2254 112.97 88.8168 112.701 88.2917C112.436 87.7666 112.303 87.153 112.303 86.4509C112.303 85.7487 112.436 85.1337 112.701 84.6056C112.97 84.0775 113.348 83.6675 113.834 83.3754C114.321 83.0834 114.896 82.9373 115.56 82.9373C116.224 82.9373 116.799 83.0834 117.286 83.3754C117.773 83.6675 118.149 84.0775 118.414 84.6056C118.683 85.1337 118.817 85.7487 118.817 86.4509C118.817 87.153 118.683 87.7666 118.414 88.2917C118.149 88.8168 117.773 89.2254 117.286 89.5174C116.799 89.8095 116.224 89.9555 115.56 89.9555ZM115.569 88.6722C115.929 88.6722 116.23 88.5734 116.472 88.3758C116.714 88.1752 116.894 87.9067 117.012 87.5704C117.132 87.2341 117.193 86.8594 117.193 86.4464C117.193 86.0305 117.132 85.6543 117.012 85.318C116.894 84.9788 116.714 84.7088 116.472 84.5082C116.23 84.3076 115.929 84.2073 115.569 84.2073C115.2 84.2073 114.893 84.3076 114.649 84.5082C114.407 84.7088 114.225 84.9788 114.104 85.318C113.986 85.6543 113.927 86.0305 113.927 86.4464C113.927 86.8594 113.986 87.2341 114.104 87.5704C114.225 87.9067 114.407 88.1752 114.649 88.3758C114.893 88.5734 115.2 88.6722 115.569 88.6722ZM124.509 86.9642V83.0258H126.111V89.8228H124.557V88.6147H124.487C124.333 88.9953 124.081 89.3065 123.73 89.5484C123.382 89.7903 122.953 89.9113 122.442 89.9113C121.997 89.9113 121.603 89.8124 121.261 89.6148C120.921 89.4142 120.656 89.1236 120.464 88.743C120.272 88.3595 120.177 87.8964 120.177 87.3536V83.0258H121.778V87.1058C121.778 87.5365 121.896 87.8787 122.132 88.1324C122.368 88.3861 122.678 88.5129 123.062 88.5129C123.298 88.5129 123.526 88.4554 123.748 88.3404C123.969 88.2253 124.15 88.0542 124.292 87.827C124.436 87.5969 124.509 87.3093 124.509 86.9642ZM127.758 89.8228V83.0258H129.311V84.1587H129.382C129.506 83.7663 129.718 83.4639 130.019 83.2515C130.323 83.0362 130.669 82.9285 131.059 82.9285C131.147 82.9285 131.246 82.9329 131.355 82.9418C131.467 82.9477 131.56 82.958 131.634 82.9727V84.4463C131.566 84.4227 131.459 84.402 131.311 84.3843C131.167 84.3637 131.026 84.3534 130.891 84.3534C130.599 84.3534 130.336 84.4168 130.103 84.5436C129.873 84.6675 129.692 84.8401 129.559 85.0614C129.426 85.2826 129.36 85.5378 129.36 85.8269V89.8228H127.758ZM135.789 92.3716V83.0258H137.365V84.1498H137.458C137.54 83.9846 137.657 83.8091 137.807 83.6232C137.958 83.4344 138.161 83.2737 138.418 83.1409C138.674 83.0052 139.002 82.9373 139.4 82.9373C139.925 82.9373 140.399 83.0716 140.821 83.34C141.245 83.6055 141.582 83.9994 141.83 84.5215C142.08 85.0407 142.206 85.6779 142.206 86.4332C142.206 87.1795 142.083 87.8138 141.838 88.3359C141.594 88.8581 141.26 89.2563 140.838 89.5307C140.416 89.8051 139.939 89.9422 139.405 89.9422C139.015 89.9422 138.692 89.8773 138.435 89.7475C138.179 89.6177 137.972 89.4614 137.816 89.2785C137.663 89.0926 137.543 88.9171 137.458 88.7519H137.391V92.3716H135.789ZM137.36 86.4243C137.36 86.8639 137.422 87.2488 137.546 87.5792C137.673 87.9096 137.854 88.1678 138.09 88.3536C138.329 88.5365 138.618 88.628 138.958 88.628C139.312 88.628 139.608 88.5336 139.847 88.3448C140.086 88.153 140.266 87.8919 140.387 87.5615C140.511 87.2282 140.573 86.8491 140.573 86.4243C140.573 86.0024 140.512 85.6278 140.391 85.3003C140.27 84.9729 140.09 84.7162 139.852 84.5304C139.613 84.3445 139.315 84.2516 138.958 84.2516C138.615 84.2516 138.325 84.3416 138.086 84.5215C137.847 84.7015 137.666 84.9537 137.542 85.2782C137.421 85.6027 137.36 85.9847 137.36 86.4243ZM145.533 89.9599C145.103 89.9599 144.715 89.8832 144.369 89.7298C144.027 89.5735 143.756 89.3434 143.555 89.0395C143.358 88.7357 143.259 88.361 143.259 87.9155C143.259 87.532 143.33 87.2149 143.471 86.9642C143.613 86.7134 143.806 86.5128 144.051 86.3624C144.296 86.2119 144.572 86.0983 144.878 86.0216C145.188 85.942 145.508 85.8844 145.839 85.849C146.237 85.8077 146.56 85.7709 146.808 85.7384C147.056 85.703 147.235 85.6499 147.348 85.5791C147.463 85.5054 147.52 85.3918 147.52 85.2384V85.2118C147.52 84.8785 147.421 84.6203 147.224 84.4374C147.026 84.2545 146.741 84.1631 146.37 84.1631C145.977 84.1631 145.666 84.2486 145.436 84.4197C145.209 84.5908 145.055 84.7929 144.976 85.026L143.48 84.8136C143.598 84.4006 143.793 84.0554 144.064 83.7781C144.336 83.4979 144.667 83.2884 145.06 83.1498C145.452 83.0081 145.886 82.9373 146.361 82.9373C146.688 82.9373 147.014 82.9757 147.339 83.0524C147.663 83.1291 147.96 83.256 148.228 83.433C148.497 83.607 148.712 83.8445 148.874 84.1454C149.039 84.4463 149.122 84.8224 149.122 85.2738V89.8228H147.582V88.8891H147.529C147.432 89.0779 147.294 89.2549 147.117 89.4201C146.943 89.5823 146.724 89.7136 146.458 89.8139C146.196 89.9113 145.887 89.9599 145.533 89.9599ZM145.949 88.7829C146.271 88.7829 146.55 88.7194 146.786 88.5926C147.022 88.4628 147.203 88.2917 147.33 88.0793C147.46 87.8669 147.525 87.6353 147.525 87.3845V86.5836C147.474 86.6249 147.389 86.6633 147.268 86.6987C147.15 86.7341 147.017 86.765 146.87 86.7916C146.722 86.8181 146.576 86.8417 146.432 86.8624C146.287 86.883 146.162 86.9007 146.055 86.9155C145.816 86.9479 145.603 87.001 145.414 87.0748C145.225 87.1485 145.076 87.2518 144.967 87.3845C144.858 87.5143 144.803 87.6825 144.803 87.889C144.803 88.184 144.911 88.4067 145.126 88.5572C145.342 88.7076 145.616 88.7829 145.949 88.7829ZM151.485 92.3716C151.267 92.3716 151.065 92.3539 150.879 92.3185C150.696 92.286 150.55 92.2477 150.441 92.2034L150.812 90.9556C151.045 91.0234 151.253 91.0559 151.436 91.0529C151.619 91.05 151.78 90.9924 151.919 90.8803C152.06 90.7712 152.18 90.5883 152.277 90.3316L152.414 89.9644L149.95 83.0258H151.649L153.215 88.1589H153.286L154.857 83.0258H156.561L153.839 90.6458C153.712 91.0057 153.544 91.314 153.335 91.5707C153.125 91.8303 152.869 92.0279 152.565 92.1636C152.264 92.3023 151.904 92.3716 151.485 92.3716ZM157.669 89.8228V83.0258H159.2V84.1808H159.28C159.421 83.7914 159.656 83.4875 159.983 83.2692C160.311 83.048 160.702 82.9373 161.156 82.9373C161.616 82.9373 162.004 83.0494 162.32 83.2737C162.638 83.4949 162.863 83.7973 162.992 84.1808H163.063C163.214 83.8032 163.467 83.5023 163.824 83.2781C164.184 83.0509 164.61 82.9373 165.103 82.9373C165.729 82.9373 166.239 83.135 166.634 83.5303C167.03 83.9256 167.227 84.5023 167.227 85.2605V89.8228H165.621V85.5083C165.621 85.0865 165.509 84.7782 165.285 84.5835C165.06 84.3858 164.786 84.287 164.462 84.287C164.075 84.287 163.773 84.4079 163.554 84.6498C163.339 84.8888 163.231 85.2 163.231 85.5835V89.8228H161.66V85.4419C161.66 85.0909 161.554 84.8106 161.342 84.6012C161.132 84.3917 160.858 84.287 160.519 84.287C160.289 84.287 160.079 84.346 159.89 84.464C159.702 84.579 159.551 84.7428 159.439 84.9552C159.327 85.1646 159.271 85.4095 159.271 85.6897V89.8228H157.669ZM171.861 89.9555C171.18 89.9555 170.591 89.8139 170.096 89.5307C169.603 89.2445 169.224 88.8404 168.959 88.3182C168.693 87.7931 168.56 87.1751 168.56 86.4641C168.56 85.765 168.693 85.1514 168.959 84.6233C169.227 84.0923 169.602 83.6793 170.082 83.3843C170.563 83.0863 171.128 82.9373 171.777 82.9373C172.196 82.9373 172.591 83.0052 172.963 83.1409C173.338 83.2737 173.668 83.4802 173.954 83.7604C174.244 84.0407 174.471 84.3976 174.636 84.8313C174.801 85.262 174.884 85.7753 174.884 86.3712V86.8624H169.313V85.7827H173.348C173.345 85.4759 173.279 85.203 173.149 84.964C173.019 84.7221 172.838 84.5318 172.605 84.3932C172.375 84.2545 172.106 84.1852 171.799 84.1852C171.472 84.1852 171.184 84.2649 170.937 84.4242C170.689 84.5805 170.495 84.787 170.357 85.0437C170.221 85.2974 170.152 85.5762 170.149 85.88V86.8226C170.149 87.2179 170.221 87.5571 170.366 87.8403C170.51 88.1206 170.712 88.3359 170.972 88.4864C171.232 88.6339 171.535 88.7076 171.883 88.7076C172.117 88.7076 172.327 88.6752 172.516 88.6103C172.705 88.5424 172.869 88.4436 173.007 88.3138C173.146 88.184 173.251 88.0232 173.322 87.8315L174.817 87.9996C174.723 88.3949 174.543 88.7401 174.277 89.0351C174.015 89.3271 173.679 89.5543 173.269 89.7166C172.858 89.8759 172.389 89.9555 171.861 89.9555ZM177.841 85.8402V89.8228H176.239V83.0258H177.77V84.1808H177.85C178.006 83.8002 178.255 83.4979 178.597 83.2737C178.943 83.0494 179.369 82.9373 179.876 82.9373C180.345 82.9373 180.754 83.0376 181.102 83.2383C181.453 83.4389 181.724 83.7294 181.916 84.11C182.111 84.4905 182.207 84.9522 182.204 85.495V89.8228H180.602V85.7428C180.602 85.2885 180.484 84.9331 180.248 84.6764C180.015 84.4197 179.692 84.2914 179.279 84.2914C178.999 84.2914 178.749 84.3534 178.531 84.4773C178.316 84.5982 178.146 84.7738 178.022 85.0039C177.901 85.234 177.841 85.5127 177.841 85.8402ZM187.226 83.0258V84.2649H183.319V83.0258H187.226ZM184.284 81.3974H185.885V87.7784C185.885 87.9937 185.918 88.1589 185.983 88.274C186.051 88.3861 186.139 88.4628 186.248 88.5041C186.358 88.5454 186.478 88.566 186.611 88.566C186.712 88.566 186.803 88.5587 186.886 88.5439C186.971 88.5292 187.036 88.5159 187.08 88.5041L187.35 89.7564C187.265 89.7859 187.142 89.8183 186.983 89.8537C186.827 89.8891 186.635 89.9098 186.408 89.9157C186.006 89.9275 185.645 89.867 185.324 89.7343C185.002 89.5986 184.747 89.3891 184.558 89.1059C184.372 88.8227 184.281 88.4687 184.284 88.0439V81.3974ZM193.841 84.8224L192.38 84.9817C192.339 84.8342 192.267 84.6956 192.164 84.5658C192.063 84.436 191.928 84.3312 191.756 84.2516C191.585 84.1719 191.376 84.1321 191.128 84.1321C190.795 84.1321 190.514 84.2044 190.287 84.3489C190.063 84.4935 189.953 84.6808 189.955 84.9109C189.953 85.1086 190.025 85.2694 190.172 85.3933C190.323 85.5172 190.571 85.6189 190.916 85.6986L192.075 85.9464C192.718 86.085 193.196 86.3048 193.509 86.6057C193.824 86.9066 193.984 87.3005 193.987 87.7872C193.984 88.215 193.858 88.5926 193.611 88.92C193.366 89.2445 193.025 89.4982 192.588 89.6812C192.152 89.8641 191.65 89.9555 191.084 89.9555C190.252 89.9555 189.582 89.7815 189.075 89.4333C188.567 89.0823 188.265 88.5941 188.168 87.9687L189.73 87.8182C189.801 88.125 189.951 88.3566 190.181 88.5129C190.411 88.6693 190.711 88.7475 191.079 88.7475C191.46 88.7475 191.765 88.6693 191.995 88.5129C192.228 88.3566 192.345 88.1634 192.345 87.9332C192.345 87.7385 192.27 87.5778 192.119 87.4509C191.972 87.3241 191.742 87.2267 191.429 87.1589L190.27 86.9155C189.618 86.7798 189.135 86.5512 188.823 86.2296C188.51 85.9051 188.355 85.495 188.358 84.9994C188.355 84.5805 188.469 84.2177 188.699 83.9109C188.932 83.6011 189.255 83.3622 189.668 83.194C190.084 83.0229 190.563 82.9373 191.106 82.9373C191.902 82.9373 192.529 83.107 192.987 83.4462C193.447 83.7855 193.732 84.2442 193.841 84.8224ZM200 85.8402V89.8228H198.398V80.7602H199.965V84.1808H200.045C200.204 83.7973 200.45 83.4949 200.784 83.2737C201.12 83.0494 201.548 82.9373 202.067 82.9373C202.539 82.9373 202.95 83.0362 203.301 83.2338C203.653 83.4315 203.924 83.7206 204.116 84.1011C204.31 84.4817 204.408 84.9463 204.408 85.495V89.8228H202.806V85.7428C202.806 85.2856 202.688 84.9301 202.452 84.6764C202.219 84.4197 201.891 84.2914 201.469 84.2914C201.186 84.2914 200.933 84.3534 200.708 84.4773C200.487 84.5982 200.313 84.7738 200.186 85.0039C200.062 85.234 200 85.5127 200 85.8402ZM209.05 89.9555C208.368 89.9555 207.78 89.8139 207.284 89.5307C206.791 89.2445 206.412 88.8404 206.147 88.3182C205.881 87.7931 205.749 87.1751 205.749 86.4641C205.749 85.765 205.881 85.1514 206.147 84.6233C206.415 84.0923 206.79 83.6793 207.271 83.3843C207.752 83.0863 208.317 82.9373 208.966 82.9373C209.384 82.9373 209.78 83.0052 210.151 83.1409C210.526 83.2737 210.857 83.4802 211.143 83.7604C211.432 84.0407 211.659 84.3976 211.824 84.8313C211.989 85.262 212.072 85.7753 212.072 86.3712V86.8624H206.501V85.7827H210.536C210.533 85.4759 210.467 85.203 210.337 84.964C210.208 84.7221 210.026 84.5318 209.793 84.3932C209.563 84.2545 209.294 84.1852 208.988 84.1852C208.66 84.1852 208.373 84.2649 208.125 84.4242C207.877 84.5805 207.684 84.787 207.545 85.0437C207.409 85.2974 207.34 85.5762 207.337 85.88V86.8226C207.337 87.2179 207.409 87.5571 207.554 87.8403C207.699 88.1206 207.901 88.3359 208.16 88.4864C208.42 88.6339 208.724 88.7076 209.072 88.7076C209.305 88.7076 209.516 88.6752 209.705 88.6103C209.893 88.5424 210.057 88.4436 210.196 88.3138C210.334 88.184 210.439 88.0232 210.51 87.8315L212.006 87.9996C211.911 88.3949 211.731 88.7401 211.466 89.0351C211.203 89.3271 210.867 89.5543 210.457 89.7166C210.047 89.8759 209.578 89.9555 209.05 89.9555ZM213.427 89.8228V83.0258H214.98V84.1587H215.051C215.175 83.7663 215.387 83.4639 215.688 83.2515C215.992 83.0362 216.339 82.9285 216.728 82.9285C216.817 82.9285 216.916 82.9329 217.025 82.9418C217.137 82.9477 217.23 82.958 217.303 82.9727V84.4463C217.236 84.4227 217.128 84.402 216.98 84.3843C216.836 84.3637 216.696 84.3534 216.56 84.3534C216.268 84.3534 216.005 84.4168 215.772 84.5436C215.542 84.6675 215.361 84.8401 215.228 85.0614C215.095 85.2826 215.029 85.5378 215.029 85.8269V89.8228H213.427ZM221.097 89.9555C220.415 89.9555 219.827 89.8139 219.331 89.5307C218.839 89.2445 218.46 88.8404 218.194 88.3182C217.929 87.7931 217.796 87.1751 217.796 86.4641C217.796 85.765 217.929 85.1514 218.194 84.6233C218.462 84.0923 218.837 83.6793 219.318 83.3843C219.799 83.0863 220.364 82.9373 221.013 82.9373C221.432 82.9373 221.827 83.0052 222.199 83.1409C222.573 83.2737 222.904 83.4802 223.19 83.7604C223.479 84.0407 223.706 84.3976 223.871 84.8313C224.037 85.262 224.119 85.7753 224.119 86.3712V86.8624H218.548V85.7827H222.584C222.581 85.4759 222.514 85.203 222.385 84.964C222.255 84.7221 222.073 84.5318 221.84 84.3932C221.61 84.2545 221.342 84.1852 221.035 84.1852C220.707 84.1852 220.42 84.2649 220.172 84.4242C219.924 84.5805 219.731 84.787 219.592 85.0437C219.457 85.2974 219.387 85.5762 219.384 85.88V86.8226C219.384 87.2179 219.457 87.5571 219.601 87.8403C219.746 88.1206 219.948 88.3359 220.207 88.4864C220.467 88.6339 220.771 88.7076 221.119 88.7076C221.352 88.7076 221.563 88.6752 221.752 88.6103C221.941 88.5424 222.104 88.4436 222.243 88.3138C222.382 88.184 222.486 88.0232 222.557 87.8315L224.053 87.9996C223.958 88.3949 223.778 88.7401 223.513 89.0351C223.25 89.3271 222.914 89.5543 222.504 89.7166C222.094 89.8759 221.625 89.9555 221.097 89.9555Z" fill="white" fill-opacity="0.6"/>
<g filter="url(#filter3_d_360_22261)">
<rect x="53.3613" y="122.018" width="121.589" height="32.6809" rx="5.34043" fill="#06182C" shape-rendering="crispEdges"/>
<path d="M80.0637 134.18C80.7938 134.18 81.3988 134.785 81.3988 135.515V136.183H69.3828V135.515C69.3828 134.785 69.9669 134.18 70.7179 134.18H80.0637ZM81.3988 142.191C81.3988 142.942 80.7938 143.526 80.0637 143.526H70.7179C69.9669 143.526 69.3828 142.942 69.3828 142.191V138.185H81.3988V142.191ZM71.7192 140.855C71.5315 140.855 71.3855 141.022 71.3855 141.189C71.3855 141.377 71.5315 141.523 71.7192 141.523H73.0544C73.2212 141.523 73.3881 141.377 73.3881 141.189C73.3881 141.022 73.2212 140.855 73.0544 140.855H71.7192ZM74.3895 141.523H77.0597C77.2266 141.523 77.3935 141.377 77.3935 141.189C77.3935 141.022 77.2266 140.855 77.0597 140.855H74.3895C74.2017 140.855 74.0557 141.022 74.0557 141.189C74.0557 141.377 74.2017 141.523 74.3895 141.523Z" fill="#00D4FF"/>
<path d="M97.9336 130.864H97.1447C97.1143 130.695 97.0578 130.547 96.9752 130.419C96.8926 130.29 96.7915 130.182 96.6718 130.092C96.5521 130.003 96.4181 129.936 96.2698 129.89C96.1231 129.845 95.9672 129.822 95.802 129.822C95.5036 129.822 95.2364 129.897 95.0004 130.047C94.7661 130.197 94.5806 130.417 94.4441 130.707C94.3092 130.997 94.2418 131.351 94.2418 131.769C94.2418 132.19 94.3092 132.546 94.4441 132.836C94.5806 133.126 94.7669 133.345 95.0029 133.493C95.2389 133.642 95.5044 133.716 95.7994 133.716C95.963 133.716 96.118 133.694 96.2647 133.65C96.413 133.605 96.5471 133.538 96.6667 133.45C96.7864 133.363 96.8876 133.256 96.9702 133.129C97.0545 133.001 97.1126 132.854 97.1447 132.689L97.9336 132.692C97.8914 132.946 97.8097 133.181 97.6883 133.395C97.5686 133.607 97.4144 133.791 97.2256 133.946C97.0385 134.099 96.8244 134.218 96.5833 134.303C96.3422 134.387 96.0793 134.429 95.7944 134.429C95.346 134.429 94.9464 134.323 94.5958 134.11C94.2452 133.896 93.9687 133.59 93.7664 133.192C93.5658 132.795 93.4655 132.32 93.4655 131.769C93.4655 131.216 93.5667 130.741 93.769 130.345C93.9712 129.947 94.2477 129.642 94.5983 129.43C94.949 129.216 95.3477 129.109 95.7944 129.109C96.0692 129.109 96.3254 129.148 96.5631 129.228C96.8024 129.305 97.0174 129.42 97.2079 129.571C97.3984 129.722 97.556 129.905 97.6807 130.123C97.8055 130.339 97.8898 130.585 97.9336 130.864ZM99.9381 134.444C99.692 134.444 99.4695 134.399 99.2706 134.308C99.0717 134.215 98.914 134.081 98.7977 133.906C98.6831 133.73 98.6258 133.515 98.6258 133.261C98.6258 133.042 98.6679 132.861 98.7522 132.72C98.8365 132.578 98.9503 132.466 99.0936 132.383C99.2369 132.301 99.397 132.238 99.574 132.196C99.751 132.154 99.9314 132.122 100.115 132.1C100.348 132.073 100.537 132.051 100.682 132.034C100.827 132.016 100.932 131.986 100.998 131.946C101.063 131.905 101.096 131.84 101.096 131.749V131.731C101.096 131.51 101.034 131.339 100.909 131.218C100.786 131.096 100.602 131.036 100.358 131.036C100.103 131.036 99.9027 131.092 99.7561 131.205C99.6111 131.316 99.5108 131.44 99.4552 131.577L98.7446 131.415C98.8289 131.179 98.952 130.988 99.1138 130.843C99.2773 130.697 99.4653 130.591 99.6777 130.525C99.8901 130.457 100.113 130.424 100.348 130.424C100.503 130.424 100.667 130.442 100.841 130.479C101.016 130.515 101.18 130.58 101.331 130.676C101.485 130.773 101.61 130.91 101.708 131.089C101.806 131.266 101.855 131.496 101.855 131.779V134.358H101.116V133.827H101.086C101.037 133.925 100.964 134.021 100.866 134.115C100.768 134.21 100.643 134.288 100.489 134.351C100.336 134.413 100.152 134.444 99.9381 134.444ZM100.102 133.837C100.312 133.837 100.49 133.796 100.639 133.713C100.789 133.631 100.902 133.523 100.98 133.39C101.059 133.255 101.099 133.111 101.099 132.957V132.457C101.072 132.484 101.02 132.509 100.942 132.532C100.866 132.554 100.779 132.574 100.682 132.591C100.584 132.606 100.489 132.62 100.396 132.634C100.303 132.645 100.226 132.656 100.163 132.664C100.017 132.683 99.8825 132.714 99.7611 132.758C99.6414 132.801 99.5454 132.865 99.4729 132.947C99.4021 133.028 99.3667 133.136 99.3667 133.271C99.3667 133.458 99.4358 133.6 99.574 133.696C99.7122 133.79 99.8884 133.837 100.102 133.837ZM102.862 134.358V130.474H103.593V131.091H103.633C103.704 130.882 103.829 130.718 104.007 130.598C104.188 130.477 104.392 130.416 104.619 130.416C104.666 130.416 104.722 130.418 104.786 130.421C104.852 130.424 104.903 130.429 104.94 130.434V131.157C104.91 131.149 104.856 131.139 104.779 131.129C104.701 131.117 104.623 131.111 104.546 131.111C104.367 131.111 104.208 131.149 104.068 131.225C103.93 131.299 103.82 131.403 103.739 131.536C103.658 131.668 103.618 131.818 103.618 131.986V134.358H102.862ZM106.91 134.434C106.596 134.434 106.316 134.354 106.07 134.194C105.826 134.032 105.633 133.802 105.493 133.503C105.355 133.203 105.286 132.844 105.286 132.424C105.286 132.004 105.356 131.645 105.496 131.347C105.638 131.048 105.831 130.82 106.078 130.661C106.324 130.503 106.603 130.424 106.915 130.424C107.156 130.424 107.349 130.464 107.496 130.545C107.644 130.624 107.759 130.717 107.84 130.823C107.923 130.929 107.987 131.023 108.032 131.104H108.078V129.18H108.834V134.358H108.095V133.754H108.032C107.987 133.836 107.921 133.931 107.835 134.037C107.751 134.143 107.634 134.236 107.486 134.315C107.338 134.394 107.146 134.434 106.91 134.434ZM107.076 133.789C107.294 133.789 107.478 133.732 107.628 133.617C107.779 133.501 107.894 133.34 107.972 133.134C108.051 132.929 108.09 132.689 108.09 132.416C108.09 132.146 108.052 131.91 107.974 131.708C107.897 131.506 107.783 131.348 107.633 131.235C107.483 131.122 107.297 131.066 107.076 131.066C106.849 131.066 106.659 131.125 106.507 131.243C106.356 131.361 106.241 131.522 106.164 131.726C106.088 131.93 106.05 132.16 106.05 132.416C106.05 132.676 106.089 132.909 106.166 133.117C106.244 133.324 106.358 133.488 106.51 133.61C106.663 133.729 106.852 133.789 107.076 133.789Z" fill="#00D4FF"/>
<path d="M93.9169 138.59H95.3392L97.8122 144.629H97.9032L100.376 138.59H101.799V146.358H100.683V140.737H100.611L98.3205 146.347H97.395L95.1041 140.733H95.032V146.358H93.9169V138.59ZM105.107 146.487C104.738 146.487 104.404 146.419 104.106 146.282C103.807 146.143 103.571 145.942 103.396 145.679C103.224 145.416 103.138 145.094 103.138 144.712C103.138 144.383 103.202 144.113 103.328 143.9C103.454 143.688 103.625 143.52 103.84 143.396C104.055 143.272 104.295 143.178 104.561 143.115C104.826 143.052 105.097 143.004 105.372 142.971C105.721 142.931 106.005 142.898 106.222 142.872C106.44 142.845 106.598 142.8 106.696 142.74C106.795 142.679 106.844 142.58 106.844 142.444V142.417C106.844 142.086 106.751 141.829 106.563 141.647C106.379 141.465 106.103 141.374 105.737 141.374C105.355 141.374 105.054 141.459 104.834 141.628C104.616 141.795 104.466 141.981 104.382 142.186L103.317 141.943C103.443 141.589 103.628 141.303 103.87 141.086C104.116 140.866 104.398 140.707 104.716 140.608C105.035 140.507 105.37 140.456 105.721 140.456C105.954 140.456 106.201 140.484 106.461 140.54C106.724 140.593 106.969 140.692 107.197 140.836C107.427 140.98 107.615 141.186 107.762 141.454C107.909 141.719 107.982 142.065 107.982 142.489V146.358H106.874V145.562H106.829C106.756 145.708 106.646 145.852 106.499 145.994C106.352 146.136 106.164 146.253 105.934 146.347C105.704 146.44 105.428 146.487 105.107 146.487ZM105.353 145.577C105.667 145.577 105.935 145.515 106.158 145.391C106.383 145.267 106.553 145.105 106.67 144.905C106.788 144.703 106.848 144.487 106.848 144.257V143.506C106.807 143.546 106.729 143.584 106.613 143.62C106.499 143.653 106.369 143.682 106.222 143.707C106.075 143.73 105.933 143.751 105.793 143.771C105.654 143.789 105.538 143.804 105.445 143.817C105.225 143.845 105.023 143.891 104.841 143.957C104.662 144.023 104.518 144.118 104.409 144.242C104.303 144.363 104.25 144.525 104.25 144.727C104.25 145.008 104.353 145.22 104.561 145.364C104.768 145.506 105.032 145.577 105.353 145.577ZM113.858 141.955L112.83 142.137C112.787 142.005 112.719 141.88 112.625 141.761C112.534 141.642 112.411 141.545 112.254 141.469C112.097 141.393 111.901 141.355 111.666 141.355C111.345 141.355 111.077 141.427 110.862 141.571C110.647 141.713 110.539 141.896 110.539 142.121C110.539 142.316 110.611 142.473 110.756 142.592C110.9 142.711 111.132 142.808 111.453 142.884L112.379 143.096C112.915 143.22 113.314 143.411 113.577 143.669C113.84 143.927 113.972 144.262 113.972 144.674C113.972 145.023 113.871 145.334 113.668 145.607C113.469 145.878 113.189 146.09 112.83 146.244C112.474 146.399 112.06 146.476 111.59 146.476C110.938 146.476 110.405 146.337 109.993 146.059C109.581 145.778 109.328 145.38 109.235 144.864L110.331 144.697C110.399 144.983 110.539 145.199 110.752 145.345C110.964 145.49 111.241 145.562 111.582 145.562C111.954 145.562 112.251 145.485 112.474 145.33C112.696 145.174 112.808 144.983 112.808 144.758C112.808 144.575 112.739 144.423 112.603 144.299C112.469 144.175 112.263 144.081 111.984 144.018L110.998 143.802C110.455 143.678 110.053 143.481 109.792 143.21C109.534 142.939 109.405 142.597 109.405 142.182C109.405 141.838 109.501 141.537 109.694 141.279C109.886 141.022 110.151 140.82 110.49 140.676C110.829 140.53 111.217 140.456 111.654 140.456C112.284 140.456 112.78 140.593 113.141 140.866C113.503 141.137 113.742 141.499 113.858 141.955ZM117.938 140.532V141.443H114.756V140.532H117.938ZM115.61 139.136H116.744V144.648C116.744 144.868 116.776 145.033 116.842 145.144C116.908 145.253 116.993 145.328 117.096 145.368C117.203 145.406 117.318 145.425 117.441 145.425C117.533 145.425 117.612 145.419 117.68 145.406C117.749 145.393 117.802 145.383 117.84 145.376L118.045 146.313C117.979 146.338 117.885 146.363 117.764 146.388C117.643 146.416 117.491 146.431 117.309 146.434C117.01 146.439 116.732 146.386 116.474 146.275C116.216 146.163 116.008 145.992 115.848 145.759C115.689 145.526 115.61 145.234 115.61 144.883V139.136ZM121.641 146.476C121.067 146.476 120.573 146.353 120.158 146.108C119.746 145.86 119.427 145.512 119.202 145.065C118.98 144.615 118.869 144.087 118.869 143.483C118.869 142.886 118.98 142.36 119.202 141.905C119.427 141.45 119.741 141.095 120.143 140.839C120.548 140.584 121.02 140.456 121.562 140.456C121.89 140.456 122.209 140.511 122.517 140.619C122.826 140.728 123.103 140.899 123.348 141.132C123.593 141.364 123.787 141.666 123.928 142.038C124.07 142.407 124.141 142.856 124.141 143.385V143.787H119.51V142.937H123.029C123.029 142.639 122.969 142.374 122.847 142.144C122.726 141.912 122.555 141.728 122.335 141.594C122.118 141.46 121.862 141.393 121.569 141.393C121.251 141.393 120.972 141.472 120.735 141.628C120.5 141.783 120.317 141.985 120.189 142.235C120.062 142.483 119.999 142.752 119.999 143.043V143.707C119.999 144.096 120.067 144.428 120.204 144.701C120.343 144.974 120.536 145.182 120.784 145.326C121.032 145.468 121.321 145.539 121.653 145.539C121.868 145.539 122.063 145.509 122.24 145.448C122.417 145.385 122.57 145.291 122.699 145.167C122.828 145.043 122.927 144.89 122.995 144.708L124.069 144.902C123.983 145.218 123.828 145.495 123.606 145.732C123.386 145.967 123.109 146.151 122.775 146.282C122.444 146.411 122.066 146.476 121.641 146.476ZM125.399 146.358V140.532H126.495V141.458H126.556C126.662 141.144 126.849 140.898 127.117 140.718C127.388 140.536 127.694 140.445 128.035 140.445C128.106 140.445 128.189 140.448 128.285 140.453C128.384 140.458 128.461 140.464 128.517 140.472V141.556C128.471 141.544 128.39 141.53 128.274 141.515C128.158 141.497 128.041 141.488 127.925 141.488C127.657 141.488 127.418 141.545 127.208 141.659C127.001 141.77 126.837 141.925 126.715 142.125C126.594 142.322 126.533 142.548 126.533 142.8V146.358H125.399Z" fill="white"/>
<rect x="54.2514" y="122.908" width="119.809" height="30.9007" rx="4.45035" stroke="#00D4FF" stroke-width="1.78014" shape-rendering="crispEdges"/>
</g>
<rect x="188.301" y="122.018" width="119.589" height="32.5816" rx="5.34043" fill="#06182C"/>
<path d="M209.391 133.525C209.558 133.463 209.746 133.463 209.913 133.525L214.586 135.528C214.878 135.653 215.045 135.966 214.982 136.279C214.92 136.592 214.648 136.8 214.315 136.8V136.967C214.315 137.259 214.106 137.468 213.814 137.468H205.47C205.198 137.468 204.969 137.259 204.969 136.967V136.8C204.656 136.8 204.385 136.592 204.322 136.279C204.26 135.966 204.427 135.653 204.719 135.528L209.391 133.525ZM209.663 136.133C210.017 136.133 210.33 135.841 210.33 135.465C210.33 135.111 210.017 134.798 209.663 134.798C209.287 134.798 208.995 135.111 208.995 135.465C208.995 135.841 209.287 136.133 209.663 136.133ZM206.972 142.141H207.806V138.136H209.141V142.141H210.163V138.136H211.498V142.141H212.333V138.136H213.668V142.245C213.668 142.245 213.689 142.245 213.689 142.266L214.69 142.934C214.941 143.101 215.045 143.393 214.961 143.685C214.878 143.956 214.628 144.144 214.336 144.144H204.969C204.677 144.144 204.427 143.956 204.343 143.685C204.26 143.393 204.364 143.101 204.614 142.934L205.616 142.266C205.616 142.245 205.637 142.245 205.637 142.245V138.136H206.972V142.141Z" fill="white" fill-opacity="0.6"/>
<path d="M233.308 136.567H232.125C232.079 136.314 231.994 136.091 231.871 135.899C231.747 135.707 231.595 135.544 231.415 135.41C231.236 135.276 231.035 135.175 230.812 135.106C230.592 135.038 230.358 135.004 230.111 135.004C229.663 135.004 229.262 135.117 228.908 135.342C228.557 135.567 228.279 135.897 228.074 136.332C227.872 136.766 227.77 137.297 227.77 137.925C227.77 138.557 227.872 139.09 228.074 139.525C228.279 139.96 228.558 140.289 228.912 140.511C229.266 140.734 229.664 140.845 230.107 140.845C230.352 140.845 230.585 140.812 230.805 140.746C231.027 140.678 231.228 140.578 231.408 140.447C231.587 140.315 231.739 140.155 231.863 139.965C231.989 139.773 232.077 139.553 232.125 139.305L233.308 139.309C233.245 139.691 233.122 140.042 232.94 140.363C232.761 140.682 232.529 140.958 232.246 141.19C231.965 141.42 231.644 141.599 231.283 141.725C230.921 141.851 230.527 141.915 230.099 141.915C229.427 141.915 228.827 141.755 228.301 141.437C227.775 141.116 227.361 140.657 227.057 140.06C226.756 139.463 226.606 138.751 226.606 137.925C226.606 137.095 226.758 136.383 227.061 135.789C227.365 135.192 227.779 134.735 228.305 134.416C228.831 134.095 229.429 133.934 230.099 133.934C230.511 133.934 230.896 133.994 231.252 134.113C231.611 134.229 231.934 134.401 232.22 134.628C232.505 134.854 232.742 135.129 232.929 135.455C233.116 135.779 233.242 136.149 233.308 136.567ZM236.315 141.937C235.946 141.937 235.612 141.869 235.314 141.733C235.015 141.594 234.779 141.393 234.604 141.13C234.432 140.867 234.346 140.544 234.346 140.162C234.346 139.834 234.41 139.563 234.536 139.351C234.662 139.138 234.833 138.97 235.048 138.846C235.263 138.722 235.503 138.629 235.769 138.566C236.034 138.502 236.305 138.454 236.58 138.421C236.929 138.381 237.213 138.348 237.43 138.323C237.647 138.295 237.806 138.251 237.904 138.19C238.003 138.129 238.052 138.031 238.052 137.894V137.868C238.052 137.536 237.959 137.28 237.771 137.098C237.587 136.916 237.311 136.825 236.945 136.825C236.563 136.825 236.262 136.909 236.042 137.079C235.824 137.246 235.674 137.431 235.59 137.636L234.525 137.394C234.651 137.04 234.836 136.754 235.078 136.536C235.324 136.316 235.606 136.157 235.924 136.058C236.243 135.957 236.578 135.907 236.929 135.907C237.162 135.907 237.409 135.935 237.669 135.99C237.932 136.043 238.177 136.142 238.405 136.286C238.635 136.43 238.823 136.636 238.97 136.904C239.117 137.17 239.19 137.515 239.19 137.94V141.808H238.082V141.012H238.037C237.964 141.159 237.854 141.303 237.707 141.444C237.56 141.586 237.372 141.704 237.142 141.797C236.912 141.891 236.636 141.937 236.315 141.937ZM236.561 141.027C236.875 141.027 237.143 140.965 237.366 140.841C237.591 140.717 237.761 140.556 237.878 140.356C237.996 140.153 238.056 139.937 238.056 139.707V138.956C238.015 138.997 237.937 139.035 237.821 139.07C237.707 139.103 237.577 139.132 237.43 139.157C237.283 139.18 237.141 139.201 237.001 139.222C236.862 139.239 236.746 139.255 236.652 139.267C236.432 139.295 236.231 139.342 236.049 139.408C235.87 139.473 235.726 139.568 235.617 139.692C235.511 139.813 235.458 139.975 235.458 140.178C235.458 140.458 235.561 140.671 235.769 140.815C235.976 140.956 236.24 141.027 236.561 141.027ZM240.7 141.808V135.983H241.797V136.908H241.857C241.964 136.594 242.151 136.348 242.419 136.168C242.689 135.986 242.995 135.895 243.337 135.895C243.407 135.895 243.491 135.898 243.587 135.903C243.686 135.908 243.763 135.914 243.818 135.922V137.007C243.773 136.994 243.692 136.98 243.576 136.965C243.459 136.947 243.343 136.938 243.227 136.938C242.959 136.938 242.72 136.995 242.51 137.109C242.302 137.22 242.138 137.376 242.017 137.576C241.895 137.773 241.835 137.998 241.835 138.251V141.808H240.7ZM246.772 141.922C246.302 141.922 245.882 141.802 245.513 141.562C245.146 141.319 244.858 140.974 244.648 140.526C244.441 140.076 244.337 139.537 244.337 138.907C244.337 138.277 244.442 137.739 244.652 137.291C244.864 136.844 245.155 136.501 245.524 136.263C245.893 136.026 246.312 135.907 246.78 135.907C247.141 135.907 247.432 135.967 247.652 136.089C247.874 136.208 248.046 136.347 248.168 136.506C248.292 136.665 248.388 136.806 248.456 136.927H248.524V134.041H249.658V141.808H248.551V140.902H248.456C248.388 141.026 248.289 141.167 248.16 141.327C248.034 141.486 247.859 141.625 247.637 141.744C247.414 141.863 247.126 141.922 246.772 141.922ZM247.022 140.955C247.349 140.955 247.624 140.869 247.849 140.697C248.077 140.523 248.249 140.281 248.365 139.973C248.484 139.664 248.543 139.305 248.543 138.896C248.543 138.491 248.485 138.137 248.369 137.833C248.252 137.53 248.082 137.294 247.857 137.124C247.632 136.955 247.354 136.87 247.022 136.87C246.681 136.87 246.396 136.959 246.169 137.136C245.941 137.313 245.769 137.554 245.653 137.86C245.539 138.166 245.482 138.511 245.482 138.896C245.482 139.285 245.541 139.635 245.657 139.946C245.773 140.257 245.945 140.504 246.173 140.686C246.403 140.865 246.686 140.955 247.022 140.955Z" fill="white" fill-opacity="0.6"/>
<rect x="53.3613" y="168.94" width="254.684" height="32.5816" rx="5.34043" fill="#06182C"/>
<path d="M80.0637 181.052C80.7938 181.052 81.3988 181.657 81.3988 182.387V183.055H69.3828V182.387C69.3828 181.657 69.9669 181.052 70.7179 181.052H80.0637ZM81.3988 189.063C81.3988 189.814 80.7938 190.398 80.0637 190.398H70.7179C69.9669 190.398 69.3828 189.814 69.3828 189.063V185.058H81.3988V189.063ZM71.7192 187.728C71.5315 187.728 71.3855 187.895 71.3855 188.062C71.3855 188.249 71.5315 188.395 71.7192 188.395H73.0544C73.2212 188.395 73.3881 188.249 73.3881 188.062C73.3881 187.895 73.2212 187.728 73.0544 187.728H71.7192ZM74.3895 188.395H77.0597C77.2266 188.395 77.3935 188.249 77.3935 188.062C77.3935 187.895 77.2266 187.728 77.0597 187.728H74.3895C74.2017 187.728 74.0557 187.895 74.0557 188.062C74.0557 188.249 74.2017 188.395 74.3895 188.395Z" fill="white" fill-opacity="0.6"/>
<path d="M100.369 183.489H99.1852C99.1397 183.236 99.055 183.013 98.9311 182.821C98.8072 182.629 98.6555 182.466 98.476 182.332C98.2964 182.198 98.0954 182.097 97.8729 182.028C97.6529 181.96 97.419 181.926 97.1712 181.926C96.7236 181.926 96.3229 182.039 95.9689 182.264C95.6174 182.489 95.3392 182.819 95.1344 183.253C94.9321 183.688 94.831 184.219 94.831 184.847C94.831 185.479 94.9321 186.012 95.1344 186.447C95.3392 186.882 95.6186 187.211 95.9726 187.433C96.3266 187.656 96.7249 187.767 97.1674 187.767C97.4127 187.767 97.6453 187.734 97.8653 187.668C98.0878 187.6 98.2889 187.5 98.4684 187.369C98.6479 187.237 98.7996 187.077 98.9235 186.887C99.05 186.695 99.1372 186.475 99.1852 186.227L100.369 186.231C100.305 186.613 100.183 186.964 100.001 187.285C99.8212 187.604 99.5898 187.88 99.3066 188.112C99.0259 188.342 98.7048 188.521 98.3432 188.647C97.9816 188.773 97.5872 188.837 97.1598 188.837C96.4872 188.837 95.8879 188.677 95.362 188.359C94.836 188.038 94.4213 187.579 94.1179 186.982C93.817 186.385 93.6666 185.673 93.6666 184.847C93.6666 184.017 93.8183 183.305 94.1217 182.711C94.4251 182.114 94.8398 181.657 95.3658 181.338C95.8917 181.017 96.4897 180.856 97.1598 180.856C97.572 180.856 97.9563 180.916 98.3129 181.035C98.6719 181.151 98.9943 181.323 99.2801 181.55C99.5658 181.776 99.8022 182.051 99.9893 182.377C100.176 182.701 100.303 183.071 100.369 183.489ZM103.375 188.859C103.006 188.859 102.673 188.791 102.374 188.655C102.076 188.516 101.839 188.315 101.665 188.052C101.493 187.789 101.407 187.466 101.407 187.084C101.407 186.756 101.47 186.485 101.597 186.273C101.723 186.06 101.894 185.892 102.109 185.768C102.324 185.644 102.564 185.551 102.829 185.488C103.095 185.424 103.365 185.376 103.641 185.343C103.99 185.303 104.273 185.27 104.491 185.245C104.708 185.217 104.866 185.173 104.965 185.112C105.063 185.051 105.113 184.953 105.113 184.816V184.79C105.113 184.458 105.019 184.202 104.832 184.02C104.647 183.838 104.372 183.747 104.005 183.747C103.623 183.747 103.322 183.831 103.102 184.001C102.885 184.168 102.734 184.353 102.651 184.558L101.585 184.316C101.712 183.962 101.896 183.676 102.139 183.458C102.384 183.238 102.666 183.079 102.985 182.98C103.303 182.879 103.638 182.829 103.99 182.829C104.223 182.829 104.469 182.857 104.73 182.912C104.993 182.965 105.238 183.064 105.465 183.208C105.695 183.352 105.884 183.558 106.031 183.826C106.177 184.092 106.25 184.437 106.25 184.862V188.73H105.143V187.934H105.097C105.024 188.081 104.914 188.225 104.767 188.366C104.621 188.508 104.432 188.626 104.202 188.719C103.972 188.813 103.697 188.859 103.375 188.859ZM103.622 187.949C103.936 187.949 104.204 187.887 104.426 187.763C104.651 187.639 104.822 187.478 104.938 187.278C105.057 187.075 105.116 186.859 105.116 186.629V185.878C105.076 185.919 104.998 185.957 104.881 185.992C104.767 186.025 104.637 186.054 104.491 186.079C104.344 186.102 104.201 186.123 104.062 186.144C103.923 186.161 103.807 186.177 103.713 186.189C103.493 186.217 103.292 186.264 103.11 186.33C102.93 186.395 102.786 186.49 102.678 186.614C102.571 186.735 102.518 186.897 102.518 187.1C102.518 187.38 102.622 187.593 102.829 187.737C103.037 187.878 103.301 187.949 103.622 187.949ZM107.761 188.73V182.905H108.857V183.83H108.918C109.024 183.516 109.211 183.27 109.479 183.09C109.75 182.908 110.056 182.817 110.397 182.817C110.468 182.817 110.551 182.82 110.647 182.825C110.746 182.83 110.823 182.836 110.879 182.844V183.929C110.833 183.916 110.752 183.902 110.636 183.887C110.52 183.869 110.403 183.86 110.287 183.86C110.019 183.86 109.78 183.917 109.57 184.031C109.363 184.142 109.199 184.298 109.077 184.498C108.956 184.695 108.895 184.92 108.895 185.173V188.73H107.761ZM113.833 188.844C113.362 188.844 112.942 188.724 112.573 188.484C112.207 188.241 111.918 187.896 111.709 187.448C111.501 186.998 111.397 186.459 111.397 185.829C111.397 185.199 111.502 184.661 111.712 184.213C111.925 183.766 112.215 183.423 112.585 183.185C112.954 182.948 113.372 182.829 113.84 182.829C114.202 182.829 114.493 182.889 114.712 183.011C114.935 183.13 115.107 183.269 115.228 183.428C115.352 183.587 115.448 183.728 115.517 183.849H115.585V180.963H116.719V188.73H115.611V187.824H115.517C115.448 187.948 115.35 188.089 115.221 188.249C115.094 188.408 114.92 188.547 114.697 188.666C114.475 188.785 114.187 188.844 113.833 188.844ZM114.083 187.877C114.409 187.877 114.685 187.791 114.91 187.619C115.137 187.445 115.309 187.203 115.426 186.895C115.544 186.586 115.604 186.227 115.604 185.818C115.604 185.413 115.546 185.059 115.429 184.755C115.313 184.452 115.142 184.216 114.917 184.046C114.692 183.877 114.414 183.792 114.083 183.792C113.742 183.792 113.457 183.881 113.229 184.058C113.002 184.235 112.83 184.476 112.714 184.782C112.6 185.088 112.543 185.433 112.543 185.818C112.543 186.207 112.601 186.557 112.717 186.868C112.834 187.179 113.006 187.426 113.233 187.608C113.463 187.787 113.747 187.877 114.083 187.877ZM122.298 185.271V188.73H121.164V182.905H122.253V183.853H122.325C122.459 183.544 122.669 183.296 122.954 183.109C123.243 182.922 123.606 182.829 124.043 182.829C124.44 182.829 124.788 182.912 125.086 183.079C125.384 183.243 125.616 183.489 125.78 183.815C125.945 184.141 126.027 184.544 126.027 185.025V188.73H124.893V185.161C124.893 184.739 124.783 184.409 124.563 184.171C124.343 183.931 124.041 183.811 123.656 183.811C123.393 183.811 123.159 183.868 122.954 183.982C122.752 184.096 122.592 184.262 122.473 184.482C122.356 184.7 122.298 184.963 122.298 185.271ZM131.238 186.314V182.905H132.376V188.73H131.261V187.722H131.2C131.066 188.033 130.851 188.292 130.556 188.499C130.262 188.704 129.897 188.806 129.459 188.806C129.085 188.806 128.754 188.724 128.466 188.56C128.18 188.393 127.955 188.146 127.79 187.82C127.629 187.494 127.548 187.091 127.548 186.61V182.905H128.682V186.474C128.682 186.871 128.792 187.187 129.012 187.422C129.232 187.657 129.518 187.775 129.869 187.775C130.081 187.775 130.293 187.722 130.502 187.615C130.715 187.509 130.891 187.349 131.03 187.134C131.171 186.919 131.241 186.646 131.238 186.314ZM133.9 188.73V182.905H134.988V183.853H135.061C135.182 183.532 135.38 183.281 135.656 183.102C135.932 182.92 136.262 182.829 136.646 182.829C137.035 182.829 137.362 182.92 137.625 183.102C137.89 183.284 138.086 183.534 138.212 183.853H138.273C138.412 183.542 138.633 183.294 138.937 183.109C139.24 182.922 139.602 182.829 140.022 182.829C140.55 182.829 140.981 182.994 141.315 183.326C141.651 183.657 141.82 184.156 141.82 184.824V188.73H140.685V184.93C140.685 184.536 140.578 184.25 140.363 184.073C140.148 183.896 139.891 183.807 139.593 183.807C139.224 183.807 138.937 183.921 138.732 184.149C138.527 184.374 138.425 184.663 138.425 185.017V188.73H137.295V184.858C137.295 184.542 137.196 184.288 136.999 184.096C136.801 183.903 136.545 183.807 136.229 183.807C136.014 183.807 135.815 183.864 135.633 183.978C135.454 184.089 135.308 184.245 135.197 184.444C135.088 184.644 135.034 184.876 135.034 185.139V188.73H133.9ZM143.431 188.73V180.963H144.565V183.849H144.633C144.699 183.728 144.793 183.587 144.917 183.428C145.041 183.269 145.213 183.13 145.433 183.011C145.653 182.889 145.944 182.829 146.306 182.829C146.776 182.829 147.196 182.948 147.565 183.185C147.934 183.423 148.224 183.766 148.433 184.213C148.646 184.661 148.752 185.199 148.752 185.829C148.752 186.459 148.647 186.998 148.437 187.448C148.227 187.896 147.939 188.241 147.572 188.484C147.206 188.724 146.787 188.844 146.317 188.844C145.963 188.844 145.673 188.785 145.448 188.666C145.226 188.547 145.051 188.408 144.925 188.249C144.799 188.089 144.701 187.948 144.633 187.824H144.538V188.73H143.431ZM144.542 185.818C144.542 186.227 144.601 186.586 144.72 186.895C144.839 187.203 145.011 187.445 145.236 187.619C145.461 187.791 145.737 187.877 146.063 187.877C146.402 187.877 146.685 187.787 146.912 187.608C147.14 187.426 147.312 187.179 147.428 186.868C147.547 186.557 147.607 186.207 147.607 185.818C147.607 185.433 147.548 185.088 147.432 184.782C147.318 184.476 147.146 184.235 146.916 184.058C146.689 183.881 146.404 183.792 146.063 183.792C145.734 183.792 145.456 183.877 145.228 184.046C145.003 184.216 144.833 184.452 144.716 184.755C144.6 185.059 144.542 185.413 144.542 185.818ZM152.536 188.848C151.962 188.848 151.468 188.725 151.053 188.48C150.641 188.232 150.323 187.885 150.098 187.437C149.875 186.987 149.764 186.46 149.764 185.855C149.764 185.259 149.875 184.733 150.098 184.278C150.323 183.822 150.636 183.467 151.038 183.212C151.443 182.956 151.916 182.829 152.457 182.829C152.785 182.829 153.104 182.883 153.413 182.992C153.721 183.101 153.998 183.271 154.243 183.504C154.488 183.736 154.682 184.039 154.824 184.41C154.965 184.78 155.036 185.228 155.036 185.757V186.159H150.405V185.309H153.925C153.925 185.011 153.864 184.747 153.743 184.517C153.621 184.284 153.45 184.101 153.231 183.967C153.013 183.833 152.758 183.766 152.464 183.766C152.146 183.766 151.868 183.844 151.63 184.001C151.395 184.155 151.213 184.357 151.084 184.608C150.957 184.855 150.894 185.125 150.894 185.415V186.079C150.894 186.469 150.962 186.8 151.099 187.073C151.238 187.346 151.431 187.555 151.679 187.699C151.927 187.84 152.217 187.911 152.548 187.911C152.763 187.911 152.959 187.881 153.136 187.82C153.313 187.757 153.466 187.663 153.595 187.539C153.724 187.416 153.822 187.263 153.89 187.081L154.964 187.274C154.878 187.59 154.724 187.867 154.501 188.105C154.281 188.34 154.004 188.523 153.67 188.655C153.339 188.784 152.961 188.848 152.536 188.848ZM156.294 188.73V182.905H157.39V183.83H157.451C157.557 183.516 157.744 183.27 158.012 183.09C158.283 182.908 158.589 182.817 158.93 182.817C159.001 182.817 159.085 182.82 159.181 182.825C159.279 182.83 159.356 182.836 159.412 182.844V183.929C159.366 183.916 159.286 183.902 159.169 183.887C159.053 183.869 158.937 183.86 158.82 183.86C158.552 183.86 158.313 183.917 158.103 184.031C157.896 184.142 157.732 184.298 157.61 184.498C157.489 184.695 157.428 184.92 157.428 185.173V188.73H156.294Z" fill="white" fill-opacity="0.6"/>
<path d="M221.197 180.963H222.619L225.092 187.001H225.184L227.656 180.963H229.079V188.73H227.964V183.109H227.892L225.601 188.719H224.675L222.384 183.106H222.312V188.73H221.197V180.963ZM230.783 180.963H232.205L234.678 187.001H234.769L237.242 180.963H238.664V188.73H237.549V183.109H237.477L235.186 188.719H234.261L231.97 183.106H231.898V188.73H230.783V180.963ZM243.236 180.598L240.733 189.899H239.72L242.223 180.598H243.236ZM243.691 180.963H245.022L247.052 184.494H247.135L249.164 180.963H250.496L247.677 185.681V188.73H246.509V185.681L243.691 180.963ZM251.003 180.963H252.334L254.363 184.494H254.447L256.476 180.963H257.807L254.989 185.681V188.73H253.821V185.681L251.003 180.963Z" fill="white" fill-opacity="0.6"/>
<path d="M276.33 183.489H275.146C275.101 183.236 275.016 183.013 274.892 182.821C274.768 182.629 274.616 182.466 274.437 182.332C274.257 182.198 274.056 182.097 273.834 182.028C273.614 181.96 273.38 181.926 273.132 181.926C272.685 181.926 272.284 182.039 271.93 182.264C271.578 182.489 271.3 182.819 271.095 183.253C270.893 183.688 270.792 184.219 270.792 184.847C270.792 185.479 270.893 186.012 271.095 186.447C271.3 186.882 271.58 187.211 271.934 187.433C272.288 187.656 272.686 187.767 273.128 187.767C273.374 187.767 273.606 187.734 273.826 187.668C274.049 187.6 274.25 187.5 274.429 187.369C274.609 187.237 274.761 187.077 274.884 186.887C275.011 186.695 275.098 186.475 275.146 186.227L276.33 186.231C276.266 186.613 276.144 186.964 275.962 187.285C275.782 187.604 275.551 187.88 275.268 188.112C274.987 188.342 274.666 188.521 274.304 188.647C273.943 188.773 273.548 188.837 273.121 188.837C272.448 188.837 271.849 188.677 271.323 188.359C270.797 188.038 270.382 187.579 270.079 186.982C269.778 186.385 269.627 185.673 269.627 184.847C269.627 184.017 269.779 183.305 270.083 182.711C270.386 182.114 270.801 181.657 271.327 181.338C271.853 181.017 272.451 180.856 273.121 180.856C273.533 180.856 273.917 180.916 274.274 181.035C274.633 181.151 274.955 181.323 275.241 181.55C275.527 181.776 275.763 182.051 275.95 182.377C276.137 182.701 276.264 183.071 276.33 183.489ZM278.411 180.963L280.573 187.289H280.66L282.822 180.963H284.089L281.294 188.73H279.939L277.144 180.963H278.411ZM291.277 183.489H290.093C290.048 183.236 289.963 183.013 289.839 182.821C289.715 182.629 289.563 182.466 289.384 182.332C289.204 182.198 289.003 182.097 288.781 182.028C288.561 181.96 288.327 181.926 288.079 181.926C287.632 181.926 287.231 182.039 286.877 182.264C286.525 182.489 286.247 182.819 286.042 183.253C285.84 183.688 285.739 184.219 285.739 184.847C285.739 185.479 285.84 186.012 286.042 186.447C286.247 186.882 286.527 187.211 286.881 187.433C287.235 187.656 287.633 187.767 288.075 187.767C288.321 187.767 288.553 187.734 288.773 187.668C288.996 187.6 289.197 187.5 289.376 187.369C289.556 187.237 289.707 187.077 289.831 186.887C289.958 186.695 290.045 186.475 290.093 186.227L291.277 186.231C291.213 186.613 291.091 186.964 290.909 187.285C290.729 187.604 290.498 187.88 290.214 188.112C289.934 188.342 289.613 188.521 289.251 188.647C288.889 188.773 288.495 188.837 288.068 188.837C287.395 188.837 286.796 188.677 286.27 188.359C285.744 188.038 285.329 187.579 285.026 186.982C284.725 186.385 284.574 185.673 284.574 184.847C284.574 184.017 284.726 183.305 285.03 182.711C285.333 182.114 285.748 181.657 286.274 181.338C286.8 181.017 287.398 180.856 288.068 180.856C288.48 180.856 288.864 180.916 289.221 181.035C289.58 181.151 289.902 181.323 290.188 181.55C290.474 181.776 290.71 182.051 290.897 182.377C291.084 182.701 291.211 183.071 291.277 183.489Z" fill="white" fill-opacity="0.6"/>
<rect x="53.3613" y="215.762" width="253.67" height="34.3617" rx="5.34043" fill="#00D4FF"/>
<path d="M155.522 231.186C155.469 231.002 155.395 230.839 155.298 230.697C155.202 230.553 155.085 230.431 154.946 230.333C154.809 230.232 154.652 230.155 154.475 230.101C154.301 230.048 154.107 230.022 153.895 230.022C153.498 230.022 153.149 230.12 152.848 230.318C152.55 230.515 152.317 230.802 152.15 231.179C151.983 231.553 151.9 232.011 151.9 232.552C151.9 233.093 151.982 233.553 152.147 233.932C152.311 234.312 152.544 234.601 152.844 234.801C153.145 234.998 153.501 235.097 153.91 235.097C154.282 235.097 154.599 235.031 154.862 234.9C155.128 234.766 155.33 234.577 155.469 234.334C155.611 234.092 155.682 233.805 155.682 233.473L156.015 233.523H154.013V232.286H157.263V233.265C157.263 233.947 157.119 234.534 156.831 235.025C156.543 235.513 156.146 235.889 155.64 236.155C155.134 236.418 154.555 236.549 153.903 236.549C153.174 236.549 152.535 236.389 151.983 236.068C151.432 235.744 151.002 235.285 150.694 234.691C150.388 234.094 150.235 233.386 150.235 232.567C150.235 231.937 150.326 231.376 150.508 230.883C150.693 230.387 150.95 229.967 151.282 229.624C151.613 229.28 151.999 229.018 152.439 228.838C152.879 228.659 153.355 228.569 153.868 228.569C154.308 228.569 154.718 228.634 155.097 228.763C155.477 228.889 155.813 229.069 156.106 229.301C156.402 229.534 156.644 229.811 156.831 230.132C157.018 230.45 157.138 230.802 157.191 231.186H155.522ZM161.121 236.557C160.522 236.557 160.006 236.436 159.574 236.193C159.144 235.948 158.813 235.601 158.58 235.154C158.348 234.704 158.231 234.171 158.231 233.557C158.231 232.958 158.348 232.432 158.58 231.979C158.813 231.526 159.14 231.174 159.563 230.921C159.987 230.668 160.486 230.541 161.057 230.541C161.441 230.541 161.799 230.603 162.13 230.727C162.464 230.849 162.755 231.032 163.003 231.277C163.253 231.523 163.448 231.831 163.587 232.203C163.726 232.572 163.796 233.004 163.796 233.5V233.944H158.876V232.942H162.275C162.275 232.71 162.224 232.504 162.123 232.324C162.022 232.145 161.881 232.004 161.702 231.903C161.525 231.799 161.319 231.748 161.084 231.748C160.838 231.748 160.621 231.805 160.431 231.918C160.244 232.03 160.097 232.18 159.991 232.37C159.885 232.557 159.831 232.765 159.828 232.995V233.947C159.828 234.236 159.881 234.485 159.987 234.695C160.096 234.905 160.249 235.066 160.446 235.18C160.644 235.294 160.877 235.351 161.148 235.351C161.328 235.351 161.492 235.326 161.641 235.275C161.79 235.224 161.918 235.149 162.024 235.047C162.13 234.946 162.211 234.822 162.267 234.676L163.761 234.774C163.686 235.133 163.53 235.447 163.295 235.715C163.062 235.981 162.761 236.188 162.392 236.337C162.025 236.484 161.602 236.557 161.121 236.557ZM167.949 230.617V231.831H164.44V230.617H167.949ZM165.237 229.222H166.853V234.653C166.853 234.802 166.875 234.918 166.921 235.002C166.966 235.083 167.03 235.14 167.111 235.173C167.194 235.205 167.29 235.222 167.399 235.222C167.475 235.222 167.55 235.216 167.626 235.203C167.702 235.188 167.76 235.176 167.801 235.169L168.055 236.371C167.974 236.396 167.86 236.426 167.714 236.458C167.567 236.494 167.389 236.515 167.179 236.523C166.789 236.538 166.448 236.486 166.155 236.367C165.864 236.249 165.638 236.064 165.476 235.814C165.314 235.563 165.234 235.247 165.237 234.865V229.222ZM175.718 230.909C175.687 230.603 175.557 230.366 175.327 230.196C175.097 230.027 174.785 229.942 174.39 229.942C174.122 229.942 173.896 229.98 173.711 230.056C173.527 230.129 173.385 230.232 173.286 230.363C173.19 230.495 173.142 230.644 173.142 230.811C173.137 230.95 173.166 231.071 173.229 231.175C173.295 231.279 173.385 231.368 173.499 231.444C173.613 231.518 173.744 231.582 173.893 231.638C174.042 231.691 174.202 231.736 174.371 231.774L175.069 231.941C175.408 232.017 175.719 232.118 176.002 232.244C176.285 232.371 176.531 232.526 176.738 232.711C176.945 232.896 177.106 233.113 177.22 233.363C177.336 233.614 177.395 233.901 177.398 234.224C177.395 234.7 177.274 235.112 177.034 235.461C176.796 235.807 176.452 236.077 176.002 236.269C175.554 236.458 175.015 236.553 174.382 236.553C173.755 236.553 173.209 236.457 172.744 236.265C172.281 236.073 171.92 235.788 171.659 235.412C171.401 235.032 171.266 234.563 171.253 234.004H172.843C172.86 234.265 172.935 234.482 173.066 234.657C173.2 234.829 173.379 234.959 173.601 235.047C173.826 235.133 174.08 235.176 174.364 235.176C174.642 235.176 174.883 235.136 175.088 235.055C175.295 234.974 175.456 234.862 175.57 234.717C175.683 234.573 175.74 234.408 175.74 234.221C175.74 234.046 175.689 233.899 175.585 233.781C175.484 233.662 175.335 233.561 175.137 233.477C174.943 233.394 174.704 233.318 174.42 233.25L173.575 233.037C172.92 232.878 172.403 232.629 172.023 232.29C171.644 231.951 171.456 231.495 171.458 230.921C171.456 230.45 171.581 230.04 171.834 229.688C172.089 229.337 172.439 229.062 172.884 228.865C173.329 228.668 173.835 228.569 174.401 228.569C174.978 228.569 175.481 228.668 175.911 228.865C176.343 229.062 176.68 229.337 176.92 229.688C177.16 230.04 177.284 230.447 177.292 230.909H175.718ZM181.571 230.617V231.831H178.063V230.617H181.571ZM178.859 229.222H180.475V234.653C180.475 234.802 180.498 234.918 180.543 235.002C180.589 235.083 180.652 235.14 180.733 235.173C180.816 235.205 180.912 235.222 181.021 235.222C181.097 235.222 181.173 235.216 181.249 235.203C181.324 235.188 181.383 235.176 181.423 235.169L181.677 236.371C181.596 236.396 181.483 236.426 181.336 236.458C181.189 236.494 181.011 236.515 180.801 236.523C180.412 236.538 180.07 236.486 179.777 236.367C179.486 236.249 179.26 236.064 179.098 235.814C178.936 235.563 178.857 235.247 178.859 234.865V229.222ZM184.285 236.553C183.913 236.553 183.582 236.489 183.291 236.36C183 236.228 182.77 236.035 182.601 235.779C182.434 235.522 182.35 235.2 182.35 234.816C182.35 234.492 182.41 234.221 182.529 234.001C182.648 233.781 182.809 233.604 183.014 233.47C183.219 233.336 183.452 233.234 183.712 233.166C183.975 233.098 184.251 233.05 184.539 233.022C184.878 232.987 185.151 232.954 185.358 232.923C185.566 232.891 185.716 232.842 185.81 232.779C185.903 232.716 185.95 232.623 185.95 232.499V232.476C185.95 232.236 185.874 232.05 185.722 231.918C185.573 231.787 185.361 231.721 185.085 231.721C184.794 231.721 184.563 231.786 184.391 231.914C184.219 232.041 184.105 232.2 184.05 232.392L182.555 232.271C182.631 231.917 182.78 231.611 183.003 231.353C183.225 231.093 183.512 230.893 183.864 230.754C184.218 230.612 184.627 230.541 185.093 230.541C185.416 230.541 185.726 230.579 186.022 230.655C186.32 230.731 186.585 230.849 186.815 231.008C187.047 231.167 187.231 231.372 187.365 231.622C187.499 231.87 187.566 232.167 187.566 232.514V236.443H186.033V235.635H185.988C185.894 235.817 185.769 235.978 185.612 236.117C185.456 236.254 185.267 236.361 185.047 236.439C184.827 236.515 184.573 236.553 184.285 236.553ZM184.748 235.438C184.985 235.438 185.195 235.391 185.377 235.298C185.559 235.202 185.702 235.073 185.806 234.911C185.909 234.749 185.961 234.566 185.961 234.361V233.743C185.911 233.776 185.841 233.806 185.753 233.834C185.667 233.859 185.569 233.883 185.461 233.906C185.352 233.926 185.243 233.945 185.134 233.963C185.026 233.978 184.927 233.992 184.839 234.004C184.649 234.032 184.483 234.076 184.342 234.137C184.2 234.198 184.09 234.28 184.012 234.384C183.933 234.485 183.894 234.611 183.894 234.763C183.894 234.983 183.974 235.151 184.133 235.267C184.295 235.381 184.5 235.438 184.748 235.438ZM188.819 236.443V230.617H190.386V231.634H190.446C190.553 231.272 190.731 230.999 190.981 230.815C191.232 230.627 191.52 230.534 191.846 230.534C191.927 230.534 192.014 230.539 192.108 230.549C192.201 230.559 192.283 230.573 192.354 230.591V232.024C192.278 232.002 192.173 231.982 192.039 231.964C191.905 231.946 191.783 231.937 191.672 231.937C191.434 231.937 191.221 231.989 191.034 232.093C190.85 232.194 190.703 232.336 190.594 232.518C190.488 232.7 190.435 232.91 190.435 233.147V236.443H188.819ZM196.581 230.617V231.831H193.072V230.617H196.581ZM193.869 229.222H195.484V234.653C195.484 234.802 195.507 234.918 195.553 235.002C195.598 235.083 195.661 235.14 195.742 235.173C195.826 235.205 195.922 235.222 196.031 235.222C196.106 235.222 196.182 235.216 196.258 235.203C196.334 235.188 196.392 235.176 196.433 235.169L196.687 236.371C196.606 236.396 196.492 236.426 196.345 236.458C196.199 236.494 196.02 236.515 195.811 236.523C195.421 236.538 195.08 236.486 194.786 236.367C194.496 236.249 194.269 236.064 194.108 235.814C193.946 235.563 193.866 235.247 193.869 234.865V229.222ZM200.226 236.557C199.626 236.557 199.11 236.436 198.678 236.193C198.248 235.948 197.917 235.601 197.684 235.154C197.452 234.704 197.335 234.171 197.335 233.557C197.335 232.958 197.452 232.432 197.684 231.979C197.917 231.526 198.244 231.174 198.667 230.921C199.091 230.668 199.59 230.541 200.161 230.541C200.545 230.541 200.903 230.603 201.234 230.727C201.568 230.849 201.859 231.032 202.107 231.277C202.357 231.523 202.552 231.831 202.691 232.203C202.83 232.572 202.9 233.004 202.9 233.5V233.944H197.98V232.942H201.379C201.379 232.71 201.328 232.504 201.227 232.324C201.126 232.145 200.985 232.004 200.806 231.903C200.629 231.799 200.423 231.748 200.188 231.748C199.942 231.748 199.725 231.805 199.535 231.918C199.348 232.03 199.201 232.18 199.095 232.37C198.989 232.557 198.935 232.765 198.932 232.995V233.947C198.932 234.236 198.985 234.485 199.091 234.695C199.2 234.905 199.353 235.066 199.55 235.18C199.748 235.294 199.982 235.351 200.252 235.351C200.432 235.351 200.596 235.326 200.745 235.275C200.894 235.224 201.022 235.149 201.128 235.047C201.234 234.946 201.315 234.822 201.371 234.676L202.865 234.774C202.79 235.133 202.634 235.447 202.399 235.715C202.166 235.981 201.865 236.188 201.496 236.337C201.129 236.484 200.706 236.557 200.226 236.557ZM206.101 236.538C205.658 236.538 205.257 236.424 204.898 236.197C204.542 235.967 204.259 235.629 204.049 235.184C203.841 234.736 203.738 234.188 203.738 233.538C203.738 232.87 203.845 232.315 204.06 231.873C204.275 231.428 204.561 231.095 204.917 230.875C205.276 230.653 205.67 230.541 206.097 230.541C206.423 230.541 206.695 230.597 206.912 230.708C207.132 230.817 207.309 230.954 207.443 231.118C207.58 231.28 207.684 231.439 207.754 231.596H207.804V228.675H209.416V236.443H207.823V235.51H207.754C207.679 235.672 207.571 235.833 207.432 235.992C207.296 236.149 207.117 236.279 206.897 236.383C206.68 236.486 206.414 236.538 206.101 236.538ZM206.613 235.252C206.873 235.252 207.093 235.181 207.273 235.04C207.455 234.896 207.594 234.695 207.69 234.437C207.789 234.179 207.838 233.877 207.838 233.53C207.838 233.184 207.79 232.883 207.694 232.628C207.598 232.372 207.459 232.175 207.277 232.036C207.094 231.897 206.873 231.827 206.613 231.827C206.347 231.827 206.123 231.899 205.941 232.043C205.759 232.188 205.622 232.387 205.528 232.643C205.434 232.898 205.388 233.194 205.388 233.53C205.388 233.869 205.434 234.169 205.528 234.429C205.624 234.687 205.762 234.889 205.941 235.036C206.123 235.18 206.347 235.252 206.613 235.252Z" fill="#0D2F4F"/>
</g>
</g>
<defs>
<filter id="filter0_d_360_22261" x="0.846832" y="0.0780144" width="360.479" height="307.965" filterUnits="userSpaceOnUse" color-interpolation-filters="sRGB">
<feFlood flood-opacity="0" result="BackgroundImageFix"/>
<feColorMatrix in="SourceAlpha" type="matrix" values="0 0 0 0 0 0 0 0 0 0 0 0 0 0 0 0 0 0 127 0" result="hardAlpha"/>
<feOffset dy="3.56028"/>
<feGaussianBlur stdDeviation="14.2411"/>
<feComposite in2="hardAlpha" operator="out"/>
<feColorMatrix type="matrix" values="0 0 0 0 0.121569 0 0 0 0 0.121569 0 0 0 0 0.156863 0 0 0 0.07 0"/>
<feBlend mode="normal" in2="BackgroundImageFix" result="effect1_dropShadow_360_22261"/>
<feBlend mode="normal" in="SourceGraphic" in2="effect1_dropShadow_360_22261" result="shape"/>
</filter>
<filter id="filter1_d_360_22261" x="0.846832" y="0.0780144" width="360.479" height="307.965" filterUnits="userSpaceOnUse" color-interpolation-filters="sRGB">
<feFlood flood-opacity="0" result="BackgroundImageFix"/>
<feColorMatrix in="SourceAlpha" type="matrix" values="0 0 0 0 0 0 0 0 0 0 0 0 0 0 0 0 0 0 127 0" result="hardAlpha"/>
<feOffset dy="3.56028"/>
<feGaussianBlur stdDeviation="14.2411"/>
<feComposite in2="hardAlpha" operator="out"/>
<feColorMatrix type="matrix" values="0 0 0 0 0.121569 0 0 0 0 0.121569 0 0 0 0 0.156863 0 0 0 0.07 0"/>
<feBlend mode="normal" in2="BackgroundImageFix" result="effect1_dropShadow_360_22261"/>
<feBlend mode="normal" in="SourceGraphic" in2="effect1_dropShadow_360_22261" result="shape"/>
</filter>
<filter id="filter2_d_360_22261" x="5.3291" y="5" width="351.515" height="299" filterUnits="userSpaceOnUse" color-interpolation-filters="sRGB">
<feFlood flood-opacity="0" result="BackgroundImageFix"/>
<feColorMatrix in="SourceAlpha" type="matrix" values="0 0 0 0 0 0 0 0 0 0 0 0 0 0 0 0 0 0 127 0" result="hardAlpha"/>
<feOffset dy="4"/>
<feGaussianBlur stdDeviation="12"/>
<feColorMatrix type="matrix" values="0 0 0 0 0.0235294 0 0 0 0 0.0941176 0 0 0 0 0.172549 0 0 0 0.4 0"/>
<feBlend mode="normal" in2="BackgroundImageFix" result="effect1_dropShadow_360_22261"/>
<feBlend mode="normal" in="SourceGraphic" in2="effect1_dropShadow_360_22261" result="shape"/>
</filter>
<filter id="filter3_d_360_22261" x="49.801" y="122.018" width="128.709" height="39.8015" filterUnits="userSpaceOnUse" color-interpolation-filters="sRGB">
<feFlood flood-opacity="0" result="BackgroundImageFix"/>
<feColorMatrix in="SourceAlpha" type="matrix" values="0 0 0 0 0 0 0 0 0 0 0 0 0 0 0 0 0 0 127 0" result="hardAlpha"/>
<feOffset dy="3.56028"/>
<feGaussianBlur stdDeviation="1.78014"/>
<feComposite in2="hardAlpha" operator="out"/>
<feColorMatrix type="matrix" values="0 0 0 0 0.392157 0 0 0 0 0.380392 0 0 0 0 0.933333 0 0 0 0.15 0"/>
<feBlend mode="normal" in2="BackgroundImageFix" result="effect1_dropShadow_360_22261"/>
<feBlend mode="normal" in="SourceGraphic" in2="effect1_dropShadow_360_22261" result="shape"/>
</filter>
</defs>
</svg>
