<svg width="365" height="283" viewBox="0 0 365 283" fill="none" xmlns="http://www.w3.org/2000/svg">
<g filter="url(#filter0_d_360_22294)">
<g filter="url(#filter1_d_360_22294)">
<rect x="32.3438" y="28.5" width="300" height="94" rx="16" fill="#0D2F4F"/>
<path d="M60.5938 59C64.4219 59 67.5938 55.8828 67.5938 52C67.5938 48.1719 64.4219 45 60.5938 45C56.7109 45 53.5938 48.1719 53.5938 52C53.5938 55.8828 56.7109 59 60.5938 59ZM63.3281 61.625H57.8047C52.5547 61.625 48.3438 65.8906 48.3438 71.1406C48.3438 72.1797 49.1641 73 50.2031 73H70.9297C71.9688 73 72.8438 72.1797 72.8438 71.1406C72.8438 65.8906 68.5781 61.625 63.3281 61.625Z" fill="#00D4FF"/>
<path d="M97.642 52.0455H101.332V63.3807C101.332 64.6534 101.028 65.767 100.42 66.7216C99.8182 67.6761 98.9744 68.4205 97.8892 68.9545C96.804 69.483 95.5398 69.7472 94.0966 69.7472C92.6477 69.7472 91.3807 69.483 90.2955 68.9545C89.2102 68.4205 88.3665 67.6761 87.7642 66.7216C87.1619 65.767 86.8608 64.6534 86.8608 63.3807V52.0455H90.5511V63.0653C90.5511 63.7301 90.696 64.321 90.9858 64.8381C91.2813 65.3551 91.696 65.7614 92.2301 66.0568C92.7642 66.3523 93.3864 66.5 94.0966 66.5C94.8125 66.5 95.4347 66.3523 95.9631 66.0568C96.4972 65.7614 96.9091 65.3551 97.1989 64.8381C97.4943 64.321 97.642 63.7301 97.642 63.0653V52.0455ZM115.192 60.142L111.869 60.3466C111.812 60.0625 111.69 59.8068 111.502 59.5795C111.315 59.3466 111.067 59.1619 110.761 59.0256C110.46 58.8835 110.099 58.8125 109.678 58.8125C109.116 58.8125 108.641 58.9318 108.255 59.1705C107.869 59.4034 107.675 59.7159 107.675 60.108C107.675 60.4205 107.8 60.6847 108.05 60.9006C108.3 61.1165 108.729 61.2898 109.337 61.4205L111.707 61.8977C112.979 62.1591 113.928 62.5795 114.553 63.1591C115.178 63.7386 115.491 64.5 115.491 65.4432C115.491 66.3011 115.238 67.054 114.732 67.7017C114.232 68.3494 113.545 68.8551 112.67 69.2188C111.8 69.5767 110.798 69.7557 109.661 69.7557C107.928 69.7557 106.548 69.3949 105.519 68.6733C104.496 67.946 103.897 66.9574 103.721 65.7074L107.292 65.5199C107.4 66.0483 107.661 66.4517 108.076 66.7301C108.491 67.0028 109.022 67.1392 109.67 67.1392C110.306 67.1392 110.817 67.017 111.204 66.7727C111.596 66.5227 111.795 66.2017 111.8 65.8097C111.795 65.4801 111.656 65.2102 111.383 65C111.11 64.7841 110.69 64.6193 110.121 64.5057L107.854 64.054C106.576 63.7983 105.624 63.3551 104.999 62.7244C104.38 62.0937 104.07 61.2898 104.07 60.3125C104.07 59.4716 104.298 58.7472 104.752 58.1392C105.212 57.5312 105.857 57.0625 106.687 56.733C107.522 56.4034 108.499 56.2386 109.619 56.2386C111.272 56.2386 112.573 56.5881 113.522 57.2869C114.477 57.9858 115.033 58.9375 115.192 60.142ZM123.743 69.7557C122.396 69.7557 121.237 69.483 120.266 68.9375C119.3 68.3864 118.555 67.608 118.033 66.6023C117.51 65.5909 117.249 64.3949 117.249 63.0142C117.249 61.6676 117.51 60.4858 118.033 59.4688C118.555 58.4517 119.291 57.6591 120.24 57.0909C121.195 56.5227 122.314 56.2386 123.598 56.2386C124.462 56.2386 125.266 56.3778 126.01 56.6562C126.76 56.929 127.413 57.3409 127.97 57.892C128.533 58.4432 128.97 59.1364 129.283 59.9716C129.595 60.8011 129.751 61.7727 129.751 62.8864V63.8835H118.697V61.6335H126.334C126.334 61.1108 126.22 60.6477 125.993 60.2443C125.766 59.8409 125.45 59.5256 125.047 59.2983C124.649 59.0653 124.186 58.9489 123.658 58.9489C123.107 58.9489 122.618 59.0767 122.192 59.3324C121.771 59.5824 121.442 59.9205 121.203 60.3466C120.964 60.767 120.842 61.2358 120.837 61.7528V63.892C120.837 64.5398 120.956 65.0994 121.195 65.571C121.439 66.0426 121.783 66.4062 122.226 66.6619C122.669 66.9176 123.195 67.0455 123.803 67.0455C124.206 67.0455 124.575 66.9886 124.911 66.875C125.246 66.7614 125.533 66.5909 125.771 66.3636C126.01 66.1364 126.192 65.858 126.317 65.5284L129.675 65.75C129.504 66.5568 129.155 67.2614 128.626 67.8636C128.104 68.4602 127.428 68.9261 126.598 69.2614C125.774 69.5909 124.822 69.7557 123.743 69.7557ZM132.121 69.5V56.4091H135.641V58.6932H135.777C136.016 57.8807 136.416 57.267 136.979 56.8523C137.541 56.4318 138.189 56.2216 138.922 56.2216C139.104 56.2216 139.3 56.233 139.51 56.2557C139.72 56.2784 139.905 56.3097 140.064 56.3494V59.571C139.893 59.5199 139.658 59.4744 139.357 59.4347C139.055 59.3949 138.78 59.375 138.53 59.375C137.996 59.375 137.518 59.4915 137.098 59.7244C136.683 59.9517 136.354 60.2699 136.109 60.679C135.871 61.0881 135.751 61.5597 135.751 62.0938V69.5H132.121ZM155.055 52.0455V69.5H151.365V55.5483H151.263L147.266 58.054V54.7812L151.587 52.0455H155.055Z" fill="white"/>
<path d="M48.8409 89.093V87.3182H57.2031V89.093H54.0859V97.5H51.9581V89.093H48.8409ZM60.9132 97.6491C60.1277 97.6491 59.4515 97.4901 58.8848 97.1719C58.3213 96.8504 57.8871 96.3963 57.5822 95.8097C57.2773 95.2197 57.1248 94.522 57.1248 93.7166C57.1248 92.9311 57.2773 92.2417 57.5822 91.6484C57.8871 91.0552 58.3163 90.5928 58.8699 90.2614C59.4267 89.9299 60.0796 89.7642 60.8287 89.7642C61.3324 89.7642 61.8014 89.8454 62.2356 90.0078C62.6731 90.1669 63.0543 90.4072 63.3791 90.7287C63.7072 91.0502 63.9624 91.4545 64.1447 91.9418C64.327 92.4257 64.4181 92.9924 64.4181 93.642V94.2237H57.97V92.9112H62.4245C62.4245 92.6063 62.3583 92.3362 62.2257 92.1009C62.0931 91.8655 61.9092 91.6816 61.6738 91.549C61.4418 91.4131 61.1717 91.3452 60.8635 91.3452C60.542 91.3452 60.2569 91.4197 60.0083 91.5689C59.7631 91.7147 59.5708 91.9119 59.4316 92.1605C59.2924 92.4058 59.2212 92.6792 59.2179 92.9808V94.2287C59.2179 94.6065 59.2875 94.933 59.4267 95.2081C59.5692 95.4832 59.7697 95.6953 60.0282 95.8445C60.2868 95.9936 60.5933 96.0682 60.948 96.0682C61.1833 96.0682 61.3987 96.035 61.5943 95.9688C61.7898 95.9025 61.9572 95.803 62.0964 95.6705C62.2356 95.5379 62.3417 95.3755 62.4146 95.1832L64.3734 95.3125C64.274 95.7831 64.0701 96.1941 63.7619 96.5455C63.457 96.8935 63.0626 97.1652 62.5787 97.3608C62.0981 97.553 61.5429 97.6491 60.9132 97.6491ZM67.4334 89.8636L68.8354 92.5334L70.2722 89.8636H72.4448L70.2324 93.6818L72.5044 97.5H70.3418L68.8354 94.8601L67.3539 97.5H65.1664L67.4334 93.6818L65.2459 89.8636H67.4334ZM75.8391 97.6442C75.3519 97.6442 74.9177 97.5597 74.5366 97.3906C74.1554 97.2183 73.8538 96.9647 73.6317 96.63C73.413 96.2919 73.3036 95.871 73.3036 95.3672C73.3036 94.9429 73.3815 94.5866 73.5373 94.2983C73.6931 94.0099 73.9052 93.7779 74.1737 93.6023C74.4421 93.4266 74.747 93.294 75.0884 93.2045C75.4331 93.1151 75.7944 93.0521 76.1722 93.0156C76.6164 92.9692 76.9743 92.9261 77.2461 92.8864C77.5179 92.8433 77.7151 92.7803 77.8377 92.6974C77.9603 92.6146 78.0217 92.492 78.0217 92.3295V92.2997C78.0217 91.9848 77.9222 91.7412 77.7234 91.5689C77.5278 91.3965 77.2494 91.3104 76.8881 91.3104C76.507 91.3104 76.2037 91.3949 75.9783 91.5639C75.753 91.7296 75.6038 91.9384 75.5309 92.1903L73.5721 92.0312C73.6715 91.5672 73.8671 91.1662 74.1587 90.8281C74.4504 90.4867 74.8266 90.2249 75.2873 90.0426C75.7513 89.857 76.2882 89.7642 76.8981 89.7642C77.3223 89.7642 77.7283 89.8139 78.1161 89.9134C78.5072 90.0128 78.8536 90.1669 79.1552 90.3757C79.4601 90.5845 79.7004 90.853 79.8761 91.1811C80.0517 91.5059 80.1396 91.8954 80.1396 92.3494V97.5H78.131V96.4411H78.0714C77.9487 96.6797 77.7847 96.8902 77.5792 97.0724C77.3737 97.2514 77.1268 97.3923 76.8384 97.495C76.5501 97.5945 76.217 97.6442 75.8391 97.6442ZM76.4457 96.1825C76.7572 96.1825 77.0323 96.1212 77.271 95.9986C77.5096 95.8726 77.6969 95.7036 77.8327 95.4915C77.9686 95.2794 78.0366 95.0391 78.0366 94.7706V93.9602C77.9703 94.0033 77.8791 94.0431 77.7631 94.0795C77.6505 94.1127 77.5228 94.1442 77.3803 94.174C77.2378 94.2005 77.0953 94.2254 76.9528 94.2486C76.8103 94.2685 76.681 94.2867 76.565 94.3033C76.3164 94.3397 76.0993 94.3977 75.9137 94.4773C75.7281 94.5568 75.5839 94.6645 75.4812 94.8004C75.3784 94.933 75.3271 95.0987 75.3271 95.2976C75.3271 95.5859 75.4315 95.8063 75.6403 95.9588C75.8524 96.108 76.1209 96.1825 76.4457 96.1825ZM88.1364 92.0412L86.1974 92.1605C86.1643 91.9948 86.093 91.8456 85.9837 91.7131C85.8743 91.5772 85.7301 91.4695 85.5511 91.3899C85.3755 91.3071 85.165 91.2656 84.9197 91.2656C84.5916 91.2656 84.3149 91.3352 84.0895 91.4744C83.8641 91.6103 83.7514 91.7926 83.7514 92.0213C83.7514 92.2036 83.8243 92.3577 83.9702 92.4837C84.116 92.6096 84.3662 92.7107 84.7209 92.7869L86.103 93.0653C86.8454 93.2178 87.3989 93.4631 87.7635 93.8011C88.1281 94.1392 88.3104 94.5833 88.3104 95.1335C88.3104 95.634 88.1629 96.0732 87.8679 96.451C87.5762 96.8288 87.1752 97.1238 86.6648 97.3359C86.1577 97.5447 85.5727 97.6491 84.9098 97.6491C83.8989 97.6491 83.0935 97.4387 82.4936 97.0178C81.897 96.5935 81.5473 96.0168 81.4446 95.2876L83.5277 95.1783C83.5907 95.4865 83.7431 95.7218 83.9851 95.8842C84.227 96.0433 84.5369 96.1229 84.9148 96.1229C85.286 96.1229 85.5843 96.0516 85.8097 95.9091C86.0384 95.7633 86.1544 95.576 86.1577 95.3473C86.1544 95.1551 86.0732 94.9976 85.9141 94.875C85.755 94.7491 85.5097 94.6529 85.1783 94.5866L83.8558 94.3232C83.1101 94.174 82.5549 93.9155 82.1903 93.5476C81.8291 93.1797 81.6484 92.7107 81.6484 92.1406C81.6484 91.6501 81.781 91.2275 82.0462 90.8729C82.3146 90.5182 82.6908 90.2448 83.1747 90.0526C83.6619 89.8603 84.232 89.7642 84.8849 89.7642C85.8494 89.7642 86.6084 89.968 87.1619 90.3757C87.7188 90.7834 88.0436 91.3385 88.1364 92.0412ZM91.9458 96.108L91.8912 96.6548C91.8481 97.0923 91.7652 97.5282 91.6426 97.9624C91.5233 98.3999 91.3973 98.7959 91.2647 99.1506C91.1355 99.5052 91.0311 99.7836 90.9515 99.9858H89.5794C89.6291 99.7902 89.697 99.5168 89.7832 99.1655C89.8694 98.8175 89.9506 98.4264 90.0268 97.9922C90.103 97.558 90.1511 97.1155 90.171 96.6648L90.1958 96.108H91.9458ZM102.973 87.3182H105.126V93.9304C105.126 94.6728 104.948 95.3224 104.594 95.8793C104.242 96.4361 103.75 96.8703 103.117 97.1818C102.484 97.4901 101.747 97.6442 100.905 97.6442C100.059 97.6442 99.3204 97.4901 98.6873 97.1818C98.0543 96.8703 97.5621 96.4361 97.2108 95.8793C96.8594 95.3224 96.6838 94.6728 96.6838 93.9304V87.3182H98.8365V93.7464C98.8365 94.1342 98.921 94.4789 99.09 94.7805C99.2624 95.0821 99.5043 95.3191 99.8159 95.4915C100.127 95.6638 100.49 95.75 100.905 95.75C101.322 95.75 101.685 95.6638 101.993 95.4915C102.305 95.3191 102.545 95.0821 102.714 94.7805C102.887 94.4789 102.973 94.1342 102.973 93.7464V87.3182ZM112.42 90.2464C112.38 89.8454 112.21 89.5339 111.908 89.3118C111.606 89.0897 111.197 88.9787 110.68 88.9787C110.329 88.9787 110.032 89.0284 109.79 89.1278C109.548 89.224 109.363 89.3582 109.233 89.5305C109.107 89.7029 109.044 89.8984 109.044 90.1172C109.038 90.2995 109.076 90.4586 109.159 90.5945C109.245 90.7304 109.363 90.848 109.512 90.9474C109.661 91.0436 109.833 91.1281 110.029 91.201C110.224 91.2706 110.433 91.3303 110.655 91.38L111.57 91.5987C112.014 91.6982 112.422 91.8307 112.793 91.9964C113.164 92.1622 113.486 92.366 113.757 92.608C114.029 92.8499 114.24 93.1349 114.389 93.4631C114.541 93.7912 114.619 94.1674 114.623 94.5916C114.619 95.2147 114.46 95.755 114.145 96.2124C113.834 96.6664 113.383 97.0194 112.793 97.2713C112.206 97.5199 111.499 97.6442 110.67 97.6442C109.848 97.6442 109.132 97.5182 108.522 97.2663C107.916 97.0144 107.442 96.6416 107.1 96.1477C106.762 95.6506 106.585 95.0357 106.569 94.3033H108.652C108.675 94.6446 108.773 94.9297 108.945 95.1584C109.121 95.3838 109.354 95.5545 109.646 95.6705C109.941 95.7831 110.274 95.8395 110.645 95.8395C111.01 95.8395 111.326 95.7865 111.595 95.6804C111.867 95.5743 112.077 95.4268 112.226 95.2379C112.375 95.049 112.45 94.8319 112.45 94.5866C112.45 94.358 112.382 94.1657 112.246 94.0099C112.114 93.8542 111.918 93.7216 111.659 93.6122C111.404 93.5028 111.091 93.4034 110.72 93.3139L109.611 93.0355C108.753 92.8267 108.075 92.5002 107.578 92.0561C107.081 91.612 106.834 91.0137 106.837 90.2614C106.834 89.6449 106.998 89.1063 107.329 88.6456C107.664 88.1849 108.123 87.8253 108.706 87.5668C109.29 87.3082 109.953 87.179 110.695 87.179C111.451 87.179 112.11 87.3082 112.674 87.5668C113.24 87.8253 113.681 88.1849 113.996 88.6456C114.311 89.1063 114.473 89.6399 114.483 90.2464H112.42ZM117.593 97.5H115.286L118.801 87.3182H121.575L125.085 97.5H122.778L120.228 89.6449H120.148L117.593 97.5ZM117.449 93.4979H122.898V95.1783H117.449V93.4979Z" fill="white" fill-opacity="0.6"/>
<rect x="251.344" y="44.5" width="65" height="27" rx="6" fill="#00D4FF" fill-opacity="0.2"/>
<path d="M263.786 53.7727V62.5H262.205V53.7727H263.786ZM266.972 58.6648V62.5H265.429V55.9545H266.904V57.0668H266.98C267.131 56.7003 267.371 56.4091 267.701 56.1932C268.033 55.9773 268.444 55.8693 268.932 55.8693C269.384 55.8693 269.777 55.9659 270.113 56.1591C270.451 56.3523 270.712 56.6321 270.897 56.9986C271.084 57.3651 271.176 57.8097 271.174 58.3324V62.5H269.631V58.571C269.631 58.1335 269.517 57.7912 269.29 57.544C269.066 57.2969 268.755 57.1733 268.357 57.1733C268.087 57.1733 267.847 57.233 267.637 57.3523C267.429 57.4687 267.266 57.6378 267.147 57.8594C267.03 58.081 266.972 58.3494 266.972 58.6648ZM276.01 55.9545V57.1477H272.248V55.9545H276.01ZM273.176 54.3864H274.719V60.5312C274.719 60.7386 274.75 60.8977 274.813 61.0085C274.878 61.1165 274.963 61.1903 275.069 61.2301C275.174 61.2699 275.29 61.2898 275.418 61.2898C275.515 61.2898 275.603 61.2827 275.682 61.2685C275.765 61.2543 275.827 61.2415 275.87 61.2301L276.13 62.4361C276.047 62.4645 275.929 62.4957 275.776 62.5298C275.625 62.5639 275.441 62.5838 275.222 62.5895C274.836 62.6009 274.488 62.5426 274.178 62.4148C273.868 62.2841 273.623 62.0824 273.441 61.8097C273.262 61.5369 273.174 61.196 273.176 60.7869V54.3864ZM280.128 62.6278C279.472 62.6278 278.905 62.4915 278.428 62.2188C277.953 61.9432 277.588 61.554 277.332 61.0511C277.077 60.5455 276.949 59.9503 276.949 59.2656C276.949 58.5923 277.077 58.0014 277.332 57.4929C277.591 56.9815 277.952 56.5838 278.415 56.2997C278.878 56.0128 279.422 55.8693 280.047 55.8693C280.45 55.8693 280.831 55.9347 281.189 56.0653C281.55 56.1932 281.868 56.392 282.143 56.6619C282.422 56.9318 282.641 57.2756 282.8 57.6932C282.959 58.108 283.038 58.6023 283.038 59.1761V59.6491H277.673V58.6094H281.56C281.557 58.3139 281.493 58.0511 281.368 57.821C281.243 57.5881 281.068 57.4048 280.844 57.2713C280.622 57.1378 280.364 57.071 280.068 57.071C279.753 57.071 279.476 57.1477 279.237 57.3011C278.999 57.4517 278.813 57.6506 278.679 57.8977C278.548 58.142 278.482 58.4105 278.479 58.7031V59.6108C278.479 59.9915 278.548 60.3182 278.688 60.5909C278.827 60.8608 279.021 61.0682 279.271 61.2131C279.521 61.3551 279.814 61.4261 280.149 61.4261C280.374 61.4261 280.577 61.3949 280.759 61.3324C280.94 61.267 281.098 61.1719 281.232 61.0469C281.365 60.9219 281.466 60.767 281.534 60.5824L282.974 60.7443C282.884 61.125 282.71 61.4574 282.455 61.7415C282.202 62.0227 281.878 62.2415 281.483 62.3977C281.088 62.5511 280.636 62.6278 280.128 62.6278ZM284.343 62.5V55.9545H285.839V57.0455H285.907C286.027 56.6676 286.231 56.3764 286.521 56.1719C286.814 55.9645 287.147 55.8608 287.522 55.8608C287.608 55.8608 287.703 55.8651 287.808 55.8736C287.916 55.8793 288.005 55.8892 288.076 55.9034V57.3224C288.011 57.2997 287.907 57.2798 287.765 57.2628C287.626 57.2429 287.491 57.233 287.36 57.233C287.079 57.233 286.826 57.294 286.602 57.4162C286.38 57.5355 286.206 57.7017 286.078 57.9148C285.95 58.1278 285.886 58.3736 285.886 58.652V62.5H284.343ZM290.644 58.6648V62.5H289.101V55.9545H290.576V57.0668H290.652C290.803 56.7003 291.043 56.4091 291.373 56.1932C291.705 55.9773 292.115 55.8693 292.604 55.8693C293.056 55.8693 293.449 55.9659 293.784 56.1591C294.123 56.3523 294.384 56.6321 294.569 56.9986C294.756 57.3651 294.848 57.8097 294.846 58.3324V62.5H293.303V58.571C293.303 58.1335 293.189 57.7912 292.962 57.544C292.738 57.2969 292.426 57.1733 292.029 57.1733C291.759 57.1733 291.519 57.233 291.309 57.3523C291.101 57.4687 290.938 57.6378 290.819 57.8594C290.702 58.081 290.644 58.3494 290.644 58.6648ZM298.297 62.6321C297.882 62.6321 297.509 62.5582 297.176 62.4105C296.847 62.2599 296.586 62.0384 296.392 61.7457C296.202 61.4531 296.107 61.0923 296.107 60.6634C296.107 60.294 296.175 59.9886 296.311 59.7472C296.448 59.5057 296.634 59.3125 296.87 59.1676C297.105 59.0227 297.371 58.9134 297.667 58.8395C297.965 58.7628 298.273 58.7074 298.591 58.6733C298.975 58.6335 299.286 58.598 299.525 58.5668C299.763 58.5327 299.936 58.4815 300.044 58.4134C300.155 58.3423 300.211 58.233 300.211 58.0852V58.0597C300.211 57.7386 300.115 57.4901 299.925 57.3139C299.735 57.1378 299.461 57.0497 299.103 57.0497C298.725 57.0497 298.425 57.1321 298.203 57.2969C297.985 57.4616 297.837 57.6562 297.76 57.8807L296.32 57.6761C296.434 57.2784 296.621 56.946 296.882 56.679C297.144 56.4091 297.463 56.2074 297.841 56.0739C298.219 55.9375 298.637 55.8693 299.094 55.8693C299.409 55.8693 299.723 55.9062 300.036 55.9801C300.348 56.054 300.634 56.1761 300.892 56.3466C301.151 56.5142 301.358 56.7429 301.515 57.0327C301.674 57.3224 301.753 57.6847 301.753 58.1193V62.5H300.27V61.6009H300.219C300.125 61.7827 299.993 61.9531 299.823 62.1122C299.655 62.2685 299.444 62.3949 299.188 62.4915C298.935 62.5852 298.638 62.6321 298.297 62.6321ZM298.698 61.4986C299.007 61.4986 299.276 61.4375 299.503 61.3153C299.73 61.1903 299.905 61.0256 300.027 60.821C300.152 60.6165 300.215 60.3935 300.215 60.152V59.3807C300.167 59.4205 300.084 59.4574 299.968 59.4915C299.854 59.5256 299.726 59.5554 299.584 59.581C299.442 59.6065 299.301 59.6293 299.162 59.6491C299.023 59.669 298.902 59.6861 298.8 59.7003C298.57 59.7315 298.364 59.7827 298.182 59.8537C298 59.9247 297.857 60.0241 297.752 60.152C297.647 60.277 297.594 60.4389 297.594 60.6378C297.594 60.9219 297.698 61.1364 297.905 61.2812C298.113 61.4261 298.377 61.4986 298.698 61.4986ZM304.847 53.7727V62.5H303.304V53.7727H304.847Z" fill="#00D4FF"/>
<rect x="259.344" y="79.5" width="57" height="27" rx="6" fill="#0FD38D"/>
<path d="M271.325 97.5H269.638L272.71 88.7727H274.662L277.739 97.5H276.051L273.72 90.5625H273.652L271.325 97.5ZM271.381 94.0781H275.983V95.348H271.381V94.0781ZM281.476 97.6278C280.822 97.6278 280.261 97.4844 279.793 97.1974C279.327 96.9105 278.967 96.5142 278.714 96.0085C278.464 95.5 278.339 94.9148 278.339 94.2528C278.339 93.5881 278.467 93.0014 278.723 92.4929C278.979 91.9815 279.339 91.5838 279.805 91.2997C280.274 91.0128 280.828 90.8693 281.467 90.8693C281.999 90.8693 282.469 90.9673 282.878 91.1634C283.29 91.3565 283.618 91.6307 283.862 91.9858C284.107 92.3381 284.246 92.75 284.28 93.2216H282.805C282.746 92.9062 282.604 92.6435 282.379 92.4332C282.158 92.2202 281.861 92.1136 281.489 92.1136C281.173 92.1136 280.896 92.1989 280.658 92.3693C280.419 92.5369 280.233 92.7784 280.099 93.0938C279.969 93.4091 279.903 93.7869 279.903 94.2273C279.903 94.6733 279.969 95.0568 280.099 95.3778C280.23 95.696 280.413 95.9418 280.649 96.1151C280.888 96.2855 281.168 96.3707 281.489 96.3707C281.716 96.3707 281.919 96.3281 282.098 96.2429C282.28 96.1548 282.432 96.0284 282.554 95.8636C282.676 95.6989 282.76 95.4986 282.805 95.2628H284.28C284.243 95.7259 284.107 96.1364 283.871 96.4943C283.635 96.8494 283.314 97.1278 282.908 97.3295C282.501 97.5284 282.024 97.6278 281.476 97.6278ZM288.815 90.9545V92.1477H285.052V90.9545H288.815ZM285.981 89.3864H287.524V95.5312C287.524 95.7386 287.555 95.8977 287.618 96.0085C287.683 96.1165 287.768 96.1903 287.873 96.2301C287.978 96.2699 288.095 96.2898 288.223 96.2898C288.319 96.2898 288.407 96.2827 288.487 96.2685C288.569 96.2543 288.632 96.2415 288.674 96.2301L288.934 97.4361C288.852 97.4645 288.734 97.4957 288.581 97.5298C288.43 97.5639 288.245 97.5838 288.027 97.5895C287.64 97.6009 287.292 97.5426 286.983 97.4148C286.673 97.2841 286.427 97.0824 286.245 96.8097C286.066 96.5369 285.978 96.196 285.981 95.7869V89.3864ZM290.105 97.5V90.9545H291.648V97.5H290.105ZM290.881 90.0256C290.636 90.0256 290.426 89.9446 290.25 89.7827C290.074 89.6179 289.986 89.4205 289.986 89.1903C289.986 88.9574 290.074 88.7599 290.25 88.598C290.426 88.4332 290.636 88.3509 290.881 88.3509C291.128 88.3509 291.338 88.4332 291.511 88.598C291.688 88.7599 291.776 88.9574 291.776 89.1903C291.776 89.4205 291.688 89.6179 291.511 89.7827C291.338 89.9446 291.128 90.0256 290.881 90.0256ZM299.081 90.9545L296.75 97.5H295.045L292.714 90.9545H294.359L295.863 95.8168H295.931L297.44 90.9545H299.081ZM302.823 97.6278C302.167 97.6278 301.6 97.4915 301.123 97.2188C300.648 96.9432 300.283 96.554 300.028 96.0511C299.772 95.5455 299.644 94.9503 299.644 94.2656C299.644 93.5923 299.772 93.0014 300.028 92.4929C300.286 91.9815 300.647 91.5838 301.11 91.2997C301.573 91.0128 302.117 90.8693 302.742 90.8693C303.146 90.8693 303.526 90.9347 303.884 91.0653C304.245 91.1932 304.563 91.392 304.839 91.6619C305.117 91.9318 305.336 92.2756 305.495 92.6932C305.654 93.108 305.734 93.6023 305.734 94.1761V94.6491H300.369V93.6094H304.255C304.252 93.3139 304.188 93.0511 304.063 92.821C303.938 92.5881 303.763 92.4048 303.539 92.2713C303.317 92.1378 303.059 92.071 302.763 92.071C302.448 92.071 302.171 92.1477 301.933 92.3011C301.694 92.4517 301.508 92.6506 301.374 92.8977C301.244 93.142 301.177 93.4105 301.174 93.7031V94.6108C301.174 94.9915 301.244 95.3182 301.383 95.5909C301.522 95.8608 301.717 96.0682 301.967 96.2131C302.217 96.3551 302.509 96.4261 302.844 96.4261C303.069 96.4261 303.272 96.3949 303.454 96.3324C303.636 96.267 303.793 96.1719 303.927 96.0469C304.06 95.9219 304.161 95.767 304.229 95.5824L305.67 95.7443C305.579 96.125 305.406 96.4574 305.15 96.7415C304.897 97.0227 304.573 97.2415 304.178 97.3977C303.783 97.5511 303.332 97.6278 302.823 97.6278Z" fill="#0D2F4F"/>
</g>
<g filter="url(#filter2_d_360_22294)">
<rect x="32.3438" y="152.5" width="300" height="94" rx="16" fill="#0D2F4F"/>
<path d="M60.5938 183C64.4219 183 67.5938 179.883 67.5938 176C67.5938 172.172 64.4219 169 60.5938 169C56.7109 169 53.5938 172.172 53.5938 176C53.5938 179.883 56.7109 183 60.5938 183ZM63.3281 185.625H57.8047C52.5547 185.625 48.3438 189.891 48.3438 195.141C48.3438 196.18 49.1641 197 50.2031 197H70.9297C71.9688 197 72.8438 196.18 72.8438 195.141C72.8438 189.891 68.5781 185.625 63.3281 185.625Z" fill="#00D4FF"/>
<path d="M97.642 176.046H101.332V187.381C101.332 188.654 101.028 189.767 100.42 190.722C99.8182 191.676 98.9744 192.421 97.8892 192.955C96.804 193.483 95.5398 193.747 94.0966 193.747C92.6477 193.747 91.3807 193.483 90.2955 192.955C89.2102 192.421 88.3665 191.676 87.7642 190.722C87.1619 189.767 86.8608 188.654 86.8608 187.381V176.046H90.5511V187.065C90.5511 187.73 90.696 188.321 90.9858 188.838C91.2813 189.355 91.696 189.761 92.2301 190.057C92.7642 190.352 93.3864 190.5 94.0966 190.5C94.8125 190.5 95.4347 190.352 95.9631 190.057C96.4972 189.761 96.9091 189.355 97.1989 188.838C97.4943 188.321 97.642 187.73 97.642 187.065V176.046ZM115.192 184.142L111.869 184.347C111.812 184.063 111.69 183.807 111.502 183.58C111.315 183.347 111.067 183.162 110.761 183.026C110.46 182.884 110.099 182.813 109.678 182.813C109.116 182.813 108.641 182.932 108.255 183.171C107.869 183.404 107.675 183.716 107.675 184.108C107.675 184.421 107.8 184.685 108.05 184.901C108.3 185.117 108.729 185.29 109.337 185.421L111.707 185.898C112.979 186.159 113.928 186.58 114.553 187.159C115.178 187.739 115.491 188.5 115.491 189.443C115.491 190.301 115.238 191.054 114.732 191.702C114.232 192.35 113.545 192.855 112.67 193.219C111.8 193.577 110.798 193.756 109.661 193.756C107.928 193.756 106.548 193.395 105.519 192.673C104.496 191.946 103.897 190.958 103.721 189.708L107.292 189.52C107.4 190.048 107.661 190.452 108.076 190.73C108.491 191.003 109.022 191.139 109.67 191.139C110.306 191.139 110.817 191.017 111.204 190.773C111.596 190.523 111.795 190.202 111.8 189.81C111.795 189.48 111.656 189.21 111.383 189C111.11 188.784 110.69 188.619 110.121 188.506L107.854 188.054C106.576 187.798 105.624 187.355 104.999 186.725C104.38 186.094 104.07 185.29 104.07 184.313C104.07 183.472 104.298 182.747 104.752 182.139C105.212 181.531 105.857 181.063 106.687 180.733C107.522 180.404 108.499 180.239 109.619 180.239C111.272 180.239 112.573 180.588 113.522 181.287C114.477 181.986 115.033 182.938 115.192 184.142ZM123.743 193.756C122.396 193.756 121.237 193.483 120.266 192.938C119.3 192.386 118.555 191.608 118.033 190.602C117.51 189.591 117.249 188.395 117.249 187.014C117.249 185.668 117.51 184.486 118.033 183.469C118.555 182.452 119.291 181.659 120.24 181.091C121.195 180.523 122.314 180.239 123.598 180.239C124.462 180.239 125.266 180.378 126.01 180.656C126.76 180.929 127.413 181.341 127.97 181.892C128.533 182.443 128.97 183.136 129.283 183.972C129.595 184.801 129.751 185.773 129.751 186.886V187.884H118.697V185.634H126.334C126.334 185.111 126.22 184.648 125.993 184.244C125.766 183.841 125.45 183.526 125.047 183.298C124.649 183.065 124.186 182.949 123.658 182.949C123.107 182.949 122.618 183.077 122.192 183.333C121.771 183.583 121.442 183.921 121.203 184.347C120.964 184.767 120.842 185.236 120.837 185.753V187.892C120.837 188.54 120.956 189.1 121.195 189.571C121.439 190.043 121.783 190.406 122.226 190.662C122.669 190.918 123.195 191.046 123.803 191.046C124.206 191.046 124.575 190.989 124.911 190.875C125.246 190.761 125.533 190.591 125.771 190.364C126.01 190.136 126.192 189.858 126.317 189.529L129.675 189.75C129.504 190.557 129.155 191.261 128.626 191.864C128.104 192.46 127.428 192.926 126.598 193.261C125.774 193.591 124.822 193.756 123.743 193.756ZM132.121 193.5V180.409H135.641V182.693H135.777C136.016 181.881 136.416 181.267 136.979 180.852C137.541 180.432 138.189 180.222 138.922 180.222C139.104 180.222 139.3 180.233 139.51 180.256C139.72 180.279 139.905 180.31 140.064 180.35V183.571C139.893 183.52 139.658 183.475 139.357 183.435C139.055 183.395 138.78 183.375 138.53 183.375C137.996 183.375 137.518 183.492 137.098 183.725C136.683 183.952 136.354 184.27 136.109 184.679C135.871 185.088 135.751 185.56 135.751 186.094V193.5H132.121ZM147.462 193.5V190.841L153.675 185.088C154.203 184.577 154.646 184.117 155.004 183.708C155.368 183.298 155.643 182.898 155.831 182.506C156.018 182.108 156.112 181.679 156.112 181.219C156.112 180.708 155.996 180.267 155.763 179.898C155.53 179.523 155.212 179.236 154.808 179.037C154.405 178.833 153.947 178.73 153.436 178.73C152.902 178.73 152.436 178.838 152.038 179.054C151.641 179.27 151.334 179.58 151.118 179.983C150.902 180.386 150.794 180.867 150.794 181.423H147.291C147.291 180.281 147.55 179.29 148.067 178.449C148.584 177.608 149.308 176.958 150.24 176.497C151.172 176.037 152.246 175.807 153.462 175.807C154.712 175.807 155.8 176.029 156.726 176.472C157.658 176.909 158.382 177.517 158.899 178.296C159.416 179.074 159.675 179.966 159.675 180.972C159.675 181.631 159.544 182.281 159.283 182.923C159.027 183.565 158.57 184.279 157.911 185.063C157.251 185.841 156.322 186.776 155.124 187.867L152.575 190.364V190.483H159.905V193.5H147.462Z" fill="white"/>
<path d="M50.9837 221.5H48.6768L52.1918 211.318H54.9659L58.4759 221.5H56.169L53.6186 213.645H53.5391L50.9837 221.5ZM50.8395 217.498H56.2884V219.178H50.8395V217.498ZM59.6616 221.5V213.864H61.7148V215.196H61.7944C61.9336 214.722 62.1673 214.364 62.4954 214.122C62.8235 213.877 63.2013 213.754 63.6289 213.754C63.735 213.754 63.8493 213.761 63.9719 213.774C64.0946 213.788 64.2023 213.806 64.2951 213.829V215.708C64.1957 215.678 64.0581 215.652 63.8825 215.629C63.7068 215.605 63.546 215.594 63.4002 215.594C63.0887 215.594 62.8103 215.662 62.565 215.798C62.323 215.93 62.1308 216.116 61.9883 216.355C61.8491 216.593 61.7795 216.868 61.7795 217.18V221.5H59.6616ZM68.475 224.523C67.7889 224.523 67.2006 224.428 66.71 224.239C66.2228 224.054 65.835 223.8 65.5467 223.479C65.2583 223.157 65.0711 222.796 64.9849 222.395L66.9437 222.132C67.0034 222.284 67.0978 222.426 67.2271 222.559C67.3564 222.692 67.527 222.798 67.7392 222.877C67.9546 222.96 68.2164 223.002 68.5247 223.002C68.9854 223.002 69.3649 222.889 69.6632 222.663C69.9648 222.441 70.1156 222.069 70.1156 221.545V220.148H70.0261C69.9333 220.36 69.7941 220.56 69.6085 220.749C69.4229 220.938 69.1842 221.092 68.8926 221.212C68.6009 221.331 68.2529 221.391 67.8485 221.391C67.2752 221.391 66.7531 221.258 66.2825 220.993C65.8152 220.725 65.4423 220.315 65.1639 219.765C64.8888 219.212 64.7512 218.512 64.7512 217.667C64.7512 216.802 64.8921 216.079 65.1738 215.499C65.4556 214.919 65.8301 214.485 66.2974 214.197C66.7681 213.909 67.2834 213.764 67.8436 213.764C68.2711 213.764 68.6291 213.837 68.9174 213.983C69.2058 214.126 69.4378 214.305 69.6135 214.52C69.7924 214.732 69.93 214.941 70.0261 215.146H70.1056V213.864H72.2086V221.575C72.2086 222.224 72.0495 222.768 71.7314 223.205C71.4132 223.643 70.9724 223.971 70.4089 224.19C69.8488 224.412 69.2041 224.523 68.475 224.523ZM68.5197 219.8C68.8611 219.8 69.1494 219.715 69.3848 219.546C69.6234 219.374 69.8057 219.129 69.9316 218.81C70.0609 218.489 70.1255 218.105 70.1255 217.657C70.1255 217.21 70.0626 216.822 69.9366 216.494C69.8107 216.162 69.6284 215.905 69.3897 215.723C69.1511 215.541 68.8611 215.45 68.5197 215.45C68.1717 215.45 67.8784 215.544 67.6397 215.733C67.4011 215.919 67.2205 216.177 67.0978 216.509C66.9752 216.84 66.9139 217.223 66.9139 217.657C66.9139 218.098 66.9752 218.479 67.0978 218.801C67.2238 219.119 67.4044 219.366 67.6397 219.541C67.8784 219.714 68.1717 219.8 68.5197 219.8ZM77.3741 221.649C76.5886 221.649 75.9125 221.49 75.3457 221.172C74.7823 220.851 74.3481 220.396 74.0431 219.81C73.7382 219.22 73.5858 218.522 73.5858 217.717C73.5858 216.931 73.7382 216.242 74.0431 215.649C74.3481 215.055 74.7773 214.593 75.3308 214.261C75.8876 213.93 76.5405 213.764 77.2896 213.764C77.7934 213.764 78.2624 213.846 78.6966 214.008C79.1341 214.167 79.5152 214.407 79.84 214.729C80.1681 215.05 80.4234 215.455 80.6056 215.942C80.7879 216.426 80.8791 216.993 80.8791 217.642V218.224H74.4309V216.911H78.8855C78.8855 216.606 78.8192 216.336 78.6866 216.101C78.554 215.866 78.3701 215.682 78.1348 215.549C77.9028 215.413 77.6326 215.345 77.3244 215.345C77.0029 215.345 76.7179 215.42 76.4693 215.569C76.224 215.715 76.0318 215.912 75.8926 216.161C75.7534 216.406 75.6821 216.679 75.6788 216.981V218.229C75.6788 218.607 75.7484 218.933 75.8876 219.208C76.0301 219.483 76.2306 219.695 76.4892 219.845C76.7477 219.994 77.0543 220.068 77.4089 220.068C77.6442 220.068 77.8597 220.035 78.0552 219.969C78.2508 219.903 78.4181 219.803 78.5574 219.671C78.6966 219.538 78.8026 219.376 78.8755 219.183L80.8343 219.313C80.7349 219.783 80.5311 220.194 80.2228 220.546C79.9179 220.894 79.5235 221.165 79.0396 221.361C78.559 221.553 78.0038 221.649 77.3741 221.649ZM84.3791 217.085V221.5H82.2612V213.864H84.2797V215.211H84.3691C84.5382 214.767 84.8216 214.416 85.2193 214.157C85.617 213.895 86.0993 213.764 86.666 213.764C87.1963 213.764 87.6587 213.88 88.0531 214.112C88.4475 214.344 88.7541 214.676 88.9728 215.107C89.1916 215.534 89.301 216.045 89.301 216.638V221.5H87.1831V217.016C87.1864 216.548 87.0671 216.184 86.8251 215.922C86.5832 215.657 86.2501 215.524 85.8258 215.524C85.5408 215.524 85.2889 215.586 85.0701 215.708C84.8547 215.831 84.6857 216.01 84.563 216.245C84.4437 216.477 84.3824 216.757 84.3791 217.085ZM95.032 213.864V215.455H90.4332V213.864H95.032ZM91.4773 212.034H93.5952V219.154C93.5952 219.349 93.625 219.502 93.6847 219.611C93.7443 219.717 93.8272 219.792 93.9332 219.835C94.0426 219.878 94.1686 219.899 94.3111 219.899C94.4105 219.899 94.5099 219.891 94.6094 219.874C94.7088 219.855 94.785 219.84 94.8381 219.83L95.1712 221.406C95.0651 221.439 94.916 221.477 94.7237 221.52C94.5315 221.566 94.2978 221.595 94.0227 221.605C93.5123 221.624 93.0649 221.556 92.6804 221.401C92.2992 221.245 92.0026 221.003 91.7905 220.675C91.5784 220.347 91.474 219.932 91.4773 219.432V212.034ZM96.4116 221.5V213.864H98.5295V221.5H96.4116ZM97.4755 212.879C97.1606 212.879 96.8905 212.775 96.6651 212.566C96.4431 212.354 96.332 212.101 96.332 211.806C96.332 211.514 96.4431 211.264 96.6651 211.055C96.8905 210.843 97.1606 210.737 97.4755 210.737C97.7904 210.737 98.0588 210.843 98.2809 211.055C98.5063 211.264 98.619 211.514 98.619 211.806C98.619 212.101 98.5063 212.354 98.2809 212.566C98.0588 212.775 97.7904 212.879 97.4755 212.879ZM102.344 217.085V221.5H100.226V213.864H102.244V215.211H102.334C102.503 214.767 102.786 214.416 103.184 214.157C103.582 213.895 104.064 213.764 104.631 213.764C105.161 213.764 105.624 213.88 106.018 214.112C106.412 214.344 106.719 214.676 106.938 215.107C107.156 215.534 107.266 216.045 107.266 216.638V221.5H105.148V217.016C105.151 216.548 105.032 216.184 104.79 215.922C104.548 215.657 104.215 215.524 103.791 215.524C103.506 215.524 103.254 215.586 103.035 215.708C102.82 215.831 102.651 216.01 102.528 216.245C102.409 216.477 102.347 216.757 102.344 217.085ZM111.113 221.644C110.625 221.644 110.191 221.56 109.81 221.391C109.429 221.218 109.127 220.965 108.905 220.63C108.686 220.292 108.577 219.871 108.577 219.367C108.577 218.943 108.655 218.587 108.811 218.298C108.967 218.01 109.179 217.778 109.447 217.602C109.716 217.427 110.02 217.294 110.362 217.205C110.707 217.115 111.068 217.052 111.446 217.016C111.89 216.969 112.248 216.926 112.52 216.886C112.791 216.843 112.989 216.78 113.111 216.698C113.234 216.615 113.295 216.492 113.295 216.33V216.3C113.295 215.985 113.196 215.741 112.997 215.569C112.801 215.397 112.523 215.31 112.162 215.31C111.78 215.31 111.477 215.395 111.252 215.564C111.026 215.73 110.877 215.939 110.804 216.19L108.846 216.031C108.945 215.567 109.141 215.166 109.432 214.828C109.724 214.487 110.1 214.225 110.561 214.043C111.025 213.857 111.562 213.764 112.172 213.764C112.596 213.764 113.002 213.814 113.39 213.913C113.781 214.013 114.127 214.167 114.429 214.376C114.734 214.585 114.974 214.853 115.15 215.181C115.325 215.506 115.413 215.895 115.413 216.35V221.5H113.404V220.441H113.345C113.222 220.68 113.058 220.89 112.853 221.073C112.647 221.252 112.4 221.392 112.112 221.495C111.824 221.595 111.49 221.644 111.113 221.644ZM111.719 220.183C112.031 220.183 112.306 220.121 112.544 219.999C112.783 219.873 112.97 219.704 113.106 219.492C113.242 219.279 113.31 219.039 113.31 218.771V217.96C113.244 218.003 113.153 218.043 113.037 218.08C112.924 218.113 112.796 218.144 112.654 218.174C112.511 218.201 112.369 218.226 112.226 218.249C112.084 218.269 111.954 218.287 111.838 218.303C111.59 218.34 111.373 218.398 111.187 218.477C111.002 218.557 110.857 218.665 110.755 218.801C110.652 218.933 110.6 219.099 110.6 219.298C110.6 219.586 110.705 219.806 110.914 219.959C111.126 220.108 111.394 220.183 111.719 220.183ZM119.358 220.108L119.303 220.655C119.26 221.092 119.177 221.528 119.055 221.962C118.935 222.4 118.809 222.796 118.677 223.151C118.548 223.505 118.443 223.784 118.364 223.986H116.991C117.041 223.79 117.109 223.517 117.195 223.166C117.281 222.818 117.363 222.426 117.439 221.992C117.515 221.558 117.563 221.116 117.583 220.665L117.608 220.108H119.358ZM129.619 214.247C129.58 213.846 129.409 213.534 129.107 213.312C128.806 213.09 128.396 212.979 127.879 212.979C127.528 212.979 127.231 213.029 126.989 213.128C126.747 213.224 126.562 213.358 126.433 213.531C126.307 213.703 126.244 213.899 126.244 214.117C126.237 214.3 126.275 214.459 126.358 214.595C126.444 214.73 126.562 214.848 126.711 214.948C126.86 215.044 127.032 215.128 127.228 215.201C127.424 215.271 127.632 215.33 127.854 215.38L128.769 215.599C129.213 215.698 129.621 215.831 129.992 215.997C130.363 216.162 130.685 216.366 130.957 216.608C131.228 216.85 131.439 217.135 131.588 217.463C131.741 217.791 131.818 218.167 131.822 218.592C131.818 219.215 131.659 219.755 131.344 220.212C131.033 220.667 130.582 221.02 129.992 221.271C129.406 221.52 128.698 221.644 127.869 221.644C127.047 221.644 126.331 221.518 125.722 221.266C125.115 221.015 124.641 220.642 124.3 220.148C123.962 219.651 123.784 219.036 123.768 218.303H125.851C125.874 218.645 125.972 218.93 126.144 219.159C126.32 219.384 126.554 219.555 126.845 219.671C127.14 219.783 127.473 219.84 127.844 219.84C128.209 219.84 128.526 219.787 128.794 219.681C129.066 219.574 129.276 219.427 129.425 219.238C129.575 219.049 129.649 218.832 129.649 218.587C129.649 218.358 129.581 218.166 129.445 218.01C129.313 217.854 129.117 217.722 128.859 217.612C128.603 217.503 128.29 217.404 127.919 217.314L126.81 217.036C125.952 216.827 125.274 216.5 124.777 216.056C124.28 215.612 124.033 215.014 124.036 214.261C124.033 213.645 124.197 213.106 124.528 212.646C124.863 212.185 125.322 211.825 125.906 211.567C126.489 211.308 127.152 211.179 127.894 211.179C128.65 211.179 129.309 211.308 129.873 211.567C130.44 211.825 130.88 212.185 131.195 212.646C131.51 213.106 131.673 213.64 131.683 214.247H129.619ZM136.68 221.649C135.908 221.649 135.24 221.485 134.677 221.157C134.117 220.826 133.684 220.365 133.379 219.775C133.074 219.182 132.922 218.494 132.922 217.712C132.922 216.923 133.074 216.234 133.379 215.644C133.684 215.05 134.117 214.59 134.677 214.261C135.24 213.93 135.908 213.764 136.68 213.764C137.452 213.764 138.119 213.93 138.679 214.261C139.242 214.59 139.676 215.05 139.981 215.644C140.286 216.234 140.439 216.923 140.439 217.712C140.439 218.494 140.286 219.182 139.981 219.775C139.676 220.365 139.242 220.826 138.679 221.157C138.119 221.485 137.452 221.649 136.68 221.649ZM136.69 220.009C137.041 220.009 137.335 219.909 137.57 219.71C137.805 219.508 137.983 219.233 138.102 218.885C138.225 218.537 138.286 218.141 138.286 217.697C138.286 217.253 138.225 216.857 138.102 216.509C137.983 216.161 137.805 215.886 137.57 215.683C137.335 215.481 137.041 215.38 136.69 215.38C136.336 215.38 136.037 215.481 135.795 215.683C135.557 215.886 135.376 216.161 135.253 216.509C135.134 216.857 135.074 217.253 135.074 217.697C135.074 218.141 135.134 218.537 135.253 218.885C135.376 219.233 135.557 219.508 135.795 219.71C136.037 219.909 136.336 220.009 136.69 220.009ZM146.713 218.249V213.864H148.831V221.5H146.797V220.113H146.718C146.546 220.56 146.259 220.92 145.858 221.192C145.46 221.464 144.974 221.6 144.401 221.6C143.891 221.6 143.442 221.484 143.054 221.252C142.666 221.02 142.363 220.69 142.144 220.262C141.929 219.835 141.819 219.323 141.816 218.726V213.864H143.934V218.348C143.937 218.799 144.058 219.155 144.297 219.417C144.535 219.679 144.855 219.81 145.256 219.81C145.511 219.81 145.75 219.752 145.972 219.636C146.194 219.516 146.373 219.341 146.509 219.109C146.648 218.877 146.716 218.59 146.713 218.249ZM154.587 213.864V215.455H149.988V213.864H154.587ZM151.032 212.034H153.15V219.154C153.15 219.349 153.18 219.502 153.239 219.611C153.299 219.717 153.382 219.792 153.488 219.835C153.597 219.878 153.723 219.899 153.866 219.899C153.965 219.899 154.065 219.891 154.164 219.874C154.263 219.855 154.34 219.84 154.393 219.83L154.726 221.406C154.62 221.439 154.471 221.477 154.278 221.52C154.086 221.566 153.853 221.595 153.577 221.605C153.067 221.624 152.62 221.556 152.235 221.401C151.854 221.245 151.557 221.003 151.345 220.675C151.133 220.347 151.029 219.932 151.032 219.432V212.034ZM158.248 217.085V221.5H156.13V211.318H158.189V215.211H158.278C158.45 214.76 158.729 214.407 159.113 214.152C159.498 213.894 159.98 213.764 160.56 213.764C161.09 213.764 161.553 213.88 161.947 214.112C162.345 214.341 162.653 214.671 162.872 215.102C163.094 215.529 163.203 216.041 163.2 216.638V221.5H161.082V217.016C161.085 216.545 160.966 216.179 160.724 215.917C160.485 215.655 160.151 215.524 159.72 215.524C159.431 215.524 159.176 215.586 158.954 215.708C158.735 215.831 158.563 216.01 158.437 216.245C158.315 216.477 158.252 216.757 158.248 217.085ZM169.902 221.5H167.595L171.11 211.318H173.884L177.394 221.5H175.087L172.537 213.645H172.457L169.902 221.5ZM169.757 217.498H175.206V219.178H169.757V217.498ZM178.58 221.5V213.864H180.598V215.211H180.688C180.847 214.764 181.112 214.411 181.483 214.152C181.854 213.894 182.298 213.764 182.815 213.764C183.339 213.764 183.785 213.895 184.153 214.157C184.521 214.416 184.766 214.767 184.888 215.211H184.968C185.124 214.774 185.406 214.424 185.813 214.162C186.224 213.897 186.71 213.764 187.27 213.764C187.982 213.764 188.561 213.991 189.005 214.445C189.452 214.896 189.676 215.536 189.676 216.364V221.5H187.563V216.782C187.563 216.358 187.451 216.04 187.225 215.828C187 215.615 186.718 215.509 186.38 215.509C185.996 215.509 185.696 215.632 185.48 215.877C185.265 216.119 185.157 216.439 185.157 216.837V221.5H183.104V216.737C183.104 216.363 182.996 216.065 182.781 215.842C182.568 215.62 182.288 215.509 181.94 215.509C181.705 215.509 181.493 215.569 181.304 215.688C181.118 215.804 180.971 215.968 180.862 216.181C180.752 216.389 180.697 216.635 180.697 216.916V221.5H178.58ZM194.829 221.649C194.044 221.649 193.368 221.49 192.801 221.172C192.237 220.851 191.803 220.396 191.498 219.81C191.193 219.22 191.041 218.522 191.041 217.717C191.041 216.931 191.193 216.242 191.498 215.649C191.803 215.055 192.232 214.593 192.786 214.261C193.343 213.93 193.996 213.764 194.745 213.764C195.248 213.764 195.717 213.846 196.152 214.008C196.589 214.167 196.97 214.407 197.295 214.729C197.623 215.05 197.878 215.455 198.061 215.942C198.243 216.426 198.334 216.993 198.334 217.642V218.224H191.886V216.911H196.341C196.341 216.606 196.274 216.336 196.142 216.101C196.009 215.866 195.825 215.682 195.59 215.549C195.358 215.413 195.088 215.345 194.779 215.345C194.458 215.345 194.173 215.42 193.924 215.569C193.679 215.715 193.487 215.912 193.348 216.161C193.208 216.406 193.137 216.679 193.134 216.981V218.229C193.134 218.607 193.203 218.933 193.343 219.208C193.485 219.483 193.686 219.695 193.944 219.845C194.203 219.994 194.509 220.068 194.864 220.068C195.099 220.068 195.315 220.035 195.51 219.969C195.706 219.903 195.873 219.803 196.012 219.671C196.152 219.538 196.258 219.376 196.331 219.183L198.289 219.313C198.19 219.783 197.986 220.194 197.678 220.546C197.373 220.894 196.979 221.165 196.495 221.361C196.014 221.553 195.459 221.649 194.829 221.649ZM199.716 221.5V213.864H201.77V215.196H201.849C201.988 214.722 202.222 214.364 202.55 214.122C202.878 213.877 203.256 213.754 203.684 213.754C203.79 213.754 203.904 213.761 204.027 213.774C204.149 213.788 204.257 213.806 204.35 213.829V215.708C204.25 215.678 204.113 215.652 203.937 215.629C203.761 215.605 203.601 215.594 203.455 215.594C203.143 215.594 202.865 215.662 202.62 215.798C202.378 215.93 202.185 216.116 202.043 216.355C201.904 216.593 201.834 216.868 201.834 217.18V221.5H199.716ZM205.445 221.5V213.864H207.563V221.5H205.445ZM206.509 212.879C206.194 212.879 205.924 212.775 205.698 212.566C205.476 212.354 205.365 212.101 205.365 211.806C205.365 211.514 205.476 211.264 205.698 211.055C205.924 210.843 206.194 210.737 206.509 210.737C206.824 210.737 207.092 210.843 207.314 211.055C207.539 211.264 207.652 211.514 207.652 211.806C207.652 212.101 207.539 212.354 207.314 212.566C207.092 212.775 206.824 212.879 206.509 212.879ZM212.71 221.649C211.927 221.649 211.254 221.484 210.691 221.152C210.131 220.817 209.7 220.353 209.398 219.76C209.1 219.167 208.951 218.484 208.951 217.712C208.951 216.93 209.102 216.243 209.403 215.654C209.708 215.06 210.141 214.598 210.701 214.266C211.261 213.932 211.927 213.764 212.7 213.764C213.366 213.764 213.949 213.885 214.45 214.127C214.95 214.369 215.346 214.709 215.638 215.146C215.929 215.584 216.09 216.098 216.12 216.688H214.121C214.065 216.306 213.916 216 213.674 215.768C213.435 215.533 213.122 215.415 212.734 215.415C212.406 215.415 212.12 215.504 211.874 215.683C211.632 215.859 211.443 216.116 211.308 216.454C211.172 216.792 211.104 217.201 211.104 217.682C211.104 218.169 211.17 218.583 211.303 218.925C211.438 219.266 211.629 219.526 211.874 219.705C212.12 219.884 212.406 219.974 212.734 219.974C212.976 219.974 213.193 219.924 213.386 219.825C213.581 219.725 213.742 219.581 213.868 219.392C213.997 219.2 214.082 218.97 214.121 218.701H216.12C216.087 219.284 215.928 219.798 215.643 220.242C215.361 220.683 214.972 221.028 214.474 221.276C213.977 221.525 213.389 221.649 212.71 221.649ZM219.654 221.644C219.166 221.644 218.732 221.56 218.351 221.391C217.97 221.218 217.668 220.965 217.446 220.63C217.227 220.292 217.118 219.871 217.118 219.367C217.118 218.943 217.196 218.587 217.352 218.298C217.508 218.01 217.72 217.778 217.988 217.602C218.257 217.427 218.561 217.294 218.903 217.205C219.248 217.115 219.609 217.052 219.987 217.016C220.431 216.969 220.789 216.926 221.061 216.886C221.332 216.843 221.53 216.78 221.652 216.698C221.775 216.615 221.836 216.492 221.836 216.33V216.3C221.836 215.985 221.737 215.741 221.538 215.569C221.342 215.397 221.064 215.31 220.703 215.31C220.321 215.31 220.018 215.395 219.793 215.564C219.567 215.73 219.418 215.939 219.345 216.19L217.387 216.031C217.486 215.567 217.682 215.166 217.973 214.828C218.265 214.487 218.641 214.225 219.102 214.043C219.566 213.857 220.103 213.764 220.713 213.764C221.137 213.764 221.543 213.814 221.931 213.913C222.322 214.013 222.668 214.167 222.97 214.376C223.275 214.585 223.515 214.853 223.691 215.181C223.866 215.506 223.954 215.895 223.954 216.35V221.5H221.945V220.441H221.886C221.763 220.68 221.599 220.89 221.394 221.073C221.188 221.252 220.941 221.392 220.653 221.495C220.365 221.595 220.031 221.644 219.654 221.644ZM220.26 220.183C220.572 220.183 220.847 220.121 221.085 219.999C221.324 219.873 221.511 219.704 221.647 219.492C221.783 219.279 221.851 219.039 221.851 218.771V217.96C221.785 218.003 221.694 218.043 221.578 218.08C221.465 218.113 221.337 218.144 221.195 218.174C221.052 218.201 220.91 218.226 220.767 218.249C220.625 218.269 220.495 218.287 220.379 218.303C220.131 218.34 219.914 218.398 219.728 218.477C219.543 218.557 219.398 218.665 219.296 218.801C219.193 218.933 219.142 219.099 219.142 219.298C219.142 219.586 219.246 219.806 219.455 219.959C219.667 220.108 219.935 220.183 220.26 220.183Z" fill="white" fill-opacity="0.6"/>
<rect x="248.344" y="168.5" width="68" height="27" rx="6" fill="#00D4FF" fill-opacity="0.2"/>
<path d="M259.205 186.5V177.773H264.881V179.098H260.786V181.467H264.587V182.793H260.786V185.175H264.915V186.5H259.205ZM267.687 179.955L269.008 182.371L270.35 179.955H271.982L270.009 183.227L272.016 186.5H270.393L269.008 184.144L267.636 186.5H265.999L267.994 183.227L266.05 179.955H267.687ZM276.444 179.955V181.148H272.681V179.955H276.444ZM273.61 178.386H275.153V184.531C275.153 184.739 275.184 184.898 275.246 185.009C275.312 185.117 275.397 185.19 275.502 185.23C275.607 185.27 275.724 185.29 275.852 185.29C275.948 185.29 276.036 185.283 276.116 185.269C276.198 185.254 276.261 185.242 276.303 185.23L276.563 186.436C276.481 186.465 276.363 186.496 276.21 186.53C276.059 186.564 275.874 186.584 275.656 186.59C275.269 186.601 274.921 186.543 274.612 186.415C274.302 186.284 274.056 186.083 273.874 185.81C273.695 185.537 273.607 185.196 273.61 184.787V178.386ZM280.561 186.628C279.905 186.628 279.338 186.492 278.861 186.219C278.387 185.943 278.022 185.554 277.766 185.051C277.51 184.546 277.382 183.95 277.382 183.266C277.382 182.592 277.51 182.002 277.766 181.493C278.025 180.982 278.385 180.584 278.848 180.3C279.311 180.013 279.855 179.869 280.48 179.869C280.884 179.869 281.265 179.935 281.623 180.065C281.983 180.193 282.301 180.392 282.577 180.662C282.855 180.932 283.074 181.276 283.233 181.693C283.392 182.108 283.472 182.602 283.472 183.176V183.649H278.107V182.609H281.993C281.99 182.314 281.926 182.051 281.801 181.821C281.676 181.588 281.502 181.405 281.277 181.271C281.056 181.138 280.797 181.071 280.502 181.071C280.186 181.071 279.909 181.148 279.671 181.301C279.432 181.452 279.246 181.651 279.113 181.898C278.982 182.142 278.915 182.411 278.912 182.703V183.611C278.912 183.992 278.982 184.318 279.121 184.591C279.26 184.861 279.455 185.068 279.705 185.213C279.955 185.355 280.248 185.426 280.583 185.426C280.807 185.426 281.01 185.395 281.192 185.333C281.374 185.267 281.532 185.172 281.665 185.047C281.799 184.922 281.9 184.767 281.968 184.583L283.408 184.744C283.317 185.125 283.144 185.458 282.888 185.742C282.635 186.023 282.311 186.242 281.917 186.398C281.522 186.551 281.07 186.628 280.561 186.628ZM284.777 186.5V179.955H286.273V181.046H286.341C286.46 180.668 286.665 180.377 286.955 180.172C287.247 179.965 287.581 179.861 287.956 179.861C288.041 179.861 288.136 179.865 288.241 179.874C288.349 179.879 288.439 179.889 288.51 179.904V181.323C288.445 181.3 288.341 181.28 288.199 181.263C288.06 181.243 287.925 181.233 287.794 181.233C287.513 181.233 287.26 181.294 287.036 181.416C286.814 181.536 286.639 181.702 286.511 181.915C286.384 182.128 286.32 182.374 286.32 182.652V186.5H284.777ZM291.077 182.665V186.5H289.535V179.955H291.009V181.067H291.086C291.237 180.7 291.477 180.409 291.806 180.193C292.138 179.977 292.549 179.869 293.038 179.869C293.489 179.869 293.883 179.966 294.218 180.159C294.556 180.352 294.817 180.632 295.002 180.999C295.19 181.365 295.282 181.81 295.279 182.333V186.5H293.737V182.571C293.737 182.134 293.623 181.791 293.396 181.544C293.171 181.297 292.86 181.173 292.462 181.173C292.192 181.173 291.952 181.233 291.742 181.352C291.535 181.469 291.371 181.638 291.252 181.859C291.136 182.081 291.077 182.35 291.077 182.665ZM298.731 186.632C298.316 186.632 297.942 186.558 297.61 186.411C297.281 186.26 297.019 186.038 296.826 185.746C296.636 185.453 296.54 185.092 296.54 184.663C296.54 184.294 296.609 183.989 296.745 183.747C296.881 183.506 297.067 183.313 297.303 183.168C297.539 183.023 297.805 182.913 298.1 182.84C298.398 182.763 298.707 182.708 299.025 182.673C299.408 182.634 299.719 182.598 299.958 182.567C300.197 182.533 300.37 182.482 300.478 182.413C300.589 182.342 300.644 182.233 300.644 182.085V182.06C300.644 181.739 300.549 181.49 300.359 181.314C300.168 181.138 299.894 181.05 299.536 181.05C299.158 181.05 298.859 181.132 298.637 181.297C298.418 181.462 298.271 181.656 298.194 181.881L296.754 181.676C296.867 181.279 297.055 180.946 297.316 180.679C297.577 180.409 297.897 180.208 298.275 180.074C298.653 179.938 299.07 179.869 299.528 179.869C299.843 179.869 300.157 179.906 300.469 179.98C300.782 180.054 301.067 180.176 301.326 180.347C301.585 180.514 301.792 180.743 301.948 181.033C302.107 181.323 302.187 181.685 302.187 182.119V186.5H300.704V185.601H300.653C300.559 185.783 300.427 185.953 300.256 186.112C300.089 186.269 299.877 186.395 299.621 186.492C299.369 186.585 299.072 186.632 298.731 186.632ZM299.131 185.499C299.441 185.499 299.71 185.438 299.937 185.315C300.164 185.19 300.339 185.026 300.461 184.821C300.586 184.617 300.648 184.394 300.648 184.152V183.381C300.6 183.421 300.518 183.458 300.401 183.492C300.288 183.526 300.16 183.556 300.018 183.581C299.876 183.607 299.735 183.629 299.596 183.649C299.457 183.669 299.336 183.686 299.234 183.7C299.004 183.732 298.798 183.783 298.616 183.854C298.434 183.925 298.29 184.024 298.185 184.152C298.08 184.277 298.028 184.439 298.028 184.638C298.028 184.922 298.131 185.136 298.339 185.281C298.546 185.426 298.81 185.499 299.131 185.499ZM305.281 177.773V186.5H303.738V177.773H305.281Z" fill="#00D4FF"/>
<rect x="259.344" y="203.5" width="57" height="27" rx="6" fill="#0FD38D"/>
<path d="M271.325 221.5H269.638L272.71 212.773H274.662L277.739 221.5H276.051L273.72 214.563H273.652L271.325 221.5ZM271.381 218.078H275.983V219.348H271.381V218.078ZM281.476 221.628C280.822 221.628 280.261 221.484 279.793 221.198C279.327 220.911 278.967 220.514 278.714 220.009C278.464 219.5 278.339 218.915 278.339 218.253C278.339 217.588 278.467 217.002 278.723 216.493C278.979 215.982 279.339 215.584 279.805 215.3C280.274 215.013 280.828 214.869 281.467 214.869C281.999 214.869 282.469 214.967 282.878 215.163C283.29 215.357 283.618 215.631 283.862 215.986C284.107 216.338 284.246 216.75 284.28 217.222H282.805C282.746 216.906 282.604 216.644 282.379 216.433C282.158 216.22 281.861 216.114 281.489 216.114C281.173 216.114 280.896 216.199 280.658 216.369C280.419 216.537 280.233 216.779 280.099 217.094C279.969 217.409 279.903 217.787 279.903 218.227C279.903 218.673 279.969 219.057 280.099 219.378C280.23 219.696 280.413 219.942 280.649 220.115C280.888 220.286 281.168 220.371 281.489 220.371C281.716 220.371 281.919 220.328 282.098 220.243C282.28 220.155 282.432 220.029 282.554 219.864C282.676 219.699 282.76 219.499 282.805 219.263H284.28C284.243 219.726 284.107 220.136 283.871 220.494C283.635 220.85 283.314 221.128 282.908 221.33C282.501 221.529 282.024 221.628 281.476 221.628ZM288.815 214.955V216.148H285.052V214.955H288.815ZM285.981 213.386H287.524V219.531C287.524 219.739 287.555 219.898 287.618 220.009C287.683 220.117 287.768 220.19 287.873 220.23C287.978 220.27 288.095 220.29 288.223 220.29C288.319 220.29 288.407 220.283 288.487 220.269C288.569 220.254 288.632 220.242 288.674 220.23L288.934 221.436C288.852 221.465 288.734 221.496 288.581 221.53C288.43 221.564 288.245 221.584 288.027 221.59C287.64 221.601 287.292 221.543 286.983 221.415C286.673 221.284 286.427 221.083 286.245 220.81C286.066 220.537 285.978 220.196 285.981 219.787V213.386ZM290.105 221.5V214.955H291.648V221.5H290.105ZM290.881 214.026C290.636 214.026 290.426 213.945 290.25 213.783C290.074 213.618 289.986 213.421 289.986 213.19C289.986 212.958 290.074 212.76 290.25 212.598C290.426 212.433 290.636 212.351 290.881 212.351C291.128 212.351 291.338 212.433 291.511 212.598C291.688 212.76 291.776 212.958 291.776 213.19C291.776 213.421 291.688 213.618 291.511 213.783C291.338 213.945 291.128 214.026 290.881 214.026ZM299.081 214.955L296.75 221.5H295.045L292.714 214.955H294.359L295.863 219.817H295.931L297.44 214.955H299.081ZM302.823 221.628C302.167 221.628 301.6 221.492 301.123 221.219C300.648 220.943 300.283 220.554 300.028 220.051C299.772 219.546 299.644 218.95 299.644 218.266C299.644 217.592 299.772 217.002 300.028 216.493C300.286 215.982 300.647 215.584 301.11 215.3C301.573 215.013 302.117 214.869 302.742 214.869C303.146 214.869 303.526 214.935 303.884 215.065C304.245 215.193 304.563 215.392 304.839 215.662C305.117 215.932 305.336 216.276 305.495 216.693C305.654 217.108 305.734 217.602 305.734 218.176V218.649H300.369V217.609H304.255C304.252 217.314 304.188 217.051 304.063 216.821C303.938 216.588 303.763 216.405 303.539 216.271C303.317 216.138 303.059 216.071 302.763 216.071C302.448 216.071 302.171 216.148 301.933 216.301C301.694 216.452 301.508 216.651 301.374 216.898C301.244 217.142 301.177 217.411 301.174 217.703V218.611C301.174 218.992 301.244 219.318 301.383 219.591C301.522 219.861 301.717 220.068 301.967 220.213C302.217 220.355 302.509 220.426 302.844 220.426C303.069 220.426 303.272 220.395 303.454 220.333C303.636 220.267 303.793 220.172 303.927 220.047C304.06 219.922 304.161 219.767 304.229 219.583L305.67 219.744C305.579 220.125 305.406 220.458 305.15 220.742C304.897 221.023 304.573 221.242 304.178 221.398C303.783 221.551 303.332 221.628 302.823 221.628Z" fill="#0D2F4F"/>
</g>
</g>
<defs>
<filter id="filter0_d_360_22294" x="0.34375" y="0.5" width="364" height="282" filterUnits="userSpaceOnUse" color-interpolation-filters="sRGB">
<feFlood flood-opacity="0" result="BackgroundImageFix"/>
<feColorMatrix in="SourceAlpha" type="matrix" values="0 0 0 0 0 0 0 0 0 0 0 0 0 0 0 0 0 0 127 0" result="hardAlpha"/>
<feOffset dy="4"/>
<feGaussianBlur stdDeviation="16"/>
<feColorMatrix type="matrix" values="0 0 0 0 0.121569 0 0 0 0 0.121569 0 0 0 0 0.156863 0 0 0 0.15 0"/>
<feBlend mode="normal" in2="BackgroundImageFix" result="effect1_dropShadow_360_22294"/>
<feBlend mode="normal" in="SourceGraphic" in2="effect1_dropShadow_360_22294" result="shape"/>
</filter>
<filter id="filter1_d_360_22294" x="8.34375" y="8.5" width="348" height="142" filterUnits="userSpaceOnUse" color-interpolation-filters="sRGB">
<feFlood flood-opacity="0" result="BackgroundImageFix"/>
<feColorMatrix in="SourceAlpha" type="matrix" values="0 0 0 0 0 0 0 0 0 0 0 0 0 0 0 0 0 0 127 0" result="hardAlpha"/>
<feOffset dy="4"/>
<feGaussianBlur stdDeviation="12"/>
<feColorMatrix type="matrix" values="0 0 0 0 0.0235294 0 0 0 0 0.0941176 0 0 0 0 0.172549 0 0 0 0.4 0"/>
<feBlend mode="normal" in2="BackgroundImageFix" result="effect1_dropShadow_360_22294"/>
<feBlend mode="normal" in="SourceGraphic" in2="effect1_dropShadow_360_22294" result="shape"/>
</filter>
<filter id="filter2_d_360_22294" x="8.34375" y="132.5" width="348" height="142" filterUnits="userSpaceOnUse" color-interpolation-filters="sRGB">
<feFlood flood-opacity="0" result="BackgroundImageFix"/>
<feColorMatrix in="SourceAlpha" type="matrix" values="0 0 0 0 0 0 0 0 0 0 0 0 0 0 0 0 0 0 127 0" result="hardAlpha"/>
<feOffset dy="4"/>
<feGaussianBlur stdDeviation="12"/>
<feColorMatrix type="matrix" values="0 0 0 0 0.0235294 0 0 0 0 0.0941176 0 0 0 0 0.172549 0 0 0 0.4 0"/>
<feBlend mode="normal" in2="BackgroundImageFix" result="effect1_dropShadow_360_22294"/>
<feBlend mode="normal" in="SourceGraphic" in2="effect1_dropShadow_360_22294" result="shape"/>
</filter>
</defs>
</svg>
