<svg width="368" height="292" viewBox="0 0 368 292" fill="none" xmlns="http://www.w3.org/2000/svg">
<g filter="url(#filter0_d_360_22143)">
<rect x="24.3438" y="112.885" width="249.571" height="150.118" rx="15.0118" fill="#0D2F4F"/>
<path d="M54.2633 220.342C52.4161 220.342 50.7729 220.042 49.3335 219.442C47.9022 218.834 46.7787 218.007 45.9631 216.959C45.1475 215.912 44.7396 214.724 44.7396 213.397C44.7396 212.373 44.9715 211.434 45.4353 210.578C45.9071 209.715 46.5468 208.999 47.3544 208.431C48.1621 207.855 49.0657 207.488 50.0652 207.328V207.16C48.7538 206.896 47.6903 206.26 46.8747 205.253C46.059 204.237 45.6512 203.058 45.6512 201.714C45.6512 200.443 46.0231 199.311 46.7667 198.32C47.5104 197.32 48.5299 196.537 49.8253 195.969C51.1287 195.393 52.608 195.105 54.2633 195.105C55.9185 195.105 57.3938 195.393 58.6892 195.969C59.9926 196.545 61.0162 197.332 61.7598 198.332C62.5035 199.323 62.8793 200.451 62.8873 201.714C62.8793 203.066 62.4635 204.245 61.6399 205.253C60.8163 206.26 59.7607 206.896 58.4733 207.16V207.328C59.4569 207.488 60.3485 207.855 61.1481 208.431C61.9557 208.999 62.5954 209.715 63.0672 210.578C63.547 211.434 63.7909 212.373 63.7989 213.397C63.7909 214.724 63.3791 215.912 62.5635 216.959C61.7478 218.007 60.6203 218.834 59.181 219.442C57.7497 220.042 56.1104 220.342 54.2633 220.342ZM54.2633 216.527C55.0869 216.527 55.8066 216.38 56.4223 216.084C57.038 215.78 57.5178 215.364 57.8616 214.836C58.2135 214.3 58.3894 213.685 58.3894 212.989C58.3894 212.277 58.2095 211.65 57.8496 211.106C57.4898 210.554 57.002 210.122 56.3863 209.811C55.7706 209.491 55.0629 209.331 54.2633 209.331C53.4716 209.331 52.764 209.491 52.1402 209.811C51.5165 210.122 51.0248 210.554 50.6649 211.106C50.3131 211.65 50.1372 212.277 50.1372 212.989C50.1372 213.685 50.3091 214.3 50.6529 214.836C50.9968 215.364 51.4805 215.78 52.1043 216.084C52.728 216.38 53.4476 216.527 54.2633 216.527ZM54.2633 205.553C54.951 205.553 55.5627 205.413 56.0984 205.133C56.6342 204.853 57.054 204.465 57.3578 203.969C57.6617 203.473 57.8136 202.902 57.8136 202.254C57.8136 201.614 57.6617 201.055 57.3578 200.575C57.054 200.087 56.6382 199.707 56.1104 199.435C55.5827 199.155 54.9669 199.016 54.2633 199.016C53.5676 199.016 52.9519 199.155 52.4161 199.435C51.8804 199.707 51.4606 200.087 51.1567 200.575C50.8608 201.055 50.7129 201.614 50.7129 202.254C50.7129 202.902 50.8648 203.473 51.1687 203.969C51.4726 204.465 51.8924 204.853 52.4281 205.133C52.9639 205.413 53.5756 205.553 54.2633 205.553ZM72.339 216.647L72.207 217.967C72.1031 219.022 71.9032 220.074 71.6073 221.121C71.3194 222.177 71.0156 223.132 70.6957 223.988C70.3839 224.844 70.132 225.515 69.9401 226.003H66.6296C66.7495 225.531 66.9135 224.872 67.1214 224.024C67.3293 223.184 67.5252 222.241 67.7091 221.193C67.893 220.146 68.009 219.078 68.0569 217.991L68.1169 216.647H72.339ZM85.1371 220.342C83.2899 220.342 81.6467 220.042 80.2073 219.442C78.776 218.834 77.6525 218.007 76.8369 216.959C76.0213 215.912 75.6135 214.724 75.6135 213.397C75.6135 212.373 75.8453 211.434 76.3091 210.578C76.7809 209.715 77.4206 208.999 78.2283 208.431C79.0359 207.855 79.9395 207.488 80.939 207.328V207.16C79.6276 206.896 78.5641 206.26 77.7485 205.253C76.9328 204.237 76.525 203.058 76.525 201.714C76.525 200.443 76.8969 199.311 77.6405 198.32C78.3842 197.32 79.4037 196.537 80.6991 195.969C82.0025 195.393 83.4818 195.105 85.1371 195.105C86.7923 195.105 88.2676 195.393 89.563 195.969C90.8664 196.545 91.89 197.332 92.6336 198.332C93.3773 199.323 93.7531 200.451 93.7611 201.714C93.7531 203.066 93.3373 204.245 92.5137 205.253C91.6901 206.26 90.6345 206.896 89.3471 207.16V207.328C90.3307 207.488 91.2223 207.855 92.0219 208.431C92.8295 208.999 93.4692 209.715 93.941 210.578C94.4208 211.434 94.6647 212.373 94.6727 213.397C94.6647 214.724 94.2529 215.912 93.4373 216.959C92.6216 218.007 91.4942 218.834 90.0548 219.442C88.6235 220.042 86.9842 220.342 85.1371 220.342ZM85.1371 216.527C85.9607 216.527 86.6804 216.38 87.2961 216.084C87.9118 215.78 88.3916 215.364 88.7354 214.836C89.0873 214.3 89.2632 213.685 89.2632 212.989C89.2632 212.277 89.0833 211.65 88.7234 211.106C88.3636 210.554 87.8758 210.122 87.2601 209.811C86.6444 209.491 85.9367 209.331 85.1371 209.331C84.3454 209.331 83.6378 209.491 83.0141 209.811C82.3903 210.122 81.8986 210.554 81.5387 211.106C81.1869 211.65 81.011 212.277 81.011 212.989C81.011 213.685 81.1829 214.3 81.5267 214.836C81.8706 215.364 82.3544 215.78 82.9781 216.084C83.6018 216.38 84.3215 216.527 85.1371 216.527ZM85.1371 205.553C85.8248 205.553 86.4365 205.413 86.9722 205.133C87.508 204.853 87.9278 204.465 88.2317 203.969C88.5355 203.473 88.6874 202.902 88.6874 202.254C88.6874 201.614 88.5355 201.055 88.2317 200.575C87.9278 200.087 87.512 199.707 86.9842 199.435C86.4565 199.155 85.8408 199.016 85.1371 199.016C84.4414 199.016 83.8257 199.155 83.2899 199.435C82.7542 199.707 82.3344 200.087 82.0305 200.575C81.7346 201.055 81.5867 201.614 81.5867 202.254C81.5867 202.902 81.7386 203.473 82.0425 203.969C82.3464 204.465 82.7662 204.853 83.3019 205.133C83.8377 205.413 84.4494 205.553 85.1371 205.553ZM97.9322 215.688V211.598L108.187 195.441H111.714V201.103H109.627L103.162 211.334V211.526H117.735V215.688H97.9322ZM109.723 220.006V214.44L109.819 212.629V195.441H114.688V220.006H109.723ZM130.623 220.342C129.36 220.334 128.14 220.122 126.965 219.706C125.797 219.29 124.75 218.614 123.822 217.679C122.895 216.743 122.159 215.504 121.615 213.961C121.08 212.417 120.812 210.522 120.812 208.275C120.82 206.212 121.056 204.369 121.519 202.746C121.991 201.115 122.663 199.731 123.534 198.596C124.414 197.46 125.466 196.597 126.689 196.005C127.912 195.405 129.284 195.105 130.803 195.105C132.442 195.105 133.89 195.425 135.145 196.065C136.401 196.697 137.408 197.556 138.168 198.644C138.935 199.731 139.399 200.951 139.559 202.302H134.437C134.238 201.446 133.818 200.775 133.178 200.287C132.538 199.799 131.747 199.555 130.803 199.555C129.204 199.555 127.988 200.251 127.157 201.642C126.333 203.034 125.913 204.925 125.897 207.316H126.065C126.433 206.588 126.929 205.968 127.553 205.457C128.184 204.937 128.9 204.541 129.7 204.269C130.507 203.989 131.359 203.849 132.254 203.849C133.71 203.849 135.005 204.193 136.141 204.881C137.276 205.561 138.172 206.496 138.827 207.688C139.483 208.879 139.811 210.242 139.811 211.778C139.811 213.441 139.423 214.92 138.647 216.216C137.88 217.511 136.804 218.527 135.421 219.262C134.046 219.99 132.446 220.35 130.623 220.342ZM130.599 216.264C131.399 216.264 132.114 216.072 132.746 215.688C133.378 215.304 133.874 214.784 134.234 214.129C134.593 213.473 134.773 212.737 134.773 211.922C134.773 211.106 134.593 210.374 134.234 209.727C133.882 209.079 133.394 208.563 132.77 208.179C132.146 207.795 131.435 207.604 130.635 207.604C130.035 207.604 129.48 207.716 128.968 207.939C128.464 208.163 128.02 208.475 127.637 208.875C127.261 209.275 126.965 209.739 126.749 210.266C126.533 210.786 126.425 211.342 126.425 211.934C126.425 212.725 126.605 213.449 126.965 214.105C127.333 214.76 127.828 215.284 128.452 215.676C129.084 216.068 129.8 216.264 130.599 216.264Z" fill="white"/>
<path d="M148.709 220.006V218.577L152.499 214.862C152.861 214.496 153.163 214.17 153.405 213.886C153.647 213.602 153.828 213.326 153.949 213.06C154.07 212.793 154.13 212.509 154.13 212.207C154.13 211.862 154.052 211.567 153.895 211.322C153.739 211.073 153.524 210.881 153.25 210.746C152.977 210.611 152.666 210.544 152.318 210.544C151.959 210.544 151.644 210.618 151.374 210.767C151.104 210.913 150.894 211.121 150.745 211.391C150.599 211.661 150.526 211.983 150.526 212.356H148.645C148.645 211.663 148.803 211.061 149.119 210.549C149.435 210.037 149.871 209.641 150.425 209.36C150.983 209.079 151.623 208.939 152.344 208.939C153.076 208.939 153.72 209.076 154.274 209.349C154.828 209.623 155.258 209.998 155.564 210.474C155.873 210.95 156.028 211.494 156.028 212.105C156.028 212.514 155.95 212.916 155.793 213.31C155.637 213.705 155.361 214.142 154.967 214.622C154.576 215.101 154.027 215.683 153.32 216.365L151.438 218.279V218.353H156.193V220.006H148.709ZM161.95 220.155C161.183 220.155 160.5 220.024 159.903 219.761C159.31 219.498 158.841 219.132 158.496 218.662C158.151 218.193 157.968 217.651 157.947 217.037H159.951C159.969 217.332 160.067 217.589 160.245 217.81C160.422 218.026 160.659 218.195 160.954 218.316C161.249 218.437 161.579 218.497 161.945 218.497C162.336 218.497 162.683 218.43 162.985 218.295C163.287 218.156 163.523 217.964 163.694 217.719C163.864 217.474 163.948 217.191 163.944 216.871C163.948 216.541 163.862 216.249 163.688 215.997C163.514 215.745 163.262 215.547 162.931 215.405C162.604 215.263 162.21 215.192 161.748 215.192H160.783V213.667H161.748C162.128 213.667 162.46 213.602 162.745 213.47C163.033 213.339 163.258 213.154 163.422 212.916C163.585 212.674 163.665 212.395 163.662 212.079C163.665 211.77 163.596 211.501 163.454 211.274C163.315 211.043 163.118 210.863 162.862 210.735C162.61 210.608 162.313 210.544 161.972 210.544C161.638 210.544 161.328 210.604 161.044 210.725C160.76 210.846 160.531 211.018 160.356 211.242C160.182 211.462 160.09 211.725 160.079 212.031H158.176C158.19 211.42 158.366 210.883 158.704 210.421C159.045 209.955 159.5 209.593 160.069 209.333C160.637 209.07 161.275 208.939 161.982 208.939C162.711 208.939 163.344 209.076 163.88 209.349C164.42 209.62 164.838 209.984 165.133 210.442C165.428 210.901 165.575 211.407 165.575 211.962C165.579 212.576 165.398 213.092 165.032 213.508C164.669 213.923 164.193 214.195 163.603 214.323V214.408C164.371 214.515 164.959 214.799 165.368 215.261C165.78 215.72 165.984 216.29 165.981 216.973C165.981 217.584 165.806 218.131 165.458 218.614C165.113 219.094 164.637 219.471 164.029 219.745C163.425 220.018 162.732 220.155 161.95 220.155ZM167.613 217.98V216.408L172.246 209.088H173.557V211.327H172.757L169.639 216.269V216.354H176.105V217.98H167.613ZM172.821 220.006V217.5L172.843 216.797V209.088H174.709V220.006H172.821Z" fill="#00A587"/>
<path d="M183.632 216.67L187.356 212.917C187.561 212.741 187.795 212.624 188.059 212.624C188.294 212.624 188.528 212.741 188.704 212.917L192.428 216.67C192.692 216.934 192.78 217.344 192.633 217.696C192.487 218.048 192.164 218.253 191.783 218.253H184.306C183.925 218.253 183.573 218.048 183.427 217.696C183.28 217.344 183.368 216.934 183.632 216.67Z" fill="#00A587"/>
<path d="M45.6646 238.959L47.9735 246.217H48.0621L50.3757 238.959H52.6147L49.3215 248.512H46.7187L43.4209 238.959H45.6646ZM53.7272 248.512V241.347H55.7143V248.512H53.7272ZM54.7254 240.423C54.43 240.423 54.1765 240.325 53.9651 240.13C53.7567 239.931 53.6526 239.693 53.6526 239.416C53.6526 239.142 53.7567 238.907 53.9651 238.712C54.1765 238.513 54.43 238.413 54.7254 238.413C55.0208 238.413 55.2727 238.513 55.481 238.712C55.6925 238.907 55.7982 239.142 55.7982 239.416C55.7982 239.693 55.6925 239.931 55.481 240.13C55.2727 240.325 55.0208 240.423 54.7254 240.423ZM63.2673 243.39L61.4481 243.502C61.417 243.347 61.3502 243.207 61.2476 243.082C61.1449 242.955 61.0097 242.854 60.8417 242.779C60.6769 242.701 60.4795 242.662 60.2494 242.662C59.9415 242.662 59.6818 242.728 59.4704 242.858C59.2589 242.986 59.1532 243.157 59.1532 243.371C59.1532 243.542 59.2216 243.687 59.3584 243.805C59.4953 243.923 59.73 244.018 60.0628 244.09L61.3595 244.351C62.0561 244.494 62.5754 244.724 62.9175 245.041C63.2595 245.359 63.4306 245.775 63.4306 246.291C63.4306 246.761 63.2922 247.173 63.0154 247.528C62.7418 247.882 62.3655 248.159 61.8866 248.358C61.4108 248.554 60.862 248.652 60.24 248.652C59.2916 248.652 58.5359 248.454 57.9731 248.059C57.4133 247.661 57.0852 247.12 56.9888 246.436L58.9433 246.333C59.0024 246.623 59.1454 246.843 59.3724 246.996C59.5994 247.145 59.8902 247.22 60.2447 247.22C60.593 247.22 60.8728 247.153 61.0843 247.019C61.2989 246.882 61.4077 246.707 61.4108 246.492C61.4077 246.312 61.3315 246.164 61.1823 246.049C61.033 245.931 60.8029 245.841 60.4919 245.778L59.2511 245.531C58.5515 245.391 58.0306 245.149 57.6885 244.803C57.3496 244.458 57.1801 244.018 57.1801 243.483C57.1801 243.023 57.3045 242.627 57.5533 242.294C57.8051 241.961 58.1581 241.705 58.6121 241.524C59.0692 241.344 59.6041 241.254 60.2167 241.254C61.1216 241.254 61.8337 241.445 62.353 241.827C62.8755 242.21 63.1802 242.731 63.2673 243.39ZM64.6818 248.512V241.347H66.6689V248.512H64.6818ZM65.68 240.423C65.3846 240.423 65.1312 240.325 64.9197 240.13C64.7114 239.931 64.6072 239.693 64.6072 239.416C64.6072 239.142 64.7114 238.907 64.9197 238.712C65.1312 238.513 65.3846 238.413 65.68 238.413C65.9754 238.413 66.2273 238.513 66.4357 238.712C66.6471 238.907 66.7529 239.142 66.7529 239.416C66.7529 239.693 66.6471 239.931 66.4357 240.13C66.2273 240.325 65.9754 240.423 65.68 240.423ZM72.0716 241.347V242.84H67.7569V241.347H72.0716ZM68.7364 239.63H70.7235V246.31C70.7235 246.494 70.7515 246.637 70.8075 246.739C70.8635 246.839 70.9412 246.909 71.0407 246.949C71.1433 246.99 71.2615 247.01 71.3952 247.01C71.4885 247.01 71.5818 247.002 71.6751 246.986C71.7684 246.968 71.8399 246.954 71.8897 246.944L72.2022 248.423C72.1027 248.454 71.9627 248.49 71.7824 248.53C71.602 248.574 71.3828 248.6 71.1247 248.61C70.6458 248.628 70.226 248.565 69.8653 248.418C69.5076 248.272 69.2293 248.045 69.0303 247.737C68.8313 247.43 68.7333 247.041 68.7364 246.571V239.63ZM79.2375 243.39L77.4183 243.502C77.3872 243.347 77.3203 243.207 77.2177 243.082C77.1151 242.955 76.9798 242.854 76.8119 242.779C76.6471 242.701 76.4496 242.662 76.2195 242.662C75.9116 242.662 75.652 242.728 75.4405 242.858C75.2291 242.986 75.1233 243.157 75.1233 243.371C75.1233 243.542 75.1918 243.687 75.3286 243.805C75.4654 243.923 75.7002 244.018 76.0329 244.09L77.3297 244.351C78.0262 244.494 78.5455 244.724 78.8876 245.041C79.2297 245.359 79.4007 245.775 79.4007 246.291C79.4007 246.761 79.2623 247.173 78.9856 247.528C78.7119 247.882 78.3356 248.159 77.8568 248.358C77.381 248.554 76.8321 248.652 76.2102 248.652C75.2617 248.652 74.5061 248.454 73.9432 248.059C73.3835 247.661 73.0554 247.12 72.959 246.436L74.9134 246.333C74.9725 246.623 75.1156 246.843 75.3426 246.996C75.5696 247.145 75.8603 247.22 76.2148 247.22C76.5631 247.22 76.843 247.153 77.0545 247.019C77.269 246.882 77.3779 246.707 77.381 246.492C77.3779 246.312 77.3017 246.164 77.1524 246.049C77.0031 245.931 76.773 245.841 76.4621 245.778L75.2213 245.531C74.5216 245.391 74.0007 245.149 73.6587 244.803C73.3197 244.458 73.1503 244.018 73.1503 243.483C73.1503 243.023 73.2746 242.627 73.5234 242.294C73.7753 241.961 74.1282 241.705 74.5823 241.524C75.0394 241.344 75.5742 241.254 76.1869 241.254C77.0918 241.254 77.8039 241.445 78.3232 241.827C78.8456 242.21 79.1504 242.731 79.2375 243.39Z" fill="white" fill-opacity="0.6"/>
<path d="M43.1084 145.82L54.8885 151.709L66.6685 150.835L78.4486 156.723L90.2287 144.785L102.009 130.712L113.789 135.079L125.569 134.723L137.349 150.609L149.129 142.715L160.909 137.312L172.689 140.353L184.469 141.323L196.249 138.412L208.029 160.282L219.809 137.215L231.589 148.829L243.37 142.618L255.15 157.015V161.673H243.37H231.589H219.809H208.029H196.249H184.469H172.689H160.909H149.129H137.349H125.569H113.789H102.009H90.2287H78.4486H66.6685H54.8885H43.1084V145.82Z" fill="#975FE4" fill-opacity="0.5"/>
<path d="M248.582 230.61C244.939 230.61 242.015 233.56 242.015 237.177C242.015 240.82 244.939 243.745 248.582 243.745C252.2 243.745 255.15 240.82 255.15 237.177C255.15 233.56 252.2 230.61 248.582 230.61ZM248.582 233.893C249.018 233.893 249.403 234.278 249.403 234.714C249.403 235.176 249.018 235.535 248.582 235.535C248.121 235.535 247.761 235.176 247.761 234.714C247.761 234.278 248.121 233.893 248.582 233.893ZM249.608 240.461H247.556C247.197 240.461 246.94 240.205 246.94 239.845C246.94 239.512 247.197 239.23 247.556 239.23H247.967V237.588H247.761C247.402 237.588 247.146 237.331 247.146 236.972C247.146 236.639 247.402 236.356 247.761 236.356H248.582C248.916 236.356 249.198 236.639 249.198 236.972V239.23H249.608C249.942 239.23 250.224 239.512 250.224 239.845C250.224 240.205 249.942 240.461 249.608 240.461Z" fill="white" fill-opacity="0.6"/>
</g>
<g filter="url(#filter1_d_360_22143)">
<rect x="93.7725" y="20" width="249.571" height="150.118" rx="15.0118" fill="#0D2F4F"/>
<path d="M122.78 130.191V99.4853H124.747V130.191H122.78ZM127.998 109.621C127.902 108.653 127.49 107.901 126.763 107.366C126.035 106.83 125.047 106.562 123.8 106.562C122.952 106.562 122.237 106.682 121.653 106.922C121.069 107.154 120.621 107.478 120.31 107.893C120.006 108.309 119.854 108.781 119.854 109.309C119.838 109.749 119.93 110.132 120.13 110.46C120.338 110.788 120.621 111.072 120.981 111.312C121.341 111.544 121.757 111.748 122.229 111.924C122.7 112.092 123.204 112.235 123.74 112.355L125.947 112.883C127.018 113.123 128.002 113.443 128.898 113.843C129.793 114.243 130.569 114.734 131.225 115.318C131.88 115.902 132.388 116.589 132.748 117.381C133.116 118.173 133.304 119.08 133.312 120.104C133.304 121.607 132.92 122.911 132.16 124.014C131.408 125.11 130.321 125.961 128.898 126.569C127.482 127.169 125.775 127.468 123.776 127.468C121.793 127.468 120.066 127.165 118.594 126.557C117.131 125.949 115.988 125.05 115.164 123.858C114.348 122.659 113.92 121.175 113.88 119.408H118.906C118.962 120.232 119.198 120.919 119.614 121.471C120.038 122.015 120.601 122.427 121.305 122.707C122.017 122.979 122.82 123.114 123.716 123.114C124.596 123.114 125.359 122.987 126.007 122.731C126.663 122.475 127.17 122.119 127.53 121.663C127.89 121.207 128.07 120.684 128.07 120.092C128.07 119.54 127.906 119.076 127.578 118.7C127.258 118.325 126.787 118.005 126.163 117.741C125.547 117.477 124.791 117.237 123.896 117.021L121.221 116.35C119.15 115.846 117.515 115.058 116.315 113.987C115.116 112.915 114.52 111.472 114.528 109.657C114.52 108.169 114.916 106.87 115.716 105.758C116.523 104.647 117.631 103.779 119.038 103.156C120.445 102.532 122.045 102.22 123.836 102.22C125.659 102.22 127.25 102.532 128.61 103.156C129.977 103.779 131.041 104.647 131.8 105.758C132.56 106.87 132.952 108.157 132.976 109.621H127.998ZM145.549 102.22C146.812 102.22 148.028 102.432 149.195 102.856C150.371 103.28 151.418 103.955 152.338 104.883C153.265 105.81 153.997 107.042 154.533 108.577C155.077 110.104 155.352 111.98 155.36 114.203C155.36 116.29 155.125 118.153 154.653 119.792C154.189 121.423 153.521 122.811 152.65 123.954C151.778 125.098 150.727 125.969 149.495 126.569C148.264 127.161 146.888 127.456 145.369 127.456C143.73 127.456 142.282 127.141 141.027 126.509C139.772 125.869 138.76 125.002 137.992 123.906C137.233 122.803 136.773 121.563 136.613 120.188H141.735C141.935 121.083 142.354 121.779 142.994 122.275C143.634 122.763 144.425 123.006 145.369 123.006C146.968 123.006 148.184 122.311 149.015 120.919C149.847 119.52 150.267 117.605 150.275 115.174H150.107C149.739 115.894 149.243 116.513 148.62 117.033C147.996 117.545 147.28 117.941 146.473 118.221C145.673 118.501 144.821 118.641 143.918 118.641C142.47 118.641 141.179 118.301 140.043 117.621C138.908 116.941 138.012 116.006 137.357 114.814C136.701 113.623 136.373 112.263 136.373 110.736C136.365 109.089 136.745 107.622 137.513 106.334C138.28 105.047 139.352 104.039 140.727 103.312C142.111 102.576 143.718 102.212 145.549 102.22ZM145.585 106.298C144.777 106.298 144.058 106.49 143.426 106.874C142.802 107.258 142.306 107.774 141.939 108.421C141.579 109.069 141.403 109.793 141.411 110.592C141.411 111.4 141.587 112.127 141.939 112.775C142.298 113.415 142.786 113.927 143.402 114.31C144.026 114.686 144.737 114.874 145.537 114.874C146.137 114.874 146.692 114.762 147.204 114.538C147.716 114.314 148.16 114.007 148.536 113.615C148.919 113.215 149.219 112.755 149.435 112.235C149.651 111.716 149.759 111.164 149.759 110.58C149.751 109.805 149.567 109.093 149.207 108.445C148.847 107.797 148.352 107.278 147.72 106.886C147.088 106.494 146.377 106.298 145.585 106.298ZM168.59 127.66C166.527 127.652 164.752 127.145 163.265 126.137C161.785 125.13 160.646 123.67 159.846 121.759C159.055 119.848 158.663 117.549 158.671 114.862C158.671 112.183 159.067 109.901 159.858 108.013C160.658 106.126 161.797 104.691 163.277 103.707C164.764 102.716 166.535 102.22 168.59 102.22C170.645 102.22 172.413 102.716 173.892 103.707C175.379 104.699 176.523 106.138 177.322 108.025C178.122 109.905 178.518 112.183 178.51 114.862C178.51 117.557 178.11 119.86 177.31 121.771C176.519 123.682 175.383 125.142 173.904 126.149C172.425 127.157 170.653 127.66 168.59 127.66ZM168.59 123.354C169.998 123.354 171.121 122.647 171.961 121.231C172.8 119.816 173.216 117.693 173.208 114.862C173.208 112.999 173.016 111.448 172.632 110.208C172.257 108.969 171.721 108.037 171.025 107.414C170.338 106.79 169.526 106.478 168.59 106.478C167.191 106.478 166.071 107.178 165.232 108.577C164.392 109.976 163.968 112.072 163.96 114.862C163.96 116.749 164.148 118.325 164.524 119.588C164.908 120.843 165.448 121.787 166.143 122.419C166.839 123.042 167.655 123.354 168.59 123.354ZM186.825 123.762L186.693 125.082C186.589 126.137 186.389 127.189 186.093 128.236C185.805 129.292 185.502 130.247 185.182 131.103C184.87 131.958 184.618 132.63 184.426 133.118H181.116C181.236 132.646 181.399 131.986 181.607 131.139C181.815 130.299 182.011 129.356 182.195 128.308C182.379 127.261 182.495 126.193 182.543 125.106L182.603 123.762H186.825ZM199.875 102.22C201.138 102.22 202.354 102.432 203.521 102.856C204.697 103.28 205.744 103.955 206.664 104.883C207.591 105.81 208.323 107.042 208.859 108.577C209.403 110.104 209.678 111.98 209.686 114.203C209.686 116.29 209.451 118.153 208.979 119.792C208.515 121.423 207.847 122.811 206.976 123.954C206.104 125.098 205.053 125.969 203.821 126.569C202.59 127.161 201.214 127.456 199.695 127.456C198.056 127.456 196.608 127.141 195.353 126.509C194.098 125.869 193.086 125.002 192.318 123.906C191.559 122.803 191.099 121.563 190.939 120.188H196.061C196.261 121.083 196.68 121.779 197.32 122.275C197.96 122.763 198.751 123.006 199.695 123.006C201.294 123.006 202.51 122.311 203.341 120.919C204.173 119.52 204.593 117.605 204.601 115.174H204.433C204.065 115.894 203.569 116.513 202.946 117.033C202.322 117.545 201.606 117.941 200.799 118.221C199.999 118.501 199.147 118.641 198.244 118.641C196.796 118.641 195.505 118.301 194.369 117.621C193.234 116.941 192.338 116.006 191.683 114.814C191.027 113.623 190.699 112.263 190.699 110.736C190.691 109.089 191.071 107.622 191.839 106.334C192.606 105.047 193.678 104.039 195.053 103.312C196.437 102.576 198.044 102.212 199.875 102.22ZM199.911 106.298C199.103 106.298 198.384 106.49 197.752 106.874C197.128 107.258 196.632 107.774 196.265 108.421C195.905 109.069 195.729 109.793 195.737 110.592C195.737 111.4 195.913 112.127 196.265 112.775C196.624 113.415 197.112 113.927 197.728 114.31C198.352 114.686 199.063 114.874 199.863 114.874C200.463 114.874 201.018 114.762 201.53 114.538C202.042 114.314 202.486 114.007 202.862 113.615C203.245 113.215 203.545 112.755 203.761 112.235C203.977 111.716 204.085 111.164 204.085 110.58C204.077 109.805 203.893 109.093 203.533 108.445C203.173 107.797 202.678 107.278 202.046 106.886C201.414 106.494 200.703 106.298 199.911 106.298ZM222.916 127.66C220.853 127.652 219.078 127.145 217.591 126.137C216.111 125.13 214.972 123.67 214.172 121.759C213.381 119.848 212.989 117.549 212.997 114.862C212.997 112.183 213.393 109.901 214.184 108.013C214.984 106.126 216.123 104.691 217.603 103.707C219.09 102.716 220.861 102.22 222.916 102.22C224.971 102.22 226.739 102.716 228.218 103.707C229.705 104.699 230.849 106.138 231.648 108.025C232.448 109.905 232.844 112.183 232.836 114.862C232.836 117.557 232.436 119.86 231.636 121.771C230.845 123.682 229.709 125.142 228.23 126.149C226.751 127.157 224.979 127.66 222.916 127.66ZM222.916 123.354C224.324 123.354 225.447 122.647 226.287 121.231C227.126 119.816 227.542 117.693 227.534 114.862C227.534 112.999 227.342 111.448 226.958 110.208C226.583 108.969 226.047 108.037 225.351 107.414C224.664 106.79 223.852 106.478 222.916 106.478C221.517 106.478 220.398 107.178 219.558 108.577C218.718 109.976 218.294 112.072 218.286 114.862C218.286 116.749 218.474 118.325 218.85 119.588C219.234 120.843 219.774 121.787 220.469 122.419C221.165 123.042 221.981 123.354 222.916 123.354ZM246.171 127.66C244.108 127.652 242.332 127.145 240.845 126.137C239.366 125.13 238.226 123.67 237.427 121.759C236.635 119.848 236.243 117.549 236.251 114.862C236.251 112.183 236.647 109.901 237.439 108.013C238.238 106.126 239.378 104.691 240.857 103.707C242.344 102.716 244.116 102.22 246.171 102.22C248.226 102.22 249.993 102.716 251.472 103.707C252.96 104.699 254.103 106.138 254.903 108.025C255.702 109.905 256.098 112.183 256.09 114.862C256.09 117.557 255.69 119.86 254.891 121.771C254.099 123.682 252.964 125.142 251.484 126.149C250.005 127.157 248.234 127.66 246.171 127.66ZM246.171 123.354C247.578 123.354 248.702 122.647 249.541 121.231C250.381 119.816 250.797 117.693 250.789 114.862C250.789 112.999 250.597 111.448 250.213 110.208C249.837 108.969 249.301 108.037 248.606 107.414C247.918 106.79 247.106 106.478 246.171 106.478C244.771 106.478 243.652 107.178 242.812 108.577C241.973 109.976 241.549 112.072 241.541 114.862C241.541 116.749 241.729 118.325 242.105 119.588C242.488 120.843 243.028 121.787 243.724 122.419C244.419 123.042 245.235 123.354 246.171 123.354Z" fill="white"/>
<path d="M113.004 147.739V146.074H120.849V147.739H117.925V155.626H115.928V147.739H113.004ZM124.302 155.766C123.578 155.766 122.951 155.612 122.422 155.305C121.897 154.994 121.491 154.561 121.205 154.008C120.919 153.451 120.776 152.806 120.776 152.072C120.776 151.332 120.919 150.685 121.205 150.132C121.491 149.575 121.897 149.143 122.422 148.835C122.951 148.524 123.578 148.368 124.302 148.368C125.027 148.368 125.652 148.524 126.177 148.835C126.706 149.143 127.113 149.575 127.399 150.132C127.686 150.685 127.829 151.332 127.829 152.072C127.829 152.806 127.686 153.451 127.399 154.008C127.113 154.561 126.706 154.994 126.177 155.305C125.652 155.612 125.027 155.766 124.302 155.766ZM124.312 154.227C124.641 154.227 124.916 154.134 125.137 153.947C125.358 153.758 125.524 153.499 125.636 153.173C125.751 152.846 125.809 152.475 125.809 152.058C125.809 151.641 125.751 151.27 125.636 150.943C125.524 150.617 125.358 150.359 125.137 150.169C124.916 149.979 124.641 149.884 124.312 149.884C123.979 149.884 123.699 149.979 123.472 150.169C123.248 150.359 123.079 150.617 122.963 150.943C122.852 151.27 122.796 151.641 122.796 152.058C122.796 152.475 122.852 152.846 122.963 153.173C123.079 153.499 123.248 153.758 123.472 153.947C123.699 154.134 123.979 154.227 124.312 154.227ZM132.932 148.462V149.954H128.617V148.462H132.932ZM129.596 146.745H131.584V153.425C131.584 153.608 131.612 153.751 131.667 153.854C131.723 153.953 131.801 154.023 131.901 154.064C132.003 154.104 132.121 154.124 132.255 154.124C132.349 154.124 132.442 154.117 132.535 154.101C132.628 154.083 132.7 154.069 132.75 154.059L133.062 155.538C132.963 155.569 132.823 155.605 132.642 155.645C132.462 155.689 132.243 155.715 131.985 155.724C131.506 155.743 131.086 155.679 130.725 155.533C130.368 155.387 130.089 155.16 129.89 154.852C129.691 154.544 129.593 154.156 129.596 153.686V146.745ZM136.269 155.762C135.812 155.762 135.405 155.682 135.047 155.524C134.689 155.362 134.406 155.124 134.198 154.81C133.993 154.493 133.89 154.098 133.89 153.625C133.89 153.227 133.963 152.893 134.109 152.623C134.256 152.352 134.455 152.134 134.706 151.969C134.958 151.805 135.244 151.68 135.565 151.596C135.888 151.512 136.227 151.453 136.582 151.419C136.998 151.376 137.334 151.335 137.589 151.298C137.844 151.257 138.029 151.198 138.144 151.121C138.259 151.043 138.317 150.928 138.317 150.775V150.747C138.317 150.452 138.223 150.223 138.037 150.062C137.853 149.9 137.592 149.819 137.253 149.819C136.896 149.819 136.611 149.898 136.4 150.057C136.188 150.213 136.048 150.408 135.98 150.645L134.142 150.495C134.235 150.06 134.419 149.684 134.692 149.367C134.966 149.046 135.319 148.801 135.751 148.63C136.187 148.456 136.69 148.368 137.263 148.368C137.661 148.368 138.042 148.415 138.405 148.508C138.772 148.602 139.097 148.746 139.38 148.942C139.666 149.138 139.892 149.39 140.057 149.698C140.221 150.003 140.304 150.368 140.304 150.794V155.626H138.419V154.633H138.363C138.248 154.857 138.094 155.054 137.902 155.225C137.709 155.393 137.477 155.525 137.207 155.622C136.936 155.715 136.624 155.762 136.269 155.762ZM136.838 154.39C137.13 154.39 137.389 154.333 137.612 154.218C137.836 154.1 138.012 153.941 138.14 153.742C138.267 153.543 138.331 153.318 138.331 153.066V152.305C138.269 152.346 138.183 152.383 138.074 152.417C137.968 152.448 137.849 152.478 137.715 152.506C137.581 152.531 137.448 152.554 137.314 152.576C137.18 152.595 137.059 152.612 136.95 152.627C136.717 152.661 136.513 152.716 136.339 152.79C136.165 152.865 136.03 152.966 135.933 153.094C135.837 153.218 135.789 153.374 135.789 153.56C135.789 153.831 135.887 154.037 136.082 154.18C136.281 154.32 136.533 154.39 136.838 154.39ZM143.833 146.074V155.626H141.845V146.074H143.833ZM153.684 148.821C153.647 148.445 153.487 148.152 153.204 147.944C152.921 147.736 152.537 147.631 152.051 147.631C151.722 147.631 151.443 147.678 151.216 147.771C150.989 147.862 150.815 147.988 150.694 148.149C150.576 148.311 150.517 148.494 150.517 148.7C150.511 148.871 150.546 149.02 150.624 149.147C150.705 149.275 150.815 149.385 150.955 149.479C151.095 149.569 151.257 149.648 151.44 149.717C151.624 149.782 151.82 149.838 152.028 149.884L152.886 150.09C153.303 150.183 153.686 150.307 154.034 150.463C154.382 150.618 154.684 150.81 154.939 151.037C155.194 151.264 155.391 151.531 155.531 151.839C155.674 152.147 155.747 152.5 155.75 152.898C155.747 153.482 155.598 153.989 155.303 154.418C155.01 154.844 154.587 155.176 154.034 155.412C153.483 155.645 152.82 155.762 152.042 155.762C151.271 155.762 150.599 155.644 150.027 155.407C149.458 155.171 149.013 154.821 148.693 154.358C148.376 153.891 148.209 153.314 148.194 152.627H150.148C150.17 152.947 150.262 153.215 150.424 153.429C150.588 153.641 150.808 153.801 151.081 153.91C151.358 154.016 151.671 154.069 152.019 154.069C152.361 154.069 152.658 154.019 152.91 153.919C153.165 153.82 153.362 153.681 153.502 153.504C153.642 153.327 153.712 153.123 153.712 152.893C153.712 152.678 153.648 152.498 153.521 152.352C153.396 152.206 153.213 152.081 152.97 151.979C152.731 151.876 152.437 151.783 152.089 151.699L151.049 151.438C150.243 151.242 149.607 150.936 149.141 150.519C148.674 150.102 148.443 149.541 148.446 148.835C148.443 148.257 148.597 147.751 148.908 147.319C149.222 146.887 149.652 146.549 150.2 146.307C150.747 146.064 151.369 145.943 152.065 145.943C152.774 145.943 153.393 146.064 153.922 146.307C154.454 146.549 154.867 146.887 155.163 147.319C155.458 147.751 155.61 148.252 155.62 148.821H153.684ZM159.115 155.762C158.658 155.762 158.25 155.682 157.893 155.524C157.535 155.362 157.252 155.124 157.044 154.81C156.838 154.493 156.736 154.098 156.736 153.625C156.736 153.227 156.809 152.893 156.955 152.623C157.101 152.352 157.3 152.134 157.552 151.969C157.804 151.805 158.09 151.68 158.41 151.596C158.734 151.512 159.073 151.453 159.427 151.419C159.844 151.376 160.18 151.335 160.435 151.298C160.69 151.257 160.875 151.198 160.99 151.121C161.105 151.043 161.162 150.928 161.162 150.775V150.747C161.162 150.452 161.069 150.223 160.883 150.062C160.699 149.9 160.438 149.819 160.099 149.819C159.741 149.819 159.457 149.898 159.245 150.057C159.034 150.213 158.894 150.408 158.825 150.645L156.988 150.495C157.081 150.06 157.264 149.684 157.538 149.367C157.812 149.046 158.165 148.801 158.597 148.63C159.032 148.456 159.536 148.368 160.108 148.368C160.506 148.368 160.887 148.415 161.251 148.508C161.618 148.602 161.943 148.746 162.226 148.942C162.512 149.138 162.737 149.39 162.902 149.698C163.067 150.003 163.15 150.368 163.15 150.794V155.626H161.265V154.633H161.209C161.094 154.857 160.94 155.054 160.747 155.225C160.554 155.393 160.323 155.525 160.052 155.622C159.782 155.715 159.469 155.762 159.115 155.762ZM159.684 154.39C159.976 154.39 160.234 154.333 160.458 154.218C160.682 154.1 160.858 153.941 160.985 153.742C161.113 153.543 161.176 153.318 161.176 153.066V152.305C161.114 152.346 161.029 152.383 160.92 152.417C160.814 152.448 160.694 152.478 160.561 152.506C160.427 152.531 160.293 152.554 160.16 152.576C160.026 152.595 159.905 152.612 159.796 152.627C159.562 152.661 159.359 152.716 159.185 152.79C159.011 152.865 158.875 152.966 158.779 153.094C158.682 153.218 158.634 153.374 158.634 153.56C158.634 153.831 158.732 154.037 158.928 154.18C159.127 154.32 159.379 154.39 159.684 154.39ZM166.678 146.074V155.626H164.691V146.074H166.678ZM171.535 155.766C170.798 155.766 170.164 155.617 169.632 155.319C169.103 155.017 168.696 154.591 168.41 154.041C168.124 153.487 167.981 152.832 167.981 152.077C167.981 151.34 168.124 150.693 168.41 150.136C168.696 149.58 169.099 149.146 169.618 148.835C170.14 148.524 170.753 148.368 171.456 148.368C171.929 148.368 172.369 148.445 172.776 148.597C173.186 148.746 173.544 148.972 173.849 149.273C174.157 149.575 174.396 149.954 174.567 150.412C174.738 150.866 174.824 151.397 174.824 152.007V152.553H168.774V151.321H172.953C172.953 151.035 172.891 150.782 172.767 150.561C172.642 150.34 172.47 150.167 172.249 150.043C172.031 149.916 171.778 149.852 171.489 149.852C171.187 149.852 170.919 149.922 170.686 150.062C170.456 150.199 170.276 150.384 170.145 150.617C170.015 150.847 169.948 151.103 169.945 151.386V152.557C169.945 152.912 170.01 153.218 170.14 153.476C170.274 153.734 170.462 153.933 170.705 154.073C170.947 154.213 171.235 154.283 171.568 154.283C171.789 154.283 171.991 154.252 172.174 154.19C172.358 154.128 172.515 154.034 172.645 153.91C172.776 153.786 172.875 153.633 172.944 153.453L174.782 153.574C174.688 154.016 174.497 154.401 174.208 154.731C173.922 155.057 173.552 155.312 173.098 155.496C172.647 155.676 172.126 155.766 171.535 155.766ZM182.082 150.505L180.262 150.617C180.231 150.461 180.165 150.321 180.062 150.197C179.959 150.069 179.824 149.968 179.656 149.894C179.491 149.816 179.294 149.777 179.064 149.777C178.756 149.777 178.496 149.842 178.285 149.973C178.073 150.101 177.968 150.272 177.968 150.486C177.968 150.657 178.036 150.802 178.173 150.92C178.31 151.038 178.544 151.133 178.877 151.204L180.174 151.466C180.87 151.609 181.39 151.839 181.732 152.156C182.074 152.473 182.245 152.89 182.245 153.406C182.245 153.876 182.107 154.288 181.83 154.642C181.556 154.997 181.18 155.274 180.701 155.473C180.225 155.668 179.676 155.766 179.054 155.766C178.106 155.766 177.35 155.569 176.787 155.174C176.228 154.776 175.9 154.235 175.803 153.551L177.758 153.448C177.817 153.737 177.96 153.958 178.187 154.11C178.414 154.26 178.705 154.334 179.059 154.334C179.407 154.334 179.687 154.268 179.899 154.134C180.113 153.997 180.222 153.821 180.225 153.607C180.222 153.426 180.146 153.279 179.997 153.164C179.847 153.045 179.617 152.955 179.306 152.893L178.065 152.646C177.366 152.506 176.845 152.263 176.503 151.918C176.164 151.573 175.994 151.133 175.994 150.598C175.994 150.138 176.119 149.741 176.368 149.409C176.619 149.076 176.972 148.819 177.426 148.639C177.884 148.459 178.418 148.368 179.031 148.368C179.936 148.368 180.648 148.56 181.167 148.942C181.69 149.325 181.995 149.846 182.082 150.505Z" fill="white" fill-opacity="0.6"/>
<path d="M115.49 53.7646L112.794 44.2117H114.655L116.376 51.2318H116.465L118.302 44.2117H119.996L121.838 51.2365H121.922L123.643 44.2117H125.504L122.808 53.7646H121.101L119.189 47.0617H119.114L117.197 53.7646H115.49ZM129.024 53.9046C128.324 53.9046 127.718 53.7507 127.205 53.4428C126.692 53.1349 126.294 52.7042 126.011 52.1507C125.731 51.5972 125.591 50.9504 125.591 50.2103C125.591 49.4702 125.731 48.8218 126.011 48.2652C126.294 47.7085 126.692 47.2763 127.205 46.9684C127.718 46.6606 128.324 46.5067 129.024 46.5067C129.724 46.5067 130.33 46.6606 130.843 46.9684C131.356 47.2763 131.753 47.7085 132.032 48.2652C132.315 48.8218 132.457 49.4702 132.457 50.2103C132.457 50.9504 132.315 51.5972 132.032 52.1507C131.753 52.7042 131.356 53.1349 130.843 53.4428C130.33 53.7507 129.724 53.9046 129.024 53.9046ZM129.033 52.5519C129.413 52.5519 129.73 52.4477 129.985 52.2393C130.24 52.0279 130.429 51.7449 130.554 51.3904C130.681 51.0359 130.745 50.641 130.745 50.2056C130.745 49.7672 130.681 49.3707 130.554 49.0162C130.429 48.6586 130.24 48.374 129.985 48.1626C129.73 47.9511 129.413 47.8454 129.033 47.8454C128.644 47.8454 128.321 47.9511 128.063 48.1626C127.808 48.374 127.617 48.6586 127.489 49.0162C127.365 49.3707 127.303 49.7672 127.303 50.2056C127.303 50.641 127.365 51.0359 127.489 51.3904C127.617 51.7449 127.808 52.0279 128.063 52.2393C128.321 52.4477 128.644 52.5519 129.033 52.5519ZM135.308 53.7646L132.612 44.2117H134.473L136.194 51.2318H136.283L138.121 44.2117H139.814L141.657 51.2365H141.741L143.462 44.2117H145.323L142.627 53.7646H140.92L139.007 47.0617H138.932L137.015 53.7646H135.308ZM157.958 47.4349H156.213C156.164 47.1488 156.072 46.8954 155.938 46.6746C155.804 46.4507 155.638 46.261 155.439 46.1055C155.24 45.95 155.013 45.8334 154.758 45.7557C154.506 45.6748 154.234 45.6344 153.942 45.6344C153.422 45.6344 152.962 45.765 152.561 46.0262C152.16 46.2843 151.846 46.6637 151.619 47.1643C151.392 47.6619 151.278 48.2698 151.278 48.9882C151.278 49.719 151.392 50.3347 151.619 50.8353C151.849 51.3329 152.163 51.7091 152.561 51.9641C152.962 52.216 153.421 52.342 153.937 52.342C154.223 52.342 154.491 52.3047 154.739 52.23C154.991 52.1523 155.217 52.0388 155.416 51.8895C155.618 51.7402 155.787 51.5568 155.924 51.3391C156.064 51.1214 156.16 50.8726 156.213 50.5928L157.958 50.6021C157.893 51.0561 157.751 51.4821 157.533 51.8802C157.319 52.2782 157.037 52.6296 156.689 52.9344C156.341 53.236 155.933 53.4723 155.467 53.6434C155.001 53.8113 154.483 53.8953 153.914 53.8953C153.074 53.8953 152.325 53.7009 151.665 53.3122C151.006 52.9235 150.487 52.3622 150.108 51.6283C149.728 50.8944 149.538 50.0144 149.538 48.9882C149.538 47.9589 149.73 47.0788 150.112 46.3481C150.495 45.6142 151.016 45.0529 151.675 44.6642C152.334 44.2755 153.08 44.0811 153.914 44.0811C154.446 44.0811 154.94 44.1557 155.397 44.305C155.854 44.4543 156.262 44.6735 156.619 44.9627C156.977 45.2488 157.271 45.6002 157.501 46.0169C157.734 46.4305 157.886 46.9031 157.958 47.4349ZM161.157 49.5666V53.7646H159.468V44.2117H161.119V47.8174H161.203C161.371 47.4131 161.631 47.0944 161.982 46.8612C162.337 46.6248 162.788 46.5067 163.335 46.5067C163.832 46.5067 164.266 46.6108 164.636 46.8192C165.006 47.0275 165.292 47.3323 165.495 47.7334C165.7 48.1346 165.802 48.6243 165.802 49.2027V53.7646H164.114V49.464C164.114 48.982 163.99 48.6072 163.741 48.3398C163.495 48.0693 163.15 47.934 162.705 47.934C162.407 47.934 162.139 47.9993 161.903 48.1299C161.67 48.2574 161.486 48.4424 161.352 48.685C161.222 48.9275 161.157 49.2214 161.157 49.5666ZM169.585 53.9092C169.131 53.9092 168.722 53.8284 168.359 53.6667C167.998 53.5019 167.712 53.2593 167.5 52.939C167.292 52.6187 167.188 52.2238 167.188 51.7542C167.188 51.35 167.262 51.0157 167.412 50.7514C167.561 50.487 167.765 50.2756 168.023 50.117C168.281 49.9584 168.572 49.8387 168.895 49.7578C169.222 49.6739 169.559 49.6132 169.907 49.5759C170.327 49.5324 170.668 49.4935 170.929 49.4593C171.19 49.422 171.38 49.366 171.498 49.2914C171.619 49.2136 171.68 49.0939 171.68 48.9322V48.9042C171.68 48.5528 171.576 48.2807 171.367 48.0879C171.159 47.8951 170.859 47.7987 170.467 47.7987C170.053 47.7987 169.725 47.8889 169.483 48.0693C169.243 48.2496 169.082 48.4626 168.998 48.7083L167.421 48.4844C167.545 48.0491 167.751 47.6852 168.037 47.3929C168.323 47.0975 168.673 46.8767 169.086 46.7305C169.5 46.5813 169.957 46.5067 170.458 46.5067C170.803 46.5067 171.146 46.5471 171.489 46.6279C171.831 46.7088 172.143 46.8425 172.426 47.0291C172.709 47.2125 172.936 47.4629 173.107 47.7801C173.281 48.0973 173.368 48.4937 173.368 48.9695V53.7646H171.745V52.7804H171.689C171.586 52.9795 171.442 53.166 171.255 53.3402C171.072 53.5112 170.84 53.6496 170.56 53.7553C170.284 53.8579 169.959 53.9092 169.585 53.9092ZM170.024 52.6685C170.363 52.6685 170.657 52.6016 170.905 52.4679C171.154 52.3311 171.345 52.1507 171.479 51.9268C171.616 51.7029 171.684 51.4588 171.684 51.1945V50.3502C171.632 50.3938 171.541 50.4342 171.414 50.4715C171.289 50.5088 171.15 50.5415 170.994 50.5695C170.839 50.5974 170.685 50.6223 170.532 50.6441C170.38 50.6659 170.248 50.6845 170.136 50.7001C169.884 50.7343 169.658 50.7902 169.459 50.868C169.26 50.9457 169.103 51.0546 168.988 51.1945C168.873 51.3313 168.816 51.5086 168.816 51.7263C168.816 52.0372 168.929 52.272 169.156 52.4306C169.383 52.5892 169.672 52.6685 170.024 52.6685ZM176.755 49.5666V53.7646H175.066V46.5999H176.68V47.8174H176.764C176.929 47.4162 177.192 47.0975 177.552 46.8612C177.916 46.6248 178.366 46.5067 178.9 46.5067C179.395 46.5067 179.826 46.6124 180.193 46.8238C180.563 47.0353 180.849 47.3416 181.051 47.7428C181.256 48.1439 181.357 48.6306 181.354 49.2027V53.7646H179.665V49.464C179.665 48.9851 179.541 48.6104 179.292 48.3398C179.047 48.0693 178.706 47.934 178.271 47.934C177.975 47.934 177.713 47.9993 177.482 48.1299C177.255 48.2574 177.077 48.4424 176.946 48.685C176.818 48.9275 176.755 49.2214 176.755 49.5666ZM186.186 56.6007C185.58 56.6007 185.059 56.5183 184.624 56.3535C184.188 56.1918 183.839 55.9741 183.574 55.7004C183.31 55.4268 183.126 55.1236 183.024 54.7908L184.545 54.4223C184.613 54.5623 184.712 54.7007 184.843 54.8375C184.974 54.9774 185.149 55.0925 185.37 55.1827C185.594 55.276 185.875 55.3226 186.214 55.3226C186.693 55.3226 187.09 55.206 187.404 54.9728C187.718 54.7426 187.875 54.3633 187.875 53.8346V52.4772H187.791C187.704 52.6514 187.576 52.8302 187.409 53.0137C187.244 53.1971 187.024 53.3511 186.751 53.4754C186.48 53.5998 186.14 53.662 185.729 53.662C185.179 53.662 184.68 53.533 184.232 53.2749C183.787 53.0137 183.433 52.625 183.168 52.1087C182.907 51.5894 182.777 50.9395 182.777 50.159C182.777 49.3722 182.907 48.7083 183.168 48.1672C183.433 47.623 183.789 47.211 184.237 46.9311C184.684 46.6481 185.184 46.5067 185.734 46.5067C186.154 46.5067 186.499 46.5782 186.769 46.7212C187.043 46.8612 187.261 47.0306 187.423 47.2297C187.584 47.4256 187.707 47.6106 187.791 47.7847H187.884V46.5999H189.55V53.8813C189.55 54.4939 189.403 55.0007 189.111 55.4019C188.819 55.803 188.419 56.1031 187.912 56.3021C187.405 56.5012 186.83 56.6007 186.186 56.6007ZM186.2 52.3373C186.558 52.3373 186.863 52.2502 187.115 52.0761C187.367 51.9019 187.558 51.6516 187.688 51.3251C187.819 50.9986 187.884 50.6068 187.884 50.1496C187.884 49.6987 187.819 49.3038 187.688 48.9649C187.561 48.6259 187.371 48.3631 187.119 48.1766C186.871 47.9869 186.564 47.892 186.2 47.892C185.824 47.892 185.51 47.99 185.258 48.1859C185.006 48.3818 184.817 48.6508 184.689 48.9928C184.562 49.3318 184.498 49.7174 184.498 50.1496C184.498 50.5881 184.562 50.9722 184.689 51.3018C184.82 51.6283 185.011 51.8833 185.263 52.0668C185.518 52.2471 185.83 52.3373 186.2 52.3373ZM194.452 53.9046C193.734 53.9046 193.113 53.7553 192.591 53.4568C192.071 53.1552 191.672 52.7291 191.392 52.1787C191.112 51.6252 190.972 50.9737 190.972 50.2243C190.972 49.4873 191.112 48.8405 191.392 48.2838C191.675 47.7241 192.07 47.2887 192.577 46.9778C193.084 46.6637 193.679 46.5067 194.363 46.5067C194.805 46.5067 195.222 46.5782 195.613 46.7212C196.008 46.8612 196.357 47.0788 196.658 47.3743C196.963 47.6697 197.202 48.0459 197.377 48.5031C197.551 48.9571 197.638 49.4982 197.638 50.1263V50.6441H191.765V49.5059H196.019C196.016 49.1825 195.946 48.8949 195.809 48.643C195.672 48.388 195.481 48.1874 195.236 48.0413C194.993 47.8951 194.71 47.822 194.387 47.822C194.041 47.822 193.738 47.906 193.477 48.0739C193.216 48.2387 193.012 48.4564 192.866 48.727C192.723 48.9944 192.65 49.2883 192.647 49.6086V50.6021C192.647 51.0188 192.723 51.3764 192.875 51.6749C193.028 51.9704 193.241 52.1974 193.514 52.356C193.788 52.5114 194.108 52.5892 194.475 52.5892C194.721 52.5892 194.943 52.555 195.142 52.4866C195.341 52.415 195.514 52.3109 195.66 52.174C195.806 52.0372 195.917 51.8677 195.991 51.6656L197.568 51.8429C197.468 52.2596 197.279 52.6234 196.999 52.9344C196.722 53.2422 196.368 53.4817 195.935 53.6527C195.503 53.8206 195.009 53.9046 194.452 53.9046Z" fill="white" fill-opacity="0.6"/>
<path d="M208.225 45.5764V53.7646H206.742V47.0197H206.694L204.779 48.2432V46.8838L206.814 45.5764H208.225ZM210.304 53.7646V52.6931L213.147 49.9064C213.419 49.6319 213.645 49.388 213.827 49.1748C214.008 48.9615 214.144 48.755 214.234 48.555C214.325 48.3551 214.37 48.1419 214.37 47.9153C214.37 47.6568 214.312 47.4356 214.194 47.2516C214.077 47.0651 213.916 46.9211 213.711 46.8198C213.505 46.7186 213.272 46.6679 213.011 46.6679C212.742 46.6679 212.506 46.7239 212.303 46.8358C212.101 46.9451 211.943 47.101 211.831 47.3036C211.722 47.5062 211.668 47.7474 211.668 48.0273H210.256C210.256 47.5075 210.375 47.0557 210.612 46.6719C210.849 46.2881 211.176 45.9909 211.592 45.7803C212.01 45.5697 212.49 45.4645 213.031 45.4645C213.58 45.4645 214.062 45.5671 214.478 45.7723C214.894 45.9776 215.217 46.2588 215.446 46.6159C215.678 46.9731 215.794 47.3809 215.794 47.8394C215.794 48.1459 215.735 48.4471 215.618 48.743C215.5 49.0388 215.294 49.3667 214.998 49.7265C214.705 50.0863 214.293 50.5221 213.763 51.0339L212.351 52.4692V52.5252H215.918V53.7646H210.304ZM221.675 52.2294V51.7976C221.675 51.4804 221.742 51.1885 221.875 50.922C222.011 50.6554 222.208 50.4408 222.467 50.2783C222.725 50.1157 223.038 50.0344 223.406 50.0344C223.785 50.0344 224.102 50.1157 224.358 50.2783C224.614 50.4382 224.807 50.6514 224.937 50.918C225.071 51.1845 225.137 51.4777 225.137 51.7976V52.2294C225.137 52.5465 225.071 52.8384 224.937 53.105C224.804 53.3715 224.608 53.5861 224.35 53.7487C224.094 53.9112 223.779 53.9925 223.406 53.9925C223.033 53.9925 222.717 53.9112 222.459 53.7487C222.2 53.5861 222.004 53.3715 221.871 53.105C221.74 52.8384 221.675 52.5465 221.675 52.2294ZM222.718 51.7976V52.2294C222.718 52.4399 222.769 52.6332 222.87 52.8091C222.972 52.985 223.15 53.073 223.406 53.073C223.665 53.073 223.842 52.9863 223.938 52.8131C224.037 52.6372 224.086 52.4426 224.086 52.2294V51.7976C224.086 51.5843 224.039 51.3897 223.946 51.2138C223.853 51.0352 223.673 50.9459 223.406 50.9459C223.156 50.9459 222.978 51.0352 222.874 51.2138C222.77 51.3897 222.718 51.5843 222.718 51.7976ZM217.513 47.5435V47.1117C217.513 46.7919 217.581 46.4987 217.717 46.2321C217.853 45.9656 218.05 45.7523 218.308 45.5924C218.567 45.4298 218.88 45.3485 219.248 45.3485C219.624 45.3485 219.94 45.4298 220.196 45.5924C220.454 45.7523 220.649 45.9656 220.779 46.2321C220.91 46.4987 220.975 46.7919 220.975 47.1117V47.5435C220.975 47.8634 220.909 48.1566 220.775 48.4231C220.645 48.687 220.45 48.8989 220.192 49.0588C219.933 49.2187 219.619 49.2987 219.248 49.2987C218.872 49.2987 218.555 49.2187 218.296 49.0588C218.041 48.8989 217.846 48.6857 217.713 48.4191C217.579 48.1526 217.513 47.8607 217.513 47.5435ZM218.564 47.1117V47.5435C218.564 47.7567 218.614 47.9513 218.712 48.1272C218.814 48.3005 218.992 48.3871 219.248 48.3871C219.504 48.3871 219.68 48.3005 219.776 48.1272C219.874 47.9513 219.924 47.7567 219.924 47.5435V47.1117C219.924 46.8985 219.877 46.7039 219.784 46.528C219.691 46.3494 219.512 46.2601 219.248 46.2601C218.995 46.2601 218.818 46.3494 218.716 46.528C218.615 46.7066 218.564 46.9011 218.564 47.1117ZM217.969 53.7646L223.598 45.5764H224.598L218.968 53.7646H217.969Z" fill="#00A587"/>
<path d="M228.242 51.7625L231.035 48.9478C231.188 48.8158 231.364 48.7279 231.562 48.7279C231.738 48.7279 231.914 48.8158 232.046 48.9478L234.839 51.7625C235.037 51.9604 235.103 52.2683 234.993 52.5321C234.883 52.796 234.641 52.9499 234.355 52.9499H228.748C228.462 52.9499 228.198 52.796 228.088 52.5321C227.978 52.2683 228.044 51.9604 228.242 51.7625Z" fill="#00A587"/>
<path d="M116.717 80.394H113.479V70.8411H116.782C117.73 70.8411 118.545 71.0323 119.226 71.4148C119.91 71.7942 120.436 72.34 120.803 73.0521C121.17 73.7642 121.353 74.6163 121.353 75.6082C121.353 76.6033 121.168 77.4585 120.798 78.1737C120.431 78.889 119.901 79.4378 119.207 79.8203C118.517 80.2028 117.687 80.394 116.717 80.394ZM115.21 78.8967H116.633C117.298 78.8967 117.853 78.7755 118.298 78.5329C118.742 78.2872 119.077 77.9218 119.301 77.4367C119.525 76.9485 119.637 76.339 119.637 75.6082C119.637 74.8775 119.525 74.2711 119.301 73.7891C119.077 73.304 118.746 72.9417 118.307 72.7022C117.872 72.4597 117.331 72.3384 116.684 72.3384H115.21V78.8967ZM126.048 80.534C125.348 80.534 124.742 80.38 124.229 80.0722C123.716 79.7643 123.318 79.3336 123.035 78.7801C122.755 78.2266 122.615 77.5798 122.615 76.8397C122.615 76.0996 122.755 75.4512 123.035 74.8946C123.318 74.3379 123.716 73.9057 124.229 73.5978C124.742 73.29 125.348 73.136 126.048 73.136C126.748 73.136 127.354 73.29 127.867 73.5978C128.38 73.9057 128.777 74.3379 129.057 74.8946C129.339 75.4512 129.481 76.0996 129.481 76.8397C129.481 77.5798 129.339 78.2266 129.057 78.7801C128.777 79.3336 128.38 79.7643 127.867 80.0722C127.354 80.38 126.748 80.534 126.048 80.534ZM126.057 79.1813C126.437 79.1813 126.754 79.0771 127.009 78.8687C127.264 78.6573 127.453 78.3743 127.578 78.0198C127.705 77.6653 127.769 77.2704 127.769 76.835C127.769 76.3965 127.705 76.0001 127.578 75.6456C127.453 75.2879 127.264 75.0034 127.009 74.792C126.754 74.5805 126.437 74.4748 126.057 74.4748C125.669 74.4748 125.345 74.5805 125.087 74.792C124.832 75.0034 124.641 75.2879 124.513 75.6456C124.389 76.0001 124.327 76.3965 124.327 76.835C124.327 77.2704 124.389 77.6653 124.513 78.0198C124.641 78.3743 124.832 78.6573 125.087 78.8687C125.345 79.0771 125.669 79.1813 126.057 79.1813ZM134.226 80.394H130.989V70.8411H134.291C135.24 70.8411 136.054 71.0323 136.735 71.4148C137.42 71.7942 137.945 72.34 138.312 73.0521C138.679 73.7642 138.863 74.6163 138.863 75.6082C138.863 76.6033 138.677 77.4585 138.307 78.1737C137.94 78.889 137.41 79.4378 136.717 79.8203C136.026 80.2028 135.196 80.394 134.226 80.394ZM132.719 78.8967H134.142C134.807 78.8967 135.363 78.7755 135.807 78.5329C136.252 78.2872 136.586 77.9218 136.81 77.4367C137.034 76.9485 137.146 76.339 137.146 75.6082C137.146 74.8775 137.034 74.2711 136.81 73.7891C136.586 73.304 136.255 72.9417 135.817 72.7022C135.381 72.4597 134.84 72.3384 134.193 72.3384H132.719V78.8967ZM151.942 74.0643H150.197C150.148 73.7782 150.056 73.5248 149.922 73.304C149.788 73.0801 149.622 72.8904 149.423 72.7349C149.224 72.5794 148.997 72.4628 148.742 72.3851C148.49 72.3042 148.218 72.2638 147.926 72.2638C147.406 72.2638 146.946 72.3944 146.545 72.6556C146.144 72.9137 145.83 73.2931 145.603 73.7937C145.376 74.2913 145.262 74.8992 145.262 75.6176C145.262 76.3483 145.376 76.9641 145.603 77.4647C145.833 77.9623 146.147 78.3385 146.545 78.5935C146.946 78.8454 147.405 78.9714 147.921 78.9714C148.207 78.9714 148.475 78.934 148.723 78.8594C148.975 78.7817 149.201 78.6682 149.4 78.5189C149.602 78.3696 149.771 78.1862 149.908 77.9685C150.048 77.7508 150.144 77.502 150.197 77.2222L151.942 77.2315C151.877 77.6855 151.735 78.1115 151.517 78.5096C151.303 78.9076 151.021 79.259 150.673 79.5638C150.325 79.8654 149.917 80.1017 149.451 80.2728C148.985 80.4407 148.467 80.5246 147.898 80.5246C147.058 80.5246 146.309 80.3303 145.649 79.9416C144.99 79.5529 144.471 78.9916 144.091 78.2577C143.712 77.5238 143.522 76.6438 143.522 75.6176C143.522 74.5883 143.714 73.7082 144.096 72.9775C144.479 72.2436 144.999 71.6823 145.659 71.2936C146.318 70.9048 147.064 70.7105 147.898 70.7105C148.429 70.7105 148.924 70.7851 149.381 70.9344C149.838 71.0837 150.245 71.3029 150.603 71.5921C150.961 71.8782 151.255 72.2296 151.485 72.6463C151.718 73.0599 151.87 73.5325 151.942 74.0643ZM155.141 76.196V80.394H153.452V70.8411H155.103V74.4468H155.187C155.355 74.0425 155.615 73.7238 155.966 73.4906C156.321 73.2542 156.772 73.136 157.319 73.136C157.816 73.136 158.25 73.2402 158.62 73.4486C158.99 73.6569 159.276 73.9617 159.479 74.3628C159.684 74.764 159.786 75.2537 159.786 75.8321V80.394H158.098V76.0934C158.098 75.6114 157.973 75.2366 157.725 74.9692C157.479 74.6987 157.134 74.5634 156.689 74.5634C156.391 74.5634 156.123 74.6287 155.887 74.7593C155.654 74.8868 155.47 75.0718 155.336 75.3144C155.206 75.5569 155.141 75.8508 155.141 76.196ZM163.569 80.5386C163.115 80.5386 162.706 80.4578 162.343 80.2961C161.982 80.1313 161.696 79.8887 161.484 79.5684C161.276 79.2481 161.172 78.8532 161.172 78.3836C161.172 77.9794 161.246 77.6451 161.396 77.3808C161.545 77.1164 161.749 76.905 162.007 76.7464C162.265 76.5878 162.556 76.4681 162.879 76.3872C163.205 76.3033 163.543 76.2426 163.891 76.2053C164.311 76.1618 164.651 76.1229 164.913 76.0887C165.174 76.0514 165.364 75.9954 165.482 75.9208C165.603 75.843 165.664 75.7233 165.664 75.5616V75.5336C165.664 75.1822 165.56 74.9101 165.351 74.7173C165.143 74.5245 164.843 74.4281 164.451 74.4281C164.037 74.4281 163.709 74.5183 163.467 74.6987C163.227 74.879 163.066 75.092 162.982 75.3377L161.405 75.1138C161.529 74.6784 161.735 74.3146 162.021 74.0223C162.307 73.7269 162.657 73.5061 163.07 73.3599C163.484 73.2107 163.941 73.136 164.442 73.136C164.787 73.136 165.13 73.1765 165.472 73.2573C165.815 73.3382 166.127 73.4719 166.41 73.6585C166.693 73.8419 166.92 74.0923 167.091 74.4095C167.265 74.7266 167.352 75.1231 167.352 75.5989V80.394H165.729V79.4098H165.673C165.57 79.6088 165.426 79.7954 165.239 79.9696C165.056 80.1406 164.824 80.279 164.544 80.3847C164.267 80.4873 163.942 80.5386 163.569 80.5386ZM164.008 79.2979C164.347 79.2979 164.641 79.231 164.889 79.0973C165.138 78.9605 165.329 78.7801 165.463 78.5562C165.6 78.3323 165.668 78.0882 165.668 77.8239V76.9796C165.615 77.0231 165.525 77.0636 165.398 77.1009C165.273 77.1382 165.133 77.1709 164.978 77.1988C164.823 77.2268 164.669 77.2517 164.516 77.2735C164.364 77.2952 164.232 77.3139 164.12 77.3295C163.868 77.3637 163.642 77.4196 163.443 77.4974C163.244 77.5751 163.087 77.684 162.972 77.8239C162.857 77.9607 162.8 78.138 162.8 78.3556C162.8 78.6666 162.913 78.9014 163.14 79.06C163.367 79.2186 163.656 79.2979 164.008 79.2979ZM170.739 76.196V80.394H169.05V73.2293H170.664V74.4468H170.748C170.913 74.0456 171.176 73.7269 171.536 73.4906C171.9 73.2542 172.349 73.136 172.884 73.136C173.379 73.136 173.809 73.2418 174.176 73.4532C174.546 73.6647 174.833 73.971 175.035 74.3721C175.24 74.7733 175.341 75.26 175.338 75.8321V80.394H173.649V76.0934C173.649 75.6145 173.525 75.2397 173.276 74.9692C173.031 74.6987 172.69 74.5634 172.255 74.5634C171.959 74.5634 171.696 74.6287 171.466 74.7593C171.239 74.8868 171.061 75.0718 170.93 75.3144C170.802 75.5569 170.739 75.8508 170.739 76.196ZM180.17 83.2301C179.564 83.2301 179.043 83.1477 178.608 82.9829C178.172 82.8211 177.823 82.6035 177.558 82.3298C177.294 82.0562 177.11 81.753 177.008 81.4202L178.528 81.0517C178.597 81.1917 178.696 81.3301 178.827 81.4669C178.958 81.6068 179.133 81.7219 179.354 81.8121C179.578 81.9053 179.859 81.952 180.198 81.952C180.677 81.952 181.074 81.8354 181.388 81.6022C181.702 81.372 181.859 80.9927 181.859 80.464V79.1066H181.775C181.688 79.2808 181.56 79.4596 181.392 79.6431C181.228 79.8265 181.008 79.9805 180.735 80.1048C180.464 80.2292 180.124 80.2914 179.713 80.2914C179.163 80.2914 178.664 80.1624 178.216 79.9043C177.771 79.6431 177.417 79.2543 177.152 78.7381C176.891 78.2188 176.761 77.5689 176.761 76.7884C176.761 76.0016 176.891 75.3377 177.152 74.7966C177.417 74.2524 177.773 73.8404 178.221 73.5605C178.668 73.2775 179.167 73.136 179.718 73.136C180.138 73.136 180.483 73.2076 180.753 73.3506C181.027 73.4906 181.245 73.66 181.406 73.859C181.568 74.055 181.691 74.24 181.775 74.4141H181.868V73.2293H183.533V80.5107C183.533 81.1233 183.387 81.6301 183.095 82.0313C182.803 82.4324 182.403 82.7325 181.896 82.9315C181.389 83.1306 180.814 83.2301 180.17 83.2301ZM180.184 78.9667C180.542 78.9667 180.847 78.8796 181.099 78.7055C181.35 78.5313 181.542 78.281 181.672 77.9545C181.803 77.628 181.868 77.2362 181.868 76.779C181.868 76.3281 181.803 75.9332 181.672 75.5942C181.545 75.2553 181.355 74.9925 181.103 74.8059C180.854 74.6163 180.548 74.5214 180.184 74.5214C179.808 74.5214 179.494 74.6194 179.242 74.8153C178.99 75.0112 178.801 75.2802 178.673 75.6222C178.546 75.9612 178.482 76.3468 178.482 76.779C178.482 77.2175 178.546 77.6015 178.673 77.9312C178.804 78.2577 178.995 78.5127 179.247 78.6962C179.502 78.8765 179.814 78.9667 180.184 78.9667ZM188.436 80.534C187.718 80.534 187.097 80.3847 186.575 80.0862C186.055 79.7845 185.656 79.3585 185.376 78.8081C185.096 78.2546 184.956 77.6031 184.956 76.8537C184.956 76.1167 185.096 75.4699 185.376 74.9132C185.659 74.3535 186.054 73.9181 186.561 73.6072C187.068 73.2931 187.663 73.136 188.347 73.136C188.789 73.136 189.206 73.2076 189.597 73.3506C189.992 73.4906 190.341 73.7082 190.642 74.0036C190.947 74.2991 191.186 74.6753 191.361 75.1325C191.535 75.5865 191.622 76.1276 191.622 76.7557V77.2735H185.749V76.1353H190.003C190 75.8119 189.93 75.5243 189.793 75.2724C189.656 75.0174 189.465 74.8168 189.22 74.6707C188.977 74.5245 188.694 74.4514 188.371 74.4514C188.025 74.4514 187.722 74.5354 187.461 74.7033C187.2 74.8681 186.996 75.0858 186.85 75.3564C186.707 75.6238 186.634 75.9177 186.631 76.238V77.2315C186.631 77.6482 186.707 78.0058 186.859 78.3043C187.012 78.5998 187.225 78.8268 187.498 78.9854C187.772 79.1408 188.092 79.2186 188.459 79.2186C188.705 79.2186 188.927 79.1844 189.126 79.116C189.325 79.0444 189.498 78.9403 189.644 78.8034C189.79 78.6666 189.901 78.4971 189.975 78.295L191.552 78.4723C191.452 78.889 191.263 79.2528 190.983 79.5638C190.706 79.8716 190.351 80.1111 189.919 80.2821C189.487 80.45 188.993 80.534 188.436 80.534Z" fill="white" fill-opacity="0.6"/>
<path d="M202.225 72.2058V80.394H200.742V73.6491H200.694L198.779 74.8726V73.5132L200.814 72.2058H202.225ZM207.635 72.2058V80.394H206.151V73.6491H206.103L204.188 74.8726V73.5132L206.223 72.2058H207.635ZM214.092 78.8587V78.4269C214.092 78.1098 214.158 77.8179 214.292 77.5513C214.428 77.2848 214.625 77.0702 214.883 76.9076C215.142 76.7451 215.455 76.6638 215.823 76.6638C216.201 76.6638 216.519 76.7451 216.774 76.9076C217.03 77.0676 217.224 77.2808 217.354 77.5474C217.487 77.8139 217.554 78.1071 217.554 78.4269V78.8587C217.554 79.1759 217.487 79.4678 217.354 79.7343C217.221 80.0009 217.025 80.2155 216.766 80.3781C216.511 80.5406 216.196 80.6219 215.823 80.6219C215.45 80.6219 215.134 80.5406 214.875 80.3781C214.617 80.2155 214.421 80.0009 214.288 79.7343C214.157 79.4678 214.092 79.1759 214.092 78.8587ZM215.135 78.4269V78.8587C215.135 79.0693 215.186 79.2626 215.287 79.4385C215.388 79.6144 215.567 79.7024 215.823 79.7024C216.081 79.7024 216.259 79.6157 216.355 79.4425C216.453 79.2666 216.503 79.072 216.503 78.8587V78.4269C216.503 78.2137 216.456 78.0191 216.363 77.8432C216.269 77.6646 216.089 77.5753 215.823 77.5753C215.572 77.5753 215.395 77.6646 215.291 77.8432C215.187 78.0191 215.135 78.2137 215.135 78.4269ZM209.93 74.1729V73.7411C209.93 73.4212 209.998 73.1281 210.133 72.8615C210.269 72.595 210.467 72.3817 210.725 72.2218C210.984 72.0592 211.297 71.9779 211.665 71.9779C212.041 71.9779 212.356 72.0592 212.612 72.2218C212.871 72.3817 213.065 72.595 213.196 72.8615C213.327 73.1281 213.392 73.4212 213.392 73.7411V74.1729C213.392 74.4928 213.325 74.786 213.192 75.0525C213.061 75.3164 212.867 75.5283 212.608 75.6882C212.35 75.8481 212.035 75.9281 211.665 75.9281C211.289 75.9281 210.972 75.8481 210.713 75.6882C210.457 75.5283 210.263 75.315 210.129 75.0485C209.996 74.782 209.93 74.4901 209.93 74.1729ZM210.981 73.7411V74.1729C210.981 74.3861 211.03 74.5807 211.129 74.7566C211.23 74.9299 211.409 75.0165 211.665 75.0165C211.921 75.0165 212.097 74.9299 212.193 74.7566C212.291 74.5807 212.34 74.3861 212.34 74.1729V73.7411C212.34 73.5279 212.294 73.3333 212.201 73.1574C212.107 72.9788 211.929 72.8895 211.665 72.8895C211.412 72.8895 211.234 72.9788 211.133 73.1574C211.032 73.336 210.981 73.5305 210.981 73.7411ZM210.385 80.394L216.015 72.2058H217.014L211.385 80.394H210.385Z" fill="#F64F59"/>
<path d="M227.861 77.9741L225.068 80.7888C224.914 80.9207 224.738 80.9867 224.562 80.9867C224.364 80.9867 224.188 80.9207 224.057 80.7888L221.264 77.9741C221.044 77.7762 220.978 77.4683 221.088 77.2044C221.198 76.9406 221.462 76.7646 221.748 76.7646H227.355C227.641 76.7646 227.883 76.9406 227.993 77.2044C228.103 77.4683 228.059 77.7762 227.861 77.9741Z" fill="#F64F59"/>
<path d="M318.01 137.724C314.367 137.724 311.442 140.674 311.442 144.292C311.442 147.935 314.367 150.859 318.01 150.859C321.627 150.859 324.578 147.935 324.578 144.292C324.578 140.674 321.627 137.724 318.01 137.724ZM318.01 141.008C318.446 141.008 318.831 141.393 318.831 141.829C318.831 142.291 318.446 142.65 318.01 142.65C317.548 142.65 317.189 142.291 317.189 141.829C317.189 141.393 317.548 141.008 318.01 141.008ZM319.036 147.576H316.984C316.625 147.576 316.368 147.319 316.368 146.96C316.368 146.626 316.625 146.344 316.984 146.344H317.394V144.702H317.189C316.83 144.702 316.573 144.446 316.573 144.087C316.573 143.753 316.83 143.471 317.189 143.471H318.01C318.344 143.471 318.626 143.753 318.626 144.087V146.344H319.036C319.37 146.344 319.652 146.626 319.652 146.96C319.652 147.319 319.37 147.576 319.036 147.576Z" fill="white" fill-opacity="0.6"/>
</g>
<defs>
<filter id="filter0_d_360_22143" x="0.34375" y="92.8853" width="297.57" height="198.118" filterUnits="userSpaceOnUse" color-interpolation-filters="sRGB">
<feFlood flood-opacity="0" result="BackgroundImageFix"/>
<feColorMatrix in="SourceAlpha" type="matrix" values="0 0 0 0 0 0 0 0 0 0 0 0 0 0 0 0 0 0 127 0" result="hardAlpha"/>
<feOffset dy="4"/>
<feGaussianBlur stdDeviation="12"/>
<feColorMatrix type="matrix" values="0 0 0 0 0.0235294 0 0 0 0 0.0941176 0 0 0 0 0.172549 0 0 0 0.4 0"/>
<feBlend mode="normal" in2="BackgroundImageFix" result="effect1_dropShadow_360_22143"/>
<feBlend mode="normal" in="SourceGraphic" in2="effect1_dropShadow_360_22143" result="shape"/>
</filter>
<filter id="filter1_d_360_22143" x="69.7725" y="0" width="297.57" height="198.118" filterUnits="userSpaceOnUse" color-interpolation-filters="sRGB">
<feFlood flood-opacity="0" result="BackgroundImageFix"/>
<feColorMatrix in="SourceAlpha" type="matrix" values="0 0 0 0 0 0 0 0 0 0 0 0 0 0 0 0 0 0 127 0" result="hardAlpha"/>
<feOffset dy="4"/>
<feGaussianBlur stdDeviation="12"/>
<feColorMatrix type="matrix" values="0 0 0 0 0.0235294 0 0 0 0 0.0941176 0 0 0 0 0.172549 0 0 0 0.4 0"/>
<feBlend mode="normal" in2="BackgroundImageFix" result="effect1_dropShadow_360_22143"/>
<feBlend mode="normal" in="SourceGraphic" in2="effect1_dropShadow_360_22143" result="shape"/>
</filter>
</defs>
</svg>
