<svg width="120" height="120" viewBox="0 0 120 120" fill="none" xmlns="http://www.w3.org/2000/svg">
<g filter="url(#filter0_d_1372_28078)">
<rect x="32" y="28" width="56" height="56" rx="12" fill="url(#paint0_linear_1372_28078)" fill-opacity="0.9" shape-rendering="crispEdges"/>
<path d="M55.0015 51H55.0105M61.0015 58H67.0015C67.9335 58 68.3995 58 68.7665 58.152C69.0093 58.2525 69.23 58.3999 69.4158 58.5857C69.6016 58.7716 69.749 58.9922 69.8495 59.235C70.0015 59.602 70.0015 60.068 70.0015 61C70.0015 61.932 70.0015 62.398 69.8495 62.765C69.749 63.0078 69.6016 63.2284 69.4158 63.4143C69.23 63.6001 69.0093 63.7475 68.7665 63.848C68.3995 64 67.9335 64 67.0015 64H61.0015M63.0015 49H67.0015C67.9335 49 68.3995 49 68.7665 49.152C69.0093 49.2525 69.23 49.3999 69.4158 49.5857C69.6016 49.7716 69.749 49.9922 69.8495 50.235C70.0015 50.602 70.0015 51.068 70.0015 52C70.0015 52.932 70.0015 53.398 69.8495 53.765C69.749 54.0078 69.6016 54.2284 69.4158 54.4143C69.23 54.6001 69.0093 54.7475 68.7665 54.848C68.3995 55 67.9335 55 67.0015 55H63.0015M55.0015 46C53.9006 45.9997 52.8303 46.3627 51.9567 47.0328C51.0832 47.7029 50.4553 48.6426 50.1703 49.706C49.8854 50.7695 49.9595 51.8972 50.381 52.9143C50.8025 53.9313 51.5479 54.7809 52.5015 55.331V61.843C52.5015 62.661 52.5015 63.069 52.6535 63.437C52.8055 63.804 53.0955 64.093 53.6735 64.672L55.0015 66L57.1095 63.892C57.2065 63.795 57.2555 63.746 57.2955 63.693C57.4015 63.5545 57.4694 63.3908 57.4925 63.218C57.5015 63.152 57.5015 63.083 57.5015 62.946C57.5015 62.835 57.5015 62.779 57.4955 62.725C57.4799 62.5833 57.4343 62.4466 57.3615 62.324C57.3222 62.2617 57.2795 62.2016 57.2335 62.144L56.0015 60.5L56.7015 59.567C57.0975 59.038 57.2965 58.774 57.3985 58.466C57.5015 58.158 57.5015 57.828 57.5015 57.166V55.331C58.4552 54.7809 59.2006 53.9313 59.6221 52.9143C60.0436 51.8972 60.1176 50.7695 59.8327 49.706C59.5478 48.6426 58.9198 47.7029 58.0463 47.0328C57.1727 46.3627 56.1025 45.9997 55.0015 46Z" stroke="white" stroke-width="2" stroke-linecap="round" stroke-linejoin="round"/>
</g>
<defs>
<filter id="filter0_d_1372_28078" x="0" y="0" width="120" height="120" filterUnits="userSpaceOnUse" color-interpolation-filters="sRGB">
<feFlood flood-opacity="0" result="BackgroundImageFix"/>
<feColorMatrix in="SourceAlpha" type="matrix" values="0 0 0 0 0 0 0 0 0 0 0 0 0 0 0 0 0 0 127 0" result="hardAlpha"/>
<feOffset dy="4"/>
<feGaussianBlur stdDeviation="16"/>
<feComposite in2="hardAlpha" operator="out"/>
<feColorMatrix type="matrix" values="0 0 0 0 0.929412 0 0 0 0 0.282353 0 0 0 0 0.568627 0 0 0 0.33 0"/>
<feBlend mode="normal" in2="BackgroundImageFix" result="effect1_dropShadow_1372_28078"/>
<feBlend mode="normal" in="SourceGraphic" in2="effect1_dropShadow_1372_28078" result="shape"/>
</filter>
<linearGradient id="paint0_linear_1372_28078" x1="65.1852" y1="17.8126" x2="77.6036" y2="81.5816" gradientUnits="userSpaceOnUse">
<stop offset="0.168198" stop-color="#FF9DC8"/>
<stop offset="0.984375" stop-color="#EB2B7E"/>
</linearGradient>
</defs>
</svg>
