<svg width="120" height="120" viewBox="0 0 120 120" fill="none" xmlns="http://www.w3.org/2000/svg">
<g filter="url(#filter0_d_1372_28086)">
<rect x="32" y="28" width="56" height="56" rx="12" fill="url(#paint0_linear_1372_28086)" fill-opacity="0.9" shape-rendering="crispEdges"/>
<path d="M69.6781 63.7H57.5781V67H69.6781V63.7Z" stroke="white" stroke-width="2" stroke-linejoin="round"/>
<path d="M57.5708 63.7C53.9851 59.7825 51.9278 57.5121 51.3987 56.8888C50.605 55.9538 50.9383 54.8978 52.9249 54.8978C54.9115 54.8978 56.0572 57.8046 57.5708 57.8046C57.5799 57.8068 57.5805 54.0893 57.5724 46.6522C57.5721 46.4354 57.6145 46.2207 57.6973 46.0204C57.78 45.82 57.9014 45.6379 58.0545 45.4844C58.2076 45.331 58.3895 45.2092 58.5897 45.1261C58.7899 45.043 59.0045 45.0001 59.2213 45H59.223C59.44 44.9999 59.6549 45.0426 59.8554 45.1256C60.0559 45.2086 60.2381 45.3303 60.3916 45.4837C60.5451 45.6372 60.6668 45.8193 60.7499 46.0198C60.833 46.2203 60.8757 46.4352 60.8757 46.6522V51.0577C65.2603 51.7221 67.6442 52.0888 68.0274 52.1577C68.6021 52.2611 69.6708 52.81 69.6708 54.3874V63.7H57.5708Z" stroke="white" stroke-width="2" stroke-linejoin="round"/>
</g>
<defs>
<filter id="filter0_d_1372_28086" x="0" y="0" width="120" height="120" filterUnits="userSpaceOnUse" color-interpolation-filters="sRGB">
<feFlood flood-opacity="0" result="BackgroundImageFix"/>
<feColorMatrix in="SourceAlpha" type="matrix" values="0 0 0 0 0 0 0 0 0 0 0 0 0 0 0 0 0 0 127 0" result="hardAlpha"/>
<feOffset dy="4"/>
<feGaussianBlur stdDeviation="16"/>
<feComposite in2="hardAlpha" operator="out"/>
<feColorMatrix type="matrix" values="0 0 0 0 0.929412 0 0 0 0 0.282353 0 0 0 0 0.568627 0 0 0 0.33 0"/>
<feBlend mode="normal" in2="BackgroundImageFix" result="effect1_dropShadow_1372_28086"/>
<feBlend mode="normal" in="SourceGraphic" in2="effect1_dropShadow_1372_28086" result="shape"/>
</filter>
<linearGradient id="paint0_linear_1372_28086" x1="65.1852" y1="17.8126" x2="77.6036" y2="81.5816" gradientUnits="userSpaceOnUse">
<stop offset="0.168198" stop-color="#FF9DC8"/>
<stop offset="0.984375" stop-color="#EB2B7E"/>
</linearGradient>
</defs>
</svg>
