<svg width="120" height="120" viewBox="0 0 120 120" fill="none" xmlns="http://www.w3.org/2000/svg">
<g filter="url(#filter0_d_1372_27857)">
<rect x="32" y="28" width="56" height="56" rx="12" fill="url(#paint0_linear_1372_27857)" fill-opacity="0.9" shape-rendering="crispEdges"/>
<g clip-path="url(#clip0_1372_27857)">
<path d="M55.9453 50.158H70.9985M55.9453 55.9477H70.9985M55.9453 61.7374H70.9985" stroke="white" stroke-width="2.5" stroke-linecap="round"/>
<path d="M51.3159 50.1579C51.3159 50.465 51.1939 50.7596 50.9767 50.9767C50.7596 51.1939 50.465 51.3159 50.1579 51.3159C49.8508 51.3159 49.5563 51.1939 49.3392 50.9767C49.122 50.7596 49 50.465 49 50.1579C49 49.8508 49.122 49.5563 49.3392 49.3392C49.5563 49.122 49.8508 49 50.1579 49C50.465 49 50.7596 49.122 50.9767 49.3392C51.1939 49.5563 51.3159 49.8508 51.3159 50.1579ZM51.3159 55.9476C51.3159 56.2547 51.1939 56.5493 50.9767 56.7664C50.7596 56.9836 50.465 57.1056 50.1579 57.1056C49.8508 57.1056 49.5563 56.9836 49.3392 56.7664C49.122 56.5493 49 56.2547 49 55.9476C49 55.6405 49.122 55.346 49.3392 55.1289C49.5563 54.9117 49.8508 54.7897 50.1579 54.7897C50.465 54.7897 50.7596 54.9117 50.9767 55.1289C51.1939 55.346 51.3159 55.6405 51.3159 55.9476ZM51.3159 61.7373C51.3159 62.0444 51.1939 62.339 50.9767 62.5561C50.7596 62.7733 50.465 62.8953 50.1579 62.8953C49.8508 62.8953 49.5563 62.7733 49.3392 62.5561C49.122 62.339 49 62.0444 49 61.7373C49 61.4302 49.122 61.1357 49.3392 60.9186C49.5563 60.7014 49.8508 60.5794 50.1579 60.5794C50.465 60.5794 50.7596 60.7014 50.9767 60.9186C51.1939 61.1357 51.3159 61.4302 51.3159 61.7373Z" fill="white"/>
</g>
</g>
<defs>
<filter id="filter0_d_1372_27857" x="0" y="0" width="120" height="120" filterUnits="userSpaceOnUse" color-interpolation-filters="sRGB">
<feFlood flood-opacity="0" result="BackgroundImageFix"/>
<feColorMatrix in="SourceAlpha" type="matrix" values="0 0 0 0 0 0 0 0 0 0 0 0 0 0 0 0 0 0 127 0" result="hardAlpha"/>
<feOffset dy="4"/>
<feGaussianBlur stdDeviation="16"/>
<feComposite in2="hardAlpha" operator="out"/>
<feColorMatrix type="matrix" values="0 0 0 0 0.929412 0 0 0 0 0.282353 0 0 0 0 0.568627 0 0 0 0.33 0"/>
<feBlend mode="normal" in2="BackgroundImageFix" result="effect1_dropShadow_1372_27857"/>
<feBlend mode="normal" in="SourceGraphic" in2="effect1_dropShadow_1372_27857" result="shape"/>
</filter>
<linearGradient id="paint0_linear_1372_27857" x1="65.1852" y1="17.8126" x2="77.6036" y2="81.5816" gradientUnits="userSpaceOnUse">
<stop offset="0.168198" stop-color="#FF9DC8"/>
<stop offset="0.984375" stop-color="#EB2B7E"/>
</linearGradient>
<clipPath id="clip0_1372_27857">
<rect width="24" height="24" fill="white" transform="translate(48 44)"/>
</clipPath>
</defs>
</svg>
