<svg width="120" height="120" viewBox="0 0 120 120" fill="none" xmlns="http://www.w3.org/2000/svg">
<g filter="url(#filter0_d_1372_27860)">
<rect x="32" y="28" width="56" height="56" rx="12" fill="url(#paint0_linear_1372_27860)" fill-opacity="0.9" shape-rendering="crispEdges"/>
<path d="M54 56C53.4696 56 52.9609 55.7893 52.5858 55.4142C52.2107 55.0391 52 54.5304 52 54C52 53.4696 52.2107 52.9609 52.5858 52.5858C52.9609 52.2107 53.4696 52 54 52M54 56C54.5304 56 55.0391 55.7893 55.4142 55.4142C55.7893 55.0391 56 54.5304 56 54C56 53.4696 55.7893 52.9609 55.4142 52.5858C55.0391 52.2107 54.5304 52 54 52M54 56V64M54 52V48M61.823 59.176C61.6894 58.881 61.4862 58.6229 61.2308 58.4238C60.9755 58.2247 60.6756 58.0906 60.3569 58.033C60.0383 57.9754 59.7104 57.996 59.4015 58.0931C59.0926 58.1902 58.8118 58.3608 58.5834 58.5904C58.355 58.8199 58.1858 59.1014 58.0902 59.4108C57.9946 59.7202 57.9756 60.0482 58.0348 60.3666C58.094 60.6849 58.2296 60.9841 58.4299 61.2385C58.6303 61.4929 58.8894 61.6949 59.185 61.827M60 48V58M66 53C65.4696 53 64.9609 52.7893 64.5858 52.4142C64.2107 52.0391 64 51.5304 64 51C64 50.4696 64.2107 49.9609 64.5858 49.5858C64.9609 49.2107 65.4696 49 66 49M66 53C66.5304 53 67.0391 52.7893 67.4142 52.4142C67.7893 52.0391 68 51.5304 68 51C68 50.4696 67.7893 49.9609 67.4142 49.5858C67.0391 49.2107 66.5304 49 66 49M66 53V58M66 49V48M63 63L65 65L69 61" stroke="white" stroke-width="2" stroke-linecap="round" stroke-linejoin="round"/>
</g>
<defs>
<filter id="filter0_d_1372_27860" x="0" y="0" width="120" height="120" filterUnits="userSpaceOnUse" color-interpolation-filters="sRGB">
<feFlood flood-opacity="0" result="BackgroundImageFix"/>
<feColorMatrix in="SourceAlpha" type="matrix" values="0 0 0 0 0 0 0 0 0 0 0 0 0 0 0 0 0 0 127 0" result="hardAlpha"/>
<feOffset dy="4"/>
<feGaussianBlur stdDeviation="16"/>
<feComposite in2="hardAlpha" operator="out"/>
<feColorMatrix type="matrix" values="0 0 0 0 0.929412 0 0 0 0 0.282353 0 0 0 0 0.568627 0 0 0 0.33 0"/>
<feBlend mode="normal" in2="BackgroundImageFix" result="effect1_dropShadow_1372_27860"/>
<feBlend mode="normal" in="SourceGraphic" in2="effect1_dropShadow_1372_27860" result="shape"/>
</filter>
<linearGradient id="paint0_linear_1372_27860" x1="65.1852" y1="17.8126" x2="77.6036" y2="81.5816" gradientUnits="userSpaceOnUse">
<stop offset="0.168198" stop-color="#FF9DC8"/>
<stop offset="0.984375" stop-color="#EB2B7E"/>
</linearGradient>
</defs>
</svg>
