<svg width="120" height="120" viewBox="0 0 120 120" fill="none" xmlns="http://www.w3.org/2000/svg">
<g filter="url(#filter0_d_1367_27748)">
<rect x="32" y="28" width="56" height="56" rx="12" fill="url(#paint0_linear_1367_27748)" fill-opacity="0.9" shape-rendering="crispEdges"/>
<path d="M55.72 60.456L57.481 59.948L68.084 49.218C68.1676 49.1323 68.2142 49.0172 68.2136 48.8974C68.2131 48.7777 68.1654 48.6629 68.081 48.578L67.446 47.936C67.405 47.8939 67.3559 47.8603 67.3018 47.8373C67.2477 47.8143 67.1895 47.8023 67.1306 47.802C67.0718 47.8017 67.0135 47.8132 66.9591 47.8357C66.9048 47.8582 66.8554 47.8913 66.814 47.933L56.239 58.635L55.72 60.456ZM68.703 46.664L69.338 47.307C70.214 48.194 70.222 49.625 69.354 50.503L58.428 61.561L54.664 62.645C54.4342 62.7094 54.1883 62.6799 53.9802 62.5631C53.7721 62.4463 53.6188 62.2517 53.554 62.022C53.5058 61.8569 53.5051 61.6815 53.552 61.516L54.647 57.676L65.544 46.647C65.7512 46.4384 65.9979 46.2731 66.2696 46.1608C66.5414 46.0485 66.8328 45.9914 67.1269 45.9929C67.4209 45.9944 67.7117 46.0544 67.9823 46.1695C68.2529 46.2845 68.4979 46.4533 68.703 46.664ZM57.184 47.817C57.68 47.817 58.082 48.224 58.082 48.726C58.0828 48.8447 58.0602 48.9624 58.0155 49.0723C57.9708 49.1822 57.9048 49.2822 57.8214 49.3667C57.738 49.4511 57.6388 49.5182 57.5294 49.5643C57.42 49.6103 57.3027 49.6344 57.184 49.635H53.592C52.6 49.635 51.796 50.449 51.796 51.452V62.358C51.796 63.362 52.6 64.176 53.592 64.176H64.368C65.36 64.176 66.165 63.362 66.165 62.358V58.723C66.165 58.221 66.567 57.814 67.063 57.814C67.559 57.814 67.961 58.221 67.961 58.724V62.358C67.961 64.366 66.352 65.994 64.368 65.994H53.592C51.608 65.994 50 64.366 50 62.358V51.452C50 49.445 51.608 47.817 53.592 47.817H57.184Z" fill="white"/>
</g>
<defs>
<filter id="filter0_d_1367_27748" x="0" y="0" width="120" height="120" filterUnits="userSpaceOnUse" color-interpolation-filters="sRGB">
<feFlood flood-opacity="0" result="BackgroundImageFix"/>
<feColorMatrix in="SourceAlpha" type="matrix" values="0 0 0 0 0 0 0 0 0 0 0 0 0 0 0 0 0 0 127 0" result="hardAlpha"/>
<feOffset dy="4"/>
<feGaussianBlur stdDeviation="16"/>
<feComposite in2="hardAlpha" operator="out"/>
<feColorMatrix type="matrix" values="0 0 0 0 0.929412 0 0 0 0 0.282353 0 0 0 0 0.568627 0 0 0 0.33 0"/>
<feBlend mode="normal" in2="BackgroundImageFix" result="effect1_dropShadow_1367_27748"/>
<feBlend mode="normal" in="SourceGraphic" in2="effect1_dropShadow_1367_27748" result="shape"/>
</filter>
<linearGradient id="paint0_linear_1367_27748" x1="65.1852" y1="17.8126" x2="77.6036" y2="81.5816" gradientUnits="userSpaceOnUse">
<stop offset="0.168198" stop-color="#FF9DC8"/>
<stop offset="0.984375" stop-color="#EB2B7E"/>
</linearGradient>
</defs>
</svg>
