<svg width="120" height="120" viewBox="0 0 120 120" fill="none" xmlns="http://www.w3.org/2000/svg">
<g filter="url(#filter0_d_1372_27854)">
<rect x="32" y="28" width="56" height="56" rx="12" fill="url(#paint0_linear_1372_27854)" fill-opacity="0.9" shape-rendering="crispEdges"/>
<g clip-path="url(#clip0_1372_27854)">
<path d="M58.9216 53.7561C58.4261 53.8295 57.9399 53.7781 57.5188 53.6008C57.0934 53.8945 56.2898 54.44 55.597 54.8548M58.9216 53.7561L55.4678 54.6408M58.9216 53.7561C58.8777 54.1458 58.7668 54.488 58.523 54.8785C58.2065 55.3855 57.6621 55.9799 56.7243 56.8507C55.0107 58.4413 53.9758 60.5463 53.9859 62.4981L53.9859 62.4982C53.9931 63.7859 54.4642 64.9059 55.3598 65.7195C55.4691 65.8194 55.6118 65.8748 55.7598 65.8749H55.76H65.3849C65.5424 65.8749 65.6934 65.8124 65.8048 65.701C65.9161 65.5897 65.9787 65.4386 65.9787 65.2812C65.9787 65.1237 65.9161 64.9727 65.8048 64.8613C65.6934 64.75 65.5424 64.6874 65.3849 64.6874H56.0017C55.4675 64.1243 55.179 63.3747 55.174 62.492C55.1656 60.9274 56.0577 59.0908 57.5327 57.7211M58.9216 53.7561L54.3644 54.7756M55.597 54.8548C55.5968 54.855 55.5965 54.8552 55.5963 54.8553L55.4678 54.6408M55.597 54.8548C55.5973 54.8547 55.5975 54.8545 55.5978 54.8544L55.4678 54.6408M55.597 54.8548C55.4031 54.9727 55.1863 55.0479 54.961 55.0754C54.7362 55.1029 54.5082 55.0822 54.2921 55.0149M55.4678 54.6408C55.3041 54.7405 55.1209 54.804 54.9307 54.8273C54.7404 54.8505 54.5473 54.8329 54.3644 54.7756M54.2921 55.0149C54.2929 55.0151 54.2938 55.0154 54.2946 55.0156L54.3644 54.7756M54.2921 55.0149C54.2913 55.0146 54.2905 55.0144 54.2897 55.0141L54.3644 54.7756M54.2921 55.0149C53.8558 54.8873 53.4518 54.5908 53.1193 54.2519C52.784 53.9101 52.5041 53.5077 52.321 53.1419L52.321 53.1418C52.0855 52.6708 52.0847 52.2494 52.2004 51.9113C52.3102 51.5904 52.52 51.3579 52.7022 51.2323C54.4863 49.6869 55.5775 48.0491 55.9321 47.4736C55.8671 47.2593 55.774 46.9357 55.692 46.5864C55.5958 46.1763 55.51 45.7115 55.51 45.3438V45.3436C55.5101 45.2328 55.5412 45.1243 55.5998 45.0303C55.6583 44.9363 55.742 44.8605 55.8413 44.8116L55.8432 44.8106L55.8432 44.8106C55.9423 44.7629 56.0525 44.7432 56.162 44.7538C56.2714 44.7644 56.3758 44.8049 56.4639 44.8707L56.4744 44.8786L56.4742 44.8788C56.4745 44.8791 56.4757 44.8799 56.4777 44.8814C56.5194 44.9124 56.9245 45.2131 57.5177 45.5141C58.1513 45.8357 58.9713 46.1429 59.7764 46.1429C60.5762 46.1429 62.2961 46.2812 63.8222 47.3342C65.3649 48.3986 66.666 50.3675 66.6662 53.9369M66.6662 53.9369C66.6669 54.0996 66.6575 57.5104 65.2555 61.3593C65.2295 61.4323 65.1894 61.4995 65.1376 61.5571C65.0851 61.6155 65.0215 61.6629 64.9506 61.6965C64.8797 61.7302 64.8027 61.7494 64.7243 61.7531C64.6459 61.7569 64.5675 61.745 64.4937 61.7182C64.4199 61.6914 64.3521 61.6503 64.2943 61.5972C64.2365 61.544 64.1898 61.4799 64.1569 61.4086C64.1241 61.3373 64.1057 61.2602 64.1028 61.1817C64.1 61.1037 64.1125 61.0259 64.1398 60.9527C65.473 57.2923 65.4787 53.9614 65.4787 53.9396C65.4787 50.9063 64.4629 49.2738 63.2746 48.3896C62.0725 47.495 60.6477 47.3311 59.7764 47.3311C58.6904 47.3311 57.6505 46.9251 56.9039 46.5374C56.9744 46.815 57.0536 47.0903 57.1416 47.3629C57.1672 47.4402 57.1766 47.5219 57.1693 47.6029C57.162 47.6842 57.1379 47.7631 57.0987 47.8347C57.0373 47.9478 55.8308 50.098 53.4347 52.1674L53.4271 52.1739L53.419 52.1799C53.384 52.2055 53.3457 52.2419 53.3272 52.2939C53.3117 52.3375 53.2951 52.4334 53.3842 52.6116C53.5125 52.8682 53.714 53.1571 53.9451 53.3986C54.1804 53.6444 54.423 53.8165 54.6277 53.8763L54.6362 53.8788L54.6362 53.8789C54.6938 53.898 54.7548 53.9043 54.8151 53.8973C54.8754 53.8903 54.9334 53.8703 54.9851 53.8385L54.9872 53.8372L54.9872 53.8372C55.8487 53.3205 56.9293 52.5662 57.1147 52.4368C57.1246 52.4299 57.132 52.4248 57.1366 52.4216L57.1366 52.4215C57.2356 52.3516 57.3536 52.3137 57.4749 52.3129C57.596 52.312 57.7146 52.3483 57.8146 52.4168C58.0794 52.5981 58.4881 52.6593 58.9534 52.5403C59.4101 52.4235 59.8066 52.1562 60.0199 51.8456L60.02 51.8455C60.2257 51.5462 60.3552 51.2586 60.4121 51.0076C60.4693 50.7552 60.4499 50.5561 60.3817 50.4148C60.3478 50.3447 60.328 50.2687 60.3235 50.191C60.3189 50.1131 60.3297 50.0351 60.3553 49.9615C60.3809 49.8878 60.4207 49.8199 60.4726 49.7617C60.5244 49.7034 60.5872 49.6559 60.6574 49.6219L60.7664 49.8469L60.6574 49.6219C60.7275 49.5879 60.8037 49.5681 60.8816 49.5635C60.9594 49.559 61.0374 49.5698 61.111 49.5954C61.1847 49.621 61.2526 49.6608 61.3108 49.7126C61.3691 49.7645 61.4166 49.8273 61.4506 49.8974L61.4508 49.8978C61.7102 50.4355 61.659 50.9965 61.5195 51.457C61.3801 51.9177 61.1451 52.3035 60.9986 52.517C60.7799 52.8365 60.4772 53.1007 60.1348 53.3072C60.1283 54.0886 59.9884 54.7269 59.5908 55.4029C59.1909 56.0828 58.5367 56.7891 57.5327 57.7211M66.6662 53.9369C66.6662 53.9371 66.6662 53.9373 66.6662 53.9375H66.4162L66.6662 53.9363C66.6662 53.9365 66.6662 53.9367 66.6662 53.9369ZM57.5327 57.7211L57.3626 57.5379M57.5327 57.7211L57.3626 57.5379M57.3626 57.5379C55.8501 58.9425 54.9151 60.842 54.924 62.4934L60.7925 52.3755C60.5704 52.7 60.2452 52.9681 59.8692 53.171C59.8708 53.1779 59.8727 53.1847 59.8746 53.1915C59.8798 53.2105 59.885 53.2293 59.885 53.25C59.885 54.7962 59.3666 55.6776 57.3626 57.5379ZM67.3537 66.6561C67.3537 66.4987 67.2911 66.3477 67.1798 66.2363C67.0684 66.125 66.9174 66.0624 66.7599 66.0624H54.385C54.2276 66.0624 54.0765 66.125 53.9652 66.2363C53.8538 66.3477 53.7913 66.4987 53.7913 66.6561C53.7913 66.8136 53.8538 66.9646 53.9652 67.076C54.0765 67.1873 54.2276 67.2499 54.385 67.2499H66.7599C66.9174 67.2499 67.0684 67.1873 67.1798 67.076C67.2911 66.9646 67.3537 66.8136 67.3537 66.6561Z" fill="white" stroke="white" stroke-width="0.5"/>
<path d="M64.1373 45.8515L64.1372 45.8514C62.9833 45.0737 61.6993 44.75 59.8828 44.75C59.7253 44.75 59.5743 44.8126 59.463 44.9239C59.3516 45.0353 59.2891 45.1863 59.2891 45.3437C59.2891 45.5012 59.3516 45.6522 59.463 45.7636C59.5743 45.8749 59.7253 45.9375 59.8828 45.9375C61.4878 45.9375 62.5494 46.2126 63.474 46.8359C65.0054 47.8697 66.8515 49.9359 66.8515 53.9374V53.9425C66.8515 54.9256 66.8515 56.2702 66.1818 58.9498L66.1817 58.9498L66.1804 58.9556C66.1464 59.1069 66.1729 59.2655 66.2543 59.3975C66.3357 59.5295 66.4655 59.6245 66.6159 59.662C66.7664 59.6995 66.9256 59.6767 67.0595 59.5984L66.9333 59.3826L67.0595 59.5984C67.1934 59.5201 67.2913 59.3925 67.3323 59.2429L67.3323 59.2429L67.3337 59.2375C68.0378 56.4216 68.039 54.9847 68.039 53.9374C68.039 49.4452 65.9254 47.0575 64.1373 45.8515Z" fill="white" stroke="white" stroke-width="0.5"/>
</g>
</g>
<defs>
<filter id="filter0_d_1372_27854" x="0" y="0" width="120" height="120" filterUnits="userSpaceOnUse" color-interpolation-filters="sRGB">
<feFlood flood-opacity="0" result="BackgroundImageFix"/>
<feColorMatrix in="SourceAlpha" type="matrix" values="0 0 0 0 0 0 0 0 0 0 0 0 0 0 0 0 0 0 127 0" result="hardAlpha"/>
<feOffset dy="4"/>
<feGaussianBlur stdDeviation="16"/>
<feComposite in2="hardAlpha" operator="out"/>
<feColorMatrix type="matrix" values="0 0 0 0 0.929412 0 0 0 0 0.282353 0 0 0 0 0.568627 0 0 0 0.33 0"/>
<feBlend mode="normal" in2="BackgroundImageFix" result="effect1_dropShadow_1372_27854"/>
<feBlend mode="normal" in="SourceGraphic" in2="effect1_dropShadow_1372_27854" result="shape"/>
</filter>
<linearGradient id="paint0_linear_1372_27854" x1="65.1852" y1="17.8126" x2="77.6036" y2="81.5816" gradientUnits="userSpaceOnUse">
<stop offset="0.168198" stop-color="#FF9DC8"/>
<stop offset="0.984375" stop-color="#EB2B7E"/>
</linearGradient>
<clipPath id="clip0_1372_27854">
<rect width="17.25" height="24" fill="white" transform="translate(51.375 44)"/>
</clipPath>
</defs>
</svg>
