<svg width="120" height="120" viewBox="0 0 120 120" fill="none" xmlns="http://www.w3.org/2000/svg">
<g filter="url(#filter0_d_1372_27963)">
<rect x="32" y="28" width="56" height="56" rx="12" fill="url(#paint0_linear_1372_27963)" fill-opacity="0.9" shape-rendering="crispEdges"/>
<path d="M64 52.5C63.3078 52.5 62.6311 52.7053 62.0555 53.0899C61.4799 53.4744 61.0313 54.0211 60.7664 54.6606C60.5015 55.3001 60.4322 56.0039 60.5673 56.6828C60.7023 57.3617 61.0356 57.9854 61.5251 58.4749C62.0146 58.9644 62.6383 59.2977 63.3172 59.4327C63.9961 59.5678 64.6999 59.4985 65.3394 59.2336C65.9789 58.9687 66.5256 58.5201 66.9101 57.9445C67.2947 57.3689 67.5 56.6922 67.5 56C67.5 55.0717 67.1313 54.1815 66.4749 53.5251C65.8185 52.8687 64.9283 52.5 64 52.5ZM64 57.5C63.7033 57.5 63.4133 57.412 63.1666 57.2472C62.92 57.0824 62.7277 56.8481 62.6142 56.574C62.5006 56.2999 62.4709 55.9983 62.5288 55.7074C62.5867 55.4164 62.7296 55.1491 62.9393 54.9393C63.1491 54.7296 63.4164 54.5867 63.7074 54.5288C63.9983 54.4709 64.2999 54.5006 64.574 54.6142C64.8481 54.7277 65.0824 54.92 65.2472 55.1666C65.412 55.4133 65.5 55.7033 65.5 56C65.5 56.3978 65.342 56.7794 65.0607 57.0607C64.7794 57.342 64.3978 57.5 64 57.5ZM64 49H56C54.1435 49 52.363 49.7375 51.0503 51.0503C49.7375 52.363 49 54.1435 49 56C49 57.8565 49.7375 59.637 51.0503 60.9497C52.363 62.2625 54.1435 63 56 63H64C65.8565 63 67.637 62.2625 68.9497 60.9497C70.2625 59.637 71 57.8565 71 56C71 54.1435 70.2625 52.363 68.9497 51.0503C67.637 49.7375 65.8565 49 64 49ZM64 61H56C54.6739 61 53.4021 60.4732 52.4645 59.5355C51.5268 58.5979 51 57.3261 51 56C51 54.6739 51.5268 53.4021 52.4645 52.4645C53.4021 51.5268 54.6739 51 56 51H64C65.3261 51 66.5979 51.5268 67.5355 52.4645C68.4732 53.4021 69 54.6739 69 56C69 57.3261 68.4732 58.5979 67.5355 59.5355C66.5979 60.4732 65.3261 61 64 61Z" fill="white"/>
</g>
<defs>
<filter id="filter0_d_1372_27963" x="0" y="0" width="120" height="120" filterUnits="userSpaceOnUse" color-interpolation-filters="sRGB">
<feFlood flood-opacity="0" result="BackgroundImageFix"/>
<feColorMatrix in="SourceAlpha" type="matrix" values="0 0 0 0 0 0 0 0 0 0 0 0 0 0 0 0 0 0 127 0" result="hardAlpha"/>
<feOffset dy="4"/>
<feGaussianBlur stdDeviation="16"/>
<feComposite in2="hardAlpha" operator="out"/>
<feColorMatrix type="matrix" values="0 0 0 0 0.929412 0 0 0 0 0.282353 0 0 0 0 0.568627 0 0 0 0.33 0"/>
<feBlend mode="normal" in2="BackgroundImageFix" result="effect1_dropShadow_1372_27963"/>
<feBlend mode="normal" in="SourceGraphic" in2="effect1_dropShadow_1372_27963" result="shape"/>
</filter>
<linearGradient id="paint0_linear_1372_27963" x1="65.1852" y1="17.8126" x2="77.6036" y2="81.5816" gradientUnits="userSpaceOnUse">
<stop offset="0.168198" stop-color="#FF9DC8"/>
<stop offset="0.984375" stop-color="#EB2B7E"/>
</linearGradient>
</defs>
</svg>
