<svg width="120" height="120" viewBox="0 0 120 120" fill="none" xmlns="http://www.w3.org/2000/svg">
<g filter="url(#filter0_d_1372_28005)">
<rect x="32" y="28" width="56" height="56" rx="12" fill="url(#paint0_linear_1372_28005)" fill-opacity="0.9" shape-rendering="crispEdges"/>
<path d="M57.7692 46H53.1538C52.5169 46 52 46.5169 52 47.1538V64.8462C52 65.4831 52.5169 66 53.1538 66H66.2308C66.8677 66 67.3846 65.4831 67.3846 64.8462V55.6154M57.7692 46H58.1538C60.602 46 62.9499 46.9725 64.681 48.7036C66.4121 50.4347 67.3846 52.7826 67.3846 55.2308V55.6154M57.7692 46C58.6873 46 59.5677 46.3647 60.2169 47.0139C60.8661 47.663 61.2308 48.5435 61.2308 49.4615V51C61.2308 51.6369 61.7477 52.1538 62.3846 52.1538H63.9231C64.8411 52.1538 65.7216 52.5185 66.3708 53.1677C67.0199 53.8169 67.3846 54.6973 67.3846 55.6154M56.6154 59.0769L58.9231 61.3846L62.7692 56" stroke="white" stroke-width="2" stroke-linecap="round" stroke-linejoin="round"/>
</g>
<defs>
<filter id="filter0_d_1372_28005" x="0" y="0" width="120" height="120" filterUnits="userSpaceOnUse" color-interpolation-filters="sRGB">
<feFlood flood-opacity="0" result="BackgroundImageFix"/>
<feColorMatrix in="SourceAlpha" type="matrix" values="0 0 0 0 0 0 0 0 0 0 0 0 0 0 0 0 0 0 127 0" result="hardAlpha"/>
<feOffset dy="4"/>
<feGaussianBlur stdDeviation="16"/>
<feComposite in2="hardAlpha" operator="out"/>
<feColorMatrix type="matrix" values="0 0 0 0 0.929412 0 0 0 0 0.282353 0 0 0 0 0.568627 0 0 0 0.33 0"/>
<feBlend mode="normal" in2="BackgroundImageFix" result="effect1_dropShadow_1372_28005"/>
<feBlend mode="normal" in="SourceGraphic" in2="effect1_dropShadow_1372_28005" result="shape"/>
</filter>
<linearGradient id="paint0_linear_1372_28005" x1="65.1852" y1="17.8126" x2="77.6036" y2="81.5816" gradientUnits="userSpaceOnUse">
<stop offset="0.168198" stop-color="#FF9DC8"/>
<stop offset="0.984375" stop-color="#EB2B7E"/>
</linearGradient>
</defs>
</svg>
