<svg width="120" height="120" viewBox="0 0 120 120" fill="none" xmlns="http://www.w3.org/2000/svg">
<g filter="url(#filter0_d_1372_27970)">
<rect x="32" y="28" width="56" height="56" rx="12" fill="url(#paint0_linear_1372_27970)" fill-opacity="0.9" shape-rendering="crispEdges"/>
<path d="M60 64.5C64.9705 64.5 69 60.339 69 57.5C69 54.661 64.9705 50.5 60 50.5C55.0295 50.5 51 54.664 51 57.5C51 60.336 55.0295 64.5 60 64.5Z" stroke="white" stroke-width="2" stroke-linejoin="round"/>
<path d="M60 60.5C60.7956 60.5 61.5587 60.1839 62.1213 59.6213C62.6839 59.0587 63 58.2956 63 57.5C63 56.7044 62.6839 55.9413 62.1213 55.3787C61.5587 54.8161 60.7956 54.5 60 54.5C59.2044 54.5 58.4413 54.8161 57.8787 55.3787C57.3161 55.9413 57 56.7044 57 57.5C57 58.2956 57.3161 59.0587 57.8787 59.6213C58.4413 60.1839 59.2044 60.5 60 60.5Z" stroke="white" stroke-width="2" stroke-linejoin="round"/>
<path d="M54.6328 49.633L55.9298 51.443M65.8133 49.855L64.5158 51.665M60.0053 47.5V50.5" stroke="white" stroke-width="2" stroke-linecap="round"/>
</g>
<defs>
<filter id="filter0_d_1372_27970" x="0" y="0" width="120" height="120" filterUnits="userSpaceOnUse" color-interpolation-filters="sRGB">
<feFlood flood-opacity="0" result="BackgroundImageFix"/>
<feColorMatrix in="SourceAlpha" type="matrix" values="0 0 0 0 0 0 0 0 0 0 0 0 0 0 0 0 0 0 127 0" result="hardAlpha"/>
<feOffset dy="4"/>
<feGaussianBlur stdDeviation="16"/>
<feComposite in2="hardAlpha" operator="out"/>
<feColorMatrix type="matrix" values="0 0 0 0 0.929412 0 0 0 0 0.282353 0 0 0 0 0.568627 0 0 0 0.33 0"/>
<feBlend mode="normal" in2="BackgroundImageFix" result="effect1_dropShadow_1372_27970"/>
<feBlend mode="normal" in="SourceGraphic" in2="effect1_dropShadow_1372_27970" result="shape"/>
</filter>
<linearGradient id="paint0_linear_1372_27970" x1="65.1852" y1="17.8126" x2="77.6036" y2="81.5816" gradientUnits="userSpaceOnUse">
<stop offset="0.168198" stop-color="#FF9DC8"/>
<stop offset="0.984375" stop-color="#EB2B7E"/>
</linearGradient>
</defs>
</svg>
