<svg width="120" height="120" viewBox="0 0 120 120" fill="none" xmlns="http://www.w3.org/2000/svg">
<g filter="url(#filter0_d_1372_28092)">
<rect x="32" y="28" width="56" height="56" rx="12" fill="url(#paint0_linear_1372_28092)" fill-opacity="0.9" shape-rendering="crispEdges"/>
<path d="M64.1838 46.75H55.8158C54.8178 46.75 54.0078 47.583 54.0078 48.61V63.39C54.0078 64.417 54.8178 65.25 55.8158 65.25H64.1838C65.1818 65.25 65.9918 64.417 65.9918 63.39V48.61C65.9918 47.583 65.1818 46.75 64.1838 46.75Z" stroke="white" stroke-width="2" stroke-linecap="round" stroke-linejoin="round"/>
<path d="M58 49.272H61.994M59.997 62.773C60.0679 62.7774 60.1389 62.7672 60.2057 62.7431C60.2725 62.719 60.3336 62.6815 60.3854 62.6329C60.4371 62.5843 60.4783 62.5256 60.5065 62.4604C60.5347 62.3952 60.5492 62.325 60.5492 62.254C60.5492 62.183 60.5347 62.1127 60.5065 62.0476C60.4783 61.9824 60.4371 61.9237 60.3854 61.8751C60.3336 61.8264 60.2725 61.7889 60.2057 61.7648C60.1389 61.7407 60.0679 61.7306 59.997 61.735C59.8649 61.7432 59.7409 61.8014 59.6503 61.8979C59.5597 61.9943 59.5092 62.1216 59.5092 62.254C59.5092 62.3863 59.5597 62.5137 59.6503 62.6101C59.7409 62.7065 59.8649 62.7648 59.997 62.773Z" stroke="white" stroke-width="2" stroke-linecap="round" stroke-linejoin="round"/>
</g>
<defs>
<filter id="filter0_d_1372_28092" x="0" y="0" width="120" height="120" filterUnits="userSpaceOnUse" color-interpolation-filters="sRGB">
<feFlood flood-opacity="0" result="BackgroundImageFix"/>
<feColorMatrix in="SourceAlpha" type="matrix" values="0 0 0 0 0 0 0 0 0 0 0 0 0 0 0 0 0 0 127 0" result="hardAlpha"/>
<feOffset dy="4"/>
<feGaussianBlur stdDeviation="16"/>
<feComposite in2="hardAlpha" operator="out"/>
<feColorMatrix type="matrix" values="0 0 0 0 0.929412 0 0 0 0 0.282353 0 0 0 0 0.568627 0 0 0 0.33 0"/>
<feBlend mode="normal" in2="BackgroundImageFix" result="effect1_dropShadow_1372_28092"/>
<feBlend mode="normal" in="SourceGraphic" in2="effect1_dropShadow_1372_28092" result="shape"/>
</filter>
<linearGradient id="paint0_linear_1372_28092" x1="65.1852" y1="17.8126" x2="77.6036" y2="81.5816" gradientUnits="userSpaceOnUse">
<stop offset="0.168198" stop-color="#FF9DC8"/>
<stop offset="0.984375" stop-color="#EB2B7E"/>
</linearGradient>
</defs>
</svg>
