<svg width="120" height="120" viewBox="0 0 120 120" fill="none" xmlns="http://www.w3.org/2000/svg">
<g filter="url(#filter0_d_1367_27741)">
<rect x="32" y="28" width="56" height="56" rx="12" fill="url(#paint0_linear_1367_27741)" fill-opacity="0.9" shape-rendering="crispEdges"/>
<path d="M71.375 51.9375C71.375 52.8978 71.1859 53.8487 70.8184 54.7359C70.4509 55.6231 69.9122 56.4292 69.2332 57.1082C68.5542 57.7872 67.7481 58.3259 66.8609 58.6934C65.9737 59.0609 65.0228 59.25 64.0625 59.25C63.1022 59.25 62.1513 59.0609 61.2641 58.6934C60.3769 58.3259 59.5708 57.7872 58.8918 57.1082C58.2128 56.4292 57.6741 55.6231 57.3066 54.7359C56.9391 53.8487 56.75 52.8978 56.75 51.9375C56.75 49.9981 57.5204 48.1381 58.8918 46.7668C60.2631 45.3954 62.1231 44.625 64.0625 44.625C66.0019 44.625 67.8619 45.3954 69.2332 46.7668C70.6046 48.1381 71.375 49.9981 71.375 51.9375ZM67.8878 48.9247C67.8123 48.8491 67.7226 48.7891 67.6239 48.7481C67.5252 48.7071 67.4194 48.686 67.3125 48.686C67.2056 48.686 67.0998 48.7071 67.0011 48.7481C66.9024 48.7891 66.8127 48.8491 66.7372 48.9247L62.4375 53.2261L61.3878 52.1747C61.3122 52.0992 61.2225 52.0393 61.1238 51.9984C61.0251 51.9575 60.9193 51.9365 60.8125 51.9365C60.7057 51.9365 60.5999 51.9575 60.5012 51.9984C60.4025 52.0393 60.3128 52.0992 60.2372 52.1747C60.1617 52.2503 60.1018 52.34 60.0609 52.4387C60.02 52.5374 59.999 52.6432 59.999 52.75C59.999 52.8568 60.02 52.9626 60.0609 53.0613C60.1018 53.16 60.1617 53.2497 60.2372 53.3253L61.8622 54.9503C61.9377 55.0259 62.0274 55.0859 62.1261 55.1269C62.2248 55.1679 62.3306 55.189 62.4375 55.189C62.5444 55.189 62.6502 55.1679 62.7489 55.1269C62.8476 55.0859 62.9373 55.0259 63.0128 54.9503L67.8878 50.0753C67.9634 49.9998 68.0234 49.9101 68.0644 49.8114C68.1054 49.7127 68.1265 49.6069 68.1265 49.5C68.1265 49.3931 68.1054 49.2873 68.0644 49.1886C68.0234 49.0899 67.9634 49.0002 67.8878 48.9247ZM64.0625 60.875C64.1578 60.875 64.2521 60.8734 64.3452 60.8701H66.5C66.7987 60.8704 67.0918 60.7884 67.3469 60.633C67.6021 60.4776 67.8094 60.2549 67.9463 59.9894C68.5963 59.6752 69.1975 59.2895 69.75 58.8324V59.2451C69.75 60.1071 69.4076 60.9337 68.7981 61.5432C68.1886 62.1527 67.362 62.4951 66.5 62.4951H63.2549V64.1364H65.6924C65.9079 64.1364 66.1145 64.222 66.2669 64.3743C66.4193 64.5267 66.5049 64.7334 66.5049 64.9489C66.5049 65.1644 66.4193 65.371 66.2669 65.5234C66.1145 65.6758 65.9079 65.7614 65.6924 65.7614L54.3222 65.763C54.1068 65.763 53.9001 65.6774 53.7477 65.525C53.5954 65.3727 53.5098 65.166 53.5098 64.9505C53.5098 64.735 53.5954 64.5283 53.7477 64.376C53.9001 64.2236 54.1068 64.138 54.3222 64.138H56.7581V62.4967H53.5C52.638 62.4967 51.8114 62.1543 51.2019 61.5448C50.5924 60.9354 50.25 60.1087 50.25 59.2467V49.5C50.25 48.638 50.5924 47.8114 51.2019 47.2019C51.8114 46.5924 52.638 46.25 53.5 46.25H57.1676C56.7537 46.7512 56.3957 47.2961 56.1 47.875H53.5C53.069 47.875 52.6557 48.0462 52.351 48.351C52.0462 48.6557 51.875 49.069 51.875 49.5V59.2451C51.875 59.6761 52.0462 60.0894 52.351 60.3942C52.6557 60.6989 53.069 60.8701 53.5 60.8701H63.7798C63.8729 60.8734 63.9672 60.875 64.0625 60.875ZM61.6299 62.4951H58.3831V64.138H61.6299V62.4951Z" fill="white"/>
</g>
<defs>
<filter id="filter0_d_1367_27741" x="0" y="0" width="120" height="120" filterUnits="userSpaceOnUse" color-interpolation-filters="sRGB">
<feFlood flood-opacity="0" result="BackgroundImageFix"/>
<feColorMatrix in="SourceAlpha" type="matrix" values="0 0 0 0 0 0 0 0 0 0 0 0 0 0 0 0 0 0 127 0" result="hardAlpha"/>
<feOffset dy="4"/>
<feGaussianBlur stdDeviation="16"/>
<feComposite in2="hardAlpha" operator="out"/>
<feColorMatrix type="matrix" values="0 0 0 0 0.929412 0 0 0 0 0.282353 0 0 0 0 0.568627 0 0 0 0.33 0"/>
<feBlend mode="normal" in2="BackgroundImageFix" result="effect1_dropShadow_1367_27741"/>
<feBlend mode="normal" in="SourceGraphic" in2="effect1_dropShadow_1367_27741" result="shape"/>
</filter>
<linearGradient id="paint0_linear_1367_27741" x1="65.1852" y1="17.8126" x2="77.6036" y2="81.5816" gradientUnits="userSpaceOnUse">
<stop offset="0.168198" stop-color="#FF9DC8"/>
<stop offset="0.984375" stop-color="#EB2B7E"/>
</linearGradient>
</defs>
</svg>
