<svg width="120" height="120" viewBox="0 0 120 120" fill="none" xmlns="http://www.w3.org/2000/svg">
<g filter="url(#filter0_d_1372_27851)">
<rect x="32" y="28" width="56" height="56" rx="12" fill="url(#paint0_linear_1372_27851)" fill-opacity="0.9" shape-rendering="crispEdges"/>
<path d="M54.6447 51.525L55.6567 52.1884L54.6435 51.525H54.6447ZM55.2609 59.1706V58.1816H52.8398V59.1706H55.2609ZM55.2609 58.1816V55.8938H52.8398V58.1816H55.2609ZM58.8924 50.346L62.2019 48.9019L61.2335 46.6818L57.924 48.1259L58.8924 50.346ZM52.8398 59.1706C52.8398 60.1947 52.8386 61.0505 52.904 61.7272C52.9694 62.4051 53.1146 63.0878 53.5395 63.6701L55.4945 62.2417C55.4533 62.1848 55.365 62.0238 55.3129 61.4936C55.2633 60.9598 55.2609 60.2431 55.2609 59.1706H52.8398ZM59.1139 61.6945C58.1298 62.1231 57.4725 62.4087 56.9641 62.5746C56.4581 62.7392 56.2753 62.7235 56.2075 62.7077L55.6797 65.0706C56.3818 65.228 57.0669 65.0876 57.7146 64.877C58.361 64.6663 59.1442 64.3225 60.0823 63.9122L59.1139 61.6945ZM53.5395 63.6701C54.0595 64.381 54.8201 64.8788 55.6797 65.0706L56.2075 62.7077C55.9206 62.6439 55.6667 62.4778 55.4933 62.2405L53.5395 63.6701ZM67.366 50.6971C67.366 50.2032 67.366 49.7892 67.3502 49.4563C67.3426 49.1177 67.2909 48.7816 67.1965 48.4564L64.888 49.1875C64.8977 49.2154 64.9195 49.3086 64.9328 49.5713C64.9449 49.8328 64.9449 50.179 64.9449 50.6971H67.366ZM62.2019 48.9007C62.6764 48.6949 62.9936 48.5557 63.2393 48.4625C63.3574 48.411 63.4808 48.3728 63.6073 48.3487L63.3543 45.941C63.0118 45.9773 62.6873 46.0814 62.3762 46.2C62.0651 46.3186 61.6862 46.4845 61.2335 46.6818L62.2019 48.9007ZM67.1965 48.4564C66.9439 47.6587 66.4236 46.9726 65.7235 46.5143C65.0234 46.0559 64.1865 45.8534 63.3543 45.941L63.6085 48.3499C63.8856 48.3209 64.1642 48.3885 64.3973 48.5411C64.6304 48.6937 64.8037 48.922 64.888 49.1875L67.1965 48.4564ZM55.2609 55.8926C55.2609 54.7123 55.2621 53.9231 55.3287 53.313C55.3904 52.7319 55.503 52.4245 55.6567 52.1884L53.6315 50.8629C53.1933 51.5335 53.0081 52.255 52.9222 53.0539C52.8386 53.8238 52.8398 54.7644 52.8398 55.8926H55.2609ZM57.924 48.1259C56.8914 48.5775 56.0283 48.9515 55.3553 49.3364C54.658 49.7335 54.0697 50.1923 53.6303 50.8617L55.6567 52.1884C55.8104 51.9536 56.0477 51.7284 56.5561 51.4379C57.0887 51.134 57.8114 50.8181 58.8924 50.346L57.924 48.1259Z" fill="white"/>
<path d="M49.6293 60.438L48.6283 61.1183L49.6293 60.4368V60.438ZM54.0525 47.925L55.7473 47.1866L54.7789 44.9665L53.0841 45.7061L54.0525 47.925ZM55.7473 47.1866L57.3621 46.4808L56.3937 44.2608L54.7789 44.9665L55.7473 47.1866ZM50.421 56.8404V55.7582H48V56.8404H50.421ZM50.421 55.7582V53.4703H48V55.7582H50.421ZM48 56.8404C48 57.81 47.9988 58.6198 48.0569 59.2614C48.1162 59.9054 48.2457 60.5554 48.6283 61.1183L50.6304 59.7553C50.5941 59.7032 50.5142 59.5471 50.4682 59.0411C50.4222 58.5363 50.421 57.8572 50.421 56.8404H48ZM54.1663 59.2735C53.2367 59.6863 52.6157 59.9623 52.1339 60.1245C51.6545 60.2879 51.4802 60.2782 51.4161 60.2673L50.9863 62.6508C51.6557 62.7719 52.3009 62.6254 52.9122 62.4172C53.5223 62.2114 54.2632 61.8797 55.1493 61.4851L54.1663 59.2735ZM48.6283 61.1195C48.8997 61.5189 49.248 61.8602 49.6529 62.1233C50.0578 62.3865 50.5111 62.565 50.9863 62.6508L51.4161 60.2698C51.2575 60.2413 51.1063 60.1814 50.9711 60.0937C50.836 60.0059 50.7198 59.8921 50.6292 59.7589L48.6295 61.1171L48.6283 61.1195ZM57.3621 46.4796C57.8366 46.2739 58.1538 46.1346 58.3995 46.0414C58.5175 45.9899 58.641 45.9518 58.7675 45.9276L58.5145 43.5199C58.1719 43.5563 57.8475 43.6604 57.5364 43.779C57.2253 43.8976 56.8464 44.0635 56.3937 44.2608L57.3621 46.4796ZM62.5261 48.276C62.5261 47.7821 62.5261 47.3682 62.5104 47.0353C62.5027 46.6967 62.451 46.3606 62.3566 46.0354L60.0482 46.7665C60.0579 46.7944 60.0797 46.8876 60.093 47.1503C60.1051 47.4117 60.1051 47.7579 60.1051 48.276H62.5261ZM58.7675 45.9276C59.0449 45.8985 59.3239 45.966 59.5573 46.1189C59.7907 46.2718 59.9641 46.5005 60.0482 46.7665L62.3566 46.0354C62.1041 45.2376 61.5837 44.5516 60.8837 44.0932C60.1836 43.6349 59.3467 43.4324 58.5145 43.5199L58.7687 45.9289L58.7675 45.9276ZM53.0841 45.7049C52.0516 46.1564 51.1885 46.5305 50.5154 46.9154C49.8182 47.3125 49.2299 47.7713 48.7905 48.4407L50.8169 49.7674C50.9706 49.5325 51.2079 49.3074 51.7163 49.0169C52.2489 48.713 52.9716 48.3971 54.0525 47.925L53.0841 45.7061V45.7049ZM50.421 53.4703C50.421 52.2901 50.4222 51.502 50.4888 50.8919C50.5505 50.3109 50.6631 50.0034 50.8169 49.7674L48.7917 48.4419C48.3535 49.1125 48.1683 49.834 48.0823 50.6329C47.9988 51.4028 48 52.3421 48 53.4703H50.421ZM69.7892 54.8794V57.6066H72.2102V54.8794H69.7892ZM66.1576 63.1544L64.866 63.7173L65.8344 65.9374L67.1261 65.3733L66.1576 63.1544ZM63.7366 52.7658L65.4313 52.0274L64.4629 49.8073L62.7682 50.547L63.7366 52.7658ZM60.1051 60.6014V58.3136H57.6841V60.6014H60.1051ZM64.866 63.7173C63.4546 64.3322 62.5104 64.7426 61.7901 64.9484C61.0844 65.1493 60.8568 65.0719 60.7515 65.0174L59.6209 67.16C60.5457 67.6466 61.5214 67.5413 62.4511 67.2762C63.3662 67.0159 64.4896 66.5233 65.8344 65.9374L64.866 63.7173ZM57.6841 60.6014C57.6841 62.0686 57.6817 63.2924 57.8088 64.2354C57.9383 65.1917 58.2324 66.1286 59.0483 66.7823L60.5602 64.8903C60.467 64.8176 60.306 64.6385 60.208 63.911C60.1075 63.1689 60.1051 62.14 60.1051 60.6014H57.6841ZM60.7515 65.0174C60.6839 64.9816 60.6199 64.9382 60.5602 64.8903L59.0483 66.7823C59.2273 66.9252 59.4194 67.0508 59.6221 67.1576L60.7515 65.015V65.0174ZM69.7892 57.6066C69.7892 58.7869 69.788 59.5761 69.7226 60.1862C69.6596 60.7673 69.5483 61.0748 69.3933 61.3108L71.4197 62.6363C71.8579 61.9657 72.0431 61.2442 72.1291 60.4453C72.2114 59.6754 72.2102 58.7348 72.2102 57.6066H69.7892ZM67.1261 65.3733C68.1586 64.9218 69.0217 64.5477 69.6948 64.1628C70.392 63.7657 70.9803 63.3057 71.4197 62.6363L69.3933 61.3108C69.2396 61.5456 69.0023 61.7708 68.4951 62.0613C67.9613 62.3652 67.2386 62.6823 66.1576 63.1544L67.1261 65.3733ZM72.2102 54.8794C72.2102 53.6108 72.2126 52.5503 72.1146 51.7248C72.0165 50.8907 71.795 50.0627 71.1631 49.4236L69.4405 51.1232C69.5071 51.1909 69.6342 51.3653 69.7105 52.0092C69.7868 52.6593 69.7892 53.549 69.7892 54.8794H72.2102ZM65.4313 52.0262C66.6515 51.4936 67.4674 51.1401 68.0945 50.9513C68.713 50.7636 68.9249 50.8096 69.0144 50.8447L69.8836 48.5847C69.0447 48.2615 68.1961 48.391 67.3924 48.6331C66.5971 48.8752 65.625 49.3001 64.4629 49.8073L65.4313 52.0262ZM71.1631 49.4236C70.8007 49.0561 70.3653 48.7702 69.8836 48.5847L69.0132 50.8447C69.1738 50.9061 69.3195 51.0011 69.4405 51.1232L71.1631 49.4236ZM62.7682 50.547C61.7357 50.9985 60.8726 51.3725 60.1995 51.7575C59.5023 52.1545 58.914 52.6133 58.4745 53.2827L60.5009 54.6094C60.6547 54.3746 60.8919 54.1494 61.3991 53.8589C61.933 53.5551 62.6556 53.2379 63.7366 52.7658L62.7682 50.547ZM60.1051 58.3136C60.1051 57.1333 60.1063 56.3441 60.1729 55.734C60.2346 55.1529 60.3472 54.8455 60.5009 54.6094L58.4745 53.2839C58.0363 53.9545 57.8511 54.676 57.7652 55.4749C57.6829 56.2448 57.6841 57.1854 57.6841 58.3136H60.1051Z" fill="white"/>
</g>
<defs>
<filter id="filter0_d_1372_27851" x="0" y="0" width="120" height="120" filterUnits="userSpaceOnUse" color-interpolation-filters="sRGB">
<feFlood flood-opacity="0" result="BackgroundImageFix"/>
<feColorMatrix in="SourceAlpha" type="matrix" values="0 0 0 0 0 0 0 0 0 0 0 0 0 0 0 0 0 0 127 0" result="hardAlpha"/>
<feOffset dy="4"/>
<feGaussianBlur stdDeviation="16"/>
<feComposite in2="hardAlpha" operator="out"/>
<feColorMatrix type="matrix" values="0 0 0 0 0.929412 0 0 0 0 0.282353 0 0 0 0 0.568627 0 0 0 0.33 0"/>
<feBlend mode="normal" in2="BackgroundImageFix" result="effect1_dropShadow_1372_27851"/>
<feBlend mode="normal" in="SourceGraphic" in2="effect1_dropShadow_1372_27851" result="shape"/>
</filter>
<linearGradient id="paint0_linear_1372_27851" x1="65.1852" y1="17.8126" x2="77.6036" y2="81.5816" gradientUnits="userSpaceOnUse">
<stop offset="0.168198" stop-color="#FF9DC8"/>
<stop offset="0.984375" stop-color="#EB2B7E"/>
</linearGradient>
</defs>
</svg>
