<svg width="120" height="120" viewBox="0 0 120 120" fill="none" xmlns="http://www.w3.org/2000/svg">
<g filter="url(#filter0_d_1372_27956)">
<rect x="32" y="28" width="56" height="56" rx="12" fill="url(#paint0_linear_1372_27956)" fill-opacity="0.9" shape-rendering="crispEdges"/>
<g clip-path="url(#clip0_1372_27956)">
<path d="M69.0552 53.8599C69.5832 53.266 70.4939 52.3684 70.4455 52.0021C70.4829 51.6469 70.2904 51.3125 69.9054 50.6448L69.3621 49.7033C68.9518 48.9905 68.7461 48.6342 68.3974 48.4923C68.0477 48.3493 67.6528 48.4615 66.863 48.6859L65.5211 49.0642C65.0152 49.1808 64.4872 49.1148 64.0263 48.8773L63.6556 48.6639C63.2605 48.4105 62.9568 48.0374 62.7889 47.5991L62.4215 46.5025C62.1795 45.7765 62.0585 45.4136 61.7726 45.2057C61.4833 45 61.1005 45 60.3372 45H59.1118C58.3474 45 57.9657 45 57.6786 45.2068C57.3904 45.4158 57.2706 45.7787 57.0286 46.5047L56.6612 47.6002C56.4933 48.0385 56.1895 48.4116 55.7944 48.665L55.4238 48.8795C54.9629 49.1159 54.4338 49.1819 53.929 49.0653L52.5871 48.687C51.7973 48.4626 51.4024 48.3504 51.0527 48.4934C50.704 48.6353 50.4983 48.9916 50.088 49.7033L49.5446 50.6459C49.1597 51.3136 48.9672 51.648 49.0057 52.0032C49.042 52.3585 49.2994 52.6456 49.8152 53.2187L50.9482 54.4858C51.2264 54.8378 51.4233 55.4493 51.4233 55.9982C51.4233 56.5482 51.2253 57.1597 50.9493 57.5106L49.8152 58.7777C49.2994 59.3508 49.042 59.6368 49.0046 59.9931C48.9672 60.3495 49.1597 60.6828 49.5446 61.3504L50.088 62.292C50.4983 63.0047 50.704 63.3611 51.0527 63.503C51.4024 63.646 51.7973 63.5338 52.5871 63.3094L53.929 62.931C54.4341 62.8152 54.9638 62.8815 55.4249 63.118L55.7944 63.3314C56.1893 63.5844 56.4929 63.9573 56.6612 64.3962L57.0286 65.4928C57.2706 66.2187 57.4025 66.596 57.6236 66.7555C57.6896 66.8028 57.9536 67.0195 58.6004 66.9986M63.3004 61.7387C63.3004 61.7387 64.4003 62.0511 64.9503 63.151C64.9503 63.151 66.1558 60.4012 67.7089 59.8512" stroke="white" stroke-width="2" stroke-linecap="round" stroke-linejoin="round"/>
<path d="M62.3768 53.1868C61.4529 52.4344 60.7269 52.144 59.671 52.144C57.6911 52.1704 55.8828 53.8049 55.8828 55.9322C55.8828 57.1036 56.2392 57.8461 56.9123 58.6248M71.0002 61.4978C71.0002 62.9564 70.4208 64.3553 69.3894 65.3867C68.358 66.4181 66.9592 66.9975 65.5006 66.9975C64.042 66.9975 62.6431 66.4181 61.6118 65.3867C60.5804 64.3553 60.0009 62.9564 60.0009 61.4978C60.0009 60.0392 60.5804 58.6404 61.6118 57.609C62.6431 56.5776 64.042 55.9982 65.5006 55.9982C66.9592 55.9982 68.358 56.5776 69.3894 57.609C70.4208 58.6404 71.0002 60.0392 71.0002 61.4978Z" stroke="white" stroke-width="2" stroke-linecap="round" stroke-linejoin="round"/>
</g>
</g>
<defs>
<filter id="filter0_d_1372_27956" x="0" y="0" width="120" height="120" filterUnits="userSpaceOnUse" color-interpolation-filters="sRGB">
<feFlood flood-opacity="0" result="BackgroundImageFix"/>
<feColorMatrix in="SourceAlpha" type="matrix" values="0 0 0 0 0 0 0 0 0 0 0 0 0 0 0 0 0 0 127 0" result="hardAlpha"/>
<feOffset dy="4"/>
<feGaussianBlur stdDeviation="16"/>
<feComposite in2="hardAlpha" operator="out"/>
<feColorMatrix type="matrix" values="0 0 0 0 0.929412 0 0 0 0 0.282353 0 0 0 0 0.568627 0 0 0 0.33 0"/>
<feBlend mode="normal" in2="BackgroundImageFix" result="effect1_dropShadow_1372_27956"/>
<feBlend mode="normal" in="SourceGraphic" in2="effect1_dropShadow_1372_27956" result="shape"/>
</filter>
<linearGradient id="paint0_linear_1372_27956" x1="65.1852" y1="17.8126" x2="77.6036" y2="81.5816" gradientUnits="userSpaceOnUse">
<stop offset="0.168198" stop-color="#FF9DC8"/>
<stop offset="0.984375" stop-color="#EB2B7E"/>
</linearGradient>
<clipPath id="clip0_1372_27956">
<rect width="24" height="24" fill="white" transform="translate(48 44)"/>
</clipPath>
</defs>
</svg>
