<svg width="120" height="120" viewBox="0 0 120 120" fill="none" xmlns="http://www.w3.org/2000/svg">
<g filter="url(#filter0_d_1367_27745)">
<rect x="32" y="28" width="56" height="56" rx="12" fill="url(#paint0_linear_1367_27745)" fill-opacity="0.9" shape-rendering="crispEdges"/>
<path d="M48.9 62.4881L48.9 62.488L48.9 59.0572C48.9 58.4701 49.0981 57.9744 49.4952 57.5773C49.8923 57.1802 50.3875 56.9821 50.9739 56.9821H58.2376C58.8247 56.9821 59.3204 57.1802 59.7175 57.5773C60.1146 57.9744 60.3123 58.4701 60.3114 59.0572C60.3114 59.0573 60.3114 59.0573 60.3114 59.0574M48.9 62.4881L58.2376 64.4631C58.8006 64.4623 59.2703 64.2737 59.6468 63.8972C60.0232 63.5208 60.2114 63.051 60.2114 62.488V59.0572L60.3114 59.0574M48.9 62.4881C48.9009 63.0767 49.0988 63.5728 49.4952 63.9692C49.8915 64.3655 50.3872 64.5631 50.9751 64.5631H58.2376H58.2377C58.8255 64.5623 59.3212 64.3643 59.7175 63.9679C60.1139 63.5716 60.3114 63.0759 60.3114 62.488L60.3114 59.0574M48.9 62.4881L60.3114 59.0574M61.7625 47.252C61.1761 47.2512 60.6808 47.4489 60.2837 47.846C59.8866 48.2431 59.6886 48.7387 59.6886 49.3259V52.7579L59.6886 52.758L69.0261 54.7318L69.026 54.8318C69.6139 54.8326 70.1097 54.635 70.5061 54.2377C70.9024 53.8406 71.1 53.345 71.1 52.7579V49.326M61.7625 47.252C61.7625 47.252 61.7626 47.252 61.7626 47.252L61.7624 47.352M61.7625 47.252H61.7624V47.352M61.7625 47.252H69.0261C69.6132 47.252 70.1088 47.4496 70.506 47.8459C70.9032 48.2423 71.1008 48.7381 71.1 49.326M61.7624 47.352C61.201 47.3512 60.7317 47.5394 60.3544 47.9167C59.9772 48.2939 59.7886 48.7637 59.7886 49.3259V52.7579L61.7624 47.352ZM71.1 49.326L71 49.3259H71.1V49.326ZM67.0993 64.8875L67.171 64.9583L67.2413 64.886L68.0822 64.0207L68.1511 63.9498L68.0809 63.8801L65.6692 61.4843H71H71.1V61.3843V60.1621V60.0621H71H65.6704L68.0809 57.6664L68.1511 57.5966L68.0821 57.5257L67.24 56.6604L67.1697 56.5881L67.098 56.659L63.0085 60.7021L62.9365 60.7732L63.0085 60.8443L67.0993 64.8875ZM58.7071 58.5877L58.7073 58.5879C58.8273 58.7072 58.8892 58.8607 58.8892 59.0572V62.4892C58.8892 62.6848 58.8273 62.8385 58.7071 62.9587C58.5868 63.079 58.4331 63.1409 58.2376 63.1409H50.9751C50.7786 63.1409 50.6246 63.0789 50.5044 62.9587C50.3841 62.8385 50.3222 62.6848 50.3222 62.4892V59.0572C50.3222 58.8617 50.3841 58.708 50.5044 58.5877C50.6246 58.4675 50.7786 58.4056 50.9751 58.4056H58.2376C58.4331 58.4056 58.5868 58.4675 58.7071 58.5877ZM52.76 55.1315L52.8303 55.2038L52.902 55.1329L56.9915 51.0898L57.0637 51.0184L56.9913 50.9473L52.9005 46.9287L52.8298 46.8592L52.7597 46.9293L51.9188 47.7702L51.8479 47.8411L51.9191 47.9118L54.3308 50.3076H49H48.9V50.4076V51.6298V51.7298H49H54.3308L51.9191 54.1255L51.8489 54.1953L51.9179 54.2662L52.76 55.1315ZM69.0261 53.4096H61.7624C61.5664 53.4096 61.4129 53.3486 61.2929 53.2286C61.1728 53.1084 61.1108 52.9544 61.1108 52.7579V49.3271C61.1108 49.1306 61.1728 48.9766 61.2929 48.8564C61.4132 48.7361 61.5669 48.6742 61.7624 48.6742H69.0261C69.2217 48.6742 69.3754 48.7361 69.4956 48.8564C69.6159 48.9766 69.6778 49.1303 69.6778 49.3259V52.7579C69.6778 52.9535 69.6159 53.1071 69.4956 53.2274C69.3754 53.3477 69.2217 53.4096 69.0261 53.4096Z" fill="white" stroke="white" stroke-width="0.2"/>
</g>
<defs>
<filter id="filter0_d_1367_27745" x="0" y="0" width="120" height="120" filterUnits="userSpaceOnUse" color-interpolation-filters="sRGB">
<feFlood flood-opacity="0" result="BackgroundImageFix"/>
<feColorMatrix in="SourceAlpha" type="matrix" values="0 0 0 0 0 0 0 0 0 0 0 0 0 0 0 0 0 0 127 0" result="hardAlpha"/>
<feOffset dy="4"/>
<feGaussianBlur stdDeviation="16"/>
<feComposite in2="hardAlpha" operator="out"/>
<feColorMatrix type="matrix" values="0 0 0 0 0.929412 0 0 0 0 0.282353 0 0 0 0 0.568627 0 0 0 0.33 0"/>
<feBlend mode="normal" in2="BackgroundImageFix" result="effect1_dropShadow_1367_27745"/>
<feBlend mode="normal" in="SourceGraphic" in2="effect1_dropShadow_1367_27745" result="shape"/>
</filter>
<linearGradient id="paint0_linear_1367_27745" x1="65.1852" y1="17.8126" x2="77.6036" y2="81.5816" gradientUnits="userSpaceOnUse">
<stop offset="0.168198" stop-color="#FF9DC8"/>
<stop offset="0.984375" stop-color="#EB2B7E"/>
</linearGradient>
</defs>
</svg>
