<svg width="32" height="32" viewBox="0 0 32 32" fill="none" xmlns="http://www.w3.org/2000/svg">
<path d="M8.5 23.5V17.5M16 23.5V8.5M23.5 23.5V14.5M1.75 16C1.75 9.283 1.75 5.923 3.8365 3.8365C5.923 1.75 9.2815 1.75 16 1.75C22.717 1.75 26.077 1.75 28.1635 3.8365C30.25 5.923 30.25 9.2815 30.25 16C30.25 22.717 30.25 26.077 28.1635 28.1635C26.077 30.25 22.7185 30.25 16 30.25C9.283 30.25 5.923 30.25 3.8365 28.1635C1.75 26.077 1.75 22.7185 1.75 16Z" stroke="#178EE8" stroke-width="2" stroke-linecap="round" stroke-linejoin="round"/>
</svg>
