<svg width="36" height="36" viewBox="0 0 36 36" fill="none" xmlns="http://www.w3.org/2000/svg">
<path d="M21.375 31.5C21.9963 31.5 22.5 30.9963 22.5 30.375C22.5 29.7537 21.9963 29.25 21.375 29.25C20.7537 29.25 20.25 29.7537 20.25 30.375C20.25 30.9963 20.7537 31.5 21.375 31.5Z" fill="#178EE8"/>
<path d="M32.625 34.875H18C16.7591 34.875 15.75 33.8659 15.75 32.625V28.125C15.75 26.8841 16.7591 25.875 18 25.875H32.625C33.8659 25.875 34.875 26.8841 34.875 28.125V32.625C34.875 33.8659 33.8659 34.875 32.625 34.875ZM18 28.125V32.625H32.625V28.125H18ZM32.625 23.625H18C16.7591 23.625 15.75 22.6159 15.75 21.375V16.875C15.75 15.6341 16.7591 14.625 18 14.625H32.625C33.8659 14.625 34.875 15.6341 34.875 16.875V21.375C34.875 22.6159 33.8659 23.625 32.625 23.625ZM18 16.875V21.375H32.625V16.875H18Z" fill="#178EE8"/>
<path d="M13.5 30.7125C8.26538 28.854 4.5 23.8646 4.5 18C4.5 10.5559 10.5559 4.5 18 4.5C23.4349 4.5 28.1182 7.7355 30.2569 12.375H32.6936C30.4223 6.46425 24.7016 2.25 18 2.25C9.315 2.25 2.25 9.315 2.25 18C2.25 25.1213 7.00312 31.1456 13.5 33.0863V30.7125Z" fill="#178EE8"/>
</svg>
