<svg width="32" height="32" viewBox="0 0 32 32" fill="none" xmlns="http://www.w3.org/2000/svg">
<path d="M27.25 22.75C26.4489 22.7544 25.6639 22.9748 24.9775 23.3879L20.6879 19.0971C21.2991 18.1798 21.6252 17.1022 21.6252 16C21.6252 14.8978 21.2991 13.8202 20.6879 12.9029L23.5533 10.0375C24.2781 10.3866 25.1031 10.468 25.8822 10.2671C26.6613 10.0661 27.3441 9.59597 27.8097 8.93983C28.2753 8.28369 28.4936 7.48393 28.426 6.68223C28.3584 5.88052 28.0092 5.12862 27.4403 4.55971C26.8714 3.99081 26.1195 3.64163 25.3178 3.57402C24.5161 3.50642 23.7163 3.72475 23.0602 4.19035C22.404 4.65594 21.9339 5.33875 21.733 6.11781C21.532 6.89688 21.6134 7.72191 21.9625 8.44675L19.0971 11.3121C18.1798 10.701 17.1022 10.3748 16 10.3748C14.8978 10.3748 13.8202 10.701 12.9029 11.3121L8.61213 7.02138C9.02501 6.33533 9.24536 5.55069 9.25 4.75C9.25 3.85999 8.98608 2.98996 8.49162 2.24994C7.99715 1.50991 7.29434 0.933138 6.47208 0.592544C5.64981 0.25195 4.74501 0.162835 3.8721 0.336468C2.99918 0.510102 2.19736 0.938685 1.56802 1.56802C0.938685 2.19736 0.510102 2.99918 0.336468 3.8721C0.162835 4.74501 0.25195 5.64981 0.592544 6.47208C0.933138 7.29434 1.50991 7.99715 2.24994 8.49161C2.98996 8.98608 3.85999 9.25 4.75 9.25C5.55108 9.24556 6.33613 9.0252 7.0225 8.61213L11.3121 12.9029C10.701 13.8202 10.3748 14.8978 10.3748 16C10.3748 17.1022 10.701 18.1798 11.3121 19.0971L7.02138 23.3879C6.33533 22.975 5.55069 22.7546 4.75 22.75C3.85999 22.75 2.98996 23.0139 2.24994 23.5084C1.50991 24.0029 0.933138 24.7057 0.592544 25.5279C0.25195 26.3502 0.162835 27.255 0.336468 28.1279C0.510102 29.0008 0.938685 29.8026 1.56802 30.432C2.19736 31.0613 2.99918 31.4899 3.8721 31.6635C4.74501 31.8372 5.64981 31.7481 6.47208 31.4075C7.29434 31.0669 7.99715 30.4901 8.49162 29.7501C8.98608 29.01 9.25 28.14 9.25 27.25C9.24556 26.4489 9.0252 25.6639 8.61213 24.9775L12.9029 20.6879C13.5016 21.0859 14.171 21.3654 14.875 21.5114V25.207C14.1244 25.4724 13.4918 25.9946 13.0889 26.6813C12.6861 27.368 12.539 28.175 12.6736 28.9597C12.8082 29.7444 13.2159 30.4562 13.8246 30.9694C14.4333 31.4825 15.2039 31.764 16 31.764C16.7961 31.764 17.5667 31.4825 18.1754 30.9694C18.7841 30.4562 19.1918 29.7444 19.3264 28.9597C19.461 28.175 19.3139 27.368 18.9111 26.6813C18.5083 25.9946 17.8756 25.4724 17.125 25.207V21.5114C17.829 21.3654 18.4984 21.0859 19.0971 20.6879L23.3879 24.9786C22.975 25.6647 22.7546 26.4493 22.75 27.25C22.75 28.14 23.0139 29.01 23.5084 29.7501C24.0029 30.4901 24.7057 31.0669 25.5279 31.4075C26.3502 31.7481 27.255 31.8372 28.1279 31.6635C29.0008 31.4899 29.8026 31.0613 30.432 30.432C31.0613 29.8026 31.4899 29.0008 31.6635 28.1279C31.8372 27.255 31.7481 26.3502 31.4075 25.5279C31.0669 24.7057 30.4901 24.0029 29.7501 23.5084C29.01 23.0139 28.14 22.75 27.25 22.75ZM16 12.625C16.6675 12.625 17.32 12.8229 17.8751 13.1938C18.4301 13.5646 18.8626 14.0917 19.1181 14.7084C19.3735 15.3251 19.4404 16.0037 19.3102 16.6584C19.1799 17.3131 18.8585 17.9145 18.3865 18.3865C17.9145 18.8585 17.3131 19.1799 16.6584 19.3102C16.0037 19.4404 15.3251 19.3735 14.7084 19.1181C14.0917 18.8626 13.5646 18.4301 13.1938 17.8751C12.8229 17.32 12.625 16.6675 12.625 16C12.6259 15.1052 12.9818 14.2472 13.6145 13.6145C14.2472 12.9818 15.1052 12.6259 16 12.625ZM2.5 4.75C2.5 4.30499 2.63196 3.86998 2.8792 3.49997C3.12643 3.12996 3.47783 2.84157 3.88896 2.67127C4.3001 2.50098 4.7525 2.45642 5.18896 2.54323C5.62541 2.63005 6.02632 2.84434 6.34099 3.15901C6.65566 3.47368 6.86995 3.87459 6.95677 4.31105C7.04359 4.74751 6.99903 5.19991 6.82873 5.61104C6.65843 6.02217 6.37005 6.37358 6.00003 6.62081C5.63002 6.86804 5.19501 7 4.75 7C4.15327 7 3.58097 6.76295 3.15901 6.34099C2.73705 5.91904 2.5 5.34674 2.5 4.75ZM4.75 29.5C4.30499 29.5 3.86998 29.368 3.49997 29.1208C3.12996 28.8736 2.84157 28.5222 2.67127 28.111C2.50098 27.6999 2.45642 27.2475 2.54323 26.811C2.63005 26.3746 2.84434 25.9737 3.15901 25.659C3.47368 25.3443 3.87459 25.1301 4.31105 25.0432C4.74751 24.9564 5.19991 25.001 5.61104 25.1713C6.02217 25.3416 6.37358 25.63 6.62081 26C6.86804 26.37 7 26.805 7 27.25C7 27.8467 6.76295 28.419 6.34099 28.841C5.91904 29.2629 5.34674 29.5 4.75 29.5ZM27.25 29.5C26.805 29.5 26.37 29.368 26 29.1208C25.63 28.8736 25.3416 28.5222 25.1713 28.111C25.001 27.6999 24.9564 27.2475 25.0432 26.811C25.1301 26.3746 25.3443 25.9737 25.659 25.659C25.9737 25.3443 26.3746 25.1301 26.811 25.0432C27.2475 24.9564 27.6999 25.001 28.111 25.1713C28.5222 25.3416 28.8736 25.63 29.1208 26C29.368 26.37 29.5 26.805 29.5 27.25C29.4991 27.8465 29.2618 28.4182 28.84 28.84C28.4182 29.2618 27.8465 29.4991 27.25 29.5Z" fill="#3AA0FF"/>
</svg>
