<svg width="32" height="30" viewBox="0 0 32 30" fill="none" xmlns="http://www.w3.org/2000/svg">
<path d="M6.24971 5.66592C7.21605 5.66592 7.99942 4.88255 7.99942 3.91621C7.99942 2.94988 7.21605 2.1665 6.24971 2.1665C5.28337 2.1665 4.5 2.94988 4.5 3.91621C4.5 4.88255 5.28337 5.66592 6.24971 5.66592Z" stroke="#178EE8" stroke-width="2" stroke-miterlimit="10"/>
<path d="M2.75 11.4989C2.75 11.4989 3.33324 8.98453 4.49971 8.40129C5.66618 7.81806 6.83265 7.81806 7.99912 8.40129C9.1656 8.98453 9.74883 11.4989 9.74883 11.4989" stroke="#178EE8" stroke-width="2" stroke-linecap="round" stroke-linejoin="round"/>
<path d="M26.656 11.1044C27.6223 11.1044 28.4057 10.321 28.4057 9.35469C28.4057 8.38835 27.6223 7.60498 26.656 7.60498C25.6896 7.60498 24.9062 8.38835 24.9062 9.35469C24.9062 10.321 25.6896 11.1044 26.656 11.1044Z" stroke="#178EE8" stroke-width="2" stroke-miterlimit="10"/>
<path d="M23.1562 16.9364C23.1562 16.9364 23.7395 14.422 24.906 13.8388C26.0724 13.2556 27.2389 13.2556 28.4054 13.8388C29.5718 14.422 30.1551 16.9358 30.1551 16.9358" stroke="#178EE8" stroke-width="2" stroke-linecap="round" stroke-linejoin="round"/>
<path d="M11.4997 23.1674C12.466 23.1674 13.2494 22.384 13.2494 21.4177C13.2494 20.4513 12.466 19.668 11.4997 19.668C10.5334 19.668 9.75 20.4513 9.75 21.4177C9.75 22.384 10.5334 23.1674 11.4997 23.1674Z" stroke="#178EE8" stroke-width="2" stroke-miterlimit="10"/>
<path d="M7.99475 29C7.99475 29 8.57799 26.4857 9.74446 25.9024C10.9109 25.3192 12.0774 25.3192 13.2439 25.9024C14.4103 26.4857 14.9936 28.9994 14.9936 28.9994M24.6514 5.74521C22.1907 2.84244 18.5175 1 14.4144 1C12.7989 1 11.251 1.28579 9.81678 1.80895M16.9999 27.5798C21.79 26.6443 25.668 23.1606 27.164 18.5968M1.05074 13.241C1.0167 13.6312 0.999775 14.0227 1 14.4144C1 19.0652 3.36677 23.163 6.96184 25.57" stroke="#178EE8" stroke-width="2" stroke-linecap="round" stroke-linejoin="round"/>
</svg>
