<svg width="28" height="30" viewBox="0 0 28 30" fill="none" xmlns="http://www.w3.org/2000/svg">
<path d="M27.4204 17.7046L24.0454 14.3296C23.8344 14.1187 23.5483 14.0002 23.25 14.0002C22.9517 14.0002 22.6656 14.1187 22.4546 14.3296L12 24.7843V29.75H16.9657L27.4204 19.2954C27.6313 19.0844 27.7498 18.7983 27.7498 18.5C27.7498 18.2017 27.6313 17.9156 27.4204 17.7046ZM16.0343 27.5H14.25V25.7157L19.875 20.0907L21.6593 21.875L16.0343 27.5ZM23.25 20.2843L21.4657 18.5L23.25 16.7157L25.0343 18.5L23.25 20.2843ZM27.75 0.5H19.875V2.75H23.9093L15.375 11.2843L10.5454 6.45463C10.3344 6.24372 10.0483 6.12524 9.75 6.12524C9.45169 6.12524 9.16559 6.24372 8.95463 6.45463L0.75 14.6593L2.34075 16.25L9.75 8.84075L14.5796 13.6704C14.7906 13.8813 15.0767 13.9998 15.375 13.9998C15.6733 13.9998 15.9594 13.8813 16.1704 13.6704L25.5 4.34075V8.375H27.75V0.5Z" fill="#178EE8"/>
</svg>
