<svg width="30" height="30" viewBox="0 0 30 30" fill="none" xmlns="http://www.w3.org/2000/svg">
<path d="M13.2016 18.6002C12.7242 18.6002 12.2663 18.4105 11.9288 18.073C11.5912 17.7354 11.4016 17.2776 11.4016 16.8002V6.14959C8.73744 6.60812 6.34202 8.04877 4.68818 10.1871C3.03434 12.3255 2.24227 15.0062 2.46832 17.7C2.69437 20.3939 3.92211 22.9051 5.90919 24.7379C7.89627 26.5708 10.4983 27.5921 13.2016 27.6002C15.7541 27.6006 18.2243 26.6969 20.174 25.0494C22.1236 23.4019 23.4267 21.117 23.8522 18.6002H13.2016ZM11.407 4.32619C12.3916 4.18579 13.2016 5.00659 13.2016 6.00019V16.8002H24.0016C24.9952 16.8002 25.816 17.6102 25.6756 18.5948C25.2143 21.7425 23.5798 24.5993 21.1 26.5921C18.6202 28.5848 15.4785 29.5661 12.3054 29.339C9.13218 29.1119 6.16227 27.6932 3.99153 25.3676C1.82078 23.042 0.609801 19.9815 0.601563 16.8002C0.600972 13.769 1.69316 10.8391 3.67784 8.54796C5.66252 6.25681 8.40664 4.75792 11.407 4.32619ZM16.8016 13.2002V2.40019C19.6659 2.40019 22.4129 3.53804 24.4383 5.56344C26.4637 7.58883 27.6016 10.3359 27.6016 13.2002H16.8016ZM27.7132 15.0002C28.6096 15.0002 29.3818 14.3414 29.3998 13.445L29.4016 13.2002C29.4016 11.5249 29.0676 9.86638 28.4191 8.32171C27.7705 6.77704 26.8204 5.37722 25.6243 4.20413C24.4283 3.03105 23.0103 2.10826 21.4534 1.48975C19.8964 0.871247 18.2318 0.569439 16.5568 0.601988C15.6604 0.619988 15.0016 1.39399 15.0016 2.28859V13.2002C15.0016 13.6776 15.1912 14.1354 15.5288 14.473C15.8663 14.8105 16.3242 15.0002 16.8016 15.0002H27.7132Z" fill="#178EE8" stroke="#178EE8" stroke-width="0.3"/>
</svg>
