<svg width="287" height="46" viewBox="0 0 287 46" fill="none" xmlns="http://www.w3.org/2000/svg">
<path d="M2.57119 0.0832999C1.51263 -0.232161 0.398761 0.370244 0.0832999 1.42881C-0.232161 2.48737 0.370244 3.60124 1.42881 3.9167L2.57119 0.0832999ZM286.702 28.9296C287.282 27.9896 286.99 26.7573 286.05 26.1772L270.733 16.7237C269.793 16.1436 268.56 16.4353 267.98 17.3753C267.4 18.3152 267.692 19.5475 268.632 20.1276L282.248 28.5308L273.845 42.1465C273.264 43.0864 273.556 44.3187 274.496 44.8988C275.436 45.4789 276.668 45.1872 277.248 44.2472L286.702 28.9296ZM1.42881 3.9167C30.4692 12.571 79.4594 24.2401 132.154 31.1561C184.806 38.0665 241.374 40.2622 285.461 29.8254L284.539 25.933C241.171 36.1995 185.186 34.0821 132.675 27.1902C80.2068 20.3039 31.4246 8.68183 2.57119 0.0832999L1.42881 3.9167Z" fill="url(#paint0_linear_156_2720)"/>
<defs>
<linearGradient id="paint0_linear_156_2720" x1="-44.2503" y1="-72.1538" x2="291.008" y2="-33.1684" gradientUnits="userSpaceOnUse">
<stop stop-color="#38DBFF" stop-opacity="0"/>
<stop offset="1" stop-color="#38DBFF"/>
</linearGradient>
</defs>
</svg>
