<svg width="20" height="20" viewBox="0 0 20 20" fill="none" xmlns="http://www.w3.org/2000/svg">
<path fill-rule="evenodd" clip-rule="evenodd" d="M1.63648 7.64746C1.988 7.64746 2.27297 7.91885 2.27297 8.25364V17.1442C2.27297 17.479 1.988 17.7504 1.63648 17.7504C1.28496 17.7504 1 17.479 1 17.1442V8.25364C1 7.91885 1.28496 7.64746 1.63648 7.64746Z" fill="#787A88"/>
<path d="M16.7148 15.4463L17.9339 10.4152C18.302 8.89584 17.0904 7.44529 15.4531 7.44529H11.9094C11.2921 7.44529 10.8814 6.83773 11.1367 6.3026L11.6223 5.28536C12.1331 4.2151 11.3116 3 10.0771 3H9.59716C9.147 3 8.7153 3.1703 8.39699 3.47345L4.97225 6.73511C4.49479 7.18983 4.22656 7.80656 4.22656 8.44963V15.5276C4.22656 16.8668 5.36642 17.9523 6.7725 17.9523H13.4071C14.9879 17.9523 16.3594 16.9133 16.7148 15.4463Z" fill="#787A88"/>
</svg>
