<svg width="60" height="60" viewBox="0 0 60 60" fill="none" xmlns="http://www.w3.org/2000/svg">
<rect width="60" height="60" rx="12" fill="url(#paint0_linear_2877_31332)" fill-opacity="0.24"/>
<rect x="1" y="1" width="58" height="58" rx="11" stroke="url(#paint1_linear_2877_31332)" stroke-opacity="0.32" stroke-width="2"/>
<g clip-path="url(#clip0_2877_31332)">
<path d="M42.6 16H17.4C16.56 16 16 16.56 16 17.4V42.6C16 43.3 16.56 44 17.4 44H42.6C43.3 44 44 43.3 44 42.6V17.4C44 16.56 43.3 16 42.6 16ZM25.8 18.8C26.64 18.8 27.2 19.36 27.2 20.2C27.2 21.04 26.64 21.6 25.8 21.6C24.96 21.6 24.4 20.9 24.4 20.2C24.4 19.36 24.96 18.8 25.8 18.8ZM20.2 18.8C20.9 18.8 21.6 19.36 21.6 20.2C21.6 21.04 20.9 21.6 20.2 21.6C19.36 21.6 18.8 20.9 18.8 20.2C18.8 19.36 19.36 18.8 20.2 18.8ZM41.2 41.2H18.8V24.4H41.2V41.2Z" fill="url(#paint2_linear_2877_31332)" fill-opacity="0.9"/>
<path d="M35.6 31.4H24.4C23.56 31.4 23 30.84 23 30C23 29.16 23.56 28.6 24.4 28.6H35.6C36.44 28.6 37 29.16 37 30C37 30.84 36.3 31.4 35.6 31.4Z" fill="url(#paint3_linear_2877_31332)" fill-opacity="0.9"/>
<path d="M31.4 37H24.4C23.56 37 23 36.44 23 35.6C23 34.76 23.56 34.2 24.4 34.2H31.4C32.24 34.2 32.8 34.76 32.8 35.6C32.8 36.44 32.1 37 31.4 37Z" fill="url(#paint4_linear_2877_31332)" fill-opacity="0.9"/>
</g>
<defs>
<linearGradient id="paint0_linear_2877_31332" x1="35.5555" y1="-10.915" x2="48.861" y2="57.4089" gradientUnits="userSpaceOnUse">
<stop offset="0.168198" stop-color="#FF9DC8"/>
<stop offset="0.984375" stop-color="#EB2B7E"/>
</linearGradient>
<linearGradient id="paint1_linear_2877_31332" x1="35.5555" y1="-10.915" x2="48.861" y2="57.4089" gradientUnits="userSpaceOnUse">
<stop offset="0.168198" stop-color="#FF9DC8"/>
<stop offset="0.984375" stop-color="#EB2B7E"/>
</linearGradient>
<linearGradient id="paint2_linear_2877_31332" x1="32.5926" y1="10.9063" x2="38.8018" y2="42.7908" gradientUnits="userSpaceOnUse">
<stop offset="0.168198" stop-color="#FF9DC8"/>
<stop offset="0.984375" stop-color="#EB2B7E"/>
</linearGradient>
<linearGradient id="paint3_linear_2877_31332" x1="32.5926" y1="10.9063" x2="38.8018" y2="42.7908" gradientUnits="userSpaceOnUse">
<stop offset="0.168198" stop-color="#FF9DC8"/>
<stop offset="0.984375" stop-color="#EB2B7E"/>
</linearGradient>
<linearGradient id="paint4_linear_2877_31332" x1="32.5926" y1="10.9063" x2="38.8018" y2="42.7908" gradientUnits="userSpaceOnUse">
<stop offset="0.168198" stop-color="#FF9DC8"/>
<stop offset="0.984375" stop-color="#EB2B7E"/>
</linearGradient>
<clipPath id="clip0_2877_31332">
<rect width="28" height="28" fill="white" transform="translate(16 16)"/>
</clipPath>
</defs>
</svg>
