<svg width="61" height="60" viewBox="0 0 61 60" fill="none" xmlns="http://www.w3.org/2000/svg">
<rect x="0.666748" width="60" height="60" rx="12" fill="url(#paint0_linear_2877_31292)" fill-opacity="0.24"/>
<rect x="1.66675" y="1" width="58" height="58" rx="11" stroke="url(#paint1_linear_2877_31292)" stroke-opacity="0.32" stroke-width="2"/>
<g clip-path="url(#clip0_2877_31292)">
<path d="M40.7635 24.2728C40.0848 21.4728 37.2848 19.5213 34.2726 20.0728C30.6242 13.6668 20.6545 16.8062 21.2908 24.1031C18.9151 24.4425 17.0908 26.5213 17.0908 28.9819C17.0908 31.6971 19.2969 33.9032 22.012 33.9032H23.9635V28.3456C23.9635 27.0304 25.0242 25.9698 26.3393 25.9698H34.3151C35.6302 25.9698 36.6908 27.0304 36.6908 28.3456V33.9032H39.3211C42.0363 33.9032 44.2423 31.6971 44.2423 28.9819C44.2423 26.8183 42.8423 24.9092 40.7635 24.2728Z" fill="url(#paint2_linear_2877_31292)" fill-opacity="0.9"/>
<path d="M27.7817 29.788H32.8726V34.8789H27.7817V29.788Z" fill="url(#paint3_linear_2877_31292)" fill-opacity="0.9"/>
<path d="M41.1029 38.9516H33.1272V37.8486H34.3151C35.1635 37.8486 35.8423 37.1698 35.8423 36.3213V28.3456C35.8423 27.4971 35.1635 26.8183 34.3151 26.8183H26.3393C25.4908 26.8183 24.812 27.4971 24.812 28.3456V36.2789C24.812 37.1274 25.4908 37.8062 26.3393 37.8062H27.0605V40.2244H19.9332C19.6787 40.2244 19.509 40.3941 19.509 40.6486V42.0062C19.509 42.2607 19.6787 42.4304 19.9332 42.4304C20.1878 42.4304 20.3575 42.2607 20.3575 42.0062V41.0728H27.4848C27.7393 41.0728 27.909 40.9031 27.909 40.6486V37.8062H29.5635V41.4122C29.5635 41.6668 29.7332 41.8365 29.9878 41.8365H34.612V42.9819C34.612 43.2365 34.7817 43.4062 35.0363 43.4062C35.2908 43.4062 35.4605 43.2365 35.4605 42.9819V41.4122C35.4605 41.1577 35.2908 40.988 35.0363 40.988H30.412V37.8062H32.2363V39.3335C32.2363 39.588 32.406 39.7577 32.6605 39.7577H40.6363V40.9031C40.6363 41.1577 40.806 41.3274 41.0605 41.3274C41.3151 41.3274 41.4848 41.1577 41.4848 40.9031V39.3335C41.5272 39.1213 41.3151 38.9516 41.1029 38.9516ZM26.9332 35.3031V29.3638C26.9332 29.1516 27.1454 28.9395 27.3575 28.9395H33.2969C33.509 28.9395 33.7211 29.1516 33.7211 29.3638V35.3031C33.7211 35.5577 33.509 35.7274 33.2969 35.7274H27.3575C27.1454 35.7274 26.9332 35.5153 26.9332 35.3031Z" fill="url(#paint4_linear_2877_31292)" fill-opacity="0.9"/>
</g>
<defs>
<linearGradient id="paint0_linear_2877_31292" x1="36.2223" y1="-10.915" x2="49.5277" y2="57.4089" gradientUnits="userSpaceOnUse">
<stop offset="0.168198" stop-color="#FF9DC8"/>
<stop offset="0.984375" stop-color="#EB2B7E"/>
</linearGradient>
<linearGradient id="paint1_linear_2877_31292" x1="36.2223" y1="-10.915" x2="49.5277" y2="57.4089" gradientUnits="userSpaceOnUse">
<stop offset="0.168198" stop-color="#FF9DC8"/>
<stop offset="0.984375" stop-color="#EB2B7E"/>
</linearGradient>
<linearGradient id="paint2_linear_2877_31292" x1="33.1806" y1="11.734" x2="39.0511" y2="42.2779" gradientUnits="userSpaceOnUse">
<stop offset="0.168198" stop-color="#FF9DC8"/>
<stop offset="0.984375" stop-color="#EB2B7E"/>
</linearGradient>
<linearGradient id="paint3_linear_2877_31292" x1="33.1806" y1="11.734" x2="39.0511" y2="42.2779" gradientUnits="userSpaceOnUse">
<stop offset="0.168198" stop-color="#FF9DC8"/>
<stop offset="0.984375" stop-color="#EB2B7E"/>
</linearGradient>
<linearGradient id="paint4_linear_2877_31292" x1="33.1806" y1="11.734" x2="39.0511" y2="42.2779" gradientUnits="userSpaceOnUse">
<stop offset="0.168198" stop-color="#FF9DC8"/>
<stop offset="0.984375" stop-color="#EB2B7E"/>
</linearGradient>
<clipPath id="clip0_2877_31292">
<rect width="28" height="28" fill="white" transform="translate(16.6667 16)"/>
</clipPath>
</defs>
</svg>
