<svg width="61" height="60" viewBox="0 0 61 60" fill="none" xmlns="http://www.w3.org/2000/svg">
<rect x="0.333496" width="60" height="60" rx="12" fill="url(#paint0_linear_2877_31324)" fill-opacity="0.24"/>
<rect x="1.3335" y="1" width="58" height="58" rx="11" stroke="url(#paint1_linear_2877_31324)" stroke-opacity="0.32" stroke-width="2"/>
<g clip-path="url(#clip0_2877_31324)">
<path d="M43.4848 25.3759H39.7515C39.4969 25.3759 39.3272 25.588 39.3272 25.8002V42.0911C39.3272 42.3456 39.4969 42.5153 39.7515 42.5153H43.4848C43.7393 42.5153 43.909 42.3456 43.909 42.0911V25.8002C43.909 25.5456 43.7393 25.3759 43.4848 25.3759Z" fill="url(#paint2_linear_2877_31324)" fill-opacity="0.9"/>
<path d="M19.0484 28.8123C20.7878 28.8123 21.8909 26.988 21.0848 25.4608L25.0303 22.4062C25.4545 22.788 26.006 23.0002 26.5575 23.0002C27.1515 23.0002 27.7454 22.788 28.1696 22.3638L31.9878 25.0365C31.6484 25.7577 31.7333 26.6911 32.2 27.3274C33.1333 28.6002 35 28.6002 35.9333 27.3274C36.4424 26.6062 36.5272 25.6305 36.103 24.8668L42.9757 19.2668L42.7212 21.982C42.6787 22.1941 42.8484 22.4062 43.103 22.4486C43.2727 22.4911 43.5272 22.3214 43.5696 22.0668L43.909 18.3759C43.9515 18.0365 43.7393 17.8668 43.4848 17.8668L39.7939 17.485C39.5818 17.4426 39.3696 17.6123 39.3272 17.8668C39.2848 18.079 39.4545 18.2911 39.709 18.3335L42.4242 18.588L35.5939 24.2305C35.1696 23.8911 34.6606 23.679 34.109 23.679C33.5151 23.679 32.9212 23.9335 32.4969 24.3153L28.6787 21.6426C29.4 20.1153 28.2545 18.3759 26.6 18.3759C24.8606 18.3759 23.7575 20.2002 24.5636 21.7274L20.5757 24.782C20.2363 24.485 19.8545 24.2729 19.3878 24.2305C17.8181 23.9759 16.503 25.3335 16.7575 26.8608C16.9696 27.9214 17.8606 28.8123 19.0484 28.8123Z" fill="url(#paint3_linear_2877_31324)" fill-opacity="0.9"/>
<path d="M17.1818 31.7396C16.9272 31.7396 16.7575 31.9517 16.7575 32.1638V42.1335C16.7575 42.388 16.9272 42.5577 17.1818 42.5577H20.9151C21.1696 42.5577 21.3393 42.388 21.3393 42.1335V32.1638C21.3393 31.9517 21.1696 31.7396 20.9151 31.7396H17.1818Z" fill="url(#paint4_linear_2877_31324)" fill-opacity="0.9"/>
<path d="M35.9757 31.188H32.2C31.9878 31.188 31.7757 31.3577 31.7757 31.6123V42.0911C31.7757 42.3456 31.9878 42.5153 32.2 42.5153H35.9757C36.1878 42.5153 36.4 42.3456 36.4 42.0911V31.6123C36.4 31.3577 36.1878 31.188 35.9757 31.188Z" fill="url(#paint5_linear_2877_31324)" fill-opacity="0.9"/>
<path d="M24.6909 25.885C24.4787 25.885 24.2666 26.0971 24.2666 26.3093V42.0911C24.2666 42.3456 24.4787 42.5153 24.6909 42.5153H28.4666C28.6787 42.5153 28.8909 42.3456 28.8909 42.0911V26.3093C28.8909 26.0971 28.6787 25.885 28.4666 25.885H24.6909Z" fill="url(#paint6_linear_2877_31324)" fill-opacity="0.9"/>
</g>
<defs>
<linearGradient id="paint0_linear_2877_31324" x1="35.889" y1="-10.915" x2="49.1945" y2="57.4089" gradientUnits="userSpaceOnUse">
<stop offset="0.168198" stop-color="#FF9DC8"/>
<stop offset="0.984375" stop-color="#EB2B7E"/>
</linearGradient>
<linearGradient id="paint1_linear_2877_31324" x1="35.889" y1="-10.915" x2="49.1945" y2="57.4089" gradientUnits="userSpaceOnUse">
<stop offset="0.168198" stop-color="#FF9DC8"/>
<stop offset="0.984375" stop-color="#EB2B7E"/>
</linearGradient>
<linearGradient id="paint2_linear_2877_31324" x1="32.8376" y1="12.9162" x2="37.9957" y2="41.6312" gradientUnits="userSpaceOnUse">
<stop offset="0.168198" stop-color="#FF9DC8"/>
<stop offset="0.984375" stop-color="#EB2B7E"/>
</linearGradient>
<linearGradient id="paint3_linear_2877_31324" x1="32.8376" y1="12.9162" x2="37.9957" y2="41.6312" gradientUnits="userSpaceOnUse">
<stop offset="0.168198" stop-color="#FF9DC8"/>
<stop offset="0.984375" stop-color="#EB2B7E"/>
</linearGradient>
<linearGradient id="paint4_linear_2877_31324" x1="32.8376" y1="12.9162" x2="37.9957" y2="41.6312" gradientUnits="userSpaceOnUse">
<stop offset="0.168198" stop-color="#FF9DC8"/>
<stop offset="0.984375" stop-color="#EB2B7E"/>
</linearGradient>
<linearGradient id="paint5_linear_2877_31324" x1="32.8376" y1="12.9162" x2="37.9957" y2="41.6312" gradientUnits="userSpaceOnUse">
<stop offset="0.168198" stop-color="#FF9DC8"/>
<stop offset="0.984375" stop-color="#EB2B7E"/>
</linearGradient>
<linearGradient id="paint6_linear_2877_31324" x1="32.8376" y1="12.9162" x2="37.9957" y2="41.6312" gradientUnits="userSpaceOnUse">
<stop offset="0.168198" stop-color="#FF9DC8"/>
<stop offset="0.984375" stop-color="#EB2B7E"/>
</linearGradient>
<clipPath id="clip0_2877_31324">
<rect width="28" height="28" fill="white" transform="translate(16.3335 16)"/>
</clipPath>
</defs>
</svg>
