<svg width="60" height="60" viewBox="0 0 60 60" fill="none" xmlns="http://www.w3.org/2000/svg">
<rect width="60" height="60" rx="12" fill="url(#paint0_linear_2592_31567)" fill-opacity="0.24"/>
<rect x="1" y="1" width="58" height="58" rx="11" stroke="url(#paint1_linear_2592_31567)" stroke-opacity="0.32" stroke-width="2"/>
<g clip-path="url(#clip0_2592_31567)">
<path d="M29.3213 34.8222C28.5576 34.9919 27.8364 34.6101 27.3273 34.0162C27.1577 33.8465 27.2001 33.5495 27.3698 33.4222C27.5395 33.2525 27.8364 33.295 27.9637 33.4647C28.2183 33.8041 28.6001 33.9738 28.9395 34.0162C29.0243 34.0162 29.194 34.0162 29.3213 33.9313V30.3253C28.6849 30.2828 28.0486 29.9859 27.5395 29.5192C27.3698 29.3495 27.3698 29.095 27.497 28.9253C27.6667 28.7556 27.9213 28.7556 28.091 28.8828C28.4304 29.2222 28.8546 29.3919 29.2789 29.4768V24.5132C28.6425 23.9192 27.7516 24.0041 27.2001 24.5556C27.0304 24.7253 26.7758 24.7253 26.6061 24.5556C26.4364 24.3859 26.4364 24.1313 26.6061 23.9616C27.3273 23.2404 28.388 23.0283 29.2789 23.495V18.9556C28.3031 19.1253 27.497 19.7192 27.0728 20.6101C25.2486 19.5495 22.8304 20.9495 22.788 23.2828C21.2183 23.6222 20.2849 25.1919 20.497 26.7616C21.3031 27.3132 22.3637 27.2707 23.0849 26.5495C22.9577 26.2525 22.8304 25.9132 22.788 25.5738C22.7455 25.3616 22.9152 25.1495 23.1698 25.1071C23.3819 25.0647 23.594 25.2344 23.6364 25.4889C23.7213 26.1253 24.1031 26.8041 24.6546 26.7616C24.8667 26.7192 25.0789 26.8889 25.1213 27.1435C25.1637 27.3556 24.994 27.5677 24.7395 27.6101C24.3152 27.6525 23.9334 27.5253 23.6364 27.2707C23.6364 27.2707 23.6364 27.2707 23.594 27.2283C22.6183 28.0768 21.3031 28.2465 20.2001 27.6101C19.6486 28.5859 19.691 29.8586 20.2849 30.8344C20.8789 31.0465 21.3455 31.2162 22.0667 30.9616C22.6607 30.7495 23.0849 30.3253 23.3395 29.7313C23.4243 29.5192 23.6789 29.4344 23.891 29.5192C24.1031 29.6041 24.188 29.8586 24.1031 30.0707C23.5092 31.5132 22.0243 32.2344 20.5395 31.8525C20.2849 32.701 20.3698 33.6344 20.794 34.398C21.1758 35.0768 21.7273 35.5435 22.4061 35.798C22.8728 35.2889 23.5092 34.9495 24.2304 34.8647C24.994 34.7798 25.7577 35.0344 26.394 35.5435C26.5637 35.7132 26.6061 35.9677 26.4364 36.1374C26.2667 36.3071 26.0122 36.3495 25.8425 36.1798C25.4183 35.798 24.8667 35.6283 24.3152 35.7132C23.8061 35.7556 23.3395 36.0101 23.0001 36.4344C23.5092 38.2586 25.4607 39.1919 27.1152 38.301C27.5395 39.1071 28.3455 39.701 29.2364 39.8283V34.8222H29.3213Z" fill="url(#paint2_linear_2592_31567)" fill-opacity="0.9"/>
<path d="M35.388 27.4404C35.1334 27.6525 34.794 27.8647 34.4546 27.9495C34.2425 27.9919 33.988 27.8647 33.9455 27.6525C33.9031 27.4404 34.0304 27.1859 34.2425 27.1435C34.9213 26.9738 35.388 26.3798 35.2607 25.8707C35.2183 25.6586 35.3455 25.4041 35.5576 25.3616C35.7698 25.3192 36.0243 25.4465 36.0667 25.6586C36.1516 26.0404 36.1092 26.4222 35.9395 26.7616C36.3637 27.0586 36.8304 27.1859 37.297 27.1435C37.891 27.101 38.4849 26.8041 38.8667 26.295L38.9092 26.2525C39.0364 24.4707 37.6364 22.8586 35.897 22.9435C35.7698 20.9495 33.9031 19.5919 32.0789 20.2283C31.6122 19.5495 30.9334 19.0828 30.1273 18.998V23.5374C31.1031 23.1132 32.1637 23.3677 32.8425 24.1313C33.0122 24.301 32.9698 24.5556 32.8001 24.7253C32.6304 24.895 32.3758 24.8525 32.2061 24.6828C31.697 24.0889 30.8061 23.9616 30.1273 24.5132V29.3919C30.594 29.2647 30.9758 29.0101 31.2728 28.6283C31.4001 28.4586 31.697 28.4162 31.8667 28.5859C32.0364 28.7132 32.0789 29.0101 31.9092 29.1798C31.4425 29.7738 30.8061 30.1556 30.0849 30.2828V33.8889C30.5516 34.2707 31.1455 34.4828 31.7395 34.4404C32.4183 34.398 33.0122 34.0586 33.4789 33.5071C33.6061 33.3374 33.9031 33.295 34.0728 33.4647C34.2425 33.5919 34.2849 33.8889 34.1152 34.0586C33.0546 35.3738 31.3576 35.6283 30.0425 34.9495V39.9132C30.7637 39.7859 31.4001 39.4465 31.8667 38.8101C33.6486 39.6586 35.6849 38.4283 35.9395 36.3495C37.5516 36.095 38.697 34.4828 38.4425 32.7859C38.0183 32.4465 37.5516 32.2344 37.0001 32.2768C36.4486 32.3192 35.9395 32.5738 35.6001 33.0404C35.4304 33.2101 35.1758 33.2525 35.0061 33.0828C34.8364 32.9556 34.794 32.6586 34.9637 32.4889C35.897 31.301 37.5092 31.0889 38.697 31.8525C39.8425 30.6647 39.8849 28.7132 38.7395 27.5253C37.8061 28.1616 36.4486 28.1616 35.388 27.4404Z" fill="url(#paint3_linear_2592_31567)" fill-opacity="0.9"/>
<path d="M22.0667 36.3919H17.9092C17.6546 36.3919 17.4849 36.5616 17.4849 36.8162V39.8707C16.891 40.0404 16.4667 40.6344 16.4667 41.2707C16.4667 42.0768 17.1031 42.7556 17.9092 42.7556C18.7152 42.7556 19.3516 42.0768 19.3516 41.2707C19.3516 40.5919 18.9273 40.0404 18.3334 39.8707V37.2404H22.0667C22.3213 37.2404 22.491 37.0707 22.491 36.8162C22.491 36.6041 22.2789 36.3919 22.0667 36.3919ZM17.9092 41.9495C17.6122 41.9495 17.3152 41.6525 17.3152 41.3132C17.3152 40.9738 17.5698 40.6768 17.9092 40.6768C18.2486 40.6768 18.5031 40.9738 18.5031 41.3132C18.5031 41.6525 18.2486 41.9495 17.9092 41.9495Z" fill="url(#paint4_linear_2592_31567)" fill-opacity="0.9"/>
<path d="M17.4425 18.5738C17.4001 18.701 17.4425 20.3132 17.4425 22.0101C17.4425 22.2647 17.6122 22.4344 17.8667 22.4344H22.0243C22.2789 22.4344 22.4486 22.2647 22.4486 22.0101C22.4486 21.7556 22.2789 21.5859 22.0243 21.5859H18.291C18.291 20.695 18.291 18.701 18.291 18.5738C18.8849 18.4041 19.3092 17.8101 19.3092 17.1313C19.2667 16.3253 18.6304 15.6465 17.8667 15.6465C17.0607 15.6465 16.4243 16.3253 16.4243 17.1313C16.4243 17.8101 16.8486 18.3616 17.4425 18.5738ZM17.8667 16.495C18.2061 16.495 18.4607 16.7919 18.4607 17.1313C18.4183 17.5132 18.1637 17.7677 17.8667 17.7677C17.5698 17.7677 17.2728 17.5132 17.2728 17.1313C17.2728 16.7919 17.5273 16.495 17.8667 16.495Z" fill="url(#paint5_linear_2592_31567)" fill-opacity="0.9"/>
<path d="M42.1334 16.7071C41.3273 16.7071 40.691 17.3859 40.691 18.1919C40.691 18.8707 41.1152 19.4222 41.7092 19.5919V22.1798H37.9758C37.7213 22.1798 37.5516 22.3495 37.5516 22.6041C37.5516 22.8586 37.7213 23.0283 37.9758 23.0283H42.1334C42.388 23.0283 42.5576 22.8586 42.5576 22.6041V19.5919C43.1516 19.4222 43.5758 18.8707 43.5758 18.1919C43.5758 17.3859 42.9395 16.7071 42.1334 16.7071ZM42.1334 18.8283C41.7092 18.8283 41.5395 18.4889 41.5395 18.2344C41.5395 17.895 41.794 17.598 42.1334 17.598C42.4728 17.5556 42.7273 17.8525 42.7273 18.1919C42.7273 18.4889 42.6001 18.8283 42.1334 18.8283Z" fill="url(#paint6_linear_2592_31567)" fill-opacity="0.9"/>
<path d="M42.0061 39.8707V36.8162C42.0061 36.5616 41.8364 36.3919 41.5819 36.3919H37.4243C37.1698 36.3919 37.0001 36.5616 37.0001 36.8162C37.0001 37.0707 37.1698 37.2404 37.4243 37.2404H41.1577V39.8707C40.5637 40.0404 40.1395 40.6344 40.1395 41.2707C40.1395 42.0768 40.7758 42.7556 41.5819 42.7556C42.388 42.7556 43.0243 42.0768 43.0243 41.2707C43.0243 40.6344 42.6001 40.0828 42.0061 39.8707ZM41.5819 41.9495C41.2425 41.9495 40.988 41.6525 40.988 41.3132C40.988 40.9738 41.2425 40.6768 41.5819 40.6768C41.9213 40.6768 42.1758 40.9738 42.1758 41.3132C42.1758 41.6525 41.9213 41.9495 41.5819 41.9495Z" fill="url(#paint7_linear_2592_31567)" fill-opacity="0.9"/>
</g>
<defs>
<linearGradient id="paint0_linear_2592_31567" x1="35.5555" y1="-10.915" x2="48.861" y2="57.4089" gradientUnits="userSpaceOnUse">
<stop offset="0.168198" stop-color="#FF9DC8"/>
<stop offset="0.984375" stop-color="#EB2B7E"/>
</linearGradient>
<linearGradient id="paint1_linear_2592_31567" x1="35.5555" y1="-10.915" x2="48.861" y2="57.4089" gradientUnits="userSpaceOnUse">
<stop offset="0.168198" stop-color="#FF9DC8"/>
<stop offset="0.984375" stop-color="#EB2B7E"/>
</linearGradient>
<linearGradient id="paint2_linear_2592_31567" x1="32.5141" y1="10.7149" x2="38.517" y2="41.5884" gradientUnits="userSpaceOnUse">
<stop offset="0.168198" stop-color="#FF9DC8"/>
<stop offset="0.984375" stop-color="#EB2B7E"/>
</linearGradient>
<linearGradient id="paint3_linear_2592_31567" x1="32.5141" y1="10.7149" x2="38.517" y2="41.5884" gradientUnits="userSpaceOnUse">
<stop offset="0.168198" stop-color="#FF9DC8"/>
<stop offset="0.984375" stop-color="#EB2B7E"/>
</linearGradient>
<linearGradient id="paint4_linear_2592_31567" x1="32.5141" y1="10.7149" x2="38.517" y2="41.5884" gradientUnits="userSpaceOnUse">
<stop offset="0.168198" stop-color="#FF9DC8"/>
<stop offset="0.984375" stop-color="#EB2B7E"/>
</linearGradient>
<linearGradient id="paint5_linear_2592_31567" x1="32.5141" y1="10.7149" x2="38.517" y2="41.5884" gradientUnits="userSpaceOnUse">
<stop offset="0.168198" stop-color="#FF9DC8"/>
<stop offset="0.984375" stop-color="#EB2B7E"/>
</linearGradient>
<linearGradient id="paint6_linear_2592_31567" x1="32.5141" y1="10.7149" x2="38.517" y2="41.5884" gradientUnits="userSpaceOnUse">
<stop offset="0.168198" stop-color="#FF9DC8"/>
<stop offset="0.984375" stop-color="#EB2B7E"/>
</linearGradient>
<linearGradient id="paint7_linear_2592_31567" x1="32.5141" y1="10.7149" x2="38.517" y2="41.5884" gradientUnits="userSpaceOnUse">
<stop offset="0.168198" stop-color="#FF9DC8"/>
<stop offset="0.984375" stop-color="#EB2B7E"/>
</linearGradient>
<clipPath id="clip0_2592_31567">
<rect width="28" height="28" fill="white" transform="translate(16 16)"/>
</clipPath>
</defs>
</svg>
