<svg width="56" height="95" viewBox="0 0 56 95" fill="none" xmlns="http://www.w3.org/2000/svg">
<rect width="56" height="56" rx="12" fill="url(#paint0_linear_939_1257)"/>
<path d="M37 19H19C18.4696 19 17.9609 19.2107 17.5858 19.5858C17.2107 19.9609 17 20.4696 17 21V24H19V21H37V35H30V37H37C37.5304 37 38.0391 36.7893 38.4142 36.4142C38.7893 36.0391 39 35.5304 39 35V21C39 20.4696 38.7893 19.9609 38.4142 19.5858C38.0391 19.2107 37.5304 19 37 19ZM17 34V37H20C20 36.2044 19.6839 35.4413 19.1213 34.8787C18.5587 34.3161 17.7956 34 17 34ZM17 30V32C17.6566 32 18.3068 32.1293 18.9134 32.3806C19.52 32.6319 20.0712 33.0002 20.5355 33.4645C20.9998 33.9288 21.3681 34.48 21.6194 35.0866C21.8707 35.6932 22 36.3434 22 37H24C24 35.1435 23.2625 33.363 21.9497 32.0503C20.637 30.7375 18.8565 30 17 30ZM17 26V28C18.1819 28 19.3522 28.2328 20.4442 28.6851C21.5361 29.1374 22.5282 29.8003 23.364 30.636C24.1997 31.4718 24.8626 32.4639 25.3149 33.5558C25.7672 34.6478 26 35.8181 26 37H28C28 30.92 23.07 26 17 26ZM27 27.09V29.09L30.5 31L34 29.09V27.09L30.5 29L27 27.09ZM30.5 22L25 25L30.5 28L36 25L30.5 22Z" fill="white"/>
<circle cx="28" cy="86" r="6" fill="white" stroke="url(#paint1_linear_939_1257)" stroke-width="6"/>
<defs>
<linearGradient id="paint0_linear_939_1257" x1="3.12425" y1="3.13739" x2="54.3643" y2="37.6734" gradientUnits="userSpaceOnUse">
<stop offset="0.168198" stop-color="#5FBAFD"/>
<stop offset="0.984375" stop-color="#2B6CEB"/>
</linearGradient>
<linearGradient id="paint1_linear_939_1257" x1="20.9688" y1="79.25" x2="31.6563" y2="95" gradientUnits="userSpaceOnUse">
<stop stop-color="#37D8FF"/>
<stop offset="1" stop-color="#279FFF"/>
</linearGradient>
</defs>
</svg>
