<svg width="24" height="24" viewBox="0 0 24 24" fill="none" xmlns="http://www.w3.org/2000/svg">
<g clip-path="url(#clip0_2266_31752)">
<path d="M12.25 2H11.15C10.82 0.85 9.76 0 8.5 0C7.24 0 6.18 0.85 5.85 2H4.75C4.34 2 4 2.34 4 2.75V4.25C4 5.21 4.79 6 5.75 6H11.25C12.21 6 13 5.21 13 4.25V2.75C13 2.34 12.66 2 12.25 2Z" fill="white"/>
<path d="M14.25 3H14V4.25C14 5.77 12.77 7 11.25 7H5.75C4.23 7 3 5.77 3 4.25V3H2.75C1.23 3 0 4.23 0 5.75V18.25C0 19.77 1.23 21 2.75 21H9.34C8.84 19.93 8.54 18.75 8.51 17.5H3.75C3.34 17.5 3 17.16 3 16.75C3 16.34 3.34 16 3.75 16H8.59C8.68 15.39 8.83 14.81 9.03 14.25H3.75C3.34 14.25 3 13.91 3 13.5C3 13.09 3.34 12.75 3.75 12.75H9.75C10.13 12.11 10.6 11.52 11.13 11H3.75C3.34 11 3 10.66 3 10.25C3 9.84 3.34 9.5 3.75 9.5H13.19C14.34 8.9 15.63 8.54 17 8.51V5.75C17 4.23 15.77 3 14.25 3Z" fill="white"/>
<path d="M17.25 10.5C13.528 10.5 10.5 13.528 10.5 17.25C10.5 20.972 13.528 24 17.25 24C20.972 24 24 20.972 24 17.25C24 13.528 20.972 10.5 17.25 10.5ZM20.942 17.086C20.8 17.484 20.423 17.75 20 17.75H18.25V20C18.25 20.552 17.802 21 17.25 21C16.698 21 16.25 20.552 16.25 20V17.75H14.5C14.077 17.75 13.7 17.484 13.558 17.086C13.416 16.688 13.539 16.243 13.867 15.976L16.617 13.726C16.664 13.687 16.846 13.589 16.889 13.573C17.122 13.482 17.379 13.482 17.612 13.573C17.655 13.59 17.837 13.687 17.884 13.726L20.634 15.976C20.96 16.244 21.084 16.688 20.942 17.086Z" fill="white"/>
</g>
<defs>
<clipPath id="clip0_2266_31752">
<rect width="24" height="24" fill="white"/>
</clipPath>
</defs>
</svg>
