<svg width="26" height="26" viewBox="0 0 26 26" fill="none" xmlns="http://www.w3.org/2000/svg">
<g clip-path="url(#clip0_7047_991)">
<path d="M24.2734 0.761719V22.1914C24.2734 22.6119 23.9322 22.9531 23.5117 22.9531H21.9883V4.57031C21.9883 3.31043 20.963 2.28516 19.7031 2.28516H4.77344V0.761719C4.77344 0.34125 5.11469 0 5.53516 0H23.5117C23.9322 0 24.2734 0.34125 24.2734 0.761719Z" fill="url(#paint0_linear_7047_991)"/>
<path d="M7.08594 7.61719V15.6406H15.1094V7.61719H7.08594ZM13.3122 12.7659C13.6093 13.0635 13.6093 13.5459 13.3122 13.8435C13.1634 13.9923 12.9684 14.0664 12.7734 14.0664C12.5784 14.0664 12.3834 13.9923 12.2346 13.8435L11.0977 12.706L9.96066 13.8435C9.81188 13.9923 9.61687 14.0664 9.42188 14.0664C9.22688 14.0664 9.03188 13.9923 8.88309 13.8435C8.58602 13.5459 8.58602 13.0635 8.88309 12.7659L10.0206 11.6289L8.88309 10.4919C8.58602 10.1943 8.58602 9.71191 8.88309 9.41434C9.18066 9.11727 9.66309 9.11727 9.96066 9.41434L11.0977 10.5518L12.2346 9.41434C12.5322 9.11727 13.0146 9.11727 13.3122 9.41434C13.6093 9.71191 13.6093 10.1943 13.3122 10.4919L12.1747 11.6289L13.3122 12.7659Z" fill="url(#paint1_linear_7047_991)"/>
<path d="M19.7031 3.80859H2.48828C2.06781 3.80859 1.72656 4.14984 1.72656 4.57031V19.3984H7.56641C7.98688 19.3984 8.32812 19.7397 8.32812 20.1602V26H19.7031C20.1236 26 20.4648 25.6588 20.4648 25.2383V4.57031C20.4648 4.14984 20.1236 3.80859 19.7031 3.80859ZM16.6309 16.4023C16.6309 16.8228 16.2896 17.1641 15.8691 17.1641H6.32227C5.9018 17.1641 5.56055 16.8228 5.56055 16.4023V6.85547C5.56055 6.435 5.9018 6.09375 6.32227 6.09375H15.8691C16.2896 6.09375 16.6309 6.435 16.6309 6.85547V16.4023ZM6.80469 25.2997V20.9219H2.42684L6.80469 25.2997Z" fill="url(#paint2_linear_7047_991)"/>
</g>
<defs>
<linearGradient id="paint0_linear_7047_991" x1="4.77344" y1="20.1346" x2="26.7239" y2="16.0782" gradientUnits="userSpaceOnUse">
<stop stop-color="#38DBFF"/>
<stop offset="0.984375" stop-color="#8A21DD"/>
</linearGradient>
<linearGradient id="paint1_linear_7047_991" x1="7.08594" y1="14.6554" x2="16.0041" y2="12.7155" gradientUnits="userSpaceOnUse">
<stop stop-color="#38DBFF"/>
<stop offset="0.984375" stop-color="#8A21DD"/>
</linearGradient>
<linearGradient id="paint2_linear_7047_991" x1="1.72656" y1="23.275" x2="22.828" y2="19.3992" gradientUnits="userSpaceOnUse">
<stop stop-color="#38DBFF"/>
<stop offset="0.984375" stop-color="#8A21DD"/>
</linearGradient>
<clipPath id="clip0_7047_991">
<rect width="26" height="26" fill="white"/>
</clipPath>
</defs>
</svg>
