<svg width="24" height="24" viewBox="0 0 24 24" fill="none" xmlns="http://www.w3.org/2000/svg">
<g clip-path="url(#clip0_7761_4581)">
<path d="M0.00546871 10.456C-0.0466563 10.8755 0.280484 11.2458 0.703203 11.2458H3.5638C3.90716 11.2458 4.20031 10.9978 4.25717 10.6591C4.80772 7.38045 7.38041 4.80772 10.6591 4.25722C10.9977 4.20036 11.2458 3.9072 11.2458 3.5638V0.703203C11.2458 0.280484 10.8755 -0.0466563 10.4559 0.00546871C7.81827 0.333266 5.32648 1.55291 3.43967 3.43967C1.55291 5.32648 0.333266 7.81827 0.00546871 10.456Z" fill="white"/>
<path d="M16.4801 18.3131C15.1456 19.266 13.5807 19.7696 11.9548 19.7696C8.12881 19.7696 4.89153 17.0279 4.25722 13.2503C4.20036 12.9117 3.9072 12.6636 3.56384 12.6636H0.703203C0.280484 12.6636 -0.0466563 13.0339 0.00546871 13.4534V13.4535C0.752703 19.4659 5.88978 24 11.9548 24C14.6567 24 17.2118 23.123 19.3441 21.4639C19.6778 21.2042 19.7085 20.7108 19.4095 20.4117L17.3859 18.3882C17.1428 18.1452 16.7598 18.1134 16.4801 18.3131Z" fill="white"/>
<path d="M13.2508 4.25722C17.0283 4.89153 19.7701 8.12881 19.7701 11.9548C19.7701 13.5807 19.2665 15.1455 18.3136 16.4801C18.1139 16.7598 18.1457 17.1428 18.3887 17.3858L20.4124 19.4095C20.7114 19.7085 21.2047 19.6778 21.4644 19.3441L21.4645 19.3441C23.1235 17.2119 24.0005 14.6567 24.0005 11.9548C24.0005 5.88978 19.4664 0.752703 13.454 0.00546871H13.4539C13.0344 -0.0466563 12.6641 0.280484 12.6641 0.703203V3.5638C12.6641 3.9072 12.9121 4.20036 13.2508 4.25722Z" fill="white"/>
<path d="M12.4224 7.12329H11.4844C11.0961 7.12329 10.7812 7.4381 10.7812 7.82642V16.0294H13.1256V7.82642C13.1256 7.4381 12.8107 7.12329 12.4224 7.12329Z" fill="white"/>
<path d="M14.5312 16.0294H16.1724C16.5608 16.0294 16.8756 15.7146 16.8756 15.3263V9.70135C16.8756 9.31304 16.5608 8.99823 16.1724 8.99823H14.5312V16.0294Z" fill="white"/>
<path d="M9.37378 10.8732H7.73438C7.34606 10.8732 7.03125 11.188 7.03125 11.5764V15.3263C7.03125 15.7146 7.34606 16.0294 7.73438 16.0294H9.37378V10.8732Z" fill="white"/>
</g>
<defs>
<clipPath id="clip0_7761_4581">
<rect width="24" height="24" fill="white"/>
</clipPath>
</defs>
</svg>
