<svg width="24" height="24" viewBox="0 0 24 24" fill="none" xmlns="http://www.w3.org/2000/svg">
<g clip-path="url(#clip0_7518_2014)">
<path d="M4.21876 5.20312C4.21876 4.01189 3.22581 3.0479 2.02422 3.09544C0.949748 3.13795 0.0684983 4.00012 0.00390455 5.07351C-0.0541267 6.03806 0.540717 6.87576 1.38751 7.185V9.89118H0.703139C0.314826 9.89118 1.39209e-05 10.206 1.39209e-05 10.5943V13.4056C1.39209e-05 13.794 0.314826 14.1088 0.703139 14.1088H3.6774V9.89118H2.79376V7.19859C3.62205 6.91359 4.21876 6.12656 4.21876 5.20312Z" fill="#FF0088"/>
<path d="M7.60625 16.8018V14.1092H8.76055V9.8916H5.0832V14.1092H6.2V16.8154C5.39141 17.1107 4.8125 17.8879 4.8125 18.7972C4.8125 19.9602 5.75891 20.9066 6.92188 20.9066C8.08484 20.9066 9.03125 19.9602 9.03125 18.7972C9.03125 17.8738 8.43453 17.0868 7.60625 16.8018Z" fill="#FF0088"/>
<path d="M23.2855 7.3125C23.6814 7.3125 24.0027 6.9975 24.0027 6.60938V3.79688C24.0027 3.40875 23.6814 3.09375 23.2855 3.09375H19.6391C19.2432 3.09375 18.9219 3.40875 18.9219 3.79688V7.3125V9.89119H20.3253V14.1088H23.2995C23.6878 14.1088 24.0027 13.794 24.0027 13.4056V10.5943C24.0027 10.206 23.6878 9.89119 23.2995 9.89119H20.3281V7.3125H23.2855Z" fill="#FF0088"/>
<path d="M14.125 5.20312C14.125 4.04597 13.1728 3.09375 12.0156 3.09375C10.8585 3.09375 9.90625 4.04597 9.90625 5.20312C9.90625 6.10772 10.4882 6.88706 11.295 7.18416C11.2946 7.18444 11.2942 7.18472 11.2938 7.185V9.89119H10.1584V14.1088H13.8354V9.89119H12.7V7.19859C12.6993 7.19813 12.6987 7.19766 12.698 7.19719C13.5245 6.91083 14.125 6.12188 14.125 5.20312Z" fill="#FF0088"/>
<path d="M15.2395 14.1092H16.3563V16.8154C15.5477 17.1107 14.9688 17.8879 14.9688 18.7972C14.9688 19.9602 15.9152 20.9066 17.0781 20.9066C18.2411 20.9066 19.1875 19.9602 19.1875 18.7972C19.1875 17.8738 18.5908 17.0868 17.7625 16.8018V14.1092H18.9168V9.8916H15.2394V14.1092H15.2395Z" fill="#FF0088"/>
</g>
<defs>
<clipPath id="clip0_7518_2014">
<rect width="24" height="24" fill="white"/>
</clipPath>
</defs>
</svg>
