<svg width="32" height="32" viewBox="0 0 32 32" fill="none" xmlns="http://www.w3.org/2000/svg">
<g clip-path="url(#clip0_7516_2312)">
<path d="M16 18.8098C18.0711 18.8098 19.75 17.1306 19.75 15.0592C19.75 12.9878 18.0711 11.3086 16 11.3086C13.9289 11.3086 12.25 12.9878 12.25 15.0592C12.25 17.1306 13.9289 18.8098 16 18.8098Z" fill="#178EE8"/>
<path d="M25.4047 18.8067C27.4716 18.8067 29.1532 17.1249 29.1532 15.0577C29.1532 12.9904 27.4717 11.3086 25.4047 11.3086C23.3378 11.3086 21.6562 12.9904 21.6562 15.0577C21.6562 17.1249 23.3379 18.8067 25.4047 18.8067Z" fill="#178EE8"/>
<path d="M15.9991 0.760479C13.9578 -0.975708 10.7188 0.438417 10.7188 3.20735C10.7188 4.06404 11.0523 4.86948 11.658 5.47529L15.3361 9.15398C15.702 9.52004 16.296 9.52004 16.6619 9.15398L20.3401 5.47529C21.5903 4.22473 21.5903 2.18998 20.34 0.939479C19.1524 -0.248208 17.2578 -0.308021 15.9991 0.760479Z" fill="#178EE8"/>
<path d="M6.59219 11.3086C4.52531 11.3086 2.84375 12.9904 2.84375 15.0577C2.84375 17.1249 4.52525 18.8067 6.59219 18.8067C8.65912 18.8067 10.3407 17.1249 10.3407 15.0577C10.3407 12.9904 8.65906 11.3086 6.59219 11.3086Z" fill="#178EE8"/>
<path d="M11.3125 18.8105V32.0002H20.6875V18.8105H16H11.3125Z" fill="#178EE8"/>
<path d="M0 21.6235V29.1247C0 29.6419 0.418813 30.0615 0.936 30.0623L1.94062 30.0639V31.0625C1.94062 31.5803 2.36037 32.0001 2.87812 32.0001H9.4375V18.8105H2.8125C1.26169 18.8105 0 20.0724 0 21.6235Z" fill="#178EE8"/>
<path d="M29.1875 18.8105H22.5625V32.0002H29.1219C29.6396 32.0002 30.0594 31.5804 30.0594 31.0625V30.0608L31.0609 30.0624H31.0624C31.3108 30.0624 31.549 29.9639 31.7248 29.7884C31.9009 29.6125 31.9999 29.3737 31.9999 29.1248V21.6235C32 20.0724 30.7383 18.8105 29.1875 18.8105Z" fill="#178EE8"/>
</g>
<defs>
<clipPath id="clip0_7516_2312">
<rect width="32" height="32" fill="white"/>
</clipPath>
</defs>
</svg>
