<svg width="24" height="24" viewBox="0 0 24 24" fill="none" xmlns="http://www.w3.org/2000/svg">
<g clip-path="url(#clip0_7047_901)">
<path fill-rule="evenodd" clip-rule="evenodd" d="M18.2353 15.7903C17.8941 15.7158 17.5399 15.6764 17.1765 15.6764C14.4496 15.6764 12.2353 17.8902 12.2353 20.6176C12.2353 20.981 12.2746 21.3353 12.3492 21.6764H2.70589C2.31603 21.6764 2 21.3604 2 20.9705V6.85292H7.64708C8.03694 6.85292 8.35297 6.53689 8.35297 6.14703V0.5H17.5294C17.9193 0.5 18.2353 0.816031 18.2353 1.20589V15.7903ZM13.2941 20.6176C13.2941 18.4745 15.0347 16.7352 17.1765 16.7352C19.3196 16.7352 21.0589 18.4759 21.0589 20.6176C21.0589 22.7607 19.3183 24.5 17.1765 24.5C15.0334 24.5 13.2941 22.7594 13.2941 20.6176ZM15.4126 19.9118C15.2172 19.9118 15.0588 20.0682 15.0588 20.268V20.9673C15.0588 21.164 15.2197 21.3235 15.4126 21.3235H18.9403C19.1357 21.3235 19.2941 21.167 19.2941 20.9673V20.268C19.2941 20.0712 19.1332 19.9118 18.9403 19.9118H15.4126ZM2.41348 5.44119L6.94119 0.913484V5.44119H2.41348Z" fill="url(#paint0_linear_7047_901)" fill-opacity="0.9"/>
</g>
<defs>
<linearGradient id="paint0_linear_7047_901" x1="13.2941" y1="-3.86601" x2="19.8557" y2="22.8909" gradientUnits="userSpaceOnUse">
<stop offset="0.168198" stop-color="#FF9DC8"/>
<stop offset="0.984375" stop-color="#EB2B7E"/>
</linearGradient>
<clipPath id="clip0_7047_901">
<rect width="24" height="24" fill="white"/>
</clipPath>
</defs>
</svg>
