<svg width="24" height="24" viewBox="0 0 24 24" fill="none" xmlns="http://www.w3.org/2000/svg">
<g clip-path="url(#clip0_7517_1945)">
<path d="M19.0781 7.03125C17.915 7.03125 16.9688 6.08503 16.9688 4.92188V0H5.01562C4.62698 0 4.3125 0.314484 4.3125 0.703125V18.9844C4.3125 19.373 4.62698 19.6875 5.01562 19.6875H23.2969C23.6855 19.6875 24 19.373 24 18.9844V7.03125H19.0781ZM7.82812 5.625H14.8594C15.248 5.625 15.5625 5.93948 15.5625 6.32812C15.5625 6.71677 15.248 7.03125 14.8594 7.03125H7.82812C7.43948 7.03125 7.125 6.71677 7.125 6.32812C7.125 5.93948 7.43948 5.625 7.82812 5.625ZM12.75 14.0625C12.75 14.4511 12.4355 14.7656 12.0469 14.7656C11.6582 14.7656 11.3438 14.4511 11.3438 14.0625V13.6505L8.32523 16.669C8.05059 16.9437 7.60566 16.9437 7.33097 16.669C7.05633 16.3944 7.05633 15.9494 7.33097 15.6748L10.3495 12.6562H9.9375C9.54886 12.6562 9.23438 12.3418 9.23438 11.9531C9.23438 11.5645 9.54886 11.25 9.9375 11.25H12.0469C12.4346 11.25 12.75 11.5683 12.75 11.9531V14.0625ZM20.4844 15.4688H16.2656C15.877 15.4688 15.5625 15.1543 15.5625 14.7656C15.5625 14.377 15.877 14.0625 16.2656 14.0625H20.4844C20.873 14.0625 21.1875 14.377 21.1875 14.7656C21.1875 15.1543 20.873 15.4688 20.4844 15.4688ZM20.4844 12.6562H16.2656C15.877 12.6562 15.5625 12.3418 15.5625 11.9531C15.5625 11.5645 15.877 11.25 16.2656 11.25H20.4844C20.873 11.25 21.1875 11.5645 21.1875 11.9531C21.1875 12.3418 20.873 12.6562 20.4844 12.6562ZM20.4844 9.84375H7.82812C7.43948 9.84375 7.125 9.52927 7.125 9.14062C7.125 8.75198 7.43948 8.4375 7.82812 8.4375H20.4844C20.873 8.4375 21.1875 8.75198 21.1875 9.14062C21.1875 9.52927 20.873 9.84375 20.4844 9.84375Z" fill="white" fill-opacity="0.88"/>
<path d="M19.0781 5.62512H23.588L18.375 0.412109V4.922C18.375 5.30994 18.6902 5.62512 19.0781 5.62512Z" fill="white" fill-opacity="0.88"/>
<path d="M5.01562 21.0938C3.85247 21.0938 2.90625 20.1475 2.90625 18.9844V4.21875H0.703125C0.314484 4.21875 0 4.53323 0 4.92188V23.2969C0 23.6855 0.314484 24 0.703125 24H19.0781C19.4668 24 19.7812 23.6855 19.7812 23.2969V21.0938H5.01562Z" fill="white" fill-opacity="0.88"/>
</g>
<defs>
<clipPath id="clip0_7517_1945">
<rect width="24" height="24" fill="white"/>
</clipPath>
</defs>
</svg>
