<svg width="26" height="26" viewBox="0 0 26 26" fill="none" xmlns="http://www.w3.org/2000/svg">
<g clip-path="url(#clip0_7513_2028)">
<path d="M18.4178 0H7.58594V10.8319H18.4178V0Z" fill="#8A21DD"/>
<path d="M18.4178 21.666H7.58594V25.9991H18.4178V21.666Z" fill="#8A21DD"/>
<path d="M23.8324 8.66602H20.5825V12.9991H5.41657V8.66602H2.16669C0.975282 8.66602 0 9.6413 0 10.8324V23.8319H5.41657V21.6655C5.41657 20.4741 6.39186 19.4988 7.58295 19.4988H18.4161C19.6072 19.4988 20.5825 20.4741 20.5825 21.6655V23.8319H25.999V10.8324C25.999 9.6413 25.0238 8.66602 23.8324 8.66602ZM9.74964 17.3322H3.24988V15.1658H9.74964V17.3322ZM17.3326 17.3322C16.734 17.3322 16.2494 16.8456 16.2494 16.249C16.2494 15.65 16.734 15.1658 17.3326 15.1658C17.9315 15.1658 18.4161 15.65 18.4161 16.249C18.4161 16.8456 17.9315 17.3322 17.3326 17.3322ZM21.666 17.3322C21.067 17.3322 20.5825 16.8456 20.5825 16.249C20.5825 15.65 21.067 15.1658 21.666 15.1658C22.2646 15.1658 22.7492 15.65 22.7492 16.249C22.7492 16.8456 22.2646 17.3322 21.666 17.3322Z" fill="#8A21DD"/>
</g>
<defs>
<clipPath id="clip0_7513_2028">
<rect width="26" height="26" fill="white"/>
</clipPath>
</defs>
</svg>
