<svg width="26" height="26" viewBox="0 0 26 26" fill="none" xmlns="http://www.w3.org/2000/svg">
<g clip-path="url(#clip0_7514_2231)">
<path d="M23.5474 8.25982L22.4702 0.719266C22.3817 0.101055 21.6218 -0.155848 21.1774 0.28859L19.6086 1.85743C17.5912 0.640453 15.3008 0 12.9458 0C5.86339 0 0.177264 5.54328 0.000240947 12.6197C-0.00940749 13.0065 0.271768 13.3383 0.6541 13.3933L3.69798 13.8284C4.15176 13.8947 4.5739 13.5384 4.56761 13.0638C4.50449 8.39343 8.27662 4.57031 12.9458 4.57031C14.0764 4.57031 15.1937 4.80015 16.2262 5.23976L14.714 6.75203C14.2723 7.19367 14.523 7.95585 15.1446 8.04487L22.6852 9.12199C23.182 9.19689 23.6186 8.76479 23.5474 8.25982Z" fill="#E817AD"/>
<path d="M25.3469 12.6659L22.3053 12.2314C21.9123 12.1817 21.4357 12.5184 21.4357 13.0512C21.4357 17.6713 17.6769 21.4301 13.0568 21.4301C11.9321 21.4301 10.82 21.2025 9.79126 20.7673L11.2552 19.3034C11.6968 18.8617 11.4462 18.0996 10.8245 18.0105L3.28395 16.9326C2.78868 16.8619 2.35008 17.2866 2.42178 17.7948L3.49885 25.3354C3.58752 25.9543 4.3467 26.2095 4.79169 25.7661L6.39846 24.1601C8.40615 25.3659 10.695 26.0004 13.0568 26.0004C20.1049 26.0004 25.7903 20.4846 26.0008 13.4432C26.012 13.0557 25.7308 12.7209 25.3469 12.6659Z" fill="#E817AD"/>
</g>
<defs>
<clipPath id="clip0_7514_2231">
<rect width="26" height="26" fill="white"/>
</clipPath>
</defs>
</svg>
