<svg width="16" height="16" viewBox="0 0 16 16" fill="none" xmlns="http://www.w3.org/2000/svg">
<g clip-path="url(#clip0_7514_2258)">
<path d="M3.47984 2.2168L0.593375 3.74877C0.543937 3.77467 0.49725 3.80417 0.453125 3.83645L7.83409 7.6853L10.9249 6.15655L3.47984 2.2168Z" fill="#178EE8"/>
<path d="M16.0012 4.69141L12.3086 6.51778V8.57538C12.3086 8.83416 12.0988 9.04397 11.84 9.04397C11.5812 9.04397 11.3714 8.83416 11.3714 8.57538V6.98134L8.29688 8.50206V15.9488C8.3065 15.9443 8.31625 15.9402 8.32578 15.9354L15.394 12.354C15.7695 12.1663 16.0027 11.789 16.0027 11.3691V4.73281C16.0027 4.71891 16.0017 4.70519 16.0012 4.69141Z" fill="#178EE8"/>
<path d="M15.3905 3.74719L8.32525 0.167283L8.32231 0.165814C8.00772 0.00918932 7.63391 0.0126893 7.32225 0.175189L4.47656 1.68547L11.9569 5.64388L15.5675 3.85803C15.5127 3.81628 15.4538 3.77881 15.3905 3.74719Z" fill="#178EE8"/>
<path d="M0.00221875 4.66016C0.00096875 4.68162 0 4.70313 0 4.72481V11.3773C0 11.7887 0.22625 12.1623 0.5905 12.353L7.32003 15.9246L7.32306 15.9262C7.33425 15.9321 7.34569 15.9372 7.35703 15.9426V8.49534L0.00221875 4.66016Z" fill="#178EE8"/>
</g>
<defs>
<clipPath id="clip0_7514_2258">
<rect width="16" height="16" fill="white"/>
</clipPath>
</defs>
</svg>
