<svg width="20" height="20" viewBox="0 0 20 20" fill="none" xmlns="http://www.w3.org/2000/svg">
<g clip-path="url(#clip0_7047_905)">
<path fill-rule="evenodd" clip-rule="evenodd" d="M0 9.41023C0 8.43641 0.791445 7.64703 1.76574 7.64703H18.2343C19.2097 7.64703 20 8.43473 20 9.41023V18.2368C20 19.2106 19.2086 20 18.2343 20H1.76574C0.790312 20 0 19.2123 0 18.2368L0 9.41023ZM6.12602 6.76469H4.46223L8.18863 3.03828C8.03082 2.74699 7.94117 2.41336 7.94117 2.05883C7.94117 0.921758 8.86297 0 10 0C11.137 0 12.0588 0.921758 12.0588 2.05883C12.0588 2.4134 11.9692 2.74703 11.8114 3.03828L15.5378 6.76469H13.874L10.9795 3.87016C10.6882 4.02801 10.3545 4.11762 10 4.11762C9.64547 4.11762 9.3118 4.02801 9.02055 3.87016L6.12602 6.76469ZM10 2.94117C10.4873 2.94117 10.8823 2.54613 10.8823 2.05883C10.8823 1.57152 10.4873 1.17648 10 1.17648C9.5127 1.17648 9.11766 1.57152 9.11766 2.05883C9.11766 2.54613 9.5127 2.94117 10 2.94117ZM6.47059 13.8235C6.47059 15.773 8.05062 17.3529 10 17.3529C11.9495 17.3529 13.5294 15.7729 13.5294 13.8235C13.5294 11.874 11.9494 10.2941 10 10.2941C8.05051 10.2941 6.47059 11.8742 6.47059 13.8235ZM12.0273 12.6281C12.5603 13.5304 12.4392 14.7119 11.6638 15.4873C10.8884 16.2627 9.70687 16.3839 8.80453 15.8509L12.0273 12.6281ZM11.1954 11.7962L7.97266 15.019C7.43965 14.1167 7.56078 12.9352 8.33621 12.1598C9.11156 11.3844 10.2931 11.2632 11.1954 11.7962Z" fill="url(#paint0_linear_7047_905)" fill-opacity="0.9"/>
</g>
<defs>
<linearGradient id="paint0_linear_7047_905" x1="11.8519" y1="-3.63834" x2="16.287" y2="19.1363" gradientUnits="userSpaceOnUse">
<stop offset="0.168198" stop-color="#FF9DC8"/>
<stop offset="0.984375" stop-color="#EB2B7E"/>
</linearGradient>
<clipPath id="clip0_7047_905">
<rect width="20" height="20" fill="white"/>
</clipPath>
</defs>
</svg>
