<svg width="26" height="26" viewBox="0 0 26 26" fill="none" xmlns="http://www.w3.org/2000/svg">
<g clip-path="url(#clip0_7514_2101)">
<path d="M23.8359 4.33398V19.5008C23.8359 21.8908 21.8928 23.834 19.5027 23.834H4.33594C4.33594 25.0254 5.31157 26.0008 6.50271 26.0008H23.8359C25.0274 26.0008 26.0027 25.0254 26.0027 23.834V6.50076C26.0027 5.30962 25.0274 4.33398 23.8359 4.33398Z" fill="#178EE8"/>
<path d="M0 5.41602V19.4992C0 20.6904 0.975317 21.666 2.16677 21.666H19.5C20.6911 21.666 21.6668 20.6904 21.6668 19.4992V5.41602H0ZM8.89072 14.3067L4.78207 18.416L3.25 16.8839L6.59293 13.541L3.25 10.1978L4.78207 8.66602L8.89072 12.775C9.31417 13.1981 9.3129 13.8839 8.89072 14.3067ZM18.4168 17.8742H10.8332V15.7075H18.4168V17.8742Z" fill="#178EE8"/>
<path d="M19.5 0H2.16677C0.975317 0 0 0.975317 0 2.16677V3.25H21.6668V2.16677C21.6668 0.975317 20.6911 0 19.5 0Z" fill="#178EE8"/>
</g>
<defs>
<clipPath id="clip0_7514_2101">
<rect width="26" height="26" fill="white"/>
</clipPath>
</defs>
</svg>
