<svg width="24" height="24" viewBox="0 0 24 24" fill="none" xmlns="http://www.w3.org/2000/svg">
<g clip-path="url(#clip0_7644_3762)">
<path d="M11.2109 18.77C11.4704 18.8001 11.7342 18.8161 12.0016 18.8161C12.269 18.8161 12.5327 18.8001 12.7922 18.77V8.89453H11.2109V18.77Z" fill="white"/>
<path d="M8.21875 17.6694C8.7055 17.9948 9.23617 18.2595 9.80003 18.452V11.707H8.21875V17.6694Z" fill="white"/>
<path d="M14.1953 18.4523C14.7592 18.2598 15.2898 17.9952 15.7766 17.6697V13.2012H14.1953V18.4523Z" fill="white"/>
<path d="M12.003 5.18359C8.24492 5.18359 5.1875 8.24106 5.1875 11.9991C5.1875 13.6837 5.80217 15.2273 6.81861 16.418V10.3001H9.80614V7.48684H14.1999V11.7939H17.1875V16.418C18.2039 15.2273 18.8186 13.6837 18.8186 11.9991C18.8186 8.24102 15.7611 5.18359 12.003 5.18359Z" fill="white"/>
<path d="M22.4 10.5062C21.7442 5.89945 18.1005 2.25581 13.4938 1.59998V0H10.5062V1.59998C5.89945 2.25581 2.25581 5.89945 1.59998 10.5062H0V13.4938H1.59998C2.25581 18.1005 5.89945 21.7442 10.5062 22.4V24H13.4938V22.4C18.1005 21.7442 21.7442 18.1005 22.4 13.4938H24V10.5062H22.4ZM12 20.2218C7.46648 20.2218 3.77822 16.5335 3.77822 12C3.77822 7.46653 7.46648 3.77822 12 3.77822C16.5335 3.77822 20.2218 7.46648 20.2218 12C20.2218 16.5335 16.5335 20.2218 12 20.2218Z" fill="white"/>
</g>
<defs>
<clipPath id="clip0_7644_3762">
<rect width="24" height="24" fill="white"/>
</clipPath>
</defs>
</svg>
