<svg width="24" height="24" viewBox="0 0 24 24" fill="none" xmlns="http://www.w3.org/2000/svg">
<g clip-path="url(#clip0_7644_3770)">
<path d="M9.17647 17.6472V19.0589H4.94118V14.8236H6.35294V16.6489L12.7307 10.2712C11.3836 9.14769 9.65186 8.4707 7.76471 8.4707C3.48325 8.4707 0 11.954 0 16.2354C0 20.5169 3.48325 24.0001 7.76471 24.0001C12.0462 24.0001 15.5294 20.5169 15.5294 16.2354C15.5294 14.3483 14.8524 12.6165 13.7289 11.2694L7.3512 17.6472H9.17647Z" fill="white"/>
<path d="M16.2349 0C12.1813 0 8.84386 3.12245 8.5 7.08838C10.4887 7.24687 12.3004 8.04254 13.7312 9.27012L16.6484 6.35294H14.8232V4.94118H19.0584V9.17647H17.6467V7.3512L14.7295 10.2684C15.957 11.6992 16.7528 13.5109 16.9112 15.4997C20.8772 15.1558 23.9996 11.8183 23.9996 7.76471C23.9996 3.48325 20.5164 0 16.2349 0Z" fill="white"/>
<path d="M13.7353 9.26953L12.7344 10.2705C13.0964 10.5724 13.4307 10.9067 13.7326 11.2687L14.7336 10.2678C14.4268 9.9101 14.093 9.57635 13.7353 9.26953Z" fill="white"/>
</g>
<defs>
<clipPath id="clip0_7644_3770">
<rect width="24" height="24" fill="white"/>
</clipPath>
</defs>
</svg>
