<svg width="28" height="28" viewBox="0 0 28 28" fill="none" xmlns="http://www.w3.org/2000/svg">
<g clip-path="url(#clip0_7518_1959)">
<path d="M27.2382 5.7308L27.2381 5.73075C26.6888 5.31064 25.9511 5.21466 25.3128 5.48028L18.36 8.37211C17.7216 8.63761 17.2695 9.2284 17.1803 9.91419C17.091 10.5998 17.3766 11.2867 17.9259 11.707L18.377 12.0521L15.8532 14.9248L10.9997 9.13101C10.4011 8.41624 9.52082 8.02025 8.58621 8.03922C7.65231 8.06153 6.79268 8.50106 6.22759 9.24514L0.620415 16.6295C-0.397705 17.9704 -0.135204 19.8895 1.20563 20.9076C2.54646 21.9256 4.46561 21.6631 5.48373 20.3224L8.77641 15.9861L13.4575 21.5742C14.0301 22.2578 14.8701 22.6561 15.7617 22.6666L15.7981 22.6668C16.6762 22.6668 17.5122 22.2885 18.0916 21.6289L23.2383 15.771L23.907 16.2825C24.2206 16.5223 24.5948 16.6595 24.9889 16.6793C25.2754 16.6938 25.5674 16.6431 25.8323 16.5329C26.4706 16.2674 26.9227 15.6766 27.012 14.9908L27.9839 7.52374C28.0732 6.83806 27.7875 6.15108 27.2382 5.7308Z" fill="white"/>
</g>
<defs>
<clipPath id="clip0_7518_1959">
<rect width="28" height="28" fill="white"/>
</clipPath>
</defs>
</svg>
