<svg width="26" height="26" viewBox="0 0 26 26" fill="none" xmlns="http://www.w3.org/2000/svg">
<g clip-path="url(#clip0_7514_2217)">
<path d="M26 13.0002C26 9.52843 24.6477 6.26451 22.1923 3.8097C19.7369 1.35483 16.4724 0.00292969 13 0.00292969C12.9947 0.00292969 12.9893 0.00313281 12.9839 0.00313281C12.9826 0.00313281 12.9814 0.00292969 12.98 0.00292969C12.9779 0.00292969 12.9758 0.00323437 12.9737 0.00323437C9.51112 0.0100898 6.25681 1.36107 3.80768 3.8097C1.35225 6.26456 0 9.52848 0 13.0002C0 16.4719 1.35225 19.7359 3.80768 22.1907C6.25681 24.6393 9.51112 25.9903 12.9737 25.9971C12.9758 25.9971 12.9779 25.9974 12.98 25.9974C12.9814 25.9974 12.9826 25.9972 12.9839 25.9972C12.9892 25.9972 12.9946 25.9974 13 25.9974C15.7759 25.9974 18.4185 25.1327 20.6214 23.532C20.9276 23.7008 21.2792 23.7971 21.6529 23.7971C22.8351 23.7971 23.7969 22.8352 23.7969 21.653C23.7969 21.2797 23.7008 20.9284 23.5323 20.6224C25.1344 18.4194 26 15.7765 26 13.0002ZM12.2171 24.4445C6.50625 24.0579 1.92877 19.4753 1.55177 13.7631H2.7626C3.01036 14.4116 3.56398 14.9098 4.24638 15.0803C5.12936 18.7938 8.32203 21.6223 12.2172 21.9595V24.4445H12.2171ZM12.2172 20.4272C9.10071 20.1013 6.54839 17.8527 5.7721 14.8928C6.22654 14.6502 6.58354 14.2488 6.76914 13.7631H8.21849C8.54516 15.8142 10.1668 17.4396 12.2172 17.7741V20.4272ZM12.2172 16.2178C11.0102 15.9249 10.0601 14.971 9.77366 13.7631H12.2172V16.2178ZM12.2172 12.2373H9.77366C10.0601 11.0294 11.0102 10.0755 12.2172 9.78259V12.2373ZM8.21849 12.2374H6.76914C6.58354 11.7517 6.22649 11.3503 5.77205 11.1077C6.54834 8.14779 9.10066 5.89909 12.2171 5.57323V8.22634H12.2172C10.1668 8.56079 8.54516 10.1862 8.21849 12.2374ZM12.2172 4.041C8.32203 4.37824 5.12936 7.20676 4.24638 10.9202C3.56398 11.0907 3.01041 11.5889 2.7626 12.2374H1.55177C1.92877 6.52517 6.5062 1.94257 12.2172 1.55592V4.041ZM13.743 1.55338C19.4724 1.92134 24.0703 6.51182 24.4482 12.2373H21.9643C21.8426 10.7967 21.38 9.4519 20.6574 8.28378C20.8512 7.96157 20.963 7.58467 20.963 7.18208C20.963 5.99984 20.0011 5.03799 18.8189 5.03799C18.4158 5.03799 18.0384 5.14996 17.716 5.3442C16.5424 4.6192 15.1908 4.15623 13.743 4.0374V1.55338ZM13.7429 17.7807C15.8122 17.461 17.4527 15.8275 17.7815 13.7631H20.4325C20.0739 17.2798 17.264 20.0822 13.743 20.4312L13.7429 17.7807ZM16.2263 13.7631C15.9368 14.9843 14.9687 15.9456 13.7429 16.227V13.7631H16.2263ZM13.7429 12.2373V9.77339C14.9688 10.0548 15.9368 11.0161 16.2263 12.2373H13.7429ZM13.7429 5.56916C14.8377 5.67768 15.8637 6.02366 16.7687 6.55442C16.7077 6.75303 16.6747 6.96377 16.6747 7.18213C16.6747 8.36437 17.6365 9.32616 18.8188 9.32616C19.0377 9.32616 19.2488 9.29305 19.4478 9.23181C19.976 10.1312 20.3216 11.15 20.4325 12.2374H17.7815C17.4527 10.1729 15.8122 8.53941 13.7429 8.21974V5.56916ZM22.3595 19.6292C22.1381 19.5517 21.9004 19.509 21.6529 19.509C20.4706 19.509 19.5088 20.4708 19.5088 21.653C19.5088 21.9002 19.5513 22.1376 19.6287 22.3588C17.945 23.5543 15.926 24.3068 13.7429 24.4469V21.9629C18.1058 21.6047 21.5963 18.1216 21.9643 13.763H24.4482C24.3046 15.9386 23.5524 17.9506 22.3595 19.6292Z" fill="#E817AD"/>
</g>
<defs>
<clipPath id="clip0_7514_2217">
<rect width="26" height="26" fill="white"/>
</clipPath>
</defs>
</svg>
