<svg width="24" height="24" viewBox="0 0 24 24" fill="none" xmlns="http://www.w3.org/2000/svg">
<path d="M19.5143 8.97169C19.4236 4.00931 15.3587 0 10.375 0C5.335 0 1.23438 4.10063 1.23438 9.14062C1.23438 11.6201 2.25611 14.0007 4.04687 15.7228V24H13.8906V21.1875H19.5156V15.4688H22.7621L19.5143 8.97169ZM14.3878 11.7471L13.3935 10.7528L14.3026 9.84375H13.1875C12.0243 9.84375 11.0781 10.79 11.0781 11.9531V14.7656H9.67187V11.9531C9.67187 10.79 8.72566 9.84375 7.5625 9.84375H6.44739L7.35653 10.7529L6.36227 11.7472L3.75573 9.14062L6.36222 6.53414L7.35648 7.52841L6.44739 8.4375H7.5625C8.35712 8.4375 9.08256 8.71223 9.67187 9.1583V5.21302L8.76273 6.12216L7.76847 5.12789L10.375 2.52141L12.9814 5.12789L11.9872 6.12216L11.078 5.21302V9.1583C11.6673 8.71223 12.3928 8.4375 13.1874 8.4375H14.3025L13.3934 7.52836L14.3876 6.53409L16.9943 9.14062L14.3878 11.7471Z" fill="white"/>
</svg>
