<svg width="26" height="26" viewBox="0 0 26 26" fill="none" xmlns="http://www.w3.org/2000/svg">
<g clip-path="url(#clip0_7514_2075)">
<path d="M13.0027 7.58398C10.6627 7.58398 9.06298 9.47159 9.44777 11.7797L10.0318 15.2741C10.2626 16.6602 11.5973 17.7922 13.0027 17.7922C14.4063 17.7922 15.744 16.6602 15.9744 15.2741L16.5565 11.7797C16.9413 9.47159 15.3417 7.58398 13.0027 7.58398Z" fill="#8A21DD"/>
<path d="M20.2993 19.4034L16.2274 18.0469C15.3726 18.8815 14.2237 19.4161 13.0027 19.4161C11.7817 19.4161 10.6328 18.8815 9.77804 18.0469L5.70709 19.4034C4.95407 19.655 4.33594 20.511 4.33594 21.3056V24.9164H21.6695V21.3056C21.6695 20.511 21.0526 19.6553 20.2993 19.4034Z" fill="#8A21DD"/>
<path d="M17.333 5.41602C16.3632 5.41602 15.5325 5.75339 14.9062 6.2984C15.7356 6.601 16.4727 7.09694 17.0379 7.76478C18.0113 8.91364 18.4185 10.473 18.1562 12.045L17.5742 15.5394C17.5709 15.5605 17.5615 15.5806 17.5573 15.6018C18.8768 15.4883 20.0868 14.4168 20.3048 13.1061L20.8866 9.61175C21.2717 7.3033 19.6721 5.41602 17.333 5.41602Z" fill="#8A21DD"/>
<path d="M8.6668 1.08398C6.32648 1.08398 4.72681 2.97159 5.11192 5.27972L5.69597 8.77411C5.87567 9.8586 6.7347 10.779 7.77273 11.1323C7.76848 9.88171 8.17803 8.69057 8.96063 7.76629C9.74584 6.8394 10.8567 6.23974 12.0946 6.03954L12.2203 5.27966C12.6058 2.97127 11.0062 1.08398 8.6668 1.08398Z" fill="#8A21DD"/>
<path d="M8.42562 15.5395L7.97583 12.8417C7.01841 12.6821 6.13272 12.2209 5.4421 11.5469L1.37116 12.9034C0.617817 13.1549 0 14.0107 0 14.8053V18.4161H4.1746C4.48138 18.1759 4.822 17.9845 5.18826 17.8616L8.79379 16.662C8.62742 16.3055 8.49094 15.9344 8.42562 15.5395Z" fill="#8A21DD"/>
<path d="M24.6307 17.2371L20.5588 15.8809C19.9748 16.4509 19.2481 16.8646 18.4609 17.0795L20.8107 17.8624C22.2261 18.3353 23.2927 19.8153 23.2927 21.3061V22.7501H26.0009V19.1394C26.0009 18.3447 25.3844 17.489 24.6307 17.2371Z" fill="#8A21DD"/>
</g>
<defs>
<clipPath id="clip0_7514_2075">
<rect width="26" height="26" fill="white"/>
</clipPath>
</defs>
</svg>
