<svg width="26" height="26" viewBox="0 0 26 26" fill="none" xmlns="http://www.w3.org/2000/svg">
<g clip-path="url(#clip0_7047_895)">
<path d="M1.52943 0H24.4706C25.3153 0 26 0.684733 26 1.52943V10.7059C26 11.5506 25.3153 12.2353 24.4706 12.2353H1.52943C0.684735 12.2353 0 11.5506 0 10.7059V1.52943C0 0.684733 0.684735 0 1.52943 0ZM3.70967 9.51016L6.57089 8.4372L10.5691 9.16414C10.7224 9.19202 10.8805 9.17241 11.0223 9.10792L14.9769 7.31037L18.9165 8.3848C19.1487 8.44812 19.3972 8.39846 19.5871 8.25063L23.0283 5.57416C23.3617 5.31487 23.4217 4.83442 23.1625 4.50105C22.9032 4.16767 22.4228 4.10764 22.0894 4.36693L18.95 6.80865L15.1131 5.7622C14.941 5.71523 14.7578 5.72995 14.5954 5.80379L10.6073 7.61653L6.63686 6.89462C6.50097 6.86989 6.36091 6.88248 6.23157 6.93098L3.17276 8.07803C2.77733 8.22631 2.57694 8.66714 2.72528 9.06257C2.87346 9.45806 3.31424 9.65844 3.70967 9.51016ZM7.64705 4.97057H11.4706C11.8929 4.97057 12.2353 4.6282 12.2353 4.20586C12.2353 3.78351 11.8929 3.44114 11.4706 3.44114H7.64705C7.2247 3.44114 6.88233 3.78351 6.88233 4.20586C6.88233 4.6282 7.2247 4.97057 7.64705 4.97057ZM4.20591 5.35295C4.8394 5.35295 5.35295 4.8394 5.35295 4.2059C5.35295 3.57241 4.8394 3.05886 4.20591 3.05886C3.57241 3.05886 3.05886 3.57241 3.05886 4.2059C3.05881 4.8394 3.57236 5.35295 4.20591 5.35295ZM1.52943 13.7647H10.7059C11.5505 13.7647 12.2353 14.4494 12.2353 15.2941V24.4706C12.2353 25.3153 11.5506 26 10.7059 26H1.52943C0.684735 26 0 25.3153 0 24.4706V15.2941C0 14.4494 0.684735 13.7647 1.52943 13.7647ZM8.02943 19.8823C8.02943 20.9382 7.17351 21.7941 6.11767 21.7941C5.06182 21.7941 4.20591 20.9382 4.20591 19.8823C4.20591 18.8265 5.06182 17.9706 6.11767 17.9706C6.54002 17.9706 6.88238 17.6282 6.88238 17.2059C6.88238 16.7835 6.54002 16.4411 6.11767 16.4411C4.21718 16.4411 2.67648 17.9818 2.67648 19.8823C2.67648 21.7829 4.21713 23.3235 6.11767 23.3235C8.01821 23.3235 9.55886 21.7829 9.55886 19.8823C9.55886 19.46 9.21649 19.1176 8.79414 19.1176C8.3718 19.1177 8.02943 19.46 8.02943 19.8823ZM15.2941 13.7647H24.4706C25.3153 13.7647 26 14.4494 26 15.2941V24.4706C26 25.3153 25.3153 26 24.4706 26H15.2941C14.4495 26 13.7647 25.3153 13.7647 24.4706V15.2941C13.7647 14.4494 14.4495 13.7647 15.2941 13.7647ZM17.6647 20.1118L18.816 19.2483L19.9227 19.8016C20.1944 19.9375 20.5209 19.8996 20.7542 19.7051L23.0483 17.7933C23.3728 17.523 23.4166 17.0408 23.1462 16.7163C22.8759 16.3919 22.3937 16.3481 22.0692 16.6184L20.1593 18.21L19.0772 17.669C18.8181 17.5394 18.5081 17.5674 18.2764 17.7412L16.7469 18.8882C16.4091 19.1416 16.3406 19.621 16.594 19.9588C16.8475 20.2967 17.3268 20.3652 17.6647 20.1118ZM18.353 22.9412H21.4118C21.8341 22.9412 22.1765 22.5988 22.1765 22.1765C22.1765 21.7541 21.8341 21.4118 21.4118 21.4118H18.353C17.9306 21.4118 17.5882 21.7541 17.5882 22.1765C17.5882 22.5988 17.9306 22.9412 18.353 22.9412Z" fill="#FF0088"/>
</g>
<defs>
<clipPath id="clip0_7047_895">
<rect width="26" height="26" fill="white"/>
</clipPath>
</defs>
</svg>
