<svg width="26" height="26" viewBox="0 0 26 26" fill="none" xmlns="http://www.w3.org/2000/svg">
<g clip-path="url(#clip0_7513_2009)">
<path d="M19.9485 6.04945C19.539 5.63996 18.9953 5.41602 18.4167 5.41602C17.8379 5.41602 17.2942 5.63996 16.8847 6.05072L14.5307 8.40341C13.9672 8.96728 13.7894 9.76581 13.9798 10.4886L15.6809 8.78662C16.1031 8.36545 16.7917 8.36545 17.2139 8.78662C17.6348 9.20747 17.6348 9.89746 17.2139 10.3184L15.5115 12.0208C16.2334 12.2099 17.0319 12.0321 17.5958 11.4673L19.9485 9.1146C20.7941 8.27018 20.7941 6.89508 19.9485 6.04945Z" fill="#8A21DD"/>
<path d="M12.0175 15.5108L10.3165 17.2119C9.89561 17.6331 9.20562 17.6331 8.78471 17.2119C8.36354 16.791 8.36354 16.101 8.78471 15.6801L10.4877 13.9768C10.308 13.9294 10.1241 13.8965 9.93357 13.8965C9.35378 13.8965 8.81003 14.1217 8.4015 14.5312L6.04754 16.8839C5.20222 17.7292 5.20317 19.1023 6.0488 19.9476C6.89317 20.7933 8.26725 20.7933 9.11256 19.9489L11.4653 17.5959C12.0292 17.0312 12.2079 16.2327 12.0175 15.5108Z" fill="#8A21DD"/>
<path d="M23.8332 0H2.16677C0.975317 0 0 0.975317 0 2.16677V23.8332C0 25.0247 0.975317 26 2.16677 26H23.8332C25.0247 26 26 25.0247 26 23.8332V2.16677C26 0.975317 25.0247 0 23.8332 0ZM21.4805 10.6483L19.1275 13C17.7024 14.4251 15.5356 14.6344 13.8749 13.6578L13.6578 13.8749C14.6345 15.5356 14.4258 17.7024 13 19.1285L10.6473 21.4812C8.95565 23.1729 6.21042 23.1719 4.51979 21.4803C2.82718 19.7877 2.82718 17.0443 4.51979 15.3517L6.87146 13.0001C8.29759 11.5727 10.4653 11.3647 12.1264 12.3423L12.3422 12.1264C11.3646 10.464 11.5739 8.29728 13 6.87153L15.3527 4.51883C17.0443 2.82718 19.7876 2.82718 21.4803 4.51883C23.1722 6.2101 23.1731 8.95438 21.4805 10.6483Z" fill="#8A21DD"/>
</g>
<defs>
<clipPath id="clip0_7513_2009">
<rect width="26" height="26" fill="white"/>
</clipPath>
</defs>
</svg>
