<svg width="26" height="26" viewBox="0 0 26 26" fill="none" xmlns="http://www.w3.org/2000/svg">
<g clip-path="url(#clip0_7514_2161)">
<path d="M12.3391 4.03192C12.306 4.20768 12.349 4.3717 12.4486 4.4498C12.4975 4.48814 12.5534 4.52552 12.6146 4.56187V3.62598C12.4526 3.7185 12.3663 3.88786 12.3391 4.03192Z" fill="url(#paint0_linear_7514_2161)"/>
<path d="M13.375 5.71484V7.02764C13.6042 6.89617 13.7411 6.66389 13.7783 6.44295C13.7993 6.31792 13.8288 5.90827 13.375 5.71484Z" fill="url(#paint1_linear_7514_2161)"/>
<path d="M12.9965 0C10.0517 0 7.66446 2.38723 7.66446 5.33203C7.66446 5.90083 7.75389 6.44871 7.91883 6.96272C8.07036 7.01513 8.2229 7.07246 8.37576 7.13588L9.64239 7.66147C10.5779 7.3285 11.5768 7.13065 12.6156 7.09155V5.41592C12.343 5.29354 12.1423 5.17689 11.9795 5.04923C11.6537 4.7937 11.5051 4.34987 11.5916 3.89086C11.686 3.39016 12.0344 2.99178 12.5008 2.85121C12.5396 2.83954 12.5778 2.82968 12.6156 2.82064V2.53906C12.6156 2.32868 12.7862 2.1582 12.9965 2.1582C13.2068 2.1582 13.3774 2.32868 13.3774 2.53906V2.79795C13.8218 2.88184 14.1251 3.12162 14.1999 3.26767C14.2958 3.4549 14.2217 3.68438 14.0346 3.78031C13.8753 3.86186 13.6853 3.82048 13.5731 3.69098C13.5523 3.67453 13.485 3.62588 13.3774 3.58622V4.90293C13.443 4.9272 13.5085 4.95082 13.573 4.97357C14.2766 5.22224 14.653 5.84853 14.5318 6.56901C14.4973 6.77457 14.4173 6.98115 14.2968 7.16813C15.0072 7.2607 15.6945 7.42798 16.3506 7.66152L17.6174 7.13593C17.7702 7.07256 17.9227 7.01523 18.0742 6.96282C18.2391 6.44876 18.3285 5.90088 18.3285 5.33203C18.3285 2.38723 15.9413 0 12.9965 0Z" fill="url(#paint2_linear_7514_2161)"/>
<path d="M12.9965 8.60742C8.30634 8.60742 4.49063 12.4232 4.49063 17.1133C4.49063 21.2885 7.51141 23.5879 12.9965 23.5879C18.4816 23.5879 21.5024 21.2885 21.5024 17.1133C21.5024 12.4232 17.6866 8.60742 12.9965 8.60742ZM8.93399 13.3047C8.93399 12.884 9.27504 12.543 9.69571 12.543C10.1164 12.543 10.4574 12.884 10.4574 13.3047C10.4574 13.7254 10.1164 14.0664 9.69571 14.0664C9.27504 14.0664 8.93399 13.7254 8.93399 13.3047ZM12.9965 20.9219C11.0364 20.9219 9.44181 19.555 9.44181 17.875C9.44181 16.195 11.0364 14.8281 12.9965 14.8281C14.9565 14.8281 16.5512 16.195 16.5512 17.875C16.5512 19.555 14.9565 20.9219 12.9965 20.9219ZM16.2973 14.0664C15.8766 14.0664 15.5356 13.7254 15.5356 13.3047C15.5356 12.884 15.8766 12.543 16.2973 12.543C16.7179 12.543 17.059 12.884 17.059 13.3047C17.059 13.7254 16.7179 14.0664 16.2973 14.0664Z" fill="url(#paint3_linear_7514_2161)"/>
<path d="M12.9965 19.3984C14.1183 19.3984 15.0277 18.7164 15.0277 17.875C15.0277 17.0336 14.1183 16.3516 12.9965 16.3516C11.8747 16.3516 10.9652 17.0336 10.9652 17.875C10.9652 18.7164 11.8747 19.3984 12.9965 19.3984Z" fill="url(#paint4_linear_7514_2161)"/>
<path d="M21.5667 11.9087C22.2087 10.3617 22.1334 8.78917 22.1285 8.69995C22.1072 8.31223 21.7975 8.00267 21.4099 7.98129C21.3208 7.97662 19.7482 7.90121 18.2012 8.54308C19.5735 9.3796 20.7303 10.5363 21.5667 11.9087Z" fill="url(#paint5_linear_7514_2161)"/>
<path d="M7.79187 8.54303C6.24482 7.90105 4.67228 7.97641 4.58311 7.98129C4.19539 8.00267 3.88583 8.31228 3.8645 8.69995C3.85958 8.78912 3.78422 10.3617 4.42624 11.9087C5.26276 10.5363 6.41946 9.37955 7.79187 8.54303Z" fill="url(#paint6_linear_7514_2161)"/>
<path d="M15.2863 25.3224C15.3292 25.7082 15.6552 26 16.0434 26H19.0902C19.5109 26 19.852 25.659 19.852 25.2383V23.3972C18.6257 24.2184 17.0842 24.7471 15.248 24.9776L15.2863 25.3224Z" fill="url(#paint7_linear_7514_2161)"/>
<path d="M6.14102 25.2383C6.14102 25.659 6.48207 26 6.90274 26H9.94962C10.3377 26 10.6638 25.7082 10.7067 25.3224L10.745 24.9776C8.9087 24.7471 7.36729 24.2184 6.14097 23.3971L6.14102 25.2383Z" fill="url(#paint8_linear_7514_2161)"/>
</g>
<defs>
<linearGradient id="paint0_linear_7514_2161" x1="12.3281" y1="4.44695" x2="12.6602" y2="4.42484" gradientUnits="userSpaceOnUse">
<stop stop-color="#38DBFF"/>
<stop offset="0.984375" stop-color="#8A21DD"/>
</linearGradient>
<linearGradient id="paint1_linear_7514_2161" x1="13.375" y1="6.86644" x2="13.8537" y2="6.83366" gradientUnits="userSpaceOnUse">
<stop stop-color="#38DBFF"/>
<stop offset="0.984375" stop-color="#8A21DD"/>
</linearGradient>
<linearGradient id="paint2_linear_7514_2161" x1="3.85938" y1="22.8074" x2="24.6466" y2="19.6292" gradientUnits="userSpaceOnUse">
<stop stop-color="#38DBFF"/>
<stop offset="0.984375" stop-color="#8A21DD"/>
</linearGradient>
<linearGradient id="paint3_linear_7514_2161" x1="3.85938" y1="22.8074" x2="24.6466" y2="19.6292" gradientUnits="userSpaceOnUse">
<stop stop-color="#38DBFF"/>
<stop offset="0.984375" stop-color="#8A21DD"/>
</linearGradient>
<linearGradient id="paint4_linear_7514_2161" x1="3.85938" y1="22.8074" x2="24.6466" y2="19.6292" gradientUnits="userSpaceOnUse">
<stop stop-color="#38DBFF"/>
<stop offset="0.984375" stop-color="#8A21DD"/>
</linearGradient>
<linearGradient id="paint5_linear_7514_2161" x1="3.85938" y1="22.8074" x2="24.6466" y2="19.6292" gradientUnits="userSpaceOnUse">
<stop stop-color="#38DBFF"/>
<stop offset="0.984375" stop-color="#8A21DD"/>
</linearGradient>
<linearGradient id="paint6_linear_7514_2161" x1="3.85938" y1="22.8074" x2="24.6466" y2="19.6292" gradientUnits="userSpaceOnUse">
<stop stop-color="#38DBFF"/>
<stop offset="0.984375" stop-color="#8A21DD"/>
</linearGradient>
<linearGradient id="paint7_linear_7514_2161" x1="3.85938" y1="22.8074" x2="24.6466" y2="19.6292" gradientUnits="userSpaceOnUse">
<stop stop-color="#38DBFF"/>
<stop offset="0.984375" stop-color="#8A21DD"/>
</linearGradient>
<linearGradient id="paint8_linear_7514_2161" x1="3.85938" y1="22.8074" x2="24.6466" y2="19.6292" gradientUnits="userSpaceOnUse">
<stop stop-color="#38DBFF"/>
<stop offset="0.984375" stop-color="#8A21DD"/>
</linearGradient>
<clipPath id="clip0_7514_2161">
<rect width="26" height="26" fill="white"/>
</clipPath>
</defs>
</svg>
