<svg width="24" height="24" viewBox="0 0 24 24" fill="none" xmlns="http://www.w3.org/2000/svg">
<path d="M20.5297 19.8722C19.6384 19.8722 18.8773 20.4401 18.5891 21.233H15.0233V17.0138H18.5891C18.8773 17.8067 19.6384 18.3746 20.5296 18.3746C21.6677 18.3746 22.5935 17.4487 22.5935 16.3107C22.5935 15.1727 21.6677 14.2468 20.5296 14.2468C19.6384 14.2468 18.8773 14.8147 18.5891 15.6076H15.0233V12.4049L19.4048 7.33053L14.9749 0H12.9282V5.59657H11.0717V0H9.02497L4.59498 7.33058L8.97655 12.405V15.6076H5.4107C5.12251 14.8147 4.3614 14.2469 3.47012 14.2469C2.33208 14.2469 1.40625 15.1727 1.40625 16.3107C1.40625 17.4488 2.33208 18.3746 3.47012 18.3746C4.3614 18.3746 5.12247 17.8068 5.4107 17.0139H8.97655V21.233H5.4107C5.12251 20.4401 4.3614 19.8722 3.47012 19.8722C2.33208 19.8722 1.40625 20.7981 1.40625 21.9361C1.40625 23.0742 2.33208 24 3.47012 24C4.3614 24 5.12247 23.4322 5.4107 22.6393H8.97655V24H15.0233V22.6393H18.5891C18.8773 23.4322 19.6384 24 20.5296 24C21.6677 24 22.5935 23.0742 22.5935 21.9361C22.5935 20.7981 21.6677 19.8722 20.5297 19.8722Z" fill="white"/>
</svg>
