<svg width="24" height="24" viewBox="0 0 24 24" fill="none" xmlns="http://www.w3.org/2000/svg">
<path d="M18.3047 0.412109V3.77084H21.6668L18.3047 0.412109Z" fill="white"/>
<path d="M5.55073 14.9933C4.23326 16.3093 4.08265 18.3494 5.09885 19.8309L2.12805 22.7989C1.85332 23.0733 1.85313 23.5185 2.12759 23.7932C2.26493 23.9307 2.44493 23.9994 2.62502 23.9994C2.80484 23.9994 2.9847 23.9309 3.12199 23.7937L6.09373 20.8248C7.57704 21.8404 9.61995 21.6901 10.9376 20.374C12.4251 18.8881 12.4251 16.4791 10.9376 14.9933C9.45007 13.5074 7.03826 13.5074 5.55073 14.9933Z" fill="white"/>
<path d="M9.42188 3.34766H13.7727V5.07941H9.42188V3.34766Z" fill="white"/>
<path d="M17.603 5.17664C17.2146 5.17664 16.8998 4.86183 16.8998 4.47352V0H8.41888C7.19281 0 6.19531 0.996703 6.19531 2.22178V12.893C8.09652 12.0834 10.3849 12.4521 11.9335 13.9989C12.9189 14.9832 13.4615 16.292 13.4615 17.6842C13.4615 18.4065 13.3154 19.1064 13.0372 19.7502H19.8567C21.0827 19.7502 22.0802 18.7535 22.0802 17.5284V5.17664H17.603ZM8.02044 2.64539C8.02044 2.25708 8.33525 1.94227 8.72356 1.94227H14.4806C14.8689 1.94227 15.1837 2.25708 15.1837 2.64539V5.78339C15.1837 6.1717 14.8689 6.48652 14.4806 6.48652H8.72356C8.33525 6.48652 8.02044 6.1717 8.02044 5.78339V2.64539ZM8.72356 7.72983H18.2144C18.6027 7.72983 18.9175 8.04464 18.9175 8.43295C18.9175 8.82127 18.6027 9.13608 18.2144 9.13608H8.72356C8.33525 9.13608 8.02044 8.82127 8.02044 8.43295C8.02044 8.04464 8.33525 7.72983 8.72356 7.72983ZM8.72356 11.4734C8.33525 11.4734 8.02044 11.1585 8.02044 10.7702C8.02044 10.3819 8.33525 10.0671 8.72356 10.0671H16.8081C17.1965 10.0671 17.5113 10.3819 17.5113 10.7702C17.5113 11.1585 17.1965 11.4734 16.8081 11.4734H8.72356ZM19.352 17.6205H16.5371C16.1488 17.6205 15.8339 17.3056 15.8339 16.9173C15.8339 16.529 16.1488 16.2142 16.5371 16.2142H19.352C19.7403 16.2142 20.0551 16.529 20.0551 16.9173C20.0551 17.3057 19.7403 17.6205 19.352 17.6205Z" fill="white"/>
</svg>
