<svg width="24" height="24" viewBox="0 0 24 24" fill="none" xmlns="http://www.w3.org/2000/svg">
<g clip-path="url(#clip0_7516_2456)">
<path d="M15.2611 0C10.4424 0 6.52223 3.92015 6.52223 8.73842C6.52223 10.8422 7.26567 12.8254 8.60488 14.4009L7.22582 15.7804L6.72848 15.2826C6.45379 15.0084 6.00848 15.0084 5.73427 15.2826L0.205839 20.8111C-0.0683787 21.0853 -0.0688475 21.5306 0.205839 21.8053L2.19474 23.7942C2.46943 24.0684 2.91427 24.0689 3.18896 23.7942L8.71692 18.2657C8.9916 17.9915 8.9916 17.5462 8.71692 17.2715L8.22004 16.7747L9.5991 15.3951C11.1783 16.7376 13.163 17.4778 15.2611 17.4778C20.0799 17.4778 24 13.5576 24 8.73842C24 3.92015 20.0799 0 15.2611 0ZM15.2611 4.21874C12.7688 4.21874 10.741 6.24655 10.741 8.73889C10.741 9.12701 10.426 9.44201 10.0379 9.44201C9.64926 9.44201 9.33473 9.12701 9.33473 8.73889C9.33473 5.47124 11.9935 2.81249 15.2611 2.81249C15.6492 2.81249 15.9642 3.12749 15.9642 3.51562C15.9642 3.90374 15.6492 4.21874 15.2611 4.21874Z" fill="white" fill-opacity="0.88"/>
</g>
<defs>
<clipPath id="clip0_7516_2456">
<rect width="24" height="24" fill="white"/>
</clipPath>
</defs>
</svg>
