<svg width="28" height="28" viewBox="0 0 28 28" fill="none" xmlns="http://www.w3.org/2000/svg">
<g clip-path="url(#clip0_7507_2051)">
<path d="M25.1176 13.5888V9.47116C25.1176 8.1067 24.0115 7.00059 22.6471 7.00059H21.8235C20.4591 7.00059 19.3529 8.1067 19.3529 9.47116V10.7064C19.3529 11.1613 18.9842 11.53 18.5294 11.53C18.0745 11.53 17.7058 11.1613 17.7058 10.7064V9.47116C17.7058 7.19703 19.5494 5.35352 21.8235 5.35352H22.647C24.9211 5.35352 26.7647 7.19703 26.7647 9.47116V13.6407C27.4751 13.8235 27.9999 14.4684 27.9999 15.2359V21.0005C27.9999 21.9102 27.2625 22.6476 26.3529 22.6476H18.1176C17.208 22.6476 16.4706 21.9102 16.4706 21.0005V15.2358C16.4706 14.3262 17.208 13.5887 18.1176 13.5887H25.1176V13.5888ZM15.9387 12.7653C15.2549 13.3688 14.8235 14.252 14.8235 15.2358V20.177H3.7059C1.65916 20.177 0 18.5178 0 16.4711C0 14.4244 1.65916 12.7652 3.7059 12.7652L15.9387 12.7653ZM3.7059 17.7064C4.38813 17.7064 4.94118 17.1534 4.94118 16.4712C4.94118 15.7889 4.38813 15.2359 3.7059 15.2359C3.02367 15.2359 2.47062 15.7889 2.47062 16.4712C2.47062 17.1534 3.02367 17.7064 3.7059 17.7064ZM7.82354 17.7064C8.50577 17.7064 9.05882 17.1534 9.05882 16.4712C9.05882 15.7889 8.50577 15.2359 7.82354 15.2359C7.14131 15.2359 6.58826 15.7889 6.58826 16.4712C6.58826 17.1534 7.14131 17.7064 7.82354 17.7064ZM11.9412 17.7064C12.6234 17.7064 13.1765 17.1534 13.1765 16.4712C13.1765 15.7889 12.6234 15.2359 11.9412 15.2359C11.259 15.2359 10.7059 15.7889 10.7059 16.4712C10.7059 17.1534 11.259 17.7064 11.9412 17.7064Z" fill="white"/>
</g>
<defs>
<clipPath id="clip0_7507_2051">
<rect width="28" height="28" fill="white"/>
</clipPath>
</defs>
</svg>
