<svg width="24" height="24" viewBox="0 0 24 24" fill="none" xmlns="http://www.w3.org/2000/svg">
<g clip-path="url(#clip0_7517_1952)">
<path d="M3.62734 17.5449C3.62851 17.5816 3.62954 17.618 3.6302 17.6533C3.65565 19.0039 3.35181 19.6573 3.3196 19.7225C3.1869 19.9381 3.18681 20.1984 3.30957 20.4204C3.43342 20.6443 3.67553 20.7726 3.93137 20.7726H20.0698C20.3256 20.7726 20.5678 20.6444 20.6916 20.4204C20.8143 20.1984 20.8142 19.9381 20.6816 19.7225C20.6494 19.6573 20.3455 19.004 20.371 17.6533C20.3717 17.618 20.3727 17.5816 20.3739 17.5449H3.62734Z" fill="white" fill-opacity="0.88"/>
<path d="M24 8.77317C24 7.49559 22.9606 6.45619 21.683 6.45619C20.4054 6.45619 19.366 7.49559 19.366 8.77317C19.366 9.27075 19.5242 9.73181 19.7922 10.1098C19.2058 10.2004 18.5087 10.2622 17.7768 10.2285C15.6035 10.1292 14.0095 9.25322 13.0271 7.62155C13.7907 7.24223 14.3169 6.45436 14.3169 5.5455C14.3169 4.26792 13.2775 3.22852 12 3.22852C10.7224 3.22852 9.68297 4.26792 9.68297 5.5455C9.68297 6.45436 10.2092 7.24228 10.9728 7.62155C9.99038 9.25322 8.39644 10.1292 6.22308 10.2285C5.49122 10.2621 4.79409 10.2002 4.20773 10.1096C4.47567 9.73167 4.63383 9.27066 4.63383 8.77312C4.63383 7.49555 3.59447 6.45614 2.31689 6.45614C1.03931 6.45614 0 7.49559 0 8.77317C0 9.88866 0.792469 10.8225 1.84392 11.0415C2.81297 13.1825 3.27825 14.8728 3.48455 16.1393H20.5155C20.7217 14.8728 21.187 13.1825 22.1561 11.0415C23.2075 10.8224 24 9.88866 24 8.77317Z" fill="white" fill-opacity="0.88"/>
</g>
<defs>
<clipPath id="clip0_7517_1952">
<rect width="24" height="24" fill="white"/>
</clipPath>
</defs>
</svg>
