<svg width="28" height="28" viewBox="0 0 28 28" fill="none" xmlns="http://www.w3.org/2000/svg">
<g clip-path="url(#clip0_7047_925)">
<path d="M12.3543 0H21.4132C22.3228 0 23.0602 0.737406 23.0602 1.64708V11.5294H4.94259V7.4118H10.7073C11.6169 7.4118 12.3544 6.67439 12.3544 5.76472L12.3543 0ZM6.10722 5.76472L10.7073 1.16468V5.76472H6.10722ZM1.64849 14.8235C1.64849 13.9139 2.3859 13.1765 3.29557 13.1765H24.7073C25.6169 13.1765 26.3544 13.9139 26.3544 14.8235V18.5294C26.3544 19.4391 25.617 20.1765 24.7073 20.1765H3.29551C2.3859 20.1765 1.64844 19.4391 1.64844 18.5294V14.8235H1.64849ZM7.41316 18.1176H20.5896C21.0445 18.1176 21.4132 17.7489 21.4132 17.2941C21.4132 16.8393 21.0445 16.4706 20.5896 16.4706H7.41316C6.95832 16.4706 6.58961 16.8393 6.58961 17.2941C6.58961 17.7489 6.95837 18.1176 7.41316 18.1176ZM14.825 27.1765C14.825 27.6313 14.4562 28 14.0014 28C13.5466 28 13.1779 27.6313 13.1779 27.1765V22.2353C13.1779 21.7804 13.5466 21.4117 14.0014 21.4117C14.4562 21.4117 14.825 21.7804 14.825 22.2353V27.1765ZM5.35434 27.1765C4.8995 27.1765 4.5308 26.8078 4.5308 26.3529C4.5308 25.8981 4.8995 25.5294 5.35434 25.5294H7.00141C7.45625 25.5294 7.82495 25.1607 7.82495 24.7058V22.2353C7.82495 21.7804 8.19365 21.4117 8.64849 21.4117C9.10333 21.4117 9.47203 21.7804 9.47203 22.2353V24.7058C9.47203 26.0703 8.36592 27.1764 7.00147 27.1764L5.35434 27.1765ZM22.6485 25.5294C23.1033 25.5294 23.472 25.8981 23.472 26.353C23.472 26.8078 23.1033 27.1765 22.6485 27.1765H21.0014C19.637 27.1765 18.5308 26.0704 18.5308 24.706V22.2354C18.5308 21.7806 18.8996 21.4119 19.3544 21.4119C19.8092 21.4119 20.1779 21.7806 20.1779 22.2354V24.706C20.1779 25.1608 20.5466 25.5295 21.0015 25.5295H22.6485V25.5294Z" fill="white"/>
</g>
<defs>
<clipPath id="clip0_7047_925">
<rect width="28" height="28" fill="white"/>
</clipPath>
</defs>
</svg>
