<svg width="26" height="26" viewBox="0 0 26 26" fill="none" xmlns="http://www.w3.org/2000/svg">
<g clip-path="url(#clip0_7514_2153)">
<path d="M26 24.3333C26 24.8712 25.8577 25.3114 25.1853 25.3114H1.22259C0.550164 25.3114 0 24.7612 0 24.0888V1.50337C0 0.830948 0.440131 0.688477 0.978069 0.688477C1.51601 0.688477 1.95614 0.830948 1.95614 1.50337V22.1327C1.95614 22.8051 2.5063 23.3553 3.17872 23.3553H25.1853C25.8577 23.3552 26 23.7954 26 24.3333Z" fill="url(#paint0_linear_7514_2153)"/>
<path d="M23.714 9.05911C23.9968 9.2368 24.2034 9.11005 24.1731 8.77751L23.7003 3.56954C23.6701 3.237 23.3895 3.0607 23.0768 3.17774L18.1793 5.01097C17.8666 5.12809 17.8419 5.36919 18.1247 5.54687L19.0327 6.11741C19.3155 6.29509 19.3967 6.66863 19.2129 6.94755L15.5116 12.5694C15.328 12.8483 14.9223 12.9797 14.6099 12.8614L8.85723 10.6832C8.5449 10.5649 8.11536 10.6789 7.90271 10.9363L4.29005 15.3099C4.0774 15.5673 3.90192 16.0512 3.90021 16.385L3.88171 19.9569C3.88008 20.2908 4.05662 20.3567 4.27408 20.1034L8.92675 14.6843C9.14437 14.431 9.57782 14.3205 9.88999 14.4388L15.6854 16.6351C15.9975 16.7534 16.4044 16.6228 16.5896 16.3449L21.7767 8.55834C21.9618 8.28041 22.3445 8.19849 22.6273 8.3761L23.714 9.05911Z" fill="url(#paint1_linear_7514_2153)"/>
</g>
<defs>
<linearGradient id="paint0_linear_7514_2153" x1="8.44189e-07" y1="22.2878" x2="28.7499" y2="15.6842" gradientUnits="userSpaceOnUse">
<stop stop-color="#38DBFF"/>
<stop offset="0.984375" stop-color="#8A21DD"/>
</linearGradient>
<linearGradient id="paint1_linear_7514_2153" x1="8.44189e-07" y1="22.2878" x2="28.7499" y2="15.6842" gradientUnits="userSpaceOnUse">
<stop stop-color="#38DBFF"/>
<stop offset="0.984375" stop-color="#8A21DD"/>
</linearGradient>
<clipPath id="clip0_7514_2153">
<rect width="26" height="26" fill="white"/>
</clipPath>
</defs>
</svg>
