<svg width="24" height="24" viewBox="0 0 24 24" fill="none" xmlns="http://www.w3.org/2000/svg">
<g clip-path="url(#clip0_7708_2628)">
<path d="M22.6613 9.63697C21.9978 8.88061 21.0727 8.35903 20.0277 8.21329C21.01 4.57606 17.2793 1.42301 13.862 2.98063C9.58226 -3.39309 -0.0195708 1.36978 2.5447 8.67582C-0.889713 10.5255 -0.303698 15.6337 3.49928 16.6345C7.70332 11.0385 16.2925 11.0398 20.4954 16.6345C23.5585 15.8835 24.7802 12.0072 22.6613 9.63697Z" fill="white"/>
<path d="M19.0914 19.8174C18.9162 19.514 18.5636 18.9033 18.3885 18.5999L19.6481 17.8731C18.9981 16.9238 18.1747 16.1013 17.2253 15.4503L16.498 16.7095C16.1946 16.5343 15.5839 16.1817 15.2806 16.0065L16.0093 14.745C14.9942 14.2558 13.8766 13.946 12.6984 13.8574V15.3148H11.2926V13.8574C10.1144 13.946 8.99677 14.2558 7.98173 14.745L8.71044 16.0065C8.407 16.1818 7.79634 16.5343 7.49295 16.7095L6.76564 15.4503C5.81626 16.1013 4.99288 16.9238 4.34286 17.8731L5.60252 18.5999C5.4273 18.9033 5.07475 19.514 4.89958 19.8174L3.63804 19.0891C3.1488 20.1042 2.83904 21.2214 2.75 22.3995H9.80186C10.2047 21.0794 11.8018 20.3908 13.049 21.055L15.7604 18.3436C16.0084 18.5912 16.5072 19.0897 16.7548 19.3375L14.0434 22.0485C14.101 22.1605 14.1498 22.2777 14.1891 22.3995H21.241C21.152 21.2214 20.8422 20.1042 20.3529 19.0891L19.0914 19.8174Z" fill="white"/>
<path d="M12.5552 22.3992C11.9785 21.9367 11.1011 22.3521 11.1016 23.1021C11.1012 23.8531 11.9788 24.2683 12.5562 23.8051C13.0072 23.457 13.0073 22.7462 12.5552 22.3992Z" fill="white"/>
</g>
<defs>
<clipPath id="clip0_7708_2628">
<rect width="24" height="24" fill="white"/>
</clipPath>
</defs>
</svg>
