<svg width="20" height="20" viewBox="0 0 20 20" fill="none" xmlns="http://www.w3.org/2000/svg">
<g clip-path="url(#clip0_7514_2193)">
<path d="M19.9552 2.74466C19.8648 2.52552 19.6508 2.38302 19.4139 2.38302H17.617V0.586179C17.6171 0.349304 17.4746 0.13532 17.2554 0.0448905C17.0363 -0.046672 16.7845 0.00485139 16.6168 0.171922L14.2731 2.5547C14.1633 2.66458 14.1015 2.81333 14.1015 2.96895V5.07005L8.99978 10.1718C8.77091 10.4007 8.77091 10.7715 8.99978 11.0004C9.22864 11.2292 9.59946 11.2292 9.82833 11.0004L14.93 5.89868H17.0311C17.1867 5.89868 17.3355 5.83688 17.4454 5.727L19.8281 3.38325C19.9958 3.21559 20.0461 2.96384 19.9552 2.74466Z" fill="#178EE8"/>
<path d="M17.9624 6.79883C17.6853 6.97312 17.3661 7.07027 17.031 7.07027H15.4151L15.0382 7.44723C15.5591 8.37699 15.8591 9.44648 15.8591 10.5859C15.8591 14.1398 12.9678 17.0311 9.41391 17.0311C5.86 17.0311 2.96871 14.1397 2.96871 10.5859C2.96871 7.03199 5.86004 4.14062 9.41395 4.14062C10.5534 4.14062 11.6228 4.44066 12.5526 4.9616L12.9295 4.58465V2.96875C12.9295 2.63367 13.0267 2.31445 13.201 2.03734C12.0163 1.5109 10.742 1.21094 9.41395 1.21094C4.24473 1.21094 0 5.41656 0 10.5858C0 15.7551 4.24469 19.9998 9.41391 19.9998C14.5831 19.9998 18.7888 15.755 18.7888 10.5858C18.7888 9.25785 18.4888 7.98348 17.9624 6.79883Z" fill="#178EE8"/>
<path d="M14.1589 8.32656L11.7418 10.7437C11.6591 11.9631 10.6543 12.9296 9.41398 12.9296C8.11957 12.9296 7.07027 11.8802 7.07027 10.5859C7.07027 9.34543 8.0368 8.34078 9.25613 8.25809L11.6733 5.84094C10.9859 5.51199 10.2256 5.3125 9.41398 5.3125C6.50609 5.3125 4.14062 7.67797 4.14062 10.5859C4.14062 13.4937 6.50609 15.8592 9.41398 15.8592C12.3219 15.8592 14.6873 13.4937 14.6873 10.5859C14.6873 9.77422 14.4879 9.01398 14.1589 8.32656Z" fill="#178EE8"/>
</g>
<defs>
<clipPath id="clip0_7514_2193">
<rect width="20" height="20" fill="white"/>
</clipPath>
</defs>
</svg>
