<svg width="24" height="24" viewBox="0 0 24 24" fill="none" xmlns="http://www.w3.org/2000/svg">
<path d="M12.0004 6.89514C9.45421 6.89514 7.38281 8.96654 7.38281 11.5127C7.38281 14.0588 9.45421 16.1302 12.0004 16.1302C14.5465 16.1302 16.6179 14.0588 16.6179 11.5127C16.6179 8.96659 14.5465 6.89514 12.0004 6.89514ZM14.5408 10.7004L11.6696 13.3573C11.6639 13.3626 11.6577 13.3672 11.6519 13.3722C11.6434 13.3796 11.6349 13.3869 11.6261 13.3938C11.6167 13.4012 11.6071 13.408 11.5975 13.4149C11.5884 13.4213 11.5793 13.4278 11.57 13.4338C11.5599 13.4402 11.5496 13.446 11.5393 13.4519C11.53 13.4572 11.5208 13.4626 11.5114 13.4674C11.5004 13.4731 11.4891 13.4779 11.4779 13.4829C11.4688 13.487 11.4597 13.4913 11.4504 13.495C11.4384 13.4998 11.4261 13.5037 11.4139 13.5078C11.4051 13.5107 11.3965 13.5139 11.3876 13.5165C11.3743 13.5203 11.3608 13.5233 11.3473 13.5263C11.3392 13.5281 11.3314 13.5304 11.3233 13.5319C11.308 13.5348 11.2925 13.5367 11.277 13.5385C11.2707 13.5393 11.2643 13.5406 11.258 13.5412C11.2361 13.5432 11.2141 13.5443 11.1921 13.5443H11.1921H11.192C11.1689 13.5443 11.1458 13.5431 11.1228 13.5408C11.1161 13.5402 11.1096 13.5388 11.1029 13.538C11.0866 13.5359 11.0703 13.5338 11.0541 13.5306C11.0459 13.5289 11.0379 13.5265 11.0297 13.5246C11.0153 13.5212 11.0009 13.5179 10.9866 13.5136C10.9777 13.5108 10.9691 13.5074 10.9602 13.5043C10.947 13.4997 10.9339 13.4953 10.921 13.4899C10.9116 13.486 10.9025 13.4813 10.8933 13.477C10.8814 13.4714 10.8694 13.4659 10.8576 13.4596C10.8481 13.4544 10.8389 13.4485 10.8295 13.4429C10.8186 13.4363 10.8076 13.4298 10.797 13.4226C10.7876 13.4161 10.7785 13.4091 10.7693 13.4022C10.7593 13.3946 10.7493 13.387 10.7395 13.3789C10.7306 13.3714 10.722 13.3633 10.7135 13.3553C10.7073 13.3496 10.7008 13.3444 10.6948 13.3384L9.44025 12.0839C9.16565 11.8093 9.16565 11.3641 9.44025 11.0895C9.71484 10.8149 10.1601 10.8149 10.4347 11.0895L11.2109 11.8657L13.5858 9.66817C13.8708 9.40445 14.3157 9.4217 14.5795 9.7067C14.8431 9.99175 14.8259 10.4366 14.5408 10.7004Z" fill="white"/>
<path d="M20.9149 2.56869L12.2427 0.0339785L12.2248 0.0290097C12.0784 -0.00966209 11.9235 -0.00966209 11.7769 0.0289628L11.7679 0.0313535L3.08675 2.56869C2.44634 2.74265 2 3.32553 2 3.99008V16.3546C2 17.978 2.89611 19.4417 4.34009 20.1803L10.0187 23.518L10.0582 23.5395C10.6664 23.8465 11.3336 24 12.0008 24C12.668 24 13.3352 23.8465 13.9434 23.5395L13.9635 23.5294L19.6615 20.1803C21.1055 19.4418 22.0016 17.9781 22.0016 16.3546V3.99008C22.0016 3.32558 21.5553 2.74269 20.9149 2.56869ZM12.0008 17.5366C8.67921 17.5366 5.97691 14.8343 5.97691 11.5128C5.97691 8.1912 8.67921 5.48886 12.0008 5.48886C15.3223 5.48886 18.0246 8.19115 18.0246 11.5127C18.0246 14.8343 15.3224 17.5366 12.0008 17.5366Z" fill="white"/>
</svg>
