<svg width="24" height="24" viewBox="0 0 24 24" fill="none" xmlns="http://www.w3.org/2000/svg">
<g clip-path="url(#clip0_7496_8218)">
<path d="M12 11.3438C12.3883 11.3438 12.7031 11.029 12.7031 10.6406C12.7031 10.2523 12.3883 9.9375 12 9.9375C11.6117 9.9375 11.2969 10.2523 11.2969 10.6406C11.2969 11.029 11.6117 11.3438 12 11.3438Z" fill="url(#paint0_linear_7496_8218)"/>
<path d="M15.6289 9.06005L16.0324 8.71772L15.6818 8.11036L15.1858 8.28783C14.9325 8.37858 14.6496 8.31661 14.4572 8.12855C14.0375 7.71797 13.5157 7.41708 12.9482 7.25845C12.6891 7.18598 12.494 6.97191 12.4458 6.70706L12.3513 6.1875H11.6499L11.5554 6.70711C11.5073 6.97191 11.3122 7.18603 11.0529 7.2585C10.4855 7.41713 9.9637 7.71802 9.54394 8.12859C9.35156 8.3168 9.06848 8.37858 8.81536 8.28787L8.31942 8.11041L7.96875 8.71777L8.3723 9.06009C8.57733 9.23405 8.66522 9.50967 8.59875 9.77016C8.52323 10.0661 8.48498 10.359 8.48498 10.6406C8.48498 10.9223 8.52323 11.2152 8.5988 11.5111C8.66527 11.7716 8.57738 12.0472 8.37234 12.2212L7.9688 12.5635L8.31947 13.1708L8.81541 12.9934C9.06867 12.9027 9.35161 12.9646 9.54398 13.1527C9.96375 13.5632 10.4856 13.8641 11.053 14.0228C11.3122 14.0953 11.5073 14.3093 11.5554 14.5741L11.6499 15.0938H12.3513L12.4458 14.5742C12.4939 14.3094 12.689 14.0953 12.9482 14.0228C13.5157 13.8641 14.0375 13.5632 14.4572 13.1527C14.6496 12.9645 14.9326 12.9028 15.1858 12.9934L15.6818 13.1709L16.0324 12.5635L15.6289 12.2212C15.4238 12.0472 15.336 11.7716 15.4024 11.5111C15.478 11.2152 15.5162 10.9223 15.5162 10.6406C15.5162 10.359 15.478 10.0661 15.4024 9.77016C15.336 9.50962 15.4238 9.234 15.6289 9.06005ZM12.0006 12.75C10.8375 12.75 9.89123 11.8037 9.89123 10.6406C9.89123 9.47752 10.8375 8.53125 12.0006 8.53125C13.1637 8.53125 14.11 9.47752 14.11 10.6406C14.11 11.8037 13.1637 12.75 12.0006 12.75Z" fill="url(#paint1_linear_7496_8218)"/>
<path d="M21.1791 1.93012C18.1374 0.649406 15.0491 0 12 0C8.95092 0 5.86261 0.649406 2.82094 1.93012C2.56017 2.03991 2.39062 2.29523 2.39062 2.57812V10.5242C2.39062 13.4669 3.28027 16.2982 4.96341 18.7119C6.6465 21.1258 8.99569 22.9394 11.757 23.9567C11.9139 24.0145 12.0862 24.0145 12.2431 23.9567C15.0043 22.9394 17.3535 21.1258 19.0366 18.712C20.7197 16.2981 21.6094 13.4669 21.6094 10.5242V2.57812C21.6094 2.29523 21.4398 2.03991 21.1791 1.93012ZM16.9219 10.6406C16.9219 10.8966 16.9 11.1572 16.8568 11.4192L17.389 11.8706C17.6481 12.0904 17.713 12.4641 17.5431 12.7584L16.6056 14.3822C16.4356 14.6765 16.0795 14.8071 15.7597 14.6926L15.1035 14.4578C14.6986 14.7864 14.2421 15.0497 13.7541 15.236L13.6292 15.9226C13.5685 16.257 13.2773 16.5 12.9375 16.5H11.0625C10.7227 16.5 10.4315 16.257 10.3707 15.9227L10.2458 15.236C9.75783 15.0497 9.30131 14.7864 8.89641 14.4578L8.24025 14.6926C7.92056 14.8073 7.56431 14.6765 7.39439 14.3822L6.45689 12.7584C6.28697 12.4642 6.35184 12.0905 6.61097 11.8707L7.14319 11.4192C7.09997 11.1572 7.07812 10.8966 7.07812 10.6406C7.07812 10.3846 7.09997 10.1241 7.14323 9.86208L6.61102 9.41062C6.35189 9.19083 6.28702 8.81714 6.45694 8.52286L7.39444 6.89906C7.56431 6.60478 7.92042 6.47419 8.2403 6.58866L8.89645 6.8235C9.30136 6.49486 9.75787 6.23156 10.2459 6.04533L10.3708 5.35861C10.4315 5.0243 10.7227 4.78125 11.0625 4.78125H12.9375C13.2773 4.78125 13.5685 5.0243 13.6293 5.35856L13.7542 6.04528C14.2422 6.23152 14.6987 6.49481 15.1036 6.82345L15.7598 6.58861C16.0796 6.47414 16.4357 6.60478 16.6056 6.89902L17.5431 8.52281C17.713 8.81709 17.6482 9.19078 17.389 9.41058L16.8568 9.86203C16.9 10.1241 16.9219 10.3846 16.9219 10.6406Z" fill="url(#paint2_linear_7496_8218)"/>
</g>
<defs>
<linearGradient id="paint0_linear_7496_8218" x1="11.2969" y1="11.1711" x2="12.8599" y2="10.8311" gradientUnits="userSpaceOnUse">
<stop stop-color="#3AA0FF"/>
<stop offset="0.984375" stop-color="#53D0F7"/>
</linearGradient>
<linearGradient id="paint1_linear_7496_8218" x1="7.96875" y1="14.0001" x2="17.0052" y2="12.2204" gradientUnits="userSpaceOnUse">
<stop stop-color="#3AA0FF"/>
<stop offset="0.984375" stop-color="#53D0F7"/>
</linearGradient>
<linearGradient id="paint2_linear_7496_8218" x1="2.39063" y1="21.053" x2="24.1044" y2="17.2706" gradientUnits="userSpaceOnUse">
<stop stop-color="#3AA0FF"/>
<stop offset="0.984375" stop-color="#53D0F7"/>
</linearGradient>
<clipPath id="clip0_7496_8218">
<rect width="24" height="24" fill="white"/>
</clipPath>
</defs>
</svg>
