<svg width="26" height="26" viewBox="0 0 26 26" fill="none" xmlns="http://www.w3.org/2000/svg">
<g clip-path="url(#clip0_7514_2227)">
<path d="M25.2383 20.3633H23.918V8.88674H24.375C24.6831 8.88674 24.9608 8.70119 25.0787 8.41651C25.1966 8.13188 25.1314 7.80424 24.9136 7.58639L21.6636 4.33639C21.3662 4.03891 20.8838 4.03891 20.5864 4.33639L17.3364 7.58639C17.1185 7.80424 17.0534 8.13188 17.1712 8.41651C17.2891 8.70114 17.5669 8.88674 17.8749 8.88674H18.332V20.3633H15.7929V12.9492H16.2499C16.558 12.9492 16.8358 12.7637 16.9537 12.479C17.0715 12.1944 17.0064 11.8667 16.7885 11.6489L13.5385 8.39889C13.2411 8.10141 12.7588 8.10141 12.4613 8.39889L9.21131 11.6489C8.99346 11.8667 8.92831 12.1944 9.04617 12.479C9.16409 12.7636 9.44181 12.9492 9.7499 12.9492H10.2069V20.3633H7.66787V16.6055H8.1249C8.43299 16.6055 8.71071 16.4199 8.82862 16.1353C8.94649 15.8506 8.88134 15.523 8.66348 15.3051L5.41348 12.0551C5.11606 11.7577 4.63374 11.7577 4.33626 12.0551L1.08626 15.3051C0.86841 15.523 0.803258 15.8506 0.921121 16.1353C1.03919 16.4199 1.31691 16.6055 1.625 16.6055H2.08203V20.3633H0.761719C0.341047 20.3633 0 20.7044 0 21.125C0 21.5457 0.341047 21.8867 0.761719 21.8867H25.2383C25.659 21.8867 26 21.5457 26 21.125C26 20.7044 25.659 20.3633 25.2383 20.3633Z" fill="#E817AD"/>
</g>
<defs>
<clipPath id="clip0_7514_2227">
<rect width="26" height="26" fill="white"/>
</clipPath>
</defs>
</svg>
