<svg width="20" height="20" viewBox="0 0 20 20" fill="none" xmlns="http://www.w3.org/2000/svg">
<g clip-path="url(#clip0_7514_2209)">
<path d="M10 8.24219C9.0307 8.24219 8.24219 9.0307 8.24219 10C8.24219 10.9693 9.0307 11.7578 10 11.7578C10.9693 11.7578 11.7578 10.9693 11.7578 10C11.7578 9.0307 10.9693 8.24219 10 8.24219Z" fill="#178EE8"/>
<path d="M19.5102 8.2502L17.3139 7.89027C17.1566 7.34496 16.9386 6.81969 16.6621 6.3207L17.9341 4.54C18.1007 4.30711 18.0743 3.98781 17.8718 3.78527L16.2146 2.12816C16.0115 1.92559 15.6911 1.8993 15.4599 2.06578L13.6792 3.33723C13.1808 3.06141 12.6555 2.8434 12.1096 2.68605L11.7497 0.489766C11.7029 0.207148 11.4586 0 11.1719 0H8.82812C8.54145 0 8.29711 0.207148 8.2502 0.489805L7.89027 2.68609C7.34437 2.84344 6.8191 3.06145 6.3207 3.33727L4.54 2.06582C4.3077 1.8993 3.98727 1.92562 3.78527 2.1282L2.12816 3.78527C1.92559 3.98785 1.8993 4.30711 2.06578 4.54L3.33777 6.3207C3.06141 6.81965 2.8434 7.34496 2.68602 7.89027L0.489727 8.2502C0.207148 8.29711 0 8.54145 0 8.82812V11.1719C0 11.4586 0.207148 11.7029 0.489805 11.7498L2.68609 12.1097C2.84344 12.6556 3.06145 13.1809 3.33727 13.6793L2.06582 15.46C1.8993 15.6929 1.92562 16.0122 2.1282 16.2147L3.78531 17.8718C3.9873 18.0738 4.30773 18.1002 4.54004 17.9342L6.32074 16.6628C6.81914 16.9386 7.34441 17.1566 7.89031 17.3139L8.25023 19.5102C8.29711 19.7929 8.54145 20 8.82812 20H11.1719C11.4586 20 11.7029 19.7929 11.7498 19.5102L12.1097 17.3139C12.6556 17.1566 13.1809 16.9386 13.6793 16.6627L15.46 17.9342C15.6912 18.1001 16.0116 18.0738 16.2147 17.8718L17.8718 16.2147C18.0744 16.0121 18.1007 15.6929 17.9342 15.46L16.6628 13.6793C16.9386 13.1809 17.1566 12.6556 17.3139 12.1097L19.5102 11.7498C19.7929 11.7029 20 11.4586 20 11.1719V8.82812C20 8.54145 19.7929 8.29711 19.5102 8.2502ZM10 14.1016C7.73863 14.1016 5.89844 12.2614 5.89844 10C5.89844 7.73863 7.73863 5.89844 10 5.89844C12.2614 5.89844 14.1016 7.73863 14.1016 10C14.1016 12.2614 12.2614 14.1016 10 14.1016Z" fill="#178EE8"/>
</g>
<defs>
<clipPath id="clip0_7514_2209">
<rect width="20" height="20" fill="white"/>
</clipPath>
</defs>
</svg>
