<svg width="24" height="24" viewBox="0 0 24 24" fill="none" xmlns="http://www.w3.org/2000/svg">
<g clip-path="url(#clip0_7516_2433)">
<path d="M20.4375 12.617H9.89061V6.98265H12C12.6583 6.98265 12.8748 6.30648 12.5623 5.89075L8.34359 0.265746C8.07856 -0.088582 7.4839 -0.088582 7.21887 0.265746L3.00012 5.89075C2.68775 6.30639 2.90403 6.98265 3.56248 6.98265H5.67186V16.1561C5.67186 16.5447 5.98634 16.8264 6.37498 16.8264H16.9219V23.2969C16.9219 23.6855 17.2363 24 17.625 24H20.4375C20.8261 24 21.1406 23.6855 21.1406 23.2969V13.3436C21.1406 12.9549 20.8261 12.617 20.4375 12.617Z" fill="url(#paint0_linear_7516_2433)" fill-opacity="0.9"/>
</g>
<defs>
<linearGradient id="paint0_linear_7516_2433" x1="3.87929" y1="1.34459" x2="23.1312" y2="11.2285" gradientUnits="userSpaceOnUse">
<stop offset="0.015625" stop-color="#8A21DD"/>
<stop offset="0.831802" stop-color="#6617E8"/>
</linearGradient>
<clipPath id="clip0_7516_2433">
<rect width="24" height="24" fill="white"/>
</clipPath>
</defs>
</svg>
