<svg width="24" height="24" viewBox="0 0 24 24" fill="none" xmlns="http://www.w3.org/2000/svg">
<g clip-path="url(#clip0_7516_2410)">
<path d="M17.9994 8.74428C19.5819 9.30162 21.4139 8.94772 22.6797 7.68195C23.7507 6.61095 24.1688 5.13458 23.9343 3.74703C23.8396 3.18706 23.1466 2.97237 22.745 3.3739L21.1737 4.94473L19.3165 4.68101L19.0524 2.8234L20.6237 1.25258C21.0254 0.850952 20.8108 0.15767 20.2506 0.0630765C18.8631 -0.171205 17.3867 0.247155 16.3159 1.31801C15.0501 2.58378 14.696 4.41556 15.2532 5.99797L12.9922 8.25898L15.7385 11.0052L17.9994 8.74428Z" fill="url(#paint0_linear_7516_2410)" fill-opacity="0.9"/>
<path d="M5.99759 15.2557C4.41514 14.6986 2.58341 15.0526 1.31778 16.3182C0.246827 17.3891 -0.171345 18.8656 0.0632179 20.2531C0.157859 20.8131 0.850905 21.0278 1.25253 20.6262L2.82378 19.0554L4.68102 19.3191L4.94506 21.1767L3.37381 22.7475C2.97209 23.1491 3.18673 23.8424 3.74684 23.937C5.13439 24.1713 6.61076 23.7529 7.68162 22.6821C8.94753 21.4162 9.30153 19.5842 8.74409 18.0016L11.0053 15.7404L8.25912 12.9941L5.99759 15.2557Z" fill="url(#paint1_linear_7516_2410)" fill-opacity="0.9"/>
<path d="M18.0019 15.2555L8.74428 5.99797C9.30148 4.41551 8.94739 2.58373 7.68162 1.31801C6.61076 0.247155 5.13439 -0.171205 3.74684 0.0630765C3.18673 0.157623 2.97209 0.850951 3.37381 1.25253L4.94506 2.82336L4.68102 4.68092L2.82378 4.94464L1.25253 3.37381C0.850905 2.97228 0.157859 3.18697 0.0632179 3.74694C-0.171345 5.13448 0.246827 6.6109 1.31778 7.68186C2.58355 8.94762 4.41556 9.30153 5.99811 8.74419L15.2553 18.0014C14.6979 19.584 15.0519 21.416 16.3178 22.6819C17.3886 23.7528 18.865 24.1711 20.2526 23.9368C20.8127 23.8423 21.0274 23.149 20.6256 22.7473L19.0543 21.1766L19.3184 19.319L21.1756 19.0552L22.7469 20.6261C23.1485 21.0276 23.8415 20.8129 23.9362 20.2529C24.1707 18.8654 23.7526 17.389 22.6816 16.318C21.416 15.0524 19.5843 14.6984 18.0019 15.2555Z" fill="url(#paint2_linear_7516_2410)" fill-opacity="0.9"/>
</g>
<defs>
<linearGradient id="paint0_linear_7516_2410" x1="13.6062" y1="0.616566" x2="23.676" y2="7.40371" gradientUnits="userSpaceOnUse">
<stop offset="0.015625" stop-color="#8A21DD"/>
<stop offset="0.831802" stop-color="#6617E8"/>
</linearGradient>
<linearGradient id="paint1_linear_7516_2410" x1="0.613987" y1="13.6107" x2="10.6842" y2="20.3977" gradientUnits="userSpaceOnUse">
<stop offset="0.015625" stop-color="#8A21DD"/>
<stop offset="0.831802" stop-color="#6617E8"/>
</linearGradient>
<linearGradient id="paint2_linear_7516_2410" x1="1.33893" y1="1.34459" x2="23.2987" y2="16.1453" gradientUnits="userSpaceOnUse">
<stop offset="0.015625" stop-color="#8A21DD"/>
<stop offset="0.831802" stop-color="#6617E8"/>
</linearGradient>
<clipPath id="clip0_7516_2410">
<rect width="24" height="24" fill="white"/>
</clipPath>
</defs>
</svg>
