<svg width="24" height="24" viewBox="0 0 24 24" fill="none" xmlns="http://www.w3.org/2000/svg">
<g clip-path="url(#clip0_7518_2046)">
<path d="M11.0838 8.10038L6.20723 3.22448L8.23148 1.20023C8.67253 0.759234 8.36086 0 7.73438 0H0.703125C0.314484 0 0 0.314484 0 0.703125V7.73438C0 8.35505 0.753094 8.67712 1.20028 8.23153L3.22519 6.20798L8.10038 11.0838C8.37488 11.3583 8.81995 11.3585 9.09455 11.0839L11.0838 9.09464C11.3572 8.82127 11.3594 8.376 11.0838 8.10038Z" fill="#FF0088"/>
<path d="M23.2976 0H16.2663C15.64 0 15.328 0.759047 15.7692 1.20023L17.7934 3.22448L12.9168 8.09963C12.6429 8.37356 12.6418 8.81953 12.9168 9.09459L14.906 11.0838C15.1807 11.3585 15.6257 11.3585 15.9003 11.0838L20.7762 6.20723L22.8005 8.23148C23.2474 8.67848 24.0007 8.35453 24.0007 7.73438V0.703125C24.0007 0.314484 23.6862 0 23.2976 0Z" fill="#FF0088"/>
<path d="M22.8005 15.7692L20.7762 17.7935L15.9003 12.9169C15.6258 12.6424 15.1808 12.6421 14.906 12.9169L12.9168 14.9062C12.6418 15.1812 12.6429 15.6272 12.9168 15.9011L17.7934 20.7763L15.7692 22.8006C15.3281 23.2416 15.6398 24.0008 16.2663 24.0008H23.2975C23.6862 24.0008 24.0006 23.6863 24.0006 23.2977V16.2664C24.0006 15.6401 23.2416 15.3281 22.8005 15.7692Z" fill="#FF0088"/>
<path d="M11.0839 14.9057L9.09464 12.9165C8.83097 12.6528 8.36405 12.6528 8.10038 12.9165L3.22448 17.7931L1.20023 15.7688C0.763266 15.3303 0 15.6361 0 16.2659V23.2972C0 23.6858 0.314484 24.0003 0.703125 24.0003H7.73438C8.36067 24.0003 8.67272 23.2412 8.23153 22.8001L6.20728 20.7758L11.0839 15.9C11.3595 15.6244 11.3573 15.1792 11.0839 14.9057Z" fill="#FF0088"/>
</g>
<defs>
<clipPath id="clip0_7518_2046">
<rect width="24" height="24" fill="white"/>
</clipPath>
</defs>
</svg>
