<svg width="26" height="26" viewBox="0 0 26 26" fill="none" xmlns="http://www.w3.org/2000/svg">
<g clip-path="url(#clip0_7047_972)">
<path d="M11.1788 7.9623L12.9993 7.20754L14.8198 7.9623C15.0637 8.063 15.3438 8.03116 15.5591 7.87496C15.7734 7.71901 15.8913 7.46256 15.8704 7.19845L15.7156 5.23388L16.9958 3.73507C17.1679 3.53392 17.2227 3.25712 17.141 3.00519C17.0592 2.75276 16.852 2.56126 16.5941 2.49981L14.6781 2.03964L13.6488 0.358979C13.3747 -0.119685 12.6237 -0.119634 12.3498 0.358979L11.3204 2.03964L9.40446 2.49981C9.14649 2.56126 8.9393 2.75276 8.85755 3.00519C8.77579 3.25712 8.83063 3.53392 9.00278 3.73507L10.283 5.23388L10.1281 7.19845C10.1073 7.46256 10.2251 7.71906 10.4394 7.87496C10.6542 8.03035 10.934 8.06387 11.1788 7.9623Z" fill="url(#paint0_linear_7047_972)"/>
<path d="M25.9613 6.00204C25.8795 5.74961 25.6724 5.55811 25.4144 5.49667L23.4984 5.03649L22.4691 3.35583C22.3304 3.1298 22.0847 2.99219 21.8196 2.99219C21.5545 2.99219 21.3087 3.12986 21.1701 3.35583L20.1408 5.03649L18.2248 5.49667C17.9668 5.55811 17.7596 5.74961 17.6779 6.00204C17.5961 6.25397 17.6509 6.53078 17.8231 6.73192L19.1033 8.23073L18.9484 10.1953C18.9276 10.4594 19.0454 10.7159 19.2597 10.8718C19.4745 11.0273 19.7543 11.0608 19.9991 10.9592L21.8196 10.2044L23.6401 10.9592C23.884 11.0599 24.1641 11.028 24.3795 10.8718C24.5938 10.7159 24.7116 10.4594 24.6908 10.1953L24.5359 8.23073L25.8161 6.73192C25.9882 6.53078 26.0431 6.25397 25.9613 6.00204Z" fill="url(#paint1_linear_7047_972)"/>
<path d="M6.29095 11.017C6.44938 11.017 6.6063 10.9678 6.73884 10.8718C6.95313 10.7159 7.07094 10.4594 7.05012 10.1953L6.89524 8.23073L8.17544 6.73192C8.34759 6.53078 8.40243 6.25397 8.32067 6.00204C8.23891 5.74961 8.03173 5.55811 7.77376 5.49667L5.85778 5.03649L4.82845 3.35583C4.68981 3.1298 4.44403 2.99219 4.17895 2.99219C3.91387 2.99219 3.66809 3.12986 3.52946 3.35583L2.50012 5.03649L0.584148 5.49667C0.326179 5.55811 0.118992 5.74961 0.0372341 6.00204C-0.0445237 6.25397 0.0103201 6.53078 0.182468 6.73192L1.46266 8.23073L1.30778 10.1953C1.28696 10.4594 1.40477 10.7159 1.61907 10.8718C1.83387 11.0273 2.11368 11.0608 2.35845 10.9592L4.17895 10.2044L5.99946 10.9592C6.09341 10.9978 6.19243 11.017 6.29095 11.017Z" fill="url(#paint2_linear_7047_972)"/>
<path d="M21.9666 18.3222L21.0652 23.4882C20.8387 24.7816 19.716 25.7251 18.4033 25.7251H13.2048C12.8417 25.7251 12.4857 25.6525 12.1562 25.5169C11.8266 25.3798 11.5234 25.1797 11.267 24.9228C11.2513 24.9071 11.235 24.8913 11.2188 24.8756V16.2946L11.2533 16.2824C11.9861 16.0193 12.5573 15.4323 12.7991 14.6919L13.2536 13.2375L13.866 11.2779C14.0463 10.7269 14.6384 10.4268 15.1898 10.6071C16.1994 10.9361 16.8412 11.8746 16.8412 12.8815C16.8412 13.1283 16.8027 13.3792 16.7214 13.626L16.0389 15.8655H19.9018C21.2039 15.8655 22.1911 17.04 21.9666 18.3222Z" fill="url(#paint3_linear_7047_972)"/>
<path d="M8.9396 26H5.4136C4.99532 26 4.65625 25.6609 4.65625 25.2426V16.1109C4.65625 15.6926 4.99532 15.3535 5.4136 15.3535H8.9396C9.35788 15.3535 9.69695 15.6926 9.69695 16.1109V25.2426C9.69695 25.6609 9.35788 26 8.9396 26Z" fill="url(#paint4_linear_7047_972)"/>
</g>
<defs>
<linearGradient id="paint0_linear_7047_972" x1="8.82031" y1="7.03546" x2="18.0743" y2="4.93773" gradientUnits="userSpaceOnUse">
<stop stop-color="#38DBFF"/>
<stop offset="0.984375" stop-color="#8A21DD"/>
</linearGradient>
<linearGradient id="paint1_linear_7047_972" x1="17.6406" y1="10.0318" x2="26.8951" y2="7.93515" gradientUnits="userSpaceOnUse">
<stop stop-color="#38DBFF"/>
<stop offset="0.984375" stop-color="#8A21DD"/>
</linearGradient>
<linearGradient id="paint2_linear_7047_972" x1="2.71371e-07" y1="10.0318" x2="9.25449" y2="7.93515" gradientUnits="userSpaceOnUse">
<stop stop-color="#38DBFF"/>
<stop offset="0.984375" stop-color="#8A21DD"/>
</linearGradient>
<linearGradient id="paint3_linear_7047_972" x1="11.2188" y1="23.8623" x2="23.4747" y2="21.9679" gradientUnits="userSpaceOnUse">
<stop stop-color="#38DBFF"/>
<stop offset="0.984375" stop-color="#8A21DD"/>
</linearGradient>
<linearGradient id="paint4_linear_7047_972" x1="4.65625" y1="24.6926" x2="10.4626" y2="24.0946" gradientUnits="userSpaceOnUse">
<stop stop-color="#38DBFF"/>
<stop offset="0.984375" stop-color="#8A21DD"/>
</linearGradient>
<clipPath id="clip0_7047_972">
<rect width="26" height="26" fill="white"/>
</clipPath>
</defs>
</svg>
