<svg width="26" height="26" viewBox="0 0 26 26" fill="none" xmlns="http://www.w3.org/2000/svg">
<g clip-path="url(#clip0_7514_2181)">
<path d="M26 16.7005C26 18.6358 24.4253 20.2105 22.49 20.2105C20.5933 20.2105 19.0445 18.6982 18.9825 16.8168L17.2793 16.4969C16.963 17.4815 16.4029 18.3585 15.6701 19.0557L16.8502 20.6548C17.1397 20.5492 17.452 20.4913 17.7775 20.4913C19.2695 20.4913 20.4826 21.7045 20.4826 23.1964C20.4826 24.6879 19.2695 25.9016 17.7775 25.9016C16.2861 25.9016 15.0724 24.6879 15.0724 23.1964C15.0724 22.582 15.2786 22.0153 15.6249 21.5608L14.4452 19.9612C13.5611 20.4578 12.5425 20.7417 11.4588 20.7417C9.61137 20.7417 7.95336 19.918 6.83109 18.619L5.28887 19.6448C5.36758 19.8987 5.41023 20.1684 5.41023 20.4477C5.41023 21.9396 4.19707 23.1528 2.70512 23.1528C1.21367 23.1528 0 21.9396 0 20.4477C0 18.9562 1.21367 17.7425 2.70512 17.7425C3.3668 17.7425 3.97312 17.9817 4.44336 18.3773L5.98609 17.3515C5.57629 16.5309 5.34523 15.6062 5.34523 14.6286C5.34523 12.9077 6.06023 11.3512 7.2084 10.2391L4.95828 7.24453C4.51648 7.44562 4.02645 7.55887 3.51 7.55887C1.57473 7.55887 0 5.98414 0 4.04836C0 2.11309 1.57473 0.538359 3.51 0.538359C5.44578 0.538359 7.02051 2.11309 7.02051 4.04836C7.02051 4.91824 6.7016 5.71449 6.17551 6.32844L8.42512 9.3225C9.31938 8.8091 10.3553 8.51508 11.4588 8.51508C11.7371 8.51508 12.0113 8.53438 12.2799 8.57043L12.9431 6.07453C12.1631 5.59922 11.6406 4.74051 11.6406 3.76195C11.6406 2.27051 12.8543 1.05684 14.3457 1.05684C15.8377 1.05684 17.0508 2.27051 17.0508 3.76195C17.0508 5.23055 15.8752 6.42848 14.4158 6.46555L13.7521 8.96195C14.2513 9.16457 14.7179 9.43168 15.1414 9.75262L19.2481 5.5327C18.885 4.9802 18.6728 4.31953 18.6728 3.60961C18.6728 1.67434 20.247 0.0996094 22.1828 0.0996094C24.118 0.0996094 25.6928 1.67434 25.6928 3.60961C25.6928 5.54539 24.118 7.12012 22.1828 7.12012C21.5069 7.12012 20.8757 6.92766 20.3399 6.59555L16.2332 10.815C17.0701 11.8616 17.5718 13.1875 17.5718 14.6286C17.5718 14.753 17.5678 14.8764 17.5602 14.9993L19.2629 15.3193C19.8006 14.0685 21.0443 13.19 22.49 13.19C24.4253 13.19 26 14.7647 26 16.7005Z" fill="url(#paint0_linear_7514_2181)"/>
</g>
<defs>
<linearGradient id="paint0_linear_7514_2181" x1="8.44189e-07" y1="22.7333" x2="28.8792" y2="16.403" gradientUnits="userSpaceOnUse">
<stop stop-color="#38DBFF"/>
<stop offset="0.984375" stop-color="#8A21DD"/>
</linearGradient>
<clipPath id="clip0_7514_2181">
<rect width="26" height="26" fill="white"/>
</clipPath>
</defs>
</svg>
