<svg width="32" height="32" viewBox="0 0 32 32" fill="none" xmlns="http://www.w3.org/2000/svg">
<g clip-path="url(#clip0_7516_2389)">
<path d="M32 9.90637V6.23438C32 5.37281 31.2991 4.67188 30.4375 4.67188H25.5938V6.11613C25.5938 6.63388 25.174 7.05363 24.6562 7.05363C24.1385 7.05363 23.7188 6.63388 23.7188 6.11613V4.67188H8.28125V6.11613C8.28125 6.63388 7.8615 7.05363 7.34375 7.05363C6.826 7.05363 6.40625 6.63388 6.40625 6.11613V4.67188H1.5625C0.700938 4.67188 0 5.37281 0 6.23438V9.90637H32Z" fill="#178EE8"/>
<path d="M8.28125 4.671V3.22656C8.28125 2.70881 7.8615 2.28906 7.34375 2.28906C6.826 2.28906 6.40625 2.70881 6.40625 3.22656V4.671H8.28125Z" fill="#178EE8"/>
<path d="M25.5938 4.671V3.22656C25.5938 2.70881 25.174 2.28906 24.6562 2.28906C24.1385 2.28906 23.7188 2.70881 23.7188 3.22656V4.671H25.5938Z" fill="#178EE8"/>
<path d="M22.1094 11.7812C24.9794 13.7399 26.8674 17.0362 26.8674 20.7654C26.8674 24.3517 25.1212 27.5374 22.4348 29.5184H30.435C31.2966 29.5184 31.9975 28.8174 31.9975 27.9559V11.7812H22.1094Z" fill="#178EE8"/>
<path d="M5.13013 20.7654C5.13013 17.0362 7.01806 13.7399 9.88813 11.7812H0V27.9559C0 28.8174 0.700938 29.5184 1.5625 29.5184H9.56269C6.87631 27.5374 5.13013 24.3517 5.13013 20.7654Z" fill="#178EE8"/>
<path d="M21.6605 27.75L20.6418 26.7312C20.2757 26.3652 20.2757 25.7715 20.6418 25.4054C21.0079 25.0393 21.6014 25.0393 21.9676 25.4054L22.9863 26.4242C24.0564 25.1059 24.7619 23.4802 24.9469 21.702H23.5016C22.9838 21.702 22.5641 21.2822 22.5641 20.7645C22.5641 20.2467 22.9838 19.827 23.5016 19.827H24.9469C24.7619 18.0487 24.0564 16.4231 22.9863 15.1048L21.9676 16.1235C21.7845 16.3065 21.5446 16.3981 21.3047 16.3981C21.0647 16.3981 20.8249 16.3066 20.6418 16.1235C20.2757 15.7574 20.2757 15.1638 20.6418 14.7977L21.6605 13.779C20.3422 12.7088 18.7166 12.0034 16.9383 11.8184V13.2637C16.9383 13.7815 16.5186 14.2012 16.0008 14.2012C15.4831 14.2012 15.0633 13.7815 15.0633 13.2637V11.8184C13.2851 12.0034 11.6594 12.7089 10.3411 13.779L11.3599 14.7977C11.726 15.1637 11.726 15.7574 11.3599 16.1235C11.1768 16.3065 10.9369 16.3981 10.6969 16.3981C10.457 16.3981 10.2171 16.3065 10.0341 16.1235L9.01531 15.1048C7.94512 16.4231 7.23969 18.0487 7.05469 19.827H8.50006C9.01781 19.827 9.43756 20.2467 9.43756 20.7645C9.43756 21.2822 9.01781 21.702 8.50006 21.702H7.05469C7.23969 23.4802 7.94519 25.1059 9.01531 26.4242L10.0341 25.4054C10.4002 25.0394 10.9938 25.0394 11.3599 25.4054C11.726 25.7715 11.726 26.3651 11.3599 26.7312L10.3411 27.75C11.6594 28.8202 13.2851 29.5257 15.0633 29.7107V28.2653C15.0633 27.7475 15.4831 27.3278 16.0008 27.3278C16.5186 27.3278 16.9383 27.7475 16.9383 28.2653V29.7107C18.7166 29.5257 20.3422 28.8202 21.6605 27.75ZM16.0008 21.702C15.4831 21.702 15.0633 21.2822 15.0633 20.7645V18.167C15.0633 17.6492 15.4831 17.2295 16.0008 17.2295C16.5186 17.2295 16.9383 17.6492 16.9383 18.167V19.827H18.0969C18.6146 19.827 19.0344 20.2467 19.0344 20.7645C19.0344 21.2822 18.6146 21.702 18.0969 21.702H16.0008Z" fill="#178EE8"/>
</g>
<defs>
<clipPath id="clip0_7516_2389">
<rect width="32" height="32" fill="white"/>
</clipPath>
</defs>
</svg>
