<svg width="26" height="26" viewBox="0 0 26 26" fill="none" xmlns="http://www.w3.org/2000/svg">
<g clip-path="url(#clip0_7047_981)">
<path d="M9.67305 6.37723L6.78715 9.26312C6.45707 8.73855 6.26562 8.11852 6.26562 7.4543C6.26562 5.57539 7.79414 4.04688 9.67305 4.04688C10.3373 4.04688 10.9573 4.23883 11.4819 4.5684L9.67305 6.37723Z" fill="url(#paint0_linear_7047_981)"/>
<path d="M12.5619 5.64648C12.892 6.17105 13.0834 6.79059 13.0834 7.4548C13.0834 9.33371 11.5549 10.8622 9.67602 10.8622C9.0118 10.8622 8.39176 10.6708 7.86719 10.3407L9.67602 8.53187L12.5619 5.64648Z" fill="url(#paint1_linear_7047_981)"/>
<path d="M18.5858 0H0.761713C0.341247 0 0 0.341247 0 0.761713V19.7614H5.3259C5.74636 19.7614 6.08761 20.1026 6.08761 20.5231V25.9998H9.60875C9.49196 25.6702 9.45133 25.3143 9.4945 24.9588C9.67985 23.4536 10.3766 22.0348 11.4562 20.9639C11.901 20.5221 12.4047 20.1458 12.9491 19.8441C12.8821 19.4943 12.8476 19.1347 12.8476 18.7706V16.7683C12.8476 15.2581 13.4356 13.8388 14.5035 12.7709C15.5709 11.7035 16.9908 11.1154 18.5005 11.1154C18.7864 11.1154 19.0697 11.1367 19.3475 11.1784V0.761713C19.3475 0.341247 19.0063 0 18.5858 0ZM9.67375 12.3849C6.95647 12.386 4.74242 10.1714 4.74293 7.45412C4.74293 4.73531 6.95495 2.5233 9.67375 2.5233C12.391 2.52228 14.6056 4.73684 14.6046 7.45412C14.6046 10.1729 12.3926 12.3849 9.67375 12.3849Z" fill="url(#paint2_linear_7047_981)"/>
<path d="M0.304688 21.2852H4.56777V25.5482L0.304688 21.2852Z" fill="url(#paint3_linear_7047_981)"/>
<path d="M25.8087 25.7435C25.6645 25.907 25.4568 26.0004 25.2385 26.0004H11.7632C11.3186 26.0108 10.9432 25.5856 11.0071 25.1458C11.1508 23.9783 11.6916 22.8774 12.53 22.0456C12.8098 21.7678 13.1191 21.5236 13.4507 21.3169C13.7183 21.8471 14.0723 22.3366 14.5039 22.7682C15.9984 24.2622 17.7965 24.4237 18.5003 24.4237C20.0106 24.4237 21.4304 23.8356 22.4978 22.7682C22.93 22.3361 23.2834 21.8466 23.5515 21.3164C23.8887 21.5266 24.203 21.776 24.4864 22.0593C25.3167 22.8896 25.8519 23.986 25.9946 25.1458C26.0209 25.3626 25.9534 25.58 25.8087 25.7435Z" fill="url(#paint4_linear_7047_981)"/>
<path d="M22.6262 16.7682V16.9022C20.2243 16.8322 19.1269 15.3128 19.1269 15.3128C18.9842 15.0828 18.7389 14.9604 18.4967 14.9619C18.2545 14.9604 18.0092 15.0828 17.8665 15.3128C17.8665 15.3128 16.7686 16.8322 14.3672 16.9022V16.7682C14.3672 14.4871 16.2161 12.6387 18.4967 12.6387C19.6367 12.6387 20.6691 13.1008 21.4161 13.8478C22.1641 14.5953 22.6262 15.6276 22.6262 16.7682Z" fill="url(#paint5_linear_7047_981)"/>
<path d="M18.4967 16.8613C19.2041 17.5027 20.5955 18.3639 22.6262 18.4254V18.7707C22.6262 21.0513 20.7773 22.8997 18.4967 22.8997C18.2215 22.8997 16.759 22.8723 15.5768 21.6906C14.8293 20.9431 14.3672 19.9107 14.3672 18.7707V18.4254C16.3974 18.3639 17.7893 17.5027 18.4967 16.8613Z" fill="url(#paint6_linear_7047_981)"/>
</g>
<defs>
<linearGradient id="paint0_linear_7047_981" x1="6.26563" y1="8.62261" x2="12.0635" y2="7.3614" gradientUnits="userSpaceOnUse">
<stop stop-color="#38DBFF"/>
<stop offset="0.984375" stop-color="#8A21DD"/>
</linearGradient>
<linearGradient id="paint1_linear_7047_981" x1="7.86719" y1="10.2218" x2="13.6651" y2="8.96045" gradientUnits="userSpaceOnUse">
<stop stop-color="#38DBFF"/>
<stop offset="0.984375" stop-color="#8A21DD"/>
</linearGradient>
<linearGradient id="paint2_linear_7047_981" x1="6.2819e-07" y1="22.8072" x2="21.9475" y2="19.2545" gradientUnits="userSpaceOnUse">
<stop stop-color="#38DBFF"/>
<stop offset="0.984375" stop-color="#8A21DD"/>
</linearGradient>
<linearGradient id="paint3_linear_7047_981" x1="0.304688" y1="25.0248" x2="5.04316" y2="23.994" gradientUnits="userSpaceOnUse">
<stop stop-color="#38DBFF"/>
<stop offset="0.984375" stop-color="#8A21DD"/>
</linearGradient>
<linearGradient id="paint4_linear_7047_981" x1="11" y1="25.4254" x2="22.7569" y2="17.2357" gradientUnits="userSpaceOnUse">
<stop stop-color="#38DBFF"/>
<stop offset="0.984375" stop-color="#8A21DD"/>
</linearGradient>
<linearGradient id="paint5_linear_7047_981" x1="14.3672" y1="16.3787" x2="22.5318" y2="12.9383" gradientUnits="userSpaceOnUse">
<stop stop-color="#38DBFF"/>
<stop offset="0.984375" stop-color="#8A21DD"/>
</linearGradient>
<linearGradient id="paint6_linear_7047_981" x1="14.3672" y1="22.1582" x2="23.1997" y2="19.5303" gradientUnits="userSpaceOnUse">
<stop stop-color="#38DBFF"/>
<stop offset="0.984375" stop-color="#8A21DD"/>
</linearGradient>
<clipPath id="clip0_7047_981">
<rect width="26" height="26" fill="white"/>
</clipPath>
</defs>
</svg>
