<svg width="24" height="24" viewBox="0 0 24 24" fill="none" xmlns="http://www.w3.org/2000/svg">
<path fill-rule="evenodd" clip-rule="evenodd" d="M21.1765 12.5293V9.35277H0V19.2386C0 20.4071 0.949078 21.3528 2.11889 21.3528H15.5009C15.2913 20.8047 15.1765 20.2098 15.1765 19.5881C15.1765 17.8327 16.098 16.2692 17.5077 15.3911C17.3724 15.1738 17.2942 14.9175 17.2942 14.6435V13.9443C17.2942 13.1627 17.9226 12.5293 18.7043 12.5293H21.1765ZM4.2353 2.99984V5.11508C4.2353 5.31134 4.39177 5.47044 4.59155 5.47044H5.29083C5.48756 5.47044 5.64708 5.31163 5.64708 5.11508V2.99984H9.88238V5.11508C9.88238 5.31134 10.0388 5.47044 10.2386 5.47044H10.9379C11.1346 5.47044 11.2942 5.31163 11.2942 5.11508V2.99984H15.5295V5.11508C15.5295 5.31134 15.6859 5.47044 15.8857 5.47044H16.585C16.7817 5.47044 16.9412 5.31163 16.9412 5.11508V2.99984H19.0576C20.2276 2.99984 21.1765 3.94695 21.1765 5.11616V7.94103H0V5.11616C0 3.94733 0.949687 2.99984 2.11889 2.99984H4.2353ZM11.2941 2.99984H9.88233V0.88325C9.88233 0.683797 10.0418 0.529297 10.2386 0.529297H10.9379C11.1376 0.529297 11.2941 0.687781 11.2941 0.88325V2.99984ZM16.9412 2.99984H15.5294V0.88325C15.5294 0.683797 15.6889 0.529297 15.8857 0.529297H16.5849C16.7847 0.529297 16.9412 0.687781 16.9412 0.88325V2.99984ZM5.64708 2.99984H4.2353V0.88325C4.2353 0.683797 4.39481 0.529297 4.59155 0.529297H5.29083C5.49061 0.529297 5.64708 0.687781 5.64708 0.88325V2.99984ZM19.4118 15.7698V14.9998H18.7043C18.5138 14.9998 18.353 14.8403 18.353 14.6436V13.9444C18.353 13.7446 18.5103 13.5881 18.7043 13.5881H21.5311C21.7216 13.5881 21.8824 13.7476 21.8824 13.9444V14.6436C21.8824 14.8434 21.7252 14.9998 21.5311 14.9998H20.8236V15.7698C21.3705 15.8702 21.8774 16.0853 22.3183 16.3892L22.8971 15.8105C23.0347 15.6729 23.2608 15.6724 23.3999 15.8115L23.8943 16.306C24.0356 16.4472 24.0339 16.6702 23.8953 16.8088L23.3166 17.3875C23.7476 18.0129 24 18.771 24 19.5881C24 21.7322 22.2618 23.4704 20.1176 23.4704C17.9734 23.4704 16.2352 21.7323 16.2352 19.5881C16.2353 17.685 17.6046 16.1017 19.4118 15.7698ZM20.1176 22.0587C21.4821 22.0587 22.5882 20.9525 22.5882 19.5881C22.5882 18.2236 21.4821 17.1175 20.1176 17.1175C18.7531 17.1175 17.647 18.2236 17.647 19.5881C17.647 20.9525 18.7532 22.0587 20.1176 22.0587ZM20.4673 20.294H19.768C19.5682 20.294 19.4117 20.1374 19.4117 19.9443V18.526C19.4117 18.3355 19.5713 18.1763 19.768 18.1763H20.4673C20.667 18.1763 20.8235 18.3329 20.8235 18.526V19.9443C20.8235 20.1348 20.664 20.294 20.4673 20.294Z" fill="url(#paint0_linear_7047_912)" fill-opacity="0.9"/>
<defs>
<linearGradient id="paint0_linear_7047_912" x1="14.2222" y1="-3.64409" x2="19.1005" y2="22.5623" gradientUnits="userSpaceOnUse">
<stop offset="0.168198" stop-color="#FF9DC8"/>
<stop offset="0.984375" stop-color="#EB2B7E"/>
</linearGradient>
</defs>
</svg>
