<svg width="16" height="16" viewBox="0 0 16 16" fill="none" xmlns="http://www.w3.org/2000/svg">
<g clip-path="url(#clip0_7514_2239)">
<path d="M11.125 3.87496L7.375 1.06246C7.05341 0.826612 6.625 1.06711 6.625 1.43749V2.84374H5.15625C2.31559 2.84374 0 5.15933 0 7.99999C0 10.6718 2.04375 12.875 4.65003 13.1281L3.30941 12.125C3.05991 11.938 3.06053 11.5616 3.30941 11.375L4.73438 10.3062C3.6375 10.1094 2.8125 9.15308 2.8125 7.99999C2.8125 6.70624 3.8625 5.65624 5.15625 5.65624H6.625V7.06249C6.625 7.43252 7.05328 7.67352 7.375 7.43746L11.125 4.62496C11.375 4.45192 11.3756 4.04849 11.125 3.87496Z" fill="#178EE8"/>
<path d="M11.3502 2.87109L12.6908 3.87422C12.9403 4.06131 12.9398 4.43766 12.6908 4.62422L11.2659 5.69297C12.3627 5.88988 13.1877 6.84606 13.1877 7.99925C13.1877 9.293 12.1377 10.343 10.844 10.343H9.43773V8.93675C9.43773 8.56759 9.01008 8.32531 8.68773 8.56172L4.87523 11.3742C4.62517 11.5474 4.62467 11.9508 4.87523 12.1242L8.68773 14.9367C8.98455 15.1677 9.43773 14.9507 9.43773 14.5617V13.1555H10.844C13.6846 13.1555 16.0002 10.8398 16.0002 7.99925C16.0002 5.32734 13.9565 3.12425 11.3502 2.87109Z" fill="#178EE8"/>
</g>
<defs>
<clipPath id="clip0_7514_2239">
<rect width="16" height="16" fill="white"/>
</clipPath>
</defs>
</svg>
