<svg width="24" height="24" viewBox="0 0 24 24" fill="none" xmlns="http://www.w3.org/2000/svg">
<path d="M21.504 15.0574V8.94258C22.1969 8.59641 22.674 7.88039 22.674 7.05469C22.674 5.89158 21.7277 4.94531 20.5646 4.94531C20.1342 4.94531 19.7337 5.07516 19.3996 5.29739L14.104 2.23997C14.1067 2.19675 14.1085 2.15325 14.1085 2.10938C14.1085 0.946266 13.1622 0 11.9991 0C10.836 0 9.88974 0.946266 9.88974 2.10938C9.88974 2.1533 9.89152 2.19675 9.89419 2.23997L4.59863 5.29739C4.26455 5.07516 3.86405 4.94531 3.43359 4.94531C2.27048 4.94531 1.32422 5.89158 1.32422 7.05469C1.32422 7.88039 1.80136 8.59641 2.49422 8.94258V15.0574C1.80136 15.4036 1.32422 16.1196 1.32422 16.9453C1.32422 18.1084 2.27048 19.0547 3.43359 19.0547C3.86405 19.0547 4.26455 18.9248 4.59863 18.7026L9.89414 21.76C9.89147 21.8032 9.88969 21.8468 9.88969 21.8906C9.88969 23.0537 10.836 24 11.9991 24C13.1622 24 14.1084 23.0537 14.1084 21.8906C14.1084 21.8467 14.1067 21.8033 14.104 21.76L19.3995 18.7026C19.7336 18.9248 20.1341 19.0547 20.5646 19.0547C21.7277 19.0547 22.674 18.1084 22.674 16.9453C22.674 16.1196 22.1969 15.4036 21.504 15.0574ZM11.9991 19.7812C11.3884 19.7812 10.8378 20.0423 10.4523 20.4585L5.44866 17.5696C5.50992 17.3722 5.54302 17.1626 5.54302 16.9453C5.54302 15.9427 4.83961 15.1018 3.90052 14.8887V9.11133C4.83961 8.89823 5.54302 8.0573 5.54302 7.05469C5.54302 6.83742 5.50992 6.6278 5.44866 6.43041L10.4523 3.54155C10.8378 3.95766 11.3884 4.21875 11.9991 4.21875C12.6098 4.21875 13.1604 3.95766 13.5459 3.54155L18.5496 6.43041C18.4883 6.62775 18.4552 6.83742 18.4552 7.05469C18.4552 8.05734 19.1587 8.89823 20.0978 9.11133V14.8886C19.1587 15.1017 18.4552 15.9427 18.4552 16.9453C18.4552 17.1625 18.4883 17.3722 18.5496 17.5695L13.5459 20.4584C13.1604 20.0423 12.6098 19.7812 11.9991 19.7812Z" fill="white"/>
<path d="M7.26953 15.3172H8.67578V13.3885H10.5925V15.3172H11.9987V8.68164H7.26953V15.3172ZM10.5925 10.0879V11.9823H8.67573V10.0879H10.5925Z" fill="white"/>
<path d="M14.3669 8.68164H13.4141V10.0879H14.3669V13.9109H13.4141V15.3172H14.3669H15.7732H16.726V13.9109H15.7732V10.0879H16.726V8.68164H15.7732H14.3669Z" fill="white"/>
</svg>
