<svg width="30" height="30" viewBox="0 0 30 30" fill="none" xmlns="http://www.w3.org/2000/svg">
<g clip-path="url(#clip0_7047_1011)">
<path d="M14.9961 14.1797C15.4815 14.1797 15.875 13.7862 15.875 13.3008C15.875 12.8154 15.4815 12.4219 14.9961 12.4219C14.5107 12.4219 14.1172 12.8154 14.1172 13.3008C14.1172 13.7862 14.5107 14.1797 14.9961 14.1797Z" fill="url(#paint0_linear_7047_1011)"/>
<path d="M19.5283 11.3251L20.0327 10.8971L19.5944 10.1379L18.9745 10.3598C18.6579 10.4732 18.3042 10.3958 18.0637 10.1607C17.539 9.64746 16.8868 9.27135 16.1775 9.07307C15.8535 8.98248 15.6096 8.71488 15.5494 8.38383L15.4313 7.73438H14.5546L14.4364 8.38389C14.3763 8.71488 14.1324 8.98254 13.8084 9.07313C13.0991 9.27141 12.4468 9.64752 11.9221 10.1607C11.6816 10.396 11.3278 10.4732 11.0114 10.3598L10.3915 10.138L9.95312 10.8972L10.4576 11.3251C10.7138 11.5426 10.8237 11.8871 10.7406 12.2127C10.6462 12.5826 10.5984 12.9487 10.5984 13.3008C10.5984 13.6529 10.6462 14.019 10.7407 14.3889C10.8238 14.7145 10.7139 15.0591 10.4576 15.2764L9.95318 15.7044L10.3915 16.4636L11.0114 16.2417C11.328 16.1283 11.6817 16.2057 11.9222 16.4408C12.4469 16.954 13.0991 17.3302 13.8085 17.5284C14.1324 17.6191 14.3763 17.8867 14.4365 18.2177L14.5546 18.8672H15.4313L15.5494 18.2177C15.6096 17.8868 15.8534 17.6191 16.1774 17.5285C16.8868 17.3302 17.539 16.954 18.0637 16.4409C18.3042 16.2057 18.658 16.1285 18.9745 16.2418L19.5944 16.4636L20.0327 15.7044L19.5283 15.2765C19.272 15.0591 19.1621 14.7145 19.2452 14.3889C19.3397 14.019 19.3875 13.6529 19.3875 13.3008C19.3875 12.9487 19.3397 12.5826 19.2452 12.2127C19.1621 11.887 19.272 11.5425 19.5283 11.3251ZM14.9929 15.9375C13.5391 15.9375 12.3562 14.7547 12.3562 13.3008C12.3562 11.8469 13.5391 10.6641 14.9929 10.6641C16.4468 10.6641 17.6297 11.8469 17.6297 13.3008C17.6297 14.7547 16.4468 15.9375 14.9929 15.9375Z" fill="url(#paint1_linear_7047_1011)"/>
<path d="M26.4699 2.41266C22.6678 0.811758 18.8074 0 14.9961 0C11.1847 0 7.32436 0.811758 3.52227 2.41266C3.19631 2.54988 2.98438 2.86904 2.98438 3.22266V13.1552C2.98438 16.8336 4.09643 20.3727 6.20035 23.3899C8.30422 26.4072 11.2407 28.6742 14.6923 29.9459C14.8885 30.0181 15.1038 30.0181 15.3 29.9459C18.7515 28.6743 21.6879 26.4072 23.7919 23.39C25.8957 20.3726 27.0078 16.8336 27.0078 13.1552V3.22266C27.0078 2.86904 26.7959 2.54988 26.4699 2.41266ZM21.1484 13.3008C21.1484 13.6208 21.1211 13.9465 21.0671 14.274L21.7323 14.8383C22.0562 15.113 22.1373 15.5801 21.9249 15.948L20.753 17.9777C20.5406 18.3456 20.0954 18.5088 19.6957 18.3657L18.8755 18.0722C18.3694 18.483 17.7987 18.8121 17.1887 19.045L17.0326 19.9033C16.9567 20.3212 16.5927 20.625 16.168 20.625H13.8242C13.3995 20.625 13.0355 20.3212 12.9595 19.9034L12.8034 19.045C12.1934 18.8122 11.6227 18.483 11.1166 18.0722L10.2964 18.3658C9.8968 18.5091 9.45148 18.3456 9.23908 17.9778L8.06721 15.948C7.8548 15.5802 7.9359 15.1131 8.2598 14.8383L8.92508 14.274C8.87105 13.9465 8.84375 13.6208 8.84375 13.3008C8.84375 12.9808 8.87106 12.6551 8.92514 12.3276L8.25986 11.7633C7.93596 11.4885 7.85486 11.0214 8.06727 10.6536L9.23914 8.62383C9.45148 8.25598 9.89662 8.09273 10.2965 8.23582L11.1167 8.52938C11.6228 8.11857 12.1934 7.78945 12.8035 7.55666L12.9596 6.69826C13.0355 6.28037 13.3995 5.97656 13.8242 5.97656H16.168C16.5927 5.97656 16.9567 6.28037 17.0327 6.6982L17.1888 7.5566C17.7988 7.78939 18.3695 8.11852 18.8756 8.52932L19.6958 8.23576C20.0956 8.09268 20.5408 8.25598 20.7531 8.62377L21.925 10.6535C22.1374 11.0214 22.0563 11.4885 21.7324 11.7632L21.0671 12.3275C21.1211 12.6551 21.1484 12.9808 21.1484 13.3008Z" fill="url(#paint2_linear_7047_1011)"/>
</g>
<defs>
<linearGradient id="paint0_linear_7047_1011" x1="14.1172" y1="13.9638" x2="16.071" y2="13.5388" gradientUnits="userSpaceOnUse">
<stop stop-color="#3AA0FF"/>
<stop offset="0.984375" stop-color="#53D0F7"/>
</linearGradient>
<linearGradient id="paint1_linear_7047_1011" x1="9.95313" y1="17.5002" x2="21.2487" y2="15.2755" gradientUnits="userSpaceOnUse">
<stop stop-color="#3AA0FF"/>
<stop offset="0.984375" stop-color="#53D0F7"/>
</linearGradient>
<linearGradient id="paint2_linear_7047_1011" x1="2.98438" y1="26.3162" x2="30.1266" y2="21.5883" gradientUnits="userSpaceOnUse">
<stop stop-color="#3AA0FF"/>
<stop offset="0.984375" stop-color="#53D0F7"/>
</linearGradient>
<clipPath id="clip0_7047_1011">
<rect width="30" height="30" fill="white"/>
</clipPath>
</defs>
</svg>
