<svg width="24" height="24" viewBox="0 0 24 24" fill="none" xmlns="http://www.w3.org/2000/svg">
<g clip-path="url(#clip0_7518_2068)">
<path d="M23.2969 8.95312H21.609C21.4353 8.40516 21.2143 7.87252 20.9482 7.36064L22.1425 6.16636C22.4171 5.89177 22.4171 5.44659 22.1425 5.172L18.828 1.85747C18.5534 1.58288 18.1082 1.58288 17.8336 1.85747L16.6393 3.05175C16.1275 2.78573 15.5948 2.56467 15.0469 2.39095V0.703125C15.0469 0.314812 14.7321 0 14.3438 0H9.65625C9.26794 0 8.95312 0.314812 8.95312 0.703125V2.39095C8.4052 2.56467 7.87247 2.78573 7.36064 3.05175L6.16636 1.85747C5.89177 1.58288 5.44659 1.58288 5.172 1.85747L1.85742 5.172C1.58283 5.44659 1.58283 5.89177 1.85742 6.16636L3.0517 7.36064C2.78564 7.87252 2.56467 8.40511 2.39091 8.95312H0.703125C0.314812 8.95312 0 9.26794 0 9.65625V14.3438C0 14.7321 0.314812 15.0469 0.703125 15.0469H2.39095C2.56472 15.5948 2.78569 16.1275 3.05175 16.6394L1.85747 17.8336C1.58288 18.1082 1.58288 18.5534 1.85747 18.828L5.17205 22.1425C5.44664 22.4171 5.89181 22.4171 6.16641 22.1425L7.36069 20.9482C7.87247 21.2143 8.40525 21.4353 8.95317 21.609V23.2969C8.95317 23.6852 9.26798 24 9.6563 24H14.3438C14.7321 24 15.0469 23.6852 15.0469 23.2969V21.609C15.5948 21.4353 16.1276 21.2143 16.6394 20.9482L17.8337 22.1425C18.1083 22.4171 18.5535 22.4171 18.828 22.1425L22.1426 18.828C22.4172 18.5534 22.4172 18.1082 22.1426 17.8336L20.9483 16.6394C21.2144 16.1275 21.4354 15.5949 21.6091 15.0469H23.2969C23.6852 15.0469 24 14.7321 24 14.3438V9.65625C24 9.26794 23.6852 8.95312 23.2969 8.95312ZM12 19.2656C7.99373 19.2656 4.73438 16.0063 4.73438 12C4.73438 7.99369 7.99373 4.73438 12 4.73438C16.0063 4.73438 19.2656 7.99369 19.2656 12C19.2656 16.0063 16.0063 19.2656 12 19.2656Z" fill="#FF0088"/>
<path d="M12 6.14062C8.76914 6.14062 6.14062 8.76914 6.14062 12C6.14062 13.2591 6.53986 14.4266 7.21833 15.3828C7.72556 14.5104 8.51358 13.8388 9.44648 13.4752C8.8508 12.8451 8.48438 11.996 8.48438 11.0625C8.48438 9.12398 10.0615 7.54688 12 7.54688C13.9385 7.54688 15.5156 9.12398 15.5156 11.0625C15.5156 11.996 15.1492 12.8451 14.5535 13.4752C15.4864 13.8388 16.2744 14.5104 16.7816 15.3828C17.4601 14.4266 17.8594 13.2591 17.8594 12C17.8594 8.76914 15.2309 6.14062 12 6.14062Z" fill="#FF0088"/>
<path d="M12.9407 14.5781H11.0657C9.80856 14.5781 8.69941 15.3464 8.24219 16.4892C9.26064 17.3438 10.5728 17.8594 12.0032 17.8594C13.4336 17.8594 14.7458 17.3438 15.7642 16.4892C15.307 15.3464 14.1978 14.5781 12.9407 14.5781Z" fill="#FF0088"/>
<path d="M12 13.1719C13.165 13.1719 14.1094 12.2275 14.1094 11.0625C14.1094 9.89752 13.165 8.95312 12 8.95312C10.835 8.95312 9.89062 9.89752 9.89062 11.0625C9.89062 12.2275 10.835 13.1719 12 13.1719Z" fill="#FF0088"/>
</g>
<defs>
<clipPath id="clip0_7518_2068">
<rect width="24" height="24" fill="white"/>
</clipPath>
</defs>
</svg>
