<svg width="26" height="26" viewBox="0 0 26 26" fill="none" xmlns="http://www.w3.org/2000/svg">
<g clip-path="url(#clip0_7514_2146)">
<path d="M6.75973 16.4916C6.36244 16.0944 6.21283 16.294 6.12446 16.3824C3.83671 18.6702 1.80569 24.1902 2.87941 23.651C6.78816 21.6884 7.43944 22.2728 9.72712 19.9852C9.81556 19.8967 10.0189 19.7509 9.61008 19.342L6.75973 16.4916Z" fill="url(#paint0_linear_7514_2146)"/>
<path d="M19.0927 16.4609C18.989 16.131 19.2062 15.972 19.2976 15.8733C24.3469 10.422 27.5559 3.15914 25.1778 0.780915C22.8123 -1.5845 15.7734 1.7183 10.3235 6.73116C10.2157 6.83047 10.0032 7.01852 9.62305 6.93914L7.92509 6.53483C7.45366 6.42271 6.78754 6.61116 6.44487 6.95383L0.214528 13.1841C-0.128143 13.5268 -0.0168097 13.8688 0.46196 13.944L4.96817 14.6521C5.44694 14.7274 6.11899 14.5086 6.46159 14.1659C6.46159 14.1659 6.6941 13.9327 6.9277 14.1662C8.2165 15.4549 10.6114 17.8498 11.8393 19.0778C12.0834 19.3218 11.8496 19.5539 11.8496 19.5539C11.5069 19.8966 11.2881 20.5685 11.3634 21.0474L12.0715 25.5535C12.1467 26.0324 12.4887 26.1438 12.8314 25.801L19.0618 19.5706C19.4044 19.2279 19.5929 18.562 19.4806 18.0905L19.0927 16.4609ZM17.6978 8.41178C16.6425 7.3565 16.6425 5.64573 17.6978 4.59061C18.753 3.53533 20.4637 3.53533 21.5191 4.59061C22.5742 5.64565 22.5742 7.3565 21.5191 8.4117C20.4637 9.46698 18.7529 9.46698 17.6978 8.41178Z" fill="url(#paint1_linear_7514_2146)"/>
</g>
<defs>
<linearGradient id="paint0_linear_7514_2146" x1="0.0156258" y1="22.8074" x2="28.8765" y2="16.5385" gradientUnits="userSpaceOnUse">
<stop stop-color="#38DBFF"/>
<stop offset="0.984375" stop-color="#8A21DD"/>
</linearGradient>
<linearGradient id="paint1_linear_7514_2146" x1="0.0156258" y1="22.8074" x2="28.8765" y2="16.5385" gradientUnits="userSpaceOnUse">
<stop stop-color="#38DBFF"/>
<stop offset="0.984375" stop-color="#8A21DD"/>
</linearGradient>
<clipPath id="clip0_7514_2146">
<rect width="26" height="26" fill="white"/>
</clipPath>
</defs>
</svg>
