<svg width="26" height="26" viewBox="0 0 26 26" fill="none" xmlns="http://www.w3.org/2000/svg">
<g clip-path="url(#clip0_7513_2045)">
<path d="M21.6667 8.66707C21.6667 6.52334 20.1084 4.75572 18.0654 4.40533C17.1934 1.84532 14.7741 0 11.9167 0C8.32582 0 5.41676 2.90969 5.41676 6.49998C2.4248 6.49998 0 8.92478 0 11.9171C0 14.9087 2.4248 17.3335 5.41676 17.3335H9.47925V5.14603H14.3542V17.3335H21.6667C24.0597 17.3335 25.9999 15.3929 25.9999 13C25.9999 10.607 24.0597 8.66707 21.6667 8.66707Z" fill="#178EE8"/>
<path d="M15.747 19.5552L13.0007 22.3018V6.5H10.8339V22.3018L8.08675 19.5553L6.55469 21.087L11.1515 25.6825C11.5749 26.106 12.2613 26.106 12.6835 25.6825L17.2803 21.0867L15.747 19.5552Z" fill="#178EE8"/>
</g>
<defs>
<clipPath id="clip0_7513_2045">
<rect width="26" height="26" fill="white"/>
</clipPath>
</defs>
</svg>
