<svg width="20" height="20" viewBox="0 0 20 20" fill="none" xmlns="http://www.w3.org/2000/svg">
<path d="M18.7552 4.14844H12.1162C11.4287 4.14844 10.8714 4.70574 10.8714 5.39324C10.8714 6.08074 11.4287 6.63805 12.1162 6.63805H15.75L10.6468 11.7412L7.3777 8.4718C6.89152 7.98559 6.10324 7.98555 5.61703 8.47176L0.36457 13.7246C0.131133 13.958 0 14.2746 0 14.6047C0 15.7137 1.34082 16.2691 2.125 15.485L6.49742 11.1127L9.7666 14.3816C10.2527 14.8677 11.0409 14.8676 11.527 14.3815L17.5104 8.39836V12.0322C17.5104 12.7197 18.0677 13.277 18.7552 13.277C19.4427 13.277 20 12.7197 20 12.0322V5.39324C20 4.70574 19.4427 4.14844 18.7552 4.14844Z" fill="#178EE8"/>
</svg>
