<svg width="26" height="26" viewBox="0 0 26 26" fill="none" xmlns="http://www.w3.org/2000/svg">
<g clip-path="url(#clip0_7513_2056)">
<path d="M21.6668 4.33247V3.24924C21.6668 2.65352 21.179 2.16602 20.5832 2.16602H16.25C15.6543 2.16602 15.1668 2.65352 15.1668 3.24924V4.33247H0V6.49924H15.1668V7.58247C15.1668 8.1782 15.6543 8.66602 16.25 8.66602H20.5832C21.179 8.66602 21.6668 8.1782 21.6668 7.58247V6.49924H26V4.33247H21.6668Z" fill="#178EE8"/>
<path d="M10.8332 11.9168V10.8332C10.8332 10.2378 10.3457 9.75 9.75 9.75H5.41677C4.82104 9.75 4.33323 10.2378 4.33323 10.8332V11.9168H0V14.0832H4.33323V15.1668C4.33323 15.7622 4.82104 16.25 5.41677 16.25H9.75C10.3457 16.25 10.8332 15.7622 10.8332 15.1668V14.0832H26V11.9168H10.8332Z" fill="#178EE8"/>
<path d="M19.5 19.5008V18.4175C19.5 17.8218 19.0122 17.334 18.4168 17.334H14.0832C13.4878 17.334 13 17.8218 13 18.4175V19.5008H0V21.6675H13V22.7508C13 23.3465 13.4878 23.834 14.0832 23.834H18.4168C19.0122 23.834 19.5 23.3465 19.5 22.7508V21.6675H26V19.5008H19.5Z" fill="#178EE8"/>
</g>
<defs>
<clipPath id="clip0_7513_2056">
<rect width="26" height="26" fill="white"/>
</clipPath>
</defs>
</svg>
