<svg width="26" height="26" viewBox="0 0 26 26" fill="none" xmlns="http://www.w3.org/2000/svg">
<path d="M22.751 15.1111H26C26 12.189 25.0233 9.50061 23.3964 7.32996L21.4263 9.30008L19.8943 7.76801L21.9574 5.70591C19.8702 3.71726 17.1282 2.41789 14.083 2.16602V5.36111H11.9165V2.16602C8.87155 2.41757 6.12917 3.71694 4.04301 5.70496L6.10613 7.76808L4.57406 9.30015L2.60425 7.32933C0.97665 9.50067 0 12.189 0 15.1111H3.25V17.2776H0V19.4443H9.75V16.1943C9.75 14.4 11.2056 12.9443 13 12.9443C13.5005 12.9443 13.9688 13.0672 14.3932 13.269L17.5958 10.0658L19.1279 11.5988L15.9253 14.8013C16.1272 15.2252 16.25 15.6938 16.25 16.1943V19.4443H26V17.2775H22.751V15.1111Z" fill="url(#paint0_linear_7512_1950)"/>
<path d="M26 21.668H0V23.8344H26V21.668Z" fill="url(#paint1_linear_7512_1950)"/>
<defs>
<linearGradient id="paint0_linear_7512_1950" x1="8.44189e-07" y1="17.3227" x2="27.3377" y2="8.37423" gradientUnits="userSpaceOnUse">
<stop stop-color="#3AA0FF"/>
<stop offset="0.984375" stop-color="#53D0F7"/>
</linearGradient>
<linearGradient id="paint1_linear_7512_1950" x1="8.44189e-07" y1="23.5684" x2="3.87282" y2="13.4581" gradientUnits="userSpaceOnUse">
<stop stop-color="#3AA0FF"/>
<stop offset="0.984375" stop-color="#53D0F7"/>
</linearGradient>
</defs>
</svg>
