<svg width="28" height="28" viewBox="0 0 28 28" fill="none" xmlns="http://www.w3.org/2000/svg">
<g clip-path="url(#clip0_7518_1985)">
<path d="M25.4219 16.2559C24.9688 16.2559 24.6016 16.6231 24.6016 17.0762V17.5155C24.6016 17.9685 24.9688 18.3358 25.4219 18.3358C25.8749 18.3358 26.2422 17.9685 26.2422 17.5155V17.0762C26.2422 16.6231 25.8749 16.2559 25.4219 16.2559Z" fill="white"/>
<path d="M26.2422 13.1211C26.2422 12.6681 25.8749 12.3008 25.4219 12.3008C24.9688 12.3008 24.6016 12.6681 24.6016 13.1211V13.5605C24.6016 14.0135 24.9688 14.3808 25.4219 14.3808C25.8749 14.3808 26.2422 14.0135 26.2422 13.5605V13.1211Z" fill="white"/>
<path d="M27.1797 26.3599H26.2427V21.0297C26.2427 20.5767 25.8754 20.2094 25.4224 20.2094H21.9078C21.4548 20.2094 21.0875 20.5767 21.0875 21.0297V26.3599H19.2135V14.8792C19.2135 14.4262 18.8462 14.0589 18.3932 14.0589H14.8786C14.4256 14.0589 14.0583 14.4262 14.0583 14.8792V26.3599H12.1844V8.72866C12.1844 8.27563 11.8171 7.90835 11.3641 7.90835H7.84946C7.39643 7.90835 7.02915 8.27563 7.02915 8.72866V26.3599H5.15523V2.57812C5.15523 2.12509 4.78795 1.75781 4.33491 1.75781H0.820312C0.367281 1.75781 0 2.12509 0 2.57812V27.1802C0 27.6333 0.367281 28.0005 0.820312 28.0005H27.1797C27.6327 28.0005 28 27.6333 28 27.1802C28 26.7272 27.6327 26.3599 27.1797 26.3599Z" fill="white"/>
<path d="M22.3481 11.3057C25.4652 11.3057 28.001 8.76985 28.001 5.65283C28.001 2.5358 25.4652 0 22.3481 0C19.2311 0 16.6953 2.53586 16.6953 5.65288C16.6953 8.76991 19.2312 11.3057 22.3481 11.3057ZM20.7358 5.28604L21.6144 3.52877C21.817 3.12353 22.3098 2.9593 22.715 3.16192C23.1202 3.36454 23.2844 3.85727 23.0818 4.26251L22.7968 4.83262H23.2268C23.5111 4.83262 23.7752 4.97984 23.9246 5.22167C24.0741 5.4635 24.0876 5.76548 23.9605 6.01978L23.0819 7.77705C22.8789 8.18295 22.3859 8.34619 21.9813 8.1439C21.5761 7.94128 21.4118 7.44855 21.6145 7.04331L21.8995 6.4732H21.4695C21.1852 6.4732 20.9212 6.32598 20.7717 6.08415C20.6223 5.84232 20.6087 5.54034 20.7358 5.28604Z" fill="white"/>
</g>
<defs>
<clipPath id="clip0_7518_1985">
<rect width="28" height="28" fill="white"/>
</clipPath>
</defs>
</svg>
