<svg width="30" height="30" viewBox="0 0 30 30" fill="none" xmlns="http://www.w3.org/2000/svg">
<g clip-path="url(#clip0_7047_1031)">
<path d="M22.9062 8.84766C19.0229 8.84766 15.875 11.9956 15.875 15.8789C15.875 19.461 18.5636 22.3846 22.0273 22.8216V29.1211C22.0273 29.6069 22.4204 30 22.9062 30C23.3921 30 23.7852 29.6069 23.7852 29.1211V22.8216C27.2489 22.3846 29.9961 19.461 29.9961 15.8789C29.9961 11.9956 26.7896 8.84766 22.9062 8.84766Z" fill="url(#paint0_linear_7047_1031)"/>
<path d="M0.878906 14.1211H2.18379C2.38805 14.8395 2.67732 15.5321 3.04898 16.1913L2.16234 17.078C1.81904 17.4213 1.81904 17.9775 2.16234 18.3208L4.64801 20.8065C4.99131 21.1498 5.54754 21.1498 5.89084 20.8065L6.77748 19.9198C7.43666 20.2915 8.1293 20.5807 8.84772 20.785V22.0312C8.84772 22.5171 9.24082 22.9102 9.72662 22.9102H13.2422C13.728 22.9102 14.1212 22.5171 14.1212 22.0312V20.785C14.5482 20.6633 14.9657 20.5095 15.3737 20.3281C14.7752 19.3185 14.3617 18.189 14.2005 16.9788C13.3781 17.3865 12.4645 17.6367 11.4844 17.6367C8.08652 17.6367 5.33203 14.8822 5.33203 11.4844C5.33203 8.08652 8.08652 5.33203 11.4844 5.33203C14.0989 5.33203 16.3184 6.96955 17.2092 9.26953C18.1017 8.50787 19.1318 7.90055 20.2777 7.53738C20.1621 7.28238 20.0578 7.02305 19.9198 6.77748L20.8065 5.89084C21.1498 5.54754 21.1498 4.99131 20.8065 4.64801L18.3208 2.16234C17.9775 1.81904 17.4213 1.81904 17.078 2.16234L16.1913 3.04898C15.5321 2.67727 14.8395 2.38805 14.1211 2.18379V0.878906C14.1211 0.393105 13.728 0 13.2422 0H9.72656C9.24076 0 8.84766 0.393105 8.84766 0.878906V2.18379C8.12924 2.38805 7.4366 2.67732 6.77742 3.04898L5.89078 2.16234C5.54748 1.81904 4.99125 1.81904 4.64795 2.16234L2.16229 4.64795C1.81898 4.99125 1.81898 5.54748 2.16229 5.89078L3.04893 6.77742C2.67727 7.4366 2.38805 8.12924 2.18379 8.84766H0.878906C0.393105 8.84766 0 9.24076 0 9.72656V13.2422C0 13.728 0.393105 14.1211 0.878906 14.1211Z" fill="url(#paint1_linear_7047_1031)"/>
</g>
<defs>
<linearGradient id="paint0_linear_7047_1031" x1="15.875" y1="27.4026" x2="31.9739" y2="25.0648" gradientUnits="userSpaceOnUse">
<stop stop-color="#3AA0FF"/>
<stop offset="0.984375" stop-color="#53D0F7"/>
</linearGradient>
<linearGradient id="paint1_linear_7047_1031" x1="6.83921e-07" y1="20.0969" x2="23.5776" y2="15.3815" gradientUnits="userSpaceOnUse">
<stop stop-color="#3AA0FF"/>
<stop offset="0.984375" stop-color="#53D0F7"/>
</linearGradient>
<clipPath id="clip0_7047_1031">
<rect width="30" height="30" fill="white"/>
</clipPath>
</defs>
</svg>
