<svg width="24" height="24" viewBox="0 0 24 24" fill="none" xmlns="http://www.w3.org/2000/svg">
<g clip-path="url(#clip0_7518_2060)">
<path d="M14.9942 10.1825L12.585 13.7963C12.4683 13.9713 12.2788 14.0853 12.0694 14.1059C12.046 14.108 12.0227 14.1094 12 14.1094C11.8147 14.1094 11.6355 14.0359 11.5029 13.9034L10.0967 12.4971C9.82205 12.2225 9.82205 11.7775 10.0967 11.5028C10.3713 11.2282 10.8163 11.2282 11.091 11.5028L11.8909 12.3028L14.0102 9.12352C13.4395 8.72339 12.7483 8.48438 12 8.48438C10.0616 8.48438 8.48438 10.0616 8.48438 12C8.48438 13.9384 10.0616 15.5156 12 15.5156C13.9384 15.5156 15.5156 13.9384 15.5156 12C15.5157 11.3327 15.3184 10.7146 14.9942 10.1825Z" fill="#FF0088"/>
<path d="M23.8682 11.5907C23.6539 11.2914 18.4998 4.26562 12 4.26562C5.5002 4.26562 0.346055 11.2914 0.131836 11.5908C-0.0439453 11.8352 -0.0439453 12.1648 0.131836 12.4093C0.346055 12.7086 5.50024 19.7344 12 19.7344C18.4997 19.7344 23.6539 12.7086 23.8682 12.4092C24.044 12.1648 24.044 11.8352 23.8682 11.5907ZM12 16.9219C9.28634 16.9219 7.0781 14.7136 7.0781 12C7.0781 9.28636 9.28634 7.07812 12 7.07812C14.7136 7.07812 16.9219 9.28636 16.9219 12C16.9219 14.7136 14.7137 16.9219 12 16.9219Z" fill="#FF0088"/>
</g>
<defs>
<clipPath id="clip0_7518_2060">
<rect width="24" height="24" fill="white"/>
</clipPath>
</defs>
</svg>
