<svg width="24" height="24" viewBox="0 0 24 24" fill="none" xmlns="http://www.w3.org/2000/svg">
<g clip-path="url(#clip0_7735_5380)">
<path d="M8.30012 16.7797V18.0272H6.89429C6.89429 17.3869 6.89429 16.0977 6.89429 15.4573H7.5972C8.46835 15.4573 9.17689 14.7488 9.17689 13.8776C9.09034 11.782 6.10383 11.7824 6.01751 13.8776C5.66713 13.8776 4.96201 13.8776 4.61168 13.8776C4.60188 12.1308 6.14474 10.7304 7.88165 10.9057C7.61079 10.1151 7.44725 9.27443 7.40835 8.40234C1.07984 8.53384 -2.31914 16.1034 1.80376 20.9185V22.7451H4.09995C8.74151 25.2149 14.5809 22.0656 15.1395 16.9105C13.3578 16.6593 11.7421 15.8847 10.4534 14.7478C10.1469 15.7506 9.32638 16.5309 8.30012 16.7797ZM8.30012 21.1027H6.89429V19.6968H8.30012V21.1027Z" fill="white"/>
<path d="M16.4023 0.398636C12.0174 0.36663 8.50064 4.21285 8.82107 8.49859C9.17023 13.9537 15.098 17.2554 19.8995 14.7437H22.1952V12.9171C26.37 8.03804 22.8294 0.377642 16.4023 0.398636ZM20.9216 6.7652C20.7477 6.89078 20.564 6.99575 20.3738 7.0801V8.90207H18.9679V7.33222C18.4778 7.30129 17.9918 7.14899 17.5546 6.87438C17.4149 6.78675 17.2636 6.72161 17.1052 6.68085V10.4789H18.7749V11.8848C17.681 11.8848 15.0858 11.8848 14.0292 11.8848C14.0292 11.6823 14.0292 10.6573 14.0292 10.4789H15.6994V6.68038C15.541 6.72162 15.3896 6.78675 15.2495 6.87438C14.8118 7.14899 14.3263 7.30129 13.8362 7.33222V8.90207C13.4858 8.90207 12.7807 8.90207 12.4303 8.90207C12.4303 8.57301 12.4303 7.42875 12.4303 7.08057C12.1369 6.95915 11.8287 6.72869 11.569 6.53932C11.7743 6.25516 12.1873 5.68331 12.3924 5.39919L12.7054 5.62553C13.2391 6.0112 13.9444 6.03416 14.5016 5.68411C14.8671 5.45449 15.2753 5.30688 15.6994 5.25017V3.85324H17.1052V5.25017C17.5293 5.30734 17.937 5.45449 18.3025 5.68411C18.8597 6.03369 19.5649 6.0112 20.0982 5.62553L20.4117 5.39919C20.6168 5.68336 21.0298 6.25497 21.2351 6.53886L20.9216 6.7652Z" fill="white"/>
</g>
<defs>
<clipPath id="clip0_7735_5380">
<rect width="24" height="24" fill="white"/>
</clipPath>
</defs>
</svg>
