<svg width="24" height="24" viewBox="0 0 24 24" fill="none" xmlns="http://www.w3.org/2000/svg">
<g clip-path="url(#clip0_7620_2392)">
<path d="M13.3594 4.68772H16.9319L12.6562 0.412109V3.98459C12.6562 4.3723 12.9717 4.68772 13.3594 4.68772Z" fill="white"/>
<path d="M8.66914 9.84375C7.3265 9.84375 6.2203 10.8753 6.10156 12.1875H11.2367C11.118 10.8753 10.0118 9.84375 8.66914 9.84375Z" fill="white"/>
<path d="M8.67188 8.4375C9.31908 8.4375 9.84375 7.91283 9.84375 7.26562C9.84375 6.61842 9.31908 6.09375 8.67188 6.09375C8.02467 6.09375 7.5 6.61842 7.5 7.26562C7.5 7.91283 8.02467 8.4375 8.67188 8.4375Z" fill="white"/>
<path d="M23.5569 14.5146C21.0398 13.5134 18.5227 13.5134 16.0055 14.5146C15.738 14.621 15.5625 14.8803 15.5625 15.1683V17.5845C15.5625 20.2738 17.0796 22.7213 19.4622 23.9248C19.6628 24.0262 19.8997 24.0262 20.1004 23.9248C22.4829 22.7213 24 20.2737 24 17.5845V15.1682C24 14.8803 23.8245 14.621 23.5569 14.5146ZM21.77 18.4227L19.7812 20.4115C19.5066 20.6861 19.0614 20.6861 18.7868 20.4115L17.7925 19.4171C17.5179 19.1425 17.5179 18.6974 17.7925 18.4228C18.0671 18.1482 18.5122 18.1482 18.7868 18.4228L19.284 18.92L20.7756 17.4284C21.0502 17.1538 21.4954 17.1538 21.77 17.4284C22.0445 17.703 22.0445 18.1481 21.77 18.4227Z" fill="white"/>
<path d="M15.4857 13.2071C16.1011 12.9623 16.7216 12.77 17.3438 12.6306V6.09375H13.3594C12.1963 6.09375 11.25 5.14748 11.25 3.98438V0H2.10938C0.946266 0 0 0.946266 0 2.10938V19.9219C0 21.085 0.946266 22.0312 2.10938 22.0312H15.4113C14.5904 20.6922 14.1562 19.1549 14.1562 17.5837V15.1674C14.1562 14.2979 14.6781 13.5285 15.4857 13.2071ZM11.4844 19.2188H5.85938C5.47106 19.2188 5.15625 18.9039 5.15625 18.5156C5.15625 18.1273 5.47106 17.8125 5.85938 17.8125H11.4844C11.8727 17.8125 12.1875 18.1273 12.1875 18.5156C12.1875 18.9039 11.8727 19.2188 11.4844 19.2188ZM5.15625 15.7031C5.15625 15.3148 5.47106 15 5.85938 15C6.24769 15 6.5625 15.3148 6.5625 15.7031C6.5625 16.0914 6.24769 16.4062 5.85938 16.4062C5.47106 16.4062 5.15625 16.0914 5.15625 15.7031ZM7.96875 15.7031C7.96875 15.3148 8.28356 15 8.67188 15C9.06019 15 9.375 15.3148 9.375 15.7031C9.375 16.0914 9.06019 16.4062 8.67188 16.4062C8.28356 16.4062 7.96875 16.0914 7.96875 15.7031ZM11.4844 16.4062C11.0961 16.4062 10.7812 16.0914 10.7812 15.7031C10.7812 15.3148 11.0961 15 11.4844 15C11.8727 15 12.1875 15.3148 12.1875 15.7031C12.1875 16.0914 11.8727 16.4062 11.4844 16.4062ZM12.6562 12.8906C12.6562 13.2789 12.3414 13.5938 11.9531 13.5938H5.39062C5.00231 13.5938 4.6875 13.2789 4.6875 12.8906V12.4219C4.6875 10.933 5.50894 9.63305 6.72187 8.94923C6.33103 8.49717 6.09375 7.90875 6.09375 7.26562C6.09375 5.84405 7.2503 4.6875 8.67188 4.6875C10.0935 4.6875 11.25 5.84405 11.25 7.26562C11.25 7.90875 11.0127 8.49717 10.6219 8.94923C11.8348 9.63305 12.6562 10.933 12.6562 12.4219V12.8906Z" fill="white"/>
</g>
<defs>
<clipPath id="clip0_7620_2392">
<rect width="24" height="24" fill="white"/>
</clipPath>
</defs>
</svg>
