<svg width="28" height="28" viewBox="0 0 28 28" fill="none" xmlns="http://www.w3.org/2000/svg">
<g clip-path="url(#clip0_7518_1964)">
<path d="M16.1236 5.25H11.8738C10.9715 6.96719 9.5682 8.37047 7.85156 9.27281V19.7181C7.85156 19.8904 7.95273 20.0473 8.10969 20.1184L13.8207 22.7106C13.9366 22.7637 14.0663 22.7637 14.1827 22.7106L19.8948 20.1184C20.0513 20.0473 20.1519 19.8904 20.1519 19.7192V9.27828C18.4372 8.37851 17.0161 6.95193 16.1236 5.25ZM18.0929 12.6273L13.1781 17.2758C13.025 17.4202 12.8232 17.5 12.6143 17.5C12.5952 17.5 12.576 17.4995 12.5574 17.4978C12.3283 17.482 12.1166 17.3709 11.9734 17.1916L9.83344 14.5119C9.5507 14.158 9.60867 13.6418 9.9625 13.3591C10.3163 13.0763 10.8326 13.1343 11.1153 13.4881L12.6985 15.4705L16.9652 11.4352C17.2945 11.124 17.814 11.1382 18.1252 11.4674C18.4363 11.7966 18.4221 12.3162 18.0929 12.6273Z" fill="white"/>
<path d="M24.5816 5.11383C22.2082 5.11383 20.288 3.19337 20.288 0.820312C20.288 0.3675 19.9205 0 19.4677 0H8.5357C8.08289 0 7.71539 0.3675 7.71539 0.820312C7.71539 3.18773 5.7893 5.11437 3.42188 5.11437C2.96852 5.11437 2.60156 5.48133 2.60156 5.93469V19.7181C2.60156 21.945 3.91188 23.9788 5.93969 24.8992L11.6507 27.4914C13.1448 28.1695 14.8581 28.1695 16.3522 27.4914L22.0648 24.8987C24.0921 23.9788 25.4019 21.9455 25.4019 19.7192V5.93414C25.4019 5.48286 25.0366 5.11383 24.5816 5.11383ZM21.7925 19.7192C21.7925 20.533 21.314 21.2756 20.573 21.612L14.8609 24.2047C14.3175 24.4518 13.6909 24.454 13.1426 24.2047L7.43156 21.6125C6.69 21.2762 6.21094 20.5324 6.21094 19.7181V8.76149C6.21094 8.44047 6.39797 8.14898 6.69055 8.01555C8.42906 7.22203 9.82359 5.8275 10.6166 4.08898C10.75 3.79695 11.0415 3.60938 11.363 3.60938H16.6349C16.9565 3.60938 17.2485 3.7975 17.382 4.09008C18.1633 5.80912 19.5698 7.22706 21.3118 8.02047C21.6049 8.15336 21.7925 8.44539 21.7925 8.76695V19.7192Z" fill="white"/>
</g>
<defs>
<clipPath id="clip0_7518_1964">
<rect width="28" height="28" fill="white"/>
</clipPath>
</defs>
</svg>
