<svg width="24" height="24" viewBox="0 0 24 24" fill="none" xmlns="http://www.w3.org/2000/svg">
<g clip-path="url(#clip0_7516_2416)">
<path d="M21.207 14.5088L14.7595 8.0613C14.5767 7.87858 14.2793 7.87862 14.0966 8.06134L12.3565 9.80144C10.8912 11.2668 8.50505 11.2636 7.04372 9.79192C6.22664 8.96903 6.2332 7.63834 7.05319 6.81836L9.92991 3.94164C9.94186 3.92969 9.95409 3.91806 9.96614 3.90625H0.703125C0.314812 3.90625 0 4.22106 0 4.60938V11.6406C0 12.0289 0.314812 12.3438 0.703125 12.3438L2.13769 12.3438L8.79525 19.0013L8.7953 19.0012L9.44939 19.6553C10.0329 20.2388 10.9789 20.2388 11.5624 19.6553C12.1453 19.0724 12.1459 18.1278 11.5642 17.5441L12.8898 18.8697C13.4733 19.4532 14.4193 19.4532 15.0028 18.8697C15.5863 18.2862 15.5863 17.3403 15.0029 16.7568L15.9972 17.7511C16.5807 18.3346 17.5267 18.3346 18.1102 17.7511C18.6937 17.1676 18.6937 16.2215 18.1102 15.638L19.1046 16.6324C19.6881 17.2159 20.6341 17.2159 21.2176 16.6324C21.8011 16.0489 21.8011 15.1029 21.2176 14.5194L21.207 14.5088Z" fill="url(#paint0_linear_7516_2416)" fill-opacity="0.9"/>
<path d="M24.0021 4.60938C24.0021 4.22106 23.6873 3.90625 23.299 3.90625H13.4123C12.4799 3.90625 11.5857 4.27666 10.9264 4.93595L8.0497 7.81267C7.7751 8.08727 7.7751 8.53244 8.0497 8.80703C8.96498 9.72231 10.4489 9.72231 11.3642 8.80703L13.1043 7.06694C13.8366 6.3347 15.0238 6.3347 15.756 7.06694L21.7063 13.0172L21.7062 13.0171L21.7063 13.0172L21.9308 12.3438H23.299C23.6873 12.3438 24.0021 12.029 24.0021 11.6407V4.60938Z" fill="url(#paint1_linear_7516_2416)" fill-opacity="0.9"/>
</g>
<defs>
<linearGradient id="paint0_linear_7516_2416" x1="1.20815" y1="4.81311" x2="17.1015" y2="19.1443" gradientUnits="userSpaceOnUse">
<stop offset="0.015625" stop-color="#8A21DD"/>
<stop offset="0.831802" stop-color="#6617E8"/>
</linearGradient>
<linearGradient id="paint1_linear_7516_2416" x1="8.74523" y1="4.41669" x2="17.5977" y2="14.9985" gradientUnits="userSpaceOnUse">
<stop offset="0.015625" stop-color="#8A21DD"/>
<stop offset="0.831802" stop-color="#6617E8"/>
</linearGradient>
<clipPath id="clip0_7516_2416">
<rect width="24" height="24" fill="white"/>
</clipPath>
</defs>
</svg>
