<svg width="24" height="24" viewBox="0 0 24 24" fill="none" xmlns="http://www.w3.org/2000/svg">
<g clip-path="url(#clip0_7516_2421)">
<path d="M4.21875 2.15625V2.85938H2.8125V2.15625C2.8125 1.76245 3.12183 1.45312 3.51562 1.45312C3.90942 1.45312 4.21875 1.76245 4.21875 2.15625Z" fill="url(#paint0_linear_7516_2421)" fill-opacity="0.9"/>
<path d="M9.84375 2.15625V2.85938H8.4375V2.15625C8.4375 1.76245 8.74683 1.45312 9.14062 1.45312C9.53442 1.45312 9.84375 1.76245 9.84375 2.15625Z" fill="url(#paint1_linear_7516_2421)" fill-opacity="0.9"/>
<path d="M18.2812 7.07812V3.5625C18.2812 3.1687 17.9719 2.85938 17.5781 2.85938H15.4688V4.96875C15.4688 5.36245 15.1594 5.67188 14.7656 5.67188C14.3718 5.67188 14.0625 5.36245 14.0625 4.96875V2.85938H9.84375V4.96875C9.84375 5.36245 9.53442 5.67188 9.14062 5.67188C8.74683 5.67188 8.4375 5.36245 8.4375 4.96875V2.85938H4.21875V4.96875C4.21875 5.36245 3.90942 5.67188 3.51562 5.67188C3.12183 5.67188 2.8125 5.36245 2.8125 4.96875V2.85938H0.703125C0.309328 2.85938 0 3.1687 0 3.5625V7.07812H18.2812Z" fill="url(#paint2_linear_7516_2421)" fill-opacity="0.9"/>
<path d="M23.2972 18.3281C23.0914 18.3281 18.5194 18.0599 18.3021 8.48438H0.0234375C0.269344 19.5699 6.08067 19.7344 6.32845 19.7344H23.3113C23.691 19.7203 24.0003 19.4109 24.0003 19.0312C24.0003 18.6515 23.691 18.3281 23.2972 18.3281Z" fill="url(#paint3_linear_7516_2421)" fill-opacity="0.9"/>
<path d="M15.4688 2.15625V2.85938H14.0625V2.15625C14.0625 1.76245 14.3718 1.45312 14.7656 1.45312C15.1594 1.45312 15.4688 1.76245 15.4688 2.15625Z" fill="url(#paint4_linear_7516_2421)" fill-opacity="0.9"/>
<path d="M6.32812 21.1398C6.09966 21.1398 2.16534 21.0333 0 15.9922V21.8429C0 22.2316 0.314484 22.5461 0.703125 22.5461H17.5781C17.9668 22.5461 18.2812 22.2316 18.2812 21.8429V21.1398H6.32812Z" fill="url(#paint5_linear_7516_2421)" fill-opacity="0.9"/>
</g>
<defs>
<linearGradient id="paint0_linear_7516_2421" x1="2.89095" y1="1.53191" x2="4.17768" y2="2.39916" gradientUnits="userSpaceOnUse">
<stop offset="0.015625" stop-color="#8A21DD"/>
<stop offset="0.831802" stop-color="#6617E8"/>
</linearGradient>
<linearGradient id="paint1_linear_7516_2421" x1="8.51595" y1="1.53191" x2="9.80268" y2="2.39916" gradientUnits="userSpaceOnUse">
<stop offset="0.015625" stop-color="#8A21DD"/>
<stop offset="0.831802" stop-color="#6617E8"/>
</linearGradient>
<linearGradient id="paint2_linear_7516_2421" x1="1.01991" y1="3.09573" x2="3.57241" y2="10.5508" gradientUnits="userSpaceOnUse">
<stop offset="0.015625" stop-color="#8A21DD"/>
<stop offset="0.831802" stop-color="#6617E8"/>
</linearGradient>
<linearGradient id="paint3_linear_7516_2421" x1="1.36111" y1="9.11465" x2="11.7758" y2="24.0752" gradientUnits="userSpaceOnUse">
<stop offset="0.015625" stop-color="#8A21DD"/>
<stop offset="0.831802" stop-color="#6617E8"/>
</linearGradient>
<linearGradient id="paint4_linear_7516_2421" x1="14.141" y1="1.53191" x2="15.4277" y2="2.39916" gradientUnits="userSpaceOnUse">
<stop offset="0.015625" stop-color="#8A21DD"/>
<stop offset="0.831802" stop-color="#6617E8"/>
</linearGradient>
<linearGradient id="paint5_linear_7516_2421" x1="1.01991" y1="16.3594" x2="6.38451" y2="26.4451" gradientUnits="userSpaceOnUse">
<stop offset="0.015625" stop-color="#8A21DD"/>
<stop offset="0.831802" stop-color="#6617E8"/>
</linearGradient>
<clipPath id="clip0_7516_2421">
<rect width="24" height="24" fill="white"/>
</clipPath>
</defs>
</svg>
