<svg width="24" height="24" viewBox="0 0 24 24" fill="none" xmlns="http://www.w3.org/2000/svg">
<path d="M13.3202 14.1658L12.1247 14.7898C10.8961 15.4453 9.34063 15.1333 8.43313 14.0458L7.84512 13.3408C7.34712 12.7408 7.38762 11.8723 7.93962 11.3218L11.6026 7.65878L10.8811 7.23427C10.7656 7.16677 10.6336 7.13077 10.5001 7.13077H7.77612L8.17062 6.34177C8.35662 5.97126 8.20512 5.52126 7.83462 5.33526L5.5846 4.21025C5.2156 4.02575 4.7656 4.17575 4.5796 4.54625L0.0795596 13.5463C-0.106442 13.9168 0.0450593 14.3668 0.415562 14.5528L2.66558 15.6778C2.77208 15.7318 2.88608 15.7558 3.00008 15.7558C3.27608 15.7558 3.54009 15.6028 3.67209 15.3418L3.92709 14.8333L9.74264 19.1339C10.4071 19.6244 11.1991 19.8689 11.9897 19.8689C12.7937 19.8689 13.5947 19.6154 14.2592 19.1099L16.8692 17.1059L13.3202 14.1658Z" fill="white"/>
<path d="M23.9206 13.5463L19.4206 4.54628C19.2346 4.17427 18.7861 4.02577 18.4141 4.21027L16.1641 5.33528C15.7936 5.52128 15.6436 5.97129 15.8281 6.34179L16.2241 7.1308H14.2515L9 12.3808L9.5865 13.0858C10.0395 13.6288 10.812 13.7878 11.4255 13.4623L13.512 12.3748L18.0946 16.1714L20.0086 14.6954L20.3311 15.3404C20.4631 15.6029 20.7286 15.7544 21.0016 15.7544C21.1141 15.7544 21.2281 15.7289 21.3376 15.6749L23.5876 14.5499C23.9566 14.3669 24.1051 13.9169 23.9206 13.5463Z" fill="white"/>
</svg>
