<svg width="24" height="24" viewBox="0 0 24 24" fill="none" xmlns="http://www.w3.org/2000/svg">
<g clip-path="url(#clip0_7735_5385)">
<path d="M14.8487 5.625C12.8162 5.65177 11.1353 7.44187 10.0586 9.14062C11.5322 11.4649 13.1801 12.6899 14.85 12.6562C16.5282 12.6343 18.2242 11.3901 19.6579 9.14062C18.2269 6.89461 16.5295 5.6497 14.8487 5.625ZM14.8596 11.25C13.6965 11.25 12.7502 10.3038 12.7502 9.14062C12.7502 7.97747 13.6965 7.03125 14.8596 7.03125C16.0228 7.03125 16.969 7.97747 16.969 9.14062C16.969 10.3038 16.0228 11.25 14.8596 11.25Z" fill="white"/>
<path d="M14.8594 9.84375C15.2477 9.84375 15.5625 9.52895 15.5625 9.14062C15.5625 8.7523 15.2477 8.4375 14.8594 8.4375C14.471 8.4375 14.1562 8.7523 14.1562 9.14062C14.1562 9.52895 14.471 9.84375 14.8594 9.84375Z" fill="white"/>
<path d="M14.8594 0C9.81938 0 5.71875 4.10063 5.71875 9.14062C5.71875 11.4082 6.55378 13.481 7.92595 15.0803L6.62803 16.378L6.13073 15.8807L0 22.0115L1.98853 24L8.11927 17.8693L7.6223 17.3723L8.92022 16.0746C10.5195 17.4465 12.5922 18.2812 14.8594 18.2812C19.8994 18.2812 24 14.1806 24 9.14062C24 4.10063 19.8994 0 14.8594 0ZM14.869 14.0625C14.8484 14.0625 14.8264 14.0632 14.8058 14.0632C10.8797 14.0632 8.55295 9.28252 8.41448 9.14062C8.56116 8.9917 10.8242 4.23075 14.8703 4.21875C18.5645 4.27341 20.5974 8.31159 21.3029 9.14062C21.1812 9.28355 18.8316 14.011 14.869 14.0625Z" fill="white"/>
</g>
<defs>
<clipPath id="clip0_7735_5385">
<rect width="24" height="24" fill="white"/>
</clipPath>
</defs>
</svg>
