<svg width="28" height="28" viewBox="0 0 28 28" fill="none" xmlns="http://www.w3.org/2000/svg">
<g clip-path="url(#clip0_7518_2000)">
<path d="M20.5625 22.9688H7.4375C6.98409 22.9688 6.61719 23.3356 6.61719 23.7891V27.1797C6.61719 27.6331 6.98409 28 7.4375 28H20.5625C21.0159 28 21.3828 27.6331 21.3828 27.1797V23.7891C21.3828 23.3356 21.0159 22.9688 20.5625 22.9688Z" fill="white"/>
<path d="M10.7194 11.4844H10.7188C10.2653 11.4844 9.89844 11.8513 9.89844 12.3047C9.89844 12.7581 10.2653 13.125 10.7188 13.125H17.2812C17.7347 13.125 18.1016 12.7581 18.1016 12.3047C18.1016 11.8513 17.7347 11.4844 17.2812 11.4844H17.2805L19.2439 8.86643C19.5652 8.44823 19.7422 7.92116 19.7422 7.38281C19.7422 6.0258 18.6383 4.92188 17.2812 4.92188H14.8203V3.28125H15.6406C16.094 3.28125 16.4609 2.91435 16.4609 2.46094C16.4609 2.00752 16.094 1.64062 15.6406 1.64062H14.8203V0.820312C14.8203 0.366898 14.4534 0 14 0C13.5466 0 13.1797 0.366898 13.1797 0.820312V1.64062H12.3594C11.906 1.64062 11.5391 2.00752 11.5391 2.46094C11.5391 2.91435 11.906 3.28125 12.3594 3.28125H13.1797V4.92188H10.7188C9.36173 4.92188 8.25781 6.0258 8.25781 7.38281C8.25781 7.92116 8.43484 8.44823 8.75049 8.85921L10.7194 11.4844Z" fill="white"/>
<path d="M16.8625 14.7656H11.1434C10.8647 15.5207 10.4698 16.1258 10.0392 16.7716C9.29454 17.8882 8.46673 19.1446 8.29688 21.3281H19.709C19.5391 19.1446 18.7113 17.8882 17.9667 16.7716C17.536 16.1258 17.1412 15.5207 16.8625 14.7656Z" fill="white"/>
</g>
<defs>
<clipPath id="clip0_7518_2000">
<rect width="28" height="28" fill="white"/>
</clipPath>
</defs>
</svg>
