<svg width="26" height="26" viewBox="0 0 26 26" fill="none" xmlns="http://www.w3.org/2000/svg">
<g clip-path="url(#clip0_7047_999)">
<path d="M20.2257 9.76666L19.4149 8.36225C19.2401 8.05954 18.8818 7.91461 18.5457 8.01074L17.7759 8.23098C16.9499 7.40447 15.9104 6.79164 14.7474 6.48136L14.5535 5.70588C14.4688 5.36682 14.1641 5.12891 13.8146 5.12891H12.193C11.8434 5.12891 11.5387 5.36682 11.454 5.70588L11.2601 6.48136C10.0971 6.79169 9.05762 7.40447 8.23162 8.23098L7.46177 8.01074C7.1257 7.91461 6.76739 8.05954 6.5926 8.36225L5.78178 9.76666C5.60699 10.0694 5.66066 10.4522 5.91198 10.6951L6.48662 11.2507C6.33722 11.8087 6.25714 12.395 6.25714 13.0001C6.25714 13.6051 6.33727 14.1914 6.48662 14.7493L5.91198 15.3049C5.66071 15.5479 5.60704 15.9307 5.78178 16.2334L6.5926 17.6378C6.76739 17.9405 7.1257 18.0854 7.46177 17.9893L8.23157 17.7691C9.05752 18.5956 10.0971 19.2085 11.2601 19.5188L11.454 20.2943C11.5387 20.6332 11.8434 20.8711 12.193 20.8711H13.8146C14.1641 20.8711 14.4688 20.6332 14.5536 20.2941L14.7475 19.5186C15.9105 19.2083 16.95 18.5955 17.776 17.769L18.5458 17.9892C18.8819 18.0853 19.2402 17.9404 19.415 17.6376L20.2258 16.2332C20.4006 15.9305 20.3469 15.5477 20.0956 15.3048L19.5209 14.7492C19.6703 14.1912 19.7504 13.605 19.7504 12.9999C19.7504 12.3948 19.6703 11.8086 19.5209 11.2506L20.0956 10.6949C20.3469 10.4521 20.4005 10.0693 20.2257 9.76666ZM13.0038 16.8086C12.5831 16.8086 12.2421 16.4675 12.2421 16.0469C12.2421 15.6262 12.5831 15.2852 13.0038 15.2852C13.4245 15.2852 13.7655 15.6262 13.7655 16.0469C13.7655 16.4675 13.4245 16.8086 13.0038 16.8086ZM13.7655 13C13.7655 13.4207 13.4245 13.7617 13.0038 13.7617C12.5831 13.7617 12.2421 13.4207 12.2421 13V9.95312C12.2421 9.53245 12.5831 9.19141 13.0038 9.19141C13.4245 9.19141 13.7655 9.53245 13.7655 9.95312V13Z" fill="url(#paint0_linear_7047_999)"/>
<path d="M18.0983 23.2845C16.5066 24.0752 14.7913 24.4762 13 24.4762C6.67179 24.4762 1.52344 19.3278 1.52344 12.9996C1.52344 10.5237 2.30303 8.16811 3.74486 6.21156L3.80743 6.92661C3.84409 7.34571 4.21352 7.65567 4.63262 7.61901C5.05172 7.58235 5.36174 7.21291 5.32507 6.79382L5.10509 4.27938C5.06843 3.86028 4.69899 3.55026 4.27989 3.58693L1.76546 3.80691C1.34636 3.84358 1.03639 4.21301 1.07306 4.63211C1.10972 5.05121 1.47916 5.36123 1.89825 5.32456L2.54775 5.26774C0.894359 7.49246 0 10.177 0 12.9996C0 16.472 1.35225 19.7366 3.80758 22.192C6.263 24.6473 9.52758 25.9996 13 25.9996C15.0286 25.9996 16.972 25.5451 18.7761 24.6489C19.1529 24.4617 19.3066 24.0045 19.1194 23.6278C18.9323 23.2511 18.4753 23.0973 18.0983 23.2845Z" fill="url(#paint1_linear_7047_999)"/>
<path d="M24.9308 21.3674C24.8941 20.9483 24.5247 20.6384 24.1056 20.675L23.457 20.7318C25.11 18.507 26.0038 15.8224 26.0038 13C26.0038 9.52758 24.6516 6.263 22.1962 3.80758C19.7408 1.35225 16.4762 0 13.0038 0C10.9753 0 9.03187 0.454441 7.22771 1.35073C6.85091 1.53791 6.69725 1.99504 6.88438 2.37179C7.07151 2.74854 7.52854 2.9023 7.90544 2.71507C9.49717 1.92441 11.2125 1.52344 13.0038 1.52344C19.332 1.52344 24.4804 6.67179 24.4804 13C24.4804 15.4762 23.7011 17.8324 22.2591 19.7893L22.1964 19.073C22.1597 18.6539 21.7903 18.3439 21.3712 18.3806C20.9521 18.4172 20.6421 18.7867 20.6787 19.2058L20.8987 21.7202C20.9354 22.1393 21.3048 22.4493 21.7239 22.4127L24.2384 22.1927C24.6575 22.156 24.9675 21.7865 24.9308 21.3674Z" fill="url(#paint2_linear_7047_999)"/>
</g>
<defs>
<linearGradient id="paint0_linear_7047_999" x1="5.67969" y1="18.9381" x2="22.0606" y2="15.6224" gradientUnits="userSpaceOnUse">
<stop stop-color="#38DBFF"/>
<stop offset="0.984375" stop-color="#8A21DD"/>
</linearGradient>
<linearGradient id="paint1_linear_7047_999" x1="6.23373e-07" y1="23.2471" x2="21.6" y2="19.2227" gradientUnits="userSpaceOnUse">
<stop stop-color="#38DBFF"/>
<stop offset="0.984375" stop-color="#8A21DD"/>
</linearGradient>
<linearGradient id="paint2_linear_7047_999" x1="6.80469" y1="19.6631" x2="28.4047" y2="15.6387" gradientUnits="userSpaceOnUse">
<stop stop-color="#38DBFF"/>
<stop offset="0.984375" stop-color="#8A21DD"/>
</linearGradient>
<clipPath id="clip0_7047_999">
<rect width="26" height="26" fill="white"/>
</clipPath>
</defs>
</svg>
