<svg width="24" height="24" viewBox="0 0 24 24" fill="none" xmlns="http://www.w3.org/2000/svg">
<g clip-path="url(#clip0_7644_3776)">
<path d="M1.40726 11.8586C1.44504 9.02918 2.58232 6.3838 4.60975 4.40976C6.63713 2.43577 9.31162 1.36899 12.1414 1.40714C14.8023 1.44268 17.3377 2.47847 19.2577 4.28362L17.9006 4.26552L17.8818 5.67163L21.5846 5.72103L21.6341 2.01825L20.2279 1.9995L20.2112 3.25017C18.0376 1.21121 15.1698 0.0412595 12.1601 0.00108777C8.95378 -0.0414746 5.92524 1.16626 3.62871 3.40223C1.33221 5.6383 0.0439068 8.63482 0.00111013 11.8398C-0.0237335 13.7042 0.368515 15.4968 1.16693 17.1676L2.43574 16.5612C1.73131 15.0872 1.38528 13.505 1.40726 11.8586Z" fill="white"/>
<path d="M22.594 12.141C22.5562 14.9704 21.4189 17.6158 19.3915 19.5898C17.3641 21.5638 14.6896 22.6306 11.8599 22.5924C9.199 22.5569 6.66355 21.5211 4.74355 19.716L6.10067 19.734L6.11942 18.3279L2.41664 18.2785L2.36719 21.9813L3.77334 22.0001L3.79003 20.7494C5.96356 22.7884 8.83141 23.9584 11.8411 23.9985C15.0474 24.0411 18.076 22.8334 20.3725 20.5973C22.669 18.3613 23.9574 15.3648 24.0002 12.1598C24.025 10.2954 23.6327 8.50284 22.8343 6.83203L21.5655 7.4384C22.27 8.91243 22.616 10.4946 22.594 12.141Z" fill="white"/>
<path d="M5.49219 7.45975V16.6019L6.38117 16.3582C8.00038 15.9145 9.72988 15.9901 11.3007 16.5656V7.39572C9.58934 6.85366 7.45123 6.69115 5.49219 7.45975Z" fill="white"/>
<path d="M18.5116 7.45975V16.6019L17.6226 16.3582C16.0034 15.9145 14.2739 15.9901 12.7031 16.5656V7.39572C14.4144 6.85366 16.5526 6.69115 18.5116 7.45975Z" fill="white"/>
</g>
<defs>
<clipPath id="clip0_7644_3776">
<rect width="24" height="24" fill="white"/>
</clipPath>
</defs>
</svg>
