<svg width="24" height="24" viewBox="0 0 24 24" fill="none" xmlns="http://www.w3.org/2000/svg">
<g clip-path="url(#clip0_7518_2022)">
<path d="M16.2188 2.8125C13.5048 2.8125 11.2969 5.02041 11.2969 7.73428C11.2969 10.4482 13.5048 12.6561 16.2188 12.6561C18.9327 12.6561 21.1406 10.4482 21.1406 7.73428C21.1406 5.02041 18.9327 2.8125 16.2188 2.8125ZM17.1328 9.13814C17.1328 9.52645 16.818 9.84127 16.4297 9.84127C16.0414 9.84127 15.7266 9.52645 15.7266 9.13814V7.26802C15.7219 7.26647 15.2233 7.27833 15.0595 6.78708C14.9367 6.41869 15.1358 6.02048 15.5042 5.89767L16.2074 5.6633C16.6626 5.5117 17.1329 5.85103 17.1329 6.33033V9.13814H17.1328Z" fill="#FF0088"/>
<path d="M16.2188 2.15855C16.6071 2.15855 16.9219 1.84373 16.9219 1.45542V0.703125C16.9219 0.314812 16.6071 0 16.2188 0C15.8304 0 15.5156 0.314812 15.5156 0.703125V1.45542C15.5156 1.84373 15.8304 2.15855 16.2188 2.15855Z" fill="#FF0088"/>
<path d="M11.2145 3.81623C11.489 4.09077 11.9343 4.09082 12.2089 3.81623C12.4834 3.54163 12.4834 3.09646 12.2089 2.82191L11.6769 2.28993C11.4023 2.01534 10.9571 2.01534 10.6825 2.28993C10.4079 2.56452 10.4079 3.0097 10.6825 3.28424L11.2145 3.81623Z" fill="#FF0088"/>
<path d="M21.2159 11.8397C20.9414 11.5651 20.4962 11.5651 20.2216 11.8397C19.947 12.1143 19.947 12.5595 20.2216 12.834L20.7536 13.366C21.0281 13.6406 21.4733 13.6406 21.7479 13.366C22.0225 13.0914 22.0225 12.6463 21.7479 12.3717L21.2159 11.8397Z" fill="#FF0088"/>
<path d="M23.2992 7.12988H22.5469C22.1586 7.12988 21.8438 7.4447 21.8438 7.83301C21.8438 8.22132 22.1586 8.53613 22.5469 8.53613H23.2992C23.6875 8.53613 24.0023 8.22132 24.0023 7.83301C24.0023 7.4447 23.6875 7.12988 23.2992 7.12988Z" fill="#FF0088"/>
<path d="M21.2237 3.82209L21.7557 3.2901C22.0303 3.01551 22.0303 2.57034 21.7557 2.29579C21.4812 2.0212 21.036 2.0212 20.7614 2.29579L20.2294 2.82777C19.9548 3.10237 19.9548 3.54754 20.2294 3.82209C20.5039 4.09663 20.9492 4.09668 21.2237 3.82209Z" fill="#FF0088"/>
<path d="M12.3043 12.703H3.32578C2.93747 12.703 2.62266 12.3882 2.62266 11.9999C2.62266 11.6116 2.93747 11.2968 3.32578 11.2968H10.9914C10.1565 10.0755 9.77752 8.60967 9.92006 7.125H3.51563C1.57711 7.125 0 8.70206 0 10.6405V16.3591C0 18.0726 1.2322 19.5037 2.85703 19.8128V23.2965C2.85703 23.9203 3.60909 24.232 4.05173 23.7992L8.06555 19.8747H13.4039C15.3424 19.8747 16.9195 18.2976 16.9195 16.3591V14.0233C15.2551 14.2076 13.6094 13.7333 12.3043 12.703ZM12.7008 15.5154H3.32578C2.93747 15.5154 2.62266 15.2006 2.62266 14.8123C2.62266 14.424 2.93747 14.1092 3.32578 14.1092H12.7008C13.0891 14.1092 13.4039 14.424 13.4039 14.8123C13.4039 15.2007 13.0891 15.5154 12.7008 15.5154Z" fill="#FF0088"/>
</g>
<defs>
<clipPath id="clip0_7518_2022">
<rect width="24" height="24" fill="white"/>
</clipPath>
</defs>
</svg>
