<svg width="26" height="26" viewBox="0 0 26 26" fill="none" xmlns="http://www.w3.org/2000/svg">
<g clip-path="url(#clip0_7047_967)">
<path d="M10.5761 15.7827H9.2455C8.97337 15.7827 8.72185 15.6375 8.5858 15.4018L7.92088 14.25L7.25595 15.4019C7.1199 15.6376 6.86843 15.7828 6.59625 15.7828H5.26562L5.93081 16.9349C6.0669 17.1706 6.0669 17.4609 5.93081 17.6966L5.26562 18.8487H6.59625C6.86838 18.8487 7.1199 18.9939 7.25595 19.2297L7.92088 20.3814L8.5858 19.2296C8.72185 18.9938 8.97332 18.8486 9.2455 18.8486H10.5761L9.91094 17.6966C9.77485 17.4609 9.77485 17.1705 9.91094 16.9349L10.5761 15.7827Z" fill="url(#paint0_linear_7047_967)"/>
<path d="M23.207 6.14453H21.3695C21.3751 6.22857 21.3789 6.31302 21.3789 6.39844V7.41406C21.3789 8.6741 20.3538 9.69922 19.0938 9.69922H6.90625C5.64621 9.69922 4.62109 8.6741 4.62109 7.41406V6.39844C4.62109 6.31302 4.62495 6.22857 4.63049 6.14453H2.79297C1.25293 6.14453 0 7.39746 0 8.9375V22.1406C0 23.6807 1.25293 24.9336 2.79297 24.9336H23.207C24.7471 24.9336 26 23.6807 26 22.1406V8.9375C26 7.39746 24.7471 6.14453 23.207 6.14453ZM12.5561 19.2302C12.6922 19.4659 12.6922 19.7562 12.5561 19.9919C12.4201 20.2276 12.1686 20.3728 11.8965 20.3728H9.68632L8.58157 22.2866C8.44553 22.5223 8.19406 22.6675 7.92188 22.6675C7.64969 22.6675 7.39822 22.5223 7.26218 22.2866L6.15743 20.3728H3.94728C3.67514 20.3728 3.42367 20.2276 3.28763 19.9919C3.15154 19.7562 3.15154 19.4659 3.28763 19.2302L4.39258 17.3164L3.28763 15.4026C3.15154 15.1669 3.15154 14.8766 3.28763 14.6408C3.42367 14.4052 3.67514 14.26 3.94728 14.26H6.15743L7.26218 12.3462C7.39822 12.1105 7.64969 11.9653 7.92188 11.9653C8.19406 11.9653 8.44553 12.1105 8.58157 12.3462L9.68632 14.26H11.8965C12.1686 14.26 12.4201 14.4052 12.5561 14.6408C12.6922 14.8766 12.6922 15.1669 12.5561 15.4026L11.4512 17.3164L12.5561 19.2302ZM22.1406 21.125H15.0312C14.6106 21.125 14.2695 20.784 14.2695 20.3633C14.2695 19.9426 14.6106 19.6016 15.0312 19.6016H22.1406C22.5613 19.6016 22.9023 19.9426 22.9023 20.3633C22.9023 20.784 22.5613 21.125 22.1406 21.125ZM22.1406 18.0781H15.0312C14.6106 18.0781 14.2695 17.7371 14.2695 17.3164C14.2695 16.8957 14.6106 16.5547 15.0312 16.5547H22.1406C22.5613 16.5547 22.9023 16.8957 22.9023 17.3164C22.9023 17.7371 22.5613 18.0781 22.1406 18.0781ZM22.1406 15.0312H15.0312C14.6106 15.0312 14.2695 14.6902 14.2695 14.2695C14.2695 13.8489 14.6106 13.5078 15.0312 13.5078H22.1406C22.5613 13.5078 22.9023 13.8489 22.9023 14.2695C22.9023 14.6902 22.5613 15.0312 22.1406 15.0312Z" fill="url(#paint1_linear_7047_967)"/>
<path d="M17.5664 4.11327H16.2839C16.1359 2.43576 14.7431 1.09508 13.0522 1.06685C12.1595 1.05248 11.3178 1.38819 10.6817 2.01367C10.1064 2.57947 9.76483 3.31737 9.70481 4.11327H8.42578C7.16371 4.11327 6.14062 5.13636 6.14062 6.39842V7.41405C6.14062 7.83472 6.48167 8.17577 6.90234 8.17577H19.0898C19.5105 8.17577 19.8516 7.83472 19.8516 7.41405V6.39842C19.8516 5.13636 18.8285 4.11327 17.5664 4.11327ZM12.9961 5.12889C12.5754 5.12889 12.2344 4.78785 12.2344 4.36717C12.2344 3.9465 12.5754 3.60545 12.9961 3.60545C13.4168 3.60545 13.7578 3.9465 13.7578 4.36717C13.7578 4.78785 13.4168 5.12889 12.9961 5.12889Z" fill="url(#paint2_linear_7047_967)"/>
</g>
<defs>
<linearGradient id="paint0_linear_7047_967" x1="5.26563" y1="19.6285" x2="11.2357" y2="18.5038" gradientUnits="userSpaceOnUse">
<stop stop-color="#38DBFF"/>
<stop offset="0.984375" stop-color="#8A21DD"/>
</linearGradient>
<linearGradient id="paint1_linear_7047_967" x1="8.44189e-07" y1="22.6264" x2="27.7522" y2="14.2727" gradientUnits="userSpaceOnUse">
<stop stop-color="#38DBFF"/>
<stop offset="0.984375" stop-color="#8A21DD"/>
</linearGradient>
<linearGradient id="paint2_linear_7047_967" x1="6.14063" y1="7.30279" x2="19.7129" y2="1.60895" gradientUnits="userSpaceOnUse">
<stop stop-color="#38DBFF"/>
<stop offset="0.984375" stop-color="#8A21DD"/>
</linearGradient>
<clipPath id="clip0_7047_967">
<rect width="26" height="26" fill="white"/>
</clipPath>
</defs>
</svg>
