<svg width="20" height="20" viewBox="0 0 20 20" fill="none" xmlns="http://www.w3.org/2000/svg">
<g clip-path="url(#clip0_7761_3512)">
<path d="M2.96875 10.1953H4.92188V8.82812C4.92188 8.50453 5.18422 8.24219 5.50781 8.24219C5.83141 8.24219 6.09375 8.50453 6.09375 8.82812V12.1484H6.67969C7.00328 12.1484 7.26562 12.4108 7.26562 12.7344C7.26562 13.058 7.00328 13.3203 6.67969 13.3203H5.50781C5.18422 13.3203 4.92188 13.058 4.92188 12.7344V11.3672H2.96875V15.6641H8.04688V14.6875C8.04688 14.3639 8.30922 14.1016 8.63281 14.1016C8.95641 14.1016 9.21875 14.3639 9.21875 14.6875V15.6641H11.1719V11.3672H7.85156C7.52797 11.3672 7.26562 11.1048 7.26562 10.7812C7.26562 10.4577 7.52797 10.1953 7.85156 10.1953H8.82812V9.02344H8.24219C7.91859 9.02344 7.65625 8.76109 7.65625 8.4375C7.65625 8.11391 7.91859 7.85156 8.24219 7.85156H9.41406C9.73766 7.85156 10 8.11391 10 8.4375V10.1953H11.1719V6.67969H2.96875V10.1953Z" fill="white"/>
<path d="M17.6562 0.820312C16.3618 0.820312 15.3125 1.86965 15.3125 3.16406V14.218C15.935 13.6602 16.7566 13.3203 17.6562 13.3203C18.5559 13.3203 19.3775 13.6602 20 14.218V3.16406C20 1.86965 18.9507 0.820312 17.6562 0.820312Z" fill="white"/>
<path d="M17.767 14.4947C16.6032 14.4412 15.6155 15.2368 15.3707 16.3146C15.3019 16.6173 15.0387 16.8359 14.7282 16.8359H14.7266C14.403 16.8359 14.1406 16.5736 14.1406 16.25V3.16406H0.585938C0.262344 3.16406 0 3.42641 0 3.75V18.5938C0 18.9173 0.262344 19.1797 0.585938 19.1797H17.6562C18.9874 19.1797 20.0593 18.07 19.9975 16.7252C19.9422 15.5245 18.9677 14.55 17.767 14.4947ZM12.3438 16.25C12.3438 16.5736 12.0814 16.8359 11.7578 16.8359H2.38281C2.05922 16.8359 1.79688 16.5736 1.79688 16.25V6.09375C1.79688 5.77016 2.05922 5.50781 2.38281 5.50781H11.7578C12.0814 5.50781 12.3438 5.77016 12.3438 6.09375V16.25Z" fill="white"/>
</g>
<defs>
<clipPath id="clip0_7761_3512">
<rect width="20" height="20" fill="white"/>
</clipPath>
</defs>
</svg>
