<svg width="32" height="32" viewBox="0 0 32 32" fill="none" xmlns="http://www.w3.org/2000/svg">
<g clip-path="url(#clip0_7516_2398)">
<path d="M15.0647 17.0814C13.9735 16.6944 13.1897 15.6524 13.1897 14.4302C13.1897 12.8794 14.4514 11.6177 16.0022 11.6177C17.553 11.6177 18.8147 12.8794 18.8147 14.4302C18.8147 15.6524 18.0309 16.6944 16.9397 17.0814V18.6264H22.8244L21.6733 9.96181C21.5293 8.879 20.5971 8.0625 19.5047 8.0625H12.4984C11.406 8.0625 10.4737 8.87912 10.33 9.96212L9.17969 18.6264H15.0647V17.0814Z" fill="#178EE8"/>
<path d="M16 15.3672C16.5178 15.3672 16.9375 14.9475 16.9375 14.4297C16.9375 13.9119 16.5178 13.4922 16 13.4922C15.4822 13.4922 15.0625 13.9119 15.0625 14.4297C15.0625 14.9475 15.4822 15.3672 16 15.3672Z" fill="#178EE8"/>
<path d="M16 4.62494C16.5178 4.62494 16.9375 4.20519 16.9375 3.68744V0.9375C16.9375 0.41975 16.5178 0 16 0C15.4822 0 15.0625 0.41975 15.0625 0.9375V3.68744C15.0625 4.20519 15.4822 4.62494 16 4.62494Z" fill="#178EE8"/>
<path d="M1.64062 16.2188H4.39062C4.90837 16.2188 5.32812 15.799 5.32812 15.2812C5.32812 14.7635 4.90837 14.3438 4.39062 14.3438H1.64062C1.12287 14.3438 0.703125 14.7635 0.703125 15.2812C0.703125 15.799 1.12287 16.2188 1.64062 16.2188Z" fill="#178EE8"/>
<path d="M26.6719 15.2812C26.6719 15.799 27.0916 16.2188 27.6094 16.2188H30.3593C30.8771 16.2188 31.2968 15.799 31.2968 15.2812C31.2968 14.7635 30.8771 14.3438 30.3593 14.3438H27.6094C27.0916 14.3438 26.6719 14.7635 26.6719 15.2812Z" fill="#178EE8"/>
<path d="M7.12541 7.73425C7.30847 7.91731 7.54841 8.00888 7.78828 8.00888C8.02816 8.00888 8.26816 7.91731 8.45116 7.73425C8.81728 7.36813 8.81722 6.77456 8.45116 6.40844L6.50666 4.464C6.14059 4.09794 5.54697 4.09794 5.18084 4.464C4.81472 4.83012 4.81472 5.42369 5.18084 5.78981L7.12541 7.73425Z" fill="#178EE8"/>
<path d="M24.211 8.00892C24.4508 8.00892 24.6908 7.91736 24.8738 7.7343L26.8183 5.78986C27.1844 5.4238 27.1845 4.83023 26.8183 4.46405C26.4523 4.09792 25.8587 4.09792 25.4925 4.46405L23.548 6.40848C23.1819 6.77455 23.1819 7.36811 23.548 7.7343C23.7311 7.91742 23.971 8.00892 24.211 8.00892Z" fill="#178EE8"/>
<path d="M7.8125 21.4395V22.876C7.99512 23.0283 8.16987 23.1913 8.33512 23.365H23.6648C23.8301 23.1913 24.0048 23.0283 24.1874 22.876V21.4395C24.1874 20.9217 23.7677 20.502 23.2499 20.502H8.75C8.23225 20.502 7.8125 20.9217 7.8125 21.4395Z" fill="#178EE8"/>
<path d="M31.5171 29.1033H29.5237L28.5595 27.6546L29.5237 26.2059H31.5171C31.6897 26.2059 31.8492 26.1138 31.9354 25.9643C32.0216 25.8148 32.0215 25.6306 31.9351 25.4812C31.1598 24.1411 29.7175 23.3086 28.1709 23.3086C26.7192 23.3086 25.3594 24.042 24.5569 25.2402H7.44305C6.64055 24.042 5.28074 23.3086 3.82912 23.3086C2.28249 23.3086 0.840117 24.1412 0.0648673 25.4812C-0.0215077 25.6306 -0.0216327 25.8148 0.0645548 25.9643C0.150805 26.1138 0.310305 26.2059 0.482867 26.2059H2.4763L3.44049 27.6546L2.4763 29.1033H0.482867C0.310242 29.1033 0.150805 29.1954 0.0645548 29.3449C-0.0216327 29.4944 -0.0215077 29.6786 0.0648673 29.828C0.84018 31.1681 2.28249 32.0007 3.82912 32.0007C5.28074 32.0007 6.64055 31.2673 7.44305 30.0691H24.5569C25.3594 31.2673 26.7192 32.0007 28.1709 32.0007C29.7175 32.0007 31.1599 31.1681 31.9351 29.828C32.0215 29.6786 32.0216 29.4944 31.9354 29.3449C31.8492 29.1954 31.6897 29.1033 31.5171 29.1033Z" fill="#178EE8"/>
</g>
<defs>
<clipPath id="clip0_7516_2398">
<rect width="32" height="32" fill="white"/>
</clipPath>
</defs>
</svg>
