<svg width="26" height="26" viewBox="0 0 26 26" fill="none" xmlns="http://www.w3.org/2000/svg">
<g clip-path="url(#clip0_7514_2096)">
<path d="M23.8332 0H2.16677C0.975317 0 0 0.975317 0 2.16646V23.8332C0 25.0244 0.975317 26 2.16677 26H23.8332C25.0247 26 26 25.0244 26 23.8332V2.16646C26 0.975317 25.0247 0 23.8332 0ZM21.1653 12.4963L19.6332 10.9642C20.2205 10.3759 20.5832 9.56344 20.5845 8.66646C20.5845 6.8721 19.1289 5.41646 17.3345 5.41646C16.4372 5.41646 15.6237 5.78043 15.0354 6.36873L6.36898 15.0355C5.78043 15.6237 5.41671 16.4362 5.41671 17.3355C5.41671 19.1276 6.8714 20.5832 8.66671 20.5832C9.5637 20.5832 10.3762 20.2193 10.9644 19.631L10.9654 19.6332L15.8024 14.7963C16.2245 14.3728 16.2255 13.6874 15.8024 13.2642C15.3792 12.8411 14.6925 12.8411 14.2693 13.2642L9.43236 18.1012L7.90029 16.5691L12.7373 11.7324C14.0067 10.463 16.0656 10.463 17.3344 11.7324C18.6038 13.0019 18.6038 15.0585 17.3344 16.3283L12.4974 21.1649L12.4961 21.163C11.5168 22.1448 10.1625 22.7499 8.66658 22.7499C5.6748 22.75 3.25 20.3252 3.25 17.3355C3.25 15.8392 3.85709 14.4833 4.83698 13.5034L13.5037 4.83698C14.4843 3.85709 15.8382 3.25 17.3332 3.25C20.3252 3.25 22.751 5.6748 22.751 8.66646C22.75 10.1627 22.1439 11.5167 21.1653 12.4963Z" fill="#178EE8"/>
</g>
<defs>
<clipPath id="clip0_7514_2096">
<rect width="26" height="26" fill="white"/>
</clipPath>
</defs>
</svg>
