<svg width="16" height="16" viewBox="0 0 16 16" fill="none" xmlns="http://www.w3.org/2000/svg">
<g clip-path="url(#clip0_7514_2247)">
<path d="M15.5869 12.9482L13.1512 10.4193L14.665 9.41007C14.9988 9.18725 14.9152 8.67332 14.5281 8.56753L7.418 6.62835C6.99197 6.51154 6.59066 6.90238 6.70828 7.33807L8.64744 14.4482C8.75297 14.8345 9.26644 14.9213 9.48994 14.5851L10.4991 13.0713L11.6917 14.4082L12.8848 15.6012C13.415 16.1315 14.3922 16.1319 14.9234 15.6008L15.5869 14.9373C16.1355 14.3887 16.135 13.4972 15.5869 12.9482Z" fill="#178EE8"/>
<path d="M6.99322 3.24609C4.92494 3.24609 3.24219 4.92259 3.24219 6.99087C3.24219 8.91619 4.70578 10.4889 6.57575 10.6997L6.15997 9.17513C5.27887 8.83766 4.64881 7.98912 4.64881 6.99087C4.64884 5.69822 5.70063 4.64644 6.99325 4.64644C7.9915 4.64644 8.84003 5.2765 9.1775 6.15759L10.7021 6.57338C10.4912 4.70344 8.91853 3.24609 6.99322 3.24609Z" fill="#178EE8"/>
<path d="M12.0032 2.05731C10.6767 0.730781 8.91056 0 7.02997 0C3.13963 0 0 3.13797 0 7.03044C0 10.9639 3.18509 14.0604 7.03409 14.0604C7.18306 14.0604 7.33231 14.0448 7.48147 14.033L6.83522 11.6633C4.32281 11.5797 2.30087 9.52253 2.30087 6.99016C2.30087 4.40491 4.40444 2.30134 6.98969 2.30134C9.52203 2.30134 11.5793 4.32328 11.6628 6.83566L14.0197 7.48016C14.1483 5.484 13.4419 3.49612 12.0032 2.05731Z" fill="#178EE8"/>
</g>
<defs>
<clipPath id="clip0_7514_2247">
<rect width="16" height="16" fill="white"/>
</clipPath>
</defs>
</svg>
