<svg width="24" height="24" viewBox="0 0 24 24" fill="none" xmlns="http://www.w3.org/2000/svg">
<g clip-path="url(#clip0_7047_938)">
<path fill-rule="evenodd" clip-rule="evenodd" d="M13.5915 3.17646H14.6493C15.2334 3.17646 15.707 3.6505 15.707 4.23772L15.7074 22.9387C15.7074 23.5248 15.2342 24 14.6462 24H1.24087C0.654786 24 0.179688 23.5259 0.179688 22.9387V4.23777C0.179688 3.65164 0.654907 3.1765 1.23852 3.1765H2.29735V4.58825C2.29735 5.56286 3.08745 6.35296 4.06206 6.35296H11.8268C12.8014 6.35296 13.5915 5.56286 13.5915 4.58825V3.17646ZM12.8821 10.2386C12.8821 10.0419 12.7238 9.88237 12.5268 9.88237H7.94683C7.75056 9.88237 7.59148 10.0389 7.59148 10.2386V10.9379C7.59148 11.1346 7.74983 11.2941 7.94683 11.2941H12.5268C12.723 11.2941 12.8821 11.1376 12.8821 10.9379V10.2386ZM12.8839 14.8269C12.8839 14.6301 12.7255 14.4706 12.5285 14.4706H7.94857C7.7523 14.4706 7.59322 14.6271 7.59322 14.8269V15.5261C7.59322 15.7229 7.75157 15.8824 7.94857 15.8824H12.5285C12.7248 15.8824 12.8839 15.7259 12.8839 15.5261V14.8269ZM4.10245 9.98327C3.96596 9.84677 3.74471 9.84681 3.60343 9.98805L3.10899 10.4825C2.96986 10.6217 2.97038 10.8477 3.10801 10.9854L3.91592 11.7933C4.19158 12.0689 4.63854 12.0689 4.91417 11.7933L6.42977 10.2777C6.56736 10.1401 6.56821 9.91794 6.42697 9.77666L5.93249 9.28218C5.79336 9.14304 5.56826 9.1426 5.43054 9.28031L4.41502 10.2958L4.10245 9.98327ZM4.10245 14.5715C3.96596 14.435 3.74471 14.4351 3.60343 14.5763L3.10899 15.0708C2.96986 15.2099 2.97038 15.436 3.10801 15.5736L3.91592 16.3815C4.19158 16.6572 4.63854 16.6572 4.91417 16.3815L6.42977 14.8659C6.56736 14.7284 6.56821 14.5062 6.42697 14.3649L5.93253 13.8704C5.7934 13.7313 5.5683 13.7308 5.43058 13.8686L4.41506 14.8841L4.10245 14.5715ZM4.10245 19.1598C3.96596 19.0233 3.74471 19.0233 3.60343 19.1646L3.10899 19.659C2.96986 19.7982 2.97038 20.0242 3.10801 20.1619L3.91592 20.9698C4.19158 21.2454 4.63854 21.2454 4.91417 20.9698L6.42977 19.4542C6.56736 19.3166 6.56821 19.0944 6.42697 18.9532L5.93253 18.4587C5.7934 18.3195 5.5683 18.3191 5.43058 18.4568L4.41506 19.4723L4.10245 19.1598ZM12.8839 19.4151C12.8839 19.2183 12.7255 19.0588 12.5285 19.0588H7.94857C7.7523 19.0588 7.59322 19.2153 7.59322 19.4151V20.1143C7.59322 20.3111 7.75157 20.4706 7.94857 20.4706H12.5285C12.7248 20.4706 12.8839 20.3141 12.8839 20.1143V19.4151ZM11.8268 1.41175C12.2166 1.41175 12.5326 1.72781 12.5326 2.11763V4.58821C12.5326 4.97807 12.2166 5.29408 11.8268 5.29408H4.06206C3.6722 5.29408 3.35619 4.97803 3.35619 4.58821V2.11767C3.35619 1.72781 3.6722 1.41179 4.06206 1.41179H5.70147C5.77215 1.27513 5.8601 1.13207 5.96793 0.988274C6.42454 0.379478 7.0886 0 7.94444 0C8.80027 0 9.46434 0.379478 9.9209 0.988233C10.0288 1.13203 10.1167 1.27509 10.1874 1.41175H11.8268ZM21.0033 19.7647V6.35296H23.8268V19.7647H21.0033ZM21.0538 21.7916C21.0204 21.7082 21.0033 21.6192 21.0033 21.5294V20.8235H23.8268V21.5294C23.8268 21.6192 23.8097 21.7082 23.7763 21.7916L22.8405 23.8412C22.8005 23.9289 22.6925 24 22.5899 24H22.2402C22.1419 24 22.0286 23.9265 21.9896 23.8412L21.0538 21.7916ZM21.0033 5.29413V3.88233C21.0033 3.49247 21.3193 3.17646 21.7091 3.17646H23.1209C23.5108 3.17646 23.8268 3.49251 23.8268 3.88233V5.29408H21.0033V5.29413Z" fill="white"/>
</g>
<defs>
<clipPath id="clip0_7047_938">
<rect width="24" height="24" fill="white"/>
</clipPath>
</defs>
</svg>
