<svg width="26" height="26" viewBox="0 0 26 26" fill="none" xmlns="http://www.w3.org/2000/svg">
<g clip-path="url(#clip0_7512_1978)">
<path d="M24.9141 5.41677H23.8305V3.25C23.8305 1.45564 22.3749 0 20.5805 0C18.7862 0 17.3305 1.45564 17.3305 3.25V5.41677H16.2473C15.6516 5.41677 15.1641 5.90561 15.1641 6.5V10.8332C15.1641 11.4299 15.6516 11.9165 16.2473 11.9165H24.9141C25.5095 11.9165 25.9973 11.4299 25.9973 10.8332V6.5C25.9973 5.90522 25.5095 5.41677 24.9141 5.41677ZM21.6641 5.41677H19.4973V3.25C19.4973 2.65135 19.9819 2.16677 20.5805 2.16677C21.1795 2.16677 21.6641 2.65135 21.6641 3.25V5.41677Z" fill="#178EE8"/>
<path d="M10.8332 20.582V20.583H4.33323C3.73458 20.583 3.25 21.0676 3.25 21.6665V22.8966C5.20425 24.8138 7.8796 25.9998 10.8332 25.9998C11.1995 25.9998 11.5599 25.9806 11.9168 25.9448V21.6665V21.6653C11.9168 21.0676 11.4322 20.582 10.8332 20.582Z" fill="#178EE8"/>
<path d="M21.6115 14.084H16.25C14.4576 14.084 13 12.6261 13 10.834V4.55171C12.2996 4.40901 11.5758 4.33398 10.8332 4.33398C4.84967 4.33367 0 9.18334 0 15.1672C0 17.062 0.48877 18.8426 1.34488 20.3913C1.84082 19.2307 2.99197 18.4172 4.33323 18.4172H10.8332V18.4159C12.6285 18.4159 14.0832 19.8716 14.0832 21.6659H14.0813L14.0832 21.6672V25.5032C18.4779 24.1225 21.6668 20.0168 21.6668 15.1672C21.6668 14.801 21.6476 14.4402 21.6115 14.084ZM7.58323 16.2504C5.78824 16.2504 4.33323 14.7948 4.33323 13.0004C4.33323 11.2051 5.78824 9.75044 7.58323 9.75044C9.37758 9.75044 10.8332 11.2051 10.8332 13.0004C10.8332 14.7948 9.37752 16.2504 7.58323 16.2504Z" fill="#178EE8"/>
</g>
<defs>
<clipPath id="clip0_7512_1978">
<rect width="26" height="26" fill="white"/>
</clipPath>
</defs>
</svg>
