<svg width="28" height="28" viewBox="0 0 28 28" fill="none" xmlns="http://www.w3.org/2000/svg">
<path fill-rule="evenodd" clip-rule="evenodd" d="M23.0588 18.941C20.3299 18.941 18.1176 16.7287 18.1176 13.9998C18.1176 11.2708 20.3299 9.05859 23.0588 9.05859C25.7878 9.05859 28 11.2708 28 13.9998C28 16.7287 25.7878 18.941 23.0588 18.941ZM24.4147 15.938L24.9971 15.3557C25.1578 15.1949 25.1578 14.9342 24.9971 14.7734L24.2234 13.9998L24.997 13.2262C25.1578 13.0654 25.1578 12.8047 24.997 12.6439L24.4147 12.0616C24.2539 11.9008 23.9932 11.9008 23.8324 12.0616L23.0588 12.8351L22.2853 12.0616C22.1245 11.9008 21.8637 11.9008 21.703 12.0616L21.1206 12.6439C20.9599 12.8047 20.9599 13.0654 21.1206 13.2262L21.8942 13.9998L21.1206 14.7733C20.9599 14.9342 20.9599 15.1949 21.1206 15.3556L21.703 15.938C21.8637 16.0988 22.1245 16.0988 22.2853 15.938L23.0588 15.1644L23.8324 15.938C23.9932 16.0988 24.2539 16.0988 24.4147 15.938ZM4.94118 18.941C2.21222 18.941 0 16.7287 0 13.9998C0 11.2708 2.21222 9.05859 4.94118 9.05859C7.67014 9.05859 9.88236 11.2708 9.88236 13.9998C9.88236 16.7287 7.67009 18.941 4.94118 18.941ZM4.52944 14.0704L3.75588 13.2969C3.5951 13.136 3.33435 13.136 3.17357 13.2969L2.59126 13.8792C2.43048 14.04 2.43048 14.3007 2.59126 14.4615L3.94713 15.8174C4.26874 16.139 4.79019 16.139 5.11175 15.8174L7.29116 13.638C7.45194 13.4771 7.45194 13.2164 7.29116 13.0556L6.70884 12.4733C6.54806 12.3125 6.28731 12.3125 6.12653 12.4733L4.52944 14.0704ZM16.9368 14.8233H11.0632C11.0991 14.5539 11.1176 14.279 11.1176 13.9998C11.1176 13.7205 11.0991 13.4457 11.0632 13.1762H16.9368C16.9009 13.4456 16.8824 13.7205 16.8824 13.9998C16.8824 14.279 16.9009 14.5539 16.9368 14.8233Z" fill="white"/>
</svg>
