<svg width="20" height="20" viewBox="0 0 20 20" fill="none" xmlns="http://www.w3.org/2000/svg">
<path d="M10.6152 10.2588V11.0146C10.6152 11.3557 10.341 11.6299 10 11.6299C9.65898 11.6299 9.38477 11.3557 9.38477 11.0146V10.2588H1V14.3896C1 16.3303 2.575 17.9053 4.51562 17.9053H15.4844C17.425 17.9053 19 16.3303 19 14.3896V10.2588H10.6152Z" fill="#787A88"/>
<path d="M19 9.02773V7.35781C19 5.99727 17.8996 4.89687 16.5391 4.89687H14.0254V4.63672C14.0254 3.18125 12.8441 2 11.3887 2H8.61133C7.15586 2 5.97461 3.18125 5.97461 4.63672V4.89687H3.46094C2.10039 4.89687 1 5.99727 1 7.35781V9.02773H19ZM7.20508 4.63672C7.20508 3.85977 7.83437 3.23047 8.61133 3.23047H11.3887C12.1656 3.23047 12.7949 3.85977 12.7949 4.63672V4.89687H7.20508V4.63672Z" fill="#787A88"/>
</svg>
