<svg width="120" height="120" viewBox="0 0 120 120" fill="none" xmlns="http://www.w3.org/2000/svg">
<g filter="url(#filter0_d_1761_36712)">
<rect x="32" y="28" width="56" height="56" rx="12" fill="url(#paint0_linear_1761_36712)" shape-rendering="crispEdges"/>
<rect x="32.5" y="28.5" width="55" height="55" rx="11.5" stroke="url(#paint1_linear_1761_36712)" shape-rendering="crispEdges"/>
<g clip-path="url(#clip0_1761_36712)">
<path d="M59.3886 66.0082C58.1164 66.0082 56.8741 65.7786 55.6963 65.3256C55.0914 65.0929 54.7543 64.4859 54.8764 63.849C54.9978 63.2171 55.5281 62.7793 56.1695 62.7793H56.1865L56.2134 62.7795C59.8633 62.7795 62.875 59.9956 63.2373 56.4399H62.318C61.7738 56.4399 61.3036 56.109 61.1197 55.5967C60.9361 55.0845 61.0888 54.5301 61.5088 54.1842L65.7129 50.7222C66.1818 50.3361 66.8626 50.3361 67.3314 50.7222L71.5356 54.184C71.9557 54.5301 72.1084 55.0845 71.9246 55.5967C71.7409 56.1088 71.2705 56.4399 70.7263 56.4399H69.6531C69.4829 58.9169 68.4368 61.222 66.6641 62.9947C64.7208 64.938 62.1371 66.0082 59.3886 66.0082Z" fill="white"/>
<path d="M53.4792 61.5444C53.1917 61.5444 52.9044 61.4479 52.6699 61.2547L48.4658 57.7929C48.0457 57.4469 47.893 56.8924 48.0767 56.3803C48.2605 55.8681 48.7307 55.5371 49.2749 55.5371H50.3483C50.5184 53.06 51.5646 50.7549 53.3371 48.9823C55.2804 47.039 57.8642 45.9688 60.6124 45.9688C61.8848 45.9688 63.1272 46.1985 64.3049 46.6514C64.9099 46.8841 65.247 47.4913 65.1248 48.1279C65.0034 48.76 64.4732 49.1976 63.8318 49.1978C63.8261 49.1978 63.8204 49.1978 63.8147 49.1976L63.7878 49.1974C60.138 49.1974 57.1263 51.9814 56.7639 55.5371H57.6833C58.2273 55.5371 58.6977 55.8681 58.8815 56.3803C59.0652 56.8924 58.9125 57.447 58.4924 57.7929L54.2883 61.2547C54.0539 61.4479 53.7665 61.5444 53.4792 61.5444Z" fill="white"/>
</g>
</g>
<defs>
<filter id="filter0_d_1761_36712" x="0" y="0" width="120" height="120" filterUnits="userSpaceOnUse" color-interpolation-filters="sRGB">
<feFlood flood-opacity="0" result="BackgroundImageFix"/>
<feColorMatrix in="SourceAlpha" type="matrix" values="0 0 0 0 0 0 0 0 0 0 0 0 0 0 0 0 0 0 127 0" result="hardAlpha"/>
<feOffset dy="4"/>
<feGaussianBlur stdDeviation="16"/>
<feComposite in2="hardAlpha" operator="out"/>
<feColorMatrix type="matrix" values="0 0 0 0 0.0901961 0 0 0 0 0.556863 0 0 0 0 0.909804 0 0 0 0.33 0"/>
<feBlend mode="normal" in2="BackgroundImageFix" result="effect1_dropShadow_1761_36712"/>
<feBlend mode="normal" in="SourceGraphic" in2="effect1_dropShadow_1761_36712" result="shape"/>
</filter>
<linearGradient id="paint0_linear_1761_36712" x1="29.5" y1="91.5" x2="78.5907" y2="14.9401" gradientUnits="userSpaceOnUse">
<stop offset="0.168198" stop-color="#38DBFF"/>
<stop offset="0.984375" stop-color="#2521DD"/>
</linearGradient>
<linearGradient id="paint1_linear_1761_36712" x1="39.6574" y1="27.1489" x2="87.8483" y2="124.168" gradientUnits="userSpaceOnUse">
<stop stop-color="#007ED8"/>
<stop offset="0.7065" stop-color="#002D4C"/>
</linearGradient>
<clipPath id="clip0_1761_36712">
<rect width="24" height="24" fill="white" transform="translate(48 44)"/>
</clipPath>
</defs>
</svg>
