<svg width="120" height="120" viewBox="0 0 120 120" fill="none" xmlns="http://www.w3.org/2000/svg">
<g filter="url(#filter0_d_1761_36691)">
<rect x="32" y="28" width="56" height="56" rx="12" fill="url(#paint0_linear_1761_36691)" shape-rendering="crispEdges"/>
<rect x="32.5" y="28.5" width="55" height="55" rx="11.5" stroke="black" shape-rendering="crispEdges"/>
<rect x="32.5" y="28.5" width="55" height="55" rx="11.5" stroke="url(#paint1_linear_1761_36691)" shape-rendering="crispEdges"/>
<g clip-path="url(#clip0_1761_36691)">
<path fill-rule="evenodd" clip-rule="evenodd" d="M55.7852 67.2031C55.6914 67.2031 55.6445 67.2031 55.5977 67.1562C55.457 67.1094 55.4102 66.875 55.457 66.7344L59.5352 56.6562H55.6445C55.5508 56.6562 55.4102 56.6094 55.3633 56.4688C55.3164 56.375 55.3164 56.2344 55.3633 56.1406L61.457 44.9844C61.5039 44.8438 61.6445 44.7969 61.7383 44.7969H67.082C67.2227 44.7969 67.3164 44.8438 67.3633 44.9844C67.457 45.0781 67.457 45.2188 67.3633 45.3125L63.2852 52.4375H67.457C67.5977 52.4375 67.6914 52.5312 67.7383 52.625C67.832 52.7656 67.7852 52.9062 67.7383 53L56.0195 67.1094C55.9727 67.1562 55.8789 67.2031 55.7852 67.2031ZM58.082 54.7344C58.0352 54.7344 57.9883 54.6875 57.9414 54.6875C57.8008 54.5938 57.707 54.4062 57.8008 54.2188L62.1133 46.3906C62.207 46.2031 62.3945 46.1562 62.582 46.25C62.7227 46.3438 62.8164 46.5312 62.7227 46.7188L58.4102 54.5469C58.3164 54.6406 58.2227 54.7344 58.082 54.7344Z" fill="white"/>
<path fill-rule="evenodd" clip-rule="evenodd" d="M54.1917 57.3594H50.3011C50.1136 57.3594 49.973 57.2188 49.973 56.9844V52.2031H48.3324C48.1917 52.2031 48.098 52.1094 48.0511 51.9688C47.9574 51.875 48.0042 51.7344 48.098 51.6406L51.9417 46.4844C52.0355 46.3906 52.1292 46.3438 52.223 46.3438C52.3636 46.3438 52.4574 46.3906 52.5042 46.4844L56.3949 51.6406C56.4417 51.7344 56.4886 51.875 56.4417 51.9688C56.348 52.1094 56.2542 52.2031 56.1136 52.2031H54.5199V56.9844C54.5199 57.2188 54.3792 57.3594 54.1917 57.3594Z" fill="white"/>
<path fill-rule="evenodd" clip-rule="evenodd" d="M69.7069 65.7031H65.8632C65.6288 65.7031 65.4882 65.5156 65.4882 65.3281V60.5H63.8944C63.7538 60.5 63.66 60.4531 63.5663 60.3125C63.5194 60.2188 63.5663 60.0781 63.6132 59.9844L67.5038 54.7812C67.6444 54.6406 67.9257 54.6406 68.0663 54.7812L71.91 59.9844C72.0038 60.0781 72.0507 60.2188 71.9569 60.3125C71.91 60.4531 71.8163 60.5 71.6757 60.5H70.035V65.3281C70.0819 65.5156 69.9413 65.7031 69.7069 65.7031Z" fill="white"/>
</g>
</g>
<defs>
<filter id="filter0_d_1761_36691" x="0" y="0" width="120" height="120" filterUnits="userSpaceOnUse" color-interpolation-filters="sRGB">
<feFlood flood-opacity="0" result="BackgroundImageFix"/>
<feColorMatrix in="SourceAlpha" type="matrix" values="0 0 0 0 0 0 0 0 0 0 0 0 0 0 0 0 0 0 127 0" result="hardAlpha"/>
<feOffset dy="4"/>
<feGaussianBlur stdDeviation="16"/>
<feComposite in2="hardAlpha" operator="out"/>
<feColorMatrix type="matrix" values="0 0 0 0 0.0901961 0 0 0 0 0.556863 0 0 0 0 0.909804 0 0 0 0.33 0"/>
<feBlend mode="normal" in2="BackgroundImageFix" result="effect1_dropShadow_1761_36691"/>
<feBlend mode="normal" in="SourceGraphic" in2="effect1_dropShadow_1761_36691" result="shape"/>
</filter>
<linearGradient id="paint0_linear_1761_36691" x1="29.5" y1="91.5" x2="78.5907" y2="14.9401" gradientUnits="userSpaceOnUse">
<stop offset="0.168198" stop-color="#38DBFF"/>
<stop offset="0.984375" stop-color="#2521DD"/>
</linearGradient>
<linearGradient id="paint1_linear_1761_36691" x1="39.6574" y1="27.1489" x2="87.8483" y2="124.168" gradientUnits="userSpaceOnUse">
<stop stop-color="#007ED8"/>
<stop offset="0.7065" stop-color="#002D4C"/>
</linearGradient>
<clipPath id="clip0_1761_36691">
<rect width="24" height="24" fill="white" transform="translate(48 44)"/>
</clipPath>
</defs>
</svg>
