<svg width="120" height="120" viewBox="0 0 120 120" fill="none" xmlns="http://www.w3.org/2000/svg">
<g filter="url(#filter0_d_1761_36677)">
<rect x="32" y="28" width="56" height="56" rx="12" fill="url(#paint0_linear_1761_36677)" shape-rendering="crispEdges"/>
<rect x="32.5" y="28.5" width="55" height="55" rx="11.5" stroke="url(#paint1_linear_1761_36677)" shape-rendering="crispEdges"/>
<g clip-path="url(#clip0_1761_36677)">
<path fill-rule="evenodd" clip-rule="evenodd" d="M65.1388 44.3769C65.3188 44.1964 65.5484 44.0735 65.7983 44.0238C66.0483 43.974 66.3075 43.9997 66.5428 44.0975L70.1891 45.6095C70.5036 45.7394 70.7537 45.9885 70.8848 46.3025C71.0159 46.6164 71.0173 46.9695 70.8885 47.2844L69.3988 50.9307C69.3026 51.1661 69.1387 51.3677 68.9278 51.51C68.7169 51.6523 68.4686 51.7288 68.2143 51.7299C67.9599 51.731 67.7109 51.6566 67.4989 51.5162C67.2868 51.3757 67.1211 51.1756 67.0228 50.9409L66.4348 49.5352L51.6268 55.8627C51.4715 55.9291 51.3046 55.9642 51.1357 55.9661C50.9667 55.9681 50.7991 55.9367 50.6423 55.8738C50.4855 55.8109 50.3426 55.7178 50.2218 55.5997C50.101 55.4816 50.0047 55.3409 49.9383 55.1855C49.8718 55.0302 49.8367 54.8633 49.8348 54.6944C49.8329 54.5254 49.8642 54.3578 49.9271 54.201C49.99 54.0442 50.0831 53.9013 50.2012 53.7805C50.3193 53.6597 50.4601 53.5634 50.6154 53.4969L65.4423 47.1627L64.8645 45.7827C64.7657 45.5476 64.739 45.2884 64.7878 45.0381C64.8367 44.7878 64.9588 44.5576 65.1388 44.3769ZM69.8583 53.3941C70.3129 53.3941 70.749 53.5747 71.0704 53.8962C71.3919 54.2177 71.5725 54.6537 71.5725 55.1084V67.1084C71.5725 67.3357 71.4822 67.5537 71.3215 67.7145C71.1607 67.8752 70.9427 67.9655 70.7154 67.9655H66.4297C66.2024 67.9655 65.9843 67.8752 65.8236 67.7145C65.6628 67.5537 65.5725 67.3357 65.5725 67.1084V55.1084C65.5725 54.6537 65.7532 54.2177 66.0746 53.8962C66.3961 53.5747 66.8322 53.3941 67.2868 53.3941H69.8583ZM62.4988 56.4661C62.1771 56.1452 61.7412 55.9652 61.2868 55.9655H58.7154C58.2607 55.9655 57.8247 56.1461 57.5032 56.4676C57.1817 56.7891 57.0011 57.2251 57.0011 57.6798V67.1084C57.0011 67.3357 57.0914 67.5537 57.2522 67.7145C57.4129 67.8752 57.6309 67.9655 57.8583 67.9655H62.144C62.3713 67.9655 62.5893 67.8752 62.7501 67.7145C62.9108 67.5537 63.0011 67.3357 63.0011 67.1084V57.6798C63.0013 57.4544 62.957 57.2312 62.8708 57.0229C62.7846 56.8147 62.6582 56.6254 62.4988 56.4661ZM52.7154 58.5369C53.1701 58.5369 53.6061 58.7176 53.9276 59.039C54.2491 59.3605 54.4297 59.7966 54.4297 60.2512V67.1084C54.4297 67.3357 54.3394 67.5537 54.1786 67.7145C54.0179 67.8752 53.7999 67.9655 53.5725 67.9655H49.2868C49.0595 67.9655 48.8415 67.8752 48.6807 67.7145C48.52 67.5537 48.4297 67.3357 48.4297 67.1084V60.2512C48.4297 59.7966 48.6103 59.3605 48.9318 59.039C49.2533 58.7176 49.6893 58.5369 50.144 58.5369H52.7154Z" fill="white"/>
</g>
</g>
<defs>
<filter id="filter0_d_1761_36677" x="0" y="0" width="120" height="120" filterUnits="userSpaceOnUse" color-interpolation-filters="sRGB">
<feFlood flood-opacity="0" result="BackgroundImageFix"/>
<feColorMatrix in="SourceAlpha" type="matrix" values="0 0 0 0 0 0 0 0 0 0 0 0 0 0 0 0 0 0 127 0" result="hardAlpha"/>
<feOffset dy="4"/>
<feGaussianBlur stdDeviation="16"/>
<feComposite in2="hardAlpha" operator="out"/>
<feColorMatrix type="matrix" values="0 0 0 0 0.0901961 0 0 0 0 0.556863 0 0 0 0 0.909804 0 0 0 0.33 0"/>
<feBlend mode="normal" in2="BackgroundImageFix" result="effect1_dropShadow_1761_36677"/>
<feBlend mode="normal" in="SourceGraphic" in2="effect1_dropShadow_1761_36677" result="shape"/>
</filter>
<linearGradient id="paint0_linear_1761_36677" x1="29.5" y1="91.5" x2="78.5907" y2="14.9401" gradientUnits="userSpaceOnUse">
<stop offset="0.168198" stop-color="#38DBFF"/>
<stop offset="0.984375" stop-color="#2521DD"/>
</linearGradient>
<linearGradient id="paint1_linear_1761_36677" x1="39.6574" y1="27.1489" x2="87.8483" y2="124.168" gradientUnits="userSpaceOnUse">
<stop stop-color="#007ED8"/>
<stop offset="0.7065" stop-color="#002D4C"/>
</linearGradient>
<clipPath id="clip0_1761_36677">
<rect width="24" height="24" fill="white" transform="translate(48 44)"/>
</clipPath>
</defs>
</svg>
