<svg width="120" height="120" viewBox="0 0 120 120" fill="none" xmlns="http://www.w3.org/2000/svg">
<g filter="url(#filter0_d_1761_36684)">
<rect x="32" y="28" width="56" height="56" rx="12" fill="url(#paint0_linear_1761_36684)" shape-rendering="crispEdges"/>
<rect x="32.5" y="28.5" width="55" height="55" rx="11.5" stroke="url(#paint1_linear_1761_36684)" shape-rendering="crispEdges"/>
<g clip-path="url(#clip0_1761_36684)">
<path d="M63.8984 62.9C67.8734 63.05 71.3234 61.4 71.1734 60.275V58.625C69.0734 59.825 66.6734 60.425 64.2734 60.275C64.3484 61.175 64.1984 62.075 63.8984 62.9Z" fill="white"/>
<path d="M48.75 60.3501C48.75 64.1751 51.825 67.2501 55.65 67.2501C59.7 67.3251 63.075 63.6501 62.625 59.6751C62.25 56.3001 59.4 53.3751 55.875 53.5251C51.9 53.4501 48.75 56.5251 48.75 60.3501ZM56.55 56.0001V56.1501C57.6 56.5251 58.275 57.5001 58.275 58.5501C58.35 59.0001 57.975 59.4501 57.525 59.5251C57.075 59.6001 56.625 59.2251 56.55 58.7751C56.55 58.7001 56.55 58.7001 56.55 58.6251C56.55 58.1751 56.175 57.8001 55.65 57.8001C55.2 57.8001 54.825 58.1751 54.825 58.7001C54.825 59.1501 55.2 59.5251 55.65 59.5251C57.075 59.5251 58.275 60.6501 58.275 62.0751C58.275 63.2001 57.6 64.1751 56.55 64.5501V64.7001C56.55 65.1501 56.175 65.5251 55.725 65.5251C55.275 65.5251 54.825 65.1501 54.825 64.7001V64.5501C53.775 64.1751 53.1 63.2001 53.1 62.1501C53.025 61.7001 53.4 61.2501 53.85 61.1751C54.3 61.1001 54.75 61.4751 54.825 61.9251V62.0751C54.825 62.5251 55.2 62.9001 55.725 62.9001C56.175 62.9001 56.55 62.5251 56.55 62.0001C56.55 61.5501 56.175 61.1751 55.725 61.1751C54.3 61.1751 53.1 60.0501 53.1 58.6251C53.1 57.5001 53.775 56.5251 54.825 56.1501V56.0001C54.825 55.5501 55.2 55.1751 55.725 55.1751C56.175 55.1001 56.55 55.5501 56.55 56.0001Z" fill="white"/>
<path d="M63.0781 55.9254C63.5281 56.7504 63.9031 57.6504 64.1281 58.5504C68.1781 58.6254 71.3281 57.0504 71.2531 55.9254V54.2754C68.7781 55.7004 65.8531 56.1504 63.0781 55.9254Z" fill="white"/>
<path d="M63.1531 64.6246C62.6281 65.5246 61.9531 66.2746 61.2031 66.9496C64.2781 67.9996 71.5531 66.4246 71.1781 64.6246V62.9746C68.7031 64.3996 65.9281 64.7746 63.1531 64.6246Z" fill="white"/>
<path d="M57.6 51.875C59.1 52.1 60.45 52.925 61.575 53.975C64.65 54.875 71.7 53.3 71.25 51.575V50C68.25 52.175 60.375 52.175 57.375 50V51.65C57.375 51.875 57.45 51.875 57.6 51.875Z" fill="white"/>
<path d="M64.3531 50C68.1639 50 71.2531 48.8247 71.2531 47.375C71.2531 45.9253 68.1639 44.75 64.3531 44.75C60.5424 44.75 57.4531 45.9253 57.4531 47.375C57.4531 48.8247 60.5424 50 64.3531 50Z" fill="white"/>
</g>
</g>
<defs>
<filter id="filter0_d_1761_36684" x="0" y="0" width="120" height="120" filterUnits="userSpaceOnUse" color-interpolation-filters="sRGB">
<feFlood flood-opacity="0" result="BackgroundImageFix"/>
<feColorMatrix in="SourceAlpha" type="matrix" values="0 0 0 0 0 0 0 0 0 0 0 0 0 0 0 0 0 0 127 0" result="hardAlpha"/>
<feOffset dy="4"/>
<feGaussianBlur stdDeviation="16"/>
<feComposite in2="hardAlpha" operator="out"/>
<feColorMatrix type="matrix" values="0 0 0 0 0.0901961 0 0 0 0 0.556863 0 0 0 0 0.909804 0 0 0 0.33 0"/>
<feBlend mode="normal" in2="BackgroundImageFix" result="effect1_dropShadow_1761_36684"/>
<feBlend mode="normal" in="SourceGraphic" in2="effect1_dropShadow_1761_36684" result="shape"/>
</filter>
<linearGradient id="paint0_linear_1761_36684" x1="29.5" y1="91.5" x2="78.5907" y2="14.9401" gradientUnits="userSpaceOnUse">
<stop offset="0.168198" stop-color="#38DBFF"/>
<stop offset="0.984375" stop-color="#2521DD"/>
</linearGradient>
<linearGradient id="paint1_linear_1761_36684" x1="39.6574" y1="27.1489" x2="87.8483" y2="124.168" gradientUnits="userSpaceOnUse">
<stop stop-color="#007ED8"/>
<stop offset="0.7065" stop-color="#002D4C"/>
</linearGradient>
<clipPath id="clip0_1761_36684">
<rect width="24" height="24" fill="white" transform="translate(48 44)"/>
</clipPath>
</defs>
</svg>
