<svg width="24" height="24" viewBox="0 0 24 24" fill="none" xmlns="http://www.w3.org/2000/svg">
<g clip-path="url(#clip0_7622_2420)">
<path d="M12.0026 1.33398C9.89294 1.33398 7.83065 1.95957 6.07653 3.13164C4.3224 4.30371 2.95523 5.96962 2.14789 7.91869C1.34056 9.86777 1.12932 12.0125 1.5409 14.0816C1.95247 16.1507 2.96838 18.0514 4.46014 19.5431C5.9519 21.0349 7.85252 22.0508 9.92165 22.4624C11.9908 22.8739 14.1355 22.6627 16.0846 21.8554C18.0336 21.048 19.6995 19.6809 20.8716 17.9267C22.0437 16.1726 22.6693 14.1103 22.6693 12.0007C22.6693 9.17167 21.5455 6.45857 19.5451 4.45818C17.5447 2.45779 14.8316 1.33398 12.0026 1.33398ZM12.0026 21.334C10.1566 21.334 8.35215 20.7866 6.81729 19.761C5.28243 18.7355 4.08615 17.2778 3.37973 15.5724C2.67332 13.8669 2.48848 11.9903 2.84861 10.1798C3.20874 8.36932 4.09766 6.70628 5.40295 5.40099C6.70824 4.0957 8.37128 3.20678 10.1818 2.84666C11.9923 2.48653 13.8689 2.67136 15.5743 3.37778C17.2798 4.08419 18.7374 5.28047 19.763 6.81533C20.7886 8.35019 21.3359 10.1547 21.3359 12.0007C21.3359 14.476 20.3526 16.85 18.6023 18.6003C16.8519 20.3507 14.478 21.334 12.0026 21.334Z" fill="white"/>
<path d="M18.0974 10H5.89741C5.57031 10 5.25661 10.1299 5.02532 10.3612C4.79402 10.5925 4.66408 10.9062 4.66408 11.2333V12.76C4.6632 12.9225 4.69445 13.0836 4.75604 13.234C4.81763 13.3844 4.90834 13.5212 5.02295 13.6364C5.13756 13.7516 5.27382 13.8431 5.42389 13.9055C5.57396 13.9679 5.73489 14 5.89741 14H18.0974C18.2594 14 18.4198 13.9681 18.5694 13.9061C18.719 13.8441 18.855 13.7533 18.9695 13.6388C19.084 13.5242 19.1749 13.3883 19.2369 13.2386C19.2988 13.089 19.3307 12.9286 19.3307 12.7667V11.2333C19.3307 11.0714 19.2988 10.911 19.2369 10.7614C19.1749 10.6117 19.084 10.4758 18.9695 10.3612C18.855 10.2467 18.719 10.1559 18.5694 10.0939C18.4198 10.0319 18.2594 10 18.0974 10Z" fill="white"/>
</g>
<defs>
<clipPath id="clip0_7622_2420">
<rect width="24" height="24" fill="white"/>
</clipPath>
</defs>
</svg>
