<svg width="30" height="30" viewBox="0 0 30 30" fill="none" xmlns="http://www.w3.org/2000/svg">
<g clip-path="url(#clip0_1292_34943)">
<g opacity="0.15">
<path d="M15 30C23.2843 30 30 23.2843 30 15C30 6.71573 23.2843 0 15 0C6.71573 0 0 6.71573 0 15C0 23.2843 6.71573 30 15 30Z" fill="#212529"/>
<path d="M15 30C23.2843 30 30 23.2843 30 15C30 6.71573 23.2843 0 15 0C6.71573 0 0 6.71573 0 15C0 23.2843 6.71573 30 15 30Z" fill="url(#paint0_linear_1292_34943)" fill-opacity="0.9"/>
</g>
<path fill-rule="evenodd" clip-rule="evenodd" d="M10.7071 9.29289C10.3166 8.90237 9.68342 8.90237 9.29289 9.29289C8.90237 9.68342 8.90237 10.3166 9.29289 10.7071L13.5858 15L9.29289 19.2929C8.90237 19.6834 8.90237 20.3166 9.29289 20.7071C9.68342 21.0976 10.3166 21.0976 10.7071 20.7071L15 16.4142L19.2929 20.7071C19.6834 21.0976 20.3166 21.0976 20.7071 20.7071C21.0976 20.3166 21.0976 19.6834 20.7071 19.2929L16.4142 15L20.7071 10.7071C21.0976 10.3166 21.0976 9.68342 20.7071 9.29289C20.3166 8.90237 19.6834 8.90237 19.2929 9.29289L15 13.5858L10.7071 9.29289Z" fill="url(#paint1_linear_1292_34943)" fill-opacity="0.9"/>
</g>
<defs>
<linearGradient id="paint0_linear_1292_34943" x1="1.67371" y1="1.68074" x2="29.1237" y2="20.1822" gradientUnits="userSpaceOnUse">
<stop offset="0.168198" stop-color="#FF344C"/>
<stop offset="0.984375" stop-color="#F30606"/>
</linearGradient>
<linearGradient id="paint1_linear_1292_34943" x1="9.66948" y1="9.6723" x2="20.6495" y2="17.0729" gradientUnits="userSpaceOnUse">
<stop offset="0.168198" stop-color="#FF344C"/>
<stop offset="0.984375" stop-color="#F30606"/>
</linearGradient>
<clipPath id="clip0_1292_34943">
<rect width="30" height="30" fill="white"/>
</clipPath>
</defs>
</svg>
