<svg width="125" height="126" viewBox="0 0 125 126" fill="none" xmlns="http://www.w3.org/2000/svg">
<g filter="url(#filter0_d_264_21560)">
<rect x="32" y="28" width="61" height="62" rx="30.5" fill="white" fill-opacity="0.25"/>
<path d="M71.1641 64.9609C71.9258 65.6641 71.9258 66.8945 71.1641 67.5977C70.8125 67.9492 70.3438 68.125 69.875 68.125C69.3477 68.125 68.8789 67.9492 68.5273 67.5977L62.375 61.4453L56.1641 67.5977C55.8125 67.9492 55.3438 68.125 54.875 68.125C54.3477 68.125 53.8789 67.9492 53.5273 67.5977C52.7656 66.8945 52.7656 65.6641 53.5273 64.9609L59.6797 58.75L53.5273 52.5977C52.7656 51.8945 52.7656 50.6641 53.5273 49.9609C54.2305 49.1992 55.4609 49.1992 56.1641 49.9609L62.375 56.1133L68.5273 49.9609C69.2305 49.1992 70.4609 49.1992 71.1641 49.9609C71.9258 50.6641 71.9258 51.8945 71.1641 52.5977L65.0117 58.8086L71.1641 64.9609Z" fill="white"/>
</g>
<defs>
<filter id="filter0_d_264_21560" x="0" y="0" width="125" height="126" filterUnits="userSpaceOnUse" color-interpolation-filters="sRGB">
<feFlood flood-opacity="0" result="BackgroundImageFix"/>
<feColorMatrix in="SourceAlpha" type="matrix" values="0 0 0 0 0 0 0 0 0 0 0 0 0 0 0 0 0 0 127 0" result="hardAlpha"/>
<feOffset dy="4"/>
<feGaussianBlur stdDeviation="16"/>
<feColorMatrix type="matrix" values="0 0 0 0 0.121569 0 0 0 0 0.121569 0 0 0 0 0.156863 0 0 0 0.15 0"/>
<feBlend mode="normal" in2="BackgroundImageFix" result="effect1_dropShadow_264_21560"/>
<feBlend mode="normal" in="SourceGraphic" in2="effect1_dropShadow_264_21560" result="shape"/>
</filter>
</defs>
</svg>
