<svg width="315" height="400" viewBox="0 0 315 400" fill="none" xmlns="http://www.w3.org/2000/svg">
<g filter="url(#filter0_d_315_3288)">
<rect x="8" y="4" width="299" height="384" rx="8" fill="white" shape-rendering="crispEdges"/>
<rect x="24" y="20" width="267" height="168" rx="6" fill="url(#paint0_radial_315_3288)"/>
<g filter="url(#filter1_d_315_3288)">
<circle cx="201.5" cy="39.5" r="9.5" fill="#178EE8"/>
<circle cx="201.5" cy="39.5" r="8.5" stroke="white" stroke-width="2"/>
</g>
<path d="M50.5625 216.938C51.7812 218.156 51.7812 220.125 50.5625 221.344L47.4062 224.5L47.6875 224.812C48.0938 225.188 48.0938 225.844 47.6875 226.219C47.3125 226.625 46.6562 226.625 46.2812 226.219L41.2812 221.219C40.875 220.844 40.875 220.188 41.2812 219.812C41.6562 219.406 42.3125 219.406 42.6875 219.812L43 220.094L46.1562 216.938C47.375 215.719 49.3438 215.719 50.5625 216.938ZM37.2188 226.125L41 222.344L42.4062 223.75L38.625 227.531C38.5312 227.625 38.5 227.75 38.5 227.875V229H39.625C39.75 229 39.875 228.969 39.9688 228.875L43.75 225.094L45.1562 226.5L41.375 230.281C40.9062 230.75 40.2812 231 39.625 231H38.2812L37.0312 231.844C36.6562 232.125 36.125 232.062 35.7812 231.719C35.4375 231.375 35.375 230.844 35.6562 230.469L36.5 229.219V227.875C36.5 227.219 36.75 226.594 37.2188 226.125Z" fill="#1F1F28"/>
<circle cx="87.5" cy="224" r="16" fill="#178EE8"/>
<rect x="287.5" y="232" width="172" height="16" rx="4" transform="rotate(180 287.5 232)" fill="url(#paint1_linear_315_3288)"/>
<g filter="url(#filter2_d_315_3288)">
<circle cx="174.5" cy="224" r="10" fill="#178EE8"/>
<circle cx="174.5" cy="224" r="9" stroke="white" stroke-width="2"/>
</g>
<rect x="24.5" y="260.5" width="266" height="45" rx="5.5" fill="white"/>
<path d="M36.9588 278V269.273H38.2756V273.065H42.6264V269.273H43.9474V278H42.6264V274.195H38.2756V278H36.9588ZM45.8651 278V269.273H51.3366V270.406H47.1818V273.065H51.0511V274.195H47.1818V276.866H51.3878V278H45.8651ZM54.0117 269.273L56.0998 272.686H56.168L58.256 269.273H59.7816L57.0629 273.636L59.7987 278H58.2646L56.168 274.634H56.0998L54.0032 278H52.4691L55.2518 273.636L52.4862 269.273H54.0117Z" fill="#9DA7AE"/>
<path d="M40.8175 297L42.4879 286.818H43.6811L42.0107 297H40.8175ZM36.2088 294.276L36.4027 293.082H44.1186L43.9247 294.276H36.2088ZM37.2379 297L38.9084 286.818H40.1016L38.4311 297H37.2379ZM36.8004 290.736L36.9943 289.543H44.7102L44.5163 290.736H36.8004ZM49.7564 286.818V297H48.2152V288.359H48.1555L45.7195 289.95V288.479L48.2599 286.818H49.7564ZM52.8537 297L57.2983 288.21V288.136H52.1577V286.818H58.8892V288.18L54.4595 297H52.8537ZM63.8533 297.139C63.1407 297.139 62.511 297.017 61.9641 296.771C61.4206 296.526 60.9947 296.188 60.6864 295.757C60.3782 295.326 60.2257 294.836 60.229 294.286C60.2257 293.855 60.3136 293.459 60.4925 293.097C60.6748 292.733 60.9218 292.429 61.2333 292.188C61.5449 291.942 61.8929 291.786 62.2773 291.72V291.661C61.7702 291.538 61.3642 291.266 61.0593 290.845C60.7544 290.424 60.6036 289.94 60.6069 289.393C60.6036 288.873 60.7411 288.409 61.0195 288.001C61.3013 287.59 61.6874 287.267 62.1779 287.032C62.6684 286.797 63.2269 286.679 63.8533 286.679C64.4731 286.679 65.0266 286.798 65.5138 287.037C66.0044 287.272 66.3905 287.595 66.6722 288.006C66.954 288.414 67.0965 288.876 67.0998 289.393C67.0965 289.94 66.9407 290.424 66.6325 290.845C66.3242 291.266 65.9232 291.538 65.4293 291.661V291.72C65.8105 291.786 66.1535 291.942 66.4585 292.188C66.7667 292.429 67.012 292.733 67.1942 293.097C67.3799 293.459 67.4743 293.855 67.4776 294.286C67.4743 294.836 67.3185 295.326 67.0103 295.757C66.7021 296.188 66.2745 296.526 65.7276 296.771C65.1841 297.017 64.5593 297.139 63.8533 297.139ZM63.8533 295.881C64.2743 295.881 64.6388 295.812 64.9471 295.673C65.2553 295.53 65.494 295.333 65.663 295.081C65.832 294.826 65.9182 294.527 65.9215 294.186C65.9182 293.831 65.8254 293.518 65.6431 293.246C65.4641 292.975 65.2205 292.761 64.9123 292.605C64.604 292.449 64.2511 292.371 63.8533 292.371C63.4523 292.371 63.096 292.449 62.7844 292.605C62.4729 292.761 62.2276 292.975 62.0487 293.246C61.8697 293.518 61.7818 293.831 61.7852 294.186C61.7818 294.527 61.863 294.826 62.0288 295.081C62.1978 295.333 62.4381 295.53 62.7496 295.673C63.0612 295.812 63.4291 295.881 63.8533 295.881ZM63.8533 291.143C64.1914 291.143 64.4914 291.076 64.7532 290.94C65.015 290.804 65.2205 290.615 65.3697 290.373C65.5221 290.131 65.6 289.848 65.6033 289.523C65.6 289.205 65.5238 288.926 65.3746 288.688C65.2288 288.449 65.025 288.265 64.7631 288.136C64.5013 288.003 64.198 287.937 63.8533 287.937C63.502 287.937 63.1938 288.003 62.9286 288.136C62.6668 288.265 62.4629 288.449 62.3171 288.688C62.1713 288.926 62.1 289.205 62.1033 289.523C62.1 289.848 62.1729 290.131 62.3221 290.373C62.4712 290.615 62.6767 290.804 62.9386 290.94C63.2037 291.076 63.5086 291.143 63.8533 291.143ZM72.5698 297.154C71.8174 297.154 71.1694 296.993 70.6259 296.672C70.0856 296.347 69.668 295.891 69.373 295.305C69.0814 294.715 68.9355 294.024 68.9355 293.232C68.9355 292.449 69.0814 291.76 69.373 291.163C69.668 290.567 70.079 290.101 70.606 289.766C71.1363 289.432 71.7561 289.264 72.4654 289.264C72.8962 289.264 73.3139 289.335 73.7182 289.478C74.1226 289.621 74.4855 289.844 74.807 290.149C75.1285 290.454 75.382 290.85 75.5676 291.337C75.7533 291.821 75.8461 292.41 75.8461 293.102V293.629H69.7757V292.516H74.3894C74.3894 292.125 74.3098 291.778 74.1507 291.477C73.9917 291.172 73.7679 290.931 73.4796 290.756C73.1945 290.58 72.8598 290.492 72.4753 290.492C72.0577 290.492 71.6931 290.595 71.3816 290.8C71.0733 291.003 70.8347 291.268 70.6657 291.596C70.4999 291.921 70.4171 292.274 70.4171 292.655V293.525C70.4171 294.035 70.5066 294.469 70.6855 294.827C70.8678 295.185 71.1214 295.459 71.4462 295.648C71.771 295.833 72.1505 295.926 72.5847 295.926C72.8664 295.926 73.1233 295.886 73.3553 295.807C73.5873 295.724 73.7878 295.601 73.9569 295.439C74.1259 295.277 74.2551 295.076 74.3446 294.837L75.7516 295.091C75.6389 295.505 75.4367 295.868 75.1451 296.18C74.8567 296.488 74.4938 296.728 74.0563 296.901C73.6221 297.07 73.1266 297.154 72.5698 297.154ZM80.7866 297.154C80.0342 297.154 79.3862 296.993 78.8427 296.672C78.3024 296.347 77.8848 295.891 77.5898 295.305C77.2982 294.715 77.1523 294.024 77.1523 293.232C77.1523 292.449 77.2982 291.76 77.5898 291.163C77.8848 290.567 78.2958 290.101 78.8228 289.766C79.3531 289.432 79.9729 289.264 80.6822 289.264C81.113 289.264 81.5307 289.335 81.935 289.478C82.3394 289.621 82.7023 289.844 83.0238 290.149C83.3453 290.454 83.5988 290.85 83.7844 291.337C83.9701 291.821 84.0629 292.41 84.0629 293.102V293.629H77.9925V292.516H82.6062C82.6062 292.125 82.5266 291.778 82.3675 291.477C82.2085 291.172 81.9847 290.931 81.6964 290.756C81.4113 290.58 81.0766 290.492 80.6921 290.492C80.2745 290.492 79.9099 290.595 79.5984 290.8C79.2901 291.003 79.0515 291.268 78.8825 291.596C78.7167 291.921 78.6339 292.274 78.6339 292.655V293.525C78.6339 294.035 78.7234 294.469 78.9023 294.827C79.0846 295.185 79.3382 295.459 79.663 295.648C79.9878 295.833 80.3673 295.926 80.8015 295.926C81.0832 295.926 81.3401 295.886 81.5721 295.807C81.8041 295.724 82.0046 295.601 82.1737 295.439C82.3427 295.277 82.4719 295.076 82.5614 294.837L83.9684 295.091C83.8557 295.505 83.6535 295.868 83.3619 296.18C83.0735 296.488 82.7106 296.728 82.2731 296.901C81.8389 297.07 81.3434 297.154 80.7866 297.154ZM89.1326 297.139C88.42 297.139 87.7903 297.017 87.2434 296.771C86.6999 296.526 86.274 296.188 85.9657 295.757C85.6575 295.326 85.505 294.836 85.5083 294.286C85.505 293.855 85.5929 293.459 85.7718 293.097C85.9541 292.733 86.2011 292.429 86.5126 292.188C86.8242 291.942 87.1722 291.786 87.5566 291.72V291.661C87.0495 291.538 86.6435 291.266 86.3386 290.845C86.0337 290.424 85.8829 289.94 85.8862 289.393C85.8829 288.873 86.0204 288.409 86.2988 288.001C86.5806 287.59 86.9667 287.267 87.4572 287.032C87.9477 286.797 88.5062 286.679 89.1326 286.679C89.7524 286.679 90.3059 286.798 90.7931 287.037C91.2837 287.272 91.6698 287.595 91.9515 288.006C92.2333 288.414 92.3758 288.876 92.3791 289.393C92.3758 289.94 92.22 290.424 91.9118 290.845C91.6035 291.266 91.2025 291.538 90.7086 291.661V291.72C91.0898 291.786 91.4328 291.942 91.7377 292.188C92.046 292.429 92.2913 292.733 92.4735 293.097C92.6592 293.459 92.7536 293.855 92.7569 294.286C92.7536 294.836 92.5978 295.326 92.2896 295.757C91.9814 296.188 91.5538 296.526 91.0069 296.771C90.4634 297.017 89.8386 297.139 89.1326 297.139ZM89.1326 295.881C89.5536 295.881 89.9181 295.812 90.2264 295.673C90.5346 295.53 90.7733 295.333 90.9423 295.081C91.1113 294.826 91.1975 294.527 91.2008 294.186C91.1975 293.831 91.1047 293.518 90.9224 293.246C90.7434 292.975 90.4998 292.761 90.1916 292.605C89.8833 292.449 89.5304 292.371 89.1326 292.371C88.7316 292.371 88.3753 292.449 88.0637 292.605C87.7522 292.761 87.5069 292.975 87.3279 293.246C87.149 293.518 87.0611 293.831 87.0645 294.186C87.0611 294.527 87.1423 294.826 87.3081 295.081C87.4771 295.333 87.7174 295.53 88.0289 295.673C88.3405 295.812 88.7084 295.881 89.1326 295.881ZM89.1326 291.143C89.4707 291.143 89.7707 291.076 90.0325 290.94C90.2943 290.804 90.4998 290.615 90.649 290.373C90.8014 290.131 90.8793 289.848 90.8826 289.523C90.8793 289.205 90.8031 288.926 90.6539 288.688C90.5081 288.449 90.3043 288.265 90.0424 288.136C89.7806 288.003 89.4773 287.937 89.1326 287.937C88.7813 287.937 88.4731 288.003 88.2079 288.136C87.9461 288.265 87.7422 288.449 87.5964 288.688C87.4506 288.926 87.3793 289.205 87.3826 289.523C87.3793 289.848 87.4522 290.131 87.6014 290.373C87.7505 290.615 87.956 290.804 88.2179 290.94C88.483 291.076 88.7879 291.143 89.1326 291.143Z" fill="#1F1F28"/>
<rect x="24.5" y="260.5" width="266" height="45" rx="5.5" stroke="#E0E2E7"/>
<rect x="24.5" y="326.5" width="266" height="45" rx="5.5" fill="white"/>
<path d="M44.2074 338.111H42.8778C42.8267 337.827 42.7315 337.577 42.5923 337.361C42.4531 337.145 42.2827 336.962 42.081 336.811C41.8793 336.661 41.6534 336.547 41.4034 336.47C41.1563 336.393 40.8935 336.355 40.6151 336.355C40.1122 336.355 39.6619 336.482 39.2642 336.734C38.8693 336.987 38.5568 337.358 38.3267 337.847C38.0994 338.335 37.9858 338.932 37.9858 339.636C37.9858 340.347 38.0994 340.946 38.3267 341.435C38.5568 341.923 38.8707 342.293 39.2685 342.543C39.6662 342.793 40.1136 342.918 40.6108 342.918C40.8864 342.918 41.1477 342.881 41.3949 342.807C41.6449 342.73 41.8707 342.618 42.0724 342.47C42.2741 342.322 42.4446 342.142 42.5838 341.929C42.7259 341.713 42.8239 341.466 42.8778 341.188L44.2074 341.192C44.1364 341.621 43.9986 342.016 43.794 342.376C43.5923 342.734 43.3324 343.044 43.0142 343.305C42.6989 343.564 42.3381 343.764 41.9318 343.906C41.5256 344.048 41.0824 344.119 40.6023 344.119C39.8466 344.119 39.1733 343.94 38.5824 343.582C37.9915 343.222 37.5256 342.706 37.1847 342.036C36.8466 341.365 36.6776 340.565 36.6776 339.636C36.6776 338.705 36.848 337.905 37.1889 337.237C37.5298 336.567 37.9957 336.053 38.5866 335.695C39.1776 335.334 39.8494 335.153 40.6023 335.153C41.0653 335.153 41.4972 335.22 41.8977 335.354C42.3011 335.484 42.6634 335.678 42.9844 335.933C43.3054 336.186 43.571 336.496 43.7812 336.862C43.9915 337.226 44.1335 337.642 44.2074 338.111ZM48.4379 344.132C47.8242 344.132 47.2887 343.991 46.8313 343.71C46.3739 343.429 46.0188 343.036 45.766 342.53C45.5131 342.024 45.3867 341.433 45.3867 340.757C45.3867 340.078 45.5131 339.484 45.766 338.976C46.0188 338.467 46.3739 338.072 46.8313 337.791C47.2887 337.51 47.8242 337.369 48.4379 337.369C49.0515 337.369 49.587 337.51 50.0444 337.791C50.5018 338.072 50.8569 338.467 51.1097 338.976C51.3626 339.484 51.489 340.078 51.489 340.757C51.489 341.433 51.3626 342.024 51.1097 342.53C50.8569 343.036 50.5018 343.429 50.0444 343.71C49.587 343.991 49.0515 344.132 48.4379 344.132ZM48.4421 343.062C48.8398 343.062 49.1694 342.957 49.4308 342.747C49.6921 342.537 49.8853 342.257 50.0103 341.908C50.1381 341.558 50.2021 341.173 50.2021 340.753C50.2021 340.335 50.1381 339.952 50.0103 339.602C49.8853 339.25 49.6921 338.967 49.4308 338.754C49.1694 338.541 48.8398 338.435 48.4421 338.435C48.0415 338.435 47.7092 338.541 47.445 338.754C47.1836 338.967 46.989 339.25 46.8612 339.602C46.7362 339.952 46.6737 340.335 46.6737 340.753C46.6737 341.173 46.7362 341.558 46.8612 341.908C46.989 342.257 47.1836 342.537 47.445 342.747C47.7092 342.957 48.0415 343.062 48.4421 343.062ZM54.1854 335.273V344H52.9112V335.273H54.1854ZM58.6566 344.132C58.043 344.132 57.5075 343.991 57.0501 343.71C56.5927 343.429 56.2376 343.036 55.9847 342.53C55.7319 342.024 55.6055 341.433 55.6055 340.757C55.6055 340.078 55.7319 339.484 55.9847 338.976C56.2376 338.467 56.5927 338.072 57.0501 337.791C57.5075 337.51 58.043 337.369 58.6566 337.369C59.2702 337.369 59.8058 337.51 60.2631 337.791C60.7205 338.072 61.0756 338.467 61.3285 338.976C61.5813 339.484 61.7077 340.078 61.7077 340.757C61.7077 341.433 61.5813 342.024 61.3285 342.53C61.0756 343.036 60.7205 343.429 60.2631 343.71C59.8058 343.991 59.2702 344.132 58.6566 344.132ZM58.6609 343.062C59.0586 343.062 59.3881 342.957 59.6495 342.747C59.9109 342.537 60.104 342.257 60.229 341.908C60.3569 341.558 60.4208 341.173 60.4208 340.753C60.4208 340.335 60.3569 339.952 60.229 339.602C60.104 339.25 59.9109 338.967 59.6495 338.754C59.3881 338.541 59.0586 338.435 58.6609 338.435C58.2603 338.435 57.9279 338.541 57.6637 338.754C57.4023 338.967 57.2077 339.25 57.0799 339.602C56.9549 339.952 56.8924 340.335 56.8924 340.753C56.8924 341.173 56.9549 341.558 57.0799 341.908C57.2077 342.257 57.4023 342.537 57.6637 342.747C57.9279 342.957 58.2603 343.062 58.6609 343.062ZM63.13 344V337.455H64.3615V338.494H64.4297C64.549 338.142 64.7592 337.865 65.0604 337.663C65.3643 337.459 65.7081 337.357 66.0916 337.357C66.1712 337.357 66.2649 337.359 66.3729 337.365C66.4837 337.371 66.5703 337.378 66.6328 337.386V338.605C66.5817 338.591 66.4908 338.575 66.3601 338.558C66.2294 338.538 66.0987 338.528 65.968 338.528C65.6669 338.528 65.3984 338.592 65.1626 338.72C64.9297 338.845 64.745 339.02 64.6087 339.244C64.4723 339.466 64.4041 339.719 64.4041 340.003V344H63.13ZM71.0135 344V335.273H76.4254V336.406H72.3303V339.065H76.0376V340.195H72.3303V344H71.0135ZM80.2191 344.132C79.6055 344.132 79.07 343.991 78.6126 343.71C78.1552 343.429 77.8001 343.036 77.5472 342.53C77.2944 342.024 77.168 341.433 77.168 340.757C77.168 340.078 77.2944 339.484 77.5472 338.976C77.8001 338.467 78.1552 338.072 78.6126 337.791C79.07 337.51 79.6055 337.369 80.2191 337.369C80.8327 337.369 81.3683 337.51 81.8256 337.791C82.283 338.072 82.6381 338.467 82.891 338.976C83.1438 339.484 83.2702 340.078 83.2702 340.757C83.2702 341.433 83.1438 342.024 82.891 342.53C82.6381 343.036 82.283 343.429 81.8256 343.71C81.3683 343.991 80.8327 344.132 80.2191 344.132ZM80.2234 343.062C80.6211 343.062 80.9506 342.957 81.212 342.747C81.4734 342.537 81.6665 342.257 81.7915 341.908C81.9194 341.558 81.9833 341.173 81.9833 340.753C81.9833 340.335 81.9194 339.952 81.7915 339.602C81.6665 339.25 81.4734 338.967 81.212 338.754C80.9506 338.541 80.6211 338.435 80.2234 338.435C79.8228 338.435 79.4904 338.541 79.2262 338.754C78.9648 338.967 78.7702 339.25 78.6424 339.602C78.5174 339.952 78.4549 340.335 78.4549 340.753C78.4549 341.173 78.5174 341.558 78.6424 341.908C78.7702 342.257 78.9648 342.537 79.2262 342.747C79.4904 342.957 79.8228 343.062 80.2234 343.062ZM84.6925 344V337.455H85.924V338.494H85.9922C86.1115 338.142 86.3217 337.865 86.6229 337.663C86.9268 337.459 87.2706 337.357 87.6541 337.357C87.7337 337.357 87.8274 337.359 87.9354 337.365C88.0462 337.371 88.1328 337.378 88.1953 337.386V338.605C88.1442 338.591 88.0533 338.575 87.9226 338.558C87.7919 338.538 87.6612 338.528 87.5305 338.528C87.2294 338.528 86.9609 338.592 86.7251 338.72C86.4922 338.845 86.3075 339.02 86.1712 339.244C86.0348 339.466 85.9666 339.719 85.9666 340.003V344H84.6925ZM89.2979 344V337.455H90.521V338.52H90.6019C90.7383 338.159 90.9613 337.878 91.271 337.676C91.5806 337.472 91.9513 337.369 92.3832 337.369C92.8207 337.369 93.1871 337.472 93.4826 337.676C93.7809 337.881 94.0011 338.162 94.1431 338.52H94.2113C94.3675 338.17 94.6161 337.892 94.957 337.685C95.2979 337.474 95.7042 337.369 96.1758 337.369C96.7695 337.369 97.2539 337.555 97.6289 337.928C98.0067 338.3 98.1957 338.861 98.1957 339.611V344H96.9215V339.73C96.9215 339.287 96.8008 338.966 96.5593 338.767C96.3178 338.568 96.0295 338.469 95.6942 338.469C95.2795 338.469 94.957 338.597 94.7269 338.852C94.4968 339.105 94.3817 339.43 94.3817 339.828V344H93.1119V339.649C93.1119 339.294 93.0011 339.009 92.7795 338.793C92.5579 338.577 92.2695 338.469 91.9144 338.469C91.6729 338.469 91.4499 338.533 91.2454 338.661C91.0437 338.786 90.8803 338.96 90.7553 339.185C90.6332 339.409 90.5721 339.669 90.5721 339.964V344H89.2979ZM101.808 344.145C101.393 344.145 101.018 344.068 100.683 343.915C100.348 343.759 100.082 343.533 99.8864 343.237C99.6932 342.942 99.5966 342.58 99.5966 342.151C99.5966 341.781 99.6676 341.477 99.8097 341.239C99.9517 341 100.143 340.811 100.385 340.672C100.626 340.533 100.896 340.428 101.195 340.357C101.493 340.286 101.797 340.232 102.107 340.195C102.499 340.149 102.817 340.112 103.061 340.084C103.305 340.053 103.483 340.003 103.594 339.935C103.705 339.866 103.76 339.756 103.76 339.602V339.572C103.76 339.2 103.655 338.912 103.445 338.707C103.237 338.503 102.928 338.401 102.516 338.401C102.087 338.401 101.749 338.496 101.501 338.686C101.257 338.874 101.088 339.082 100.994 339.312L99.7969 339.04C99.9389 338.642 100.146 338.321 100.419 338.077C100.695 337.83 101.011 337.651 101.369 337.54C101.727 337.426 102.104 337.369 102.499 337.369C102.76 337.369 103.037 337.401 103.33 337.463C103.625 337.523 103.901 337.634 104.156 337.795C104.415 337.957 104.626 338.189 104.791 338.49C104.956 338.788 105.038 339.176 105.038 339.653V344H103.794V343.105H103.743C103.661 343.27 103.537 343.432 103.372 343.591C103.207 343.75 102.996 343.882 102.737 343.987C102.479 344.092 102.169 344.145 101.808 344.145ZM102.085 343.122C102.438 343.122 102.739 343.053 102.989 342.913C103.241 342.774 103.433 342.592 103.564 342.368C103.697 342.141 103.764 341.898 103.764 341.639V340.795C103.719 340.841 103.631 340.884 103.5 340.923C103.372 340.96 103.226 340.993 103.061 341.021C102.896 341.047 102.736 341.071 102.58 341.094C102.423 341.114 102.293 341.131 102.188 341.145C101.94 341.176 101.714 341.229 101.51 341.303C101.308 341.376 101.146 341.483 101.024 341.622C100.905 341.759 100.845 341.94 100.845 342.168C100.845 342.483 100.962 342.722 101.195 342.884C101.428 343.043 101.724 343.122 102.085 343.122ZM109.791 337.455V338.477H106.216V337.455H109.791ZM107.174 335.886H108.449V342.078C108.449 342.325 108.485 342.511 108.559 342.636C108.633 342.759 108.728 342.842 108.845 342.888C108.964 342.93 109.093 342.952 109.233 342.952C109.335 342.952 109.424 342.945 109.501 342.93C109.578 342.916 109.637 342.905 109.68 342.896L109.91 343.949C109.836 343.977 109.731 344.006 109.595 344.034C109.458 344.065 109.288 344.082 109.083 344.085C108.748 344.091 108.436 344.031 108.146 343.906C107.856 343.781 107.622 343.588 107.443 343.327C107.264 343.065 107.174 342.737 107.174 342.342V335.886Z" fill="#9DA7AE"/>
<path d="M37.1186 363V352.818H38.6548V357.243H43.7308V352.818H45.272V363H43.7308V358.56H38.6548V363H37.1186ZM50.6811 363.154C49.9287 363.154 49.2808 362.993 48.7372 362.672C48.197 362.347 47.7794 361.891 47.4844 361.305C47.1927 360.715 47.0469 360.024 47.0469 359.232C47.0469 358.449 47.1927 357.76 47.4844 357.163C47.7794 356.567 48.1903 356.101 48.7173 355.766C49.2476 355.432 49.8674 355.264 50.5767 355.264C51.0076 355.264 51.4252 355.335 51.8295 355.478C52.2339 355.621 52.5968 355.844 52.9183 356.149C53.2398 356.454 53.4934 356.85 53.679 357.337C53.8646 357.821 53.9574 358.41 53.9574 359.102V359.629H47.8871V358.516H52.5007C52.5007 358.125 52.4212 357.778 52.2621 357.477C52.103 357.172 51.8793 356.931 51.5909 356.756C51.3059 356.58 50.9711 356.492 50.5866 356.492C50.169 356.492 49.8045 356.595 49.4929 356.8C49.1847 357.003 48.946 357.268 48.777 357.596C48.6113 357.921 48.5284 358.274 48.5284 358.655V359.525C48.5284 360.035 48.6179 360.469 48.7969 360.827C48.9792 361.185 49.2327 361.459 49.5575 361.648C49.8823 361.833 50.2618 361.926 50.696 361.926C50.9777 361.926 51.2346 361.886 51.4666 361.807C51.6986 361.724 51.8991 361.601 52.0682 361.439C52.2372 361.277 52.3665 361.076 52.456 360.837L53.8629 361.091C53.7502 361.505 53.5481 361.868 53.2564 362.18C52.968 362.488 52.6051 362.728 52.1676 362.901C51.7334 363.07 51.2379 363.154 50.6811 363.154ZM56.6023 355.364L58.2876 358.337L59.9879 355.364H61.6136L59.2322 359.182L61.6335 363H60.0078L58.2876 360.146L56.5724 363H54.9418L57.3182 359.182L54.9716 355.364H56.6023Z" fill="#1F1F28"/>
<path d="M273.25 353.25C273.039 353.25 272.852 353.18 272.711 353.039L268.211 348.539C267.906 348.258 267.906 347.766 268.211 347.484C268.492 347.18 268.984 347.18 269.266 347.484L273.25 351.445L277.211 347.484C277.492 347.18 277.984 347.18 278.266 347.484C278.57 347.766 278.57 348.258 278.266 348.539L273.766 353.039C273.625 353.18 273.438 353.25 273.25 353.25Z" fill="#9DA7AE"/>
<rect x="24.5" y="326.5" width="266" height="45" rx="5.5" stroke="#E0E2E7"/>
<rect x="8.5" y="4.5" width="298" height="383" rx="7.5" stroke="#E0E2E7" shape-rendering="crispEdges"/>
</g>
<defs>
<filter id="filter0_d_315_3288" x="0" y="0" width="315" height="400" filterUnits="userSpaceOnUse" color-interpolation-filters="sRGB">
<feFlood flood-opacity="0" result="BackgroundImageFix"/>
<feColorMatrix in="SourceAlpha" type="matrix" values="0 0 0 0 0 0 0 0 0 0 0 0 0 0 0 0 0 0 127 0" result="hardAlpha"/>
<feOffset dy="4"/>
<feGaussianBlur stdDeviation="4"/>
<feComposite in2="hardAlpha" operator="out"/>
<feColorMatrix type="matrix" values="0 0 0 0 0.121569 0 0 0 0 0.121569 0 0 0 0 0.156863 0 0 0 0.15 0"/>
<feBlend mode="normal" in2="BackgroundImageFix" result="effect1_dropShadow_315_3288"/>
<feBlend mode="normal" in="SourceGraphic" in2="effect1_dropShadow_315_3288" result="shape"/>
</filter>
<filter id="filter1_d_315_3288" x="186" y="24" width="31" height="31" filterUnits="userSpaceOnUse" color-interpolation-filters="sRGB">
<feFlood flood-opacity="0" result="BackgroundImageFix"/>
<feColorMatrix in="SourceAlpha" type="matrix" values="0 0 0 0 0 0 0 0 0 0 0 0 0 0 0 0 0 0 127 0" result="hardAlpha"/>
<feOffset/>
<feGaussianBlur stdDeviation="3"/>
<feComposite in2="hardAlpha" operator="out"/>
<feColorMatrix type="matrix" values="0 0 0 0 0 0 0 0 0 0 0 0 0 0 0 0 0 0 0.25 0"/>
<feBlend mode="normal" in2="BackgroundImageFix" result="effect1_dropShadow_315_3288"/>
<feBlend mode="normal" in="SourceGraphic" in2="effect1_dropShadow_315_3288" result="shape"/>
</filter>
<filter id="filter2_d_315_3288" x="158.5" y="208" width="32" height="32" filterUnits="userSpaceOnUse" color-interpolation-filters="sRGB">
<feFlood flood-opacity="0" result="BackgroundImageFix"/>
<feColorMatrix in="SourceAlpha" type="matrix" values="0 0 0 0 0 0 0 0 0 0 0 0 0 0 0 0 0 0 127 0" result="hardAlpha"/>
<feOffset/>
<feGaussianBlur stdDeviation="3"/>
<feComposite in2="hardAlpha" operator="out"/>
<feColorMatrix type="matrix" values="0 0 0 0 0 0 0 0 0 0 0 0 0 0 0 0 0 0 0.25 0"/>
<feBlend mode="normal" in2="BackgroundImageFix" result="effect1_dropShadow_315_3288"/>
<feBlend mode="normal" in="SourceGraphic" in2="effect1_dropShadow_315_3288" result="shape"/>
</filter>
<radialGradient id="paint0_radial_315_3288" cx="0" cy="0" r="1" gradientUnits="userSpaceOnUse" gradientTransform="translate(24 20) rotate(32.1787) scale(315.457 342.119)">
<stop stop-color="white"/>
<stop offset="0.496838" stop-color="#178EE8"/>
<stop offset="1" stop-color="#020000"/>
</radialGradient>
<linearGradient id="paint1_linear_315_3288" x1="287.5" y1="232" x2="459.5" y2="232" gradientUnits="userSpaceOnUse">
<stop stop-color="#FF0000"/>
<stop offset="0.125" stop-color="#FF9900"/>
<stop offset="0.28125" stop-color="#FFE601"/>
<stop offset="0.427083" stop-color="#43FF01"/>
<stop offset="0.557292" stop-color="#00F0FF"/>
<stop offset="0.692708" stop-color="#001FFF"/>
<stop offset="0.848958" stop-color="#FF0AD8"/>
<stop offset="1" stop-color="#FD0000"/>
</linearGradient>
</defs>
</svg>
