<svg width="43" height="43" viewBox="0 0 43 43" fill="none" xmlns="http://www.w3.org/2000/svg">
<rect width="42.1041" height="42.1041" rx="14.9256" fill="#F3569A"/>
<path d="M17.9081 18.9514C18.7436 18.9514 19.5448 18.6195 20.1355 18.0288C20.7262 17.438 21.0581 16.6368 21.0581 15.8014C21.0581 14.9659 20.7262 14.1647 20.1355 13.574C19.5448 12.9832 18.7436 12.6514 17.9081 12.6514C17.0727 12.6514 16.2715 12.9832 15.6807 13.574C15.09 14.1647 14.7581 14.9659 14.7581 15.8014C14.7581 16.6368 15.09 17.438 15.6807 18.0288C16.2715 18.6195 17.0727 18.9514 17.9081 18.9514ZM25.7831 20.0014C26.4793 20.0014 27.147 19.7248 27.6393 19.2325C28.1316 18.7402 28.4081 18.0726 28.4081 17.3764C28.4081 16.6802 28.1316 16.0125 27.6393 15.5202C27.147 15.0279 26.4793 14.7514 25.7831 14.7514C25.0869 14.7514 24.4192 15.0279 23.927 15.5202C23.4347 16.0125 23.1581 16.6802 23.1581 17.3764C23.1581 18.0726 23.4347 18.7402 23.927 19.2325C24.4192 19.7248 25.0869 20.0014 25.7831 20.0014ZM12.2539 27.8008C12.048 27.6725 11.8827 27.4885 11.7769 27.2702C11.6712 27.0519 11.6294 26.8081 11.6564 26.567C11.85 25.0456 12.5917 23.647 13.7426 22.6333C14.8934 21.6196 16.3745 21.0603 17.9081 21.0603C19.4418 21.0603 20.9228 21.6196 22.0737 22.6333C23.2245 23.647 23.9662 25.0456 24.1598 26.567C24.2207 27.0574 23.9792 27.533 23.5613 27.7997C21.8742 28.8808 19.9119 29.4542 17.9081 29.4514C15.9041 29.4547 13.9414 28.8817 12.2539 27.8008ZM25.7831 27.3514H25.6718C25.7453 27.0395 25.7642 26.7098 25.7222 26.3717C25.5428 24.9283 24.9655 23.5632 24.0548 22.429C24.6409 22.1984 25.267 22.0872 25.8966 22.102C26.5262 22.1168 27.1465 22.2572 27.7211 22.515C28.2957 22.7729 28.8129 23.1429 29.2425 23.6034C29.672 24.064 30.0052 24.6057 30.2225 25.1968C30.2893 25.3855 30.288 25.5915 30.219 25.7794C30.15 25.9673 30.0176 26.1252 29.8445 26.2258C28.6189 26.9647 27.2143 27.354 25.7831 27.3514Z" fill="white"/>
</svg>
