<svg width="52" height="52" viewBox="0 0 52 52" fill="none" xmlns="http://www.w3.org/2000/svg">
<path d="M4.32812 26.0002C4.32812 15.7865 4.32812 10.6797 7.50013 7.5055C10.6765 4.3335 15.7811 4.3335 25.9948 4.3335C36.2085 4.3335 41.3153 4.3335 44.4873 7.5055C47.6615 10.6818 47.6615 15.7865 47.6615 26.0002C47.6615 36.2138 47.6615 41.3207 44.4873 44.4927C41.3175 47.6668 36.2085 47.6668 25.9948 47.6668C15.7811 47.6668 10.6743 47.6668 7.50013 44.4927C4.32812 41.3228 4.32812 36.2138 4.32812 26.0002Z" fill="url(#paint0_linear_5673_39220)" fill-opacity="0.1" stroke="url(#paint1_linear_5673_39220)" stroke-width="3"/>
<path d="M29.8633 33.625C29.8633 33.636 29.8577 33.762 29.5791 33.9814C29.3089 34.1943 28.873 34.4172 28.2705 34.6182C27.0726 35.0176 25.3716 35.2773 23.4609 35.2773C21.5503 35.2773 19.8493 35.0176 18.6514 34.6182C18.0489 34.4172 17.613 34.1943 17.3428 33.9814C17.0642 33.762 17.0586 33.636 17.0586 33.625V33.2588C17.7283 33.5516 18.4849 33.7773 19.2783 33.9443C20.5766 34.2175 22.0254 34.3477 23.4609 34.3477C24.8965 34.3477 26.3453 34.2175 27.6436 33.9443C28.437 33.7773 29.1936 33.5516 29.8633 33.2588V33.625ZM29.8633 30.0625C29.8633 30.0735 29.8577 30.1995 29.5791 30.4189C29.3089 30.6318 28.873 30.8547 28.2705 31.0557C27.0726 31.4551 25.3716 31.7148 23.4609 31.7148C21.5503 31.7148 19.8493 31.4551 18.6514 31.0557C18.0489 30.8547 17.613 30.6318 17.3428 30.4189C17.0642 30.1995 17.0586 30.0735 17.0586 30.0625V29.4668C18.8031 30.3615 21.183 30.7852 23.4609 30.7852C25.7389 30.7852 28.1187 30.3615 29.8633 29.4668V30.0625ZM23.4609 23.6602C25.3562 23.6602 27.0388 23.9813 28.2207 24.4736C28.813 24.7203 29.2453 24.9957 29.5186 25.2646C29.7892 25.5312 29.8633 25.7478 29.8633 25.9062C29.8633 26.0647 29.7892 26.2813 29.5186 26.5479C29.2453 26.8168 28.813 27.0922 28.2207 27.3389C27.0388 27.8312 25.3562 28.1523 23.4609 28.1523C21.5657 28.1523 19.8831 27.8312 18.7012 27.3389C18.1089 27.0922 17.6766 26.8168 17.4033 26.5479C17.1326 26.2813 17.0586 26.0647 17.0586 25.9062C17.0586 25.7478 17.1326 25.5312 17.4033 25.2646C17.6766 24.9957 18.1089 24.7203 18.7012 24.4736C19.8831 23.9813 21.5657 23.6602 23.4609 23.6602ZM34.6133 26.5C34.6133 26.5217 34.5775 26.7467 33.9971 27.0742C33.6249 27.2842 33.1173 27.48 32.4961 27.6475V26.7881C33.2526 26.6246 33.9729 26.4097 34.6133 26.1318V26.5ZM34.6133 22.9375C34.6133 22.9614 34.5714 23.1993 33.9551 23.5371C33.4891 23.7924 32.8248 24.0254 32.002 24.208C31.8347 23.9276 31.6301 23.6689 31.3945 23.4316C32.5693 23.2586 33.6816 22.9777 34.6133 22.5703V22.9375ZM28.2109 17.7227C30.1216 17.7227 31.8226 17.9824 33.0205 18.3818C33.623 18.5828 34.0589 18.8057 34.3291 19.0186C34.6077 19.238 34.6133 19.364 34.6133 19.375C34.6133 19.386 34.6077 19.512 34.3291 19.7314C34.0589 19.9443 33.623 20.1672 33.0205 20.3682C31.8226 20.7676 30.1216 21.0273 28.2109 21.0273C26.3003 21.0273 24.5993 20.7676 23.4014 20.3682C22.7989 20.1672 22.363 19.9443 22.0928 19.7314C21.8142 19.512 21.8086 19.386 21.8086 19.375C21.8086 19.364 21.8142 19.238 22.0928 19.0186C22.363 18.8057 22.7989 18.5828 23.4014 18.3818C24.5993 17.9824 26.3003 17.7227 28.2109 17.7227Z" fill="url(#paint2_linear_5673_39220)" stroke="url(#paint3_linear_5673_39220)" stroke-width="1.44444"/>
<defs>
<linearGradient id="paint0_linear_5673_39220" x1="4.32813" y1="42.3458" x2="52.4936" y2="31.8685" gradientUnits="userSpaceOnUse">
<stop stop-color="#3AA0FF"/>
<stop offset="0.984375" stop-color="#53D0F7"/>
</linearGradient>
<linearGradient id="paint1_linear_5673_39220" x1="4.32813" y1="42.3458" x2="52.4936" y2="31.8685" gradientUnits="userSpaceOnUse">
<stop stop-color="#3AA0FF"/>
<stop offset="0.984375" stop-color="#53D0F7"/>
</linearGradient>
<linearGradient id="paint2_linear_5673_39220" x1="16.3359" y1="33.6669" x2="37.4546" y2="29.073" gradientUnits="userSpaceOnUse">
<stop stop-color="#3AA0FF"/>
<stop offset="0.984375" stop-color="#53D0F7"/>
</linearGradient>
<linearGradient id="paint3_linear_5673_39220" x1="16.3359" y1="33.6669" x2="37.4546" y2="29.073" gradientUnits="userSpaceOnUse">
<stop stop-color="#3AA0FF"/>
<stop offset="0.984375" stop-color="#53D0F7"/>
</linearGradient>
</defs>
</svg>
