<svg width="48" height="48" viewBox="0 0 48 48" fill="none" xmlns="http://www.w3.org/2000/svg">
<path d="M39.6142 39.6142C40.3633 40.3633 41.5845 40.3679 42.2714 39.5614C44.9197 36.4519 46.7379 32.7088 47.5388 28.6822C48.4649 24.0266 47.9896 19.201 46.1731 14.8156C44.3566 10.4302 41.2805 6.68188 37.3337 4.04473C33.3869 1.40758 28.7468 2.16906e-07 24 0C19.2533 -2.16906e-07 14.6131 1.40758 10.6663 4.04473C6.71954 6.68188 3.6434 10.4302 1.82689 14.8156C0.0103883 19.201 -0.464892 24.0266 0.461153 28.6822C1.26211 32.7088 3.08026 36.4519 5.72859 39.5614C6.41552 40.3679 7.63672 40.3633 8.38584 39.6142C9.13496 38.865 9.12689 37.6558 8.45232 36.8389C6.33409 34.2738 4.8768 31.2159 4.22393 27.9337C3.44591 24.0224 3.84522 19.9682 5.37135 16.2838C6.89748 12.5994 9.48188 9.45025 12.7978 7.23465C16.1136 5.01906 20.012 3.83649 24 3.83649C27.988 3.83649 31.8864 5.01906 35.2022 7.23465C38.5181 9.45025 41.1025 12.5994 42.6287 16.2838C44.1548 19.9682 44.5541 24.0224 43.7761 27.9337C43.1232 31.2159 41.6659 34.2738 39.5477 36.8389C38.8731 37.6558 38.865 38.865 39.6142 39.6142Z" fill="white" fill-opacity="0.15"/>
<path d="M24 1.91825C24 0.858828 23.1398 -0.00797104 22.0837 0.0766106C18.0123 0.402703 14.08 1.7638 10.6663 4.04473C6.71953 6.68188 3.64339 10.4302 1.82689 14.8156C0.0103881 19.201 -0.464892 24.0266 0.461153 28.6822C1.3872 33.3377 3.67298 37.6141 7.02944 40.9706C10.3859 44.327 14.6623 46.6128 19.3178 47.5388C23.9734 48.4649 28.799 47.9896 33.1844 46.1731C37.5698 44.3566 41.3181 41.2805 43.9553 37.3337C46.2362 33.92 47.5973 29.9877 47.9234 25.9163C48.008 24.8602 47.1412 24 46.0818 24C45.0223 24 44.173 24.8608 44.0723 25.9154C43.7563 29.227 42.6246 32.4197 40.7653 35.2022C38.5498 38.5181 35.4006 41.1025 31.7162 42.6287C28.0318 44.1548 23.9776 44.5541 20.0663 43.7761C16.155 42.9981 12.5622 41.0777 9.74225 38.2578C6.92233 35.4378 5.00194 31.845 4.22393 27.9337C3.44591 24.0224 3.84522 19.9682 5.37135 16.2838C6.89747 12.5994 9.48188 9.45025 12.7978 7.23465C15.5803 5.37544 18.773 4.24365 22.0846 3.92766C23.1392 3.82703 24 2.97766 24 1.91825Z" fill="#00D4FF"/>
</svg>
