<svg width="1000" height="600" viewBox="0 0 1000 600" fill="none" xmlns="http://www.w3.org/2000/svg">
<path d="M468.547 17.0046V351.707C467.442 363.605 463.378 380.01 449.371 388.128L403.906 414.312C403.819 414.312 403.819 414.412 403.728 414.412L400.595 416.239C399.116 416.805 397.55 417.07 395.893 417.07C388.793 417.07 382.89 411.271 382.89 404.076V89.202C382.89 88.2797 382.89 87.4488 382.981 86.5265C382.89 86.4352 382.89 86.248 382.981 86.1567C383.159 84.6865 383.259 83.1159 383.629 81.7325C383.803 80.9015 384.177 79.9793 384.634 79.2396C385.373 77.9521 386.401 76.66 387.592 75.7377C387.684 75.5551 387.866 75.3679 388.053 75.2766H388.14C388.241 75.1853 388.423 75.0894 388.51 74.9981C389.154 74.537 389.807 74.0758 390.633 73.7973C390.724 73.7151 390.916 73.6147 391.094 73.6147C391.286 73.5279 391.464 73.4275 391.555 73.4275C392.939 72.875 394.418 72.6057 395.989 72.6057H396.267C397.833 72.6057 399.299 72.875 400.595 73.5279L388.98 66.6109C392.016 61.1686 396.167 56.4659 401.061 52.786C401.143 52.6855 401.235 52.6855 401.335 52.6033C401.609 52.4116 401.974 52.1331 402.253 51.9504L409.909 47.6176L457.206 20.5065C457.206 20.5065 457.206 20.4151 457.297 20.4151L459.881 18.9404C462.47 17.6529 465.227 17 468.277 17H468.551L468.547 17.0046Z" fill="white"/>
<path d="M617.078 109.401V158.167C616.165 170.065 611.919 186.474 597.998 194.496L552.633 220.685L549.127 222.703C547.657 223.265 546.186 223.543 544.515 223.543C537.42 223.543 531.613 217.74 531.613 210.444V159.053C531.613 154.218 529.064 149.742 524.907 147.274L468.542 113.82L467.803 113.354L404.184 75.6464L400.586 73.5279C399.29 72.875 397.824 72.6056 396.258 72.6056H395.979C394.409 72.6056 392.93 72.875 391.546 73.4274C391.455 73.4274 391.277 73.5279 391.085 73.6146C390.907 73.6146 390.715 73.7151 390.624 73.7973C389.797 74.0758 389.145 74.5369 388.501 74.998C388.414 75.0894 388.231 75.1852 388.131 75.2766H388.044C387.857 75.3679 387.674 75.5551 387.583 75.7377C386.391 76.66 385.364 77.9521 384.625 79.2396C384.168 79.9792 383.794 80.9015 383.62 81.7325C384.451 76.1988 386.296 71.2176 388.971 66.6154C392.007 61.1731 396.158 56.4704 401.052 52.7905C401.134 52.69 401.225 52.69 401.326 52.6079L409.9 47.8047L411.654 46.7911L457.196 20.511C457.196 20.511 457.196 20.4197 457.288 20.4197L459.872 18.9449C462.461 17.6574 465.218 17.0045 468.268 17.0045H468.542C471.861 17.105 474.902 17.9268 477.578 19.4061L609.252 97.4932C609.526 97.5937 609.791 97.7855 610.166 97.9635L611.645 98.8858C611.828 98.9725 611.919 99.0684 612.101 99.1643C613.407 100.269 614.503 101.47 615.334 103.031C616.53 104.881 617.078 107.095 617.078 109.405V109.401Z" fill="white"/>
<path d="M570.549 271.634C570.49 271.69 544.512 286.611 535.01 292.068C532.883 293.29 531.581 295.55 531.581 298.002V404.034C531.581 411.244 537.43 417.101 544.566 417.101C546.246 417.101 547.83 416.796 549.36 416.17C549.428 416.17 549.52 416.106 549.584 416.106L552.241 414.513C552.29 414.513 552.341 414.49 552.396 414.444L608.901 382.078C608.901 382.078 608.992 382 609.052 382L611.426 380.631C611.558 380.548 611.718 380.471 611.855 380.316C613.152 379.343 614.298 378.124 615.129 376.759C615.22 376.677 615.289 376.526 615.371 376.444C616.508 374.549 617.115 372.289 617.115 369.924V303.598C617.115 263.032 596.295 256.663 570.545 271.634H570.549Z" fill="white"/>
<path d="M50 518.204H79.1931C91.0685 518.204 100.465 526.678 100.465 538.207C100.465 547.484 93.9312 555.949 83.7086 557.794L101.661 582.672H93.7394L76.0656 558.163H56.9033V582.672H50V518.2V518.204ZM56.9033 524.195V552.182H77.4444C88.4067 552.182 93.5659 546.384 93.5659 538.211C93.5659 529.354 87.6716 524.195 77.4444 524.195H56.9033Z" fill="white"/>
<path d="M170.968 518.204V524.195H131.84V547.489H165.991V553.388H131.84V576.691H170.968V582.681H124.923V518.209H170.968V518.204Z" fill="white"/>
<path d="M194.034 518.204H220.173C232.057 518.204 241.449 526.678 241.449 538.207C241.449 548.758 232.989 558.168 220.273 558.168H200.938V582.677H194.034V518.204ZM200.938 524.195V552.182H218.42C229.396 552.182 234.55 546.384 234.55 538.211C234.55 529.258 228.565 524.195 218.42 524.195H200.938Z" fill="white"/>
<path d="M261.132 550.251C261.132 531.459 276.609 517.273 295.027 517.273C313.445 517.273 328.823 531.746 328.823 550.251C328.823 568.756 313.345 583.59 294.936 583.59C276.335 583.681 261.127 568.76 261.127 550.251H261.132ZM295.032 577.609C309.861 577.609 321.933 564.797 321.933 550.251C321.933 535.705 309.861 523.286 295.032 523.286C280.202 523.286 268.044 535.604 268.044 550.251C268.044 564.898 280.102 577.609 295.032 577.609Z" fill="white"/>
<path d="M353.482 518.204H382.693C394.569 518.204 403.96 526.678 403.96 538.207C403.96 547.484 397.427 555.949 387.191 557.794L405.152 582.672H397.235L379.557 558.163H360.395V582.672H353.478V518.2L353.482 518.204ZM360.399 524.195V552.182H380.936C391.907 552.182 397.053 546.384 397.053 538.211C397.053 529.354 391.158 524.195 380.936 524.195H360.399Z" fill="white"/>
<path d="M420.347 524.195V518.204H470.999V524.195H449.069V582.677H442.18V524.195H420.351H420.347Z" fill="white"/>
<path d="M499.013 582.677H492.133V518.204H499.013V582.677Z" fill="white"/>
<path d="M527.796 518.204H535.635L576.151 573.837V518.204H583.064V582.677H574.59L534.722 527.692V582.677H527.796V518.204Z" fill="white"/>
<path d="M607.669 550.616C607.669 531.943 623.146 517.273 641.555 517.273C651.134 517.273 660.247 521.236 666.694 528.422L662.092 532.577C656.942 526.961 650.413 523.291 641.555 523.291C626.644 523.291 614.572 536.061 614.572 550.621C614.572 565.181 626.831 577.613 641.651 577.613C649.203 577.613 654.809 575.011 659.247 571.057V554.392H636.218V548.521H666.142V572.618C660.425 579.91 651.13 583.594 641.551 583.594C622.868 583.594 607.664 569.13 607.664 550.625L607.669 550.616Z" fill="white"/>
<path d="M739.398 518.204L739.499 544.256H769.335V518.204H784.813V582.677H769.335V556.684H739.499V582.677H724.012V518.204H739.398Z" fill="white"/>
<path d="M809.125 557.894V518.2H824.594V557.99C824.594 565.085 829.123 571.148 837.487 571.148C845.851 571.148 850.495 565.085 850.495 557.99L850.394 518.2H865.863L865.945 557.99C865.945 574.764 852.787 583.677 837.601 583.677C822.416 583.677 809.125 574.764 809.125 557.889V557.894Z" fill="white"/>
<path d="M924.217 518.204C940.521 518.204 947.708 525.856 947.708 534.869C947.708 541.133 944.484 546.201 939.133 548.694C945.114 550.347 950 555.607 950 563.615C950 574.655 942.183 582.681 926.144 582.681H890.239V518.209H924.217V518.204ZM905.708 530.733V544.092H923.487C929.924 544.092 932.426 541.133 932.426 537.28C932.426 533.426 929.468 530.733 923.487 530.733H905.708ZM905.708 555.502V570.13H925.144C931.207 570.13 934.531 567.29 934.531 562.688C934.531 558.086 931.207 555.502 925.308 555.502H905.703H905.708Z" fill="white"/>
</svg>
