<svg width="75" height="75" viewBox="0 0 75 75" fill="none" xmlns="http://www.w3.org/2000/svg">
<g filter="url(#filter0_d_5673_37707)">
<rect x="9.39844" y="5.3999" width="56" height="56" rx="12" fill="url(#paint0_linear_5673_37707)" fill-opacity="0.9" shape-rendering="crispEdges"/>
<path d="M50.3984 24.1142V26.4356C50.3984 28.4814 44.7995 30.1499 37.8984 30.1499C30.9974 30.1499 25.3984 28.4814 25.3984 26.4356V24.1142C25.3984 22.0684 30.9974 20.3999 37.8984 20.3999C44.7995 20.3999 50.3984 22.0684 50.3984 24.1142ZM50.3984 29.3374V34.5606C50.3984 36.6064 44.7995 38.2749 37.8984 38.2749C30.9974 38.2749 25.3984 36.6064 25.3984 34.5606V29.3374C28.084 31.0204 32.9993 31.8039 37.8984 31.8039C42.7975 31.8039 47.7128 31.0204 50.3984 29.3374ZM50.3984 37.4624V42.6856C50.3984 44.7314 44.7995 46.3999 37.8984 46.3999C30.9974 46.3999 25.3984 44.7314 25.3984 42.6856V37.4624C28.084 39.1454 32.9993 39.9289 37.8984 39.9289C42.7975 39.9289 47.7128 39.1454 50.3984 37.4624Z" fill="white"/>
</g>
<defs>
<filter id="filter0_d_5673_37707" x="-0.00156212" y="-9.72748e-05" width="74.8" height="74.8" filterUnits="userSpaceOnUse" color-interpolation-filters="sRGB">
<feFlood flood-opacity="0" result="BackgroundImageFix"/>
<feColorMatrix in="SourceAlpha" type="matrix" values="0 0 0 0 0 0 0 0 0 0 0 0 0 0 0 0 0 0 127 0" result="hardAlpha"/>
<feOffset dy="4"/>
<feGaussianBlur stdDeviation="4.7"/>
<feComposite in2="hardAlpha" operator="out"/>
<feColorMatrix type="matrix" values="0 0 0 0 0.581961 0 0 0 0 0.0901961 0 0 0 0 0.909804 0 0 0 0.33 0"/>
<feBlend mode="normal" in2="BackgroundImageFix" result="effect1_dropShadow_5673_37707"/>
<feBlend mode="normal" in="SourceGraphic" in2="effect1_dropShadow_5673_37707" result="shape"/>
</filter>
<linearGradient id="paint0_linear_5673_37707" x1="9.39844" y1="5.3999" x2="65.3984" y2="61.3999" gradientUnits="userSpaceOnUse">
<stop stop-color="#9E74F8"/>
<stop offset="1" stop-color="#7E3FE2"/>
</linearGradient>
</defs>
</svg>
