<svg width="20" height="20" viewBox="0 0 20 20" fill="none" xmlns="http://www.w3.org/2000/svg">
<g clip-path="url(#clip0_1765_37050)">
<path d="M13.4683 20C12.675 20.0017 11.9308 19.68 11.3858 19.1017L9.39333 16.9892C9.0775 16.6542 9.09333 16.1267 9.42833 15.8108C9.76333 15.495 10.2908 15.5108 10.6067 15.8458L12.5992 17.9583C13.0392 18.4442 13.8583 18.4567 14.3125 17.9833L18.5683 13.5867C18.8892 13.2567 19.4167 13.2483 19.7467 13.5683C20.0775 13.8883 20.0858 14.4158 19.7658 14.7467L15.5 19.1533C14.9492 19.7042 14.2325 20 13.4683 20ZM9.94167 20H4.16667C1.86917 20 0 18.1308 0 15.8333V4.16667C0 1.86917 1.86917 0 4.16667 0H10.8333C13.1308 0 15 1.86917 15 4.16667V14.8767L13.4717 16.4558L11.82 14.7033C11.3617 14.2175 10.7417 13.9383 10.0742 13.9192C9.3975 13.8958 8.77167 14.1408 8.28583 14.5992C7.8 15.0575 7.52167 15.6767 7.5025 16.345C7.48333 17.0125 7.72417 17.6475 8.1825 18.1333L9.94333 20.0008L9.94167 20ZM3.33333 5C3.33333 5.46 3.70667 5.83333 4.16667 5.83333H10.8333C11.2942 5.83333 11.6667 5.46 11.6667 5C11.6667 4.54 11.2942 4.16667 10.8333 4.16667H4.16667C3.70667 4.16667 3.33333 4.54 3.33333 5ZM3.33333 9.16667C3.33333 9.62667 3.70667 10 4.16667 10H10.8333C11.2942 10 11.6667 9.62667 11.6667 9.16667C11.6667 8.70667 11.2942 8.33333 10.8333 8.33333H4.16667C3.70667 8.33333 3.33333 8.70667 3.33333 9.16667ZM4.16667 14.1667H6.66667C7.12667 14.1667 7.5 13.7933 7.5 13.3333C7.5 12.8733 7.12667 12.5 6.66667 12.5H4.16667C3.70667 12.5 3.33333 12.8733 3.33333 13.3333C3.33333 13.7933 3.70667 14.1667 4.16667 14.1667Z" fill="#787A88"/>
</g>
<defs>
<clipPath id="clip0_1765_37050">
<rect width="20" height="20" fill="white"/>
</clipPath>
</defs>
</svg>
