<svg width="60" height="60" viewBox="0 0 60 60" fill="none" xmlns="http://www.w3.org/2000/svg">
<rect width="60" height="60" rx="16" fill="#178EE8"/>
<g clip-path="url(#clip0_190_2200)">
<path fill-rule="evenodd" clip-rule="evenodd" d="M30 18.3359C29.6906 18.3359 29.3938 18.4589 29.175 18.6776C28.9562 18.8964 28.8333 19.1932 28.8333 19.5026V21.8359H21.8333C21.2145 21.8359 20.621 22.0818 20.1834 22.5194C19.7458 22.9569 19.5 23.5504 19.5 24.1693V39.3359C19.5 39.9548 19.7458 40.5483 20.1834 40.9859C20.621 41.4234 21.2145 41.6693 21.8333 41.6693H38.1667C38.7855 41.6693 39.379 41.4234 39.8166 40.9859C40.2542 40.5483 40.5 39.9548 40.5 39.3359V24.1693C40.5 23.5504 40.2542 22.9569 39.8166 22.5194C39.379 22.0818 38.7855 21.8359 38.1667 21.8359H31.1667V19.5026C31.1667 19.1932 31.0437 18.8964 30.825 18.6776C30.6062 18.4589 30.3094 18.3359 30 18.3359ZM31.1667 21.8359V32.1353L33.2993 30.0026C33.5181 29.7837 33.8149 29.6606 34.1243 29.6605C34.4338 29.6604 34.7307 29.7833 34.9496 30.002C35.1685 30.2208 35.2915 30.5175 35.2917 30.827C35.2918 31.1365 35.1689 31.4334 34.9502 31.6523L31.0302 35.5711C30.7567 35.8443 30.386 35.9978 29.9994 35.9978C29.6129 35.9978 29.2421 35.8443 28.9687 35.5711L25.0498 31.6523C24.9415 31.5439 24.8556 31.4152 24.797 31.2736C24.7384 31.132 24.7083 30.9803 24.7083 30.827C24.7084 30.6738 24.7386 30.5221 24.7973 30.3805C24.856 30.2389 24.942 30.1103 25.0504 30.002C25.1588 29.8937 25.2875 29.8078 25.4291 29.7492C25.5707 29.6906 25.7224 29.6605 25.8757 29.6605C26.0289 29.6606 26.1806 29.6908 26.3222 29.7495C26.4637 29.8082 26.5923 29.8942 26.7007 30.0026L28.8333 32.1353V21.8359H31.1667Z" fill="white"/>
</g>
<defs>
<clipPath id="clip0_190_2200">
<rect width="28" height="28" fill="white" transform="translate(16 16)"/>
</clipPath>
</defs>
</svg>
