<svg width="12" height="9" viewBox="0 0 12 9" fill="none" xmlns="http://www.w3.org/2000/svg">
<path d="M10.875 0C11.4844 0 12 0.515625 12 1.125C12 1.5 11.8125 1.82812 11.5312 2.03906L6.44531 5.85938C6.16406 6.07031 5.8125 6.07031 5.53125 5.85938L0.445312 2.03906C0.164062 1.82812 0 1.5 0 1.125C0 0.515625 0.492188 0 1.125 0H10.875ZM5.08594 6.46875C5.625 6.86719 6.35156 6.86719 6.89062 6.46875L12 2.625V7.5C12 8.34375 11.3203 9 10.5 9H1.5C0.65625 9 0 8.34375 0 7.5V2.625L5.08594 6.46875Z" fill="#787A88" fill-opacity="0.5"/>
</svg>
