<svg width="52" height="52" viewBox="0 0 52 52" fill="none" xmlns="http://www.w3.org/2000/svg">
<path d="M4.32812 26.0002C4.32812 15.7865 4.32812 10.6797 7.50013 7.5055C10.6765 4.3335 15.7811 4.3335 25.9948 4.3335C36.2085 4.3335 41.3153 4.3335 44.4873 7.5055C47.6615 10.6818 47.6615 15.7865 47.6615 26.0002C47.6615 36.2138 47.6615 41.3207 44.4873 44.4927C41.3175 47.6668 36.2085 47.6668 25.9948 47.6668C15.7811 47.6668 10.6743 47.6668 7.50013 44.4927C4.32812 41.3228 4.32812 36.2138 4.32812 26.0002Z" fill="url(#paint0_linear_5673_37743)" fill-opacity="0.1" stroke="url(#paint1_linear_5673_37743)" stroke-width="3"/>
<path d="M25.1133 31.5684C25.1069 32.7984 24.6901 33.699 24.0312 34.2988C23.3582 34.9114 22.3582 35.2773 21.0859 35.2773C19.6365 35.2772 18.6696 34.7089 18.041 33.8486C17.6286 33.2841 17.3444 32.5679 17.1914 31.7549C17.3279 31.8439 17.4651 31.93 17.5967 32.002C17.7045 32.0609 17.8208 32.1187 17.9375 32.1631C18.0424 32.203 18.2049 32.2549 18.3867 32.2549C18.9222 32.2547 19.4069 31.9376 19.6035 31.418L19.6025 31.417C19.9415 30.5244 20.3857 30.0117 20.8564 29.7031C21.268 29.4334 21.7494 29.2887 22.3018 29.2256L25.1133 31.5684ZM33.3281 17.7227C34.065 17.7227 34.6143 18.2516 34.6143 18.8389C34.6142 19.2518 34.4458 19.6927 34.1836 20.2041C32.0788 24.1324 30.7285 26.446 29.6348 27.7822C29.0951 28.4415 28.6498 28.822 28.2461 29.042C27.8555 29.2548 27.4626 29.3398 26.9844 29.3398C26.821 29.3398 26.6556 29.3199 26.4824 29.2842L24.3857 27.5361C24.2578 27.217 24.1836 26.8829 24.1836 26.54C24.1836 26.0942 24.2281 25.8328 24.3545 25.5693C24.4922 25.2823 24.7556 24.9332 25.3125 24.3809C26.4415 23.2612 28.4906 21.5679 32.3174 18.1494L32.3193 18.1475C32.6181 17.8791 32.9797 17.7227 33.3281 17.7227Z" fill="url(#paint2_linear_5673_37743)" stroke="url(#paint3_linear_5673_37743)" stroke-width="1.44444"/>
<defs>
<linearGradient id="paint0_linear_5673_37743" x1="4.32813" y1="42.3458" x2="52.4936" y2="31.8685" gradientUnits="userSpaceOnUse">
<stop stop-color="#3AA0FF"/>
<stop offset="0.984375" stop-color="#53D0F7"/>
</linearGradient>
<linearGradient id="paint1_linear_5673_37743" x1="4.32813" y1="42.3458" x2="52.4936" y2="31.8685" gradientUnits="userSpaceOnUse">
<stop stop-color="#3AA0FF"/>
<stop offset="0.984375" stop-color="#53D0F7"/>
</linearGradient>
<linearGradient id="paint2_linear_5673_37743" x1="16.3359" y1="33.6669" x2="37.455" y2="29.0729" gradientUnits="userSpaceOnUse">
<stop stop-color="#3AA0FF"/>
<stop offset="0.984375" stop-color="#53D0F7"/>
</linearGradient>
<linearGradient id="paint3_linear_5673_37743" x1="16.3359" y1="33.6669" x2="37.455" y2="29.0729" gradientUnits="userSpaceOnUse">
<stop stop-color="#3AA0FF"/>
<stop offset="0.984375" stop-color="#53D0F7"/>
</linearGradient>
</defs>
</svg>
