<svg width="32" height="32" viewBox="0 0 32 32" fill="none" xmlns="http://www.w3.org/2000/svg">
<path d="M12.2344 2.87988C12.262 2.87572 12.3053 2.88036 12.3574 2.93066C12.4121 2.98363 12.454 3.06935 12.4541 3.16895V18.2861L12.6504 18.4951L21.8193 28.2363C21.8743 28.2948 21.9086 28.3856 21.9033 28.4834C21.898 28.5794 21.8582 28.6398 21.8184 28.6699H21.8174C19.6803 30.2805 17.0881 31.2392 14.2861 31.2764C7.17729 31.3711 0.975732 25.1549 0.730469 17.5C0.491909 10.0412 5.6125 3.87416 12.2344 2.87988ZM31.0469 18.7217C31.0976 18.7218 31.1594 18.7457 31.2109 18.8057C31.2613 18.8644 31.2858 18.9405 31.2754 19.0195V19.0205C30.8369 22.3159 29.3431 25.2415 27.1787 27.4082C27.1451 27.4418 27.1059 27.4567 27.0615 27.4551C27.0142 27.4532 26.9577 27.4323 26.9102 27.3818L18.7598 18.7217H31.0469ZM16.9355 0.722656C23.5702 1.2089 28.9308 6.856 29.3945 13.9961V13.9971C29.4052 14.1651 29.2687 14.2773 29.1631 14.2773H16.7227V1.01465C16.7227 0.918965 16.7607 0.835183 16.8125 0.78125C16.8377 0.755111 16.8619 0.739764 16.8828 0.731445L16.9355 0.722656Z" fill="url(#paint0_linear_5690_34472)" stroke="url(#paint1_linear_5690_34472)" stroke-width="1.44444"/>
<defs>
<linearGradient id="paint0_linear_5690_34472" x1="1.03901e-06" y1="28.0703" x2="35.5684" y2="20.3331" gradientUnits="userSpaceOnUse">
<stop stop-color="#3AA0FF"/>
<stop offset="0.984375" stop-color="#53D0F7"/>
</linearGradient>
<linearGradient id="paint1_linear_5690_34472" x1="1.03901e-06" y1="28.0703" x2="35.5684" y2="20.3331" gradientUnits="userSpaceOnUse">
<stop stop-color="#3AA0FF"/>
<stop offset="0.984375" stop-color="#53D0F7"/>
</linearGradient>
</defs>
</svg>
