<svg width="32" height="32" viewBox="0 0 32 32" fill="none" xmlns="http://www.w3.org/2000/svg">
<path d="M30.9268 23.4141C31.1445 23.5128 31.2783 23.7344 31.2783 24.0068C31.2783 24.2791 31.1443 24.4999 30.9268 24.5986L16.3672 31.1982C16.1609 31.2917 15.9332 31.3035 15.7217 31.2334L15.6328 31.1982L1.07422 24.5986C0.856492 24.5 0.722696 24.2793 0.722656 24.0068C0.722656 23.7344 0.856459 23.5127 1.07422 23.4141L4.39258 21.9102L14.2109 26.3604C14.777 26.6168 15.3797 26.748 16 26.748C16.6202 26.748 17.2242 26.6171 17.79 26.3604L27.6074 21.9102L30.9268 23.4141ZM30.9268 15.4268C31.1444 15.5255 31.2783 15.7471 31.2783 16.0195C31.2782 16.2917 31.1443 16.5126 30.9268 16.6113L16.3672 23.2109C16.1317 23.3176 15.8683 23.3175 15.6328 23.2109L1.07422 16.6113C0.856544 16.5127 0.72276 16.2919 0.722656 16.0195C0.722656 15.7471 0.85646 15.5254 1.07422 15.4268L4.40625 13.916L14.2109 18.3604C14.777 18.6168 15.3797 18.748 16 18.748C16.6202 18.748 17.2242 18.6171 17.79 18.3604L27.5938 13.916L30.9268 15.4268ZM16 0.722656C16.1259 0.722656 16.2507 0.749456 16.3652 0.801758L16.3672 0.802734L30.9258 7.40723C31.1436 7.50614 31.2773 7.72805 31.2773 8.00098C31.2773 8.27372 31.1434 8.49482 30.9258 8.59375L16.3672 15.1982H16.3662C16.1312 15.3051 15.8689 15.305 15.6338 15.1982H15.6328L1.07422 8.59375C0.856502 8.4949 0.722656 8.27324 0.722656 8C0.72279 7.76116 0.824723 7.5615 0.996094 7.44922L1.07422 7.40723L15.6338 0.802734L15.6357 0.801758C15.7501 0.749531 15.8743 0.722723 16 0.722656Z" fill="url(#paint0_linear_5690_34478)" stroke="url(#paint1_linear_5690_34478)" stroke-width="1.44444"/>
<defs>
<linearGradient id="paint0_linear_5690_34478" x1="0" y1="0" x2="32.0005" y2="32.0003" gradientUnits="userSpaceOnUse">
<stop stop-color="#9E74F8"/>
<stop offset="1" stop-color="#7E3FE2"/>
</linearGradient>
<linearGradient id="paint1_linear_5690_34478" x1="0" y1="0" x2="32.0005" y2="32.0003" gradientUnits="userSpaceOnUse">
<stop stop-color="#9E74F8"/>
<stop offset="1" stop-color="#7E3FE2"/>
</linearGradient>
</defs>
</svg>
