<svg width="24" height="24" viewBox="0 0 24 24" fill="none" xmlns="http://www.w3.org/2000/svg">
<path d="M3.83903 5.85771C6.77903 1.94171 12.869 0.802712 17.203 3.49771C21.483 6.15771 23.057 11.2747 21.303 16.0747C19.648 20.6077 15.287 22.4027 12.144 20.1227C10.967 19.2687 10.51 18.1977 10.29 16.4587L10.184 15.4717L10.139 15.0737C10.016 14.1397 9.82803 13.7217 9.43403 13.5017C8.89903 13.2037 8.54203 13.1967 7.83903 13.4687L7.48803 13.6147L7.30903 13.6927C6.29503 14.1327 5.62103 14.2877 4.76803 14.1087L4.56803 14.0617L4.40403 14.0147C1.61503 13.1507 1.20203 9.36771 3.83903 5.85771ZM4.82303 12.5737L4.94603 12.6107L5.08003 12.6407C5.51903 12.7277 5.89403 12.6557 6.51703 12.3987L7.11903 12.1417C8.32103 11.6487 9.10403 11.6017 10.165 12.1917C11.082 12.7037 11.44 13.4897 11.622 14.8517L11.675 15.3107L11.73 15.8427L11.777 16.2647C11.949 17.6257 12.262 18.3547 13.025 18.9087C15.3 20.5587 18.559 19.2177 19.895 15.5597C21.411 11.4077 20.069 7.04571 16.411 4.77071C12.736 2.48671 7.51203 3.46471 5.03803 6.75771C2.96303 9.52071 3.21803 12.0377 4.82303 12.5737ZM16.048 10.5797C16.0008 10.4197 15.986 10.2519 16.0047 10.0861C16.0233 9.92037 16.0749 9.76 16.1565 9.61449C16.238 9.46898 16.3479 9.34127 16.4796 9.23887C16.6113 9.13648 16.7621 9.06148 16.9232 9.0183C17.0844 8.97511 17.2525 8.96462 17.4178 8.98742C17.583 9.01023 17.742 9.06588 17.8854 9.1511C18.0288 9.23632 18.1537 9.34937 18.2527 9.48361C18.3518 9.61785 18.4229 9.77055 18.462 9.93271C18.5384 10.2497 18.488 10.584 18.3214 10.8643C18.1549 11.1445 17.8854 11.3487 17.5704 11.4331C17.2555 11.5175 16.9201 11.4755 16.6357 11.3161C16.3512 11.1567 16.1404 10.8924 16.048 10.5797ZM16.542 14.0677C16.4995 13.9091 16.4887 13.7438 16.5101 13.581C16.5316 13.4182 16.5849 13.2613 16.6669 13.1191C16.749 12.977 16.8583 12.8524 16.9886 12.7524C17.1188 12.6525 17.2675 12.5792 17.426 12.5367C17.5846 12.4942 17.75 12.4834 17.9127 12.5048C18.0755 12.5263 18.2324 12.5795 18.3746 12.6616C18.5168 12.7437 18.6414 12.853 18.7413 12.9832C18.8412 13.1135 18.9145 13.2621 18.957 13.4207C19.0428 13.741 18.9979 14.0822 18.8321 14.3693C18.6663 14.6564 18.3933 14.8659 18.073 14.9517C17.7528 15.0375 17.4116 14.9926 17.1244 14.8268C16.8373 14.661 16.6278 14.388 16.542 14.0677ZM14.07 7.57671C13.9842 7.25646 14.0292 6.91525 14.1949 6.62813C14.3607 6.34101 14.6338 6.13151 14.954 6.04571C15.2743 5.95991 15.6155 6.00485 15.9026 6.17063C16.1897 6.33641 16.3992 6.60946 16.485 6.92971C16.5275 7.08828 16.5383 7.25367 16.5169 7.41643C16.4955 7.57918 16.4422 7.73613 16.3601 7.87829C16.278 8.02046 16.1687 8.14507 16.0385 8.245C15.9082 8.34493 15.7596 8.41823 15.601 8.46071C15.2808 8.54651 14.9396 8.50157 14.6524 8.33579C14.5103 8.25371 14.3857 8.14442 14.2857 8.01418C14.1858 7.88393 14.1125 7.73528 14.07 7.57671ZM14.042 16.5747C13.9948 16.4147 13.98 16.2469 13.9987 16.0811C14.0173 15.9154 14.0689 15.755 14.1505 15.6095C14.232 15.464 14.3419 15.3363 14.4736 15.2339C14.6053 15.1315 14.7561 15.0565 14.9172 15.0133C15.0784 14.9701 15.2465 14.9596 15.4118 14.9824C15.577 15.0052 15.736 15.0609 15.8794 15.1461C16.0228 15.2313 16.1477 15.3444 16.2467 15.4786C16.3458 15.6128 16.4169 15.7655 16.456 15.9277C16.5324 16.2447 16.482 16.579 16.3154 16.8593C16.1489 17.1395 15.8794 17.3437 15.5644 17.4281C15.2495 17.5125 14.9141 17.4705 14.6297 17.3111C14.3452 17.1517 14.1344 16.8874 14.042 16.5747ZM10.545 6.60471C10.501 6.44564 10.4889 6.27942 10.5095 6.11565C10.5301 5.95188 10.5828 5.79381 10.6648 5.65055C10.7468 5.50729 10.8563 5.38168 10.9871 5.28098C11.1179 5.18028 11.2673 5.10647 11.4267 5.06382C11.5862 5.02117 11.7525 5.01052 11.9161 5.03248C12.0797 5.05444 12.2373 5.10859 12.3799 5.19179C12.5224 5.27499 12.6471 5.38559 12.7466 5.51722C12.8462 5.64886 12.9187 5.7989 12.96 5.95871C13.0425 6.2779 12.9955 6.61673 12.8293 6.90145C12.6632 7.18617 12.3912 7.39372 12.0728 7.47891C11.7543 7.5641 11.4151 7.52003 11.1289 7.3563C10.8428 7.19257 10.6329 6.92244 10.545 6.60471Z" fill="white"/>
</svg>
