<svg width="16" height="17" viewBox="0 0 16 17" fill="none" xmlns="http://www.w3.org/2000/svg">
<path d="M3.33594 6.17646C3.33594 3.77784 5.42528 1.83337 8.0026 1.83337C10.5799 1.83337 12.6693 3.77784 12.6693 6.17646C12.6693 8.55629 11.1798 11.3333 8.85598 12.3264C8.31425 12.5579 7.69095 12.5579 7.14923 12.3264C4.82538 11.3333 3.33594 8.55629 3.33594 6.17646Z" stroke="white" stroke-width="1.5"/>
<path d="M9.33073 6.49996C9.33073 7.23634 8.73378 7.83329 7.9974 7.83329C7.26102 7.83329 6.66406 7.23634 6.66406 6.49996C6.66406 5.76358 7.26102 5.16663 7.9974 5.16663C8.73378 5.16663 9.33073 5.76358 9.33073 6.49996Z" stroke="white" stroke-width="1.5"/>
<path d="M13.9763 10.8334C14.4199 11.235 14.6693 11.6878 14.6693 12.1667C14.6693 13.8236 11.6845 15.1667 8.0026 15.1667C4.32071 15.1667 1.33594 13.8236 1.33594 12.1667C1.33594 11.6878 1.58535 11.235 2.02891 10.8334" stroke="white" stroke-width="1.5" stroke-linecap="round"/>
</svg>
