<svg width="14" height="11" viewBox="0 0 14 11" fill="none" xmlns="http://www.w3.org/2000/svg">
<path d="M1 2.16671C1 1.81309 1.14048 1.47395 1.39052 1.2239C1.64057 0.97385 1.97971 0.833374 2.33333 0.833374H11.6667C12.0203 0.833374 12.3594 0.97385 12.6095 1.2239C12.8595 1.47395 13 1.81309 13 2.16671M1 2.16671V8.83337C1 9.187 1.14048 9.52613 1.39052 9.77618C1.64057 10.0262 1.97971 10.1667 2.33333 10.1667H11.6667C12.0203 10.1667 12.3594 10.0262 12.6095 9.77618C12.8595 9.52613 13 9.187 13 8.83337V2.16671M1 2.16671L7 6.16671L13 2.16671" stroke="white" stroke-width="1.5" stroke-linecap="round" stroke-linejoin="round"/>
</svg>
