<svg width="24" height="24" viewBox="0 0 24 24" fill="none" xmlns="http://www.w3.org/2000/svg">
<g clip-path="url(#clip0_2266_31761)">
<path d="M20.75 10H3.25C2.01 10 1 11.009 1 12.25V21.75C1 22.991 2.01 24 3.25 24H20.75C21.99 24 23 22.991 23 21.75V12.25C23 11.009 21.99 10 20.75 10ZM5.25 17.75H4.75C4.336 17.75 4 17.414 4 17C4 16.586 4.336 16.25 4.75 16.25H5.25C5.664 16.25 6 16.586 6 17C6 17.414 5.664 17.75 5.25 17.75ZM12 20.5C10.07 20.5 8.5 18.93 8.5 17C8.5 15.07 10.07 13.5 12 13.5C13.93 13.5 15.5 15.07 15.5 17C15.5 18.93 13.93 20.5 12 20.5ZM19.25 17.75H18.75C18.336 17.75 18 17.414 18 17C18 16.586 18.336 16.25 18.75 16.25H19.25C19.664 16.25 20 16.586 20 17C20 17.414 19.664 17.75 19.25 17.75Z" fill="white"/>
<path d="M12.6734 0.260006C12.2924 -0.0869941 11.7084 -0.0869941 11.3274 0.260006L8.5774 2.76001C8.2714 3.03801 8.1684 3.47501 8.3174 3.86101C8.4664 4.24601 8.8374 4.50001 9.2504 4.50001H11.0004V8.00001C11.0004 8.55201 11.4474 9.00001 12.0004 9.00001C12.5534 9.00001 13.0004 8.55201 13.0004 8.00001V4.50001H14.7504C15.1634 4.50001 15.5344 4.24601 15.6834 3.86101C15.8324 3.47501 15.7294 3.03801 15.4234 2.76001L12.6734 0.260006Z" fill="white"/>
<path d="M4.4234 1.76001C4.0424 1.41301 3.4584 1.41301 3.0774 1.76001L0.327398 4.26001C0.0213985 4.53801 -0.0816016 4.97501 0.0673984 5.36101C0.216398 5.74601 0.587398 6.00001 1.0004 6.00001H2.7504V8.00001C2.7504 8.55201 3.1974 9.00001 3.7504 9.00001C4.3034 9.00001 4.7504 8.55201 4.7504 8.00001V6.00001H6.5004C6.9134 6.00001 7.2844 5.74601 7.4334 5.36101C7.5824 4.97501 7.4794 4.53801 7.1734 4.26001L4.4234 1.76001Z" fill="white"/>
<path d="M23.6734 4.26001L20.9234 1.76001C20.5424 1.41301 19.9584 1.41301 19.5774 1.76001L16.8274 4.26001C16.5214 4.53801 16.4184 4.97501 16.5674 5.36101C16.7164 5.74601 17.0874 6.00001 17.5004 6.00001H19.2504V8.00001C19.2504 8.55201 19.6974 9.00001 20.2504 9.00001C20.8034 9.00001 21.2504 8.55201 21.2504 8.00001V6.00001H23.0004C23.4134 6.00001 23.7844 5.74601 23.9334 5.36101C24.0824 4.97501 23.9794 4.53801 23.6734 4.26001Z" fill="white"/>
</g>
<defs>
<clipPath id="clip0_2266_31761">
<rect width="24" height="24" fill="white"/>
</clipPath>
</defs>
</svg>
