<svg width="24" height="24" viewBox="0 0 24 24" fill="none" xmlns="http://www.w3.org/2000/svg">
<g clip-path="url(#clip0_7735_5364)">
<path d="M6.0661 14.9512L0 21.0171L2.98279 23.9999L9.04889 17.9338C7.86584 17.1495 6.85052 16.134 6.0661 14.9512Z" fill="white"/>
<path d="M14.8594 0C9.8194 0 5.71875 4.10065 5.71875 9.14062C5.71875 14.1806 9.8194 18.2812 14.8594 18.2812C19.8994 18.2812 24 14.1806 24 9.14062C24 4.10065 19.8994 0 14.8594 0ZM11.3438 12.6562H9.9375V9.84375H11.3438V12.6562ZM14.1562 12.6562H12.75V7.03125H14.1562V12.6562ZM16.9688 12.6562H15.5625V4.21875H16.9688V12.6562ZM19.7812 12.6562H18.375V7.03125H19.7812V12.6562Z" fill="white"/>
</g>
<defs>
<clipPath id="clip0_7735_5364">
<rect width="24" height="24" fill="white"/>
</clipPath>
</defs>
</svg>
