<svg width="20" height="20" viewBox="0 0 20 20" fill="none" xmlns="http://www.w3.org/2000/svg">
<g clip-path="url(#clip0_7514_2189)">
<path d="M12.4584 7.54117C11.6837 6.76648 10.6536 6.33984 9.55814 6.33984C8.46256 6.33984 7.43244 6.76648 6.65791 7.54117L2.79087 11.4082C1.42948 12.7694 1.2273 14.8573 2.18357 16.4349L0.285988 18.3325C-0.0953293 18.7138 -0.0953293 19.3321 0.285988 19.7136C0.476723 19.9041 0.726662 19.9995 0.976601 19.9995C1.22654 19.9995 1.47648 19.9041 1.66706 19.7136L3.56464 17.816C4.21558 18.2104 4.95335 18.408 5.69111 18.408C6.74137 18.408 7.79179 18.0082 8.59135 17.2087L10.9981 14.8019C10.8146 14.8211 10.629 14.8311 10.4419 14.8311C9.78596 14.8311 9.14845 14.7119 8.55366 14.4842L7.21027 15.8276C6.62113 16.4167 5.77244 16.591 5.02918 16.3514L6.35456 15.0261C6.73603 14.6446 6.73603 14.0263 6.35456 13.645C5.97324 13.2635 5.35496 13.2635 4.97349 13.645L3.64811 14.9705C3.4087 14.2271 3.5828 13.3784 4.17194 12.7894L6.71299 10.2482L8.03898 8.92239C8.44471 8.51651 8.98426 8.29312 9.55814 8.29312C10.1319 8.29312 10.6714 8.51651 11.0773 8.92239C11.3214 9.16653 11.4991 9.4592 11.6022 9.77856L13.0664 8.31418C12.8974 8.03647 12.6941 7.77692 12.4584 7.54117Z" fill="#178EE8"/>
<path d="M19.71 0.286102C19.3287 -0.0953674 18.7104 -0.0953674 18.3289 0.286102L16.431 2.18399C14.8414 1.22406 12.7392 1.45645 11.3737 2.82196L8.99802 5.1976C9.18158 5.17853 9.36713 5.16846 9.5542 5.16846C10.2102 5.16846 10.8477 5.28763 11.4425 5.51529L12.7859 4.17191C13.2047 3.75305 13.7549 3.5437 14.305 3.5437C14.5287 3.5437 14.7523 3.5788 14.9671 3.64807L13.6416 4.9736C13.2601 5.35492 13.2601 5.97321 13.6416 6.35468C13.8322 6.54526 14.0821 6.64062 14.332 6.64062C14.582 6.64062 14.8319 6.54526 15.0225 6.35468L16.3401 5.03708C16.567 5.78934 16.3778 6.65649 15.7979 7.23648L11.9572 11.0773C11.5514 11.483 11.0119 11.7065 10.438 11.7065C9.86426 11.7065 9.32471 11.483 8.91882 11.0773C8.67468 10.8331 8.49707 10.5403 8.39392 10.2211L6.92969 11.6853C7.13095 12.0161 7.38089 12.321 7.67645 12.5908C8.40094 13.2523 9.34546 13.6322 10.3263 13.6581C11.4634 13.6882 12.5373 13.2593 13.3382 12.4583L17.2053 8.59131C18.5665 7.23007 18.7688 5.14221 17.8124 3.56476L19.71 1.66718C20.0915 1.28571 20.0915 0.667419 19.71 0.286102Z" fill="#178EE8"/>
</g>
<defs>
<clipPath id="clip0_7514_2189">
<rect width="20" height="20" fill="white"/>
</clipPath>
</defs>
</svg>
