<svg width="24" height="24" viewBox="0 0 24 24" fill="none" xmlns="http://www.w3.org/2000/svg">
<path d="M2.82031 23.2941V0.705882C2.82031 0.316034 3.13635 0 3.52619 0H20.4674C20.8572 0 21.1733 0.316034 21.1733 0.705882V23.2941C21.1733 23.684 20.8572 24 20.4674 24H3.52619C3.13635 24 2.82031 23.684 2.82031 23.2941ZM6.34972 17.2941H17.6438C18.0337 17.2941 18.3497 16.9781 18.3497 16.5882C18.3497 16.1984 18.0337 15.8824 17.6438 15.8824H6.34972C5.95988 15.8824 5.64384 16.1984 5.64384 16.5882C5.64384 16.9781 5.95988 17.2941 6.34972 17.2941ZM6.34972 21.1765H11.9968C12.3866 21.1765 12.7027 20.8604 12.7027 20.4706C12.7027 20.0807 12.3866 19.7647 11.9968 19.7647H6.34972C5.95988 19.7647 5.64384 20.0807 5.64384 20.4706C5.64384 20.8604 5.95988 21.1765 6.34972 21.1765ZM13.4085 6.35294H9.17325C8.78341 6.35294 8.46737 6.66898 8.46737 7.05882V11.2941C8.46737 11.684 8.78341 12 9.17325 12H14.8203C15.2102 12 15.5262 11.684 15.5262 11.2941V7.05882C15.5262 6.66898 15.2102 6.35294 14.8203 6.35294V4.58882C14.8203 3.61236 14.0295 2.82353 13.0536 2.82353H10.94C9.96538 2.82353 9.17325 3.61357 9.17325 4.58824V4.94118C9.17325 5.33102 9.48929 5.64706 9.87914 5.64706C10.269 5.64706 10.585 5.33102 10.585 4.94118V4.58824C10.585 4.3941 10.7442 4.23529 10.94 4.23529H13.0536C13.2506 4.23529 13.4085 4.39284 13.4085 4.58882V6.35294ZM9.87914 7.76471H14.1144V10.5882H9.87914V7.76471Z" fill="white"/>
</svg>
