<svg width="24" height="24" viewBox="0 0 24 24" fill="none" xmlns="http://www.w3.org/2000/svg">
<g clip-path="url(#clip0_7514_2134)">
<path d="M14.5312 10.0001C14.5312 11.3807 13.4119 12.4999 12.0311 12.4999C10.6505 12.4999 9.53125 11.3807 9.53125 10.0001C9.53125 8.61923 10.6505 7.5 12.0311 7.5C13.4119 7.5 14.5312 8.61923 14.5312 10.0001Z" fill="white"/>
<path d="M2.03125 1.99742V9.03142C2.03125 13.5042 3.84583 17.5548 6.77551 20.4863C8.2708 21.9797 10.0531 23.1779 12.0313 24.0001C14.0082 23.1779 15.7909 21.9797 17.2874 20.4863C20.2173 17.5548 22.0314 13.5042 22.0314 9.03142V1.99742C15.3632 -0.767472 8.21129 -0.562165 2.03125 1.99742ZM15.8351 12.3887L17.3343 13.8878L15.92 15.3039L14.4199 13.8038C12.9631 14.721 11.1 14.721 9.6418 13.8038L8.14217 15.3039L6.72745 13.8888L8.22685 12.3896C7.30995 10.9316 7.30995 9.06827 8.22708 7.61075L6.72791 6.1118L8.1424 4.69731L9.6418 6.19672C11.0996 5.27844 12.9629 5.27844 14.4213 6.19672L15.92 4.69731L17.3343 6.1118L15.8351 7.61075C16.7518 9.06827 16.7532 10.9316 15.8351 12.3887Z" fill="white"/>
</g>
<defs>
<clipPath id="clip0_7514_2134">
<rect width="24" height="24" fill="white"/>
</clipPath>
</defs>
</svg>
