<svg width="24" height="24" viewBox="0 0 24 24" fill="none" xmlns="http://www.w3.org/2000/svg">
<g clip-path="url(#clip0_7761_4576)">
<path d="M12.0493 7.38062C9.5279 7.38062 7.47656 9.43195 7.47656 11.9533C7.47656 14.4749 9.5279 16.5262 12.0493 16.5262C14.5708 16.5262 16.6222 14.4749 16.6222 11.9533C16.6222 9.43195 14.5708 7.38062 12.0493 7.38062ZM11.3452 9.54603C11.3452 9.15729 11.6604 8.84198 12.0493 8.84198C12.4382 8.84198 12.7535 9.15729 12.7535 9.54603V12.3113C12.7535 12.7 12.4382 13.0153 12.0493 13.0153C11.6604 13.0153 11.3452 12.7 11.3452 12.3113V9.54603ZM12.7498 14.5283C12.7475 14.5509 12.7442 14.5739 12.7396 14.5965C12.7354 14.619 12.7297 14.6415 12.7227 14.6635C12.7161 14.6851 12.7081 14.7072 12.6997 14.7283C12.6907 14.7494 12.6808 14.7706 12.67 14.7907C12.6592 14.8111 12.6475 14.8307 12.6348 14.8499C12.6222 14.8691 12.6081 14.888 12.5936 14.9054C12.579 14.9237 12.5634 14.9405 12.5471 14.957C12.5312 14.9735 12.5138 14.9889 12.4959 15.0035C12.4781 15.018 12.4592 15.0317 12.44 15.0447C12.4213 15.057 12.401 15.0692 12.3809 15.08C12.3607 15.0908 12.3395 15.1005 12.3184 15.1095C12.2974 15.1181 12.2758 15.126 12.2536 15.1326C12.2316 15.1392 12.2091 15.1447 12.187 15.1494C12.1644 15.1542 12.1416 15.1575 12.1185 15.1597C12.0954 15.1621 12.0725 15.163 12.0495 15.163C12.0264 15.163 12.0029 15.1621 11.9801 15.1597C11.9575 15.1575 11.9345 15.1542 11.9119 15.1494C11.8894 15.1447 11.8669 15.139 11.8447 15.1326C11.8228 15.126 11.8012 15.1179 11.7799 15.1095C11.7589 15.1007 11.7378 15.0908 11.7175 15.08C11.6973 15.0692 11.6777 15.057 11.6583 15.0447C11.6391 15.0317 11.6204 15.018 11.603 15.0035C11.5847 14.9889 11.5679 14.9735 11.5514 14.957C11.5349 14.9405 11.5195 14.9237 11.5049 14.9054C11.4904 14.888 11.4767 14.8691 11.4641 14.8499C11.4514 14.8307 11.4392 14.8111 11.4284 14.7907C11.4176 14.7706 11.4077 14.7494 11.3992 14.7283C11.3903 14.7072 11.3824 14.6851 11.3758 14.6635C11.3692 14.6415 11.3635 14.619 11.359 14.5965C11.3542 14.5738 11.3509 14.5509 11.3485 14.5283C11.3461 14.5053 11.3452 14.4818 11.3452 14.4589C11.3452 14.4359 11.3461 14.4128 11.3485 14.3899C11.3509 14.3668 11.3542 14.344 11.359 14.3212C11.3635 14.2987 11.3692 14.2762 11.3758 14.2546C11.3824 14.2326 11.3903 14.211 11.3992 14.1898C11.4077 14.1687 11.4176 14.1477 11.4284 14.1273C11.4392 14.1072 11.4514 14.0871 11.4641 14.0682C11.4767 14.049 11.4904 14.0303 11.5049 14.0123C11.5195 13.9946 11.5349 13.9772 11.5514 13.9613C11.5679 13.9448 11.5847 13.9292 11.603 13.9148C11.6204 13.9001 11.6391 13.8862 11.6583 13.8734C11.6777 13.8607 11.6973 13.849 11.7175 13.8382C11.7378 13.8274 11.7589 13.8177 11.7799 13.8087C11.8012 13.8001 11.8228 13.7923 11.8447 13.7857C11.8669 13.7791 11.8894 13.773 11.9119 13.7688C11.9345 13.7641 11.9575 13.7608 11.9801 13.7584C12.026 13.7538 12.0725 13.7538 12.1185 13.7584C12.1416 13.7608 12.1644 13.7641 12.187 13.7688C12.2091 13.773 12.2316 13.7791 12.2536 13.7857C12.2758 13.7923 12.2974 13.8003 12.3184 13.8087C12.3395 13.8175 12.3607 13.8274 12.3809 13.8382C12.401 13.849 12.4213 13.8607 12.44 13.8734C12.4592 13.8862 12.4781 13.9001 12.4959 13.9148C12.5138 13.9294 12.5312 13.9448 12.5471 13.9613C12.5634 13.9772 12.579 13.9946 12.5936 14.0123C12.6081 14.0303 12.6222 14.049 12.6348 14.0682C12.6475 14.0871 12.6592 14.1072 12.67 14.1273C12.6808 14.1477 12.6907 14.1687 12.6997 14.1898C12.7081 14.211 12.7161 14.2326 12.7227 14.2546C12.7297 14.2762 12.7354 14.2987 12.7396 14.3212C12.7442 14.3438 12.7475 14.3668 12.7498 14.3899C12.7522 14.4128 12.7537 14.4359 12.7537 14.4589C12.7537 14.4818 12.7522 14.5053 12.7498 14.5283Z" fill="white"/>
<path d="M22.2415 6.46472L22.241 6.44623C22.2303 6.21478 22.2234 5.97088 22.2194 5.70025C22.1998 4.37694 21.1478 3.28252 19.8243 3.20854C17.0649 3.05437 14.9303 2.15459 13.1064 0.376993L13.0906 0.362161C12.4957 -0.183129 11.5985 -0.183312 11.0036 0.362161L10.9878 0.376993C9.1639 2.15459 7.02924 3.05437 4.26965 3.20854C2.94635 3.28234 1.8944 4.37694 1.87463 5.70025C1.8706 5.97161 1.86364 6.21569 1.8532 6.44623L1.85211 6.48944C1.79846 9.30323 1.7318 12.8051 2.90313 15.9837C3.5473 17.7316 4.52289 19.2512 5.80262 20.5C7.26014 21.9223 9.16921 23.0516 11.4771 23.8563C11.5509 23.8819 11.6274 23.903 11.7049 23.9186L11.7093 23.9195C11.8213 23.942 11.9343 23.9532 12.0471 23.9532C12.1599 23.9532 12.2727 23.942 12.3847 23.9195C12.464 23.9037 12.5424 23.8823 12.6182 23.8558C14.9229 23.0499 16.8298 21.9202 18.2862 20.4978C19.5654 19.2484 20.541 17.7287 21.1857 15.9806C22.3616 12.7923 22.295 9.28382 22.2415 6.46472ZM12.0465 17.9347C8.74861 17.9347 6.06537 15.2514 6.06537 11.9535C6.06537 8.6554 8.74861 5.97235 12.0465 5.97235C15.3446 5.97235 18.0277 8.6554 18.0277 11.9535C18.0277 15.2514 15.3446 17.9347 12.0465 17.9347Z" fill="white"/>
</g>
<defs>
<clipPath id="clip0_7761_4576">
<rect width="24" height="24" fill="white"/>
</clipPath>
</defs>
</svg>
