<svg width="28" height="28" viewBox="0 0 28 28" fill="none" xmlns="http://www.w3.org/2000/svg">
<g clip-path="url(#clip0_7047_935)">
<path d="M3.29688 27.1765V0.823529C3.29688 0.368707 3.66558 0 4.1204 0H23.8851C24.3399 0 24.7086 0.368707 24.7086 0.823529V27.1765C24.7086 27.6313 24.3399 28 23.8851 28H4.1204C3.66558 28 3.29688 27.6313 3.29688 27.1765ZM9.06158 9.47059C9.06158 12.1999 11.2737 14.4118 14.0028 14.4118C16.732 14.4118 18.9439 12.1997 18.9439 9.47059C18.9439 6.74131 16.7319 4.52941 14.0028 4.52941C11.2735 4.52941 9.06158 6.74149 9.06158 9.47059ZM7.41452 20.1765H20.591C21.0458 20.1765 21.4145 19.8078 21.4145 19.3529C21.4145 18.8981 21.0458 18.5294 20.591 18.5294H7.41452C6.9597 18.5294 6.59099 18.8981 6.59099 19.3529C6.59099 19.8078 6.9597 20.1765 7.41452 20.1765ZM7.41452 24.7059H14.0028C14.4576 24.7059 14.8263 24.3372 14.8263 23.8824C14.8263 23.4275 14.4576 23.0588 14.0028 23.0588H7.41452C6.9597 23.0588 6.59099 23.4275 6.59099 23.8824C6.59099 24.3372 6.9597 24.7059 7.41452 24.7059ZM11.1646 11.144C10.8749 10.6536 10.7086 10.0816 10.7086 9.47059C10.7086 7.65111 12.1832 6.17647 14.0028 6.17647C14.6137 6.17647 15.1858 6.34273 15.6762 6.63248L11.1646 11.144ZM17.2969 9.47059C17.2969 11.2901 15.8224 12.7647 14.0028 12.7647C13.3918 12.7647 12.8197 12.5984 12.3293 12.3087L16.8409 7.79713C17.1306 8.28754 17.2969 8.85961 17.2969 9.47059Z" fill="white"/>
</g>
<defs>
<clipPath id="clip0_7047_935">
<rect width="28" height="28" fill="white"/>
</clipPath>
</defs>
</svg>
