<svg width="24" height="24" viewBox="0 0 24 24" fill="none" xmlns="http://www.w3.org/2000/svg">
<path d="M18.0932 17.5878L18.9517 16.6773C20.0008 15.5646 21.7349 15.5387 22.8156 16.6194L22.8588 16.6626C23.9333 17.7371 23.9334 19.4799 22.8588 20.5546L22.8156 20.5978C21.7353 21.678 20.0003 21.652 18.9517 20.5399L18.0932 19.6293L17.2347 20.5399C16.1862 21.652 14.4512 21.678 13.3709 20.5978L13.3277 20.5546C12.253 19.4799 12.2532 17.7371 13.3277 16.6626L13.3709 16.6194C14.4516 15.5387 16.1857 15.5646 17.2347 16.6773L18.0932 17.5878ZM16.2224 17.6317C15.7114 17.0897 14.8806 17.0772 14.3547 17.6031L14.3115 17.6464C13.7803 18.1776 13.7802 19.0395 14.3115 19.5708L14.3547 19.614C14.8801 20.1394 15.7119 20.127 16.2224 19.5854L17.1434 18.6086L16.2224 17.6317ZM19.964 19.5854C20.4746 20.127 21.3063 20.1394 21.8318 19.614L21.875 19.5708C22.4063 19.0395 22.4062 18.1776 21.875 17.6464L21.8318 17.6031C21.3058 17.0772 20.4751 17.0897 19.964 17.6317L19.043 18.6086L19.964 19.5854ZM21.2852 14.4513C20.1489 14.3469 18.9792 14.7207 18.0932 15.5679C16.494 14.0387 13.9708 14.0518 12.3871 15.6355L12.3439 15.6788C10.726 17.2967 10.7259 19.9204 12.3439 21.5384L12.3871 21.5816C12.7449 21.9394 13.1508 22.217 13.5831 22.4148C12.6901 22.6543 11.7513 22.782 10.7826 22.782C4.82754 22.782 0 17.9545 0 11.9994C0 6.04434 4.82754 1.2168 10.7826 1.2168C16.7377 1.2168 21.5652 6.04434 21.5652 11.9994C21.5652 12.8428 21.4684 13.6636 21.2852 14.4513ZM14.6087 11.6516H11.1304V6.08636C11.1304 5.70216 10.819 5.39071 10.4348 5.39071C10.0506 5.39071 9.73913 5.70216 9.73913 6.08636V12.3472C9.73913 12.7314 10.0506 13.0429 10.4348 13.0429H14.6087C14.9929 13.0429 15.3043 12.7314 15.3043 12.3472C15.3043 11.963 14.9929 11.6516 14.6087 11.6516Z" fill="url(#paint0_linear_7047_909)" fill-opacity="0.9"/>
<defs>
<linearGradient id="paint0_linear_7047_909" x1="14.0235" y1="-2.70629" x2="18.4087" y2="22.0038" gradientUnits="userSpaceOnUse">
<stop offset="0.168198" stop-color="#FF9DC8"/>
<stop offset="0.984375" stop-color="#EB2B7E"/>
</linearGradient>
</defs>
</svg>
