<svg width="132" height="20" viewBox="0 0 132 20" fill="none" xmlns="http://www.w3.org/2000/svg">
<path d="M6.86629 6.1166L1.54962 6.88744L1.45545 6.9066C1.3129 6.94445 1.18295 7.01944 1.07886 7.12394C0.974777 7.22843 0.900289 7.35868 0.863005 7.50137C0.82572 7.64407 0.826975 7.79411 0.866642 7.93616C0.906309 8.07822 0.982967 8.2072 1.08879 8.30994L4.94045 12.0591L4.03212 17.3549L4.02129 17.4466C4.01256 17.594 4.04317 17.7411 4.10999 17.8729C4.17681 18.0046 4.27744 18.1162 4.40157 18.1962C4.52569 18.2762 4.66886 18.3218 4.81641 18.3284C4.96396 18.3349 5.11059 18.3021 5.24129 18.2333L9.99629 15.7333L14.7405 18.2333L14.8238 18.2716C14.9613 18.3258 15.1108 18.3424 15.2569 18.3197C15.403 18.2971 15.5404 18.236 15.6551 18.1427C15.7698 18.0494 15.8576 17.9272 15.9095 17.7888C15.9614 17.6504 15.9755 17.5006 15.9505 17.3549L15.0413 12.0591L18.8946 8.3091L18.9596 8.23827C19.0525 8.12391 19.1133 7.98698 19.1361 7.84143C19.1588 7.69588 19.1425 7.54692 19.0889 7.40971C19.0352 7.2725 18.9462 7.15196 18.8309 7.06036C18.7155 6.96876 18.5779 6.90938 18.4321 6.88827L13.1155 6.1166L10.7388 1.29994C10.67 1.16038 10.5636 1.04286 10.4314 0.960689C10.2993 0.878514 10.1469 0.834961 9.99129 0.834961C9.83571 0.834961 9.68324 0.878514 9.55113 0.960689C9.41902 1.04286 9.31256 1.16038 9.24379 1.29994L6.86629 6.1166Z" fill="#F5AD59"/>
<path d="M34.8663 6.1166L29.5496 6.88744L29.4555 6.9066C29.3129 6.94445 29.1829 7.01944 29.0789 7.12394C28.9748 7.22843 28.9003 7.35868 28.863 7.50137C28.8257 7.64407 28.827 7.79411 28.8666 7.93616C28.9063 8.07822 28.983 8.2072 29.0888 8.30994L32.9405 12.0591L32.0321 17.3549L32.0213 17.4466C32.0126 17.594 32.0432 17.7411 32.11 17.8729C32.1768 18.0046 32.2774 18.1162 32.4016 18.1962C32.5257 18.2762 32.6689 18.3218 32.8164 18.3284C32.964 18.3349 33.1106 18.3021 33.2413 18.2333L37.9963 15.7333L42.7405 18.2333L42.8238 18.2716C42.9613 18.3258 43.1108 18.3424 43.2569 18.3197C43.403 18.2971 43.5404 18.236 43.6551 18.1427C43.7698 18.0494 43.8576 17.9272 43.9095 17.7888C43.9614 17.6504 43.9755 17.5006 43.9505 17.3549L43.0413 12.0591L46.8946 8.3091L46.9596 8.23827C47.0525 8.12391 47.1133 7.98698 47.1361 7.84143C47.1588 7.69588 47.1425 7.54692 47.0889 7.40971C47.0352 7.2725 46.9462 7.15196 46.8309 7.06036C46.7155 6.96876 46.5779 6.90938 46.4321 6.88827L41.1155 6.1166L38.7388 1.29994C38.67 1.16038 38.5636 1.04286 38.4314 0.960689C38.2993 0.878514 38.1469 0.834961 37.9913 0.834961C37.8357 0.834961 37.6832 0.878514 37.5511 0.960689C37.419 1.04286 37.3126 1.16038 37.2438 1.29994L34.8663 6.1166Z" fill="#F5AD59"/>
<path d="M62.8663 6.1166L57.5496 6.88744L57.4555 6.9066C57.3129 6.94445 57.1829 7.01944 57.0789 7.12394C56.9748 7.22843 56.9003 7.35868 56.863 7.50137C56.8257 7.64407 56.827 7.79411 56.8666 7.93616C56.9063 8.07822 56.983 8.2072 57.0888 8.30994L60.9405 12.0591L60.0321 17.3549L60.0213 17.4466C60.0126 17.594 60.0432 17.7411 60.11 17.8729C60.1768 18.0046 60.2774 18.1162 60.4016 18.1962C60.5257 18.2762 60.6689 18.3218 60.8164 18.3284C60.964 18.3349 61.1106 18.3021 61.2413 18.2333L65.9963 15.7333L70.7405 18.2333L70.8238 18.2716C70.9613 18.3258 71.1108 18.3424 71.2569 18.3197C71.403 18.2971 71.5404 18.236 71.6551 18.1427C71.7698 18.0494 71.8576 17.9272 71.9095 17.7888C71.9614 17.6504 71.9755 17.5006 71.9505 17.3549L71.0413 12.0591L74.8946 8.3091L74.9596 8.23827C75.0525 8.12391 75.1133 7.98698 75.1361 7.84143C75.1588 7.69588 75.1425 7.54692 75.0889 7.40971C75.0352 7.2725 74.9462 7.15196 74.8309 7.06036C74.7155 6.96876 74.5779 6.90938 74.4321 6.88827L69.1155 6.1166L66.7388 1.29994C66.67 1.16038 66.5636 1.04286 66.4314 0.960689C66.2993 0.878514 66.1469 0.834961 65.9913 0.834961C65.8357 0.834961 65.6832 0.878514 65.5511 0.960689C65.419 1.04286 65.3126 1.16038 65.2438 1.29994L62.8663 6.1166Z" fill="#F5AD59"/>
<path d="M90.8663 6.1166L85.5496 6.88744L85.4555 6.9066C85.3129 6.94445 85.1829 7.01944 85.0789 7.12394C84.9748 7.22843 84.9003 7.35868 84.863 7.50137C84.8257 7.64407 84.827 7.79411 84.8666 7.93616C84.9063 8.07822 84.983 8.2072 85.0888 8.30994L88.9405 12.0591L88.0321 17.3549L88.0213 17.4466C88.0126 17.594 88.0432 17.7411 88.11 17.8729C88.1768 18.0046 88.2774 18.1162 88.4016 18.1962C88.5257 18.2762 88.6689 18.3218 88.8164 18.3284C88.964 18.3349 89.1106 18.3021 89.2413 18.2333L93.9963 15.7333L98.7405 18.2333L98.8238 18.2716C98.9613 18.3258 99.1108 18.3424 99.2569 18.3197C99.403 18.2971 99.5404 18.236 99.6551 18.1427C99.7698 18.0494 99.8576 17.9272 99.9095 17.7888C99.9614 17.6504 99.9755 17.5006 99.9505 17.3549L99.0413 12.0591L102.895 8.3091L102.96 8.23827C103.052 8.12391 103.113 7.98698 103.136 7.84143C103.159 7.69588 103.142 7.54692 103.089 7.40971C103.035 7.2725 102.946 7.15196 102.831 7.06036C102.715 6.96876 102.578 6.90938 102.432 6.88827L97.1155 6.1166L94.7388 1.29994C94.67 1.16038 94.5636 1.04286 94.4314 0.960689C94.2993 0.878514 94.1469 0.834961 93.9913 0.834961C93.8357 0.834961 93.6832 0.878514 93.5511 0.960689C93.419 1.04286 93.3126 1.16038 93.2438 1.29994L90.8663 6.1166Z" fill="#F5AD59"/>
<path d="M118.866 6.1166L113.55 6.88744L113.455 6.9066C113.313 6.94445 113.183 7.01944 113.079 7.12394C112.975 7.22843 112.9 7.35868 112.863 7.50137C112.826 7.64407 112.827 7.79411 112.867 7.93616C112.906 8.07822 112.983 8.2072 113.089 8.30994L116.94 12.0591L116.032 17.3549L116.021 17.4466C116.013 17.594 116.043 17.7411 116.11 17.8729C116.177 18.0046 116.277 18.1162 116.402 18.1962C116.526 18.2762 116.669 18.3218 116.816 18.3284C116.964 18.3349 117.111 18.3021 117.241 18.2333L121.996 15.7333L126.74 18.2333L126.824 18.2716C126.961 18.3258 127.111 18.3424 127.257 18.3197C127.403 18.2971 127.54 18.236 127.655 18.1427C127.77 18.0494 127.858 17.9272 127.909 17.7888C127.961 17.6504 127.976 17.5006 127.95 17.3549L127.041 12.0591L130.895 8.3091L130.96 8.23827C131.052 8.12391 131.113 7.98698 131.136 7.84143C131.159 7.69588 131.142 7.54692 131.089 7.40971C131.035 7.2725 130.946 7.15196 130.831 7.06036C130.715 6.96876 130.578 6.90938 130.432 6.88827L125.115 6.1166L122.739 1.29994C122.67 1.16038 122.564 1.04286 122.431 0.960689C122.299 0.878514 122.147 0.834961 121.991 0.834961C121.836 0.834961 121.683 0.878514 121.551 0.960689C121.419 1.04286 121.313 1.16038 121.244 1.29994L118.866 6.1166Z" fill="#F5AD59"/>
</svg>
