<svg width="26" height="26" viewBox="0 0 26 26" fill="none" xmlns="http://www.w3.org/2000/svg">
<g clip-path="url(#clip0_7514_2175)">
<path d="M10.6637 19.9573C8.11567 19.9573 6.04277 17.8844 6.04277 15.3364C6.04277 11.5686 10.328 9.39714 13.3612 11.5867L10.2013 14.7468C9.90412 15.0444 9.90412 15.5268 10.2013 15.8243C10.4974 16.1205 10.9804 16.1225 11.2788 15.8243L14.4348 12.6684C16.587 15.7008 14.4199 19.9573 10.6637 19.9573Z" fill="url(#paint0_linear_7514_2175)"/>
<path d="M20.2484 10.6645C17.4723 10.6645 17.2632 10.7302 16.6618 10.4411L15.5228 11.5801C18.6276 15.5855 15.7727 21.4807 10.6637 21.4807C7.2758 21.4807 4.51933 18.7242 4.51933 15.3364C4.51933 10.2144 10.4437 7.35875 14.4488 10.4991L15.5843 9.36362C15.2953 8.76198 15.3607 8.55449 15.3607 5.76391C8.31662 2.29214 0 7.44802 0 15.3364C0 21.2161 4.78395 26 10.6637 26C18.5421 26 23.6958 17.7036 20.2484 10.6645Z" fill="url(#paint1_linear_7514_2175)"/>
<path d="M21.4545 3.49343L16.8842 8.06354V3.80923C16.8842 3.60709 16.9645 3.41369 17.1071 3.27047L20.154 0.223793C20.6319 -0.254265 21.4545 0.083946 21.4545 0.76255V3.49343Z" fill="url(#paint2_linear_7514_2175)"/>
<path d="M25.7762 5.89681L22.7549 8.91829C22.6117 9.06092 22.4183 9.14125 22.2162 9.14125H17.9619L22.5066 4.59633H25.2375C25.9161 4.59633 26.2541 5.41915 25.7762 5.89681Z" fill="url(#paint3_linear_7514_2175)"/>
</g>
<defs>
<linearGradient id="paint0_linear_7514_2175" x1="8.44187e-07" y1="22.8074" x2="28.8992" y2="16.521" gradientUnits="userSpaceOnUse">
<stop stop-color="#38DBFF"/>
<stop offset="0.984375" stop-color="#8A21DD"/>
</linearGradient>
<linearGradient id="paint1_linear_7514_2175" x1="8.44187e-07" y1="22.8074" x2="28.8992" y2="16.521" gradientUnits="userSpaceOnUse">
<stop stop-color="#38DBFF"/>
<stop offset="0.984375" stop-color="#8A21DD"/>
</linearGradient>
<linearGradient id="paint2_linear_7514_2175" x1="8.44187e-07" y1="22.8074" x2="28.8992" y2="16.521" gradientUnits="userSpaceOnUse">
<stop stop-color="#38DBFF"/>
<stop offset="0.984375" stop-color="#8A21DD"/>
</linearGradient>
<linearGradient id="paint3_linear_7514_2175" x1="8.44187e-07" y1="22.8074" x2="28.8992" y2="16.521" gradientUnits="userSpaceOnUse">
<stop stop-color="#38DBFF"/>
<stop offset="0.984375" stop-color="#8A21DD"/>
</linearGradient>
<clipPath id="clip0_7514_2175">
<rect width="26" height="26" fill="white"/>
</clipPath>
</defs>
</svg>
