<svg width="24" height="24" viewBox="0 0 24 24" fill="none" xmlns="http://www.w3.org/2000/svg">
<g clip-path="url(#clip0_7047_942)">
<path d="M17.8022 19.252C16.7942 19.5758 15.9912 20.2858 15.55 21.2254C15.3118 21.3171 15.0698 21.3996 14.8244 21.4727L14.5665 22.8484C14.4413 23.5161 13.8582 24 13.1789 24H10.8211C10.1418 24 9.55874 23.5161 9.43354 22.8484L9.17559 21.4727C8.52382 21.2786 7.89552 21.0177 7.29957 20.6949L6.14378 21.4857C5.5831 21.8694 4.8287 21.7993 4.34831 21.3189L2.68113 19.6517C2.20075 19.1713 2.13063 18.4169 2.51425 17.8562L3.30506 16.7004C2.98226 16.1045 2.72141 15.4762 2.52734 14.8244L1.15159 14.5665C0.483867 14.4413 0 13.8582 0 13.1789V10.8211C0 10.1418 0.483867 9.55874 1.15159 9.43354L2.52734 9.17559C2.72141 8.52382 2.98226 7.89552 3.30506 7.29958L2.51425 6.14378C2.13063 5.5831 2.20075 4.82869 2.68113 4.34831L4.34831 2.68113C4.8287 2.20075 5.5831 2.13063 6.14378 2.51426L7.29957 3.30507C7.89552 2.98227 8.52382 2.72141 9.17559 2.52735L9.43354 1.15159C9.55874 0.483867 10.1418 0 10.8211 0H13.1789C13.8582 0 14.4413 0.483867 14.5665 1.15159L14.8244 2.52735C15.4762 2.72141 16.1045 2.98227 16.7004 3.30507L17.8562 2.51426C18.4169 2.13063 19.1713 2.20075 19.6517 2.68113L21.3189 4.34831C21.7993 4.82869 21.8694 5.5831 21.4857 6.14378L20.6949 7.29958C21.0177 7.89552 21.2786 8.52382 21.4727 9.17559L22.8484 9.43354C23.5161 9.55874 24 10.1418 24 10.8211V13.1789C24 13.8101 23.5822 14.3582 22.9873 14.5331C22.3469 13.6404 21.3002 13.0588 20.1176 13.0588C18.1684 13.0588 16.5882 14.639 16.5882 16.5882C16.5882 17.6515 17.0584 18.6049 17.8022 19.252ZM12 16.9412C14.7289 16.9412 16.9412 14.7289 16.9412 12C16.9412 9.27106 14.7289 7.05882 12 7.05882C9.27106 7.05882 7.05882 9.27106 7.05882 12C7.05882 14.7289 9.27106 16.9412 12 16.9412ZM24 22.9426C24 23.3324 23.684 23.6484 23.2941 23.6484C22.9043 23.6484 22.5882 23.3324 22.5882 22.9426C22.5882 22.1137 22.0388 21.5294 21.3529 21.5294H19.06C18.2135 21.5294 17.6471 22.0956 17.6471 22.9412C17.6471 23.331 17.331 23.6471 16.9412 23.6471C16.5513 23.6471 16.2353 23.331 16.2353 22.9412C16.2353 21.3158 17.4339 20.1176 19.06 20.1176H21.3529C22.8386 20.1176 24 21.3528 24 22.9426ZM20.1176 19.0588C18.7532 19.0588 17.6471 17.9527 17.6471 16.5882C17.6471 15.2238 18.7532 14.1176 20.1176 14.1176C21.4821 14.1176 22.5882 15.2238 22.5882 16.5882C22.5882 17.9527 21.4821 19.0588 20.1176 19.0588ZM20.1176 17.6471C20.7024 17.6471 21.1765 17.173 21.1765 16.5882C21.1765 16.0035 20.7024 15.5294 20.1176 15.5294C19.5329 15.5294 19.0588 16.0035 19.0588 16.5882C19.0588 17.173 19.5329 17.6471 20.1176 17.6471ZM12 15.5294C10.0508 15.5294 8.47059 13.9492 8.47059 12C8.47059 10.0508 10.0508 8.47059 12 8.47059C13.9492 8.47059 15.5294 10.0508 15.5294 12C15.5294 13.9492 13.9492 15.5294 12 15.5294Z" fill="white"/>
</g>
<defs>
<clipPath id="clip0_7047_942">
<rect width="24" height="24" fill="white"/>
</clipPath>
</defs>
</svg>
