<svg width="26" height="26" viewBox="0 0 26 26" fill="none" xmlns="http://www.w3.org/2000/svg">
<g clip-path="url(#clip0_7514_2222)">
<path d="M24.2812 17.7137L22.8556 17.001L15.9797 20.439C15.1624 20.8477 14.1218 21.0728 13.0494 21.073C11.9773 21.073 10.9366 20.8479 10.1194 20.4392L3.24306 17.001L1.81742 17.7137C1.04955 18.0977 0.609375 18.6938 0.609375 19.3492C0.609375 20.0044 1.04974 20.6005 1.81742 20.9843L10.8008 25.4761C11.4314 25.7913 12.2403 25.949 13.0494 25.949C13.8585 25.9488 14.6677 25.7913 15.2981 25.4761L24.2812 20.9845C25.0491 20.6005 25.4895 20.0046 25.4895 19.3492C25.4895 18.6938 25.0491 18.0977 24.2812 17.7137Z" fill="#E817AD"/>
<path d="M24.2812 11.3145L22.8556 10.6016L15.9795 14.0398C15.1608 14.4492 14.1202 14.6746 13.0494 14.6746C11.9786 14.6746 10.938 14.4492 10.1194 14.0398L3.24326 10.6016L1.81742 11.3145C1.04974 11.6983 0.609375 12.2944 0.609375 12.9498C0.609375 13.605 1.04974 14.2011 1.81742 14.5849L10.8008 19.0767C11.4314 19.3919 12.2403 19.5496 13.0494 19.5496C13.8585 19.5494 14.6677 19.3919 15.2981 19.0767L24.2812 14.5851C25.0491 14.2011 25.4895 13.6052 25.4895 12.9498C25.4895 12.2944 25.0489 11.6983 24.2812 11.3145Z" fill="#E817AD"/>
<path d="M1.81742 8.18532L10.8008 12.6771C11.4119 12.9828 12.2105 13.1512 13.0494 13.1512C13.8883 13.1512 14.6869 12.9828 15.2981 12.6771L24.281 8.18552C25.0489 7.80148 25.4895 7.2056 25.4895 6.5502C25.4895 5.8948 25.0491 5.29872 24.2812 4.91468L15.2983 0.42331C14.6869 0.11763 13.8883 -0.0507812 13.0494 -0.0507812C12.2105 -0.0507812 11.4119 0.11763 10.8008 0.42331L1.81742 4.91468C1.04955 5.29872 0.609375 5.8948 0.609375 6.5502C0.609375 7.2056 1.04974 7.80148 1.81742 8.18532Z" fill="#E817AD"/>
</g>
<defs>
<clipPath id="clip0_7514_2222">
<rect width="26" height="26" fill="white"/>
</clipPath>
</defs>
</svg>
