<svg width="20" height="20" viewBox="0 0 20 20" fill="none" xmlns="http://www.w3.org/2000/svg">
<g clip-path="url(#clip0_7761_3507)">
<path d="M5.29419 11.7637L0.609283 16.4487C0.21637 16.8416 0 17.3641 0 17.9197C0 18.4754 0.21637 18.9979 0.609283 19.3908C1.0022 19.7837 1.52466 20.0001 2.08038 20.0001C2.63596 20.0001 3.15842 19.7837 3.55133 19.3908L8.23639 14.7059C7.0311 13.9817 6.01837 12.969 5.29419 11.7637Z" fill="white"/>
<path d="M12.6205 3.37244C10.4131 3.37244 8.61719 5.1684 8.61719 7.37573C8.61719 9.58322 10.4131 11.379 12.6205 11.379C14.828 11.379 16.6238 9.58322 16.6238 7.37573C16.6238 5.1684 14.8278 3.37244 12.6205 3.37244ZM14.8797 6.60883L12.519 8.96951C12.4049 9.0838 12.2552 9.14087 12.1055 9.14087C11.956 9.14087 11.8063 9.0838 11.6921 8.96967L10.3613 7.63879C10.133 7.41052 10.133 7.04019 10.3613 6.81192C10.5897 6.5835 10.9599 6.5835 11.1883 6.81192L12.1055 7.72913L14.0527 5.78195C14.2811 5.55368 14.6513 5.55368 14.8797 5.78195C15.1081 6.01022 15.1081 6.38055 14.8797 6.60883Z" fill="white"/>
<path d="M12.6258 0C8.55872 0 5.25 3.30872 5.25 7.37579C5.25 11.4427 8.55887 14.7516 12.6258 14.7516C16.6929 14.7516 20.0016 11.4427 20.0016 7.37579C20.0016 3.30872 16.6929 0 12.6258 0ZM12.6258 12.5485C9.77362 12.5485 7.45306 10.2281 7.45306 7.37579C7.45306 4.52347 9.77362 2.20306 12.6258 2.20306C15.4781 2.20306 17.7987 4.52347 17.7987 7.37579C17.7987 10.2281 15.4781 12.5485 12.6258 12.5485Z" fill="white"/>
</g>
<defs>
<clipPath id="clip0_7761_3507">
<rect width="20" height="20" fill="white"/>
</clipPath>
</defs>
</svg>
