<svg width="30" height="30" viewBox="0 0 30 30" fill="none" xmlns="http://www.w3.org/2000/svg">
<g clip-path="url(#clip0_7047_1005)">
<path d="M9.04995 7.73369L8.95748 7.7877C8.53428 8.03421 8.39008 8.57666 8.63498 9.00078L9.80251 11.0225C9.92061 11.2271 10.1154 11.3763 10.3436 11.4372C10.572 11.4981 10.8151 11.4656 11.0195 11.3468L11.109 11.2949C11.4701 11.0866 11.9279 11.0918 12.3049 11.3086C12.3179 11.3161 12.331 11.3237 12.3438 11.3308C12.713 11.5455 12.9419 11.9362 12.9419 12.3523V12.4596C12.9419 12.9508 13.3401 13.3491 13.8313 13.3491H16.1661C16.6573 13.3491 17.0553 12.9508 17.0553 12.4596V12.3523C17.0553 11.9362 17.2844 11.5455 17.6534 11.3308C17.6664 11.3237 17.6793 11.3161 17.6923 11.3086C18.0693 11.0918 18.527 11.0866 18.8859 11.2935L18.9779 11.3468C19.1821 11.4656 19.4254 11.4981 19.6536 11.4372C19.8818 11.3763 20.0766 11.2271 20.1947 11.0225L21.3622 9.00078C21.6071 8.57643 21.4629 8.03421 21.0397 7.78748L20.944 7.73186C20.5815 7.52266 20.3569 7.12326 20.3583 6.68724V6.65886C20.3569 6.22536 20.5815 5.82642 20.9477 5.61493L21.0402 5.56114C21.4631 5.31441 21.6071 4.77219 21.3622 4.34807L20.1947 2.32635C20.0766 2.12196 19.882 1.97273 19.6538 1.91185C19.4256 1.85097 19.1825 1.88347 18.9782 2.00203L18.8882 2.05421C18.5273 2.2625 18.0695 2.257 17.6925 2.04048C17.679 2.03247 17.6655 2.02492 17.652 2.01759C17.2837 1.80267 17.0553 1.4122 17.0553 0.996552V0.889435C17.0553 0.398254 16.6573 0 16.1661 0H13.8313C13.3401 0 12.9419 0.398254 12.9419 0.889435V0.996552C12.9419 1.41243 12.7134 1.80267 12.3452 2.01759C12.3317 2.02492 12.3182 2.03247 12.3046 2.04071C11.9277 2.257 11.4701 2.2625 11.111 2.05536L11.019 2.00203C10.8146 1.88347 10.5716 1.85097 10.3434 1.91208C10.1152 1.97273 9.92061 2.12196 9.80251 2.32658L8.63498 4.3483C8.39008 4.77219 8.53405 5.31441 8.95702 5.56114L9.05338 5.61745C9.41593 5.82642 9.64023 6.22559 9.63886 6.66183V6.69022C9.64023 7.12349 9.41593 7.52266 9.04995 7.73369ZM14.9986 4.90494C15.9757 4.90494 16.7685 5.6971 16.7685 6.67488C16.7685 7.65198 15.9757 8.44414 14.9986 8.44414C14.0215 8.44414 13.2289 7.65198 13.2289 6.67488C13.2289 5.6971 14.0215 4.90494 14.9986 4.90494Z" fill="url(#paint0_linear_7047_1005)"/>
<path d="M25.5137 23.26C24.871 22.176 23.9186 21.3282 22.8092 20.8025C24.1008 19.3887 24.0633 17.1878 22.6959 15.8202C22.0146 15.139 21.1086 14.7637 20.1453 14.7637C19.1817 14.7637 18.2758 15.139 17.5944 15.8202C17.4836 15.9312 17.3824 16.0479 17.2891 16.1688C17.8448 16.4306 18.3568 16.7893 18.804 17.2363C20.3336 18.7661 20.7585 20.9847 20.0562 22.8972C20.7871 23.49 21.4087 24.2083 21.8942 25.027C22.319 25.7436 22.5284 26.5346 22.5231 27.3259H23.1793C24.1649 27.3259 25.0452 26.8136 25.5338 25.9558C26.0182 25.1059 26.0106 24.0982 25.5137 23.26Z" fill="url(#paint1_linear_7047_1005)"/>
<path d="M8.0992 25.027C8.58443 24.2083 9.20607 23.4902 9.93712 22.8974C9.23468 20.9847 9.65972 18.7661 11.1893 17.2365C11.6366 16.7893 12.1486 16.4306 12.7041 16.1688C12.6107 16.0479 12.5098 15.931 12.3987 15.8202C11.7174 15.139 10.8117 14.7637 9.84809 14.7637C8.88472 14.7637 7.97881 15.139 7.29743 15.8202C5.92986 17.1878 5.89255 19.3887 7.18413 20.8025C6.07474 21.3282 5.12236 22.1758 4.47966 23.26C3.98276 24.0982 3.97521 25.1059 4.45952 25.9558C4.94818 26.8138 5.82846 27.3259 6.8138 27.3259H7.47C7.46474 26.5346 7.6744 25.7438 8.0992 25.027Z" fill="url(#paint2_linear_7047_1005)"/>
<path d="M20.3652 25.9338C19.7225 24.8496 18.7701 24.0018 17.6607 23.4761C18.9523 22.0625 18.9148 19.8614 17.5474 18.494C16.866 17.8126 15.9601 17.4375 14.9965 17.4375C14.0332 17.4375 13.1272 17.8126 12.4459 18.494C11.0783 19.8614 11.041 22.0625 12.3326 23.4761C11.2232 24.0018 10.2708 24.8496 9.6281 25.9338C9.1312 26.772 9.12364 27.7798 9.60796 28.6296C10.0966 29.4874 10.9769 29.9997 11.9622 29.9997H18.0308C19.0164 29.9997 19.8967 29.4874 20.3853 28.6296C20.8694 27.7798 20.8618 26.772 20.3652 25.9338Z" fill="url(#paint3_linear_7047_1005)"/>
</g>
<defs>
<linearGradient id="paint0_linear_7047_1005" x1="8.51563" y1="11.7099" x2="22.9643" y2="8.65712" gradientUnits="userSpaceOnUse">
<stop stop-color="#3AA0FF"/>
<stop offset="0.984375" stop-color="#53D0F7"/>
</linearGradient>
<linearGradient id="paint1_linear_7047_1005" x1="17.2891" y1="25.7833" x2="27.0862" y2="24.3239" gradientUnits="userSpaceOnUse">
<stop stop-color="#3AA0FF"/>
<stop offset="0.984375" stop-color="#53D0F7"/>
</linearGradient>
<linearGradient id="paint2_linear_7047_1005" x1="4.10156" y1="25.7833" x2="13.8984" y2="24.3239" gradientUnits="userSpaceOnUse">
<stop stop-color="#3AA0FF"/>
<stop offset="0.984375" stop-color="#53D0F7"/>
</linearGradient>
<linearGradient id="paint3_linear_7047_1005" x1="9.25" y1="28.4571" x2="22.1195" y2="25.8959" gradientUnits="userSpaceOnUse">
<stop stop-color="#3AA0FF"/>
<stop offset="0.984375" stop-color="#53D0F7"/>
</linearGradient>
<clipPath id="clip0_7047_1005">
<rect width="30" height="30" fill="white"/>
</clipPath>
</defs>
</svg>
