<svg width="24" height="24" viewBox="0 0 24 24" fill="none" xmlns="http://www.w3.org/2000/svg">
<path fill-rule="evenodd" clip-rule="evenodd" d="M17.9749 19.7651H2.12099C0.950699 19.7651 0 18.815 0 17.6439V3.53325C0 2.36163 0.948668 1.41211 2.11956 1.41211H8.82178C9.46531 1.41211 10.1728 1.82116 10.4913 2.37848L11.2051 3.62766C11.2716 3.74398 11.5109 3.8827 11.644 3.8827H19.7648C20.9339 3.8827 21.8824 4.83219 21.8824 6.00243V14.118C21.8819 13.3369 21.2503 12.7062 20.4673 12.7062H19.768C18.9878 12.7062 18.3529 13.3398 18.3529 14.1189V15.8902C18.0413 15.9228 17.7381 16.059 17.4985 16.2985L17.0041 16.793C16.4517 17.3453 16.4522 18.2424 17.0034 18.7935L17.9749 19.7651ZM16.2353 22.2323V21.5331C16.2353 21.3333 16.3938 21.1768 16.5894 21.1768H23.6459C23.8407 21.1768 24 21.3363 24 21.5331V22.2323C24 22.4321 23.8415 22.5886 23.6459 22.5886H16.5894C16.3946 22.5886 16.2353 22.4291 16.2353 22.2323ZM20.8235 17.708L21.4868 17.0447C21.6249 16.9066 21.8489 16.9081 21.9881 17.0472L22.4825 17.5417C22.6238 17.683 22.6219 17.9061 22.4832 18.0448L20.6168 19.9112C20.3411 20.1869 19.8942 20.1869 19.6185 19.9112L17.7521 18.0448C17.6147 17.9074 17.6136 17.6808 17.7528 17.5417L18.2472 17.0472C18.3885 16.906 18.6108 16.907 18.7485 17.0447L19.4118 17.708V14.1189C19.4118 13.9259 19.5713 13.7651 19.768 13.7651H20.4673C20.6671 13.7651 20.8235 13.9235 20.8235 14.1189V17.708Z" fill="url(#paint0_linear_7047_916)" fill-opacity="0.9"/>
<defs>
<linearGradient id="paint0_linear_7047_916" x1="14.2222" y1="-2.44025" x2="18.3996" y2="21.8708" gradientUnits="userSpaceOnUse">
<stop offset="0.168198" stop-color="#FF9DC8"/>
<stop offset="0.984375" stop-color="#EB2B7E"/>
</linearGradient>
</defs>
</svg>
