<svg width="42.1041" height="42.1041" viewBox="24.208 21 42.1041 42.1041" fill="none" xmlns="http://www.w3.org/2000/svg">
<g filter="url(#filter0_d_1764_4424)">
<rect x="24.208" y="21" width="42.1041" height="42.1041" rx="14.9256" fill="#0FD38D" shape-rendering="crispEdges"/>
<mask id="mask0_1764_4424" style="mask-type:luminance" maskUnits="userSpaceOnUse" x="35" y="32" width="20" height="20">
<path d="M45.2627 50.8027C46.412 50.8042 47.5502 50.5786 48.612 50.1388C49.6738 49.6989 50.6382 49.0536 51.4498 48.2399C52.2636 47.4283 52.9089 46.4639 53.3487 45.4021C53.7885 44.3403 54.0142 43.202 54.0127 42.0527C54.0142 40.9035 53.7885 39.7652 53.3487 38.7034C52.9089 37.6416 52.2635 36.6772 51.4498 35.8656C50.6382 35.0519 49.6738 34.4066 48.612 33.9667C47.5502 33.5269 46.412 33.3013 45.2627 33.3027C44.1134 33.3013 42.9752 33.5269 41.9134 33.9668C40.8516 34.4066 39.8872 35.0519 39.0756 35.8656C38.2619 36.6772 37.6165 37.6416 37.1767 38.7034C36.7369 39.7652 36.5112 40.9035 36.5127 42.0527C36.5112 43.202 36.7369 44.3403 37.1767 45.4021C37.6165 46.4639 38.2618 47.4283 39.0756 48.2399C39.8872 49.0536 40.8516 49.6989 41.9134 50.1387C42.9752 50.5785 44.1134 50.8042 45.2627 50.8027Z" fill="white" stroke="white" stroke-width="1.70394" stroke-linejoin="round"/>
<path d="M45.2627 44.0762V42.3262C45.7819 42.3262 46.2894 42.1722 46.7211 41.8838C47.1527 41.5953 47.4892 41.1854 47.6879 40.7057C47.8866 40.2261 47.9385 39.6983 47.8373 39.1891C47.736 38.6799 47.486 38.2121 47.1189 37.845C46.7517 37.4779 46.284 37.2279 45.7748 37.1266C45.2656 37.0253 44.7378 37.0773 44.2582 37.276C43.7785 37.4747 43.3685 37.8111 43.0801 38.2428C42.7916 38.6745 42.6377 39.182 42.6377 39.7012" stroke="black" stroke-width="1.70394" stroke-linecap="round" stroke-linejoin="round"/>
<path fill-rule="evenodd" clip-rule="evenodd" d="M45.2627 48.0137C45.5528 48.0137 45.831 47.8984 46.0361 47.6933C46.2412 47.4882 46.3564 47.21 46.3564 46.9199C46.3564 46.6298 46.2412 46.3516 46.0361 46.1465C45.831 45.9414 45.5528 45.8262 45.2627 45.8262C44.9726 45.8262 44.6944 45.9414 44.4893 46.1465C44.2842 46.3516 44.1689 46.6298 44.1689 46.9199C44.1689 47.21 44.2842 47.4882 44.4893 47.6933C44.6944 47.8984 44.9726 48.0137 45.2627 48.0137Z" fill="black"/>
</mask>
<g mask="url(#mask0_1764_4424)">
<path d="M34.7607 31.5527H55.7607V52.5527H34.7607V31.5527Z" fill="white"/>
</g>
</g>
<defs>
<filter id="filter0_d_1764_4424" x="0.327017" y="0.104133" width="89.8665" height="89.866" filterUnits="userSpaceOnUse" color-interpolation-filters="sRGB">
<feFlood flood-opacity="0" result="BackgroundImageFix"/>
<feColorMatrix in="SourceAlpha" type="matrix" values="0 0 0 0 0 0 0 0 0 0 0 0 0 0 0 0 0 0 127 0" result="hardAlpha"/>
<feOffset dy="2.98512"/>
<feGaussianBlur stdDeviation="11.9405"/>
<feComposite in2="hardAlpha" operator="out"/>
<feColorMatrix type="matrix" values="0 0 0 0 0.964706 0 0 0 0 0.309804 0 0 0 0 0.388235 0 0 0 0.33 0"/>
<feBlend mode="normal" in2="BackgroundImageFix" result="effect1_dropShadow_1764_4424"/>
<feBlend mode="normal" in="SourceGraphic" in2="effect1_dropShadow_1764_4424" result="shape"/>
</filter>
</defs>
</svg>