<svg width="42.1041" height="42.1041" viewBox="24.208 21 42.1041 42.1041" fill="none" xmlns="http://www.w3.org/2000/svg">
<g filter="url(#filter0_d_1764_4394)">
<rect x="24.1045" y="21" width="42.1041" height="42.1041" rx="14.9256" fill="#6461EE" shape-rendering="crispEdges"/>
<g clip-path="url(#clip0_1764_4394)">
<path d="M37.3046 40.6975L39.7406 41.7076C39.4659 42.401 39.2468 43.1152 39.0854 43.8433L38.993 44.2633L42.4853 47.7577L42.9053 47.6674C43.6334 47.506 44.3476 47.2869 45.041 47.0122L46.0511 49.4482C46.061 49.4724 46.0767 49.4937 46.0969 49.5102C46.1171 49.5268 46.141 49.5381 46.1666 49.5431C46.1923 49.5481 46.2187 49.5466 46.2436 49.5389C46.2685 49.5311 46.2911 49.5173 46.3094 49.4986L47.8361 47.9719C48.0852 47.7228 48.2794 47.4242 48.406 47.0954C48.5326 46.7666 48.5888 46.4149 48.5711 46.063L48.5165 45.0823C51.3431 42.9949 54.2033 39.3346 54.9824 32.9464C55.0045 32.7863 54.9893 32.6232 54.938 32.4698C54.8867 32.3165 54.8007 32.1771 54.6867 32.0625C54.5727 31.9478 54.4337 31.8611 54.2806 31.809C54.1276 31.7568 53.9646 31.7408 53.8043 31.762C47.4182 32.5474 43.7558 35.4097 41.6684 38.2279L40.6898 38.1775C40.3387 38.1584 39.9874 38.213 39.6587 38.3378C39.3299 38.4626 39.0309 38.6548 38.7809 38.902L37.2542 40.4287C37.233 40.4467 37.217 40.47 37.2077 40.4961C37.1985 40.5223 37.1963 40.5505 37.2014 40.5778C37.2065 40.605 37.2188 40.6305 37.2369 40.6515C37.255 40.6726 37.2784 40.6884 37.3046 40.6975ZM47.099 36.9763C47.3636 36.7127 47.7003 36.5333 48.0668 36.4609C48.4332 36.3885 48.8129 36.4263 49.1579 36.5696C49.5029 36.7128 49.7976 36.9551 50.005 37.2657C50.2124 37.5764 50.3231 37.9416 50.3231 38.3151C50.3231 38.6886 50.2124 39.0538 50.005 39.3644C49.7976 39.6751 49.5029 39.9173 49.1579 40.0606C48.8129 40.2038 48.4332 40.2416 48.0668 40.1692C47.7003 40.0968 47.3636 39.9175 47.099 39.6538C46.9228 39.4782 46.783 39.2696 46.6876 39.0399C46.5922 38.8101 46.5431 38.5638 46.5431 38.3151C46.5431 38.0663 46.5922 37.82 46.6876 37.5903C46.783 37.3606 46.9228 37.1519 47.099 36.9763ZM36.8489 48.037C36.4446 47.8952 36.0105 47.8604 35.5889 47.9362C35.5514 47.9443 35.5125 47.9428 35.4758 47.9318C35.439 47.9208 35.4057 47.9006 35.3789 47.8732C35.3456 47.8401 35.3234 47.7976 35.3151 47.7514C35.3068 47.7052 35.313 47.6575 35.3327 47.6149C35.78 46.6531 36.9665 44.719 39.1148 46.2814C39.126 46.2915 39.135 46.3038 39.1411 46.3175C39.1473 46.3313 39.1505 46.3462 39.1505 46.3612C39.1505 46.3763 39.1473 46.3912 39.1411 46.4049C39.135 46.4187 39.126 46.431 39.1148 46.441C38.8272 46.6675 38.5969 46.9585 38.4426 47.2905C38.2883 47.6225 38.2142 47.9861 38.2265 48.352C38.228 48.395 38.2458 48.4357 38.2762 48.4661C38.3066 48.4965 38.3473 48.5143 38.3903 48.5158C38.7546 48.5305 39.1173 48.4595 39.4492 48.3085C39.7811 48.1575 40.0729 47.9307 40.3013 47.6464C40.3113 47.6341 40.324 47.6242 40.3383 47.6174C40.3527 47.6106 40.3684 47.6071 40.3842 47.6071C40.4001 47.6071 40.4158 47.6106 40.4301 47.6174C40.4445 47.6242 40.4571 47.6341 40.4672 47.6464C40.7654 48.0013 41.5865 49.1605 40.6772 50.2798C40.2802 50.757 39.7114 51.0587 39.0938 51.1198C38.2118 51.2143 36.5822 51.502 35.9165 52.2622C35.8898 52.2939 35.8549 52.3177 35.8158 52.3311C35.7766 52.3446 35.7345 52.3471 35.6939 52.3385C35.6534 52.3299 35.616 52.3104 35.5856 52.2822C35.5553 52.254 35.5332 52.218 35.5217 52.1782C35.2865 51.376 34.9211 49.5826 36.8489 48.037Z" fill="white"/>
</g>
</g>
<defs>
<filter id="filter0_d_1764_4394" x="0.223501" y="0.104133" width="89.8665" height="89.866" filterUnits="userSpaceOnUse" color-interpolation-filters="sRGB">
<feFlood flood-opacity="0" result="BackgroundImageFix"/>
<feColorMatrix in="SourceAlpha" type="matrix" values="0 0 0 0 0 0 0 0 0 0 0 0 0 0 0 0 0 0 127 0" result="hardAlpha"/>
<feOffset dy="2.98512"/>
<feGaussianBlur stdDeviation="11.9405"/>
<feComposite in2="hardAlpha" operator="out"/>
<feColorMatrix type="matrix" values="0 0 0 0 0.392157 0 0 0 0 0.380392 0 0 0 0 0.933333 0 0 0 0.33 0"/>
<feBlend mode="normal" in2="BackgroundImageFix" result="effect1_dropShadow_1764_4394"/>
<feBlend mode="normal" in="SourceGraphic" in2="effect1_dropShadow_1764_4394" result="shape"/>
</filter>
<clipPath id="clip0_1764_4394">
<rect width="21" height="21" fill="white" transform="translate(34.6562 31.5522)"/>
</clipPath>
</defs>
</svg>
