<svg xmlns="http://www.w3.org/2000/svg" width="119" height="118" viewBox="0 0 119 118" fill="none">
                                            <path d="M118.206 58.9556C118.206 50.9302 116.565 42.9895 113.383 35.6211L101.792 40.6213C104.292 46.4108 105.582 52.6499 105.582 58.9556H118.206Z" fill="#F5AD59"></path>
                                            <path d="M113.383 35.6211C108.537 24.4003 100.318 14.9645 89.866 8.62207L83.3145 19.4078C91.5269 24.3911 97.9846 31.805 101.792 40.6214L113.383 35.6211Z" fill="#37D7B0"></path>
                                            <path d="M89.8651 8.62228C79.301 2.21202 66.9875 -0.715516 54.6671 0.253955C42.3466 1.22343 30.6432 6.0408 21.2129 14.0244L29.3725 23.6525C36.782 17.3797 45.9775 13.5947 55.6579 12.8329C65.3382 12.0712 75.0131 14.3714 83.3135 19.408L89.8651 8.62228Z" fill="#EE61CF"></path>
                                            <path d="M21.213 14.0244C13.3328 20.6957 7.34559 29.3201 3.85149 39.0332C0.357395 48.7462 -0.520791 59.2066 1.30495 69.3658C3.13068 79.525 7.5962 89.0261 14.2539 96.9167C20.9116 104.807 29.5275 110.81 39.238 114.323L43.5351 102.459C35.9054 99.6984 29.1358 94.9819 23.9047 88.7822C18.6737 82.5825 15.1651 75.1174 13.7306 67.1351C12.2961 59.1529 12.9861 50.934 15.7314 43.3023C18.4768 35.6707 23.181 28.8943 29.3726 23.6526L21.213 14.0244Z" fill="#178EE8"></path>
                                            <path d="M39.2383 114.324C48.1357 117.543 57.6779 118.572 67.0578 117.326C76.4376 116.079 85.3789 112.592 93.1253 107.161C100.872 101.73 107.195 94.5134 111.561 86.1226C115.926 77.7319 118.206 68.4135 118.206 58.9561H105.581C105.581 66.3869 103.79 73.7085 100.36 80.3012C96.9301 86.894 91.9617 92.564 85.8752 96.8314C79.7888 101.099 72.7634 103.838 65.3935 104.818C58.0237 105.797 50.5262 104.988 43.5354 102.459L39.2383 114.324Z" fill="#6461EE"></path>
                                        </svg>