<svg width="24" height="24" viewBox="0 0 24 24" fill="none" xmlns="http://www.w3.org/2000/svg">
<path fill-rule="evenodd" clip-rule="evenodd" d="M10.8022 3H13.2037C13.2833 3 13.3596 3.03161 13.4159 3.08787C13.4721 3.14413 13.5037 3.22044 13.5037 3.3C13.5037 6.012 16.4407 7.7085 18.7897 6.351C18.8583 6.31223 18.9394 6.30199 19.0154 6.32248C19.0915 6.34296 19.1564 6.39254 19.1962 6.4605L20.3992 8.5425C20.4385 8.6112 20.449 8.69263 20.4285 8.76904C20.408 8.84546 20.3581 8.91067 20.2897 8.9505C17.9407 10.3065 17.9407 13.6965 20.2897 15.054C20.3577 15.0938 20.4073 15.1588 20.4278 15.2348C20.4483 15.3109 20.438 15.3919 20.3992 15.4605L19.1962 17.5425C19.1564 17.6105 19.0915 17.66 19.0154 17.6805C18.9394 17.701 18.8583 17.6908 18.7897 17.652C16.4407 16.2945 13.5037 17.9895 13.5037 20.7C13.5037 20.7793 13.4723 20.8554 13.4164 20.9116C13.3605 20.9678 13.2845 20.9996 13.2052 21H10.8037C10.7242 21 10.6479 20.9684 10.5916 20.9121C10.5353 20.8559 10.5037 20.7796 10.5037 20.7C10.5037 17.988 7.56674 16.293 5.21774 17.649C5.14903 17.6882 5.06761 17.6987 4.9912 17.6782C4.91478 17.6577 4.84956 17.6079 4.80974 17.5395L3.60974 15.4575C3.57084 15.3891 3.56037 15.3082 3.58057 15.2322C3.60077 15.1561 3.65003 15.0911 3.71774 15.051C6.06674 13.6935 6.06674 10.3035 3.71774 8.946C3.64978 8.90618 3.6002 8.84124 3.57971 8.76518C3.55923 8.68913 3.56947 8.60807 3.60824 8.5395L4.80974 6.4575C4.84956 6.38914 4.91478 6.33927 4.9912 6.31876C5.06761 6.29825 5.14903 6.30876 5.21774 6.348C7.56674 7.707 10.5037 6.0105 10.5037 3.3C10.5037 3.135 10.6372 3 10.8022 3ZM8.25374 3.3C8.25374 1.89 9.39374 0.75 10.8022 0.75H13.2037C14.6137 0.75 15.7537 1.89 15.7537 3.3C15.7542 3.52345 15.8133 3.74285 15.9253 3.93623C16.0372 4.12961 16.198 4.29018 16.3916 4.40184C16.5851 4.5135 16.8046 4.57234 17.0281 4.57245C17.2515 4.57257 17.4711 4.51396 17.6647 4.4025C18.2501 4.06539 18.9453 3.97429 19.5977 4.14921C20.2502 4.32414 20.8065 4.75078 21.1447 5.3355L22.3477 7.4175C23.0512 8.637 22.6327 10.194 21.4147 10.8975C21.221 11.0094 21.0601 11.1704 20.9483 11.3642C20.8364 11.5579 20.7776 11.7778 20.7776 12.0015C20.7776 12.2252 20.8364 12.4451 20.9483 12.6388C21.0601 12.8326 21.221 12.9936 21.4147 13.1055C21.9995 13.4437 22.4261 14.0001 22.601 14.6525C22.7759 15.305 22.6849 16.0002 22.3477 16.5855L21.1447 18.6675C20.8065 19.2522 20.2502 19.6789 19.5977 19.8538C18.9453 20.0287 18.2501 19.9376 17.6647 19.6005C17.4711 19.489 17.2515 19.4304 17.0281 19.4305C16.8046 19.4307 16.5851 19.4895 16.3916 19.6012C16.198 19.7128 16.0372 19.8734 15.9253 20.0668C15.8133 20.2601 15.7542 20.4796 15.7537 20.703C15.7537 22.1115 14.6137 23.253 13.2052 23.253H10.8037C10.1277 23.2526 9.47948 22.9838 9.00159 22.5056C8.52369 22.0274 8.25524 21.379 8.25524 20.703C8.25479 20.4796 8.19563 20.2601 8.08368 20.0668C7.97174 19.8734 7.81093 19.7128 7.61739 19.6012C7.42384 19.4895 7.20435 19.4307 6.9809 19.4305C6.75745 19.4304 6.5379 19.489 6.34424 19.6005C5.75889 19.9376 5.0637 20.0287 4.41126 19.8538C3.75882 19.6789 3.20244 19.2522 2.86424 18.6675L1.66124 16.5855C1.32412 16.0002 1.23303 15.305 1.40795 14.6525C1.58287 14.0001 2.00952 13.4437 2.59424 13.1055C2.78763 12.9935 2.94817 12.8326 3.05977 12.6389C3.17138 12.4453 3.23013 12.2257 3.23013 12.0023C3.23013 11.7788 3.17138 11.5592 3.05977 11.3656C2.94817 11.1719 2.78763 11.011 2.59424 10.899C2.00911 10.5608 1.58218 10.0041 1.40723 9.35134C1.23229 8.69853 1.32365 8.00298 1.66124 7.4175L2.86274 5.3355C3.20094 4.75078 3.75732 4.32414 4.40976 4.14921C5.0622 3.97429 5.75739 4.06539 6.34274 4.4025C6.5364 4.51396 6.75595 4.57257 6.9794 4.57245C7.20285 4.57234 7.42234 4.5135 7.61589 4.40184C7.80943 4.29018 7.97024 4.12961 8.08218 3.93623C8.19413 3.74285 8.25329 3.52345 8.25374 3.3ZM14.2537 12C14.2537 12.5967 14.0167 13.169 13.5947 13.591C13.1728 14.0129 12.6005 14.25 12.0037 14.25C11.407 14.25 10.8347 14.0129 10.4127 13.591C9.99079 13.169 9.75374 12.5967 9.75374 12C9.75374 11.4033 9.99079 10.831 10.4127 10.409C10.8347 9.98705 11.407 9.75 12.0037 9.75C12.6005 9.75 13.1728 9.98705 13.5947 10.409C14.0167 10.831 14.2537 11.4033 14.2537 12ZM16.5037 12C16.5037 13.1935 16.0296 14.3381 15.1857 15.182C14.3418 16.0259 13.1972 16.5 12.0037 16.5C10.8103 16.5 9.66567 16.0259 8.82176 15.182C7.97784 14.3381 7.50374 13.1935 7.50374 12C7.50374 10.8065 7.97784 9.66193 8.82176 8.81802C9.66567 7.97411 10.8103 7.5 12.0037 7.5C13.1972 7.5 14.3418 7.97411 15.1857 8.81802C16.0296 9.66193 16.5037 10.8065 16.5037 12Z" fill="white"/>
</svg>
