<svg width="24" height="24" viewBox="0 0 24 24" fill="none" xmlns="http://www.w3.org/2000/svg">
<path fill-rule="evenodd" clip-rule="evenodd" d="M15.326 4.8232C15.4014 4.54072 15.3638 4.24 15.2213 3.98474C15.0788 3.72948 14.8425 3.53974 14.5624 3.45569C14.2824 3.37165 13.9807 3.39991 13.7211 3.5345C13.4616 3.66908 13.2647 3.89941 13.172 4.1767L8.67201 19.1767C8.59871 19.4586 8.63759 19.7579 8.78047 20.0117C8.92334 20.2655 9.15908 20.454 9.43809 20.5375C9.7171 20.6211 10.0176 20.5932 10.2765 20.4597C10.5353 20.3262 10.7323 20.0975 10.826 19.8217L15.326 4.8232ZM6.79401 7.4542C7.00469 7.66514 7.12302 7.95108 7.12302 8.2492C7.12302 8.54733 7.00469 8.83326 6.79401 9.0442L3.83901 11.9992L6.79401 14.9542C6.99273 15.1675 7.10091 15.4495 7.09577 15.741C7.09063 16.0324 6.97256 16.3105 6.76644 16.5166C6.56032 16.7228 6.28225 16.8408 5.99079 16.846C5.69934 16.8511 5.41727 16.7429 5.20401 16.5442L1.45401 12.7942C1.24333 12.5833 1.125 12.2973 1.125 11.9992C1.125 11.7011 1.24333 11.4151 1.45401 11.2042L5.20401 7.4542C5.41495 7.24353 5.70088 7.12519 5.99901 7.12519C6.29714 7.12519 6.58307 7.24353 6.79401 7.4542ZM17.204 16.5442C16.9933 16.3333 16.875 16.0473 16.875 15.7492C16.875 15.4511 16.9933 15.1651 17.204 14.9542L20.159 11.9992L17.204 9.0442C17.0053 8.83094 16.8971 8.54887 16.9022 8.25742C16.9074 7.96597 17.0255 7.68789 17.2316 7.48177C17.4377 7.27565 17.7158 7.15758 18.0072 7.15244C18.2987 7.1473 18.5807 7.25548 18.794 7.4542L22.544 11.2042C22.7547 11.4151 22.873 11.7011 22.873 11.9992C22.873 12.2973 22.7547 12.5833 22.544 12.7942L18.794 16.5442C18.5831 16.7549 18.2971 16.8732 17.999 16.8732C17.7009 16.8732 17.4149 16.7549 17.204 16.5442Z" fill="white"/>
</svg>
