<svg width="120" height="120" viewBox="0 0 120 120" fill="none" xmlns="http://www.w3.org/2000/svg">
<g filter="url(#filter0_d_2114_29889)">
<rect x="32" y="28" width="56" height="56" rx="12" fill="url(#paint0_linear_2114_29889)" shape-rendering="crispEdges"/>
<path fill-rule="evenodd" clip-rule="evenodd" d="M51.4645 47.4645C50 48.9289 50 51.286 50 56C50 60.714 50 63.0711 51.4645 64.5355C52.9289 66 55.286 66 60 66C64.714 66 67.0711 66 68.5355 64.5355C70 63.0711 70 60.714 70 56C70 51.286 70 48.9289 68.5355 47.4645C67.0711 46 64.714 46 60 46C55.286 46 52.9289 46 51.4645 47.4645ZM61.75 54C61.75 54.4142 62.0858 54.75 62.5 54.75H63.1893L61.1768 56.7626C61.0791 56.8602 60.9209 56.8602 60.8232 56.7626L59.2374 55.1768C58.554 54.4934 57.446 54.4934 56.7626 55.1768L54.4697 57.4697C54.1768 57.7626 54.1768 58.2374 54.4697 58.5303C54.7626 58.8232 55.2374 58.8232 55.5303 58.5303L57.8232 56.2374C57.9209 56.1398 58.0791 56.1398 58.1768 56.2374L59.7626 57.8232C60.446 58.5066 61.554 58.5066 62.2374 57.8232L64.25 55.8107V56.5C64.25 56.9142 64.5858 57.25 65 57.25C65.4142 57.25 65.75 56.9142 65.75 56.5V54C65.75 53.5858 65.4142 53.25 65 53.25H62.5C62.0858 53.25 61.75 53.5858 61.75 54Z" fill="white"/>
</g>
<defs>
<filter id="filter0_d_2114_29889" x="0" y="0" width="120" height="120" filterUnits="userSpaceOnUse" color-interpolation-filters="sRGB">
<feFlood flood-opacity="0" result="BackgroundImageFix"/>
<feColorMatrix in="SourceAlpha" type="matrix" values="0 0 0 0 0 0 0 0 0 0 0 0 0 0 0 0 0 0 127 0" result="hardAlpha"/>
<feOffset dy="4"/>
<feGaussianBlur stdDeviation="16"/>
<feComposite in2="hardAlpha" operator="out"/>
<feColorMatrix type="matrix" values="0 0 0 0 0.0901961 0 0 0 0 0.556863 0 0 0 0 0.909804 0 0 0 0.33 0"/>
<feBlend mode="normal" in2="BackgroundImageFix" result="effect1_dropShadow_2114_29889"/>
<feBlend mode="normal" in="SourceGraphic" in2="effect1_dropShadow_2114_29889" result="shape"/>
</filter>
<linearGradient id="paint0_linear_2114_29889" x1="29.5" y1="91.5" x2="78.5907" y2="14.9401" gradientUnits="userSpaceOnUse">
<stop offset="0.168198" stop-color="#38DBFF"/>
<stop offset="0.984375" stop-color="#2521DD"/>
</linearGradient>
</defs>
</svg>
