<svg width="52" height="52" viewBox="0 0 52 52" fill="none" xmlns="http://www.w3.org/2000/svg">
<path d="M4.32812 26.0002C4.32812 15.7865 4.32812 10.6797 7.50013 7.5055C10.6765 4.3335 15.7811 4.3335 25.9948 4.3335C36.2085 4.3335 41.3153 4.3335 44.4873 7.5055C47.6615 10.6818 47.6615 15.7865 47.6615 26.0002C47.6615 36.2138 47.6615 41.3207 44.4873 44.4927C41.3175 47.6668 36.2085 47.6668 25.9948 47.6668C15.7811 47.6668 10.6743 47.6668 7.50013 44.4927C4.32812 41.3228 4.32812 36.2138 4.32812 26.0002Z" fill="url(#paint0_linear_5676_32819)" fill-opacity="0.1" stroke="url(#paint1_linear_5676_32819)" stroke-width="3"/>
<path d="M16.1523 18.4727V32.2227H36.2773V33.5273H15.4375C15.012 33.5273 14.7227 33.2055 14.7227 32.875V18.4727H16.1523ZM29.54 19.8477H34.8398V24.8848C34.8398 25.0046 34.7729 25.1096 34.6309 25.166C34.4868 25.2231 34.3331 25.1993 34.2207 25.0918L32.7656 23.7002L32.2666 23.2227L31.7666 23.7002L27.4541 27.8252C27.1724 28.0948 26.7023 28.0953 26.4199 27.8252L23.124 24.6729L22.625 24.1953L22.126 24.6729L20.0566 26.6523V26.6514C20.0551 26.6519 20.0521 26.6533 20.0479 26.6533C20.0434 26.6533 20.0396 26.652 20.0381 26.6514V26.6523L19.0596 25.7158L22.1084 22.7998C22.3901 22.5302 22.8602 22.5297 23.1426 22.7998L26.4385 25.9521L26.9375 26.4297L27.4365 25.9521L30.7324 22.7998L31.2783 22.2773L30.7324 21.7559L29.2773 20.3633C29.1732 20.2636 29.1622 20.1525 29.207 20.0488C29.2536 19.9413 29.3616 19.8477 29.54 19.8477Z" fill="url(#paint2_linear_5676_32819)" stroke="url(#paint3_linear_5676_32819)" stroke-width="1.44444"/>
<defs>
<linearGradient id="paint0_linear_5676_32819" x1="4.32813" y1="42.3458" x2="52.4936" y2="31.8685" gradientUnits="userSpaceOnUse">
<stop stop-color="#3AA0FF"/>
<stop offset="0.984375" stop-color="#53D0F7"/>
</linearGradient>
<linearGradient id="paint1_linear_5676_32819" x1="4.32813" y1="42.3458" x2="52.4936" y2="31.8685" gradientUnits="userSpaceOnUse">
<stop stop-color="#3AA0FF"/>
<stop offset="0.984375" stop-color="#53D0F7"/>
</linearGradient>
<linearGradient id="paint2_linear_5676_32819" x1="14" y1="32.2239" x2="38.52" y2="24.7889" gradientUnits="userSpaceOnUse">
<stop stop-color="#3AA0FF"/>
<stop offset="0.984375" stop-color="#53D0F7"/>
</linearGradient>
<linearGradient id="paint3_linear_5676_32819" x1="14" y1="32.2239" x2="38.52" y2="24.7889" gradientUnits="userSpaceOnUse">
<stop stop-color="#3AA0FF"/>
<stop offset="0.984375" stop-color="#53D0F7"/>
</linearGradient>
</defs>
</svg>
