<svg width="575" height="300" viewBox="0 0 575 300" fill="none" xmlns="http://www.w3.org/2000/svg">
<g filter="url(#filter0_d_385_3364)">
<rect x="42.6467" y="37.6467" width="348.707" height="117.707" rx="20.0479" fill="white"/>
<rect x="42.6467" y="37.6467" width="348.707" height="117.707" rx="20.0479" stroke="#E0E2E7" stroke-width="1.29341"/>
<path d="M77.7273 85H73.2912V71.9091H77.8168C79.1165 71.9091 80.233 72.1712 81.1662 72.6953C82.1037 73.2152 82.8239 73.9631 83.3267 74.9389C83.8295 75.9148 84.081 77.0824 84.081 78.4418C84.081 79.8054 83.8274 80.9773 83.3203 81.9574C82.8175 82.9375 82.0909 83.6896 81.1406 84.2138C80.1946 84.7379 79.0568 85 77.7273 85ZM75.6626 82.9482H77.6122C78.5241 82.9482 79.2848 82.782 79.8942 82.4496C80.5036 82.1129 80.9616 81.6122 81.2685 80.9474C81.5753 80.2784 81.7287 79.4432 81.7287 78.4418C81.7287 77.4403 81.5753 76.6094 81.2685 75.9489C80.9616 75.2841 80.5078 74.7876 79.907 74.4595C79.3104 74.1271 78.5689 73.9609 77.6825 73.9609H75.6626V82.9482ZM90.5785 85.1918C89.5941 85.1918 88.744 84.9872 88.0281 84.5781C87.3164 84.1648 86.7688 83.581 86.3853 82.8267C86.0018 82.0682 85.81 81.1754 85.81 80.1484C85.81 79.1385 86.0018 78.2521 86.3853 77.4893C86.7731 76.7223 87.3143 76.1257 88.0089 75.6996C88.7035 75.2692 89.5195 75.054 90.457 75.054C91.0621 75.054 91.6332 75.152 92.1701 75.348C92.7113 75.5398 93.1886 75.8381 93.6019 76.2429C94.0195 76.6477 94.3477 77.1634 94.5863 77.7898C94.8249 78.4119 94.9442 79.1534 94.9442 80.0142V80.7237H86.8967V79.1641H92.7262C92.7219 78.7209 92.6261 78.3267 92.4386 77.9815C92.2511 77.6321 91.989 77.3572 91.6523 77.157C91.32 76.9567 90.9322 76.8565 90.489 76.8565C90.016 76.8565 89.6005 76.9716 89.2425 77.2017C88.8846 77.4276 88.6055 77.7259 88.4052 78.0966C88.2092 78.4631 88.109 78.8658 88.1048 79.3047V80.6662C88.1048 81.2372 88.2092 81.7273 88.418 82.1364C88.6268 82.5412 88.9187 82.8523 89.2937 83.0696C89.6687 83.2827 90.1076 83.3892 90.6104 83.3892C90.9471 83.3892 91.2518 83.3423 91.5245 83.2486C91.7972 83.1506 92.0337 83.0078 92.234 82.8203C92.4343 82.6328 92.5856 82.4006 92.6879 82.1236L94.8484 82.3665C94.712 82.9375 94.4521 83.4361 94.0685 83.8622C93.6893 84.2841 93.2035 84.6122 92.6112 84.8466C92.0188 85.0767 91.3413 85.1918 90.5785 85.1918ZM96.9018 88.6818V75.1818H99.1774V76.8054H99.3116C99.4309 76.5668 99.5993 76.3132 99.8166 76.0447C100.034 75.772 100.328 75.5398 100.699 75.348C101.069 75.152 101.542 75.054 102.118 75.054C102.876 75.054 103.56 75.2479 104.17 75.6357C104.783 76.0192 105.269 76.5881 105.627 77.3423C105.989 78.0923 106.17 79.0128 106.17 80.1037C106.17 81.1818 105.993 82.098 105.64 82.8523C105.286 83.6065 104.805 84.1818 104.195 84.5781C103.586 84.9744 102.895 85.1726 102.124 85.1726C101.562 85.1726 101.095 85.0788 100.724 84.8913C100.354 84.7038 100.055 84.478 99.8294 84.2138C99.6078 83.9453 99.4352 83.6918 99.3116 83.4531H99.2157V88.6818H96.9018ZM99.171 80.0909C99.171 80.7259 99.2605 81.282 99.4395 81.7592C99.6227 82.2365 99.8848 82.6094 100.226 82.8778C100.571 83.142 100.988 83.2741 101.479 83.2741C101.99 83.2741 102.418 83.1378 102.763 82.8651C103.108 82.5881 103.368 82.2109 103.543 81.7337C103.722 81.2521 103.812 80.7045 103.812 80.0909C103.812 79.4815 103.724 78.9403 103.55 78.4673C103.375 77.9943 103.115 77.6236 102.77 77.3551C102.425 77.0866 101.994 76.9524 101.479 76.9524C100.984 76.9524 100.564 77.0824 100.219 77.3423C99.8741 77.6023 99.612 77.9666 99.4331 78.4354C99.2583 78.9041 99.171 79.456 99.171 80.0909ZM110.466 71.9091V85H108.152V71.9091H110.466ZM117.128 85.1918C116.169 85.1918 115.338 84.9808 114.635 84.5589C113.932 84.1371 113.386 83.5469 112.999 82.7884C112.615 82.0298 112.423 81.1435 112.423 80.1293C112.423 79.1151 112.615 78.2266 112.999 77.4638C113.386 76.701 113.932 76.1087 114.635 75.6868C115.338 75.2649 116.169 75.054 117.128 75.054C118.087 75.054 118.918 75.2649 119.621 75.6868C120.324 76.1087 120.867 76.701 121.251 77.4638C121.638 78.2266 121.832 79.1151 121.832 80.1293C121.832 81.1435 121.638 82.0298 121.251 82.7884C120.867 83.5469 120.324 84.1371 119.621 84.5589C118.918 84.9808 118.087 85.1918 117.128 85.1918ZM117.141 83.3381C117.661 83.3381 118.095 83.1953 118.445 82.9098C118.794 82.62 119.054 82.2322 119.224 81.7464C119.399 81.2607 119.487 80.7195 119.487 80.1229C119.487 79.522 119.399 78.9787 119.224 78.4929C119.054 78.0028 118.794 77.6129 118.445 77.3232C118.095 77.0334 117.661 76.8885 117.141 76.8885C116.608 76.8885 116.165 77.0334 115.811 77.3232C115.462 77.6129 115.2 78.0028 115.025 78.4929C114.854 78.9787 114.769 79.522 114.769 80.1229C114.769 80.7195 114.854 81.2607 115.025 81.7464C115.2 82.2322 115.462 82.62 115.811 82.9098C116.165 83.1953 116.608 83.3381 117.141 83.3381ZM124.901 88.6818C124.585 88.6818 124.293 88.6563 124.025 88.6051C123.761 88.5582 123.55 88.5028 123.392 88.4389L123.929 86.6364C124.266 86.7344 124.566 86.7813 124.83 86.777C125.094 86.7727 125.327 86.6896 125.527 86.5277C125.732 86.37 125.904 86.1058 126.045 85.7351L126.243 85.2045L122.683 75.1818H125.137L127.4 82.5966H127.502L129.771 75.1818H132.232L128.301 86.1889C128.118 86.7088 127.875 87.1541 127.572 87.5249C127.27 87.8999 126.899 88.1854 126.46 88.3814C126.026 88.5817 125.506 88.6818 124.901 88.6818ZM137.846 85.1918C136.862 85.1918 136.012 84.9872 135.296 84.5781C134.584 84.1648 134.036 83.581 133.653 82.8267C133.269 82.0682 133.078 81.1754 133.078 80.1484C133.078 79.1385 133.269 78.2521 133.653 77.4893C134.041 76.7223 134.582 76.1257 135.276 75.6996C135.971 75.2692 136.787 75.054 137.725 75.054C138.33 75.054 138.901 75.152 139.438 75.348C139.979 75.5398 140.456 75.8381 140.869 76.2429C141.287 76.6477 141.615 77.1634 141.854 77.7898C142.093 78.4119 142.212 79.1534 142.212 80.0142V80.7237H134.164V79.1641H139.994C139.99 78.7209 139.894 78.3267 139.706 77.9815C139.519 77.6321 139.257 77.3572 138.92 77.157C138.588 76.9567 138.2 76.8565 137.757 76.8565C137.284 76.8565 136.868 76.9716 136.51 77.2017C136.152 77.4276 135.873 77.7259 135.673 78.0966C135.477 78.4631 135.377 78.8658 135.372 79.3047V80.6662C135.372 81.2372 135.477 81.7273 135.686 82.1364C135.894 82.5412 136.186 82.8523 136.561 83.0696C136.936 83.2827 137.375 83.3892 137.878 83.3892C138.215 83.3892 138.519 83.3423 138.792 83.2486C139.065 83.1506 139.301 83.0078 139.502 82.8203C139.702 82.6328 139.853 82.4006 139.955 82.1236L142.116 82.3665C141.98 82.9375 141.72 83.4361 141.336 83.8622C140.957 84.2841 140.471 84.6122 139.879 84.8466C139.286 85.0767 138.609 85.1918 137.846 85.1918ZM147.813 85.1726C147.042 85.1726 146.351 84.9744 145.742 84.5781C145.132 84.1818 144.651 83.6065 144.297 82.8523C143.944 82.098 143.767 81.1818 143.767 80.1037C143.767 79.0128 143.946 78.0923 144.304 77.3423C144.666 76.5881 145.154 76.0192 145.767 75.6357C146.381 75.2479 147.065 75.054 147.819 75.054C148.395 75.054 148.868 75.152 149.238 75.348C149.609 75.5398 149.903 75.772 150.12 76.0447C150.338 76.3132 150.506 76.5668 150.625 76.8054H150.721V71.9091H153.042V85H150.766V83.4531H150.625C150.506 83.6918 150.333 83.9453 150.108 84.2138C149.882 84.478 149.583 84.7038 149.213 84.8913C148.842 85.0788 148.375 85.1726 147.813 85.1726ZM148.458 83.2741C148.949 83.2741 149.366 83.142 149.711 82.8778C150.056 82.6094 150.319 82.2365 150.498 81.7592C150.676 81.282 150.766 80.7259 150.766 80.0909C150.766 79.456 150.676 78.9041 150.498 78.4354C150.323 77.9666 150.063 77.6023 149.718 77.3423C149.377 77.0824 148.957 76.9524 148.458 76.9524C147.943 76.9524 147.512 77.0866 147.167 77.3551C146.822 77.6236 146.562 77.9943 146.387 78.4673C146.213 78.9403 146.125 79.4815 146.125 80.0909C146.125 80.7045 146.213 81.2521 146.387 81.7337C146.566 82.2109 146.828 82.5881 147.174 82.8651C147.523 83.1378 147.951 83.2741 148.458 83.2741ZM159.972 85V75.1818H162.286V85H159.972ZM161.135 73.7884C160.769 73.7884 160.454 73.6669 160.189 73.424C159.925 73.1768 159.793 72.8807 159.793 72.5355C159.793 72.1861 159.925 71.8899 160.189 71.647C160.454 71.3999 160.769 71.2763 161.135 71.2763C161.506 71.2763 161.822 71.3999 162.081 71.647C162.346 71.8899 162.478 72.1861 162.478 72.5355C162.478 72.8807 162.346 73.1768 162.081 73.424C161.822 73.6669 161.506 73.7884 161.135 73.7884ZM166.979 79.2472V85H164.665V75.1818H166.877V76.8501H166.992C167.218 76.3004 167.578 75.8636 168.072 75.5398C168.571 75.2159 169.187 75.054 169.92 75.054C170.597 75.054 171.188 75.1989 171.69 75.4886C172.197 75.7784 172.589 76.1982 172.866 76.7479C173.148 77.2976 173.286 77.9645 173.282 78.7486V85H170.968V79.1065C170.968 78.4503 170.798 77.9368 170.457 77.5661C170.12 77.1953 169.653 77.0099 169.057 77.0099C168.652 77.0099 168.292 77.0994 167.977 77.2784C167.665 77.4531 167.42 77.7067 167.241 78.0391C167.067 78.3714 166.979 78.7741 166.979 79.2472Z" fill="#787A88"/>
<path d="M73.4148 120V117.341L79.6278 111.588C80.1563 111.077 80.5994 110.616 80.9574 110.207C81.321 109.798 81.5966 109.398 81.7841 109.006C81.9716 108.608 82.0653 108.179 82.0653 107.719C82.0653 107.207 81.9489 106.767 81.7159 106.398C81.483 106.023 81.1648 105.736 80.7614 105.537C80.358 105.332 79.9006 105.23 79.3892 105.23C78.8551 105.23 78.3892 105.338 77.9915 105.554C77.5938 105.77 77.2869 106.08 77.071 106.483C76.8551 106.886 76.7472 107.366 76.7472 107.923H73.2443C73.2443 106.781 73.5028 105.79 74.0199 104.949C74.5369 104.108 75.2614 103.457 76.1932 102.997C77.125 102.537 78.1989 102.307 79.4148 102.307C80.6648 102.307 81.7528 102.528 82.679 102.972C83.6108 103.409 84.3352 104.017 84.8523 104.795C85.3693 105.574 85.6278 106.466 85.6278 107.472C85.6278 108.131 85.4972 108.781 85.2358 109.423C84.9801 110.065 84.5227 110.778 83.8636 111.562C83.2045 112.341 82.2756 113.276 81.0767 114.366L78.5284 116.864V116.983H85.858V120H73.4148ZM95.3757 120.384C93.9098 120.378 92.6484 120.017 91.5916 119.301C90.5405 118.585 89.7308 117.548 89.1626 116.19C88.6001 114.832 88.3217 113.199 88.3274 111.29C88.3274 109.386 88.6087 107.764 89.1712 106.423C89.7393 105.082 90.549 104.062 91.6001 103.364C92.657 102.659 93.9155 102.307 95.3757 102.307C96.8359 102.307 98.0916 102.659 99.1428 103.364C100.2 104.068 101.012 105.091 101.58 106.432C102.148 107.767 102.43 109.386 102.424 111.29C102.424 113.205 102.14 114.841 101.572 116.199C101.009 117.557 100.202 118.594 99.1513 119.31C98.1001 120.026 96.8416 120.384 95.3757 120.384ZM95.3757 117.324C96.3757 117.324 97.174 116.821 97.7706 115.815C98.3672 114.81 98.6626 113.301 98.657 111.29C98.657 109.966 98.5206 108.864 98.2479 107.983C97.9808 107.102 97.6001 106.44 97.1058 105.997C96.6172 105.554 96.0405 105.332 95.3757 105.332C94.3814 105.332 93.5859 105.83 92.9893 106.824C92.3928 107.818 92.0916 109.307 92.0859 111.29C92.0859 112.631 92.2195 113.75 92.4865 114.648C92.7592 115.54 93.1428 116.21 93.6371 116.659C94.1314 117.102 94.7109 117.324 95.3757 117.324ZM110.271 117.341V105.273H113.322V117.341H110.271ZM105.763 112.832V109.781H117.831V112.832H105.763ZM142.425 108.656H138.692C138.624 108.173 138.485 107.744 138.275 107.369C138.065 106.989 137.795 106.665 137.465 106.398C137.136 106.131 136.755 105.926 136.323 105.784C135.897 105.642 135.434 105.571 134.934 105.571C134.031 105.571 133.244 105.795 132.573 106.244C131.903 106.687 131.383 107.335 131.013 108.188C130.644 109.034 130.46 110.062 130.46 111.273C130.46 112.517 130.644 113.562 131.013 114.409C131.388 115.256 131.911 115.895 132.582 116.327C133.252 116.759 134.028 116.974 134.908 116.974C135.403 116.974 135.86 116.909 136.281 116.778C136.707 116.648 137.085 116.457 137.414 116.207C137.744 115.952 138.016 115.642 138.232 115.278C138.454 114.915 138.607 114.5 138.692 114.034L142.425 114.051C142.329 114.852 142.087 115.625 141.701 116.369C141.32 117.108 140.806 117.77 140.158 118.355C139.516 118.935 138.749 119.395 137.857 119.736C136.971 120.071 135.968 120.239 134.849 120.239C133.292 120.239 131.9 119.886 130.673 119.182C129.451 118.477 128.485 117.457 127.775 116.122C127.07 114.787 126.718 113.17 126.718 111.273C126.718 109.369 127.076 107.75 127.792 106.415C128.508 105.08 129.479 104.062 130.707 103.364C131.934 102.659 133.315 102.307 134.849 102.307C135.86 102.307 136.798 102.449 137.661 102.733C138.531 103.017 139.3 103.432 139.971 103.977C140.641 104.517 141.187 105.179 141.607 105.963C142.033 106.747 142.306 107.645 142.425 108.656ZM150.918 120.256C149.594 120.256 148.45 119.974 147.484 119.412C146.523 118.844 145.782 118.054 145.259 117.043C144.737 116.026 144.475 114.847 144.475 113.506C144.475 112.153 144.737 110.972 145.259 109.96C145.782 108.943 146.523 108.153 147.484 107.591C148.45 107.023 149.594 106.739 150.918 106.739C152.242 106.739 153.384 107.023 154.344 107.591C155.31 108.153 156.055 108.943 156.577 109.96C157.1 110.972 157.362 112.153 157.362 113.506C157.362 114.847 157.1 116.026 156.577 117.043C156.055 118.054 155.31 118.844 154.344 119.412C153.384 119.974 152.242 120.256 150.918 120.256ZM150.935 117.443C151.538 117.443 152.04 117.273 152.444 116.932C152.847 116.585 153.151 116.114 153.356 115.517C153.566 114.92 153.671 114.241 153.671 113.48C153.671 112.719 153.566 112.04 153.356 111.443C153.151 110.847 152.847 110.375 152.444 110.028C152.04 109.682 151.538 109.509 150.935 109.509C150.327 109.509 149.816 109.682 149.401 110.028C148.992 110.375 148.683 110.847 148.472 111.443C148.268 112.04 148.165 112.719 148.165 113.48C148.165 114.241 148.268 114.92 148.472 115.517C148.683 116.114 148.992 116.585 149.401 116.932C149.816 117.273 150.327 117.443 150.935 117.443ZM168.117 114.426V106.909H171.748V120H168.262V117.622H168.126C167.83 118.389 167.339 119.006 166.651 119.472C165.969 119.937 165.137 120.17 164.154 120.17C163.279 120.17 162.509 119.972 161.844 119.574C161.18 119.176 160.66 118.611 160.285 117.878C159.915 117.145 159.728 116.267 159.722 115.244V106.909H163.353V114.597C163.359 115.369 163.566 115.98 163.975 116.429C164.384 116.878 164.933 117.102 165.62 117.102C166.058 117.102 166.467 117.003 166.847 116.804C167.228 116.599 167.535 116.298 167.768 115.901C168.006 115.503 168.123 115.011 168.117 114.426ZM178.283 112.432V120H174.652V106.909H178.112V109.219H178.266C178.555 108.457 179.041 107.855 179.723 107.412C180.405 106.963 181.232 106.739 182.203 106.739C183.112 106.739 183.905 106.938 184.581 107.335C185.257 107.733 185.783 108.301 186.158 109.04C186.533 109.773 186.72 110.648 186.72 111.665V120H183.089V112.312C183.095 111.511 182.891 110.886 182.476 110.438C182.061 109.983 181.49 109.756 180.763 109.756C180.274 109.756 179.842 109.861 179.467 110.071C179.098 110.281 178.808 110.588 178.598 110.991C178.393 111.389 178.288 111.869 178.283 112.432ZM196.545 106.909V109.636H188.661V106.909H196.545ZM190.451 103.773H194.082V115.977C194.082 116.312 194.133 116.574 194.235 116.761C194.337 116.943 194.479 117.071 194.661 117.145C194.849 117.219 195.065 117.256 195.309 117.256C195.479 117.256 195.65 117.241 195.82 117.213C195.991 117.179 196.121 117.153 196.212 117.136L196.783 119.838C196.602 119.895 196.346 119.96 196.016 120.034C195.687 120.114 195.286 120.162 194.815 120.179C193.94 120.213 193.173 120.097 192.513 119.83C191.86 119.562 191.352 119.148 190.988 118.585C190.624 118.023 190.445 117.312 190.451 116.455V103.773ZM198.91 120V106.909H202.43V109.193H202.566C202.805 108.381 203.205 107.767 203.768 107.352C204.33 106.932 204.978 106.722 205.711 106.722C205.893 106.722 206.089 106.733 206.299 106.756C206.509 106.778 206.694 106.81 206.853 106.849V110.071C206.683 110.02 206.447 109.974 206.146 109.935C205.844 109.895 205.569 109.875 205.319 109.875C204.785 109.875 204.308 109.991 203.887 110.224C203.472 110.452 203.143 110.77 202.898 111.179C202.66 111.588 202.54 112.06 202.54 112.594V120H198.91ZM208.73 120V106.909H212.361V120H208.73ZM210.554 105.222C210.014 105.222 209.551 105.043 209.165 104.685C208.784 104.321 208.594 103.886 208.594 103.381C208.594 102.881 208.784 102.452 209.165 102.094C209.551 101.73 210.014 101.548 210.554 101.548C211.094 101.548 211.554 101.73 211.935 102.094C212.321 102.452 212.514 102.881 212.514 103.381C212.514 103.886 212.321 104.321 211.935 104.685C211.554 105.043 211.094 105.222 210.554 105.222ZM221.235 120.256C219.888 120.256 218.729 119.983 217.758 119.438C216.792 118.886 216.048 118.108 215.525 117.102C215.002 116.091 214.741 114.895 214.741 113.514C214.741 112.168 215.002 110.986 215.525 109.969C216.048 108.952 216.783 108.159 217.732 107.591C218.687 107.023 219.806 106.739 221.09 106.739C221.954 106.739 222.758 106.878 223.502 107.156C224.252 107.429 224.906 107.841 225.462 108.392C226.025 108.943 226.462 109.636 226.775 110.472C227.087 111.301 227.244 112.273 227.244 113.386V114.384H216.19V112.134H223.826C223.826 111.611 223.712 111.148 223.485 110.744C223.258 110.341 222.942 110.026 222.539 109.798C222.141 109.565 221.678 109.449 221.15 109.449C220.599 109.449 220.11 109.577 219.684 109.832C219.263 110.082 218.934 110.42 218.695 110.847C218.457 111.267 218.335 111.736 218.329 112.253V114.392C218.329 115.04 218.448 115.599 218.687 116.071C218.931 116.543 219.275 116.906 219.718 117.162C220.161 117.418 220.687 117.545 221.295 117.545C221.698 117.545 222.067 117.489 222.403 117.375C222.738 117.261 223.025 117.091 223.263 116.864C223.502 116.636 223.684 116.358 223.809 116.028L227.167 116.25C226.996 117.057 226.647 117.761 226.119 118.364C225.596 118.96 224.92 119.426 224.09 119.761C223.266 120.091 222.315 120.256 221.235 120.256ZM240.505 110.642L237.181 110.847C237.124 110.562 237.002 110.307 236.815 110.08C236.627 109.847 236.38 109.662 236.073 109.526C235.772 109.384 235.411 109.312 234.991 109.312C234.428 109.312 233.954 109.432 233.567 109.67C233.181 109.903 232.988 110.216 232.988 110.608C232.988 110.92 233.113 111.185 233.363 111.401C233.613 111.616 234.042 111.79 234.65 111.92L237.019 112.398C238.292 112.659 239.241 113.08 239.866 113.659C240.491 114.239 240.803 115 240.803 115.943C240.803 116.801 240.55 117.554 240.045 118.202C239.545 118.849 238.857 119.355 237.982 119.719C237.113 120.077 236.11 120.256 234.974 120.256C233.241 120.256 231.86 119.895 230.832 119.173C229.809 118.446 229.21 117.457 229.033 116.207L232.604 116.02C232.712 116.548 232.974 116.952 233.388 117.23C233.803 117.503 234.335 117.639 234.982 117.639C235.619 117.639 236.13 117.517 236.516 117.273C236.908 117.023 237.107 116.702 237.113 116.31C237.107 115.98 236.968 115.71 236.695 115.5C236.423 115.284 236.002 115.119 235.434 115.006L233.167 114.554C231.888 114.298 230.937 113.855 230.312 113.224C229.692 112.594 229.383 111.79 229.383 110.812C229.383 109.972 229.61 109.247 230.065 108.639C230.525 108.031 231.17 107.562 231.999 107.233C232.835 106.903 233.812 106.739 234.931 106.739C236.585 106.739 237.886 107.088 238.835 107.787C239.789 108.486 240.346 109.437 240.505 110.642Z" fill="#1F1F28"/>
<rect x="274" y="79" width="88" height="35" rx="8" fill="#0FD38D"/>
<path d="M287.148 102V90.3636H291.511C292.405 90.3636 293.155 90.5189 293.761 90.8295C294.371 91.1402 294.831 91.5758 295.142 92.1364C295.456 92.6932 295.614 93.3428 295.614 94.0852C295.614 94.8314 295.455 95.4792 295.136 96.0284C294.822 96.5739 294.358 96.9962 293.744 97.2955C293.131 97.5909 292.377 97.7386 291.483 97.7386H288.375V95.9886H291.199C291.722 95.9886 292.15 95.9167 292.483 95.7727C292.816 95.625 293.063 95.411 293.222 95.1307C293.384 94.8466 293.466 94.4981 293.466 94.0852C293.466 93.6723 293.384 93.3201 293.222 93.0284C293.059 92.733 292.811 92.5095 292.477 92.358C292.144 92.2027 291.714 92.125 291.188 92.125H289.256V102H287.148ZM293.159 96.7273L296.04 102H293.688L290.858 96.7273H293.159ZM303.026 98.3295V93.2727H305.082V102H303.088V100.449H302.997C302.8 100.937 302.476 101.337 302.026 101.648C301.579 101.958 301.027 102.114 300.372 102.114C299.8 102.114 299.295 101.987 298.855 101.733C298.42 101.475 298.079 101.102 297.832 100.614C297.586 100.121 297.463 99.5265 297.463 98.8295V93.2727H299.52V98.5114C299.52 99.0644 299.671 99.5038 299.974 99.8295C300.277 100.155 300.675 100.318 301.168 100.318C301.471 100.318 301.764 100.244 302.048 100.097C302.332 99.9489 302.565 99.7292 302.747 99.4375C302.933 99.142 303.026 98.7727 303.026 98.3295ZM309.254 96.8864V102H307.197V93.2727H309.163V94.7557H309.266C309.466 94.267 309.786 93.8788 310.226 93.5909C310.669 93.303 311.216 93.1591 311.868 93.1591C312.47 93.1591 312.995 93.2879 313.442 93.5455C313.893 93.803 314.241 94.1761 314.487 94.6648C314.737 95.1534 314.86 95.7462 314.857 96.4432V102H312.8V96.7614C312.8 96.178 312.648 95.7216 312.345 95.392C312.046 95.0625 311.631 94.8977 311.101 94.8977C310.741 94.8977 310.421 94.9773 310.141 95.1364C309.864 95.2917 309.646 95.517 309.487 95.8125C309.332 96.108 309.254 96.4659 309.254 96.8864ZM319.004 96.8864V102H316.947V93.2727H318.913V94.7557H319.016C319.216 94.267 319.536 93.8788 319.976 93.5909C320.419 93.303 320.966 93.1591 321.618 93.1591C322.22 93.1591 322.745 93.2879 323.192 93.5455C323.643 93.803 323.991 94.1761 324.237 94.6648C324.487 95.1534 324.61 95.7462 324.607 96.4432V102H322.55V96.7614C322.55 96.178 322.398 95.7216 322.095 95.392C321.796 95.0625 321.381 94.8977 320.851 94.8977C320.491 94.8977 320.171 94.9773 319.891 95.1364C319.614 95.2917 319.396 95.517 319.237 95.8125C319.082 96.108 319.004 96.4659 319.004 96.8864ZM326.697 102V93.2727H328.754V102H326.697ZM327.732 92.0341C327.406 92.0341 327.125 91.9261 326.891 91.7102C326.656 91.4905 326.538 91.2273 326.538 90.9205C326.538 90.6098 326.656 90.3466 326.891 90.1307C327.125 89.911 327.406 89.8011 327.732 89.8011C328.061 89.8011 328.341 89.911 328.572 90.1307C328.807 90.3466 328.925 90.6098 328.925 90.9205C328.925 91.2273 328.807 91.4905 328.572 91.7102C328.341 91.9261 328.061 92.0341 327.732 92.0341ZM332.926 96.8864V102H330.869V93.2727H332.835V94.7557H332.938C333.138 94.267 333.458 93.8788 333.898 93.5909C334.341 93.303 334.888 93.1591 335.54 93.1591C336.142 93.1591 336.667 93.2879 337.114 93.5455C337.564 93.803 337.913 94.1761 338.159 94.6648C338.409 95.1534 338.532 95.7462 338.528 96.4432V102H336.472V96.7614C336.472 96.178 336.32 95.7216 336.017 95.392C335.718 95.0625 335.303 94.8977 334.773 94.8977C334.413 94.8977 334.093 94.9773 333.812 95.1364C333.536 95.2917 333.318 95.517 333.159 95.8125C333.004 96.108 332.926 96.4659 332.926 96.8864ZM344.415 105.455C343.676 105.455 343.042 105.354 342.511 105.153C341.981 104.956 341.555 104.691 341.233 104.358C340.911 104.025 340.688 103.655 340.562 103.25L342.415 102.801C342.498 102.972 342.619 103.14 342.778 103.307C342.938 103.477 343.152 103.617 343.42 103.727C343.693 103.841 344.036 103.898 344.449 103.898C345.032 103.898 345.515 103.756 345.898 103.472C346.28 103.191 346.472 102.729 346.472 102.085V100.432H346.369C346.263 100.644 346.108 100.862 345.903 101.085C345.703 101.309 345.436 101.496 345.102 101.648C344.773 101.799 344.358 101.875 343.858 101.875C343.188 101.875 342.58 101.718 342.034 101.403C341.492 101.085 341.061 100.612 340.739 99.983C340.42 99.3504 340.261 98.5587 340.261 97.608C340.261 96.6496 340.42 95.8409 340.739 95.1818C341.061 94.5189 341.494 94.017 342.04 93.6761C342.585 93.3314 343.193 93.1591 343.864 93.1591C344.375 93.1591 344.795 93.2462 345.125 93.4205C345.458 93.5909 345.723 93.7973 345.92 94.0398C346.117 94.2784 346.267 94.5038 346.369 94.7159H346.483V93.2727H348.511V102.142C348.511 102.888 348.333 103.506 347.977 103.994C347.621 104.483 347.134 104.848 346.517 105.091C345.9 105.333 345.199 105.455 344.415 105.455ZM344.432 100.261C344.867 100.261 345.239 100.155 345.545 99.9432C345.852 99.7311 346.085 99.4261 346.244 99.0284C346.403 98.6307 346.483 98.1534 346.483 97.5966C346.483 97.0473 346.403 96.5663 346.244 96.1534C346.089 95.7405 345.858 95.4205 345.551 95.1932C345.248 94.9621 344.875 94.8466 344.432 94.8466C343.973 94.8466 343.591 94.9659 343.284 95.2045C342.977 95.4432 342.746 95.7708 342.591 96.1875C342.436 96.6004 342.358 97.0701 342.358 97.5966C342.358 98.1307 342.436 98.5985 342.591 99C342.75 99.3977 342.983 99.7083 343.29 99.9318C343.6 100.152 343.981 100.261 344.432 100.261Z" fill="white"/>
</g>
<g filter="url(#filter1_d_385_3364)">
<rect x="183.5" y="134.5" width="349" height="118" rx="20.1946" fill="white"/>
<rect x="183.5" y="134.5" width="349" height="118" rx="20.1946" stroke="#E0E2E7"/>
<path d="M222.543 168.909H224.915V177.462C224.915 178.399 224.693 179.224 224.25 179.935C223.811 180.647 223.193 181.203 222.396 181.604C221.599 182 220.668 182.198 219.603 182.198C218.533 182.198 217.6 182 216.803 181.604C216.006 181.203 215.388 180.647 214.95 179.935C214.511 179.224 214.291 178.399 214.291 177.462V168.909H216.663V177.263C216.663 177.809 216.782 178.295 217.021 178.721C217.263 179.147 217.604 179.482 218.043 179.724C218.482 179.963 219.002 180.082 219.603 180.082C220.204 180.082 220.724 179.963 221.163 179.724C221.606 179.482 221.947 179.147 222.185 178.721C222.424 178.295 222.543 177.809 222.543 177.263V168.909ZM235.15 174.777L233.041 175.007C232.981 174.794 232.877 174.594 232.727 174.406C232.583 174.219 232.387 174.067 232.139 173.952C231.892 173.837 231.59 173.78 231.232 173.78C230.75 173.78 230.345 173.884 230.017 174.093C229.693 174.302 229.534 174.572 229.538 174.905C229.534 175.19 229.638 175.423 229.851 175.602C230.068 175.781 230.426 175.928 230.925 176.043L232.6 176.401C233.529 176.601 234.219 176.918 234.671 177.353C235.127 177.788 235.357 178.357 235.361 179.06C235.357 179.678 235.176 180.223 234.818 180.696C234.464 181.165 233.972 181.531 233.341 181.795C232.71 182.06 231.986 182.192 231.168 182.192C229.966 182.192 228.999 181.94 228.266 181.438C227.533 180.93 227.096 180.225 226.955 179.322L229.212 179.104C229.314 179.548 229.531 179.882 229.864 180.108C230.196 180.334 230.629 180.447 231.161 180.447C231.711 180.447 232.152 180.334 232.485 180.108C232.821 179.882 232.99 179.603 232.99 179.271C232.99 178.989 232.881 178.757 232.664 178.574C232.45 178.391 232.118 178.25 231.666 178.152L229.992 177.8C229.05 177.604 228.353 177.274 227.901 176.81C227.45 176.341 227.226 175.749 227.23 175.033C227.226 174.428 227.39 173.903 227.722 173.46C228.059 173.013 228.526 172.668 229.122 172.425C229.723 172.178 230.416 172.054 231.2 172.054C232.35 172.054 233.256 172.299 233.916 172.789C234.581 173.279 234.992 173.942 235.15 174.777ZM241.616 182.192C240.631 182.192 239.781 181.987 239.065 181.578C238.354 181.165 237.806 180.581 237.422 179.827C237.039 179.068 236.847 178.175 236.847 177.148C236.847 176.138 237.039 175.252 237.422 174.489C237.81 173.722 238.351 173.126 239.046 172.7C239.741 172.269 240.557 172.054 241.494 172.054C242.099 172.054 242.67 172.152 243.207 172.348C243.748 172.54 244.226 172.838 244.639 173.243C245.057 173.648 245.385 174.163 245.623 174.79C245.862 175.412 245.981 176.153 245.981 177.014V177.724H237.934V176.164H243.763C243.759 175.721 243.663 175.327 243.476 174.982C243.288 174.632 243.026 174.357 242.689 174.157C242.357 173.957 241.969 173.857 241.526 173.857C241.053 173.857 240.638 173.972 240.28 174.202C239.922 174.428 239.643 174.726 239.442 175.097C239.246 175.463 239.146 175.866 239.142 176.305V177.666C239.142 178.237 239.246 178.727 239.455 179.136C239.664 179.541 239.956 179.852 240.331 180.07C240.706 180.283 241.145 180.389 241.648 180.389C241.984 180.389 242.289 180.342 242.562 180.249C242.834 180.151 243.071 180.008 243.271 179.82C243.471 179.633 243.623 179.401 243.725 179.124L245.885 179.366C245.749 179.937 245.489 180.436 245.106 180.862C244.726 181.284 244.241 181.612 243.648 181.847C243.056 182.077 242.378 182.192 241.616 182.192ZM247.939 182V172.182H250.183V173.818H250.285C250.464 173.251 250.771 172.815 251.205 172.508C251.644 172.197 252.145 172.041 252.707 172.041C252.835 172.041 252.978 172.048 253.136 172.06C253.298 172.069 253.432 172.084 253.538 172.105V174.234C253.44 174.2 253.285 174.17 253.072 174.144C252.863 174.114 252.661 174.099 252.464 174.099C252.043 174.099 251.663 174.191 251.327 174.374C250.994 174.553 250.732 174.803 250.54 175.122C250.349 175.442 250.253 175.81 250.253 176.228V182H247.939ZM262.836 174.777L260.726 175.007C260.667 174.794 260.562 174.594 260.413 174.406C260.268 174.219 260.072 174.067 259.825 173.952C259.578 173.837 259.275 173.78 258.917 173.78C258.436 173.78 258.031 173.884 257.703 174.093C257.379 174.302 257.219 174.572 257.223 174.905C257.219 175.19 257.324 175.423 257.537 175.602C257.754 175.781 258.112 175.928 258.61 176.043L260.285 176.401C261.214 176.601 261.904 176.918 262.356 177.353C262.812 177.788 263.042 178.357 263.047 179.06C263.042 179.678 262.861 180.223 262.503 180.696C262.15 181.165 261.657 181.531 261.027 181.795C260.396 182.06 259.672 182.192 258.853 182.192C257.652 182.192 256.684 181.94 255.951 181.438C255.218 180.93 254.782 180.225 254.641 179.322L256.897 179.104C257 179.548 257.217 179.882 257.549 180.108C257.882 180.334 258.314 180.447 258.847 180.447C259.397 180.447 259.838 180.334 260.17 180.108C260.507 179.882 260.675 179.603 260.675 179.271C260.675 178.989 260.566 178.757 260.349 178.574C260.136 178.391 259.804 178.25 259.352 178.152L257.677 177.8C256.735 177.604 256.039 177.274 255.587 176.81C255.135 176.341 254.912 175.749 254.916 175.033C254.912 174.428 255.076 173.903 255.408 173.46C255.745 173.013 256.211 172.668 256.808 172.425C257.409 172.178 258.101 172.054 258.885 172.054C260.036 172.054 260.941 172.299 261.602 172.789C262.267 173.279 262.678 173.942 262.836 174.777Z" fill="#787A88"/>
<path d="M220.79 217.239C219.585 217.239 218.511 217.017 217.568 216.574C216.631 216.131 215.886 215.52 215.335 214.741C214.784 213.963 214.497 213.071 214.474 212.065H218.054C218.094 212.741 218.378 213.29 218.906 213.71C219.435 214.131 220.062 214.341 220.79 214.341C221.369 214.341 221.881 214.213 222.324 213.957C222.773 213.696 223.122 213.335 223.372 212.875C223.628 212.409 223.756 211.875 223.756 211.273C223.756 210.659 223.625 210.119 223.364 209.653C223.108 209.187 222.753 208.824 222.298 208.562C221.844 208.301 221.324 208.168 220.739 208.162C220.227 208.162 219.73 208.267 219.247 208.477C218.77 208.687 218.398 208.974 218.131 209.338L214.849 208.75L215.676 199.545H226.347V202.562H218.719L218.267 206.935H218.369C218.676 206.503 219.139 206.145 219.759 205.861C220.378 205.577 221.071 205.435 221.838 205.435C222.889 205.435 223.827 205.682 224.651 206.176C225.474 206.67 226.125 207.349 226.602 208.213C227.08 209.071 227.315 210.06 227.31 211.179C227.315 212.355 227.043 213.401 226.491 214.315C225.946 215.224 225.182 215.94 224.199 216.463C223.222 216.98 222.085 217.239 220.79 217.239ZM236.727 217.384C235.261 217.378 234 217.017 232.943 216.301C231.892 215.585 231.082 214.548 230.514 213.19C229.952 211.832 229.673 210.199 229.679 208.29C229.679 206.386 229.96 204.764 230.523 203.423C231.091 202.082 231.901 201.062 232.952 200.364C234.009 199.659 235.267 199.307 236.727 199.307C238.188 199.307 239.443 199.659 240.494 200.364C241.551 201.068 242.364 202.091 242.932 203.432C243.5 204.767 243.781 206.386 243.776 208.29C243.776 210.205 243.491 211.841 242.923 213.199C242.361 214.557 241.554 215.594 240.503 216.31C239.452 217.026 238.193 217.384 236.727 217.384ZM236.727 214.324C237.727 214.324 238.526 213.821 239.122 212.815C239.719 211.81 240.014 210.301 240.009 208.29C240.009 206.966 239.872 205.864 239.599 204.983C239.332 204.102 238.952 203.44 238.457 202.997C237.969 202.554 237.392 202.332 236.727 202.332C235.733 202.332 234.938 202.83 234.341 203.824C233.744 204.818 233.443 206.307 233.438 208.29C233.438 209.631 233.571 210.75 233.838 211.648C234.111 212.54 234.494 213.21 234.989 213.659C235.483 214.102 236.062 214.324 236.727 214.324ZM249.684 214.614L249.59 215.551C249.516 216.301 249.374 217.048 249.164 217.793C248.96 218.543 248.744 219.222 248.516 219.83C248.295 220.438 248.116 220.915 247.979 221.261H245.627C245.712 220.926 245.829 220.457 245.977 219.855C246.124 219.259 246.263 218.588 246.394 217.844C246.525 217.099 246.607 216.341 246.641 215.568L246.684 214.614H249.684ZM259.11 217.384C257.644 217.378 256.383 217.017 255.326 216.301C254.275 215.585 253.465 214.548 252.897 213.19C252.335 211.832 252.056 210.199 252.062 208.29C252.062 206.386 252.343 204.764 252.906 203.423C253.474 202.082 254.283 201.062 255.335 200.364C256.391 199.659 257.65 199.307 259.11 199.307C260.57 199.307 261.826 199.659 262.877 200.364C263.934 201.068 264.746 202.091 265.315 203.432C265.883 204.767 266.164 206.386 266.158 208.29C266.158 210.205 265.874 211.841 265.306 213.199C264.744 214.557 263.937 215.594 262.886 216.31C261.835 217.026 260.576 217.384 259.11 217.384ZM259.11 214.324C260.11 214.324 260.908 213.821 261.505 212.815C262.102 211.81 262.397 210.301 262.391 208.29C262.391 206.966 262.255 205.864 261.982 204.983C261.715 204.102 261.335 203.44 260.84 202.997C260.352 202.554 259.775 202.332 259.11 202.332C258.116 202.332 257.32 202.83 256.724 203.824C256.127 204.818 255.826 206.307 255.82 208.29C255.82 209.631 255.954 210.75 256.221 211.648C256.494 212.54 256.877 213.21 257.371 213.659C257.866 214.102 258.445 214.324 259.11 214.324ZM275.634 217.384C274.168 217.378 272.906 217.017 271.849 216.301C270.798 215.585 269.989 214.548 269.42 213.19C268.858 211.832 268.58 210.199 268.585 208.29C268.585 206.386 268.866 204.764 269.429 203.423C269.997 202.082 270.807 201.062 271.858 200.364C272.915 199.659 274.173 199.307 275.634 199.307C277.094 199.307 278.349 199.659 279.401 200.364C280.457 201.068 281.27 202.091 281.838 203.432C282.406 204.767 282.688 206.386 282.682 208.29C282.682 210.205 282.398 211.841 281.83 213.199C281.267 214.557 280.46 215.594 279.409 216.31C278.358 217.026 277.099 217.384 275.634 217.384ZM275.634 214.324C276.634 214.324 277.432 213.821 278.028 212.815C278.625 211.81 278.92 210.301 278.915 208.29C278.915 206.966 278.778 205.864 278.506 204.983C278.239 204.102 277.858 203.44 277.364 202.997C276.875 202.554 276.298 202.332 275.634 202.332C274.639 202.332 273.844 202.83 273.247 203.824C272.651 204.818 272.349 206.307 272.344 208.29C272.344 209.631 272.477 210.75 272.744 211.648C273.017 212.54 273.401 213.21 273.895 213.659C274.389 214.102 274.969 214.324 275.634 214.324ZM292.157 217.384C290.691 217.378 289.43 217.017 288.373 216.301C287.322 215.585 286.512 214.548 285.944 213.19C285.381 211.832 285.103 210.199 285.109 208.29C285.109 206.386 285.39 204.764 285.952 203.423C286.521 202.082 287.33 201.062 288.381 200.364C289.438 199.659 290.697 199.307 292.157 199.307C293.617 199.307 294.873 199.659 295.924 200.364C296.981 201.068 297.793 202.091 298.362 203.432C298.93 204.767 299.211 206.386 299.205 208.29C299.205 210.205 298.921 211.841 298.353 213.199C297.79 214.557 296.984 215.594 295.933 216.31C294.881 217.026 293.623 217.384 292.157 217.384ZM292.157 214.324C293.157 214.324 293.955 213.821 294.552 212.815C295.148 211.81 295.444 210.301 295.438 208.29C295.438 206.966 295.302 205.864 295.029 204.983C294.762 204.102 294.381 203.44 293.887 202.997C293.398 202.554 292.822 202.332 292.157 202.332C291.163 202.332 290.367 202.83 289.771 203.824C289.174 204.818 288.873 206.307 288.867 208.29C288.867 209.631 289.001 210.75 289.268 211.648C289.54 212.54 289.924 213.21 290.418 213.659C290.913 214.102 291.492 214.324 292.157 214.324ZM307.053 214.341V202.273H310.104V214.341H307.053ZM302.544 209.832V206.781H314.612V209.832H302.544Z" fill="#1F1F28"/>
<rect x="429" y="176" width="74" height="35" rx="7.76048" fill="#178EE8"/>
<path d="M443.642 199H441.392L445.489 187.364H448.091L452.193 199H449.943L446.835 189.75H446.744L443.642 199ZM443.716 194.438H449.852V196.131H443.716V194.438ZM457.176 199.17C456.305 199.17 455.557 198.979 454.932 198.597C454.311 198.214 453.831 197.686 453.494 197.011C453.161 196.333 452.994 195.553 452.994 194.67C452.994 193.784 453.165 193.002 453.506 192.324C453.847 191.642 454.328 191.112 454.949 190.733C455.574 190.35 456.313 190.159 457.165 190.159C457.873 190.159 458.5 190.29 459.045 190.551C459.595 190.809 460.032 191.174 460.358 191.648C460.684 192.117 460.869 192.667 460.915 193.295H458.949C458.869 192.875 458.68 192.525 458.381 192.244C458.085 191.96 457.689 191.818 457.193 191.818C456.773 191.818 456.403 191.932 456.085 192.159C455.767 192.383 455.519 192.705 455.341 193.125C455.167 193.545 455.08 194.049 455.08 194.636C455.08 195.231 455.167 195.742 455.341 196.17C455.515 196.595 455.759 196.922 456.074 197.153C456.392 197.381 456.765 197.494 457.193 197.494C457.496 197.494 457.767 197.437 458.006 197.324C458.248 197.206 458.451 197.038 458.614 196.818C458.777 196.598 458.888 196.331 458.949 196.017H460.915C460.866 196.634 460.684 197.182 460.369 197.659C460.055 198.133 459.627 198.504 459.085 198.773C458.544 199.038 457.907 199.17 457.176 199.17ZM466.962 190.273V191.864H461.945V190.273H466.962ZM463.183 188.182H465.24V196.375C465.24 196.652 465.282 196.864 465.365 197.011C465.452 197.155 465.566 197.254 465.706 197.307C465.846 197.36 466.001 197.386 466.172 197.386C466.301 197.386 466.418 197.377 466.524 197.358C466.634 197.339 466.717 197.322 466.774 197.307L467.121 198.915C467.011 198.953 466.854 198.994 466.649 199.04C466.448 199.085 466.202 199.112 465.911 199.119C465.395 199.134 464.931 199.057 464.518 198.886C464.106 198.712 463.778 198.443 463.536 198.08C463.297 197.716 463.179 197.261 463.183 196.716V188.182ZM468.682 199V190.273H470.739V199H468.682ZM469.716 189.034C469.39 189.034 469.11 188.926 468.875 188.71C468.64 188.491 468.523 188.227 468.523 187.92C468.523 187.61 468.64 187.347 468.875 187.131C469.11 186.911 469.39 186.801 469.716 186.801C470.045 186.801 470.326 186.911 470.557 187.131C470.792 187.347 470.909 187.61 470.909 187.92C470.909 188.227 470.792 188.491 470.557 188.71C470.326 188.926 470.045 189.034 469.716 189.034ZM480.649 190.273L477.541 199H475.268L472.161 190.273H474.354L476.359 196.756H476.45L478.462 190.273H480.649ZM485.639 199.17C484.764 199.17 484.009 198.989 483.372 198.625C482.74 198.258 482.253 197.739 481.912 197.068C481.571 196.394 481.401 195.6 481.401 194.688C481.401 193.79 481.571 193.002 481.912 192.324C482.257 191.642 482.738 191.112 483.355 190.733C483.973 190.35 484.698 190.159 485.531 190.159C486.069 190.159 486.577 190.246 487.054 190.42C487.535 190.591 487.959 190.856 488.327 191.216C488.698 191.576 488.99 192.034 489.202 192.591C489.414 193.144 489.52 193.803 489.52 194.568V195.199H482.366V193.812H487.548C487.545 193.419 487.459 193.068 487.293 192.761C487.126 192.451 486.893 192.206 486.594 192.028C486.298 191.85 485.954 191.761 485.56 191.761C485.139 191.761 484.77 191.864 484.452 192.068C484.134 192.269 483.885 192.534 483.707 192.864C483.533 193.189 483.444 193.547 483.44 193.938V195.148C483.44 195.655 483.533 196.091 483.719 196.455C483.904 196.814 484.164 197.091 484.497 197.284C484.83 197.473 485.221 197.568 485.668 197.568C485.967 197.568 486.238 197.527 486.48 197.443C486.723 197.356 486.933 197.229 487.111 197.062C487.289 196.896 487.423 196.689 487.514 196.443L489.435 196.659C489.313 197.167 489.082 197.61 488.741 197.989C488.404 198.364 487.973 198.655 487.446 198.864C486.92 199.068 486.317 199.17 485.639 199.17Z" fill="white"/>
</g>
<defs>
<filter id="filter0_d_385_3364" x="0.610779" y="0.784431" width="432.778" height="201.778" filterUnits="userSpaceOnUse" color-interpolation-filters="sRGB">
<feFlood flood-opacity="0" result="BackgroundImageFix"/>
<feColorMatrix in="SourceAlpha" type="matrix" values="0 0 0 0 0 0 0 0 0 0 0 0 0 0 0 0 0 0 127 0" result="hardAlpha"/>
<feOffset dy="5.17365"/>
<feGaussianBlur stdDeviation="20.6946"/>
<feComposite in2="hardAlpha" operator="out"/>
<feColorMatrix type="matrix" values="0 0 0 0 0.121569 0 0 0 0 0.121569 0 0 0 0 0.156863 0 0 0 0.07 0"/>
<feBlend mode="normal" in2="BackgroundImageFix" result="effect1_dropShadow_385_3364"/>
<feBlend mode="normal" in="SourceGraphic" in2="effect1_dropShadow_385_3364" result="shape"/>
</filter>
<filter id="filter1_d_385_3364" x="141.611" y="97.7844" width="432.778" height="201.778" filterUnits="userSpaceOnUse" color-interpolation-filters="sRGB">
<feFlood flood-opacity="0" result="BackgroundImageFix"/>
<feColorMatrix in="SourceAlpha" type="matrix" values="0 0 0 0 0 0 0 0 0 0 0 0 0 0 0 0 0 0 127 0" result="hardAlpha"/>
<feOffset dy="5.17365"/>
<feGaussianBlur stdDeviation="20.6946"/>
<feComposite in2="hardAlpha" operator="out"/>
<feColorMatrix type="matrix" values="0 0 0 0 0.121569 0 0 0 0 0.121569 0 0 0 0 0.156863 0 0 0 0.07 0"/>
<feBlend mode="normal" in2="BackgroundImageFix" result="effect1_dropShadow_385_3364"/>
<feBlend mode="normal" in="SourceGraphic" in2="effect1_dropShadow_385_3364" result="shape"/>
</filter>
</defs>
</svg>
