<svg width="56" height="56" viewBox="0 0 56 56" fill="none" xmlns="http://www.w3.org/2000/svg">
<rect width="56" height="56" rx="12" fill="url(#paint0_linear_241_1664)" fill-opacity="0.9"/>
<path d="M36.97 22.1997L28.72 17.6857C28.4996 17.5639 28.2518 17.5 28 17.5C27.7482 17.5 27.5004 17.5639 27.28 17.6857L19.03 22.2016C18.7944 22.3305 18.5977 22.5203 18.4605 22.7512C18.3233 22.9821 18.2506 23.2456 18.25 23.5141V32.4804C18.2506 32.7489 18.3233 33.0124 18.4605 33.2433C18.5977 33.4742 18.7944 33.664 19.03 33.7929L27.28 38.3088C27.5004 38.4306 27.7482 38.4945 28 38.4945C28.2518 38.4945 28.4996 38.4306 28.72 38.3088L36.97 33.7929C37.2056 33.664 37.4023 33.4742 37.5395 33.2433C37.6767 33.0124 37.7494 32.7489 37.75 32.4804V23.5151C37.7499 23.246 37.6774 22.982 37.5402 22.7505C37.403 22.5191 37.206 22.3289 36.97 22.1997ZM28 31.7482C27.2583 31.7482 26.5333 31.5283 25.9166 31.1162C25.2999 30.7041 24.8193 30.1185 24.5355 29.4332C24.2516 28.748 24.1774 27.994 24.3221 27.2666C24.4667 26.5392 24.8239 25.871 25.3483 25.3465C25.8728 24.8221 26.541 24.4649 27.2684 24.3202C27.9958 24.1755 28.7498 24.2498 29.4351 24.5336C30.1203 24.8175 30.706 25.2981 31.118 25.9148C31.5301 26.5315 31.75 27.2565 31.75 27.9982C31.75 28.9927 31.3549 29.9466 30.6517 30.6498C29.9484 31.3531 28.9946 31.7482 28 31.7482Z" fill="white"/>
<defs>
<linearGradient id="paint0_linear_241_1664" x1="3.12425" y1="3.13739" x2="54.3643" y2="37.6734" gradientUnits="userSpaceOnUse">
<stop offset="0.168198" stop-color="#5FBAFD"/>
<stop offset="0.984375" stop-color="#2B6CEB"/>
</linearGradient>
</defs>
</svg>
