<svg width="82" height="82" viewBox="0 0 82 82" fill="none" xmlns="http://www.w3.org/2000/svg">
<path d="M15.5801 31.8101L15.5965 36.1889L20.7625 39.2065L20.7461 34.8605C20.7461 33.4501 21.1889 31.9249 21.8941 30.5145L16.7281 27.4805C16.0229 28.9073 15.5801 30.4161 15.5801 31.8101Z" fill="#178EE8"/>
<path d="M59.7457 2.15612C58.7945 1.61492 57.5153 1.69692 56.0885 2.51692L20.6973 22.9677C19.0737 23.8861 17.6633 25.5917 16.7285 27.4777L21.8945 30.5117C22.8293 28.6257 24.2397 26.9365 25.8469 26.0017L61.2545 5.55092C62.6649 4.73092 63.9605 4.64892 64.8953 5.19012L59.7457 2.15612Z" fill="#6461EE"/>
<path d="M20.7623 39.7136C20.4835 39.7136 20.2539 39.484 20.2539 39.2216V34.8592C20.2539 34.5804 20.4671 34.3672 20.7459 34.3672C21.0083 34.3672 21.2379 34.5804 21.2379 34.8592L21.2543 39.2052C21.2543 39.3364 21.2051 39.4676 21.1231 39.566C21.0247 39.6644 20.8935 39.7136 20.7623 39.7136Z" fill="black"/>
<path d="M15.7105 73.4319C15.7105 75.0391 16.2681 76.1871 17.2029 76.7119L22.3525 79.7623C21.4341 79.2211 20.8601 78.0895 20.8601 76.4659L20.7617 39.2215V39.2051L15.5957 36.1875L15.7105 73.4319Z" fill="#6461EE"/>
<path fill-rule="evenodd" clip-rule="evenodd" d="M22.3523 80.2545C22.2648 80.2545 22.1774 80.2326 22.0899 80.1889C22.0899 80.178 22.0844 80.1725 22.0735 80.1725L16.9567 77.1385C15.8251 76.4989 15.2019 75.1705 15.2019 73.4321L15.1035 36.1877C15.1035 36.0073 15.2019 35.8433 15.3495 35.7613C15.4971 35.6629 15.6939 35.6629 15.8415 35.7613L21.0075 38.7789C21.1551 38.8773 21.2535 39.0413 21.2535 39.2053L21.3519 76.4661C21.3519 77.8437 21.7947 78.8441 22.5819 79.3197L22.5983 79.3361C22.8279 79.4673 22.9099 79.7625 22.7787 80.0085C22.6803 80.1561 22.5163 80.2545 22.3523 80.2545ZM16.1039 37.0569L16.2023 73.4321C16.2023 74.8097 16.6451 75.8265 17.4487 76.2857L20.5975 78.1389C20.4499 77.6469 20.3679 77.0893 20.3679 76.4661L20.2531 39.5005L16.1039 37.0569Z" fill="black"/>
<path fill-rule="evenodd" clip-rule="evenodd" d="M20.7623 39.7147C20.6639 39.7147 20.5764 39.6873 20.4999 39.6327L15.3503 36.6151C15.2027 36.5331 15.1043 36.3691 15.1043 36.1887L15.0879 31.8263C15.0879 31.8263 15.0879 31.8208 15.0879 31.8099C15.0879 30.4159 15.4979 28.8415 16.2851 27.2671C16.3507 27.1359 16.4491 27.0539 16.5803 27.0047C16.7115 26.9719 16.8591 26.9883 16.9739 27.0539L22.1399 30.0879C22.3695 30.2191 22.4515 30.4979 22.3367 30.7275C21.6151 32.1707 21.2379 33.5975 21.2379 34.8603L21.2543 39.2063C21.2543 39.3867 21.1559 39.5507 21.0083 39.6491C20.9208 39.6928 20.8388 39.7147 20.7623 39.7147ZM16.0883 35.9099L20.2539 38.3535V34.8603C20.2539 33.5647 20.5983 32.1379 21.2379 30.7111L16.9411 28.1855C16.3835 29.4483 16.0883 30.6947 16.0883 31.8099V35.9099Z" fill="black"/>
<path fill-rule="evenodd" clip-rule="evenodd" d="M21.8947 31.0052C21.7963 31.0052 21.7088 30.9834 21.6323 30.9396L16.4827 27.9056C16.2531 27.7744 16.1711 27.4956 16.2859 27.266C17.3027 25.1996 18.8279 23.4776 20.4515 22.5428L55.8427 2.07562C57.3843 1.19002 58.8439 1.07522 59.9919 1.73122L65.1415 4.76522C65.3875 4.89642 65.4695 5.19162 65.3219 5.43762C65.1907 5.66722 64.8955 5.74922 64.6495 5.61802C63.8295 5.14242 62.7143 5.27362 61.5007 5.97882L26.1095 26.4296C24.6499 27.266 23.2723 28.8404 22.3375 30.7264C22.2719 30.8576 22.1571 30.9396 22.0259 30.9888C21.9822 30.9998 21.9384 31.0052 21.8947 31.0052ZM17.3847 27.2988L21.6979 29.8244C22.6983 27.9712 24.1087 26.4296 25.6011 25.5768L61.0087 5.12602C61.5663 4.79802 62.1239 4.56842 62.6651 4.45362L59.4835 2.58402C58.6799 2.10842 57.5483 2.23962 56.3347 2.94482L20.9435 23.3956C19.5987 24.1664 18.3031 25.5768 17.3847 27.2988Z" fill="black"/>
<path d="M66.4857 50.0926C66.5021 53.3398 64.2225 57.3086 61.4017 58.9486L26.0105 79.3994C23.1733 81.023 20.8773 79.711 20.8609 76.4638L20.7625 39.2194L20.7461 34.857C20.7461 31.5934 23.0257 27.6246 25.8465 26.001L61.2377 5.5502C64.0749 3.9102 66.3709 5.2222 66.3873 8.4858L66.4037 12.8318L66.4857 50.0926Z" fill="white"/>
<path d="M66.4857 50.0926C66.5021 53.3398 64.2061 57.3086 61.3853 58.9322L25.9941 79.383C23.1733 81.023 20.8609 79.711 20.8609 76.4638L20.8281 67.3946C23.7473 68.313 26.8141 68.805 29.9957 68.805C48.6589 68.805 63.7961 49.6498 63.7961 28.953C63.7961 20.999 61.5657 13.619 57.7445 7.5674L61.2377 5.5502C64.0749 3.9102 66.3709 5.2222 66.3873 8.4858V12.8318L66.4857 50.0926Z" fill="#E9EDF4"/>
<path fill-rule="evenodd" clip-rule="evenodd" d="M23.698 80.5969C23.124 80.5969 22.5992 80.4657 22.1236 80.1869C20.992 79.5473 20.3688 78.2189 20.3688 76.4641L20.254 34.8573C20.2376 31.4461 22.6484 27.2805 25.6004 25.5749L60.9916 5.12408C62.5332 4.23848 63.9928 4.10728 65.1244 4.74688C66.256 5.40288 66.8792 6.73128 66.8792 8.48608L66.994 50.0929C66.994 53.4877 64.5996 57.6533 61.6476 59.3753L26.2564 79.8261C25.3544 80.3345 24.5016 80.5969 23.698 80.5969ZM63.55 5.33729C62.9268 5.33729 62.2216 5.55048 61.4836 5.97688L26.0924 26.4277C23.4192 27.9693 21.238 31.7577 21.2544 34.8409L21.3528 76.4641C21.3528 77.8417 21.812 78.8585 22.6156 79.3341C23.4192 79.7933 24.5344 79.6621 25.748 78.9569L61.1392 58.5061C63.8288 56.9481 66.01 53.1761 65.9936 50.0929L65.8952 8.48608C65.8788 7.09208 65.436 6.07528 64.6324 5.61608C64.3208 5.43568 63.9436 5.33729 63.55 5.33729Z" fill="black"/>
<path d="M57.104 14.1134C59.7936 12.5554 61.9748 13.8018 61.9748 16.8686C61.9912 19.9518 59.8264 23.7074 57.1368 25.249L30.126 40.8618C27.4528 42.4034 25.2716 41.1734 25.2716 38.0902C25.2552 35.007 27.42 31.2678 30.0932 29.7098L57.104 14.1134Z" fill="white"/>
<path d="M61.9755 16.8854C61.9755 19.9522 59.8271 23.7078 57.1539 25.2494L30.1431 40.8622C27.4535 42.4038 25.2723 41.1738 25.2559 38.0906C25.2559 37.8118 25.2723 37.5494 25.3051 37.2706C29.9627 36.8442 36.3915 34.663 43.0007 31.0222C53.6771 25.1346 60.9259 17.5742 59.9747 13.5234C61.1719 13.835 61.9755 15.0158 61.9755 16.8854Z" fill="#E9EDF4"/>
<path d="M29.9964 34.5162C30.6524 34.139 31.1608 34.4506 31.1608 35.1886C31.1608 35.9266 30.6524 36.8286 30.0128 37.1894C29.3568 37.5666 28.832 37.2714 28.832 36.5334C28.832 35.7954 29.3568 34.877 29.9964 34.5162Z" fill="black"/>
<path d="M34.3421 32.0045C34.9817 31.6273 35.5065 31.9389 35.5065 32.6769C35.5065 33.4149 34.9981 34.3169 34.3421 34.6941C33.7025 35.0549 33.1777 34.7597 33.1777 34.0217C33.1777 33.2837 33.7025 32.3817 34.3421 32.0045Z" fill="black"/>
<path d="M38.6703 29.4967C39.3263 29.1195 39.8347 29.4311 39.8347 30.1691C39.8347 30.9071 39.3263 31.8091 38.6867 32.1863C38.0307 32.5471 37.5059 32.2519 37.5059 31.5139C37.5059 30.7759 38.0307 29.8739 38.6703 29.4967Z" fill="black"/>
<path fill-rule="evenodd" clip-rule="evenodd" d="M27.9617 42.0268C27.4041 42.0268 26.8957 41.8956 26.4365 41.6332C25.3705 41.01 24.7801 39.7636 24.7637 38.0908C24.7637 34.86 27.0433 30.9076 29.8477 29.284L56.8585 13.6876C58.3181 12.8348 59.7285 12.72 60.7945 13.3268C61.8769 13.95 62.4673 15.2128 62.4673 16.8692C62.4837 20.1 60.2041 24.0524 57.3997 25.676L30.3725 41.2888C29.5361 41.7808 28.7161 42.0268 27.9617 42.0268ZM59.2857 13.9336C58.7117 13.9336 58.0557 14.1304 57.3669 14.5404L30.3397 30.1532C27.8141 31.6128 25.7477 35.1716 25.7641 38.0908C25.7641 39.3864 26.1905 40.3376 26.9449 40.7804C27.6993 41.2068 28.7489 41.092 29.8805 40.436L56.8913 24.8232C59.4333 23.3636 61.4833 19.7884 61.4833 16.8692C61.4833 15.5736 61.0569 14.6224 60.3025 14.196C60.0073 14.0156 59.6629 13.9336 59.2857 13.9336Z" fill="black"/>
<path d="M49.8222 44.5977L43.8526 63.884L37.4238 51.7645L49.8222 44.5977Z" fill="white"/>
<path fill-rule="evenodd" clip-rule="evenodd" d="M43.8522 64.3774C43.6718 64.3774 43.5078 64.279 43.4258 64.115L36.9806 52.0118C36.8494 51.7658 36.9478 51.4706 37.1774 51.3394L49.5758 44.1726C49.7562 44.0742 49.9694 44.0906 50.1334 44.2218C50.281 44.353 50.3466 44.5498 50.2974 44.7466L44.3278 64.033C44.2786 64.2134 44.0982 64.361 43.9014 64.3774C43.8905 64.3774 43.8741 64.3774 43.8522 64.3774ZM38.0794 51.9626L43.7374 62.5898L48.9691 45.665L38.0794 51.9626Z" fill="black"/>
<path d="M30.9632 55.5048L37.4248 51.7656L43.8536 63.8852C43.788 63.929 43.7224 63.9672 43.6568 64C43.0664 64.3444 42.476 64.41 42.0496 64.1312L31.5372 57.0956C31.0124 56.7512 30.832 55.964 31.0288 55.0292C30.996 55.1932 30.9741 55.3518 30.9632 55.5048Z" fill="white"/>
<path fill-rule="evenodd" clip-rule="evenodd" d="M42.6722 64.8034C42.3442 64.8034 42.0326 64.7214 41.7702 64.541L31.2578 57.5054C30.5854 57.0462 30.3066 56.0786 30.5362 54.9306C30.5854 54.6682 30.8642 54.4878 31.1266 54.5534C31.225 54.5698 31.307 54.619 31.389 54.6846L37.1782 51.339C37.293 51.2734 37.4242 51.257 37.5554 51.2898C37.6866 51.339 37.8014 51.421 37.8506 51.5358L44.2958 63.6554C44.4106 63.8686 44.345 64.1474 44.1318 64.295C44.0552 64.3388 43.9842 64.3825 43.9186 64.4262C43.4922 64.6722 43.0658 64.8034 42.6722 64.8034ZM31.4546 55.7998C31.471 56.2098 31.5858 56.5378 31.8154 56.6854L42.3114 63.7046C42.5902 63.885 42.9346 63.803 43.197 63.6882L37.2274 52.4542L31.4546 55.7998Z" fill="black"/>
<path d="M50.4461 35.4978C51.2005 35.0714 51.8893 35.1042 52.2993 35.5798L55.9401 39.9094C55.951 39.9204 55.962 39.9368 55.9729 39.9586C56.0549 40.0898 56.0877 40.1226 56.1041 40.1554C56.115 40.1773 56.1205 40.1992 56.1205 40.221C56.208 40.4178 56.2626 40.6365 56.2845 40.877L49.8229 44.5998L37.4245 51.7666L30.9629 55.5058C30.9738 55.3528 30.9957 55.1942 31.0285 55.0302C31.0941 54.735 31.1597 54.5054 31.2581 54.2758C31.269 54.2321 31.2854 54.1884 31.3073 54.1446L34.8989 45.6494C35.2925 44.6818 35.9813 43.8618 36.7357 43.419L50.4461 35.4978Z" fill="#6461EE"/>
<path fill-rule="evenodd" clip-rule="evenodd" d="M30.9625 55.9983C30.8641 55.9983 30.7821 55.9819 30.7001 55.9327C30.5525 55.8343 30.4541 55.6539 30.4705 55.4735C30.4815 55.2986 30.5033 55.1182 30.5361 54.9323C30.6181 54.5879 30.6837 54.3419 30.7985 54.0959L30.8477 53.9483L34.4393 45.4531C34.8821 44.4035 35.6529 43.4851 36.4893 42.9931L50.1997 35.0719C51.1673 34.5143 52.1021 34.5963 52.6761 35.2687L56.3169 39.5819C56.3333 39.5983 56.3825 39.6803 56.3825 39.6967C56.4973 39.8607 56.5137 39.8935 56.5465 39.9427C56.6941 40.2707 56.7433 40.5331 56.7761 40.8447C56.7925 41.0251 56.6941 41.2055 56.5301 41.3039L31.2085 55.9327C31.132 55.9764 31.05 55.9983 30.9625 55.9983ZM51.4461 35.6951C51.1509 35.6951 50.8557 35.8427 50.6917 35.9247L36.9813 43.8459C36.3417 44.2231 35.7185 44.9939 35.3577 45.8303L31.7497 54.3419C31.7279 54.3966 31.706 54.4512 31.6841 54.5059L55.7429 40.6151C55.7211 40.5495 55.6992 40.4839 55.6773 40.4183C55.6445 40.3527 55.6281 40.3363 55.5625 40.2379L51.9217 35.9083C51.7905 35.7443 51.6101 35.6951 51.4461 35.6951Z" fill="black"/>
<path d="M56.2845 40.8783L49.8229 44.6175L43.9681 47.9959L37.4245 51.7679L30.9629 55.5071C30.9793 55.3595 30.9957 55.1955 31.0285 55.0315C31.0941 54.7363 31.1597 54.5067 31.2581 54.2607C31.2581 54.2279 31.2745 54.1951 31.3073 54.1459L34.8989 45.6343C35.1613 44.9947 35.5713 44.4043 36.0469 43.9615C36.2601 43.7483 36.5061 43.5679 36.7357 43.4203L50.4461 35.4991C50.9873 35.1875 51.5121 35.1219 51.9057 35.3023C52.0587 35.357 52.19 35.4499 52.2993 35.5811L55.9237 39.9107C55.9455 39.9217 55.962 39.9381 55.9729 39.9599C56.0549 40.0911 56.0877 40.1239 56.1041 40.1567C56.1041 40.1786 56.1096 40.2005 56.1205 40.2223C56.208 40.4082 56.2626 40.6269 56.2845 40.8783Z" fill="#6461EE"/>
<path fill-rule="evenodd" clip-rule="evenodd" d="M30.9625 55.9984C30.8751 55.9984 30.7876 55.971 30.7001 55.9164C30.5525 55.8344 30.4541 55.654 30.4705 55.4736C30.4869 55.2932 30.5033 55.1128 30.5361 54.9324C30.6017 54.6044 30.6837 54.342 30.7985 54.0796C30.7985 54.0632 30.8477 53.9484 30.8477 53.932L34.4393 45.4532C34.7345 44.7316 35.1773 44.092 35.7185 43.6C35.9317 43.3868 36.1941 43.1736 36.4893 42.9932L50.1997 35.072C50.8885 34.6784 51.5609 34.5964 52.1021 34.8424C52.3153 34.9244 52.5121 35.072 52.6761 35.2688L56.3169 39.582C56.3333 39.6148 56.3989 39.6968 56.4153 39.746C56.4973 39.8444 56.5137 39.8936 56.5465 39.9428C56.6941 40.2544 56.7597 40.5332 56.7761 40.8448C56.7925 41.0252 56.6941 41.2056 56.5301 41.304L31.2085 55.9328C31.132 55.9765 31.05 55.9984 30.9625 55.9984ZM51.4297 35.6952C51.2165 35.6952 50.9541 35.7772 50.6917 35.9248L36.9813 43.8624C36.7681 43.9772 36.5713 44.1412 36.4073 44.3052C35.9645 44.7152 35.6037 45.24 35.3577 45.8304L31.7497 54.342C31.7279 54.3966 31.7115 54.4513 31.7005 54.506L55.7429 40.6152C55.7211 40.5496 55.6992 40.484 55.6773 40.4184C55.6445 40.3528 55.6281 40.3364 55.5625 40.238L51.9217 35.9084C51.8671 35.8428 51.796 35.7936 51.7085 35.7608C51.632 35.717 51.5391 35.6952 51.4297 35.6952Z" fill="black"/>
<path d="M56.1207 40.2227C56.4487 40.9443 56.3011 42.0595 55.7107 43.1255L45.2803 62.2643C44.8867 62.9695 44.3783 63.5271 43.8535 63.8879L49.8231 44.6015L56.2847 40.8787C56.2629 40.6381 56.2082 40.4195 56.1207 40.2227Z" fill="white"/>
<path fill-rule="evenodd" clip-rule="evenodd" d="M43.8529 64.3781C43.7545 64.3781 43.6561 64.3453 43.5577 64.2797C43.3937 64.1485 43.3281 63.9353 43.3773 63.7385L49.3469 44.4685C49.3797 44.3373 49.4617 44.2389 49.5765 44.1733L55.7429 40.6145C55.721 40.5489 55.6992 40.4833 55.6773 40.4177C55.5625 40.1717 55.6773 39.8765 55.9233 39.7617C56.1857 39.6633 56.4645 39.7781 56.5793 40.0241C56.9729 40.8933 56.7925 42.1725 56.1529 43.3697L45.7061 62.4921C45.3125 63.2465 44.7385 63.8697 44.1317 64.2961C44.0497 64.3453 43.9513 64.3781 43.8529 64.3781ZM50.2325 44.9441L45.0993 61.5573L55.2837 42.8941C55.4805 42.5169 55.6281 42.1397 55.7101 41.7789L50.2325 44.9441Z" fill="black"/>
<path d="M54.4642 41.9274L46.297 38.0078L45.0342 47.3722L37.9658 42.7146L35.4238 52.9318L54.4642 41.9274Z" fill="#6461EE"/>
<path fill-rule="evenodd" clip-rule="evenodd" d="M35.4241 53.4225C35.3093 53.4225 35.211 53.3897 35.129 53.3241C34.965 53.2093 34.8829 52.9961 34.9321 52.8157L37.4906 42.5985C37.5234 42.4345 37.6382 42.3197 37.7858 42.2541C37.9334 42.1885 38.0974 42.2213 38.245 42.3033L44.6574 46.5345L45.8218 37.9409C45.8382 37.7769 45.9366 37.6457 46.0678 37.5637C46.2154 37.4817 46.3794 37.4817 46.527 37.5473L54.6778 41.4833C54.8418 41.5489 54.9566 41.7129 54.9566 41.9097C54.973 42.0901 54.8746 42.2541 54.7106 42.3525L45.3298 47.7809C45.3079 47.7919 45.2806 47.8083 45.2478 47.8301C45.2478 47.8301 45.2423 47.8301 45.2314 47.8301L35.6701 53.3569C35.5936 53.4007 35.5116 53.4225 35.4241 53.4225ZM38.2778 43.5169L36.1786 51.9137L44.0998 47.3381L38.2778 43.5169ZM46.691 38.7445L45.6578 46.4525L53.3986 41.9753L46.691 38.7445Z" fill="black"/>
</svg>
