<svg width="56" height="56" viewBox="0 0 56 56" fill="none" xmlns="http://www.w3.org/2000/svg">
<rect width="56" height="56" rx="12" fill="url(#paint0_linear_241_1651)" fill-opacity="0.9"/>
<path d="M17.5 32.5C17.5 32.1022 17.658 31.7206 17.9393 31.4393C18.2206 31.158 18.6022 31 19 31H22C22.3978 31 22.7794 31.158 23.0607 31.4393C23.342 31.7206 23.5 32.1022 23.5 32.5V37C23.5 37.3978 23.342 37.7794 23.0607 38.0607C22.7794 38.342 22.3978 38.5 22 38.5H19C18.6022 38.5 18.2206 38.342 17.9393 38.0607C17.658 37.7794 17.5 37.3978 17.5 37V32.5ZM25 26.5C25 26.1022 25.158 25.7206 25.4393 25.4393C25.7206 25.158 26.1022 25 26.5 25H29.5C29.8978 25 30.2794 25.158 30.5607 25.4393C30.842 25.7206 31 26.1022 31 26.5V37C31 37.3978 30.842 37.7794 30.5607 38.0607C30.2794 38.342 29.8978 38.5 29.5 38.5H26.5C26.1022 38.5 25.7206 38.342 25.4393 38.0607C25.158 37.7794 25 37.3978 25 37V26.5ZM32.5 19C32.5 18.6022 32.658 18.2206 32.9393 17.9393C33.2206 17.658 33.6022 17.5 34 17.5H37C37.3978 17.5 37.7794 17.658 38.0607 17.9393C38.342 18.2206 38.5 18.6022 38.5 19V37C38.5 37.3978 38.342 37.7794 38.0607 38.0607C37.7794 38.342 37.3978 38.5 37 38.5H34C33.6022 38.5 33.2206 38.342 32.9393 38.0607C32.658 37.7794 32.5 37.3978 32.5 37V19Z" fill="white"/>
<defs>
<linearGradient id="paint0_linear_241_1651" x1="3.12425" y1="3.13739" x2="54.3643" y2="37.6734" gradientUnits="userSpaceOnUse">
<stop offset="0.168198" stop-color="#5FBAFD"/>
<stop offset="0.984375" stop-color="#2B6CEB"/>
</linearGradient>
</defs>
</svg>
