<svg width="104" height="104" viewBox="0 0 104 104" fill="none" xmlns="http://www.w3.org/2000/svg">
<rect x="20" y="20" width="64" height="64" rx="16" fill="url(#paint0_linear_7112_2936)"/>
<g opacity="0.32" filter="url(#filter0_f_7112_2936)">
<rect x="20" y="20" width="64" height="64" rx="16" fill="url(#paint1_linear_7112_2936)"/>
</g>
<g clip-path="url(#clip0_7112_2936)">
<path d="M47.5 40C43.364 40 40 43.364 40 47.5C40 51.636 43.364 55 47.5 55C51.636 55 55 51.636 55 47.5C55 43.364 51.636 40 47.5 40ZM47.12 46.75H47.88C49.049 46.75 50 47.701 50 48.87C50 49.921 49.242 50.786 48.25 50.962V51.749C48.25 52.163 47.914 52.499 47.5 52.499C47.086 52.499 46.75 52.163 46.75 51.749V51H45.75C45.336 51 45 50.664 45 50.25C45 49.836 45.336 49.5 45.75 49.5H47.88C48.222 49.5 48.5 49.222 48.5 48.88C48.5 48.528 48.222 48.25 47.88 48.25H47.12C45.951 48.25 45 47.299 45 46.13C45 45.079 45.758 44.214 46.75 44.038V43.25C46.75 42.836 47.086 42.5 47.5 42.5C47.914 42.5 48.25 42.836 48.25 43.25V44H49.25C49.664 44 50 44.336 50 44.75C50 45.164 49.664 45.5 49.25 45.5H47.12C46.778 45.5 46.5 45.778 46.5 46.12C46.5 46.472 46.778 46.75 47.12 46.75Z" fill="white"/>
<path d="M63.924 58.617C63.769 58.244 63.404 58 63 58H60V46.25C60 42.804 57.196 40 53.75 40C53.197 40 52.75 40.448 52.75 41C52.75 41.552 53.197 42 53.75 42C56.094 42 58 43.907 58 46.25V58H55C54.596 58 54.23 58.244 54.076 58.617C53.921 58.991 54.007 59.421 54.293 59.707L58.293 63.707C58.684 64.098 59.316 64.098 59.707 63.707L63.707 59.707C63.993 59.421 64.079 58.991 63.924 58.617Z" fill="white"/>
</g>
<defs>
<filter id="filter0_f_7112_2936" x="0" y="0" width="104" height="104" filterUnits="userSpaceOnUse" color-interpolation-filters="sRGB">
<feFlood flood-opacity="0" result="BackgroundImageFix"/>
<feBlend mode="normal" in="SourceGraphic" in2="BackgroundImageFix" result="shape"/>
<feGaussianBlur stdDeviation="10" result="effect1_foregroundBlur_7112_2936"/>
</filter>
<linearGradient id="paint0_linear_7112_2936" x1="20" y1="76.1412" x2="91.1367" y2="60.667" gradientUnits="userSpaceOnUse">
<stop stop-color="#3AA0FF"/>
<stop offset="0.984375" stop-color="#53D0F7"/>
</linearGradient>
<linearGradient id="paint1_linear_7112_2936" x1="20" y1="76.1412" x2="91.1367" y2="60.667" gradientUnits="userSpaceOnUse">
<stop stop-color="#3AA0FF"/>
<stop offset="0.984375" stop-color="#53D0F7"/>
</linearGradient>
<clipPath id="clip0_7112_2936">
<rect width="24" height="24" fill="white" transform="translate(40 40)"/>
</clipPath>
</defs>
</svg>
