<svg width="56" height="56" viewBox="0 0 56 56" fill="none" xmlns="http://www.w3.org/2000/svg">
<rect width="56" height="56" rx="12" fill="url(#paint0_linear_241_2384)" fill-opacity="0.9"/>
<g clip-path="url(#clip0_241_2384)">
<path d="M31 18C31.2652 18 31.5196 18.1054 31.7071 18.2929C31.8946 18.4804 32 18.7348 32 19V20H33C33.7956 20 34.5587 20.3161 35.1213 20.8787C35.6839 21.4413 36 22.2044 36 23V24H37C37.2652 24 37.5196 24.1054 37.7071 24.2929C37.8946 24.4804 38 24.7348 38 25C38 25.2652 37.8946 25.5196 37.7071 25.7071C37.5196 25.8946 37.2652 26 37 26H36V30H37C37.2652 30 37.5196 30.1054 37.7071 30.2929C37.8946 30.4804 38 30.7348 38 31C38 31.2652 37.8946 31.5196 37.7071 31.7071C37.5196 31.8946 37.2652 32 37 32H36V33C36 33.7956 35.6839 34.5587 35.1213 35.1213C34.5587 35.6839 33.7956 36 33 36H32V37C32 37.2652 31.8946 37.5196 31.7071 37.7071C31.5196 37.8946 31.2652 38 31 38C30.7348 38 30.4804 37.8946 30.2929 37.7071C30.1054 37.5196 30 37.2652 30 37V36H26V37C26 37.2652 25.8946 37.5196 25.7071 37.7071C25.5196 37.8946 25.2652 38 25 38C24.7348 38 24.4804 37.8946 24.2929 37.7071C24.1054 37.5196 24 37.2652 24 37V36H23C22.2044 36 21.4413 35.6839 20.8787 35.1213C20.3161 34.5587 20 33.7956 20 33V32H19C18.7348 32 18.4804 31.8946 18.2929 31.7071C18.1054 31.5196 18 31.2652 18 31C18 30.7348 18.1054 30.4804 18.2929 30.2929C18.4804 30.1054 18.7348 30 19 30H20V26H19C18.7348 26 18.4804 25.8946 18.2929 25.7071C18.1054 25.5196 18 25.2652 18 25C18 24.7348 18.1054 24.4804 18.2929 24.2929C18.4804 24.1054 18.7348 24 19 24H20V23C20 22.2044 20.3161 21.4413 20.8787 20.8787C21.4413 20.3161 22.2044 20 23 20H24V19C24 18.7348 24.1054 18.4804 24.2929 18.2929C24.4804 18.1054 24.7348 18 25 18C25.2652 18 25.5196 18.1054 25.7071 18.2929C25.8946 18.4804 26 18.7348 26 19V20H30V19C30 18.7348 30.1054 18.4804 30.2929 18.2929C30.4804 18.1054 30.7348 18 31 18ZM30 24H26C25.4696 24 24.9609 24.2107 24.5858 24.5858C24.2107 24.9609 24 25.4696 24 26V30C24 30.5304 24.2107 31.0391 24.5858 31.4142C24.9609 31.7893 25.4696 32 26 32H30C30.5304 32 31.0391 31.7893 31.4142 31.4142C31.7893 31.0391 32 30.5304 32 30V26C32 25.4696 31.7893 24.9609 31.4142 24.5858C31.0391 24.2107 30.5304 24 30 24ZM30 26V30H26V26H30Z" fill="white"/>
</g>
<defs>
<linearGradient id="paint0_linear_241_2384" x1="3.12425" y1="3.13739" x2="54.3643" y2="37.6734" gradientUnits="userSpaceOnUse">
<stop offset="0.168198" stop-color="#5FBAFD"/>
<stop offset="0.984375" stop-color="#2B6CEB"/>
</linearGradient>
<clipPath id="clip0_241_2384">
<rect width="24" height="24" fill="white" transform="translate(16 16)"/>
</clipPath>
</defs>
</svg>
