<svg width="56" height="56" viewBox="0 0 56 56" fill="none" xmlns="http://www.w3.org/2000/svg">
<rect width="56" height="56" rx="12" fill="url(#paint0_linear_241_1801)" fill-opacity="0.9"/>
<path d="M19 28C19 28.2652 19.1054 28.5196 19.2929 28.7071C19.4804 28.8946 19.7348 29 20 29H26C26.2652 29 26.5196 28.8946 26.7071 28.7071C26.8946 28.5196 27 28.2652 27 28V20C27 19.7348 26.8946 19.4804 26.7071 19.2929C26.5196 19.1054 26.2652 19 26 19H20C19.7348 19 19.4804 19.1054 19.2929 19.2929C19.1054 19.4804 19 19.7348 19 20V28ZM19 36C19 36.2652 19.1054 36.5196 19.2929 36.7071C19.4804 36.8946 19.7348 37 20 37H26C26.2652 37 26.5196 36.8946 26.7071 36.7071C26.8946 36.5196 27 36.2652 27 36V32C27 31.7348 26.8946 31.4804 26.7071 31.2929C26.5196 31.1054 26.2652 31 26 31H20C19.7348 31 19.4804 31.1054 19.2929 31.2929C19.1054 31.4804 19 31.7348 19 32V36ZM29 36C29 36.2652 29.1054 36.5196 29.2929 36.7071C29.4804 36.8946 29.7348 37 30 37H36C36.2652 37 36.5196 36.8946 36.7071 36.7071C36.8946 36.5196 37 36.2652 37 36V28C37 27.7348 36.8946 27.4804 36.7071 27.2929C36.5196 27.1054 36.2652 27 36 27H30C29.7348 27 29.4804 27.1054 29.2929 27.2929C29.1054 27.4804 29 27.7348 29 28V36ZM30 19C29.7348 19 29.4804 19.1054 29.2929 19.2929C29.1054 19.4804 29 19.7348 29 20V24C29 24.2652 29.1054 24.5196 29.2929 24.7071C29.4804 24.8946 29.7348 25 30 25H36C36.2652 25 36.5196 24.8946 36.7071 24.7071C36.8946 24.5196 37 24.2652 37 24V20C37 19.7348 36.8946 19.4804 36.7071 19.2929C36.5196 19.1054 36.2652 19 36 19H30Z" fill="white"/>
<defs>
<linearGradient id="paint0_linear_241_1801" x1="33.1852" y1="-10.1874" x2="45.6036" y2="53.5816" gradientUnits="userSpaceOnUse">
<stop offset="0.168198" stop-color="#FF9DC8"/>
<stop offset="0.984375" stop-color="#EB2B7E"/>
</linearGradient>
</defs>
</svg>
