<svg width="56" height="57" viewBox="0 0 56 57" fill="none" xmlns="http://www.w3.org/2000/svg">
<rect y="0.5" width="56" height="56" rx="12" fill="url(#paint0_linear_241_1827)" fill-opacity="0.9"/>
<path d="M18 28C17.4477 28 17 27.5523 17 27V22.4C17 21.8477 17.4477 21.4 18 21.4H20.95C21.5023 21.4 21.95 20.9523 21.95 20.4V20.3C21.95 19.4248 22.2977 18.5854 22.9165 17.9665C23.5354 17.3477 24.3748 17 25.25 17C26.1252 17 26.9646 17.3477 27.5835 17.9665C28.2023 18.5854 28.55 19.4248 28.55 20.3V20.4C28.55 20.9523 28.9977 21.4 29.55 21.4H32.5C33.0523 21.4 33.5 21.8477 33.5 22.4V27C33.5 27.5523 33.9477 28 34.5 28H35.7C36.5752 28 37.4146 28.3477 38.0335 28.9665C38.6523 29.5854 39 30.4248 39 31.3C39 32.1752 38.6523 33.0146 38.0335 33.6335C37.4146 34.2523 36.5752 34.6 35.7 34.6H34.5C33.9477 34.6 33.5 35.0477 33.5 35.6V38C33.5 38.5523 33.0523 39 32.5 39H18C17.4477 39 17 38.5523 17 38V35.6C17 35.0477 17.4477 34.6 18 34.6H19.2C20.0752 34.6 20.9146 34.2523 21.5335 33.6335C22.1523 33.0146 22.5 32.1752 22.5 31.3C22.5 30.4248 22.1523 29.5854 21.5335 28.9665C20.9146 28.3477 20.0752 28 19.2 28H18Z" fill="white"/>
<defs>
<linearGradient id="paint0_linear_241_1827" x1="33.1852" y1="-9.68736" x2="45.6036" y2="54.0816" gradientUnits="userSpaceOnUse">
<stop offset="0.168198" stop-color="#FF9DC8"/>
<stop offset="0.984375" stop-color="#EB2B7E"/>
</linearGradient>
</defs>
</svg>
