<svg width="56" height="56" viewBox="0 0 56 56" fill="none" xmlns="http://www.w3.org/2000/svg">
<rect width="56" height="56" rx="12" fill="url(#paint0_linear_241_1782)" fill-opacity="0.9"/>
<path d="M19.0977 32.7344C18.953 32.7344 18.8113 32.6926 18.6897 32.6139C18.5682 32.5352 18.4721 32.4231 18.4129 32.2909C17.6969 30.6918 17.3924 28.9389 17.5272 27.1919C17.6621 25.445 18.2319 23.7596 19.1849 22.2892C20.1379 20.8189 21.4436 19.6104 22.9832 18.7739C24.5227 17.9374 26.2472 17.4995 27.9993 17.5C28.1982 17.5 28.389 17.579 28.5296 17.7197C28.6703 17.8603 28.7493 18.0511 28.7493 18.25V28C28.7493 28.1448 28.7074 28.2866 28.6286 28.4081C28.5499 28.5296 28.4376 28.6257 28.3054 28.6848L19.4038 32.6669C19.3077 32.7108 19.2034 32.7338 19.0977 32.7344Z" fill="white"/>
<path d="M30.6988 19.195C30.6444 19.184 30.5882 19.1851 30.5344 19.1984C30.4805 19.2117 30.4303 19.2368 30.3873 19.2719C30.3443 19.3069 30.3096 19.3511 30.2857 19.4012C30.2618 19.4513 30.2494 19.5061 30.2492 19.5615V27.999C30.2489 28.4333 30.123 28.8582 29.8869 29.2226C29.6507 29.587 29.3142 29.8754 28.918 30.0531L20.8335 33.6709C20.7834 33.6933 20.7388 33.7264 20.7028 33.7679C20.6669 33.8094 20.6405 33.8582 20.6256 33.911C20.6106 33.9638 20.6074 34.0192 20.6162 34.0734C20.625 34.1276 20.6455 34.1792 20.6764 34.2245C21.2951 35.1345 22.0631 35.9334 22.948 36.5875C24.6245 37.8346 26.6598 38.5053 28.7492 38.499C34.1253 38.499 38.4992 34.1251 38.4992 28.749C38.4992 24.0405 35.1439 20.1006 30.6988 19.195Z" fill="white"/>
<defs>
<linearGradient id="paint0_linear_241_1782" x1="33.1852" y1="-10.1874" x2="45.6036" y2="53.5816" gradientUnits="userSpaceOnUse">
<stop offset="0.168198" stop-color="#FF9DC8"/>
<stop offset="0.984375" stop-color="#EB2B7E"/>
</linearGradient>
</defs>
</svg>
