<svg width="56" height="56" viewBox="0 0 56 56" fill="none" xmlns="http://www.w3.org/2000/svg">
<rect width="56" height="56" rx="12" fill="url(#paint0_linear_241_1791)" fill-opacity="0.9"/>
<path d="M28.7549 18.3047C28.7549 18.1058 28.6759 17.915 28.5353 17.7744C28.3946 17.6337 28.2038 17.5547 28.0049 17.5547C27.806 17.5547 27.6153 17.6337 27.4746 17.7744C27.334 17.915 27.2549 18.1058 27.2549 18.3047V19.7847C27.2549 19.9836 27.334 20.1744 27.4746 20.315C27.6153 20.4557 27.806 20.5347 28.0049 20.5347C28.2038 20.5347 28.3946 20.4557 28.5353 20.315C28.6759 20.1744 28.7549 19.9836 28.7549 19.7847V18.3047ZM33.8659 26.2947C33.6581 25.4841 33.2797 24.7273 32.7559 24.0747C32.2372 23.4172 31.5866 22.8756 30.8459 22.4847C30.1074 22.0961 29.2978 21.8614 28.4659 21.7947C27.6319 21.732 26.794 21.8444 26.0059 22.1247C25.2135 22.401 24.4879 22.8405 23.8759 23.4147C23.2701 23.9789 22.7838 24.659 22.4459 25.4147C22.1152 26.1817 21.9483 27.0094 21.9559 27.8447C21.9328 28.8094 22.1392 29.7659 22.5582 30.6352C22.9772 31.5045 23.5968 32.2618 24.3659 32.8447L24.7159 33.1747C25.0159 33.4847 25.0159 33.4847 25.0059 34.1747V34.4947C24.9933 34.716 25.0274 34.9374 25.1059 35.1447C25.1759 35.3667 25.2999 35.5697 25.4659 35.7347C25.5419 35.8127 25.6259 35.8827 25.7159 35.9447V36.9447C25.6995 37.126 25.7191 37.3089 25.7736 37.4826C25.8281 37.6564 25.9165 37.8176 26.0336 37.957C26.1507 38.0965 26.2943 38.2114 26.456 38.295C26.6178 38.3787 26.7945 38.4296 26.9759 38.4447H28.9759C29.3432 38.4141 29.6834 38.2389 29.9215 37.9577C30.1597 37.6764 30.2764 37.312 30.2459 36.9447V35.9447C30.336 35.8832 30.4198 35.8128 30.4959 35.7347C30.6529 35.5687 30.7729 35.3707 30.8459 35.1547C30.9236 34.9437 30.9576 34.7192 30.9459 34.4947V34.1247C30.9459 33.5747 30.9459 33.5747 31.2559 33.2247L31.6359 32.8747C32.918 31.8776 33.7552 30.4151 33.9659 28.8047C34.1137 27.9706 34.0796 27.1144 33.8659 26.2947ZM28.7959 36.9247H27.2159V36.2947H28.7959V36.9247ZM28.0059 26.3647C27.6797 26.3647 27.3669 26.4943 27.1362 26.7249C26.9055 26.9556 26.7759 27.2685 26.7759 27.5947C26.7759 27.8599 26.6706 28.1143 26.483 28.3018C26.2955 28.4893 26.0412 28.5947 25.7759 28.5947C25.5107 28.5947 25.2564 28.4893 25.0688 28.3018C24.8813 28.1143 24.7759 27.8599 24.7759 27.5947C24.7733 27.1698 24.855 26.7486 25.0164 26.3555C25.1778 25.9624 25.4156 25.6053 25.7161 25.3048C26.0165 25.0043 26.3737 24.7665 26.7667 24.6051C27.1598 24.4438 27.581 24.362 28.0059 24.3647C28.2712 24.3647 28.5255 24.47 28.713 24.6576C28.9006 24.8451 29.0059 25.0995 29.0059 25.3647C29.0059 25.6299 28.9006 25.8843 28.713 26.0718C28.5255 26.2593 28.2712 26.3647 28.0059 26.3647ZM37.1659 28.8647H35.3359C35.137 28.8647 34.9463 28.7857 34.8056 28.645C34.665 28.5044 34.5859 28.3136 34.5859 28.1147C34.5859 27.9158 34.665 27.725 34.8056 27.5844C34.9463 27.4437 35.137 27.3647 35.3359 27.3647H37.1659C37.3649 27.3647 37.5556 27.4437 37.6963 27.5844C37.8369 27.725 37.9159 27.9158 37.9159 28.1147C37.9159 28.3136 37.8369 28.5044 37.6963 28.645C37.5556 28.7857 37.3649 28.8647 37.1659 28.8647ZM33.4859 22.8547C33.3874 22.8552 33.2898 22.8359 33.1987 22.7982C33.1077 22.7604 33.0252 22.7048 32.9559 22.6347C32.8155 22.4941 32.7366 22.3034 32.7366 22.1047C32.7366 21.9059 32.8155 21.7153 32.9559 21.5747L34.2559 20.2747C34.3981 20.1422 34.5862 20.0701 34.7805 20.0735C34.9748 20.0769 35.1601 20.1557 35.2976 20.2931C35.435 20.4305 35.5137 20.6159 35.5171 20.8102C35.5205 21.0045 35.4484 21.1925 35.3159 21.3347L34.0159 22.6347C33.947 22.7053 33.8646 22.7611 33.7735 22.7989C33.6824 22.8368 33.5846 22.8557 33.4859 22.8547ZM35.7859 35.2947C35.5879 35.2904 35.3988 35.2119 35.2559 35.0747L33.9559 33.7747C33.8681 33.6876 33.8031 33.5801 33.7669 33.4618C33.7306 33.3436 33.7242 33.2182 33.7481 33.0968C33.7721 32.9754 33.8257 32.8619 33.9042 32.7662C33.9827 32.6706 34.0836 32.5959 34.1979 32.5487C34.3352 32.4908 34.4866 32.4757 34.6326 32.5054C34.7785 32.535 34.9121 32.6079 35.0159 32.7147L36.3159 34.0147C36.3867 34.0836 36.4429 34.166 36.4813 34.2571C36.5197 34.3481 36.5395 34.4459 36.5395 34.5447C36.5395 34.6435 36.5197 34.7413 36.4813 34.8323C36.4429 34.9233 36.3867 35.0057 36.3159 35.0747C36.1754 35.2154 35.9848 35.2945 35.7859 35.2947ZM22.5359 22.8547C22.3371 22.8545 22.1465 22.7754 22.0059 22.6347L20.7059 21.3347C20.5654 21.1928 20.4869 21.0009 20.4879 20.8012C20.4888 20.6014 20.569 20.4103 20.7109 20.2697C20.8528 20.1291 21.0447 20.0507 21.2445 20.0516C21.4442 20.0526 21.6354 20.1328 21.7759 20.2747L23.0659 21.5747C23.1707 21.6796 23.242 21.8132 23.2709 21.9586C23.2998 22.104 23.2849 22.2546 23.2282 22.3916C23.1715 22.5286 23.0755 22.6457 22.9523 22.7281C22.8291 22.8105 22.6842 22.8546 22.5359 22.8547ZM20.2459 35.2947C20.1471 35.2969 20.049 35.2785 19.9577 35.2406C19.8665 35.2027 19.7841 35.1462 19.7159 35.0747C19.5755 34.9341 19.4966 34.7434 19.4966 34.5447C19.4966 34.3459 19.5755 34.1553 19.7159 34.0147L21.0159 32.7147C21.1581 32.5822 21.3462 32.5101 21.5405 32.5135C21.7348 32.5169 21.9201 32.5957 22.0576 32.7331C22.195 32.8705 22.2737 33.0559 22.2771 33.2502C22.2805 33.4445 22.2084 33.6325 22.0759 33.7747L20.7859 35.0847C20.639 35.2205 20.446 35.2956 20.2459 35.2947ZM20.6659 28.8647H18.8359C18.637 28.8647 18.4463 28.7857 18.3056 28.645C18.165 28.5044 18.0859 28.3136 18.0859 28.1147C18.0859 27.9158 18.165 27.725 18.3056 27.5844C18.4463 27.4437 18.637 27.3647 18.8359 27.3647H20.6659C20.8648 27.3647 21.0556 27.4437 21.1963 27.5844C21.3369 27.725 21.4159 27.9158 21.4159 28.1147C21.4159 28.3136 21.3369 28.5044 21.1963 28.645C21.0556 28.7857 20.8648 28.8647 20.6659 28.8647Z" fill="white"/>
<defs>
<linearGradient id="paint0_linear_241_1791" x1="33.1852" y1="-10.1874" x2="45.6036" y2="53.5816" gradientUnits="userSpaceOnUse">
<stop offset="0.168198" stop-color="#FF9DC8"/>
<stop offset="0.984375" stop-color="#EB2B7E"/>
</linearGradient>
</defs>
</svg>
