<svg width="37" height="36" viewBox="0 0 37 36" fill="none" xmlns="http://www.w3.org/2000/svg">
<path d="M18.5 10.75C17.6136 10.75 16.7358 10.9246 15.9169 11.2638C15.0979 11.603 14.3538 12.1002 13.727 12.727C13.1002 13.3538 12.603 14.0979 12.2638 14.9169C11.9246 15.7358 11.75 16.6136 11.75 17.5C11.75 18.3864 11.9246 19.2642 12.2638 20.0831C12.603 20.9021 13.1002 21.6462 13.727 22.273C14.3538 22.8998 15.0979 23.397 15.9169 23.7362C16.7358 24.0754 17.6136 24.25 18.5 24.25C20.2902 24.25 22.0071 23.5388 23.273 22.273C24.5388 21.0071 25.25 19.2902 25.25 17.5C25.25 15.7098 24.5388 13.9929 23.273 12.727C22.0071 11.4612 20.2902 10.75 18.5 10.75ZM14.2525 17.5C14.2525 16.3735 14.7 15.2931 15.4965 14.4965C16.2931 13.7 17.3735 13.2525 18.5 13.2525C19.6265 13.2525 20.7069 13.7 21.5035 14.4965C22.3 15.2931 22.7475 16.3735 22.7475 17.5C22.7475 18.6265 22.3 19.7069 21.5035 20.5035C20.7069 21.3 19.6265 21.7475 18.5 21.7475C17.3735 21.7475 16.2931 21.3 15.4965 20.5035C14.7 19.7069 14.2525 18.6265 14.2525 17.5Z" fill="#178EE8" stroke="#178EE8" stroke-width="0.5"/>
<mask id="path-2-outside-1_241_2292" maskUnits="userSpaceOnUse" x="2" y="1" width="33" height="33" fill="black">
<rect fill="white" x="2" y="1" width="33" height="33"/>
<path d="M21.98 4.60126C20.9588 1.13291 16.0412 1.13291 15.02 4.60126L14.8379 5.21936C14.7666 5.46147 14.642 5.68455 14.4733 5.87225C14.3045 6.05996 14.0959 6.20753 13.8628 6.30414C13.6296 6.40075 13.3778 6.44396 13.1257 6.4306C12.8737 6.41724 12.6278 6.34764 12.4062 6.22692L11.8404 5.9169C8.6627 4.18854 5.18854 7.66464 6.91884 10.8404L7.22692 11.4062C7.34764 11.6278 7.41724 11.8737 7.4306 12.1257C7.44396 12.3778 7.40075 12.6296 7.30414 12.8628C7.20753 13.0959 7.05996 13.3045 6.87225 13.4733C6.68455 13.642 6.46147 13.7666 6.21936 13.8379L5.60126 14.02C2.13291 15.0412 2.13291 19.9588 5.60126 20.98L6.21936 21.1621C6.46147 21.2334 6.68455 21.358 6.87225 21.5267C7.05996 21.6955 7.20753 21.9041 7.30414 22.1372C7.40075 22.3704 7.44396 22.6222 7.4306 22.8743C7.41724 23.1263 7.34764 23.3722 7.22692 23.5938L6.9169 24.1596C5.18854 27.3373 8.6627 30.8134 11.8404 29.0812L12.4062 28.7731C12.6278 28.6524 12.8737 28.5828 13.1257 28.5694C13.3778 28.556 13.6296 28.5992 13.8628 28.6959C14.0959 28.7925 14.3045 28.94 14.4733 29.1277C14.642 29.3154 14.7666 29.5385 14.8379 29.7806L15.02 30.3987C16.0412 33.8671 20.9588 33.8671 21.98 30.3987L22.1621 29.7806C22.2334 29.5385 22.358 29.3154 22.5267 29.1277C22.6955 28.94 22.9041 28.7925 23.1372 28.6959C23.3704 28.5992 23.6222 28.556 23.8743 28.5694C24.1263 28.5828 24.3722 28.6524 24.5938 28.7731L25.1596 29.0831C28.3373 30.8134 31.8134 27.3354 30.0812 24.1596L29.7731 23.5938C29.6524 23.3722 29.5828 23.1263 29.5694 22.8743C29.556 22.6222 29.5992 22.3704 29.6959 22.1372C29.7925 21.9041 29.94 21.6955 30.1277 21.5267C30.3154 21.358 30.5385 21.2334 30.7806 21.1621L31.3987 20.98C34.8671 19.9588 34.8671 15.0412 31.3987 14.02L30.7806 13.8379C30.5385 13.7666 30.3154 13.642 30.1277 13.4733C29.94 13.3045 29.7925 13.0959 29.6959 12.8628C29.5992 12.6296 29.556 12.3778 29.5694 12.1257C29.5828 11.8737 29.6524 11.6278 29.7731 11.4062L30.0831 10.8404C31.8134 7.6627 28.3354 4.18854 25.1596 5.91884L24.5938 6.22692C24.3722 6.34764 24.1263 6.41724 23.8743 6.4306C23.6222 6.44396 23.3704 6.40075 23.1372 6.30414C22.9041 6.20753 22.6955 6.05996 22.5267 5.87225C22.358 5.68455 22.2334 5.46147 22.1621 5.21936L21.98 4.60126ZM16.8782 5.1496C17.3549 3.53169 19.6451 3.53169 20.1218 5.1496L20.3039 5.7677C20.457 6.28715 20.7245 6.76575 21.0866 7.16841C21.4487 7.57107 21.8964 7.88758 22.3967 8.09475C22.8971 8.30191 23.4374 8.39447 23.9782 8.36565C24.519 8.33682 25.0464 8.18733 25.5219 7.92815L26.0858 7.61813C27.5661 6.81402 29.186 8.43193 28.3799 9.91421L28.0718 10.48C27.8131 10.9555 27.6639 11.483 27.6354 12.0236C27.6069 12.5643 27.6997 13.1044 27.9071 13.6046C28.1144 14.1047 28.431 14.5521 28.8337 14.914C29.2363 15.2759 29.7149 15.5431 30.2342 15.6961L30.8504 15.8782C32.4683 16.3549 32.4683 18.6451 30.8504 19.1218L30.2323 19.3039C29.7128 19.457 29.2343 19.7245 28.8316 20.0866C28.4289 20.4487 28.1124 20.8964 27.9053 21.3967C27.6981 21.8971 27.6055 22.4374 27.6344 22.9782C27.6632 23.519 27.8127 24.0464 28.0718 24.5219L28.3819 25.0858C29.186 26.5661 27.5681 28.186 26.0858 27.3799L25.5219 27.0718C25.0463 26.8127 24.5187 26.6633 23.9778 26.6346C23.437 26.6059 22.8965 26.6986 22.3961 26.906C21.8958 27.1133 21.4481 27.4301 21.0861 27.8329C20.7241 28.2358 20.4568 28.7146 20.3039 29.2342L20.1218 29.8504C19.6451 31.4683 17.3549 31.4683 16.8782 29.8504L16.6961 29.2323C16.5429 28.7131 16.2755 28.2348 15.9135 27.8323C15.5515 27.4299 15.1041 27.1135 14.604 26.9063C14.1039 26.6992 13.5638 26.6066 13.0233 26.6352C12.4827 26.6638 11.9554 26.813 11.48 27.0718L10.9142 27.3819C9.43387 28.186 7.81402 26.5681 8.62007 25.0858L8.92815 24.5219C9.1877 24.0464 9.33748 23.5187 9.36649 22.9777C9.39551 22.4367 9.30303 21.8961 9.09584 21.3955C8.88865 20.8949 8.57201 20.447 8.16914 20.0848C7.76628 19.7225 7.28742 19.455 6.7677 19.302L6.1496 19.1199C4.53169 18.6432 4.53169 16.3529 6.1496 15.8763L6.7677 15.6941C7.28661 15.5409 7.76469 15.2736 8.16694 14.9117C8.5692 14.5498 8.88545 14.1026 9.09257 13.6028C9.29968 13.1029 9.3924 12.5631 9.36395 12.0228C9.33551 11.4825 9.18661 10.9553 8.92815 10.48L8.61813 9.91421C7.81402 8.43387 9.43193 6.81402 10.9142 7.62007L11.48 7.92815C11.9554 8.18697 12.4827 8.33616 13.0233 8.3648C13.5638 8.39344 14.1039 8.30079 14.604 8.09366C15.1041 7.88652 15.5515 7.57013 15.9135 7.16768C16.2755 6.76522 16.5429 6.28688 16.6961 5.7677L16.8782 5.1496Z"/>
</mask>
<path d="M21.98 4.60126C20.9588 1.13291 16.0412 1.13291 15.02 4.60126L14.8379 5.21936C14.7666 5.46147 14.642 5.68455 14.4733 5.87225C14.3045 6.05996 14.0959 6.20753 13.8628 6.30414C13.6296 6.40075 13.3778 6.44396 13.1257 6.4306C12.8737 6.41724 12.6278 6.34764 12.4062 6.22692L11.8404 5.9169C8.6627 4.18854 5.18854 7.66464 6.91884 10.8404L7.22692 11.4062C7.34764 11.6278 7.41724 11.8737 7.4306 12.1257C7.44396 12.3778 7.40075 12.6296 7.30414 12.8628C7.20753 13.0959 7.05996 13.3045 6.87225 13.4733C6.68455 13.642 6.46147 13.7666 6.21936 13.8379L5.60126 14.02C2.13291 15.0412 2.13291 19.9588 5.60126 20.98L6.21936 21.1621C6.46147 21.2334 6.68455 21.358 6.87225 21.5267C7.05996 21.6955 7.20753 21.9041 7.30414 22.1372C7.40075 22.3704 7.44396 22.6222 7.4306 22.8743C7.41724 23.1263 7.34764 23.3722 7.22692 23.5938L6.9169 24.1596C5.18854 27.3373 8.6627 30.8134 11.8404 29.0812L12.4062 28.7731C12.6278 28.6524 12.8737 28.5828 13.1257 28.5694C13.3778 28.556 13.6296 28.5992 13.8628 28.6959C14.0959 28.7925 14.3045 28.94 14.4733 29.1277C14.642 29.3154 14.7666 29.5385 14.8379 29.7806L15.02 30.3987C16.0412 33.8671 20.9588 33.8671 21.98 30.3987L22.1621 29.7806C22.2334 29.5385 22.358 29.3154 22.5267 29.1277C22.6955 28.94 22.9041 28.7925 23.1372 28.6959C23.3704 28.5992 23.6222 28.556 23.8743 28.5694C24.1263 28.5828 24.3722 28.6524 24.5938 28.7731L25.1596 29.0831C28.3373 30.8134 31.8134 27.3354 30.0812 24.1596L29.7731 23.5938C29.6524 23.3722 29.5828 23.1263 29.5694 22.8743C29.556 22.6222 29.5992 22.3704 29.6959 22.1372C29.7925 21.9041 29.94 21.6955 30.1277 21.5267C30.3154 21.358 30.5385 21.2334 30.7806 21.1621L31.3987 20.98C34.8671 19.9588 34.8671 15.0412 31.3987 14.02L30.7806 13.8379C30.5385 13.7666 30.3154 13.642 30.1277 13.4733C29.94 13.3045 29.7925 13.0959 29.6959 12.8628C29.5992 12.6296 29.556 12.3778 29.5694 12.1257C29.5828 11.8737 29.6524 11.6278 29.7731 11.4062L30.0831 10.8404C31.8134 7.6627 28.3354 4.18854 25.1596 5.91884L24.5938 6.22692C24.3722 6.34764 24.1263 6.41724 23.8743 6.4306C23.6222 6.44396 23.3704 6.40075 23.1372 6.30414C22.9041 6.20753 22.6955 6.05996 22.5267 5.87225C22.358 5.68455 22.2334 5.46147 22.1621 5.21936L21.98 4.60126ZM16.8782 5.1496C17.3549 3.53169 19.6451 3.53169 20.1218 5.1496L20.3039 5.7677C20.457 6.28715 20.7245 6.76575 21.0866 7.16841C21.4487 7.57107 21.8964 7.88758 22.3967 8.09475C22.8971 8.30191 23.4374 8.39447 23.9782 8.36565C24.519 8.33682 25.0464 8.18733 25.5219 7.92815L26.0858 7.61813C27.5661 6.81402 29.186 8.43193 28.3799 9.91421L28.0718 10.48C27.8131 10.9555 27.6639 11.483 27.6354 12.0236C27.6069 12.5643 27.6997 13.1044 27.9071 13.6046C28.1144 14.1047 28.431 14.5521 28.8337 14.914C29.2363 15.2759 29.7149 15.5431 30.2342 15.6961L30.8504 15.8782C32.4683 16.3549 32.4683 18.6451 30.8504 19.1218L30.2323 19.3039C29.7128 19.457 29.2343 19.7245 28.8316 20.0866C28.4289 20.4487 28.1124 20.8964 27.9053 21.3967C27.6981 21.8971 27.6055 22.4374 27.6344 22.9782C27.6632 23.519 27.8127 24.0464 28.0718 24.5219L28.3819 25.0858C29.186 26.5661 27.5681 28.186 26.0858 27.3799L25.5219 27.0718C25.0463 26.8127 24.5187 26.6633 23.9778 26.6346C23.437 26.6059 22.8965 26.6986 22.3961 26.906C21.8958 27.1133 21.4481 27.4301 21.0861 27.8329C20.7241 28.2358 20.4568 28.7146 20.3039 29.2342L20.1218 29.8504C19.6451 31.4683 17.3549 31.4683 16.8782 29.8504L16.6961 29.2323C16.5429 28.7131 16.2755 28.2348 15.9135 27.8323C15.5515 27.4299 15.1041 27.1135 14.604 26.9063C14.1039 26.6992 13.5638 26.6066 13.0233 26.6352C12.4827 26.6638 11.9554 26.813 11.48 27.0718L10.9142 27.3819C9.43387 28.186 7.81402 26.5681 8.62007 25.0858L8.92815 24.5219C9.1877 24.0464 9.33748 23.5187 9.36649 22.9777C9.39551 22.4367 9.30303 21.8961 9.09584 21.3955C8.88865 20.8949 8.57201 20.447 8.16914 20.0848C7.76628 19.7225 7.28742 19.455 6.7677 19.302L6.1496 19.1199C4.53169 18.6432 4.53169 16.3529 6.1496 15.8763L6.7677 15.6941C7.28661 15.5409 7.76469 15.2736 8.16694 14.9117C8.5692 14.5498 8.88545 14.1026 9.09257 13.6028C9.29968 13.1029 9.3924 12.5631 9.36395 12.0228C9.33551 11.4825 9.18661 10.9553 8.92815 10.48L8.61813 9.91421C7.81402 8.43387 9.43193 6.81402 10.9142 7.62007L11.48 7.92815C11.9554 8.18697 12.4827 8.33616 13.0233 8.3648C13.5638 8.39344 14.1039 8.30079 14.604 8.09366C15.1041 7.88652 15.5515 7.57013 15.9135 7.16768C16.2755 6.76522 16.5429 6.28688 16.6961 5.7677L16.8782 5.1496Z" fill="#178EE8"/>
<path d="M21.98 4.60126C20.9588 1.13291 16.0412 1.13291 15.02 4.60126L14.8379 5.21936C14.7666 5.46147 14.642 5.68455 14.4733 5.87225C14.3045 6.05996 14.0959 6.20753 13.8628 6.30414C13.6296 6.40075 13.3778 6.44396 13.1257 6.4306C12.8737 6.41724 12.6278 6.34764 12.4062 6.22692L11.8404 5.9169C8.6627 4.18854 5.18854 7.66464 6.91884 10.8404L7.22692 11.4062C7.34764 11.6278 7.41724 11.8737 7.4306 12.1257C7.44396 12.3778 7.40075 12.6296 7.30414 12.8628C7.20753 13.0959 7.05996 13.3045 6.87225 13.4733C6.68455 13.642 6.46147 13.7666 6.21936 13.8379L5.60126 14.02C2.13291 15.0412 2.13291 19.9588 5.60126 20.98L6.21936 21.1621C6.46147 21.2334 6.68455 21.358 6.87225 21.5267C7.05996 21.6955 7.20753 21.9041 7.30414 22.1372C7.40075 22.3704 7.44396 22.6222 7.4306 22.8743C7.41724 23.1263 7.34764 23.3722 7.22692 23.5938L6.9169 24.1596C5.18854 27.3373 8.6627 30.8134 11.8404 29.0812L12.4062 28.7731C12.6278 28.6524 12.8737 28.5828 13.1257 28.5694C13.3778 28.556 13.6296 28.5992 13.8628 28.6959C14.0959 28.7925 14.3045 28.94 14.4733 29.1277C14.642 29.3154 14.7666 29.5385 14.8379 29.7806L15.02 30.3987C16.0412 33.8671 20.9588 33.8671 21.98 30.3987L22.1621 29.7806C22.2334 29.5385 22.358 29.3154 22.5267 29.1277C22.6955 28.94 22.9041 28.7925 23.1372 28.6959C23.3704 28.5992 23.6222 28.556 23.8743 28.5694C24.1263 28.5828 24.3722 28.6524 24.5938 28.7731L25.1596 29.0831C28.3373 30.8134 31.8134 27.3354 30.0812 24.1596L29.7731 23.5938C29.6524 23.3722 29.5828 23.1263 29.5694 22.8743C29.556 22.6222 29.5992 22.3704 29.6959 22.1372C29.7925 21.9041 29.94 21.6955 30.1277 21.5267C30.3154 21.358 30.5385 21.2334 30.7806 21.1621L31.3987 20.98C34.8671 19.9588 34.8671 15.0412 31.3987 14.02L30.7806 13.8379C30.5385 13.7666 30.3154 13.642 30.1277 13.4733C29.94 13.3045 29.7925 13.0959 29.6959 12.8628C29.5992 12.6296 29.556 12.3778 29.5694 12.1257C29.5828 11.8737 29.6524 11.6278 29.7731 11.4062L30.0831 10.8404C31.8134 7.6627 28.3354 4.18854 25.1596 5.91884L24.5938 6.22692C24.3722 6.34764 24.1263 6.41724 23.8743 6.4306C23.6222 6.44396 23.3704 6.40075 23.1372 6.30414C22.9041 6.20753 22.6955 6.05996 22.5267 5.87225C22.358 5.68455 22.2334 5.46147 22.1621 5.21936L21.98 4.60126ZM16.8782 5.1496C17.3549 3.53169 19.6451 3.53169 20.1218 5.1496L20.3039 5.7677C20.457 6.28715 20.7245 6.76575 21.0866 7.16841C21.4487 7.57107 21.8964 7.88758 22.3967 8.09475C22.8971 8.30191 23.4374 8.39447 23.9782 8.36565C24.519 8.33682 25.0464 8.18733 25.5219 7.92815L26.0858 7.61813C27.5661 6.81402 29.186 8.43193 28.3799 9.91421L28.0718 10.48C27.8131 10.9555 27.6639 11.483 27.6354 12.0236C27.6069 12.5643 27.6997 13.1044 27.9071 13.6046C28.1144 14.1047 28.431 14.5521 28.8337 14.914C29.2363 15.2759 29.7149 15.5431 30.2342 15.6961L30.8504 15.8782C32.4683 16.3549 32.4683 18.6451 30.8504 19.1218L30.2323 19.3039C29.7128 19.457 29.2343 19.7245 28.8316 20.0866C28.4289 20.4487 28.1124 20.8964 27.9053 21.3967C27.6981 21.8971 27.6055 22.4374 27.6344 22.9782C27.6632 23.519 27.8127 24.0464 28.0718 24.5219L28.3819 25.0858C29.186 26.5661 27.5681 28.186 26.0858 27.3799L25.5219 27.0718C25.0463 26.8127 24.5187 26.6633 23.9778 26.6346C23.437 26.6059 22.8965 26.6986 22.3961 26.906C21.8958 27.1133 21.4481 27.4301 21.0861 27.8329C20.7241 28.2358 20.4568 28.7146 20.3039 29.2342L20.1218 29.8504C19.6451 31.4683 17.3549 31.4683 16.8782 29.8504L16.6961 29.2323C16.5429 28.7131 16.2755 28.2348 15.9135 27.8323C15.5515 27.4299 15.1041 27.1135 14.604 26.9063C14.1039 26.6992 13.5638 26.6066 13.0233 26.6352C12.4827 26.6638 11.9554 26.813 11.48 27.0718L10.9142 27.3819C9.43387 28.186 7.81402 26.5681 8.62007 25.0858L8.92815 24.5219C9.1877 24.0464 9.33748 23.5187 9.36649 22.9777C9.39551 22.4367 9.30303 21.8961 9.09584 21.3955C8.88865 20.8949 8.57201 20.447 8.16914 20.0848C7.76628 19.7225 7.28742 19.455 6.7677 19.302L6.1496 19.1199C4.53169 18.6432 4.53169 16.3529 6.1496 15.8763L6.7677 15.6941C7.28661 15.5409 7.76469 15.2736 8.16694 14.9117C8.5692 14.5498 8.88545 14.1026 9.09257 13.6028C9.29968 13.1029 9.3924 12.5631 9.36395 12.0228C9.33551 11.4825 9.18661 10.9553 8.92815 10.48L8.61813 9.91421C7.81402 8.43387 9.43193 6.81402 10.9142 7.62007L11.48 7.92815C11.9554 8.18697 12.4827 8.33616 13.0233 8.3648C13.5638 8.39344 14.1039 8.30079 14.604 8.09366C15.1041 7.88652 15.5515 7.57013 15.9135 7.16768C16.2755 6.76522 16.5429 6.28688 16.6961 5.7677L16.8782 5.1496Z" stroke="#178EE8" mask="url(#path-2-outside-1_241_2292)"/>
</svg>
