<svg width="75" height="75" viewBox="0 0 75 75" fill="none" xmlns="http://www.w3.org/2000/svg">
<g filter="url(#filter0_d_5673_37789)">
<rect x="9.39844" y="5.39999" width="56" height="56" rx="12" fill="url(#paint0_linear_5673_37789)" fill-opacity="0.9" shape-rendering="crispEdges"/>
<path d="M47.8984 28.9H26.8984C26.07 28.9 25.3984 28.2284 25.3984 27.4V24.4C25.3984 23.5716 26.07 22.9 26.8984 22.9H47.8984C48.7269 22.9 49.3984 23.5716 49.3984 24.4V27.4C49.3984 28.2284 48.7269 28.9 47.8984 28.9ZM45.6484 24.775C45.0271 24.775 44.5234 25.2787 44.5234 25.9C44.5234 26.5213 45.0271 27.025 45.6484 27.025C46.2698 27.025 46.7734 26.5213 46.7734 25.9C46.7734 25.2787 46.2698 24.775 45.6484 24.775ZM42.6484 24.775C42.0271 24.775 41.5234 25.2787 41.5234 25.9C41.5234 26.5213 42.0271 27.025 42.6484 27.025C43.2698 27.025 43.7734 26.5213 43.7734 25.9C43.7734 25.2787 43.2698 24.775 42.6484 24.775ZM47.8984 36.4H26.8984C26.07 36.4 25.3984 35.7284 25.3984 34.9V31.9C25.3984 31.0716 26.07 30.4 26.8984 30.4H47.8984C48.7269 30.4 49.3984 31.0716 49.3984 31.9V34.9C49.3984 35.7284 48.7269 36.4 47.8984 36.4ZM45.6484 32.275C45.0271 32.275 44.5234 32.7787 44.5234 33.4C44.5234 34.0213 45.0271 34.525 45.6484 34.525C46.2698 34.525 46.7734 34.0213 46.7734 33.4C46.7734 32.7787 46.2698 32.275 45.6484 32.275ZM42.6484 32.275C42.0271 32.275 41.5234 32.7787 41.5234 33.4C41.5234 34.0213 42.0271 34.525 42.6484 34.525C43.2698 34.525 43.7734 34.0213 43.7734 33.4C43.7734 32.7787 43.2698 32.275 42.6484 32.275ZM47.8984 43.9H26.8984C26.07 43.9 25.3984 43.2284 25.3984 42.4V39.4C25.3984 38.5716 26.07 37.9 26.8984 37.9H47.8984C48.7269 37.9 49.3984 38.5716 49.3984 39.4V42.4C49.3984 43.2284 48.7269 43.9 47.8984 43.9ZM45.6484 39.775C45.0271 39.775 44.5234 40.2787 44.5234 40.9C44.5234 41.5213 45.0271 42.025 45.6484 42.025C46.2698 42.025 46.7734 41.5213 46.7734 40.9C46.7734 40.2787 46.2698 39.775 45.6484 39.775ZM42.6484 39.775C42.0271 39.775 41.5234 40.2787 41.5234 40.9C41.5234 41.5213 42.0271 42.025 42.6484 42.025C43.2698 42.025 43.7734 41.5213 43.7734 40.9C43.7734 40.2787 43.2698 39.775 42.6484 39.775Z" fill="white"/>
</g>
<defs>
<filter id="filter0_d_5673_37789" x="-0.00156212" y="-5.72205e-06" width="74.8" height="74.8" filterUnits="userSpaceOnUse" color-interpolation-filters="sRGB">
<feFlood flood-opacity="0" result="BackgroundImageFix"/>
<feColorMatrix in="SourceAlpha" type="matrix" values="0 0 0 0 0 0 0 0 0 0 0 0 0 0 0 0 0 0 127 0" result="hardAlpha"/>
<feOffset dy="4"/>
<feGaussianBlur stdDeviation="4.7"/>
<feComposite in2="hardAlpha" operator="out"/>
<feColorMatrix type="matrix" values="0 0 0 0 0.52732 0 0 0 0 0.0901961 0 0 0 0 0.909804 0 0 0 0.33 0"/>
<feBlend mode="normal" in2="BackgroundImageFix" result="effect1_dropShadow_5673_37789"/>
<feBlend mode="normal" in="SourceGraphic" in2="effect1_dropShadow_5673_37789" result="shape"/>
</filter>
<linearGradient id="paint0_linear_5673_37789" x1="9.39844" y1="5.39999" x2="65.3984" y2="61.4" gradientUnits="userSpaceOnUse">
<stop stop-color="#9E74F8"/>
<stop offset="1" stop-color="#7E3FE2"/>
</linearGradient>
</defs>
</svg>
