<svg width="37" height="36" viewBox="0 0 37 36" fill="none" xmlns="http://www.w3.org/2000/svg">
<g clip-path="url(#clip0_190_1483)">
<path d="M31.834 10.5C32.2318 10.5 32.6133 10.658 32.8946 10.9393C33.176 11.2206 33.334 11.6022 33.334 12C33.334 12.3978 33.176 12.7794 32.8946 13.0607C32.6133 13.342 32.2318 13.5 31.834 13.5V28.5C32.2318 28.5 32.6133 28.658 32.8946 28.9393C33.176 29.2206 33.334 29.6022 33.334 30C33.334 30.3978 33.176 30.7794 32.8946 31.0607C32.6133 31.342 32.2318 31.5 31.834 31.5H4.83398C4.43616 31.5 4.05463 31.342 3.77332 31.0607C3.49202 30.7794 3.33398 30.3978 3.33398 30C3.33398 29.6022 3.49202 29.2206 3.77332 28.9393C4.05463 28.658 4.43616 28.5 4.83398 28.5V13.5C4.43616 13.5 4.05463 13.342 3.77332 13.0607C3.49202 12.7794 3.33398 12.3978 3.33398 12C3.33398 11.6022 3.49202 11.2206 3.77332 10.9393C4.05463 10.658 4.43616 10.5 4.83398 10.5H31.834ZM10.834 16.5C10.4362 16.5 10.0546 16.658 9.77332 16.9393C9.49202 17.2206 9.33398 17.6022 9.33398 18V28.5H12.334V18C12.334 17.6022 12.1759 17.2206 11.8946 16.9393C11.6133 16.658 11.2318 16.5 10.834 16.5ZM18.334 16.5C17.9362 16.5 17.5546 16.658 17.2733 16.9393C16.992 17.2206 16.834 17.6022 16.834 18V28.5H19.834V18C19.834 17.6022 19.6759 17.2206 19.3946 16.9393C19.1133 16.658 18.7318 16.5 18.334 16.5ZM25.834 16.5C25.4362 16.5 25.0546 16.658 24.7733 16.9393C24.492 17.2206 24.334 17.6022 24.334 18V28.5H27.334V18C27.334 17.6022 27.176 17.2206 26.8946 16.9393C26.6133 16.658 26.2318 16.5 25.834 16.5ZM27.334 6C27.7318 6 28.1133 6.15804 28.3946 6.43934C28.676 6.72064 28.834 7.10218 28.834 7.5C28.834 7.89782 28.676 8.27936 28.3946 8.56066C28.1133 8.84196 27.7318 9 27.334 9H9.33398C8.93616 9 8.55463 8.84196 8.27332 8.56066C7.99202 8.27936 7.83398 7.89782 7.83398 7.5C7.83398 7.10218 7.99202 6.72064 8.27332 6.43934C8.55463 6.15804 8.93616 6 9.33398 6H27.334Z" fill="#178EE8"/>
</g>
<defs>
<clipPath id="clip0_190_1483">
<rect width="36" height="36" fill="white" transform="translate(0.333984)"/>
</clipPath>
</defs>
</svg>
