<svg width="36" height="36" viewBox="0 0 36 36" fill="none" xmlns="http://www.w3.org/2000/svg">
<path d="M14.3655 8.32422L10.7234 13.218L7.11633 8.35938L1.47656 15.468L3.01922 16.6914L7.06008 11.5937L10.7234 16.5086L14.3655 11.6289L17.9937 16.5156L21.6288 11.6219L25.271 16.5156L28.9273 11.5937L32.9773 16.6914L34.5241 15.468L28.871 8.35938L25.271 13.2109L21.6288 8.33125L17.9937 13.2109L14.3655 8.32422ZM14.3655 19.3211L10.7234 24.1938L7.11633 19.3562L1.47938 26.4438L3.02062 27.6672L7.06711 22.5766L10.7234 27.4844L14.3655 22.6117L17.9937 27.4844L21.6288 22.6117L25.271 27.4844L28.9273 22.5766L32.9843 27.6672L34.5171 26.4438L28.871 19.3562L25.271 24.1938L21.6288 19.3211L17.9937 24.1938L14.3655 19.3211Z" fill="#178EE8"/>
</svg>
