<svg width="37" height="36" viewBox="0 0 37 36" fill="none" xmlns="http://www.w3.org/2000/svg">
<g clip-path="url(#clip0_190_1467)">
<path fill-rule="evenodd" clip-rule="evenodd" d="M9.66602 12C9.66602 9.61305 10.6142 7.32387 12.3021 5.63604C13.9899 3.94821 16.2791 3 18.666 3C21.053 3 23.3422 3.94821 25.03 5.63604C26.7178 7.32387 27.666 9.61305 27.666 12H29.166C29.9617 12 30.7247 12.3161 31.2873 12.8787C31.8499 13.4413 32.166 14.2044 32.166 15V30C32.166 30.7956 31.8499 31.5587 31.2873 32.1213C30.7247 32.6839 29.9617 33 29.166 33H8.16602C7.37037 33 6.6073 32.6839 6.0447 32.1213C5.48209 31.5587 5.16602 30.7956 5.16602 30V15C5.16602 14.2044 5.48209 13.4413 6.0447 12.8787C6.6073 12.3161 7.37037 12 8.16602 12H9.66602ZM18.666 6C20.2573 6 21.7834 6.63214 22.9087 7.75736C24.0339 8.88258 24.666 10.4087 24.666 12H12.666C12.666 10.4087 13.2982 8.88258 14.4234 7.75736C15.5486 6.63214 17.0747 6 18.666 6ZM21.666 21C21.666 21.5266 21.5274 22.0439 21.2641 22.5C21.0008 22.956 20.6221 23.3347 20.166 23.598V25.5C20.166 25.8978 20.008 26.2794 19.7267 26.5607C19.4454 26.842 19.0638 27 18.666 27C18.2682 27 17.8867 26.842 17.6054 26.5607C17.3241 26.2794 17.166 25.8978 17.166 25.5V23.598C16.5941 23.2678 16.1472 22.7581 15.8945 22.148C15.6418 21.5379 15.5975 20.8614 15.7684 20.2235C15.9393 19.5857 16.3159 19.022 16.8398 18.62C17.3637 18.218 18.0056 18 18.666 18C19.4617 18 20.2247 18.3161 20.7873 18.8787C21.3499 19.4413 21.666 20.2044 21.666 21Z" fill="#178EE8"/>
</g>
<defs>
<clipPath id="clip0_190_1467">
<rect width="36" height="36" fill="white" transform="translate(0.666016)"/>
</clipPath>
</defs>
</svg>
