<svg width="36" height="36" viewBox="0 0 36 36" fill="none" xmlns="http://www.w3.org/2000/svg">
<path d="M30 9C30 5.748 24.5055 3 18 3C11.4945 3 6 5.748 6 9V12C6 15.252 11.4945 18 18 18C24.5055 18 30 15.252 30 12V9ZM18 28.5C11.4945 28.5 6 25.752 6 22.5V27C6 30.252 11.4945 33 18 33C24.5055 33 30 30.252 30 27V22.5C30 25.752 24.5055 28.5 18 28.5Z" fill="#178EE8"/>
<path d="M30 15C30 18.252 24.5055 21 18 21C11.4945 21 6 18.252 6 15V19.5C6 22.752 11.4945 25.5 18 25.5C24.5055 25.5 30 22.752 30 19.5V15Z" fill="#178EE8"/>
</svg>
