<svg width="26" height="26" viewBox="0 0 26 26" fill="none" xmlns="http://www.w3.org/2000/svg">
<path d="M9.20833 14.0833C9.20833 10.205 12.3717 7.04167 16.25 7.04167C17.3117 7.04167 18.3192 7.28 19.2292 7.71333V5.41667C19.2292 3.77 17.8967 2.4375 16.25 2.4375H5.41667C3.77 2.4375 2.4375 3.77 2.4375 5.41667V20.5833C2.4375 22.23 3.77 23.5625 5.41667 23.5625H16.25C17.8967 23.5625 19.2292 22.23 19.2292 20.5833V20.4533C18.3192 20.8867 17.3117 21.125 16.25 21.125C12.3717 21.125 9.20833 17.9617 9.20833 14.0833ZM6.5 5.6875H11.9167C12.3608 5.6875 12.7292 6.05583 12.7292 6.5C12.7292 6.94417 12.3608 7.3125 11.9167 7.3125H6.5C6.05583 7.3125 5.6875 6.94417 5.6875 6.5C5.6875 6.05583 6.05583 5.6875 6.5 5.6875ZM7.58333 13.8125H6.5C6.05583 13.8125 5.6875 13.4442 5.6875 13C5.6875 12.5558 6.05583 12.1875 6.5 12.1875H7.58333C8.0275 12.1875 8.39583 12.5558 8.39583 13C8.39583 13.4442 8.0275 13.8125 7.58333 13.8125ZM6.5 10.5625C6.05583 10.5625 5.6875 10.1942 5.6875 9.75C5.6875 9.30583 6.05583 8.9375 6.5 8.9375H8.66667C9.11083 8.9375 9.47917 9.30583 9.47917 9.75C9.47917 10.1942 9.11083 10.5625 8.66667 10.5625H6.5ZM23.3242 18.9258L21.0123 16.614C21.4164 15.8557 21.6667 15.0031 21.6667 14.0844C21.6667 11.0933 19.2411 8.66775 16.25 8.66775C13.2589 8.66775 10.8333 11.0933 10.8333 14.0844C10.8333 17.0755 13.2589 19.5011 16.25 19.5011C17.7287 19.5011 19.0667 18.9053 20.0438 17.9443L22.1747 20.0753C22.3329 20.2334 22.5409 20.3136 22.7489 20.3136C22.9569 20.3136 23.1649 20.2345 23.3231 20.0753C23.6405 19.7578 23.6405 19.2432 23.3231 18.9258H23.3242ZM18.9052 13.6489L16.016 15.8253C15.8708 15.9348 15.6986 15.9889 15.5263 15.9889C15.353 15.9889 15.1807 15.9337 15.0356 15.8243L13.5915 14.7301C13.2329 14.4593 13.1625 13.9501 13.4333 13.5926C13.7052 13.2351 14.2155 13.1647 14.5719 13.4344L15.5274 14.157L17.9259 12.35C18.2845 12.0802 18.7937 12.1518 19.0645 12.5093C19.3342 12.8678 19.2627 13.377 18.9052 13.6478V13.6489Z" fill="#FF0088"/>
</svg>
