<svg width="56" height="56" viewBox="0 0 56 56" fill="none" xmlns="http://www.w3.org/2000/svg">
<rect width="56" height="56" rx="12" fill="url(#paint0_linear_241_1658)" fill-opacity="0.9"/>
<path d="M39.2507 30.25C39.2507 30.4489 39.1717 30.6397 39.031 30.7803C38.8904 30.921 38.6996 31 38.5007 31H37.0007V32.5C37.0007 32.6989 36.9217 32.8897 36.781 33.0303C36.6404 33.171 36.4496 33.25 36.2507 33.25C36.0518 33.25 35.861 33.171 35.7204 33.0303C35.5797 32.8897 35.5007 32.6989 35.5007 32.5V31H34.0007C33.8018 31 33.611 30.921 33.4704 30.7803C33.3297 30.6397 33.2507 30.4489 33.2507 30.25C33.2507 30.0511 33.3297 29.8603 33.4704 29.7197C33.611 29.579 33.8018 29.5 34.0007 29.5H35.5007V28C35.5007 27.8011 35.5797 27.6103 35.7204 27.4697C35.861 27.329 36.0518 27.25 36.2507 27.25C36.4496 27.25 36.6404 27.329 36.781 27.4697C36.9217 27.6103 37.0007 27.8011 37.0007 28V29.5H38.5007C38.6996 29.5 38.8904 29.579 39.031 29.7197C39.1717 29.8603 39.2507 30.0511 39.2507 30.25ZM21.2507 22.75H22.7507V24.25C22.7507 24.4489 22.8297 24.6397 22.9704 24.7803C23.111 24.921 23.3018 25 23.5007 25C23.6996 25 23.8904 24.921 24.031 24.7803C24.1717 24.6397 24.2507 24.4489 24.2507 24.25V22.75H25.7507C25.9496 22.75 26.1404 22.671 26.281 22.5303C26.4217 22.3897 26.5007 22.1989 26.5007 22C26.5007 21.8011 26.4217 21.6103 26.281 21.4697C26.1404 21.329 25.9496 21.25 25.7507 21.25H24.2507V19.75C24.2507 19.5511 24.1717 19.3603 24.031 19.2197C23.8904 19.079 23.6996 19 23.5007 19C23.3018 19 23.111 19.079 22.9704 19.2197C22.8297 19.3603 22.7507 19.5511 22.7507 19.75V21.25H21.2507C21.0518 21.25 20.861 21.329 20.7204 21.4697C20.5797 21.6103 20.5007 21.8011 20.5007 22C20.5007 22.1989 20.5797 22.3897 20.7204 22.5303C20.861 22.671 21.0518 22.75 21.2507 22.75ZM33.2507 34H32.5007V33.25C32.5007 33.0511 32.4217 32.8603 32.281 32.7197C32.1404 32.579 31.9496 32.5 31.7507 32.5C31.5518 32.5 31.361 32.579 31.2204 32.7197C31.0797 32.8603 31.0007 33.0511 31.0007 33.25V34H30.2507C30.0518 34 29.861 34.079 29.7204 34.2197C29.5797 34.3603 29.5007 34.5511 29.5007 34.75C29.5007 34.9489 29.5797 35.1397 29.7204 35.2803C29.861 35.421 30.0518 35.5 30.2507 35.5H31.0007V36.25C31.0007 36.4489 31.0797 36.6397 31.2204 36.7803C31.361 36.921 31.5518 37 31.7507 37C31.9496 37 32.1404 36.921 32.281 36.7803C32.4217 36.6397 32.5007 36.4489 32.5007 36.25V35.5H33.2507C33.4496 35.5 33.6404 35.421 33.781 35.2803C33.9217 35.1397 34.0007 34.9489 34.0007 34.75C34.0007 34.5511 33.9217 34.3603 33.781 34.2197C33.6404 34.079 33.4496 34 33.2507 34ZM36.561 23.5L23.5007 36.5603C23.2194 36.8414 22.8381 36.9993 22.4404 36.9993C22.0427 36.9993 21.6614 36.8414 21.3801 36.5603L19.4395 34.6216C19.3001 34.4823 19.1896 34.3169 19.1142 34.1349C19.0388 33.9529 19 33.7578 19 33.5608C19 33.3638 19.0388 33.1687 19.1142 32.9867C19.1896 32.8047 19.3001 32.6393 19.4395 32.5L32.5007 19.4397C32.64 19.3004 32.8054 19.1898 32.9874 19.1144C33.1694 19.039 33.3645 19.0002 33.5615 19.0002C33.7585 19.0002 33.9536 19.039 34.1356 19.1144C34.3176 19.1898 34.483 19.3004 34.6223 19.4397L36.561 21.3784C36.7003 21.5177 36.8109 21.6831 36.8863 21.8651C36.9617 22.0471 37.0005 22.2422 37.0005 22.4392C37.0005 22.6362 36.9617 22.8313 36.8863 23.0133C36.8109 23.1953 36.7003 23.3607 36.561 23.5ZM35.5007 22.4397L33.561 20.5L30.561 23.5L32.5007 25.4397L35.5007 22.4397Z" fill="white"/>
<defs>
<linearGradient id="paint0_linear_241_1658" x1="3.12425" y1="3.13739" x2="54.3643" y2="37.6734" gradientUnits="userSpaceOnUse">
<stop offset="0.168198" stop-color="#5FBAFD"/>
<stop offset="0.984375" stop-color="#2B6CEB"/>
</linearGradient>
</defs>
</svg>
