<svg width="50" height="88" viewBox="0 0 50 88" fill="none" xmlns="http://www.w3.org/2000/svg">
<path d="M43.7792 5.22807C46.6832 3.55607 49.0592 4.89367 49.0592 8.22007L49.2 58.0281C49.2176 61.3545 46.8592 65.4201 43.9552 67.0921L11.624 85.7656C8.72 87.4376 6.3616 86.1 6.3616 82.7736L6.2208 32.9657C6.2032 29.6217 8.544 25.5737 11.448 23.9017L43.7792 5.22807Z" fill="#09243F"/>
<path d="M49.1998 58.0281C49.2174 61.3545 46.859 65.4201 43.955 67.0921L11.6238 85.7656C8.71977 87.4376 6.36137 86.1 6.36137 82.7736L6.32617 75.0649C8.79017 75.8569 11.3774 76.2616 14.0174 76.2616C31.195 76.2616 45.099 58.6617 45.099 36.9257C45.099 26.2777 41.7726 16.6153 36.3166 9.54007L43.779 5.22807C46.683 3.55607 49.0414 4.89367 49.059 8.22007L49.1998 58.0281Z" fill="#09243F"/>
<path fill-rule="evenodd" clip-rule="evenodd" d="M9.26618 87.0142C8.66778 87.0142 8.12218 86.8734 7.62938 86.5918C6.46778 85.923 5.83418 84.5678 5.81658 82.7726L5.67578 32.9646C5.67578 29.4622 8.13978 25.1854 11.1846 23.443L43.5158 4.76937C45.0998 3.85417 46.6134 3.71337 47.7926 4.39977C48.9542 5.05097 49.5878 6.42379 49.5878 8.21899L49.7286 58.027C49.7462 61.5118 47.2822 65.7886 44.2198 67.5486L11.8886 86.2222C10.9734 86.7502 10.0758 87.0142 9.26618 87.0142ZM46.1382 5.03337C45.5222 5.03337 44.8006 5.24458 44.0614 5.68458L11.7126 24.3582C8.96698 25.9422 6.73178 29.7966 6.74938 32.9646L6.89018 82.755C6.89018 84.163 7.34778 85.2014 8.15738 85.6766C8.98458 86.1518 10.111 86.011 11.3606 85.307L43.6918 66.6334C46.455 65.0494 48.6726 61.1774 48.6726 58.027L48.5318 8.21899C48.5318 6.81099 48.0742 5.79019 47.247 5.31499C46.9302 5.12139 46.5606 5.03337 46.1382 5.03337Z" fill="#00D4FF"/>
<path d="M0.887108 29.852L1.02791 79.66C1.02791 81.3144 1.62631 82.4936 2.54151 83.0392L7.89191 86.1368C6.94151 85.5912 6.36071 84.4296 6.36071 82.7752L6.20231 32.9672C6.20231 31.3128 6.78311 29.5 7.69831 27.8808L2.36551 24.8008C1.45031 26.42 0.869508 28.2328 0.887108 29.852Z" fill="#00D4FF"/>
<path fill-rule="evenodd" clip-rule="evenodd" d="M7.89259 86.6635C7.79872 86.6635 7.71072 86.6401 7.62859 86.5931C7.61685 86.5814 7.60512 86.5755 7.59339 86.5755L2.27819 83.4955C1.13419 82.8091 0.500587 81.4539 0.482987 79.6763L0.359788 29.8507C0.342188 28.1963 0.887788 26.2955 1.90859 24.5355C1.97899 24.4123 2.08459 24.3243 2.22539 24.2715C2.36619 24.2363 2.50699 24.2539 2.63019 24.3243L7.96299 27.4219C8.20939 27.5803 8.29739 27.8971 8.15659 28.1435C7.24139 29.7627 6.73099 31.4699 6.73099 32.9659L6.88939 82.7739C6.88939 84.1643 7.32939 85.1851 8.13899 85.6603H8.15659C8.40299 85.8187 8.49099 86.1355 8.35019 86.3995C8.24459 86.5579 8.06859 86.6635 7.89259 86.6635ZM2.57739 25.5211C1.82059 26.9995 1.41579 28.5131 1.41579 29.8507L1.55659 79.6587C1.57419 81.0667 2.01419 82.1051 2.82378 82.5803L6.04459 84.4459C5.90379 83.9414 5.83339 83.384 5.83339 82.7739L5.67499 32.9659C5.67499 31.4347 6.13259 29.7275 6.97739 28.0907L2.57739 25.5211Z" fill="#00D4FF"/>
<path d="M42.2136 1.75989C41.2456 1.21429 39.9256 1.28469 38.4648 2.12949L6.11599 20.8031C4.63759 21.6479 3.31759 23.1087 2.36719 24.7983L7.69999 27.8783C8.65039 26.2063 9.97038 24.7455 11.4488 23.9007L43.78 5.2271C45.2408 4.3823 46.5784 4.29429 47.5288 4.85749L42.2136 1.75989Z" fill="#00D4FF"/>
<path fill-rule="evenodd" clip-rule="evenodd" d="M7.69936 28.4241C7.60549 28.4241 7.51749 28.4006 7.43536 28.3537L2.10256 25.2561C1.83856 25.0977 1.76816 24.7809 1.90896 24.5345C2.94736 22.6865 4.35536 21.2081 5.85136 20.3457L38.2002 1.67208C39.749 0.756877 41.3154 0.633681 42.477 1.30248L47.7922 4.40008C48.0562 4.54088 48.1442 4.85767 47.9858 5.12167C47.845 5.36807 47.5106 5.45609 47.2642 5.31529C46.4546 4.84009 45.2754 4.98089 44.0434 5.68489L11.7122 24.3585C10.3746 25.1329 9.10736 26.4705 8.15696 28.1425C8.08656 28.2657 7.98095 28.3537 7.84015 28.4065C7.79322 28.4182 7.74629 28.4241 7.69936 28.4241ZM3.10575 24.6049L7.50575 27.1569C8.50895 25.5377 9.81135 24.2353 11.1842 23.4433L43.5154 4.76967C44.0786 4.43527 44.6242 4.22409 45.1522 4.08329L41.949 2.21767C41.1218 1.74247 39.9426 1.88329 38.7282 2.58729L6.37936 21.2609C5.16496 21.9649 4.02095 23.1441 3.10575 24.6049Z" fill="#00D4FF"/>
<path d="M36.7037 3.88784C38.0765 3.09584 39.2029 3.72945 39.2029 5.31345L39.2205 13.3566C39.2381 14.9406 38.1117 16.8591 36.7389 17.6511L19.9309 27.3662C18.5757 28.1582 17.4493 27.507 17.4493 25.9406L17.4141 17.8798C17.4141 16.3134 18.5229 14.3951 19.8957 13.6031L36.7037 3.88784Z" fill="#09243F"/>
<path fill-rule="evenodd" clip-rule="evenodd" d="M18.8227 28.2295C18.5059 28.2295 18.1891 28.1591 17.9075 28.0007C17.2739 27.6311 16.9219 26.8919 16.9043 25.9415L16.8867 17.8807C16.8867 16.1207 18.0835 14.0263 19.6323 13.1463L36.4403 3.43106C37.2851 2.95586 38.0947 2.88546 38.7459 3.25506C39.3795 3.62466 39.7315 4.34627 39.7315 5.31427L39.7667 13.3575C39.7667 15.1351 38.5523 17.2295 37.0035 18.1271L20.1955 27.8247C19.7203 28.1063 19.2627 28.2295 18.8227 28.2295ZM37.8307 4.08227C37.5843 4.08227 37.2851 4.17026 36.9683 4.36386L20.1603 14.0615C18.9635 14.7479 17.9427 16.5079 17.9603 17.8807L17.9779 25.9415C17.9779 26.4871 18.1539 26.9095 18.4355 27.0679C18.7347 27.2439 19.1923 27.1911 19.6675 26.9095L36.4755 17.1943C37.6899 16.5079 38.6931 14.7479 38.6931 13.3575L38.6755 5.31427C38.6755 4.76867 38.4995 4.34626 38.2179 4.18786C38.1006 4.11746 37.9715 4.08227 37.8307 4.08227Z" fill="#00D4FF"/>
<path d="M14.0176 15.9127L14.0528 23.9735C14.0528 24.7479 14.3344 25.3111 14.7744 25.5751L18.1712 27.5463C17.7136 27.2823 17.4496 26.7191 17.4496 25.9447L17.4144 17.8839C17.4144 17.2327 17.6256 16.5111 17.9424 15.8423L14.5632 13.8711C14.2288 14.5399 14.0176 15.2615 14.0176 15.9127Z" fill="#09243F"/>
<path fill-rule="evenodd" clip-rule="evenodd" d="M18.1718 28.0724C18.0897 28.0724 18.0017 28.049 17.9078 28.002L14.511 26.0308C13.8774 25.6612 13.5254 24.9044 13.5254 23.9716L13.4902 15.9108C13.4902 15.2068 13.7014 14.4148 14.071 13.6228C14.1414 13.4996 14.2646 13.394 14.4054 13.3588C14.5462 13.306 14.7046 13.3236 14.8278 13.394L18.207 15.3652C18.4534 15.506 18.5414 15.8228 18.4182 16.0692C18.119 16.7028 17.943 17.3364 17.943 17.882L17.9782 25.9428C17.9782 26.506 18.1366 26.9108 18.4358 27.0868H18.4534C18.6998 27.2276 18.7878 27.5444 18.647 27.8084C18.5414 27.9844 18.3654 28.0724 18.1718 28.0724ZM14.5638 15.9108L14.5814 23.9716C14.5814 24.5172 14.7574 24.9396 15.0566 25.1156L16.9222 26.1892C16.9105 26.1071 16.9046 26.025 16.9046 25.9428L16.887 17.8996C16.887 17.3188 17.0102 16.6852 17.2742 16.0516L14.8102 14.626C14.6518 15.0836 14.5638 15.5236 14.5638 15.9108Z" fill="#00D4FF"/>
<path d="M35.0841 1.75893C34.6265 1.49493 34.0105 1.53013 33.3065 1.93493L16.4985 11.6325C15.7065 12.0901 15.0025 12.9349 14.5625 13.8677L17.9417 15.8389C18.3993 14.9061 19.1033 14.0613 19.8953 13.6037L36.7033 3.88853C37.3897 3.50133 38.0233 3.46614 38.4809 3.73014L35.0841 1.75893Z" fill="#00D4FF"/>
<path fill-rule="evenodd" clip-rule="evenodd" d="M17.9417 16.3681C17.8479 16.3681 17.7599 16.3447 17.6777 16.2977L14.2809 14.3265C14.0521 14.1857 13.9641 13.8865 14.0697 13.6225C14.5977 12.5489 15.3897 11.6513 16.2345 11.1585L33.0425 1.47855C33.8873 0.985747 34.7145 0.915352 35.3481 1.28495C35.3599 1.28495 35.3657 1.29081 35.3657 1.30255L38.7449 3.27374C39.0089 3.41454 39.0793 3.73136 38.9385 3.99536C38.7977 4.24176 38.4633 4.32975 38.2169 4.18895C37.9177 4.01295 37.4601 4.06576 36.9673 4.34736L20.1593 14.0625C19.4905 14.4497 18.8569 15.1714 18.4169 16.069C18.3641 16.1922 18.2409 16.2977 18.1001 16.3505C18.0532 16.3623 18.0004 16.3681 17.9417 16.3681ZM15.2665 13.6577L17.7305 15.101C18.2409 14.2562 18.9097 13.5521 19.6313 13.1297L36.4393 3.43214C36.5215 3.38521 36.6036 3.34415 36.6857 3.30895L34.8201 2.21774C34.5209 2.04174 34.0809 2.11214 33.5881 2.39374L16.7625 12.0914C16.1993 12.4082 15.6713 12.9713 15.2665 13.6577Z" fill="#00D4FF"/>
<path d="M24.0663 16.3347C24.4183 16.1411 24.7351 16.0883 24.9991 16.1587C25.3511 16.2643 25.5975 16.6339 25.5975 17.2147C25.5975 18.1827 24.9111 19.3443 24.0839 19.8371C23.2391 20.3299 22.5527 19.9427 22.5527 18.9747C22.5527 18.3939 22.7815 17.7603 23.1335 17.2323C23.3975 16.8627 23.7143 16.5283 24.0663 16.3347Z" fill="#00D4FF"/>
<path d="M32.5683 11.4206C32.9203 11.227 33.2371 11.1742 33.5011 11.2446C33.8707 11.3502 34.0995 11.7198 34.0995 12.3006C34.0995 13.2686 33.4307 14.4302 32.5859 14.923C31.7411 15.4158 31.0547 15.011 31.0547 14.043C31.0547 13.4798 31.2835 12.8462 31.6531 12.3182C31.8995 11.9486 32.2163 11.6142 32.5683 11.4206Z" fill="#00D4FF"/>
<path d="M14.5639 38.8264C14.3703 38.8264 14.1943 38.7384 14.0887 38.5624C13.9479 38.2984 14.0359 37.9816 14.2823 37.8408L41.7735 21.9656C42.0199 21.8248 42.3543 21.9128 42.4951 22.1592C42.6535 22.4056 42.5655 22.74 42.3015 22.8808L14.8279 38.756C14.734 38.803 14.646 38.8264 14.5639 38.8264Z" fill="#00D4FF"/>
<path d="M14.5639 47.9788C14.3703 47.9788 14.1943 47.8908 14.0887 47.7148C13.9479 47.4684 14.0359 47.134 14.2823 46.9932L41.7735 31.118C42.0199 30.9772 42.3543 31.0652 42.4951 31.3116C42.6535 31.5756 42.5655 31.8924 42.3015 32.0508L14.8279 47.9084C14.734 47.9553 14.646 47.9788 14.5639 47.9788Z" fill="#00D4FF"/>
<path d="M14.5639 57.1468C14.3703 57.1468 14.1943 57.0412 14.0887 56.8828C13.9479 56.6188 14.0359 56.3019 14.2823 56.1435L41.7735 40.286C42.0199 40.1276 42.3543 40.2331 42.4951 40.4795C42.6535 40.7259 42.5655 41.0603 42.3015 41.2011L14.8279 57.0764C14.734 57.1233 14.646 57.1468 14.5639 57.1468Z" fill="#00D4FF"/>
<path d="M14.5639 66.2991C14.3703 66.2991 14.1943 66.2111 14.0887 66.0351C13.9479 65.7887 14.0359 65.4543 14.2823 65.3135L41.7735 49.4383C42.0199 49.2975 42.3543 49.3855 42.4951 49.6319C42.6535 49.8959 42.5655 50.2127 42.3015 50.3711L14.8279 66.2287C14.734 66.2756 14.646 66.2991 14.5639 66.2991Z" fill="#00D4FF"/>
<path d="M14.5639 75.4709C14.3703 75.4709 14.1943 75.3653 14.0887 75.2069C13.9479 74.9429 14.0359 74.6261 14.2823 74.4677L41.7735 58.6101C42.0199 58.4693 42.3543 58.5397 42.4951 58.8037C42.6535 59.0501 42.5655 59.3845 42.3015 59.5253L14.8279 75.4005C14.734 75.4475 14.646 75.4709 14.5639 75.4709Z" fill="#00D4FF"/>
<path d="M28.2552 34.8102C34.908 30.9734 40.3288 34.0534 40.364 41.7094C40.3816 49.3654 34.996 58.6934 28.3432 62.5302C21.6728 66.3846 16.252 63.3046 16.2344 55.6486C16.2168 47.9926 21.6024 38.6646 28.2552 34.8102Z" fill="#00D4FF"/>
<path d="M40.3653 41.7096C40.3829 49.3656 34.9973 58.6936 28.3445 62.5304C22.8885 65.6808 18.2773 64.1848 16.7461 59.3624C18.1717 59.7496 19.6677 59.9608 21.2165 59.9608C30.2629 59.9608 37.5845 52.8328 37.5845 44.0152C37.5845 39.844 35.9301 36.0248 33.2021 33.1736C37.4085 32.9272 40.3477 36.0776 40.3653 41.7096Z" fill="#00D4FF"/>
<path fill-rule="evenodd" clip-rule="evenodd" d="M22.9232 64.731C21.6736 64.731 20.5296 64.4318 19.5088 63.851C17.0624 62.443 15.7072 59.5214 15.7072 55.6494C15.672 47.835 21.1984 38.2782 27.992 34.3534C31.3888 32.3822 34.6272 32.083 37.0912 33.5086C39.52 34.9166 40.8752 37.8206 40.8928 41.7102C40.9104 49.5246 35.4016 59.0638 28.608 62.9886C26.6016 64.1502 24.6832 64.731 22.9232 64.731ZM33.6592 33.6846C32.0928 33.6846 30.3504 34.2302 28.52 35.2686C22.0256 39.035 16.7456 48.1694 16.7632 55.6494C16.7808 59.1342 17.9424 61.7214 20.0368 62.9358C22.1488 64.1502 25 63.851 28.08 62.0734C34.5744 58.3246 39.8544 49.1902 39.8192 41.7102C39.8192 38.2254 38.6576 35.6382 36.5456 34.4238C35.7008 33.931 34.7328 33.6846 33.6592 33.6846Z" fill="#00D4FF"/>
<path d="M28.2724 40.6888C32.1092 38.4712 35.242 40.2488 35.2596 44.6664C35.2596 49.0664 32.162 54.452 28.3252 56.6696C24.4708 58.8872 21.3556 57.1096 21.338 52.692C21.3204 48.2744 24.4356 42.9064 28.2724 40.6888Z" fill="#09243F"/>
<path fill-rule="evenodd" clip-rule="evenodd" d="M25.193 58.1661C24.4362 58.1661 23.7322 57.9725 23.1162 57.6205C21.6378 56.7757 20.8106 55.0157 20.8106 52.6925C20.793 48.1165 24.0314 42.5197 28.009 40.2317C30.0506 39.0525 31.9866 38.8765 33.4826 39.7389C34.961 40.5837 35.7706 42.3261 35.7882 44.6669C35.8058 49.2429 32.5674 54.8221 28.5898 57.1277C27.393 57.8141 26.249 58.1661 25.193 58.1661ZM28.537 41.1469C24.841 43.2765 21.849 48.4509 21.8666 52.6925C21.8666 54.6285 22.5002 56.0365 23.6442 56.7053C24.7882 57.3565 26.3546 57.1805 28.0442 56.2125C31.7402 54.0829 34.7322 48.8909 34.7146 44.6669C34.7146 42.7309 34.081 41.3053 32.937 40.6541C31.793 40.0029 30.2266 40.1613 28.537 41.1469Z" fill="#00D4FF"/>
<path d="M25.3164 51.0177L27.5692 51.5105L30.4908 44.6289" fill="#09243F"/>
<path d="M27.5687 52.0399C27.5335 52.0399 27.4983 52.034 27.4631 52.0223L25.2103 51.5471C24.9287 51.4767 24.7351 51.1951 24.8055 50.9135C24.8583 50.6319 25.1399 50.4559 25.4215 50.5087L27.2519 50.8959L29.9975 44.4191C30.1207 44.1375 30.4199 44.0143 30.7015 44.1375C30.9655 44.2431 31.0887 44.5599 30.9831 44.8239L28.0615 51.7055C27.9735 51.9167 27.7799 52.0399 27.5687 52.0399Z" fill="#00D4FF"/>
</svg>
