<svg width="56" height="57" viewBox="0 0 56 57" fill="none" xmlns="http://www.w3.org/2000/svg">
<rect y="0.5" width="56" height="56" rx="12" fill="url(#paint0_linear_241_1848)" fill-opacity="0.9"/>
<path d="M26.758 31.692C27.0593 31.9933 27.4527 32.1317 27.938 32.107C28.4247 32.0817 28.784 31.91 29.016 31.592L34.269 24.269L26.908 29.485C26.5773 29.7077 26.391 30.0527 26.349 30.52C26.307 30.9873 26.4433 31.378 26.758 31.692ZM21.1 35.5C20.9133 35.5 20.7427 35.453 20.588 35.359C20.4333 35.2643 20.3027 35.1357 20.196 34.973C19.8013 34.2923 19.5033 33.573 19.302 32.815C19.1007 32.057 19 31.2853 19 30.5C19 29.2573 19.2367 28.0887 19.71 26.994C20.184 25.8993 20.8263 24.947 21.637 24.137C22.447 23.3257 23.3993 22.6833 24.494 22.21C25.5887 21.7367 26.7573 21.5 28 21.5C29.2387 21.5 30.4003 21.7327 31.485 22.198C32.5697 22.6633 33.5203 23.297 34.337 24.099C35.1537 24.901 35.7997 25.84 36.275 26.916C36.7503 27.992 36.9903 29.1493 36.995 30.388C36.9983 31.2147 36.9003 32.0177 36.701 32.797C36.5017 33.5763 36.2007 34.3273 35.798 35.05C35.7047 35.2127 35.5773 35.3283 35.416 35.397C35.2553 35.4657 35.0813 35.5 34.894 35.5H21.1Z" fill="white"/>
<defs>
<linearGradient id="paint0_linear_241_1848" x1="33.1852" y1="-9.68736" x2="45.6036" y2="54.0816" gradientUnits="userSpaceOnUse">
<stop offset="0.168198" stop-color="#FF9DC8"/>
<stop offset="0.984375" stop-color="#EB2B7E"/>
</linearGradient>
</defs>
</svg>
