<svg width="56" height="56" viewBox="0 0 56 56" fill="none" xmlns="http://www.w3.org/2000/svg">
<rect width="56" height="56" rx="12" fill="url(#paint0_linear_241_1817)" fill-opacity="0.9"/>
<path d="M27.399 34.1607L34.795 26.7647C33.5507 26.2452 32.4206 25.4861 31.469 24.5307C30.5132 23.5789 29.7538 22.4485 29.234 21.2037L21.838 28.5997C21.261 29.1767 20.972 29.4657 20.724 29.7837C20.4311 30.159 20.18 30.5651 19.975 30.9947C19.802 31.3587 19.673 31.7467 19.415 32.5207L18.053 36.6037C17.9904 36.7907 17.9811 36.9914 18.0262 37.1833C18.0713 37.3753 18.1691 37.5508 18.3085 37.6903C18.4479 37.8297 18.6235 37.9274 18.8154 37.9726C19.0074 38.0177 19.2081 38.0084 19.395 37.9457L23.478 36.5837C24.253 36.3257 24.64 36.1967 25.004 36.0237C25.434 35.8187 25.84 35.5677 26.215 35.2747C26.533 35.0267 26.822 34.7377 27.399 34.1607ZM36.847 24.7127C37.5845 23.9753 37.9988 22.9751 37.9988 21.9322C37.9988 20.8893 37.5845 19.8892 36.847 19.1517C36.1096 18.4143 35.1094 18 34.0665 18C33.0237 18 32.0235 18.4143 31.286 19.1517L30.399 20.0387L30.437 20.1497C30.8742 21.4004 31.5895 22.5356 32.529 23.4697C33.4911 24.4374 34.666 25.1668 35.96 25.5997L36.847 24.7127Z" fill="white"/>
<defs>
<linearGradient id="paint0_linear_241_1817" x1="33.1852" y1="-10.1874" x2="45.6036" y2="53.5816" gradientUnits="userSpaceOnUse">
<stop offset="0.168198" stop-color="#FF9DC8"/>
<stop offset="0.984375" stop-color="#EB2B7E"/>
</linearGradient>
</defs>
</svg>
