<svg width="36" height="36" viewBox="0 0 36 36" fill="none" xmlns="http://www.w3.org/2000/svg">
<path d="M29.9945 15.9315V28.5C29.9945 29.2956 29.6784 30.0587 29.1158 30.6213C28.5532 31.1839 27.7901 31.5 26.9945 31.5H9.0065C8.21111 31.4996 7.44843 31.1834 6.88615 30.6208C6.32386 30.0582 6.008 29.2954 6.008 28.5V15.9315M11.2535 13.125L12.0035 4.5M11.2535 13.125C11.2535 17.478 18.0005 17.478 18.0005 13.125M11.2535 13.125C11.2535 17.889 3.521 16.905 4.604 12.753L6.1715 6.7425C6.33902 6.10054 6.71462 5.53223 7.23953 5.12647C7.76444 4.72071 8.40904 4.5004 9.0725 4.5H26.9285C27.592 4.5004 28.2366 4.72071 28.7615 5.12647C29.2864 5.53223 29.662 6.10054 29.8295 6.7425L31.397 12.753C32.48 16.9065 24.7475 17.889 24.7475 13.125M18.0005 13.125V4.5M18.0005 13.125C18.0005 17.478 24.7475 17.478 24.7475 13.125M24.7475 13.125L23.9975 4.5" stroke="#178EE8" stroke-width="3" stroke-linecap="round" stroke-linejoin="round"/>
</svg>
