<svg width="56" height="56" viewBox="0 0 56 56" fill="none" xmlns="http://www.w3.org/2000/svg">
<rect width="56" height="56" rx="12" fill="url(#paint0_linear_241_1702)" fill-opacity="0.9"/>
<path d="M35.4434 26.7875C35.3867 26.9245 35.2906 27.0417 35.1672 27.1241C35.0439 27.2065 34.8989 27.2506 34.7506 27.2506H28.7506V36.2506C28.7506 36.4495 28.6716 36.6403 28.5309 36.7809C28.3903 36.9216 28.1995 37.0006 28.0006 37.0006C27.8017 37.0006 27.6109 36.9216 27.4703 36.7809C27.3296 36.6403 27.2506 36.4495 27.2506 36.2506V27.2506H21.2506C21.1022 27.2507 20.957 27.2068 20.8336 27.1244C20.7102 27.042 20.6139 26.9248 20.5571 26.7877C20.5003 26.6506 20.4855 26.4997 20.5144 26.3541C20.5434 26.2085 20.615 26.0749 20.72 25.97L27.47 19.22C27.5396 19.1502 27.6223 19.0949 27.7134 19.0572C27.8044 19.0194 27.902 19 28.0006 19C28.0992 19 28.1967 19.0194 28.2878 19.0572C28.3788 19.0949 28.4616 19.1502 28.5312 19.22L35.2812 25.97C35.3861 26.0749 35.4574 26.2086 35.4863 26.3541C35.5152 26.4996 35.5003 26.6504 35.4434 26.7875Z" fill="white"/>
<defs>
<linearGradient id="paint0_linear_241_1702" x1="3.12425" y1="3.13739" x2="54.3643" y2="37.6734" gradientUnits="userSpaceOnUse">
<stop offset="0.168198" stop-color="#5FBAFD"/>
<stop offset="0.984375" stop-color="#2B6CEB"/>
</linearGradient>
</defs>
</svg>
