<svg width="37" height="36" viewBox="0 0 37 36" fill="none" xmlns="http://www.w3.org/2000/svg">
<path d="M29.584 15.75C30.1807 15.75 30.753 15.5129 31.175 15.091C31.5969 14.669 31.834 14.0967 31.834 13.5V6.75C31.834 6.15326 31.5969 5.58097 31.175 5.15901C30.753 4.73705 30.1807 4.5 29.584 4.5H22.834C22.2373 4.5 21.665 4.73705 21.243 5.15901C20.8211 5.58097 20.584 6.15326 20.584 6.75V13.5C20.584 14.0967 20.8211 14.669 21.243 15.091C21.665 15.5129 22.2373 15.75 22.834 15.75H25.084V20.3625C24.003 20.583 23.0107 21.1165 22.2306 21.8966C21.4504 22.6767 20.917 23.669 20.6965 24.75H16.084V22.5C16.084 21.9033 15.8469 21.331 15.425 20.909C15.003 20.4871 14.4307 20.25 13.834 20.25H11.584V15.6375C12.9498 15.3587 14.1634 14.5827 14.9896 13.46C15.8158 12.3372 16.1956 10.9477 16.0555 9.56079C15.9154 8.17388 15.2653 6.88841 14.2313 5.95357C13.1973 5.01874 11.853 4.50115 10.459 4.50115C9.06504 4.50115 7.72073 5.01874 6.6867 5.95357C5.65267 6.88841 5.00259 8.17388 4.86248 9.56079C4.72238 10.9477 5.10223 12.3372 5.9284 13.46C6.75457 14.5827 7.9682 15.3587 9.334 15.6375V20.25H7.084C6.48726 20.25 5.91496 20.4871 5.49301 20.909C5.07105 21.331 4.834 21.9033 4.834 22.5V29.25C4.834 29.8467 5.07105 30.419 5.49301 30.841C5.91496 31.2629 6.48726 31.5 7.084 31.5H13.834C14.4307 31.5 15.003 31.2629 15.425 30.841C15.8469 30.419 16.084 29.8467 16.084 29.25V27H20.6965C20.9 27.9955 21.3693 28.9173 22.0547 29.6675C22.74 30.4177 23.6158 30.9682 24.5889 31.2606C25.562 31.553 26.5962 31.5764 27.5815 31.3282C28.5668 31.08 29.4665 30.5695 30.185 29.851C30.9035 29.1325 31.414 28.2328 31.6622 27.2475C31.9104 26.2622 31.887 25.228 31.5946 24.2549C31.3022 23.2818 30.7517 22.406 30.0015 21.7207C29.2513 21.0353 28.3295 20.566 27.334 20.3625V15.75H29.584ZM7.084 10.125C7.084 9.45749 7.28194 8.80497 7.65279 8.24995C8.02364 7.69493 8.55074 7.26235 9.16744 7.00691C9.78414 6.75146 10.4627 6.68462 11.1174 6.81485C11.7721 6.94508 12.3735 7.26651 12.8455 7.73851C13.3175 8.21052 13.6389 8.81188 13.7691 9.46657C13.8994 10.1213 13.8325 10.7999 13.5771 11.4166C13.3216 12.0333 12.8891 12.5604 12.334 12.9312C11.779 13.3021 11.1265 13.5 10.459 13.5C9.56389 13.5 8.70545 13.1444 8.07251 12.5115C7.43958 11.8786 7.084 11.0201 7.084 10.125ZM13.834 29.25H7.084V22.5H13.834V29.25ZM29.584 25.875C29.584 26.5425 29.3861 27.195 29.0152 27.75C28.6444 28.3051 28.1173 28.7376 27.5006 28.9931C26.8839 29.2485 26.2053 29.3154 25.5506 29.1852C24.8959 29.0549 24.2945 28.7335 23.8225 28.2615C23.3505 27.7895 23.0291 27.1881 22.8988 26.5334C22.7686 25.8787 22.8355 25.2001 23.0909 24.5834C23.3463 23.9667 23.7789 23.4396 24.3339 23.0688C24.889 22.6979 25.5415 22.5 26.209 22.5C27.1041 22.5 27.9625 22.8556 28.5955 23.4885C29.2284 24.1214 29.584 24.9799 29.584 25.875ZM22.834 6.75H29.584V13.5H22.834V6.75Z" fill="#178EE8"/>
</svg>
