<svg width="37" height="36" viewBox="0 0 37 36" fill="none" xmlns="http://www.w3.org/2000/svg">
<path d="M4.91602 22.5V22.75H5.16602H7.91602V24C7.91602 25.2598 8.41646 26.468 9.30726 27.3588C10.1981 28.2496 11.4062 28.75 12.666 28.75H13.916V31.5V31.75H14.166H15.666H15.916V31.5V28.75H19.916V31.5V31.75H20.166H21.666H21.916V31.5V28.75H23.166C24.4258 28.75 25.634 28.2496 26.5248 27.3588C27.4156 26.468 27.916 25.2598 27.916 24V22.75H30.666H30.916V22.5V21V20.75H30.666H27.916V16.75H30.666H30.916V16.5V15V14.75H30.666H27.916V13.5C27.916 12.2402 27.4156 11.032 26.5248 10.1412C25.634 9.25044 24.4258 8.75 23.166 8.75H21.916V6V5.75H21.666H20.166H19.916V6V8.75H15.916V6V5.75H15.666H14.166H13.916V6V8.75H12.666C11.4062 8.75 10.1981 9.25045 9.30726 10.1412C8.41646 11.032 7.91602 12.2402 7.91602 13.5V14.75H5.16602H4.91602V15V16.5V16.75H5.16602H7.91602V20.75H5.16602H4.91602V21V22.5ZM13.916 22.5V22.75H14.166H21.666H21.916V22.5V15V14.75H21.666H14.166H13.916V15V22.5ZM10.7215 11.5555C11.2372 11.0397 11.9367 10.75 12.666 10.75H23.166C23.8954 10.75 24.5948 11.0397 25.1106 11.5555C25.6263 12.0712 25.916 12.7707 25.916 13.5V24C25.916 24.7293 25.6263 25.4288 25.1106 25.9445C24.5948 26.4603 23.8954 26.75 23.166 26.75H12.666C11.9367 26.75 11.2372 26.4603 10.7215 25.9445C10.2057 25.4288 9.91602 24.7293 9.91602 24V13.5C9.91602 12.7707 10.2057 12.0712 10.7215 11.5555ZM19.916 20.75H15.916V16.75H19.916V20.75Z" fill="#178EE8" stroke="#178EE8" stroke-width="0.5"/>
</svg>
