<svg width="98" height="98" viewBox="0 0 98 98" fill="none" xmlns="http://www.w3.org/2000/svg">
<circle opacity="0.2" cx="49" cy="49" r="49" fill="#00D4FF"/>
<g clip-path="url(#clip0_445_8778)">
<path d="M49 27.2572C48.0489 27.2572 47.107 27.4445 46.2283 27.8085C45.3496 28.1725 44.5512 28.706 43.8786 29.3786C43.2061 30.0511 42.6726 30.8495 42.3086 31.7283C41.9446 32.607 41.7572 33.5488 41.7572 34.5C41.7572 35.4511 41.9446 36.3929 42.3086 37.2716C42.6726 38.1504 43.2061 38.9488 43.8786 39.6213C44.5512 40.2939 45.3496 40.8274 46.2283 41.1914C47.107 41.5554 48.0489 41.7427 49 41.7427C50.9209 41.7427 52.7631 40.9796 54.1214 39.6213C55.4797 38.2631 56.2428 36.4208 56.2428 34.5C56.2428 32.5791 55.4797 30.7368 54.1214 29.3786C52.7631 28.0203 50.9209 27.2572 49 27.2572ZM65.3125 30.875C63.8704 30.875 62.4873 31.4478 61.4676 32.4676C60.4479 33.4873 59.875 34.8703 59.875 36.3125C59.875 37.7546 60.4479 39.1376 61.4676 40.1573C62.4873 41.1771 63.8704 41.75 65.3125 41.75C66.7546 41.75 68.1377 41.1771 69.1574 40.1573C70.1771 39.1376 70.75 37.7546 70.75 36.3125C70.75 34.8703 70.1771 33.4873 69.1574 32.4676C68.1377 31.4478 66.7546 30.875 65.3125 30.875ZM32.6875 30.875C31.2454 30.875 29.8623 31.4478 28.8426 32.4676C27.8229 33.4873 27.25 34.8703 27.25 36.3125C27.25 37.7546 27.8229 39.1376 28.8426 40.1573C29.8623 41.1771 31.2454 41.75 32.6875 41.75C34.1296 41.75 35.5127 41.1771 36.5324 40.1573C37.5521 39.1376 38.125 37.7546 38.125 36.3125C38.125 34.8703 37.5521 33.4873 36.5324 32.4676C35.5127 31.4478 34.1296 30.875 32.6875 30.875ZM38.125 48.9746C38.1317 48.0176 38.5166 47.102 39.1957 46.4277C39.8748 45.7534 40.793 45.3749 41.75 45.375H50.2216C47.6044 47.2148 45.4683 49.6575 43.9938 52.4967C42.5193 55.3359 41.7497 58.4882 41.75 61.6875C41.75 64.2866 42.2466 66.7697 43.1529 69.0462C41.6115 68.0633 40.3428 66.7077 39.464 65.1047C38.5852 63.5017 38.1247 61.703 38.125 59.875V48.9746ZM34.5 49C34.5 47.6768 34.8516 46.4407 35.4715 45.375H27.25C26.2886 45.375 25.3666 45.7569 24.6867 46.4367C24.0069 47.1165 23.625 48.0385 23.625 49V58.0625C23.6245 59.5462 23.9883 61.0073 24.6845 62.3176C25.3807 63.6279 26.3879 64.7472 27.6177 65.5772C28.8476 66.4072 30.2624 66.9226 31.738 67.0781C33.2135 67.2335 34.7047 67.0243 36.0805 66.4688C35.0394 64.4256 34.4977 62.1645 34.5 59.8713V49ZM78 61.6875C78 66.0138 76.2814 70.1629 73.2222 73.2221C70.163 76.2813 66.0138 78 61.6875 78C57.3612 78 53.212 76.2813 50.1528 73.2221C47.0936 70.1629 45.375 66.0138 45.375 61.6875C45.375 57.3611 47.0936 53.212 50.1528 50.1528C53.212 47.0936 57.3612 45.375 61.6875 45.375C66.0138 45.375 70.163 47.0936 73.2222 50.1528C76.2814 53.212 78 57.3611 78 61.6875Z" fill="url(#paint0_linear_445_8778)"/>
<path fill-rule="evenodd" clip-rule="evenodd" d="M68.7751 53.6333C68.3063 53.1647 67.6705 52.9014 67.0076 52.9014C66.3447 52.9014 65.7089 53.1647 65.2401 53.6333L64.651 54.2233L68.776 58.3483L69.3643 57.7592C69.5965 57.527 69.7807 57.2514 69.9063 56.9481C70.032 56.6447 70.0967 56.3196 70.0967 55.9913C70.0967 55.6629 70.032 55.3378 69.9063 55.0344C69.7807 54.7311 69.5965 54.4555 69.3643 54.2233L68.7751 53.6333ZM67.5968 59.5267L63.4718 55.4017L55.8968 62.9775C55.731 63.1433 55.6152 63.3524 55.5626 63.5808L54.7051 67.2933C54.6732 67.4312 54.6768 67.5748 54.7158 67.7109C54.7547 67.8469 54.8276 67.9707 54.9277 68.0708C55.0277 68.1708 55.1516 68.2437 55.2876 68.2827C55.4236 68.3216 55.5673 68.3253 55.7051 68.2933L59.4185 67.4367C59.6466 67.3839 59.8554 67.2681 60.021 67.1025L67.5968 59.5267Z" fill="#074765"/>
</g>
<defs>
<linearGradient id="paint0_linear_445_8778" x1="24" y1="27" x2="78" y2="78" gradientUnits="userSpaceOnUse">
<stop stop-color="#54E2FF"/>
<stop offset="1" stop-color="#06C3EA"/>
</linearGradient>
<clipPath id="clip0_445_8778">
<rect width="58" height="58" fill="white" transform="translate(20 20)"/>
</clipPath>
</defs>
</svg>
