<svg width="56" height="56" viewBox="0 0 56 56" fill="none" xmlns="http://www.w3.org/2000/svg">
<rect width="56" height="56" rx="12" fill="url(#paint0_linear_241_1683)" fill-opacity="0.9"/>
<path d="M36.2496 22.0017V30.5264C36.2496 34.8577 32.795 38.453 28.4684 38.5008C27.4183 38.515 26.3761 38.3182 25.4034 37.9222C24.4308 37.5262 23.5475 36.9391 22.8059 36.1955C20.7612 34.0327 18.4512 28.7517 18.4512 28.7517C18.3496 28.5759 18.2848 28.3812 18.2606 28.1796C18.2365 27.9779 18.2536 27.7734 18.3108 27.5786C18.3681 27.3837 18.4643 27.2025 18.5936 27.0459C18.723 26.8893 18.8828 26.7606 19.0634 26.6677C19.7815 26.2927 20.6665 26.5889 21.0696 27.2883L23.0384 30.7046C23.0932 30.8029 23.1758 30.8829 23.2758 30.9344C23.3759 30.986 23.489 31.0068 23.6009 30.9942H23.6121C23.7923 30.9632 23.9555 30.869 24.0723 30.7284C24.1892 30.5878 24.2521 30.4102 24.2496 30.2274V20.5017C24.2494 20.2985 24.2905 20.0974 24.3703 19.9105C24.4502 19.7237 24.5672 19.555 24.7142 19.4147C24.8612 19.2744 25.0352 19.1655 25.2256 19.0945C25.416 19.0235 25.6189 18.992 25.8218 19.0017C26.629 19.0392 27.2496 19.7349 27.2496 20.5421V26.5017C27.2494 26.6046 27.2703 26.7063 27.3111 26.8007C27.3519 26.8951 27.4116 26.9801 27.4866 27.0504C27.5616 27.1208 27.6502 27.1749 27.747 27.2096C27.8438 27.2442 27.9467 27.2585 28.0493 27.2517C28.2422 27.2352 28.4216 27.1462 28.5516 27.0027C28.6815 26.8592 28.7523 26.6719 28.7496 26.4783V19.0017C28.7494 18.7985 28.7905 18.5974 28.8703 18.4105C28.9502 18.2237 29.0672 18.055 29.2142 17.9147C29.3612 17.7744 29.5352 17.6655 29.7256 17.5945C29.916 17.5235 30.1189 17.492 30.3218 17.5017C31.129 17.5392 31.7496 18.2349 31.7496 19.0421V27.2517C31.7494 27.3546 31.7703 27.4563 31.8111 27.5507C31.8519 27.6451 31.9116 27.7301 31.9866 27.8004C32.0616 27.8708 32.1502 27.9249 32.247 27.9596C32.3438 27.9942 32.4467 28.0085 32.5493 28.0017C32.7422 27.9852 32.9216 27.8962 33.0516 27.7527C33.1815 27.6092 33.2523 27.4219 33.2496 27.2283V22.0439C33.2496 21.2367 33.8703 20.5439 34.6775 20.5036C34.8803 20.4938 35.083 20.5253 35.2732 20.5962C35.4635 20.6671 35.6374 20.7759 35.7844 20.9159C35.9314 21.056 36.0484 21.2245 36.1284 21.4111C36.2084 21.5978 36.2496 21.7987 36.2496 22.0017Z" fill="white"/>
<defs>
<linearGradient id="paint0_linear_241_1683" x1="3.12425" y1="3.13739" x2="54.3643" y2="37.6734" gradientUnits="userSpaceOnUse">
<stop offset="0.168198" stop-color="#5FBAFD"/>
<stop offset="0.984375" stop-color="#2B6CEB"/>
</linearGradient>
</defs>
</svg>
