<svg width="36" height="36" viewBox="0 0 36 36" fill="none" xmlns="http://www.w3.org/2000/svg">
<path d="M22 34H14C13.2928 34 12.6145 33.719 12.1144 33.219C11.6143 32.7189 11.3333 32.0406 11.3333 31.3333V24.6667H4.66667C3.95942 24.6667 3.28115 24.3857 2.78105 23.8856C2.28095 23.3855 2 22.7072 2 22V14C2 13.2928 2.28095 12.6145 2.78105 12.1144C3.28115 11.6143 3.95942 11.3333 4.66667 11.3333H11.3333V4.66667C11.3333 3.95942 11.6143 3.28115 12.1144 2.78105C12.6145 2.28095 13.2928 2 14 2H22C22.7072 2 23.3855 2.28095 23.8856 2.78105C24.3857 3.28115 24.6667 3.95942 24.6667 4.66667V11.3333H31.3333C32.0406 11.3333 32.7189 11.6143 33.219 12.1144C33.719 12.6145 34 13.2928 34 14V22C33.9989 22.7069 33.7177 23.3846 33.2178 23.8845C32.7179 24.3843 32.0403 24.6656 31.3333 24.6667H24.6667V31.3333C24.6656 32.0403 24.3843 32.7179 23.8845 33.2178C23.3846 33.7177 22.7069 33.9989 22 34ZM4.66667 14V22H14V31.3333H22V22H31.3333V14H22V4.66667H14V14H4.66667Z" fill="#178EE8"/>
</svg>
