<svg width="82" height="82" viewBox="0 0 82 82" fill="none" xmlns="http://www.w3.org/2000/svg">
<path d="M51.3321 5.06262C53.4149 3.84902 55.1041 4.81662 55.1206 7.22742L55.2517 55.6402C55.2517 58.0346 53.5789 60.9538 51.4961 62.1674L21.4021 79.5842C19.3029 80.7814 17.6137 79.8302 17.6137 77.4194L17.4825 29.0066C17.4661 26.5958 19.1553 23.693 21.2381 22.4794L51.3321 5.06262Z" fill="white"/>
<path d="M55.2528 55.6402C55.2528 58.0346 53.58 60.9538 51.4972 62.1674L21.4032 79.5842C19.304 80.7978 17.6312 79.8302 17.6148 77.4194L17.582 68.383C19.8124 69.0554 22.1412 69.4162 24.552 69.4162C40.0008 69.4162 52.514 54.5742 52.514 36.2718C52.514 25.825 48.4304 16.5098 42.0508 10.4254L51.3332 5.06262C53.416 3.84902 55.1052 4.81662 55.1052 7.22742L55.2528 55.6402Z" fill="#E9EDF4"/>
<path fill-rule="evenodd" clip-rule="evenodd" d="M19.697 80.5992C19.2542 80.5992 18.8442 80.4844 18.467 80.2876C17.5978 79.7792 17.1222 78.7624 17.1222 77.434L16.9746 29.0048C16.9746 26.4136 18.7294 23.3468 20.9926 22.0512L51.0866 4.63437C52.251 3.96197 53.3826 3.86357 54.2518 4.35557C55.121 4.86397 55.613 5.88077 55.613 7.22557L55.7442 55.6384C55.7606 58.2296 53.9894 61.28 51.7426 62.592L21.6486 80.0088C20.9598 80.4024 20.3038 80.5992 19.697 80.5992ZM51.5786 5.48717L21.4846 22.904C19.533 24.0356 17.9586 26.758 17.975 29.0048L18.1062 77.4176C18.1062 78.4016 18.4178 79.1068 18.959 79.4184C19.5166 79.7464 20.3038 79.648 21.1566 79.156L51.2506 61.7392C53.1858 60.6076 54.7602 57.8852 54.7602 55.6384L54.6126 7.22557C54.6126 6.24157 54.3174 5.53637 53.7598 5.22477C53.2022 4.89677 52.4314 4.99517 51.5786 5.48717Z" fill="black"/>
<path d="M49.332 2.06048C48.6432 1.66688 47.692 1.71608 46.6424 2.33928L16.5484 19.7561C15.2364 20.5105 14.0884 21.9537 13.416 23.5117L18.1064 26.2505C18.7624 24.6925 19.9104 23.2493 21.2388 22.4785L51.3328 5.06168C52.3824 4.45488 53.3336 4.40568 54.0224 4.79928L49.332 2.06048Z" fill="#6461EE"/>
<path fill-rule="evenodd" clip-rule="evenodd" d="M18.1066 26.7416C18.0082 26.7416 17.9207 26.7197 17.8442 26.676L13.1702 23.9372C12.9406 23.8224 12.8586 23.5436 12.957 23.314C13.695 21.6084 14.9414 20.0996 16.3026 19.3124L46.3966 1.91198C47.5774 1.22318 48.709 1.12478 49.5782 1.63318L54.2686 4.37198C54.4982 4.50318 54.5802 4.81478 54.449 5.04438C54.3014 5.29038 54.0062 5.37239 53.7602 5.22479C53.2026 4.89679 52.4318 4.99518 51.579 5.48718L21.485 22.904C20.3042 23.5928 19.2054 24.9048 18.5494 26.4464C18.5002 26.5776 18.3854 26.676 18.2542 26.7088C18.1995 26.7307 18.1503 26.7416 18.1066 26.7416ZM14.0558 23.314L17.877 25.5444C18.6314 24.0356 19.763 22.7564 20.993 22.0512L51.087 4.63438C51.404 4.44852 51.7156 4.30638 52.0218 4.20798L49.0862 2.50238C48.5286 2.17438 47.7414 2.27279 46.8886 2.76479L16.7946 20.1816C15.7286 20.8048 14.7118 21.9528 14.0558 23.314Z" fill="black"/>
<path d="M12.793 26.2833L12.9242 74.6961C12.9242 75.8933 13.3506 76.7133 14.023 77.1233L18.7134 79.8457C18.041 79.4521 17.6146 78.6157 17.6146 77.4349L17.4834 29.0057C17.4834 28.1201 17.713 27.1525 18.1066 26.2505L13.4162 23.5117C13.0226 24.4301 12.793 25.3977 12.793 26.2833Z" fill="#178EE8"/>
<path fill-rule="evenodd" clip-rule="evenodd" d="M18.7132 80.3375C18.6257 80.3375 18.5437 80.3157 18.4672 80.2719C18.4562 80.2719 18.4508 80.2665 18.4508 80.2555L13.7768 77.5495C12.9076 77.0411 12.432 76.0243 12.432 74.6959L12.3008 26.2831C12.3008 25.3647 12.5304 24.3315 12.9568 23.3147C13.006 23.1835 13.1208 23.0851 13.252 23.0359C13.3996 23.0031 13.5308 23.0195 13.662 23.0851L18.3524 25.8239C18.5656 25.9387 18.6476 26.2175 18.5492 26.4471C18.172 27.3327 17.9752 28.2183 17.9752 29.0055L18.1064 77.4347C18.1064 78.3859 18.4016 79.0911 18.9428 79.4027L18.9592 79.4191C19.2052 79.5503 19.2708 79.8455 19.1396 80.0915C19.0576 80.2555 18.8772 80.3375 18.7132 80.3375ZM13.662 24.2331C13.416 24.9383 13.2848 25.6435 13.2848 26.2831L13.416 74.6959C13.416 75.6635 13.7276 76.3687 14.2852 76.6967L17.2208 78.4023C17.1552 78.0962 17.1224 77.7737 17.1224 77.4347L16.9912 29.0055C16.9748 28.2019 17.1552 27.3327 17.4832 26.4635L13.662 24.2331Z" fill="black"/>
<path d="M45.0664 17.327L50.0356 14.457L45.0664 17.327Z" fill="#6461EE"/>
<path d="M45.0671 17.8205C44.9031 17.8205 44.7391 17.7221 44.6407 17.5745C44.5095 17.3285 44.5915 17.0333 44.8211 16.8857L49.7739 14.0157C50.0199 13.8845 50.3151 13.9665 50.4627 14.1961C50.5939 14.4421 50.5119 14.7373 50.2823 14.8849L45.3131 17.7549C45.2366 17.7987 45.1546 17.8205 45.0671 17.8205Z" fill="black"/>
<path d="M22.6484 30.282L40.5408 19.9336L22.6484 30.282Z" fill="#6461EE"/>
<path d="M22.6656 30.7911C22.4852 30.7911 22.3212 30.6927 22.2228 30.5451C22.0916 30.2991 22.1736 30.0039 22.4032 29.8563L40.2956 19.5079C40.5252 19.3767 40.8368 19.4587 40.968 19.6883C41.1156 19.9343 41.0336 20.2295 40.7876 20.3607L22.9116 30.7255C22.8241 30.7693 22.7421 30.7911 22.6656 30.7911Z" fill="black"/>
<path d="M45.0664 42.6161L50.0356 39.7461L45.0664 42.6161Z" fill="#6461EE"/>
<path d="M45.0671 43.108C44.9031 43.108 44.7391 43.026 44.6407 42.862C44.5095 42.6324 44.5915 42.3208 44.8211 42.1896L49.7739 39.3196C50.0199 39.172 50.3151 39.254 50.4627 39.5C50.5939 39.7296 50.5119 40.0412 50.2823 40.1724L45.3131 43.0424C45.2366 43.0861 45.1546 43.108 45.0671 43.108Z" fill="black"/>
<path d="M22.6484 55.5867L40.5408 45.2383L22.6484 55.5867Z" fill="#6461EE"/>
<path d="M22.6656 56.0786C22.4852 56.0786 22.3212 55.9966 22.2228 55.8326C22.0916 55.603 22.1736 55.2914 22.4032 55.1602L40.2956 44.8118C40.5252 44.6642 40.8368 44.7462 40.968 44.9922C41.1156 45.2218 41.0336 45.5334 40.7876 45.6646L22.9116 56.013C22.8241 56.0567 22.7421 56.0786 22.6656 56.0786Z" fill="black"/>
<path d="M22.6484 62.8854L50.0364 47.043L22.6484 62.8854Z" fill="#6461EE"/>
<path d="M22.6656 63.3781C22.4852 63.3781 22.3212 63.2961 22.2228 63.1321C22.0916 62.9025 22.1736 62.5909 22.4032 62.4597L49.7748 46.6173C50.0208 46.4861 50.316 46.5681 50.4636 46.7977C50.5948 47.0273 50.5128 47.3389 50.2832 47.4701L22.9116 63.3125C22.8241 63.3562 22.7421 63.3781 22.6656 63.3781Z" fill="black"/>
<path d="M33.457 63.9377L50.0374 54.3438L33.457 63.9377Z" fill="#6461EE"/>
<path d="M33.4569 64.4305C33.2765 64.4305 33.1125 64.3485 33.0305 64.1845C32.8829 63.9549 32.9649 63.6597 33.2109 63.5121L49.7749 53.9181C50.0209 53.7869 50.3162 53.8689 50.4638 54.0985C50.5949 54.3445 50.513 54.6397 50.2834 54.7873L33.7029 64.3649C33.6264 64.4196 33.5444 64.4414 33.4569 64.4305Z" fill="black"/>
<path d="M22.6484 70.1853L29.3068 66.3477L22.6484 70.1853Z" fill="#6461EE"/>
<path d="M22.6656 70.6936C22.4852 70.6936 22.3212 70.5952 22.2228 70.4312C22.0916 70.2016 22.1736 69.9064 22.4032 69.7588L29.0616 65.9212C29.2912 65.7736 29.5864 65.8556 29.734 66.1016C29.8652 66.3312 29.7832 66.6428 29.5536 66.774L22.9116 70.6116C22.8241 70.6662 22.7421 70.6936 22.6656 70.6936Z" fill="black"/>
<path d="M65.6505 43.3899C63.3873 42.0615 60.2385 42.2583 56.7617 44.2591C49.8573 48.2279 44.2977 57.8711 44.3141 65.7923C44.3305 69.7119 45.7081 72.4835 47.9549 73.7955L44.8225 71.9751C42.5921 70.6631 41.1981 67.9079 41.1817 63.9719C41.1653 56.0507 46.7413 46.4239 53.6457 42.4387C57.1061 40.4379 60.2713 40.2575 62.5345 41.5695L65.6505 43.3899Z" fill="#6461EE"/>
<path fill-rule="evenodd" clip-rule="evenodd" d="M47.9547 74.2858C47.8672 74.2858 47.7852 74.2639 47.7087 74.2202C47.7087 74.2092 47.7032 74.2038 47.6923 74.2038L44.5763 72.3998C42.0835 70.9402 40.7059 67.9554 40.6895 63.9702C40.6731 55.9178 46.3639 46.0614 53.3995 42.0106C56.9091 39.977 60.2547 39.6654 62.7803 41.1414L65.9127 42.9618C66.1423 43.093 66.2243 43.4046 66.0931 43.6342C65.9455 43.8638 65.6503 43.9622 65.4043 43.8146C63.1903 42.5354 60.2219 42.847 57.0075 44.6838C50.2671 48.5706 44.7895 58.0498 44.8059 65.7906C44.8223 69.3986 46.0195 72.0882 48.2007 73.351C48.4467 73.4986 48.5287 73.7938 48.3811 74.0398C48.2991 74.1874 48.1351 74.2858 47.9547 74.2858ZM59.2543 41.2234C57.6143 41.2234 55.7939 41.7646 53.8915 42.8634C47.1347 46.7666 41.6571 56.2294 41.6899 63.9702C41.6899 67.5782 42.9035 70.2678 45.0847 71.547L45.1503 71.5798C44.2811 70.0546 43.8219 68.0866 43.8055 65.7906C43.7891 57.7218 49.4963 47.8818 56.5155 43.8146C58.5655 42.6338 60.5663 42.0434 62.3703 42.0434L62.2883 41.9942C61.3863 41.4694 60.3695 41.2234 59.2543 41.2234Z" fill="black"/>
<path d="M56.7602 44.2573C63.6646 40.2721 69.2734 43.4537 69.3062 51.3749C69.3226 58.5909 64.6978 67.2173 58.6626 71.7109C58.0722 72.1592 57.4654 72.5637 56.8422 72.9245C56.23 73.2744 55.6232 73.5696 55.0218 73.8101C48.9866 76.2865 44.329 72.9901 44.3126 65.7905C44.2798 57.8693 49.8722 48.2261 56.7602 44.2573Z" fill="white"/>
<path d="M69.3076 51.374C69.324 58.59 64.6992 67.2164 58.664 71.71C58.0736 72.1582 57.4668 72.5573 56.8436 72.9072C56.2314 73.268 55.6245 73.5741 55.0232 73.8256C50.5788 75.6296 46.8724 74.3176 45.2324 70.6112C46.5116 70.9228 47.84 71.0704 49.2012 71.0704C58.8116 71.0704 66.6016 63.2804 66.6016 53.6864C66.6016 49.4388 65.0764 45.5684 62.5672 42.5508C66.5524 42.6492 69.2912 45.8636 69.3076 51.374Z" fill="#E9EDF4"/>
<path fill-rule="evenodd" clip-rule="evenodd" d="M51.2352 75.1214C49.792 75.1214 48.48 74.7443 47.3484 73.9898C45.0852 72.4646 43.8224 69.5618 43.8224 65.7899C43.7896 57.7211 49.4968 47.881 56.516 43.8302C60.0256 41.7966 63.3548 41.485 65.8968 42.9446C68.406 44.3878 69.7836 47.389 69.8 51.3742C69.8164 58.5902 65.1588 67.4954 58.9596 72.1038C58.3528 72.563 57.7132 72.9894 57.09 73.3502C56.4668 73.711 55.8272 74.0226 55.204 74.2686C53.8264 74.8426 52.498 75.1214 51.2352 75.1214ZM57.008 44.683C50.2676 48.5698 44.79 58.0327 44.8064 65.7899C44.8228 69.2174 45.9216 71.8414 47.906 73.1698C49.71 74.3834 52.17 74.449 54.8432 73.3502C55.4172 73.1206 56.0076 72.8254 56.598 72.481C57.1884 72.153 57.7952 71.7594 58.3692 71.3166C64.3388 66.8722 68.8324 58.295 68.7996 51.3742C68.7996 47.7498 67.586 45.0602 65.4048 43.7974C63.1908 42.5346 60.206 42.8462 57.008 44.683Z" fill="black"/>
<path d="M56.7769 48.9305C61.4345 46.2573 65.2065 48.4057 65.2229 53.7357C65.2393 59.0657 61.4837 65.5601 56.8261 68.2333C52.1849 70.9229 48.4129 68.7581 48.3965 63.4281C48.3801 58.0981 52.1357 51.6037 56.7769 48.9305Z" fill="#6461EE"/>
<path d="M60.1878 47.7993C62.5494 50.7021 63.2382 55.0481 61.631 59.1153C59.4334 64.6749 53.7754 67.6925 48.7734 66.0689C49.8558 69.3981 53.0538 70.4149 56.8258 68.2337C61.4834 65.5605 65.2226 59.0661 65.2226 53.7361C65.2062 49.8001 63.1398 47.5861 60.1878 47.7993Z" fill="#178EE8"/>
<path fill-rule="evenodd" clip-rule="evenodd" d="M53.0539 69.8912C52.1683 69.8912 51.3483 69.678 50.6103 69.2516C48.8719 68.2512 47.9043 66.1848 47.9043 63.4296C47.8879 57.952 51.7583 51.2608 56.5307 48.5056C58.9415 47.1116 61.2375 46.8984 63.0087 47.9152C64.7471 48.9156 65.6983 50.982 65.7147 53.7372C65.7311 59.2148 61.8607 65.9224 57.0883 68.6612C55.6779 69.4812 54.3003 69.8912 53.0539 69.8912ZM60.5487 48.276C59.4827 48.276 58.2855 48.6368 57.0227 49.3584C52.5291 51.9496 48.8719 58.2636 48.8883 63.4296C48.8883 65.8076 49.6755 67.5788 51.1023 68.3988C52.5455 69.2352 54.4971 69.022 56.5799 67.8084C61.0899 65.2172 64.7307 58.9032 64.7307 53.7372C64.7143 51.3592 63.9271 49.588 62.5003 48.768C61.9263 48.44 61.2703 48.276 60.5487 48.276Z" fill="black"/>
<path fill-rule="evenodd" clip-rule="evenodd" d="M58.9084 57.9851C59.1052 58.1491 59.2091 58.4607 59.22 58.9199C59.22 59.3025 59.1326 59.6961 58.9576 60.1007C58.7827 60.5052 58.5312 60.8879 58.2032 61.2487C57.8862 61.6204 57.5144 61.9429 57.088 62.2163V62.9543C57.088 63.0527 57.0607 63.1456 57.006 63.2331C56.9514 63.3205 56.8858 63.3916 56.8092 63.4463C56.7218 63.49 56.6507 63.5009 56.596 63.4791C56.5523 63.4463 56.5304 63.3807 56.5304 63.2823V62.5279C55.8635 62.8668 55.2403 63.0636 54.6608 63.1183C54.5843 63.1183 54.5187 63.0909 54.464 63.0363C54.4203 62.9925 54.3984 62.9215 54.3984 62.8231C54.3984 62.7028 54.4312 62.5771 54.4968 62.4459C54.5734 62.3256 54.6663 62.2327 54.7756 62.1671C54.8303 62.1343 54.8904 62.1124 54.956 62.1015C55.448 62.0687 55.9674 61.9101 56.514 61.6259V59.1823C56.0986 59.3025 55.7432 59.3681 55.448 59.3791C55.1638 59.4009 54.9287 59.3299 54.7428 59.1659C54.546 59.0019 54.4476 58.7121 54.4476 58.2967C54.4476 57.9359 54.5242 57.5532 54.6772 57.1487C54.8303 56.7441 55.0654 56.3505 55.3824 55.9679C55.6886 55.5852 56.0603 55.2463 56.4976 54.9511V54.2131C56.4976 54.1147 56.525 54.0217 56.5796 53.9343C56.6343 53.8359 56.6999 53.7648 56.7764 53.7211C56.853 53.6773 56.9186 53.6719 56.9732 53.7047C57.0279 53.7375 57.0552 53.7976 57.0552 53.8851L57.0716 54.6231C57.673 54.2951 58.2087 54.0983 58.6788 54.0327C58.8428 54.0108 58.9248 54.1037 58.9248 54.3115C58.9248 54.4317 58.892 54.552 58.8264 54.6723C58.7608 54.8035 58.6734 54.9019 58.564 54.9675C58.5312 54.9893 58.482 55.0057 58.4164 55.0167C58.001 55.0823 57.5527 55.2463 57.0716 55.5087V58.0343C57.5199 57.8921 57.8862 57.8101 58.1704 57.7883C58.4656 57.7555 58.7116 57.8211 58.9084 57.9851ZM57.088 61.2979C57.9518 60.7293 58.3836 60.0788 58.3836 59.3463C58.3836 59.0729 58.2743 58.9199 58.0556 58.8871C57.837 58.8652 57.509 58.9089 57.0716 59.0183L57.088 61.2979ZM56.514 58.1983V55.8695C56.1423 56.1319 55.8471 56.4271 55.6284 56.7551C55.4098 57.094 55.3004 57.422 55.3004 57.7391C55.3004 58.0561 55.4043 58.2365 55.612 58.2803C55.8198 58.3349 56.1204 58.3076 56.514 58.1983Z" fill="black"/>
<path d="M31.1283 33.253C31.2759 33.171 31.4071 33.1546 31.5055 33.2202C31.6039 33.2694 31.6695 33.3842 31.6695 33.5646C31.6695 33.7286 31.6039 33.8926 31.5055 34.073C31.4071 34.2479 31.2813 34.3736 31.1283 34.4502L28.6519 35.8934L28.6683 43.9622C28.6683 44.148 28.6136 44.3339 28.5043 44.5198C28.3895 44.7002 28.2583 44.8314 28.1107 44.9298C27.9467 45.0118 27.8155 45.0282 27.7171 44.9626C27.6077 44.9079 27.5531 44.7876 27.5531 44.6018L27.5367 36.533L25.0275 37.9762C24.8853 38.0636 24.7651 38.08 24.6667 38.0254C24.5683 37.9707 24.5191 37.8559 24.5191 37.681C24.5081 37.517 24.5573 37.3475 24.6667 37.1726C24.7487 36.9922 24.8799 36.861 25.0275 36.779L31.1283 33.253Z" fill="black"/>
<path fill-rule="evenodd" clip-rule="evenodd" d="M39.5587 37.4027C39.6025 37.4902 39.6243 37.5722 39.6243 37.6487C39.6243 37.8236 39.5751 38.004 39.4767 38.1899C39.3619 38.3539 39.2307 38.5015 39.0667 38.5999C38.9574 38.6655 38.8535 38.6874 38.7551 38.6655C38.6677 38.6546 38.5966 38.5999 38.5419 38.5015L37.7383 36.7631L33.5727 39.1739L32.7855 41.8307C32.7363 41.9783 32.6543 42.1259 32.5723 42.2407C32.4739 42.3719 32.3591 42.4703 32.2443 42.5359C32.0803 42.6343 31.9491 42.6343 31.8507 42.5851C31.7523 42.5195 31.7031 42.3992 31.7031 42.2243C31.7031 42.1478 31.7195 42.0384 31.7523 41.8963L34.8683 31.6135C34.923 31.4058 35.0159 31.2144 35.1471 31.0395C35.2565 30.8646 35.3986 30.7279 35.5735 30.6295L35.6883 30.5475C35.8633 30.4491 36.0109 30.4218 36.1311 30.4655C36.2514 30.5092 36.3443 30.5912 36.4099 30.7115L39.5587 37.4027ZM33.9991 37.7635L37.3119 35.8611L35.6391 32.2367L33.9991 37.7635Z" fill="black"/>
<path d="M47.6428 23.6589C47.7849 23.5714 47.9107 23.555 48.02 23.6097C48.1293 23.6643 48.184 23.7791 48.184 23.9541C48.184 24.0853 48.1512 24.2165 48.0856 24.3641L45.2648 30.0057L48.102 32.3837C48.1785 32.4274 48.2168 32.5258 48.2168 32.6789C48.2168 32.8538 48.1676 33.0342 48.0692 33.2201C47.9544 33.4005 47.8232 33.5317 47.6592 33.6301C47.4843 33.7394 47.3421 33.7339 47.2328 33.6137L44.5924 31.3505L42.0176 36.6477C41.8973 36.8882 41.7552 37.0522 41.5912 37.1397C41.4491 37.2271 41.3288 37.2381 41.2304 37.1725C41.1211 37.1178 41.0664 37.0085 41.0664 36.8445C41.0664 36.7023 41.1047 36.5493 41.1812 36.3853L44.002 30.7601L41.1812 28.3985C41.1047 28.3329 41.0664 28.2235 41.0664 28.0705C41.0664 27.8955 41.1156 27.7206 41.214 27.5457C41.3124 27.3653 41.4436 27.2341 41.6076 27.1357C41.6951 27.081 41.7825 27.0537 41.87 27.0537C41.9465 27.0646 42.0121 27.0919 42.0668 27.1357L44.658 29.4153L47.2328 24.1181C47.3203 23.9103 47.4569 23.7573 47.6428 23.6589Z" fill="black"/>
</svg>
