<svg width="37" height="36" viewBox="0 0 37 36" fill="none" xmlns="http://www.w3.org/2000/svg">
<path d="M17.4005 11.0296C17.431 11.0127 17.4654 11.0026 17.5009 11C17.5081 11 17.5385 11 17.6013 11.0296C17.7156 11.0871 17.8186 11.1617 17.9061 11.2504C18.1804 11.5106 18.4941 11.9602 18.7881 12.6355C19.0785 13.3009 19.3188 14.1195 19.4873 15.0501C19.5859 15.6002 19.6576 16.1751 19.6988 16.7647H15.303C15.3442 16.1751 15.4159 15.6002 15.5145 15.0518C15.6536 14.2258 15.8879 13.4159 16.2137 12.6355C16.5077 11.9602 16.8232 11.5106 17.0957 11.2504C17.1832 11.1617 17.2862 11.0871 17.4005 11.0296ZM12.6085 16.7647C12.6533 16.0416 12.7393 15.3301 12.8612 14.6466C13.0179 13.7394 13.267 12.8477 13.6052 11.9833C12.6667 12.4964 11.8592 13.189 11.2375 14.0139C10.6157 14.8389 10.1943 15.777 10.0018 16.7647H12.6085ZM10.0018 19.2353H12.6067C12.6515 19.9584 12.7375 20.6699 12.8594 21.3534C13.0161 22.2606 13.2652 23.1523 13.6034 24.0167C12.6649 23.5036 11.8574 22.811 11.2357 21.9861C10.6139 21.1611 10.1943 20.223 10.0018 19.2353ZM25 16.7647C24.8078 15.7769 24.3865 14.8387 23.7648 14.0136C23.143 13.1886 22.3353 12.4962 21.3966 11.9833C21.7193 12.7838 21.9667 13.6864 22.1406 14.6466C22.2625 15.3301 22.3485 16.0416 22.3915 16.7647H25ZM22.3933 19.2353H25C24.8078 20.2231 24.3865 21.1613 23.7648 21.9864C23.143 22.8114 22.3353 23.5038 21.3966 24.0167C21.7193 23.2162 21.9667 22.3136 22.1406 21.3534C22.2625 20.6699 22.3485 19.9584 22.3915 19.2353M19.6988 19.2353C19.6592 19.8091 19.5886 20.3808 19.4873 20.9482C19.3482 21.7742 19.1138 22.5841 18.7881 23.3645C18.4941 24.0398 18.1786 24.4894 17.9061 24.7496C17.8186 24.8383 17.7156 24.9129 17.6013 24.9704C17.5708 24.9873 17.5364 24.9974 17.5009 25C17.4937 25 17.4632 25 17.4005 24.9704C17.2862 24.9129 17.1832 24.8383 17.0957 24.7496C16.8214 24.4894 16.5077 24.0398 16.2137 23.3645C15.8881 22.5847 15.6537 21.7753 15.5145 20.9499C15.4132 20.3819 15.3426 19.8097 15.303 19.2353H19.6988Z" fill="#178EE8"/>
<path fill-rule="evenodd" clip-rule="evenodd" d="M2.651 6.2394C2 7.154 2 9.874 2 15.3089V17.9847C2 27.5693 9.3005 32.2222 13.8816 34.1959C15.1233 34.7314 15.7451 35 17.5 35C19.2567 35 19.8767 34.7314 21.1184 34.1959C25.6995 32.2205 33 27.571 33 17.9847V15.3089C33 9.8723 33 7.154 32.349 6.2394C31.6997 5.3265 29.1112 4.451 23.9325 2.7017L22.9457 2.3685C20.2469 1.4556 18.8984 1 17.5 1C16.1033 1 14.7531 1.4556 12.0543 2.3685L11.0675 2.7C5.88878 4.451 3.30028 5.3265 2.651 6.2394ZM7.59722 18C7.59722 15.4075 8.64055 12.9212 10.4977 11.088C12.3548 9.25486 14.8736 8.225 17.5 8.225C20.1264 8.225 22.6452 9.25486 24.5023 11.088C26.3595 12.9212 27.4028 15.4075 27.4028 18C27.4028 20.5925 26.3595 23.0788 24.5023 24.912C22.6452 26.7451 20.1264 27.775 17.5 27.775C14.8736 27.775 12.3548 26.7451 10.4977 24.912C8.64055 23.0788 7.59722 20.5925 7.59722 18Z" fill="#178EE8"/>
</svg>
