<svg width="86" height="61" viewBox="0 0 86 61" fill="none" xmlns="http://www.w3.org/2000/svg">
<path d="M79.8024 32.1494L42.2264 53.903C41.6456 54.2198 40.8712 54.167 39.9912 53.6742L10.0007 36.4086L8.31117 35.4406C7.44877 34.9302 6.65676 34.0854 6.09356 33.0998C5.51276 32.1142 5.16076 31.023 5.17836 30.0198C5.17836 29.0166 5.53036 28.3302 6.09356 27.9958L43.6696 6.24219C43.0888 6.57659 42.7367 7.26299 42.7367 8.26619C42.7191 9.26939 43.0711 10.3606 43.6519 11.3638C44.2327 12.3494 45.0072 13.1766 45.8872 13.687L47.5592 14.655L77.5496 31.9206C78.4296 32.4134 79.2039 32.4662 79.7847 32.1494H79.8024Z" fill="#09243F"/>
<path d="M43.5816 46.7053C50.516 46.7053 56.9224 45.0861 62.1144 42.3581L42.2264 53.8861C41.6456 54.2029 40.8712 54.1677 39.9912 53.6749L10.0007 36.4093L8.32875 35.4589C7.44875 34.9309 6.65676 34.0861 6.09356 33.1005C5.51276 32.1149 5.16076 31.0061 5.17836 30.0205C5.17836 28.9997 5.53036 28.3309 6.09356 27.9965L12.1127 24.5117C12.3767 36.7965 26.3688 46.7053 43.5816 46.7053Z" fill="#09243F"/>
<path fill-rule="evenodd" clip-rule="evenodd" d="M41.3992 54.6266C40.9416 54.6266 40.3784 54.5034 39.7272 54.1338L8.04724 35.9178C7.13204 35.3722 6.2696 34.4746 5.636 33.3658C4.9848 32.257 4.63281 31.0602 4.63281 30.0218C4.63281 28.8778 5.05522 27.9802 5.82962 27.5402L43.388 5.78661C43.652 5.62821 43.9688 5.71621 44.1272 5.96261C44.268 6.22661 44.18 6.5434 43.9336 6.7018C43.388 7.0186 43.2648 7.74021 43.2648 8.26821C43.2648 9.13061 43.564 10.1338 44.1096 11.1018C44.6552 12.0346 45.3768 12.7914 46.1512 13.2314L77.8136 31.465C78.4824 31.8346 79.0984 31.9226 79.5384 31.6762C79.7848 31.5354 80.1192 31.6234 80.26 31.8874C80.4008 32.1338 80.3128 32.4506 80.0664 32.609L42.4904 54.3626C42.2264 54.5034 41.8568 54.6266 41.3992 54.6266ZM42.244 7.6698L6.35762 28.4554C5.81202 28.7722 5.70643 29.4762 5.70643 30.0218C5.68883 30.8842 5.98804 31.8874 6.55124 32.8378C7.09684 33.7706 7.81841 34.545 8.59281 34.985L40.2552 53.2186C40.7304 53.4826 41.4168 53.729 41.98 53.4298L77.8488 32.6618C77.6611 32.5797 77.4733 32.4858 77.2856 32.3802L45.6232 14.1642C44.6904 13.6186 43.828 12.721 43.1944 11.6298C42.5432 10.5034 42.1912 9.30661 42.2088 8.26821C42.2088 8.05701 42.2205 7.85753 42.244 7.6698Z" fill="#00D4FF"/>
<path d="M49.1607 5.90799C49.1607 6.57679 48.9143 7.05199 48.5447 7.26319L10.9863 29.0168C11.3559 28.8056 11.6023 28.3304 11.6023 27.6616C11.6023 26.324 10.6519 24.7048 9.49033 24.036L8.34633 23.3672C6.30473 22.2056 4.45674 22.0824 3.11914 22.8392L40.6775 1.0856C42.0151 0.328796 43.8807 0.451996 45.9047 1.6136L47.0487 2.28239C48.2103 2.95119 49.1607 4.57039 49.1607 5.90799Z" fill="#09243F"/>
<path fill-rule="evenodd" clip-rule="evenodd" d="M10.9857 29.5449C10.7921 29.5449 10.6161 29.4569 10.5281 29.2985C10.3697 29.0345 10.4577 28.7177 10.7041 28.5593C10.9329 28.4361 11.0737 28.1017 11.0737 27.6617C11.0737 26.5177 10.2289 25.0745 9.22572 24.4937L8.08172 23.8249C6.28652 22.8041 4.61453 22.6105 3.38253 23.2969C3.11853 23.4377 2.80171 23.3497 2.66091 23.1033C2.50251 22.8569 2.59053 22.5225 2.85453 22.3817L40.4129 0.628125C41.9969 -0.251875 44.0385 -0.075875 46.1681 1.15612L47.3121 1.82493C48.6497 2.58173 49.6881 4.37693 49.6881 5.90812C49.6881 6.73532 49.3713 7.38653 48.8257 7.72093L11.2497 29.4745C11.1676 29.5332 11.0796 29.5567 10.9857 29.5449ZM5.82891 21.8889C6.70891 22.0121 7.65932 22.3641 8.60972 22.9097L9.75372 23.5609C11.0913 24.3353 12.1297 26.1305 12.1297 27.6617C12.1297 27.6852 12.1297 27.7087 12.1297 27.7321L48.2801 6.80573C48.5089 6.68253 48.6321 6.34812 48.6321 5.90812C48.6321 4.76412 47.7873 3.32092 46.7841 2.74012L45.6401 2.07133C43.8449 1.05053 42.1729 0.856927 40.9409 1.54333L5.82891 21.8889Z" fill="#00D4FF"/>
<path d="M40.0252 41.6011C42.0668 42.7627 43.9324 44.7867 45.2524 47.0747C46.5724 49.3803 47.3995 51.9851 47.3995 54.3083C47.3819 56.6315 46.5548 58.2859 45.2172 59.0427C43.8796 59.8171 42.014 59.6939 39.9724 58.5147L9.98197 41.2667L8.30997 40.2987C6.26837 39.1195 4.40274 37.0955 3.08274 34.8075C1.74514 32.5195 0.935547 29.9147 0.935547 27.5739C0.935547 25.2507 1.78037 23.5963 3.11797 22.8395C4.45557 22.0827 6.32116 22.2059 8.34516 23.3675L9.48916 24.0187C10.6508 24.6875 11.6012 26.3243 11.6012 27.6619C11.6012 28.9995 10.6331 29.5451 9.47155 28.8763L8.32755 28.2251C7.46515 27.7147 6.67316 27.6795 6.09236 27.9963C5.52916 28.3307 5.17715 29.0171 5.15955 30.0203C5.15955 31.0235 5.51156 32.1147 6.09236 33.1003C6.65556 34.0859 7.42997 34.9307 8.30997 35.4411L9.99955 36.4091L39.99 53.6747C40.87 54.1675 41.6444 54.2203 42.2252 53.9035C42.806 53.5691 43.158 52.8827 43.158 51.8795C43.158 50.8763 42.8235 49.7851 42.2427 48.7819C41.6619 47.7963 40.8875 46.9515 40.0075 46.4411L38.8812 45.7899C37.7196 45.1211 36.7692 43.4843 36.7692 42.1467C36.7692 40.8091 37.7195 40.2635 38.8987 40.9499L40.0252 41.6011Z" fill="#00D4FF"/>
<path fill-rule="evenodd" clip-rule="evenodd" d="M43.3173 60.0633C42.1909 60.0633 40.9589 59.6937 39.7093 58.9721L8.0293 40.7561C5.9701 39.5769 4.05171 37.5529 2.62611 35.0713C1.18291 32.5897 0.39089 29.9321 0.40849 27.5737C0.40849 25.1273 1.28852 23.2793 2.85492 22.3817C4.42132 21.4841 6.48051 21.6777 8.61011 22.9097L9.75411 23.5609C11.0917 24.3353 12.1301 26.1305 12.1301 27.6617C12.1301 28.5065 11.8133 29.1577 11.2501 29.4745C10.6869 29.8089 9.93009 29.7561 9.20849 29.3337L8.06449 28.6825C7.39569 28.2953 6.7973 28.2249 6.3573 28.4537C5.9349 28.7001 5.70611 29.2633 5.70611 30.0201C5.70611 30.8825 6.00532 31.8857 6.55092 32.8361C7.09652 33.7865 7.81809 34.5433 8.59249 34.9833L40.2549 53.2169C40.9237 53.5865 41.5397 53.6745 41.9621 53.4281C42.3845 53.1817 42.6309 52.6361 42.6309 51.8793C42.6309 50.9993 42.3317 49.9961 41.7861 49.0457C41.2405 48.1129 40.5189 47.3385 39.7445 46.8985L38.6181 46.2473C37.2805 45.4729 36.2245 43.6777 36.2421 42.1465C36.2421 41.3017 36.5589 40.6681 37.1221 40.3337C37.6853 40.0169 38.4245 40.0697 39.1637 40.4745L40.2901 41.1257C42.3493 42.3225 44.2853 44.3289 45.7109 46.8105C47.1541 49.2921 47.9285 51.9497 47.9285 54.3081C47.9109 56.7721 47.0485 58.6201 45.4821 59.5177C44.8309 59.8697 44.1093 60.0633 43.3173 60.0633ZM5.0373 22.8921C4.4213 22.8921 3.87572 23.0329 3.38292 23.2969C2.15092 24.0009 1.48209 25.5145 1.46449 27.5737C1.46449 29.7209 2.2213 32.2553 3.5413 34.5433C4.8613 36.8313 6.69172 38.7497 8.57492 39.8409L40.2373 58.0569C42.0325 59.0777 43.7397 59.2713 44.9541 58.5849C46.1861 57.8809 46.8549 56.3673 46.8549 54.3081C46.8725 52.1609 46.1157 49.6265 44.7957 47.3385C43.4757 45.0681 41.6453 43.1321 39.7621 42.0585L38.6357 41.4073C38.2309 41.1785 37.8789 41.1257 37.6501 41.2489C37.4213 41.3897 37.2981 41.7065 37.2981 42.1465C37.2981 43.2905 38.1429 44.7513 39.1461 45.3321L40.2725 45.9833C41.2053 46.5113 42.0677 47.4265 42.7013 48.5177C43.3525 49.6441 43.7045 50.8057 43.6869 51.8793C43.6869 53.0233 43.2645 53.9033 42.4901 54.3609C41.7157 54.7833 40.7477 54.7129 39.7269 54.1321L8.04692 35.9161C7.11412 35.3705 6.28688 34.4905 5.63568 33.3641C4.98448 32.2553 4.63249 31.0585 4.63249 30.0201C4.65009 28.8585 5.0725 27.9785 5.8293 27.5385C6.6037 27.0985 7.58929 27.1865 8.59249 27.7497L9.73649 28.4185C10.1237 28.6297 10.4933 28.6825 10.7045 28.5593C10.9333 28.4361 11.0565 28.1017 11.0565 27.6617C11.0741 26.5177 10.2293 25.0569 9.22611 24.4937L8.08211 23.8249C6.99091 23.2089 5.9525 22.8921 5.0373 22.8921Z" fill="#00D4FF"/>
<path d="M84.9595 32.5553C84.9595 34.8785 84.1147 36.5329 82.7771 37.2897L45.2187 59.0433C46.5563 58.2865 47.3835 56.6321 47.4011 54.3089C47.4011 51.9857 46.5739 49.3633 45.2539 47.0753C43.9339 44.7873 42.0683 42.7633 40.0267 41.6017L38.9003 40.9505C38.3019 40.6161 37.7739 40.5809 37.3867 40.7921L74.9451 19.0561C75.3323 18.8273 75.8779 18.8625 76.4587 19.1969L77.5851 19.8481C79.6267 21.0097 81.4923 23.0337 82.8123 25.3217C84.1499 27.6273 84.9595 30.2321 84.9595 32.5553Z" fill="#09243F"/>
<path d="M84.9596 32.5553C84.9596 34.8785 84.1147 36.5329 82.7771 37.2897L45.2188 59.0433C46.5563 58.3041 47.3835 56.6321 47.4011 54.3089C47.4011 52.5137 46.9083 50.5425 46.0811 48.6769C65.4411 47.0577 80.4716 38.0465 79.7676 28.3841C79.5388 25.0401 77.4443 22.0481 74.0123 19.6017L74.9451 19.0561C75.3323 18.8273 75.8603 18.8625 76.4587 19.1969L77.5851 19.8305C79.6267 21.0097 81.4923 23.0337 82.8123 25.3217C84.1499 27.6097 84.9596 30.2321 84.9596 32.5553Z" fill="#09243F"/>
<path fill-rule="evenodd" clip-rule="evenodd" d="M45.2176 59.5691C45.024 59.5691 44.8479 59.4811 44.7599 59.3051C44.6015 59.0587 44.6896 58.7243 44.9536 58.5835L45.0064 58.5483C46.1856 57.8619 46.8543 56.3131 46.8719 54.3067C46.8719 52.1595 46.1151 49.6251 44.7951 47.3371C43.4575 45.0491 41.6272 43.1307 39.7616 42.0571L38.6351 41.4059C38.2303 41.1771 37.8784 41.1243 37.6496 41.2651C37.3856 41.4059 37.0688 41.3179 36.9104 41.0539C36.7696 40.8075 36.8576 40.4907 37.1216 40.3323L74.6799 18.5787C75.2607 18.2619 75.9824 18.3147 76.7216 18.7371L77.8479 19.3883C79.8895 20.5499 81.8607 22.6091 83.2687 25.0555C84.7119 27.5371 85.4864 30.1947 85.4864 32.5531C85.4864 34.9819 84.5887 36.8827 83.0399 37.7627L45.5344 59.4635C45.5226 59.4752 45.505 59.4928 45.4816 59.5163C45.3994 59.5515 45.3114 59.5691 45.2176 59.5691ZM39.0751 40.4379C39.0986 40.4496 39.1279 40.4672 39.1631 40.4907L40.2896 41.1243C42.3136 42.3035 44.2848 44.3627 45.7104 46.8091C47.136 49.2731 47.9279 51.9483 47.9279 54.3067C47.9279 55.3627 47.7519 56.3307 47.4351 57.1403L82.5119 36.8299C83.7263 36.1435 84.4127 34.5947 84.4127 32.5531C84.4303 30.4059 83.6736 27.8715 82.3536 25.5835C81.0336 23.3131 79.2031 21.3771 77.3199 20.3035L76.1936 19.6523C75.7888 19.4235 75.4367 19.3707 75.2079 19.5115L39.0751 40.4379Z" fill="#00D4FF"/>
<path d="M21.845 30.4961L16.0898 33.8401Z" fill="#09243F"/>
<path d="M16.0892 34.3695C15.8956 34.3695 15.7196 34.2815 15.6316 34.1055C15.4732 33.8415 15.5612 33.5246 15.8252 33.3838L21.5804 30.0398C21.8268 29.899 22.1612 29.9871 22.302 30.2335C22.4428 30.4975 22.3724 30.8143 22.1084 30.9551L16.3532 34.2991C16.2711 34.346 16.1831 34.3695 16.0892 34.3695Z" fill="#00D4FF"/>
<path d="M22.3736 35.125L20.3496 36.3042Z" fill="#09243F"/>
<path d="M20.349 36.8335C20.173 36.8335 19.9794 36.7279 19.8914 36.5695C19.733 36.3055 19.821 35.9887 20.085 35.8303L22.109 34.6687C22.3554 34.5103 22.6898 34.5983 22.8306 34.8623C22.989 35.1087 22.901 35.4431 22.637 35.5839L20.613 36.7631C20.5309 36.8101 20.4429 36.8335 20.349 36.8335Z" fill="#00D4FF"/>
<path d="M28.497 36.4961L24.6074 38.7489Z" fill="#09243F"/>
<path d="M24.6068 39.2959C24.4308 39.2959 24.2548 39.1903 24.1492 39.0319C24.0084 38.7679 24.0964 38.451 24.3428 38.2926L28.2324 36.0399C28.4788 35.8991 28.8132 35.987 28.954 36.2334C29.1124 36.4974 29.0244 36.8142 28.7604 36.955L24.8708 39.2254C24.7887 39.2724 24.7007 39.2959 24.6068 39.2959Z" fill="#00D4FF"/>
<path d="M34.64 37.8867L28.8672 41.2131Z" fill="#09243F"/>
<path d="M28.8666 41.7601C28.6906 41.7601 28.5146 41.6544 28.409 41.4784C28.2682 41.232 28.3562 40.9152 28.6026 40.7568L34.3578 37.4304C34.6218 37.272 34.9386 37.3601 35.097 37.6241C35.2378 37.8705 35.1498 38.2049 34.9034 38.3457L29.1306 41.6721C29.0484 41.7307 28.9604 41.7601 28.8666 41.7601Z" fill="#00D4FF"/>
<path d="M44.4603 17.3477L38.7051 20.6917Z" fill="#09243F"/>
<path d="M38.7045 21.221C38.5285 21.221 38.3525 21.1154 38.2469 20.957C38.1061 20.693 38.1941 20.3762 38.4405 20.2354L44.1957 16.8914C44.4597 16.7506 44.7765 16.8386 44.9349 17.085C45.0757 17.3314 44.9877 17.6658 44.7413 17.8066L38.9685 21.1506C38.8864 21.1975 38.7984 21.221 38.7045 21.221Z" fill="#00D4FF"/>
<path d="M47.3638 20.6055L45.3398 21.7847Z" fill="#09243F"/>
<path d="M45.3393 22.314C45.1457 22.314 44.9697 22.226 44.8641 22.05C44.7233 21.786 44.8113 21.4692 45.0577 21.3284L47.0993 20.1492C47.3457 20.0084 47.6801 20.0788 47.8209 20.3428C47.9617 20.5892 47.8737 20.9236 47.6273 21.0644L45.6033 22.2436C45.5094 22.2905 45.4214 22.314 45.3393 22.314Z" fill="#00D4FF"/>
<path d="M51.1303 23.3477L48.4199 24.9141Z" fill="#09243F"/>
<path d="M48.4193 25.461C48.2257 25.461 48.0497 25.3554 47.9617 25.197C47.8033 24.933 47.8913 24.6162 48.1553 24.4578L50.8657 22.8914C51.1121 22.7506 51.4289 22.8386 51.5873 23.085C51.7281 23.349 51.6401 23.6658 51.3937 23.8066L48.6833 25.3906C48.6012 25.4376 48.5132 25.461 48.4193 25.461Z" fill="#00D4FF"/>
<path d="M57.2552 24.7383L51.5 28.0647Z" fill="#09243F"/>
<path d="M51.4994 28.594C51.3058 28.594 51.1298 28.506 51.0418 28.33C50.8834 28.0836 50.9714 27.7492 51.2354 27.6084L56.9906 24.282C57.237 24.1236 57.5714 24.2116 57.7122 24.4756C57.853 24.722 57.7826 25.0388 57.5186 25.1972L51.7634 28.5236C51.6813 28.5705 51.5933 28.594 51.4994 28.594Z" fill="#00D4FF"/>
<path fill-rule="evenodd" clip-rule="evenodd" d="M43.1065 32.713C42.6489 32.977 42.2089 33.2234 41.7513 33.4874C41.0825 33.8746 40.3081 33.9098 39.5337 33.593C39.3929 33.5402 39.2697 33.4698 39.1289 33.3994C38.7065 33.241 38.2137 33.3818 38.0729 33.6634C37.9145 33.9626 37.7913 34.3146 37.4393 34.561C36.9465 34.913 33.8313 34.8954 33.2681 34.561C32.9513 34.3498 32.8105 34.0506 32.6873 33.7866C32.6169 33.593 32.5113 33.4698 32.3881 33.3818C32.1593 33.2586 31.8601 33.3114 31.3849 33.505C30.2937 33.945 29.8009 33.9274 28.8857 33.3994C28.8505 33.3876 28.8153 33.37 28.7801 33.3466C28.7332 33.3231 28.6921 33.2996 28.6569 33.2762C28.4927 33.1823 28.3225 33.0884 28.1465 32.9946C27.994 32.9124 27.8415 32.8244 27.6889 32.7306C27.6537 32.7071 27.6186 32.6895 27.5834 32.6778C26.9322 32.2906 26.8793 31.9386 27.3897 31.4634C27.5129 31.3578 27.6889 31.2522 27.7769 31.1114C27.9177 30.953 27.9177 30.8122 27.7417 30.7066C27.6596 30.6596 27.5423 30.6244 27.3897 30.601C27.1433 30.5482 26.8617 30.5482 26.6153 30.513C26.2809 30.4778 25.9993 30.3898 25.7881 30.2666C25.5417 30.1258 25.401 29.9498 25.3834 29.721C25.3305 29.2458 25.3305 28.753 25.3834 28.2602C25.401 28.137 25.5065 28.0138 25.6121 27.873C25.7353 27.7498 25.9465 27.6442 26.1929 27.5914C26.5097 27.5386 26.8441 27.4858 27.1609 27.4506C27.8649 27.3626 28.0585 27.1338 27.6537 26.7818C27.5129 26.641 27.3545 26.5178 27.2137 26.3946C26.8969 26.0602 26.9497 25.7258 27.3897 25.4442C27.9529 25.0922 28.5337 24.7578 29.1321 24.441C29.6425 24.1594 30.2761 24.1242 30.8921 24.3354C31.1209 24.4058 31.3145 24.5114 31.5433 24.5994C32.0009 24.7754 32.4409 24.6698 32.5641 24.3706C32.6169 24.2474 32.6521 24.1066 32.6873 23.9658C32.8105 23.561 33.4265 23.2442 34.1657 23.2442C34.9167 23.2324 35.6617 23.2266 36.4009 23.2266C36.8585 23.2442 37.2105 23.3322 37.4745 23.473C37.6857 23.5962 37.8265 23.7546 37.9145 23.9482C37.9673 24.089 37.9849 24.2474 38.0377 24.4058C38.0729 24.4762 38.1316 24.5348 38.2137 24.5818C38.4073 24.705 38.7065 24.7226 39.0057 24.6346C40.7481 24.0538 40.8361 24.0362 42.1033 24.7578C42.1737 24.8047 42.25 24.8516 42.3321 24.8986C42.3556 24.9103 42.3849 24.9279 42.4201 24.9514C42.4905 24.9866 42.5609 25.0276 42.6313 25.0746C42.7369 25.1215 42.8367 25.1743 42.9305 25.233C43.0009 25.2682 43.0654 25.3092 43.1241 25.3562C43.7225 25.7434 43.7577 26.0954 43.2649 26.5354C43.1417 26.641 42.9833 26.7466 42.8601 26.8698C42.7193 27.0282 42.7721 27.2042 42.9657 27.3274C43.0361 27.3626 43.1241 27.3919 43.2297 27.4154C43.4585 27.4506 43.6697 27.4506 43.8985 27.4682C44.3209 27.5151 44.6494 27.609 44.8841 27.7498C45.1422 27.8906 45.2831 28.1018 45.3065 28.3834C45.3241 28.7706 45.3241 29.1578 45.3241 29.545C45.3065 30.0026 44.7961 30.4074 44.0217 30.513C43.8281 30.5306 43.6169 30.5482 43.4233 30.5834C42.8425 30.6538 42.6489 30.9002 42.9481 31.1818C43.0537 31.2639 43.1535 31.346 43.2473 31.4282C43.8105 31.8858 43.7753 32.2906 43.1065 32.713ZM38.2489 30.777C39.9913 29.7914 40.0089 28.2954 38.3017 27.2746C38.29 27.2628 38.2783 27.257 38.2665 27.257C36.6649 26.3242 33.9721 26.3242 32.3881 27.2218C30.6809 28.1898 30.6633 29.7562 32.3353 30.7418C32.3471 30.7535 32.3588 30.7594 32.3705 30.7594C33.9721 31.6922 36.6297 31.6922 38.2489 30.777Z" fill="#00D4FF"/>
</svg>
