<svg width="82" height="82" viewBox="0 0 82 82" fill="none" xmlns="http://www.w3.org/2000/svg">
<path d="M65.5911 76.8773C64.9187 76.8773 64.2299 76.8445 63.5903 76.7789C58.3587 76.2705 53.8815 74.8437 50.2899 72.4985C46.0423 69.7433 43.0575 65.6433 42.1063 61.2481C42.0571 60.9857 42.2211 60.7233 42.4999 60.6577C42.7623 60.6085 43.0247 60.7725 43.0739 61.0513C43.9759 65.1841 46.7967 69.0545 50.8311 71.6621C54.2915 73.9253 58.6211 75.3029 63.6887 75.7949C65.6895 75.9753 67.9691 76.0245 69.7075 74.8765C70.9211 74.0729 71.8395 72.7281 72.6267 70.6453C74.5455 65.5285 74.5291 59.5097 72.5775 54.1305C70.7243 48.9809 67.1163 44.2905 62.4095 40.9449C61.8027 40.5021 61.1795 40.0921 60.5563 39.6657C57.6863 37.7469 54.7179 35.7625 53.5699 32.4825C52.4383 29.2189 53.5371 25.2173 56.3743 22.2981C59.0803 19.5101 62.7867 18.0505 65.7387 17.0829C65.9847 17.0009 66.2635 17.1321 66.3619 17.3945C66.4439 17.6569 66.2963 17.9357 66.0339 18.0177C63.2131 18.9525 59.6379 20.3629 57.0959 22.9869C54.5047 25.6437 53.5043 29.2517 54.5047 32.1545C55.5379 35.1229 58.3587 37.0089 61.0975 38.8457C61.7371 39.2721 62.3767 39.6985 62.9835 40.1249C67.8543 43.6017 71.5935 48.4561 73.5123 53.7861C75.5295 59.3949 75.5459 65.6597 73.5615 70.9897C72.6923 73.2857 71.6427 74.7781 70.2487 75.6965C68.8547 76.6313 67.1983 76.8773 65.5911 76.8773Z" fill="black"/>
<path d="M62.6232 65.577C64.2796 61.0506 61.7212 56.0322 56.5552 50.6858C49.9624 44.2406 43.0908 39.583 35.9404 36.5162C30.6104 34.2202 24.7392 33.3018 19.032 34.3678C15.2272 35.0566 11.9144 36.467 9.14279 38.599C6.17439 40.8622 4.23919 44.2898 4.10799 48.0126C4.02599 50.4726 4.73118 52.4242 6.09238 54.5234C6.66092 55.409 7.26225 56.2728 7.89638 57.1146C10.7336 60.8702 14.2104 64.101 18.0152 66.8726L21.6232 69.4966C23.296 70.7102 24.9196 72.0058 26.4284 73.4162C29.9872 76.729 33.2344 79.0086 35.9568 79.5662C45.7312 81.977 59.6712 76.237 62.6232 65.577Z" fill="white"/>
<path d="M63.1148 62.5581C63.1476 63.5749 62.9836 64.5917 62.6228 65.5757C59.6708 76.2357 45.7308 81.9757 35.9564 79.5649C33.234 79.0073 29.9868 76.7441 26.428 73.4149C24.9192 72.0045 23.2956 70.7089 21.6228 69.4953L18.0148 66.8713C14.21 64.0997 10.7332 60.8689 7.91238 57.1133C7.26731 56.2714 6.66051 55.4077 6.09197 54.5221C5.43597 53.5053 4.94398 52.5377 4.59958 51.5209C4.23878 50.4385 4.05838 49.2905 4.10758 48.0113C4.22238 44.2721 6.17398 40.8609 9.14238 38.5977C11.914 36.4657 15.2268 35.0553 19.0316 34.3501C24.7552 33.3005 30.61 34.2189 35.9564 36.4985C43.0904 39.5817 49.962 44.2393 56.5548 50.6845C60.5892 54.8665 63.0492 58.8517 63.1148 62.5581Z" fill="white"/>
<path d="M63.1148 62.5594C63.1476 63.5926 62.9836 64.593 62.6228 65.577C59.6708 76.237 45.7308 81.977 35.9564 79.5662C33.234 79.0086 29.9868 76.7454 26.428 73.4162C24.9192 72.0058 23.2956 70.7266 21.6228 69.4966L18.0148 66.8726C14.21 64.1174 10.7332 60.8702 7.89597 57.1146C7.26184 56.2727 6.66051 55.409 6.09197 54.5234C5.43597 53.5066 4.92758 52.539 4.59958 51.5386C4.23878 50.4398 4.05838 49.2918 4.10758 48.0126C4.22238 44.2898 6.17398 40.8622 9.14238 38.599C9.42118 38.3858 9.69998 38.1726 9.99518 37.9922C11.4384 45.2082 16.2108 53.113 23.6728 59.4926C36.9404 70.8414 53.6028 73.0882 60.9336 64.5438C61.7864 63.5434 62.4588 62.4446 63 61.2638C63.0656 61.7066 63.0984 62.133 63.1148 62.5594Z" fill="#E9EDF4"/>
<path fill-rule="evenodd" clip-rule="evenodd" d="M40.5657 80.5829C38.9257 80.5829 37.3349 80.4189 35.8425 80.0417C33.2349 79.5169 30.0533 77.4669 26.1009 73.7769C24.7069 72.4813 23.1489 71.2185 21.3449 69.8901L17.7205 67.2661C13.6533 64.3141 10.2093 61.0013 7.50329 57.4097C6.84729 56.5405 6.24048 55.6713 5.68288 54.7857C4.15768 52.4241 3.53449 50.3905 3.61649 47.9961C3.73129 44.2241 5.63369 40.6489 8.83169 38.2053C11.6525 36.0405 15.0473 34.5973 18.9505 33.8757C24.4937 32.8425 30.4469 33.5969 36.1377 36.0569C43.4357 39.1893 50.4221 43.9945 56.9001 50.3413C62.6729 56.2945 64.7065 61.3293 63.0993 65.7245C60.5245 74.9741 49.7825 80.5829 40.5657 80.5829ZM23.8541 34.4169C22.2469 34.4169 20.6725 34.5645 19.1145 34.8433C15.3753 35.5321 12.1281 36.9261 9.43849 38.9925C6.48649 41.2557 4.71529 44.5521 4.60049 48.0289C4.53489 50.2101 5.10888 52.0797 6.50288 54.2609C7.06048 55.1137 7.65088 55.9665 8.30688 56.8193C10.9473 60.3125 14.3093 63.5597 18.3109 66.4625L21.9189 69.0865C23.7721 70.4313 25.3465 71.7269 26.7733 73.0553C30.5781 76.6141 33.6285 78.5821 36.0557 79.0741C45.5349 81.4029 59.2617 75.8433 62.1481 65.4457C62.159 65.4347 62.1645 65.4183 62.1645 65.3965C63.6241 61.3949 61.6725 56.6881 56.2113 51.0465C49.8153 44.7981 42.9273 40.0585 35.7441 36.9589C31.8245 35.2861 27.7901 34.4169 23.8541 34.4169Z" fill="black"/>
<path fill-rule="evenodd" clip-rule="evenodd" d="M40.5651 80.5838C38.9251 80.6002 37.3343 80.4198 35.8419 80.0426C33.2343 79.5178 30.0527 77.4678 26.1003 73.7778C24.7555 72.5314 23.1975 71.2522 21.3443 69.9074L17.7199 67.267C13.6363 64.2986 10.2087 60.9858 7.50271 57.4106C6.86311 56.5578 6.23991 55.6722 5.68231 54.7866C4.96071 53.6714 4.45231 52.671 4.12431 51.687C3.73071 50.5062 3.56671 49.309 3.61591 47.997C3.73071 44.225 5.63311 40.6498 8.83111 38.2062C11.6519 36.0414 15.0467 34.5818 18.9499 33.8766C24.4931 32.8434 30.4463 33.6142 36.1535 36.0578C43.4515 39.1902 50.4379 44.0118 56.8995 50.3422C61.3439 54.9342 63.5415 58.9358 63.6071 62.5438C63.6399 63.6262 63.4595 64.7086 63.0987 65.7418C60.5239 74.975 49.7983 80.5838 40.5651 80.5838ZM23.8535 34.4178C22.2463 34.4178 20.6719 34.5654 19.1303 34.8442C15.3911 35.533 12.1275 36.927 9.43791 38.9934C6.46951 41.2566 4.71471 44.553 4.59991 48.0298C4.56711 49.2106 4.71472 50.3094 5.07552 51.3754C5.37072 52.2774 5.84631 53.2122 6.50231 54.2618C7.05991 55.1146 7.66671 55.9674 8.30631 56.8202C10.9303 60.3134 14.3087 63.5606 18.3103 66.4634L21.9183 69.1038C23.8207 70.4814 25.4115 71.777 26.7727 73.0562C30.5775 76.615 33.6115 78.583 36.0551 79.075C45.5343 81.4038 59.2611 75.8442 62.1475 65.4466C62.4919 64.4954 62.6395 63.5278 62.6231 62.5602C62.5575 59.2146 60.4583 55.4426 56.1943 51.031C49.8311 44.799 42.9431 40.0594 35.7599 36.9598C31.8239 35.2706 27.7895 34.4178 23.8535 34.4178Z" fill="black"/>
<path d="M63.1148 62.5606C63.1476 63.5774 62.9836 64.5942 62.6228 65.5782C59.6708 76.2382 45.7308 81.9782 35.9564 79.5674C33.234 79.0098 29.9868 76.7466 26.428 73.4174C24.9192 72.007 23.2956 70.7114 21.6228 69.4978L18.0148 66.8738C14.21 64.1022 10.7332 60.8714 7.91241 57.1158C7.26734 56.274 6.66054 55.4102 6.09201 54.5246C5.43601 53.5078 4.94401 52.5402 4.59961 51.5234L4.78001 51.589C5.69841 51.835 6.61681 51.999 7.55161 52.1138C8.38801 52.2286 9.71641 52.5074 11.6024 53.2454C13.5376 54.0162 15.3252 55.1314 16.8996 56.509C19.3924 58.7066 22.0164 61.6586 24.7716 65.3158C26.0672 67.087 27.3792 68.6942 28.7076 70.1374C35.1528 77.1402 45.78 78.6162 53.7996 73.483C55.1936 72.5974 56.768 71.5478 58.0472 70.3506C60.6712 67.8414 62.4752 65.775 63.1148 62.5606Z" fill="#6461EE"/>
<path d="M62.836 64.8887C62.7868 65.1183 62.7212 65.3315 62.6392 65.5775C59.6708 76.2375 45.7308 81.9611 35.9564 79.5667C33.234 79.0091 29.9868 76.7459 26.4444 73.4167C24.9192 72.0063 23.312 70.7107 21.6228 69.4971L18.0148 66.8731C14.21 64.1179 10.7496 60.8707 7.89601 57.1151C7.27281 56.2787 6.64961 55.4095 6.09201 54.5239C5.45241 53.5071 4.94401 52.5395 4.59961 51.5391L4.78001 51.5719C5.30481 51.7195 5.82961 51.8343 6.33801 51.9327C6.45827 52.1404 6.58948 52.3536 6.73161 52.5723C7.28921 53.4579 7.89601 54.3107 8.53561 55.1635C11.3728 58.9027 14.8496 62.1499 18.638 64.9215L22.2624 67.5455C23.9352 68.7591 25.5588 70.0383 27.0676 71.4487C30.6264 74.7779 33.8572 77.0575 36.596 77.5987C45.9604 79.9111 59.1788 74.7287 62.836 64.8887Z" fill="#178EE8"/>
<path d="M63.1152 62.5586V62.7062C63.0824 62.7718 63.0551 62.8319 63.0332 62.8866C63.066 62.7882 63.0824 62.6734 63.1152 62.5586Z" fill="#178EE8"/>
<path fill-rule="evenodd" clip-rule="evenodd" d="M40.566 80.5822C38.926 80.5822 37.3352 80.4182 35.8428 80.041C33.2352 79.5162 30.0536 77.4662 26.1012 73.7762C24.7564 72.5298 23.1984 71.2506 21.3452 69.9058L17.7208 67.2654C13.6372 64.297 10.2096 60.9842 7.50364 57.409C6.86404 56.5562 6.24083 55.6706 5.68323 54.785C4.96163 53.6698 4.45323 52.6694 4.12523 51.6854C4.07603 51.505 4.10883 51.3246 4.24003 51.1934C4.37123 51.0458 4.55163 50.9966 4.73203 51.0458L4.92884 51.095C5.71604 51.3246 6.56884 51.4886 7.61844 51.6198C8.43844 51.7346 9.81603 52.0134 11.784 52.7842C13.7192 53.555 15.556 54.6866 17.2288 56.1462C19.7052 58.3274 22.3784 61.3122 25.1664 65.0186C26.4784 66.8062 27.7904 68.4134 29.0696 69.791C35.4164 76.6954 45.7156 78.073 53.5384 73.071C54.8996 72.1854 56.474 71.1522 57.704 69.9878C60.5084 67.3146 62.05 65.4122 62.624 62.4602C62.6732 62.2142 62.8864 62.0502 63.1652 62.0502C63.4112 62.083 63.608 62.2798 63.608 62.5422C63.6408 63.6246 63.4604 64.707 63.0996 65.7402C60.5248 74.9734 49.7992 80.5822 40.566 80.5822ZM5.42084 52.243C5.69964 52.8826 6.06043 53.5386 6.50323 54.2602C7.06083 55.113 7.66763 55.9658 8.30723 56.8186C10.9312 60.3118 14.3096 63.559 18.3112 66.4618L21.9192 69.1022C23.8216 70.4798 25.4124 71.7754 26.7736 73.0546C30.5784 76.6134 33.6124 78.5814 36.056 79.0734C44.9284 81.2546 57.54 76.515 61.476 67.3638C60.5904 68.5446 59.5244 69.6106 58.3928 70.693C57.0972 71.9394 55.4736 73.0054 54.0796 73.891C45.8468 79.1554 35.0228 77.7286 28.348 70.4634C27.036 69.053 25.7076 67.413 24.3628 65.609C21.624 61.9518 19 59.0162 16.5728 56.8842C14.982 55.5066 13.26 54.4242 11.4232 53.719C9.55363 52.981 8.25803 52.7022 7.48723 52.6038C6.71643 52.5054 6.04404 52.3906 5.42084 52.243Z" fill="black"/>
<path d="M57.2279 71.5648C57.0639 71.5648 56.8999 71.4828 56.8015 71.3188C56.6375 71.0728 40.7295 45.1608 23.4275 38.1252C23.1815 38.0268 23.0503 37.7316 23.1651 37.4856C23.2635 37.2232 23.5587 37.1084 23.8047 37.2068C41.4019 44.3736 57.4903 70.548 57.6543 70.8104C57.7855 71.04 57.7199 71.3516 57.4903 71.4992C57.4028 71.5429 57.3153 71.5648 57.2279 71.5648Z" fill="black"/>
<path d="M51.5863 54.7853C55.4567 59.7709 56.8179 65.1829 54.6039 66.9049C52.4063 68.6269 47.4699 65.9865 43.5995 61.0009C39.7291 56.0317 38.3679 50.6033 40.5819 48.8977C42.7795 47.1757 47.6995 49.8161 51.5863 54.7853Z" fill="white"/>
<path fill-rule="evenodd" clip-rule="evenodd" d="M52.9309 67.9224C51.9305 67.9224 50.7661 67.5944 49.5033 66.9056C47.3549 65.7576 45.1245 63.7732 43.2221 61.3132C41.3033 58.8532 39.9093 56.1964 39.3353 53.8512C38.7121 51.3584 39.0401 49.456 40.2701 48.5048C41.5001 47.5372 43.4353 47.6848 45.6821 48.8984C47.8305 50.0464 50.0609 52.0308 51.9797 54.4908C56.0797 59.7552 57.3753 65.3804 54.9153 67.2992C54.3741 67.7256 53.7017 67.9224 52.9309 67.9224ZM42.2709 48.8656C41.7133 48.8656 41.2377 49.0132 40.8769 49.292C39.9913 49.9808 39.7781 51.5552 40.2865 53.6052C40.8441 55.8356 42.1561 58.3448 43.9929 60.7064C45.8297 63.0516 47.9453 64.954 49.9625 66.0364C51.8321 67.0368 53.4229 67.2172 54.3085 66.5284C56.2601 65.0032 54.8333 59.7716 51.1925 55.0976C49.3557 52.736 47.2401 50.85 45.2229 49.7676C44.1077 49.1772 43.0909 48.8656 42.2709 48.8656Z" fill="black"/>
<path d="M52.1109 63.2335C52.1109 64.9555 51.5533 66.2183 50.6349 66.9071C50.1593 66.6939 49.6509 66.4479 49.1425 66.1199C49.1425 66.1199 49.1425 66.0871 49.1589 66.0707C49.1917 65.9067 49.2081 65.7427 49.2245 65.5787C49.2409 65.3491 49.2573 65.1195 49.2573 64.8899C49.2573 63.6927 48.9949 62.4135 48.5357 61.1671C48.3553 60.6587 48.1257 60.1667 47.8797 59.6747C47.3877 58.7071 46.7809 57.7723 46.0921 56.9359C45.9281 56.7391 45.7477 56.5423 45.5673 56.3455C45.3924 56.1597 45.2065 55.9793 45.0097 55.8043C44.4521 55.2631 43.8617 54.8039 43.2221 54.4595C42.2545 53.8855 41.3361 53.6231 40.5161 53.6231C40.3685 53.6231 40.2373 53.6395 40.1061 53.6559C40.0077 53.6723 39.9093 53.6723 39.8109 53.7051C39.7945 53.6559 39.7781 53.6067 39.7617 53.5411L41.7789 52.3767C42.8941 51.7371 44.4029 51.8191 46.0757 52.7867C49.4213 54.7219 52.1273 59.3959 52.1109 63.2335Z" fill="#6461EE"/>
<path fill-rule="evenodd" clip-rule="evenodd" d="M50.6349 67.3974C50.5693 67.3974 50.5037 67.381 50.4381 67.3482C49.8313 67.0858 49.3393 66.8234 48.8801 66.5446C48.7325 66.4462 48.6505 66.2986 48.6505 66.1182C48.6505 66.0854 48.6669 66.0362 48.6669 65.987C48.6997 65.8394 48.7161 65.6918 48.7325 65.5278C48.7489 65.3146 48.7653 65.1014 48.7653 64.8882C48.7653 63.773 48.5193 62.543 48.0765 61.3294C47.9125 60.8866 47.6993 60.4274 47.4369 59.8862C46.9449 58.9186 46.3709 58.033 45.7149 57.2622C45.5509 57.0654 45.3869 56.885 45.2065 56.6882C45.0425 56.5133 44.8675 56.3383 44.6817 56.1634C44.1077 55.6222 43.5501 55.2122 42.9761 54.8842C41.9757 54.2938 40.9753 54.0642 40.1553 54.1462C40.0787 54.1571 40.0022 54.168 39.9257 54.179C39.6469 54.2446 39.3845 54.0806 39.3189 53.8182L39.2861 53.6378C39.2369 53.4246 39.3353 53.2278 39.5157 53.113L41.5329 51.9486C42.8613 51.1778 44.5505 51.3254 46.3381 52.3586C49.8149 54.3758 52.6193 59.2466 52.6193 63.2318C52.6029 65.0522 52.0125 66.4954 50.9301 67.299C50.8481 67.3646 50.7497 67.3974 50.6349 67.3974ZM49.6837 65.8722C49.9461 66.0198 50.2413 66.1674 50.5529 66.315C51.2417 65.6754 51.6025 64.593 51.6189 63.2318C51.6353 59.5582 49.0441 55.081 45.8297 53.2278C44.3865 52.375 43.0253 52.2274 42.0413 52.8014L41.3361 53.2114C42.0249 53.3262 42.7465 53.605 43.4845 54.0314C44.1077 54.3758 44.7145 54.8514 45.3541 55.4254C45.5618 55.6222 45.7531 55.819 45.9281 56.0158C46.1139 56.2126 46.2943 56.4094 46.4693 56.6062C47.1745 57.459 47.7977 58.4102 48.3225 59.4434C48.6177 60.0174 48.8309 60.5094 48.9949 61.0014C49.4869 62.3134 49.7493 63.6582 49.7493 64.8882C49.7493 65.1342 49.7493 65.3802 49.7165 65.6262C49.7055 65.7027 49.6946 65.7847 49.6837 65.8722Z" fill="black"/>
<path d="M49.257 64.8879C49.257 65.1175 49.2406 65.3471 49.2242 65.5767C49.2078 65.7407 49.1913 65.9047 49.1585 66.0687C49.1421 66.0851 49.1422 66.1179 49.1422 66.1179C47.3218 65.0355 45.3538 63.2479 43.6154 61.0175C41.6638 58.5083 40.3517 55.9007 39.8105 53.7031C39.9089 53.6703 40.0074 53.6703 40.1058 53.6539C40.237 53.6375 40.3682 53.6211 40.5158 53.6211C41.3358 53.6211 42.2542 53.8835 43.2218 54.4575C43.8614 54.8019 44.4518 55.2611 45.0094 55.8023C45.2062 55.9772 45.392 56.1576 45.567 56.3435C45.7474 56.5403 45.9278 56.7371 46.0918 56.9339C46.7806 57.7703 47.3874 58.7051 47.8794 59.6727C48.1418 60.1483 48.355 60.6567 48.5354 61.1651C48.9946 62.4115 49.257 63.6907 49.257 64.8879Z" fill="white"/>
<path fill-rule="evenodd" clip-rule="evenodd" d="M49.1431 66.6261C49.0556 66.6261 48.9736 66.5988 48.8971 66.5441C46.9619 65.3961 44.9611 63.5429 43.2227 61.3125C41.2875 58.8361 39.8935 56.1793 39.3195 53.8177C39.2867 53.6865 39.3195 53.5553 39.3851 53.4405C39.4507 53.3257 39.5655 53.2437 39.6803 53.2273C39.8115 53.1945 39.9263 53.1781 40.0411 53.1617C40.2215 53.1453 40.3691 53.1289 40.5167 53.1289C41.4679 53.1289 42.4519 53.4241 43.4851 54.0309C44.1083 54.3753 44.7151 54.8509 45.3547 55.4249C45.5624 55.6217 45.7538 55.8185 45.9287 56.0153C46.1146 56.2121 46.295 56.4089 46.4699 56.6057C47.1751 57.4585 47.7983 58.4097 48.3231 59.4429C48.5527 59.8857 48.7823 60.3777 48.9955 61.0009C49.4875 62.3129 49.7499 63.6577 49.7499 64.8877C49.7499 65.1337 49.7499 65.3797 49.7171 65.6257C49.7007 65.7897 49.6843 65.9701 49.6515 66.1341C49.6515 66.156 49.646 66.1724 49.6351 66.1833C49.6187 66.3473 49.5367 66.4785 49.3891 66.5605C49.3126 66.6042 49.2306 66.6261 49.1431 66.6261ZM40.4347 54.1293C41.0415 56.2121 42.3043 58.5245 43.9935 60.7057C45.4695 62.5917 47.1259 64.1825 48.7495 65.2813C48.7604 65.1501 48.7659 65.0189 48.7659 64.8877C48.7659 63.7725 48.5199 62.5425 48.0771 61.3289C47.8639 60.7713 47.6671 60.3121 47.4375 59.9021C46.9455 58.9181 46.3715 58.0325 45.7155 57.2617C45.5515 57.0649 45.3875 56.8845 45.2071 56.6877C45.0431 56.5128 44.8682 56.3378 44.6823 56.1629C44.1083 55.6217 43.5507 55.2117 42.9767 54.8837C42.0747 54.3589 41.2383 54.0965 40.4347 54.1293Z" fill="black"/>
<path d="M73.4804 5.03031C70.8236 3.48871 67.1336 3.70191 63.0501 6.04711C54.9813 10.7047 48.4376 21.9879 48.4704 31.2703C48.4868 35.8787 50.1104 39.1095 52.7344 40.6347L48.9132 38.4207C46.2728 36.8955 44.6492 33.6647 44.6328 29.0399C44.6164 19.7739 51.1436 8.49071 59.2288 3.83311C63.296 1.48791 66.986 1.25831 69.6428 2.79991L73.4804 5.03031Z" fill="#6461EE"/>
<path fill-rule="evenodd" clip-rule="evenodd" d="M52.7343 41.1426C52.6468 41.1426 52.5648 41.1153 52.4883 41.0606L48.6671 38.8466C45.7643 37.1574 44.1571 33.6806 44.1407 29.0394C44.1243 19.6258 50.7827 8.12941 58.9827 3.38981C63.0827 1.02821 66.9531 0.667404 69.8887 2.373L73.7263 4.60341C73.9559 4.73461 74.0379 5.04621 73.9067 5.27581C73.7755 5.52181 73.4639 5.58741 73.2343 5.45621H73.2179C70.6103 3.93101 67.0843 4.3082 63.2959 6.473C55.3747 11.0486 48.9459 22.1678 48.9623 31.2698C48.9787 35.5338 50.4055 38.699 52.9803 40.2078C53.2263 40.3554 53.3083 40.6506 53.1607 40.8802C53.0787 41.0442 52.8983 41.1426 52.7343 41.1426ZM65.805 2.30741C63.8699 2.30741 61.7215 2.9634 59.4747 4.259C51.5371 8.8346 45.1083 19.9538 45.1411 29.0394C45.1411 33.3198 46.5679 36.485 49.1591 37.9938L49.6839 38.289C48.5687 36.4686 47.9783 34.0906 47.9783 31.2698C47.9455 21.8562 54.6039 10.3434 62.8039 5.62021C65.3295 4.17701 67.7239 3.47181 69.9379 3.55381L69.3967 3.24221C68.3307 2.61901 67.1171 2.30741 65.805 2.30741Z" fill="black"/>
<path d="M63.0504 6.04624C71.152 1.38864 77.7284 5.12784 77.7448 14.4102C77.7612 20.3634 75.0716 27.1694 70.9716 32.5158C68.7248 35.4678 66.0352 37.9606 63.1488 39.617C60.2788 41.2734 57.5892 41.8802 55.326 41.5358C51.2096 40.9126 48.4872 37.239 48.4708 31.2694C48.438 21.987 54.9652 10.7038 63.0504 6.04624Z" fill="white"/>
<path d="M77.744 14.3947C77.7604 20.3643 75.0708 27.1703 70.9708 32.5003C68.7076 35.4687 66.0344 37.9615 63.148 39.6179C60.2616 41.2743 57.5884 41.8811 55.3252 41.5367C52.8324 41.1595 50.848 39.6671 49.6836 37.2235C51.2252 37.5843 52.8324 37.7975 54.4888 37.7975C65.6244 37.7975 74.6608 28.7775 74.6608 17.6583C74.6608 12.4103 72.66 7.63787 69.38 4.04627C74.3 3.91507 77.7276 7.70347 77.744 14.3947Z" fill="#E9EDF4"/>
<path fill-rule="evenodd" clip-rule="evenodd" d="M56.5886 42.1261C56.1294 42.1261 55.6812 42.0933 55.2438 42.0277C50.701 41.3389 47.995 37.3209 47.9786 31.2693C47.9458 21.8557 54.6042 10.3429 62.8042 5.61966C66.9042 3.25806 70.7746 2.89725 73.7102 4.58645C76.613 6.25925 78.2366 9.75246 78.2366 14.3937C78.253 20.2813 75.6946 27.1692 71.365 32.8108C69.0034 35.9104 66.2482 38.4197 63.3946 40.0597C61.033 41.4209 58.7042 42.1261 56.5886 42.1261ZM69.6266 4.53725C67.7078 4.53725 65.543 5.17685 63.2962 6.47245C55.375 11.0481 48.9298 22.1673 48.9626 31.2693C48.979 36.7797 51.3898 40.4369 55.3914 41.0437C57.6382 41.3717 60.213 40.7321 62.9026 39.1905C65.6414 37.6161 68.2818 35.2053 70.5778 32.2041C74.7762 26.7429 77.269 20.0845 77.2526 14.4101C77.2362 10.1133 75.8094 6.93165 73.2182 5.43925C72.1522 4.83245 70.9386 4.53725 69.6266 4.53725Z" fill="black"/>
<path d="M63.082 12.1341C68.2316 9.16568 72.4136 11.5601 72.43 17.4641C72.4464 23.3681 68.2972 30.5677 63.1312 33.5361C57.9817 36.5045 53.7997 34.1101 53.7833 28.2061C53.7669 22.3021 57.9324 15.1025 63.082 12.1341Z" fill="#6461EE"/>
<path d="M66.8534 10.8859C69.4774 14.1003 70.2482 18.9219 68.4606 23.4319C66.0334 29.5819 59.7522 32.9275 54.209 31.1399C55.3898 34.8135 58.9486 35.9451 63.1306 33.5343C68.2966 30.5659 72.4458 23.3663 72.4458 17.4623C72.4294 13.0999 70.1334 10.6563 66.8534 10.8859Z" fill="#178EE8"/>
<path fill-rule="evenodd" clip-rule="evenodd" d="M58.9492 35.306C57.9816 35.306 57.0632 35.0764 56.2596 34.6172C54.3572 33.5184 53.2912 31.2388 53.2912 28.2048C53.2584 22.1532 57.5552 14.7568 62.836 11.7064C65.4928 10.1812 68.0184 9.93516 69.9536 11.0504C71.8724 12.1492 72.922 14.4288 72.9384 17.4628C72.9548 23.5144 68.658 30.9272 63.3936 33.9612C61.8356 34.8632 60.3268 35.306 58.9492 35.306ZM63.328 12.5756C58.326 15.4456 54.2588 22.4648 54.2752 28.2048C54.2752 30.8616 55.1608 32.846 56.768 33.7644C58.3752 34.6828 60.5564 34.4532 62.8852 33.1084C67.9036 30.222 71.9544 23.2028 71.938 17.4628C71.938 14.806 71.0524 12.8216 69.4616 11.9196C67.8544 10.9848 65.6732 11.2144 63.328 12.5756Z" fill="black"/>
<path fill-rule="evenodd" clip-rule="evenodd" d="M65.4434 22.1711C65.6621 22.357 65.7714 22.7068 65.7714 23.2207C65.7714 23.6362 65.6785 24.068 65.4926 24.5163C65.2958 24.9646 65.017 25.391 64.6562 25.7955C64.3063 26.2 63.8909 26.5554 63.4098 26.8615L63.4262 27.6815C63.4262 27.7908 63.3934 27.8947 63.3278 27.9931C63.2731 28.0915 63.1966 28.168 63.0982 28.2227C63.0107 28.2774 62.9397 28.2883 62.885 28.2555C62.8303 28.2227 62.803 28.1516 62.803 28.0423L62.7866 27.2059C62.0541 27.5776 61.3653 27.7908 60.7202 27.8455C60.6437 27.8564 60.5781 27.8346 60.5234 27.7799C60.4687 27.7252 60.4414 27.6432 60.4414 27.5339C60.4414 27.4027 60.4797 27.266 60.5562 27.1239C60.6327 26.9818 60.7311 26.8724 60.8514 26.7959C60.917 26.7631 60.9826 26.7412 61.0482 26.7303C61.6058 26.6975 62.1853 26.5226 62.7866 26.2055V23.4995C62.3165 23.6307 61.9229 23.7072 61.6058 23.7291C61.2887 23.74 61.0263 23.658 60.8186 23.4831C60.5999 23.2972 60.4906 22.9747 60.4906 22.5155C60.4906 22.111 60.5781 21.6846 60.753 21.2363C60.9279 20.799 61.1849 20.3671 61.5238 19.9407C61.8737 19.5143 62.2891 19.1371 62.7702 18.8091V17.9891C62.7702 17.8907 62.7975 17.7868 62.8522 17.6775C62.9069 17.5791 62.9834 17.5026 63.0818 17.4479C63.1693 17.3932 63.2403 17.3878 63.295 17.4315C63.3606 17.4643 63.3934 17.5299 63.3934 17.6283V18.4319C64.0603 18.082 64.6562 17.8688 65.181 17.7923C65.3669 17.7595 65.4598 17.8634 65.4598 18.1039C65.4598 18.2242 65.4215 18.3608 65.345 18.5139C65.2794 18.656 65.181 18.7599 65.0498 18.8255C65.017 18.8583 64.9623 18.8747 64.8858 18.8747C64.4266 18.9622 63.9291 19.148 63.3934 19.4323L63.4098 22.2203C63.9018 22.0672 64.3063 21.9743 64.6234 21.9415C64.9514 21.9196 65.2247 21.9962 65.4434 22.1711ZM63.4098 25.8447C64.3719 25.2106 64.853 24.489 64.853 23.6799C64.853 23.3738 64.7327 23.2043 64.4922 23.1715C64.2517 23.1496 63.8909 23.1988 63.4098 23.3191V25.8447ZM62.7702 22.4007V19.8259C62.3547 20.1211 62.0267 20.4491 61.7862 20.8099C61.5347 21.1816 61.4145 21.5479 61.4254 21.9087C61.4254 22.2476 61.5402 22.4444 61.7698 22.4991C61.9994 22.5538 62.3329 22.521 62.7702 22.4007Z" fill="black"/>
</svg>
