<svg width="56" height="56" viewBox="0 0 56 56" fill="none" xmlns="http://www.w3.org/2000/svg">
<rect width="56" height="56" rx="12" fill="url(#paint0_linear_241_1689)" fill-opacity="0.9"/>
<path d="M26.2806 29.7194C26.3504 29.789 26.4057 29.8717 26.4434 29.9628C26.4812 30.0538 26.5006 30.1514 26.5006 30.25C26.5006 30.3486 26.4812 30.4462 26.4434 30.5372C26.4057 30.6283 26.3504 30.711 26.2806 30.7806L23.8103 33.25L25.5306 34.9694C25.6356 35.0743 25.7072 35.208 25.7361 35.3535C25.7651 35.4991 25.7503 35.65 25.6935 35.7871C25.6367 35.9242 25.5404 36.0414 25.417 36.1238C25.2935 36.2062 25.1484 36.2501 25 36.25H20.5C20.3011 36.25 20.1103 36.171 19.9697 36.0303C19.829 35.8897 19.75 35.6989 19.75 35.5V31C19.7499 30.8516 19.7938 30.7065 19.8762 30.583C19.9586 30.4596 20.0758 30.3633 20.2129 30.3065C20.35 30.2497 20.5009 30.2349 20.6465 30.2639C20.792 30.2928 20.9257 30.3644 21.0306 30.4694L22.75 32.1897L25.2194 29.7194C25.289 29.6496 25.3717 29.5943 25.4628 29.5566C25.5538 29.5188 25.6514 29.4994 25.75 29.4994C25.8486 29.4994 25.9462 29.5188 26.0372 29.5566C26.1283 29.5943 26.211 29.6496 26.2806 29.7194ZM23.8103 22.75L25.5306 21.0306C25.6356 20.9257 25.7072 20.792 25.7361 20.6465C25.7651 20.5009 25.7503 20.35 25.6935 20.2129C25.6367 20.0758 25.5404 19.9586 25.417 19.8762C25.2935 19.7938 25.1484 19.7499 25 19.75H20.5C20.3011 19.75 20.1103 19.829 19.9697 19.9697C19.829 20.1103 19.75 20.3011 19.75 20.5V25C19.7499 25.1484 19.7938 25.2935 19.8762 25.417C19.9586 25.5404 20.0758 25.6367 20.2129 25.6935C20.35 25.7503 20.5009 25.7651 20.6465 25.7361C20.792 25.7072 20.9257 25.6356 21.0306 25.5306L22.75 23.8103L25.2194 26.2806C25.3601 26.4214 25.551 26.5004 25.75 26.5004C25.949 26.5004 26.1399 26.4214 26.2806 26.2806C26.4214 26.1399 26.5004 25.949 26.5004 25.75C26.5004 25.551 26.4214 25.3601 26.2806 25.2194L23.8103 22.75ZM35.5 19.75H31C30.8516 19.7499 30.7065 19.7938 30.583 19.8762C30.4596 19.9586 30.3633 20.0758 30.3065 20.2129C30.2497 20.35 30.2349 20.5009 30.2639 20.6465C30.2928 20.792 30.3644 20.9257 30.4694 21.0306L32.1897 22.75L29.7194 25.2194C29.5786 25.3601 29.4996 25.551 29.4996 25.75C29.4996 25.949 29.5786 26.1399 29.7194 26.2806C29.8601 26.4214 30.051 26.5004 30.25 26.5004C30.449 26.5004 30.6399 26.4214 30.7806 26.2806L33.25 23.8103L34.9694 25.5306C35.0743 25.6356 35.208 25.7072 35.3535 25.7361C35.4991 25.7651 35.65 25.7503 35.7871 25.6935C35.9242 25.6367 36.0414 25.5404 36.1238 25.417C36.2062 25.2935 36.2501 25.1484 36.25 25V20.5C36.25 20.3011 36.171 20.1103 36.0303 19.9697C35.8897 19.829 35.6989 19.75 35.5 19.75ZM35.7869 30.3072C35.6498 30.2503 35.499 30.2354 35.3535 30.2643C35.208 30.2931 35.0743 30.3645 34.9694 30.4694L33.25 32.1897L30.7806 29.7194C30.6399 29.5786 30.449 29.4996 30.25 29.4996C30.051 29.4996 29.8601 29.5786 29.7194 29.7194C29.5786 29.8601 29.4996 30.051 29.4996 30.25C29.4996 30.449 29.5786 30.6399 29.7194 30.7806L32.1897 33.25L30.4694 34.9694C30.3644 35.0743 30.2928 35.208 30.2639 35.3535C30.2349 35.4991 30.2497 35.65 30.3065 35.7871C30.3633 35.9242 30.4596 36.0414 30.583 36.1238C30.7065 36.2062 30.8516 36.2501 31 36.25H35.5C35.6989 36.25 35.8897 36.171 36.0303 36.0303C36.171 35.8897 36.25 35.6989 36.25 35.5V31C36.25 30.8517 36.206 30.7067 36.1235 30.5834C36.0411 30.46 35.9239 30.3639 35.7869 30.3072Z" fill="white"/>
<defs>
<linearGradient id="paint0_linear_241_1689" x1="3.12425" y1="3.13739" x2="54.3643" y2="37.6734" gradientUnits="userSpaceOnUse">
<stop offset="0.168198" stop-color="#5FBAFD"/>
<stop offset="0.984375" stop-color="#2B6CEB"/>
</linearGradient>
</defs>
</svg>
