<svg width="56" height="56" viewBox="0 0 56 56" fill="none" xmlns="http://www.w3.org/2000/svg">
<rect width="56" height="56" rx="12" fill="url(#paint0_linear_241_1696)" fill-opacity="0.9"/>
<path d="M27.227 36.4306C27.1865 36.5929 27.0928 36.7369 26.961 36.8399C26.8292 36.9428 26.6668 36.9987 26.4995 36.9988C26.4363 36.9991 26.3734 36.9915 26.312 36.9763L23.312 36.2263C23.2285 36.2053 23.1492 36.1701 23.0776 36.1222L20.8276 34.6222C20.6622 34.5118 20.5473 34.3402 20.5084 34.1451C20.4695 33.9501 20.5096 33.7475 20.62 33.582C20.7304 33.4166 20.902 33.3017 21.0971 33.2628C21.2921 33.2238 21.4947 33.264 21.6601 33.3744L23.8014 34.8022L26.6758 35.5213C26.7718 35.5445 26.8623 35.5866 26.942 35.6449C27.0218 35.7033 27.0892 35.7769 27.1404 35.8614C27.1917 35.9459 27.2257 36.0397 27.2405 36.1374C27.2554 36.2351 27.2508 36.3347 27.227 36.4306ZM39.6667 27.3875C39.6052 27.5744 39.5072 27.7473 39.3785 27.8961C39.2498 28.045 39.0928 28.1669 38.9167 28.2547L36.6967 29.3647L35.283 30.7794L31.533 34.5294C31.4413 34.6209 31.3275 34.6872 31.2027 34.7217C31.0778 34.7562 30.9461 34.7578 30.8205 34.7263L24.8205 33.2263C24.7292 33.2034 24.6431 33.1636 24.5664 33.1091L19.3614 29.3928L17.0851 28.2547C16.7294 28.0769 16.4588 27.765 16.333 27.3877C16.2071 27.0105 16.2362 26.5986 16.4139 26.2428L18.7436 21.5844C18.9214 21.2286 19.2333 20.9581 19.6105 20.8322C19.9878 20.7063 20.3996 20.7354 20.7555 20.9131L22.8236 21.9444L27.7923 20.525C27.9271 20.4865 28.07 20.4865 28.2048 20.525L33.1736 21.9444L35.2417 20.9131C35.5975 20.7354 36.0094 20.7063 36.3866 20.8322C36.7639 20.9581 37.0758 21.2286 37.2536 21.5844L39.5833 26.2428C39.6721 26.4186 39.7253 26.6103 39.7396 26.8068C39.7539 27.0033 39.7291 27.2007 39.6667 27.3875ZM33.6245 30.3106L31.0267 28.2303C29.1948 29.7303 26.8689 29.9281 24.9414 28.6991C24.7518 28.5785 24.5917 28.4168 24.473 28.226C24.3542 28.0352 24.2799 27.8202 24.2554 27.5968C24.2309 27.3735 24.257 27.1474 24.3315 26.9355C24.4061 26.7235 24.5274 26.531 24.6864 26.3722C24.6887 26.3695 24.6912 26.367 24.6939 26.3647L28.8995 22.2856L27.9995 22.0288L23.2726 23.3797L20.7067 28.5106L25.3192 31.8059L30.7698 33.1681L33.6245 30.3106ZM35.3345 28.6006L32.7864 23.4988H29.8033L25.7495 27.4363C26.9364 28.1947 28.7973 28.4038 30.467 26.7209C30.5974 26.5895 30.7718 26.5109 30.9567 26.5004C31.1415 26.4898 31.3238 26.548 31.4683 26.6638L34.6942 29.2484L35.3345 28.6006Z" fill="white"/>
<defs>
<linearGradient id="paint0_linear_241_1696" x1="3.12425" y1="3.13739" x2="54.3643" y2="37.6734" gradientUnits="userSpaceOnUse">
<stop offset="0.168198" stop-color="#5FBAFD"/>
<stop offset="0.984375" stop-color="#2B6CEB"/>
</linearGradient>
</defs>
</svg>
