<svg width="82" height="82" viewBox="0 0 82 82" fill="none" xmlns="http://www.w3.org/2000/svg">
<path d="M66.2079 7.87501L61.2879 5.1034C60.8287 4.841 60.2219 4.92302 59.5987 5.28382C59.1067 5.56262 58.6147 6.00542 58.2047 6.59582L54.2195 12.0898C53.7931 12.6638 53.3175 13.123 52.8255 13.4018C52.5139 13.5822 52.1695 13.697 51.8743 13.7298C51.6119 13.7462 51.3659 13.779 51.0871 13.8118C50.7427 13.861 50.4639 13.8118 50.2179 13.6642L44.8223 10.5154C45.0683 10.663 45.3635 10.7122 45.6751 10.6794C45.9539 10.6302 46.2163 10.5974 46.4787 10.581C46.7903 10.5646 47.1183 10.4498 47.4463 10.2694C47.9219 9.9906 48.4139 9.54782 48.8239 8.97382L52.8091 3.44701C53.2191 2.85661 53.7111 2.4138 54.1867 2.1514C54.8263 1.7742 55.4331 1.70861 55.9087 1.97101L60.8123 4.75901L66.2079 7.87501Z" fill="#6461EE"/>
<path fill-rule="evenodd" clip-rule="evenodd" d="M50.8746 14.3196C50.5138 14.3196 50.235 14.2376 49.9726 14.09L44.577 10.9576C44.3474 10.81 44.2654 10.5148 44.3966 10.2688C44.5278 10.0392 44.8394 9.95721 45.069 10.0884C45.2166 10.1704 45.4134 10.2032 45.6266 10.1868C45.971 10.1376 46.217 10.1048 46.463 10.0884C46.6707 10.0775 46.9167 9.99002 47.201 9.82602C47.6274 9.58002 48.0702 9.17002 48.4146 8.67802L52.3998 3.16762C52.859 2.52802 53.4002 2.01962 53.9578 1.70802C54.745 1.24882 55.5158 1.18322 56.1554 1.54402L61.059 4.31562L66.4546 7.44802C66.6842 7.59562 66.7662 7.89081 66.635 8.12041C66.5038 8.36641 66.1922 8.44842 65.9626 8.31722L61.0426 5.54562C60.7474 5.36522 60.321 5.43082 59.829 5.70962C59.4026 5.95562 58.9762 6.36562 58.599 6.87402L54.6138 12.3844C54.1546 13.024 53.6134 13.516 53.0722 13.844C52.6786 14.0572 52.285 14.1884 51.9078 14.2212C51.6782 14.2376 51.465 14.2704 51.2354 14.2868C51.1151 14.3087 50.9949 14.3196 50.8746 14.3196ZM46.7254 11.056L50.481 13.2372C50.6286 13.3192 50.7926 13.352 51.0222 13.3192C51.3666 13.27 51.6126 13.2372 51.8422 13.2372C52.0554 13.2208 52.3178 13.1224 52.5802 12.9748C53.0066 12.7288 53.433 12.3188 53.8266 11.794L57.7954 6.30002C58.2382 5.67682 58.7794 5.16841 59.337 4.84041C59.4573 4.78574 59.5721 4.73108 59.6814 4.67641L55.6634 2.39681C55.2534 2.16721 54.7286 2.41322 54.4498 2.57722C54.007 2.82322 53.5806 3.21682 53.2034 3.74162L49.2182 9.25202C48.7918 9.87522 48.2506 10.3672 47.693 10.6952C47.3486 10.892 47.0206 11.0068 46.7254 11.056Z" fill="black"/>
<path d="M22.207 67.5542L22.0758 67.8658L19.4354 73.7534C18.763 75.2294 18.8778 76.6562 19.6814 77.1318L14.2858 73.983C13.4658 73.5074 13.3674 72.097 14.0398 70.621L16.6802 64.7334L16.8114 64.4218C17.3034 63.323 17.3854 62.257 17.0246 61.5682C16.9262 61.3222 16.8114 61.0926 16.6966 60.8466C16.5818 60.5514 16.4014 60.3382 16.1718 60.207L21.5674 63.3394C21.797 63.4706 21.9774 63.6838 22.0922 63.979C22.207 64.2414 22.3218 64.471 22.4366 64.7006C22.781 65.3894 22.699 66.4718 22.207 67.5542Z" fill="#6461EE"/>
<path fill-rule="evenodd" clip-rule="evenodd" d="M19.6815 77.6244C19.594 77.6244 19.512 77.6025 19.4355 77.5588L14.0399 74.41C12.9903 73.8032 12.7935 72.1632 13.5807 70.4084L16.3687 64.2092C16.7787 63.258 16.8771 62.3396 16.5983 61.7984C16.5163 61.618 16.4507 61.4868 16.3851 61.3556L16.2539 61.044C16.1719 60.8472 16.0571 60.716 15.9095 60.6176C15.6799 60.47 15.6143 60.1748 15.7619 59.9452C15.8931 59.7156 16.1883 59.6336 16.4343 59.7812L21.8299 62.9136C22.1579 63.1104 22.4203 63.422 22.5679 63.7992L22.6827 64.0616C22.7483 64.2092 22.8303 64.3568 22.8795 64.5208C23.2895 65.2916 23.2239 66.5216 22.6663 67.7516L19.8783 73.9672C19.2715 75.2956 19.4355 76.3944 19.9275 76.6896L19.9439 76.706C20.1735 76.8372 20.2555 77.1324 20.1079 77.3784C20.0259 77.5424 19.8619 77.6244 19.6815 77.6244ZM17.5823 61.6016C17.8775 62.3724 17.7627 63.4876 17.2707 64.6192L14.4827 70.8184C13.8759 72.1632 14.0399 73.2784 14.5319 73.5572L18.5007 75.8696C18.4515 75.1808 18.5991 74.3772 18.9763 73.5572L21.7643 67.358C22.1907 66.4068 22.2727 65.4884 21.9939 64.9308C21.9119 64.7668 21.8463 64.6192 21.7807 64.488L21.6495 64.1764C21.5729 63.9796 21.4636 63.8429 21.3215 63.7664L17.5823 61.6016Z" fill="black"/>
<path d="M37.5726 79.6074L32.177 76.4586L32.0294 75.5238L30.947 69.3246C30.865 68.8162 30.6354 68.439 30.291 68.2422L35.6866 71.391C36.031 71.5878 36.2606 71.965 36.359 72.4734L37.425 78.6562L37.5726 79.6074Z" fill="#6461EE"/>
<path fill-rule="evenodd" clip-rule="evenodd" d="M37.5725 80.0998C37.4851 80.0998 37.4031 80.078 37.3265 80.0342L31.9309 76.8854C31.7997 76.8198 31.7177 76.6886 31.6849 76.541L31.5373 75.6062L30.4713 69.407C30.4057 69.0462 30.2636 68.8002 30.0449 68.669C29.7989 68.5378 29.7169 68.2262 29.8645 67.9966C29.9957 67.7506 30.3073 67.685 30.5369 67.8162L35.9325 70.9486C36.4081 71.2438 36.7197 71.7358 36.8345 72.3754L38.0645 79.5258C38.0973 79.7062 38.0153 79.903 37.8513 80.0178C37.7693 80.067 37.6709 80.0998 37.5725 80.0998ZM32.6361 76.1474L36.9165 78.6402L35.8669 72.5558C35.8013 72.195 35.6592 71.949 35.4405 71.8178L31.4881 69.5218L32.6361 76.1474Z" fill="black"/>
<path d="M71.7506 19.9615C71.4062 19.7647 70.9634 19.7319 70.455 19.9287L65.6334 21.7491C65.125 21.9295 64.6822 21.9295 64.3214 21.7163L58.9258 18.5839C59.2866 18.7807 59.7294 18.7971 60.2214 18.6003L65.0594 16.7963C65.5678 16.5995 66.0106 16.6323 66.355 16.8291L71.7506 19.9615Z" fill="#6461EE"/>
<path fill-rule="evenodd" clip-rule="evenodd" d="M64.945 22.3714C64.6279 22.3714 64.3382 22.2948 64.0758 22.1418L58.6802 19.0094C58.4342 18.8618 58.3686 18.5666 58.4998 18.337C58.631 18.091 58.9426 18.009 59.1722 18.1402C59.4018 18.2714 59.697 18.2714 60.0578 18.1402L64.8794 16.3198C65.683 16.0246 66.2734 16.205 66.6014 16.4018L71.997 19.5178C72.243 19.6654 72.325 19.9606 72.1774 20.2066C72.0462 20.4362 71.751 20.5182 71.505 20.387C71.2754 20.2558 70.9802 20.2558 70.6194 20.387L65.7978 22.2074C65.5026 22.3167 65.2183 22.3714 64.945 22.3714ZM60.6154 18.993L64.5678 21.289C64.7974 21.4038 65.0926 21.4038 65.4534 21.2726L70.0618 19.5506L66.1094 17.2546C65.8142 17.0906 65.4698 17.1562 65.2238 17.2546L60.6154 18.993Z" fill="black"/>
<path d="M48.0362 6.47823C47.577 6.21583 46.9702 6.26503 46.3142 6.64223L39.4098 10.6274C38.2454 11.2998 37.245 12.8414 37.0318 14.2846L36.1954 20.287C35.6706 21.353 35.2278 22.2058 34.6866 23.2882C34.4078 23.5506 34.1782 23.813 33.9158 24.1082C33.6042 24.4362 33.2762 24.6822 32.9646 24.879C32.4562 25.1578 31.9806 25.2726 31.5706 25.1742L27.5526 24.2886C27.1262 24.1902 26.6342 24.305 26.1586 24.5838C25.5354 24.9446 24.9286 25.5678 24.453 26.3714L19.5986 34.801C18.7622 36.2442 18.6474 37.8022 19.3362 38.5238L22.1406 41.4922C22.6162 42.017 22.731 42.9682 22.403 44.0178C22.2718 44.4278 22.157 44.8378 22.0258 45.2478C21.7306 46.3138 21.0582 47.3142 20.2382 47.9538L15.4166 51.693C14.2686 52.6114 13.4322 54.2514 13.4486 55.5962L13.465 63.5338C13.465 64.2882 13.7274 64.8294 14.1702 65.0918L8.77458 61.943C8.34818 61.697 8.06938 61.1558 8.06938 60.4014L8.05297 52.4474C8.03657 51.119 8.87298 49.4626 10.0374 48.5606L14.8426 44.8214C15.6462 44.1818 16.335 43.165 16.6302 42.099C16.745 41.689 16.8598 41.2954 17.0074 40.869C17.319 39.8194 17.2206 38.8846 16.745 38.3598L13.9242 35.3914C13.2518 34.6534 13.383 33.0954 14.203 31.6686L19.0574 23.239C19.533 22.4354 20.1398 21.8122 20.763 21.4514C21.2386 21.1726 21.7306 21.0578 22.157 21.1562L26.175 22.0418C26.585 22.1402 27.077 22.0254 27.5526 21.7466C27.8806 21.5498 28.2086 21.2874 28.5202 20.9594C28.7662 20.697 29.0122 20.4182 29.2746 20.1558C29.8322 19.0734 30.2586 18.2206 30.7998 17.1382L31.6362 11.1522C31.8494 9.70903 32.8498 8.15102 33.9978 7.47862L40.9022 3.49343C41.5746 3.11623 42.1814 3.08343 42.6242 3.32943L48.0362 6.47823Z" fill="#6461EE"/>
<path fill-rule="evenodd" clip-rule="evenodd" d="M14.1705 65.5851C14.083 65.5851 14.001 65.5633 13.9245 65.5195C13.9245 65.5195 13.9191 65.5141 13.9081 65.5031L8.52892 62.3707C7.92212 62.0099 7.57772 61.3211 7.57772 60.4027L7.54492 52.4487C7.54492 50.9727 8.46332 49.1687 9.72612 48.1683L14.5313 44.4291C15.2693 43.8551 15.8925 42.9203 16.1549 41.9691C16.2697 41.5427 16.4009 41.1491 16.5321 40.7227C16.7945 39.8699 16.7453 39.0827 16.3845 38.6891L13.5801 35.7207C12.7437 34.8351 12.8257 33.0803 13.7769 31.4239L18.6313 22.9943C19.1397 22.1251 19.7957 21.4363 20.5009 21.0263C21.1077 20.6819 21.6981 20.5507 22.2557 20.6655L26.2737 21.5511C26.5689 21.6167 26.9297 21.5347 27.3069 21.3051C27.6185 21.1247 27.9137 20.8951 28.1597 20.6327L28.4057 20.3539C28.5533 20.1899 28.7173 20.0259 28.8813 19.8619L28.9961 19.6323C29.4553 18.7139 29.8489 17.9431 30.3245 16.9919L31.1445 11.0715C31.3905 9.46433 32.4565 7.80793 33.7521 7.05353L40.6565 3.06835C41.4601 2.60915 42.2637 2.55995 42.8705 2.90435L48.2825 6.05314C48.5121 6.18434 48.5941 6.47953 48.4629 6.72553C48.3153 6.95513 48.0201 7.03713 47.7905 6.90593C47.4789 6.72553 47.0361 6.79113 46.5605 7.06993L39.6561 11.0551C38.6229 11.6455 37.7209 13.0723 37.5241 14.3679L36.6877 20.3539C36.6768 20.4086 36.6604 20.4578 36.6385 20.5015C36.1137 21.5839 35.6709 22.4367 35.1133 23.5191C35.0915 23.5629 35.0641 23.6011 35.0313 23.6339C34.7853 23.8799 34.5721 24.1259 34.3425 24.3719C33.9653 24.7819 33.6045 25.0771 33.2109 25.3067C32.5658 25.6675 31.9809 25.7823 31.4561 25.6511L27.4381 24.7819C27.1429 24.7163 26.7821 24.7983 26.4049 25.0115C25.8473 25.3395 25.3061 25.9135 24.8797 26.6187L20.0253 35.0483C19.3201 36.2783 19.1725 37.6395 19.6973 38.1971L22.5017 41.1491C23.1085 41.8051 23.2561 42.9367 22.8789 44.1667C22.7313 44.5931 22.6165 44.9703 22.5181 45.3803C22.1737 46.5447 21.4357 47.6435 20.5337 48.3323L15.7285 52.0879C14.6953 52.9079 13.9245 54.4003 13.9409 55.5811L13.9573 63.5351C13.9573 64.0927 14.1213 64.4863 14.4165 64.6503V64.6667C14.6625 64.7979 14.7445 65.0931 14.5969 65.3391C14.5149 65.5031 14.3509 65.5851 14.1705 65.5851ZM21.8457 21.6167C21.5833 21.6167 21.3045 21.7151 21.0093 21.8791C20.4517 22.2071 19.8941 22.7811 19.4841 23.4863L14.6297 31.9159C13.9245 33.1459 13.7769 34.4907 14.3017 35.0483L17.1061 38.0167C17.7129 38.6891 17.8441 39.8043 17.4833 41.0179C17.3357 41.4443 17.2209 41.8379 17.1225 42.2315C16.7781 43.3959 16.0401 44.5111 15.1381 45.2163L10.3493 48.9555C9.29972 49.7591 8.52892 51.2679 8.54532 52.4487L8.56172 60.4027C8.56172 60.9439 8.74212 61.3539 9.02092 61.5179L12.9733 63.8139C12.9733 63.7265 12.9679 63.6335 12.9569 63.5351V55.5975C12.9405 54.1215 13.8425 52.3175 15.1217 51.3171L19.9269 47.5615C20.6813 46.9875 21.2881 46.0691 21.5505 45.1015C21.6817 44.6915 21.7965 44.2815 21.9277 43.8551C22.1901 43.0187 22.1245 42.2151 21.7801 41.8215L18.9757 38.8695C18.1393 37.9675 18.2213 36.1963 19.1725 34.5563L24.0269 26.1267C24.5353 25.2739 25.2077 24.5687 25.9129 24.1587C26.5197 23.7979 27.1265 23.6831 27.6677 23.8143L31.6693 24.6835C31.9645 24.7601 32.3144 24.6835 32.7189 24.4539C33.0141 24.2735 33.3093 24.0439 33.5553 23.7651C33.8341 23.4699 34.0473 23.2239 34.2769 22.9943C34.8017 21.9775 35.2117 21.1575 35.7201 20.1407L36.5401 14.2203C36.7861 12.6295 37.8849 10.9403 39.1477 10.2023L46.0521 6.21714C46.1505 6.16247 46.2489 6.11327 46.3473 6.06953L42.3785 3.75714C42.0833 3.59314 41.6405 3.65873 41.1485 3.93753L34.2441 7.90634C33.2273 8.51314 32.3089 9.92354 32.1285 11.2191L31.2921 17.2215C31.2812 17.2762 31.2648 17.3254 31.2429 17.3691C30.7509 18.3367 30.3573 19.1403 29.8817 20.0915L29.7177 20.3867C29.6959 20.4305 29.6631 20.4742 29.6193 20.5179C29.4553 20.6819 29.2913 20.8623 29.1273 21.0263L28.8813 21.3051C28.5697 21.6331 28.2089 21.9283 27.8153 22.1743C27.1921 22.5187 26.5853 22.6499 26.0441 22.5187L22.0425 21.6331C21.9769 21.6222 21.9113 21.6167 21.8457 21.6167Z" fill="black"/>
<path d="M70.4559 19.9286C71.6039 19.4858 72.4566 20.1746 72.4566 21.503L72.473 29.457C72.4894 30.8018 71.6367 32.4418 70.4723 33.3602L65.6834 37.083C64.847 37.739 64.1582 38.7886 63.863 39.8546C63.7646 40.2154 63.6553 40.5817 63.535 40.9534C63.1906 42.0358 63.2726 43.0198 63.7646 43.5446L66.569 46.5294C67.2414 47.251 67.143 48.809 66.323 50.2194L61.4523 58.6818C60.9767 59.4854 60.3698 60.1086 59.7466 60.4694C59.271 60.7482 58.779 60.863 58.3526 60.7646L54.351 59.8626C53.941 59.7642 53.4654 59.879 52.9734 60.1578C52.6454 60.3546 52.3174 60.617 51.9894 60.9614C51.727 61.2566 51.4974 61.519 51.235 61.7814C50.4314 62.585 49.8739 63.7002 49.7263 64.7498L48.8734 70.785C48.6766 72.2118 47.6763 73.7698 46.5119 74.4422L37.5739 79.6082L37.4263 78.657L36.3439 72.4742C36.2127 71.5886 35.6222 71.1294 34.8514 71.2442C34.589 71.277 34.3267 71.3043 34.0643 71.3262C33.7363 71.3426 33.4083 71.4574 33.0803 71.6542C32.6047 71.933 32.129 72.3594 31.719 72.9334L27.701 78.4766C27.2746 79.0506 26.799 79.4934 26.3234 79.7722C25.7002 80.133 25.0935 80.215 24.6343 79.9362L19.7143 77.1482C18.8779 76.689 18.763 75.2458 19.419 73.7534L22.0759 67.8822L22.207 67.5542C22.699 66.4554 22.7811 65.3894 22.4367 64.7006C22.3219 64.471 22.2071 64.225 22.1087 63.979C21.7971 63.2574 21.1083 62.995 20.2719 63.3066L15.4667 65.127C14.3187 65.5534 13.4659 64.881 13.4659 63.5362L13.4495 55.5822C13.4331 54.2538 14.2695 52.5974 15.4339 51.6954L20.239 47.9562C21.0426 47.3166 21.7315 46.3162 22.0267 45.2502C22.1415 44.8402 22.2727 44.4302 22.4039 44.0202C22.7319 42.9706 22.6171 42.0194 22.1415 41.4946L19.3207 38.5262C18.6483 37.7882 18.7795 36.2466 19.5995 34.8034L24.4539 26.3738C24.9295 25.5702 25.5362 24.947 26.1594 24.5862C26.635 24.3074 27.127 24.1926 27.5534 24.291L31.5714 25.1766C31.9814 25.275 32.4734 25.1602 32.949 24.8814C33.277 24.701 33.6051 24.4222 33.9167 24.0942C34.1791 23.8318 34.4086 23.553 34.671 23.2906C35.2286 22.2082 35.6715 21.3554 36.1963 20.2894L37.0327 14.287C37.2459 12.8438 38.2463 11.3022 39.4107 10.6298L46.2987 6.6446C47.4795 5.9722 48.4798 6.3494 48.693 7.5466L49.5623 12.5814C49.7099 13.4506 50.3002 13.9098 51.071 13.8114C51.3498 13.7786 51.6123 13.7294 51.8747 13.7294C52.1863 13.6966 52.5143 13.5818 52.8259 13.4014C53.3179 13.1226 53.8099 12.6634 54.2199 12.0894L58.205 6.59541C58.6314 6.00501 59.107 5.56221 59.599 5.28341C60.2222 4.92261 60.8291 4.8406 61.2883 5.103L66.2083 7.891C67.0283 8.383 67.143 9.7934 66.4706 11.3022L63.699 17.5178C63.2234 18.5838 63.1086 19.6498 63.453 20.3222C63.5842 20.601 63.6991 20.847 63.8139 21.1094C64.1255 21.831 64.8307 22.0442 65.6179 21.7326L70.4559 19.9286Z" fill="white"/>
<path d="M72.4553 21.5194C72.4553 20.1746 71.6025 19.5022 70.4545 19.9286L65.6329 21.749C64.8293 22.0442 64.1241 21.831 63.8125 21.1094C63.6977 20.847 63.5828 20.601 63.4516 20.3222C63.1072 19.6498 63.222 18.5838 63.6976 17.5178L66.4856 11.3022C67.1416 9.7934 67.0269 8.383 66.2069 7.8746L61.2869 5.103C60.8277 4.8406 60.2208 4.92261 59.5976 5.28341C59.1056 5.56221 58.6136 6.00501 58.2036 6.59541L56.8916 8.383C60.5816 14.4182 62.7136 21.5194 62.7136 29.1454C62.7136 50.8918 45.3953 68.5054 24.0261 68.5054C23.2881 68.5054 22.5501 68.4726 21.8121 68.4398L19.4341 73.7534C18.7617 75.2458 18.8765 76.689 19.7129 77.1482L24.6165 79.9526C25.0921 80.1986 25.6988 80.133 26.322 79.7722C26.7976 79.4934 27.2732 79.0506 27.6996 78.4766L31.7176 72.9334C32.1276 72.3594 32.6033 71.933 33.0789 71.6542C33.4069 71.4574 33.7513 71.3426 34.0629 71.3262C34.3253 71.3098 34.5712 71.277 34.85 71.2442C35.6208 71.1294 36.2113 71.605 36.3589 72.4742L37.4249 78.657L37.5725 79.6082L46.5105 74.4422C47.6913 73.7698 48.6753 72.1954 48.8885 70.7686L49.7085 64.7498C49.8725 63.7002 50.43 62.585 51.2336 61.765C51.4796 61.519 51.7257 61.2566 52.0045 60.9614C52.2997 60.617 52.644 60.3546 52.972 60.1578C53.464 59.879 53.9396 59.7642 54.3496 59.8626L58.3513 60.781C58.7777 60.863 59.2533 60.7318 59.7453 60.4694C60.3685 60.1086 60.9753 59.469 61.4345 58.6818L66.3216 50.2194C67.1416 48.809 67.24 47.251 66.5676 46.513L63.7633 43.5446C63.2713 43.0198 63.1892 42.0358 63.5336 40.9534C63.6484 40.5762 63.7633 40.2154 63.8453 39.8546C64.1569 38.7886 64.8456 37.739 65.682 37.083L70.4709 33.3602C71.6189 32.4418 72.4716 30.7854 72.4716 29.4734L72.4553 21.5194Z" fill="#E9EDF4"/>
<path fill-rule="evenodd" clip-rule="evenodd" d="M25.2414 80.5921C24.9298 80.5921 24.651 80.5265 24.3886 80.3789L19.4686 77.5745C18.3862 76.9841 18.1894 75.3277 18.9766 73.5565L21.7482 67.3573C22.1746 66.4061 22.273 65.4713 21.9942 64.9301L21.863 64.6513C21.7865 64.4982 21.7154 64.3342 21.6498 64.1593C21.3874 63.5689 20.8462 63.6181 20.4362 63.7657L15.6474 65.5861C14.9586 65.8321 14.3026 65.7829 13.8106 65.4385C13.2694 65.0613 12.9742 64.3889 12.9742 63.5361L12.9414 55.5985C12.9414 54.1061 13.8598 52.3021 15.1226 51.3181L19.9278 47.5625C20.6658 46.9885 21.289 46.0537 21.5514 45.1025C21.6662 44.6925 21.7974 44.2825 21.9286 43.8561C22.191 43.0197 22.1254 42.2161 21.781 41.8225L18.9602 38.8705C18.1402 37.9685 18.2222 36.1973 19.157 34.5573L24.0278 26.1277C24.5362 25.2749 25.2086 24.5697 25.9138 24.1597C26.5206 23.8153 27.1274 23.6841 27.6522 23.8153L31.6866 24.7009C31.9654 24.7501 32.3262 24.6681 32.7034 24.4549C32.9822 24.2909 33.2774 24.0449 33.5398 23.7661L33.8514 23.4381C33.9826 23.2959 34.1193 23.1483 34.2614 22.9953L34.3762 22.7985C34.8518 21.8637 35.2454 21.0929 35.721 20.1417L36.541 14.2213C36.7706 12.6305 37.8694 10.9413 39.165 10.2033L46.053 6.21807C46.8074 5.77527 47.5454 5.69327 48.1358 5.97207C48.677 6.23447 49.0542 6.75926 49.1854 7.46446L50.0382 12.4993C50.1202 12.9093 50.3498 13.4177 51.0058 13.3193C51.3502 13.2701 51.5962 13.2373 51.8586 13.2209C52.0718 13.2045 52.3178 13.1225 52.5802 12.9749C53.023 12.7289 53.4494 12.3189 53.8266 11.8105L57.8118 6.30007C58.2546 5.67687 58.7794 5.16846 59.3534 4.85686C60.1406 4.38126 60.9278 4.33206 61.5346 4.67646L66.4546 7.44807C67.5206 8.08767 67.701 9.74406 66.9302 11.4989L64.1422 17.7145C63.7322 18.6493 63.6338 19.5841 63.8962 20.0925L64.011 20.3385C64.0985 20.5353 64.1859 20.7266 64.2734 20.9125C64.5358 21.5193 65.1262 21.4045 65.4542 21.2733L70.2758 19.4693C70.9646 19.2069 71.6042 19.2561 72.1126 19.6005C72.6538 19.9777 72.949 20.6501 72.949 21.5029L72.9654 29.4569C72.9818 30.9329 72.0634 32.7369 70.7842 33.7373L65.979 37.4765C65.241 38.0669 64.6014 39.0345 64.339 39.9857C64.2406 40.3465 64.1313 40.7182 64.011 41.1009C63.7158 41.9865 63.765 42.8229 64.1258 43.2001L66.9302 46.1849C67.7666 47.0869 67.701 48.8417 66.7498 50.4653L61.879 58.9277C61.387 59.7805 60.7146 60.4857 59.993 60.8957C59.3862 61.2401 58.7958 61.3713 58.2546 61.2565L54.2366 60.3381C53.9742 60.2889 53.597 60.3709 53.2198 60.5841C52.9246 60.759 52.6403 60.9995 52.367 61.3057C52.0882 61.5845 51.8422 61.8633 51.5798 62.1257C50.8582 62.8473 50.3498 63.8641 50.2186 64.8153L49.3658 70.8505C49.1526 72.4413 48.0538 74.1305 46.7582 74.8685L37.8202 80.0345C37.689 80.1165 37.5086 80.1165 37.361 80.0509C37.2134 79.9853 37.115 79.8377 37.0822 79.6737L36.9346 78.7389L35.8686 72.5561C35.7866 72.1297 35.5734 71.6377 34.9174 71.7361C34.6441 71.7689 34.3707 71.7962 34.0974 71.8181C33.8678 71.8345 33.589 71.9329 33.3266 72.0805C32.9002 72.3265 32.4902 72.7201 32.1294 73.2121L28.095 78.7717C27.6522 79.3785 27.1274 79.8869 26.5698 80.1985C26.1106 80.4609 25.6678 80.5921 25.2414 80.5921ZM20.9282 62.6833C21.6662 62.6833 22.2566 63.0769 22.5518 63.7821C22.6174 63.9461 22.6994 64.0937 22.765 64.2413L22.8798 64.5037C23.2898 65.2909 23.2078 66.5209 22.6666 67.7509L22.5354 68.0625L19.8786 73.9501C19.3374 75.1801 19.3702 76.3937 19.9606 76.7053L24.8806 79.5097C25.1594 79.6737 25.6022 79.6081 26.0778 79.3457C26.5042 79.0833 26.9306 78.6897 27.3078 78.1813L31.3258 72.6381C31.7686 72.0313 32.277 71.5393 32.8346 71.2277C33.2282 70.9817 33.6382 70.8505 34.0318 70.8341C34.2723 70.8122 34.5183 70.7849 34.7698 70.7521C35.8358 70.6045 36.6558 71.2605 36.8362 72.3921L37.9514 78.8045L46.2662 74.0157C47.2994 73.4253 48.2014 71.9985 48.3818 70.7029L49.2346 64.6841C49.3986 63.5197 50.0218 62.3061 50.8746 61.4205C51.137 61.1745 51.3666 60.9121 51.629 60.6333C51.9734 60.2561 52.3506 59.9445 52.7278 59.7313C53.3346 59.3869 53.925 59.2557 54.4498 59.3705L58.4678 60.2889C58.7466 60.3545 59.1074 60.2561 59.501 60.0429C60.0586 59.7149 60.6162 59.1245 61.0098 58.4357L65.897 49.9733C66.6678 48.6449 66.6678 47.3493 66.2086 46.8573L63.4042 43.8725C62.781 43.2165 62.6498 42.0685 63.0598 40.7893C63.1746 40.4285 63.2894 40.0841 63.3714 39.7233C63.6994 38.5589 64.4538 37.4273 65.3722 36.6893L70.1774 32.9665C71.2106 32.1465 71.9814 30.6377 71.9814 29.4569L71.965 21.5029C71.965 20.9945 71.801 20.6009 71.5386 20.4205C71.2598 20.2237 70.8826 20.2893 70.6202 20.3877L65.7986 22.2081C64.7162 22.6017 63.765 22.2573 63.3714 21.3061C63.2839 21.1311 63.1965 20.9507 63.109 20.7649L63.0106 20.5353C62.6006 19.7481 62.699 18.5345 63.2402 17.3209L66.0282 11.0889C66.5694 9.85886 66.5366 8.66168 65.9462 8.31728L61.0426 5.52928C60.7638 5.36528 60.321 5.43087 59.8454 5.70967C59.4026 5.95567 58.9762 6.36567 58.6154 6.87407L54.6302 12.3845C54.171 13.0077 53.6298 13.5161 53.0886 13.8277C52.6786 14.0573 52.3014 14.1885 51.9078 14.2213C51.6618 14.2213 51.4486 14.2541 51.2026 14.2869C50.0874 14.4509 49.2674 13.7949 49.0706 12.6633L48.2014 7.62846C48.1522 7.36606 48.0374 7.02167 47.7258 6.87407C47.4306 6.74287 47.0042 6.80846 46.5614 7.07086L39.657 11.0561C38.6238 11.6465 37.7054 13.0733 37.525 14.3525L36.6886 20.3549C36.6886 20.4095 36.6722 20.4642 36.6394 20.5189C36.1474 21.4865 35.7374 22.2901 35.2454 23.2577L35.1142 23.5201C35.0924 23.5638 35.065 23.6021 35.0322 23.6349C34.8792 23.7989 34.7261 23.9629 34.573 24.1269L34.2614 24.4385C33.9334 24.7993 33.5726 25.0945 33.1954 25.3077C32.5886 25.6685 31.9982 25.7833 31.457 25.6685L27.439 24.7829C27.1602 24.7173 26.783 24.7993 26.4058 25.0125C25.8482 25.3405 25.307 25.9145 24.8806 26.6197L20.0262 35.0493C19.321 36.2793 19.1734 37.6241 19.6982 38.1817L22.5026 41.1501C23.1094 41.8225 23.257 42.9541 22.8798 44.1677C22.7322 44.5777 22.6174 44.9713 22.5026 45.3813C22.191 46.5293 21.453 47.6445 20.5346 48.3497L15.7294 52.0889C14.7126 52.8925 13.9418 54.4013 13.9418 55.5821L13.9582 63.5361C13.9582 64.0609 14.1058 64.4381 14.3682 64.6349C14.6634 64.8317 15.0406 64.7497 15.303 64.6513L20.0918 62.8473C20.387 62.7379 20.6658 62.6833 20.9282 62.6833Z" fill="black"/>
<path d="M43.478 23.5836C52.8752 18.1552 60.534 22.5012 60.5668 33.3088C60.5996 44.1 52.99 57.2528 43.5928 62.6648C34.1792 68.0932 26.5368 63.7472 26.504 52.956C26.4712 42.1484 34.0644 29.012 43.478 23.5836Z" fill="white"/>
<path fill-rule="evenodd" clip-rule="evenodd" d="M35.9502 65.5025C34.2282 65.5025 32.6538 65.1089 31.2434 64.3053C27.8814 62.3701 26.0282 58.3357 26.0118 52.9565C25.979 42.0177 33.7034 28.6517 43.2318 23.1577C47.955 20.4189 52.4322 19.9925 55.8106 21.9441C59.1726 23.8957 61.0422 27.9301 61.0586 33.3093C61.0914 44.2481 53.367 57.5977 43.8386 63.0917C41.067 64.6989 38.3774 65.5025 35.9502 65.5025ZM43.7238 24.0105C34.4742 29.3405 26.963 42.3293 26.9958 52.9565C27.0122 57.9585 28.7014 61.6813 31.7354 63.4361C34.8186 65.2073 38.935 64.7809 43.3466 62.2389C52.5962 56.9089 60.091 43.9201 60.0746 33.3093C60.0582 28.2909 58.369 24.5681 55.3186 22.8133C52.2518 21.0421 48.1354 21.4685 43.7238 24.0105Z" fill="black"/>
<path d="M36.3939 60.6827C31.1459 60.6827 30.5555 54.8607 30.5391 52.3515C30.5227 43.3479 37.1319 31.9007 44.9875 27.3743C47.0211 26.1935 48.9891 25.5703 50.6619 25.5703C55.9263 25.5703 56.5167 31.4087 56.5167 33.9015C56.5495 42.9215 49.9239 54.3523 42.0683 58.8787C40.0347 60.0595 38.0831 60.6827 36.3939 60.6827Z" fill="#6461EE"/>
<path d="M56.5149 33.8978C56.5477 42.9178 49.922 54.3486 42.0664 58.8914C40.0328 60.0558 38.0812 60.679 36.4084 60.679C34.1452 60.679 32.7512 59.613 31.8984 58.2026C39.836 58.1206 47.9212 52.6266 51.89 43.7542C54.5632 37.7846 54.8585 31.4542 53.1693 26.1406C56.1213 27.6494 56.5149 31.8642 56.5149 33.8978Z" fill="#178EE8"/>
<path fill-rule="evenodd" clip-rule="evenodd" d="M36.3937 61.1745C30.6865 61.1745 30.0633 55.0081 30.0469 52.3513C30.0305 43.1837 36.7545 31.5397 44.7413 26.9313C46.8569 25.7177 48.8905 25.0781 50.6617 25.0781C56.3689 25.0781 57.0085 31.2445 57.0085 33.9013C57.0413 43.0689 50.3173 54.7129 42.3141 59.3213C40.2149 60.5349 38.1649 61.1745 36.3937 61.1745ZM50.6617 26.0785C49.0709 26.0785 47.2013 26.6689 45.2333 27.8005C37.5253 32.2449 31.0145 43.4953 31.0473 52.3513C31.0473 54.7129 31.5885 60.1741 36.3937 60.1741C37.9845 60.1741 39.8705 59.5837 41.8221 58.4521C49.5465 54.0077 56.0573 42.7573 56.0245 33.9013C56.0245 31.5561 55.4833 26.0785 50.6617 26.0785Z" fill="black"/>
<path d="M39.8212 52.2524C37.0988 52.2524 36.7872 49.2184 36.7872 47.9228C36.7708 43.2324 40.2148 37.2956 44.2984 34.934C45.348 34.3272 46.3648 34.0156 47.234 34.0156C49.9728 34.0156 50.2844 37.0332 50.2844 38.3288C50.3008 43.0192 46.8568 48.956 42.7732 51.3176C41.7236 51.9244 40.7068 52.2524 39.8212 52.2524Z" fill="white"/>
<path d="M50.2843 38.3452C50.3007 43.0192 46.8567 48.956 42.7731 51.3176C41.7235 51.9244 40.7067 52.2524 39.8211 52.2524C37.7875 52.2524 37.0987 50.5632 36.8691 49.1692C37.7875 49.5956 38.7551 49.8252 39.7719 49.8252C44.3803 49.8252 48.1031 45.0528 48.1031 39.1488C48.1031 37.2956 47.7259 35.5408 47.0699 34.0156C47.1246 34.0156 47.1793 34.0156 47.2339 34.0156C49.9727 34.0156 50.2843 37.0332 50.2843 38.3452Z" fill="#E9EDF4"/>
<path fill-rule="evenodd" clip-rule="evenodd" d="M39.821 52.745C37.6234 52.745 36.295 50.941 36.295 47.9234C36.2786 43.0854 39.821 36.9354 44.0522 34.5082C45.1674 33.8522 46.2826 33.5078 47.2338 33.5078C49.4478 33.5078 50.7598 35.3118 50.7762 38.3294C50.7926 43.1674 47.2338 49.3174 43.019 51.7446C41.8874 52.4006 40.7886 52.745 39.821 52.745ZM47.2338 34.5082C46.4466 34.5082 45.5118 34.8034 44.5442 35.361C40.5918 37.6406 37.2626 43.397 37.279 47.9234C37.279 49.3502 37.6234 51.7446 39.821 51.7446C40.6082 51.7446 41.543 51.4494 42.527 50.8918C46.4794 48.6122 49.7922 42.8558 49.7922 38.3294C49.7758 36.9026 49.4478 34.5082 47.2338 34.5082Z" fill="black"/>
<path d="M73.3073 67.1274L71.2737 68.3082C71.5853 68.1278 71.6673 67.521 71.3229 66.865L67.8789 60.3214L69.9125 59.1406L73.3565 65.6842C73.7009 66.3402 73.6353 66.947 73.3073 67.1274Z" fill="#6461EE"/>
<path fill-rule="evenodd" clip-rule="evenodd" d="M71.2744 68.8164C71.1104 68.8164 70.9464 68.718 70.848 68.5704C70.7004 68.3244 70.7824 68.0292 71.0284 67.8816C71.0612 67.8488 71.1268 67.5536 70.8808 67.0944L67.4532 60.5508C67.322 60.3212 67.404 60.026 67.6336 59.8948L69.6672 58.714C69.782 58.6484 69.9296 58.632 70.0608 58.6648C70.192 58.6976 70.2904 58.796 70.356 58.9108L73.8 65.4544C74.2592 66.3236 74.1444 67.2092 73.554 67.5536L71.5204 68.7508C71.4439 68.7946 71.3619 68.8164 71.2744 68.8164ZM68.552 60.518L71.7664 66.6352C71.8812 66.8648 71.9632 67.0944 72.0124 67.3076L73.0456 66.7008C73.0948 66.6516 73.1604 66.3564 72.9144 65.9136L69.7164 59.8292L68.552 60.518Z" fill="black"/>
<path d="M67.4214 59.3714L71.2918 66.7186C71.8822 67.8502 71.3902 68.785 70.4718 68.2766L64.2726 64.685C63.797 64.4226 63.3542 63.9306 63.0426 63.3402L58.0898 53.9922L67.4214 59.3714Z" fill="white"/>
<path fill-rule="evenodd" clip-rule="evenodd" d="M70.9634 68.9155C70.7338 68.9155 70.4714 68.8335 70.2254 68.7023L64.0262 65.1271C63.4686 64.7991 62.9438 64.2415 62.5994 63.5691L57.663 54.2211C57.5482 54.0243 57.5974 53.7783 57.745 53.6307C57.909 53.4831 58.155 53.4503 58.3354 53.5651L67.667 58.9443C67.749 58.9771 67.8146 59.0591 67.8638 59.1411L71.7178 66.4883C72.1606 67.3083 72.1442 68.1775 71.6686 68.6367C71.4718 68.8171 71.2258 68.9155 70.9634 68.9155ZM59.3358 55.2707L63.485 63.1099C63.7474 63.6019 64.1246 64.0283 64.5182 64.2579L70.7174 67.8331C70.8814 67.9315 70.9634 67.9315 70.9798 67.9151C71.0618 67.8331 71.111 67.4559 70.8486 66.9475L67.0438 59.7315L59.3358 55.2707Z" fill="black"/>
<path d="M73.4238 56.7626C73.0302 56.533 72.5054 56.5658 71.915 56.9102C70.7178 57.599 69.7666 59.239 69.7666 60.6166C69.7666 61.2726 70.0126 61.7482 70.3898 61.9778L42.1818 45.5942C41.7882 45.381 41.5586 44.889 41.5586 44.233C41.5586 42.8718 42.5098 41.2154 43.6906 40.5266C44.281 40.1822 44.8222 40.1658 45.2158 40.3954L73.4238 56.7626Z" fill="white"/>
<path d="M70.3898 61.9763L42.1818 45.5927C41.7882 45.3795 41.5586 44.8875 41.5586 44.2315C41.5586 43.7723 41.657 43.2803 41.8538 42.8047L70.0782 59.1555C69.8814 59.6311 69.7666 60.1395 69.7666 60.5987C69.7666 61.2711 70.0126 61.7467 70.3898 61.9763Z" fill="#E9EDF4"/>
<path fill-rule="evenodd" clip-rule="evenodd" d="M70.3896 62.4694C70.3021 62.4694 70.2201 62.4475 70.1436 62.4038L41.9192 46.0202C41.378 45.7086 41.0664 45.0526 41.0664 44.2326C41.0664 42.691 42.0996 40.8706 43.4444 40.0998C44.1824 39.6734 44.8876 39.6242 45.4616 39.9522L73.6696 56.3194C73.9156 56.467 73.9976 56.7622 73.85 57.0082C73.7188 57.2378 73.4236 57.3198 73.1776 57.1886C72.9316 57.0574 72.5708 57.1066 72.1608 57.3362C71.1112 57.943 70.2584 59.4026 70.2584 60.6162C70.2584 61.059 70.406 61.4034 70.6356 61.5346C70.8816 61.6822 70.9472 61.9774 70.816 62.2234C70.7176 62.371 70.5536 62.4694 70.3896 62.4694ZM44.6416 40.7394C44.4284 40.7394 44.1988 40.805 43.9364 40.9526C42.9032 41.5594 42.0504 43.0354 42.0504 44.2326C42.0504 44.6918 42.1816 45.0362 42.4112 45.1674L69.2744 60.7474C69.2744 60.7037 69.2744 60.6599 69.2744 60.6162C69.2744 59.0746 70.324 57.2542 71.6524 56.4834C71.7071 56.4506 71.7617 56.4233 71.8164 56.4014L44.9696 40.8214C44.8712 40.7667 44.7619 40.7394 44.6416 40.7394Z" fill="black"/>
<path d="M71.914 56.9095C73.0784 56.2371 74.046 56.7783 74.046 58.1395C74.046 59.4843 73.0948 61.1407 71.914 61.8131C70.7332 62.5019 69.7656 61.9607 69.7656 60.5995C69.7656 59.2383 70.7168 57.5983 71.914 56.9095Z" fill="white"/>
<path fill-rule="evenodd" clip-rule="evenodd" d="M70.9463 62.6162C70.6675 62.6162 70.3886 62.5342 70.1426 62.403C69.585 62.075 69.2734 61.4354 69.2734 60.6154C69.2734 59.0574 70.323 57.2534 71.6514 56.4826C72.3894 56.0562 73.0946 56.007 73.6686 56.335C74.2262 56.6466 74.5378 57.3026 74.5378 58.139C74.5542 59.6642 73.5046 61.4846 72.1598 62.2554C71.7498 62.485 71.3399 62.6162 70.9463 62.6162ZM72.1598 57.3354C71.1266 57.9258 70.2574 59.4182 70.2574 60.599C70.2574 61.0582 70.405 61.4026 70.6346 61.5338C70.8806 61.6814 71.2578 61.6322 71.6678 61.3862C72.701 60.7958 73.5538 59.3198 73.5538 58.139C73.5538 57.6798 73.4062 57.319 73.1766 57.1878C72.9306 57.0402 72.5534 57.1058 72.1598 57.3354Z" fill="black"/>
<path d="M73.603 52.3656L69.7163 55.252L67.4366 56.5804L71.3234 53.694C71.9138 53.2512 71.4382 51.7424 70.5198 51.2176L64.3206 47.6424C63.8778 47.38 63.4515 47.3472 63.1562 47.5276L65.4358 46.1992C65.7474 46.0188 66.1739 46.0516 66.6003 46.314L72.8158 49.8892C73.7342 50.414 74.2098 51.9228 73.603 52.3656Z" fill="#6461EE"/>
<path fill-rule="evenodd" clip-rule="evenodd" d="M67.4371 57.0737C67.2731 57.0737 67.1091 56.9917 67.0271 56.8605C66.8795 56.6309 66.9287 56.3357 67.1419 56.1881L71.0287 53.3017C71.0615 53.2689 71.0943 53.1541 71.0779 52.9901C71.0615 52.5473 70.7335 51.9077 70.2743 51.6617L64.0751 48.0701C63.8127 47.9225 63.5667 47.8733 63.4191 47.9553H63.4027C63.1731 48.1029 62.8615 48.0209 62.7303 47.7913C62.5991 47.5453 62.6647 47.2501 62.9107 47.1025C62.9107 47.1025 62.9162 47.1025 62.9271 47.1025L65.1903 45.7741C65.6659 45.4953 66.2727 45.5445 66.8631 45.8889L73.0623 49.4641C73.8659 49.9233 74.3251 50.8909 74.3579 51.6125C74.3907 52.1209 74.2267 52.5309 73.8987 52.7769L70.0119 55.6633L67.6831 57.0081C67.6066 57.0518 67.5246 57.0737 67.4371 57.0737ZM64.6327 47.2501L70.7663 50.7925C71.5535 51.2353 72.0127 52.1865 72.0783 52.8917L73.3083 51.9733C73.3411 51.9405 73.3903 51.8421 73.3739 51.6617C73.3575 51.2353 73.0295 50.5957 72.5703 50.3169L66.3547 46.7417C66.0923 46.5941 65.8463 46.5449 65.6987 46.6269L64.6327 47.2501Z" fill="black"/>
<path d="M70.5203 51.2179C71.4387 51.7427 71.9143 53.2515 71.3239 53.6943L67.4371 56.5807L58.1055 51.2015L63.0911 47.5771C63.4027 47.3475 63.8455 47.3639 64.3211 47.6427L70.5203 51.2179Z" fill="white"/>
<path fill-rule="evenodd" clip-rule="evenodd" d="M67.437 57.074C67.3495 57.074 67.2675 57.0522 67.191 57.0084L57.8594 51.6292C57.7118 51.5472 57.6134 51.3996 57.6134 51.2356C57.597 51.0552 57.679 50.9076 57.8102 50.8092L62.7958 47.1684C63.2714 46.824 63.9274 46.8404 64.567 47.2176L70.7662 50.7928C71.5698 51.252 72.029 52.2196 72.0782 52.9412C72.111 53.4496 71.947 53.8596 71.619 54.0892L67.7322 56.9756C67.6338 57.0412 67.5354 57.074 67.437 57.074ZM59.0074 51.1536L67.4042 55.9916L71.0286 53.302C71.0614 53.2692 71.0942 53.1708 71.0778 52.9904C71.0614 52.564 70.7498 51.9244 70.2742 51.6456L64.075 48.0704C63.7962 47.9064 63.5174 47.8736 63.3862 47.972L59.0074 51.1536Z" fill="black"/>
</svg>
