<svg width="98" height="98" viewBox="0 0 98 98" fill="none" xmlns="http://www.w3.org/2000/svg">
<circle opacity="0.2" cx="49" cy="49" r="49" fill="#00D4FF"/>
<path d="M31.1654 27.875H63.2487C64.4643 27.875 65.6301 28.3579 66.4896 29.2174C67.3491 30.077 67.832 31.2428 67.832 32.4583V48.6833C64.384 48.1017 60.8439 48.8556 57.932 50.7917H49.4987V59.9583H51.9737C51.7216 61.5167 51.7216 63.0521 51.9737 64.5417H31.1654C29.9498 64.5417 28.784 64.0588 27.9245 63.1992C27.0649 62.3397 26.582 61.1739 26.582 59.9583V32.4583C26.582 29.9375 28.6445 27.875 31.1654 27.875ZM31.1654 37.0417V46.2083H44.9154V37.0417H31.1654ZM49.4987 37.0417V46.2083H63.2487V37.0417H49.4987ZM31.1654 50.7917V59.9583H44.9154V50.7917H31.1654ZM74.707 71.4167V69.125C74.707 66.0771 68.5883 64.5417 65.5404 64.5417C62.4925 64.5417 56.3737 66.0771 56.3737 69.125V71.4167H74.707ZM65.5404 53.0833C63.0195 53.0833 60.957 55.1458 60.957 57.6667C60.957 60.1875 63.0195 62.25 65.5404 62.25C68.0612 62.25 70.1237 60.2104 70.1237 57.6667C70.1237 55.1229 68.0841 53.0833 65.5404 53.0833Z" fill="url(#paint0_linear_445_8796)"/>
<defs>
<linearGradient id="paint0_linear_445_8796" x1="26.9139" y1="27.6543" x2="73.3104" y2="72.8505" gradientUnits="userSpaceOnUse">
<stop stop-color="#54E2FF"/>
<stop offset="1" stop-color="#06C3EA"/>
</linearGradient>
</defs>
</svg>
