<svg width="56" height="56" viewBox="0 0 56 56" fill="none" xmlns="http://www.w3.org/2000/svg">
<rect width="56" height="56" rx="12" fill="url(#paint0_linear_241_1809)" fill-opacity="0.9"/>
<g clip-path="url(#clip0_241_1809)">
<path fill-rule="evenodd" clip-rule="evenodd" d="M32.8244 17.1419C33.1381 15.7087 35.1798 15.7002 35.509 17.1316L35.5244 17.2002L35.5535 17.3322C35.9307 18.935 37.2267 20.1573 38.8484 20.4402C40.3433 20.7007 40.3433 22.847 38.8484 23.1076C38.0509 23.2464 37.3123 23.6177 36.7251 24.1749C36.138 24.7322 35.7286 25.4505 35.5484 26.2396L35.509 26.4144C35.1833 27.8459 33.1398 27.8373 32.8261 26.4024L32.7935 26.2533C32.6205 25.4611 32.2153 24.7384 31.6296 24.1775C31.044 23.6166 30.3045 23.2429 29.5055 23.1042C28.0141 22.8453 28.0141 20.7024 29.5055 20.4419C30.3013 20.3034 31.0381 19.9319 31.6225 19.3743C32.2069 18.8167 32.6127 18.0982 32.7884 17.3099L32.8124 17.1984L32.8244 17.1419ZM29.185 24.9384C25.969 24.3796 25.6655 20.147 28.273 18.8922C28.0398 18.4722 27.793 18.0607 27.5341 17.6562C27.2628 17.6464 26.9912 17.6464 26.7198 17.6562C24.7804 20.6897 23.5861 24.1391 23.2347 27.7224H31.0227C30.9712 27.2082 30.9027 26.6956 30.817 26.1899C30.6665 25.8654 30.4398 25.5822 30.1562 25.3643C29.8727 25.1464 29.5406 25.0003 29.1884 24.9384H29.185ZM16.0347 27.7224C16.249 25.5107 17.1189 23.4133 18.5331 21.6992C19.9472 19.9852 21.8411 18.7325 23.9718 18.1019C22.3681 21.0804 21.3849 24.3532 21.0815 27.7224H16.0312H16.0347ZM16.0501 29.8653H21.0833C21.3861 33.2344 22.3687 36.5072 23.9718 39.4859C21.8407 38.8555 19.9465 37.603 18.5321 35.8889C17.1176 34.1748 16.2474 32.0773 16.033 29.8653H16.0501ZM23.2347 29.8653C23.5867 33.4488 24.7815 36.8982 26.7215 39.9316C26.9929 39.9416 27.2645 39.9416 27.5358 39.9316C29.4759 36.8982 30.6707 33.4488 31.0227 29.8653H23.2347ZM38.2227 29.8653C38.0084 32.0771 37.1384 34.1744 35.7243 35.8885C34.3101 37.6026 32.4163 38.8552 30.2855 39.4859C31.8886 36.5072 32.8713 33.2344 33.1741 29.8653H38.2227Z" fill="white"/>
</g>
<defs>
<linearGradient id="paint0_linear_241_1809" x1="33.1852" y1="-10.1874" x2="45.6036" y2="53.5816" gradientUnits="userSpaceOnUse">
<stop offset="0.168198" stop-color="#FF9DC8"/>
<stop offset="0.984375" stop-color="#EB2B7E"/>
</linearGradient>
<clipPath id="clip0_241_1809">
<rect width="24" height="24" fill="white" transform="translate(16 16)"/>
</clipPath>
</defs>
</svg>
