<svg width="56" height="56" viewBox="0 0 56 56" fill="none" xmlns="http://www.w3.org/2000/svg">
<rect width="56" height="56" rx="12" fill="url(#paint0_linear_241_2392)" fill-opacity="0.9"/>
<path d="M18 27.5C17.4477 27.5 17 27.0523 17 26.5V21.9C17 21.3477 17.4477 20.9 18 20.9H20.95C21.5023 20.9 21.95 20.4523 21.95 19.9V19.8C21.95 18.9248 22.2977 18.0854 22.9165 17.4665C23.5354 16.8477 24.3748 16.5 25.25 16.5C26.1252 16.5 26.9646 16.8477 27.5835 17.4665C28.2023 18.0854 28.55 18.9248 28.55 19.8V19.9C28.55 20.4523 28.9977 20.9 29.55 20.9H32.5C33.0523 20.9 33.5 21.3477 33.5 21.9V26.5C33.5 27.0523 33.9477 27.5 34.5 27.5H35.7C36.5752 27.5 37.4146 27.8477 38.0335 28.4665C38.6523 29.0854 39 29.9248 39 30.8C39 31.6752 38.6523 32.5146 38.0335 33.1335C37.4146 33.7523 36.5752 34.1 35.7 34.1H34.5C33.9477 34.1 33.5 34.5477 33.5 35.1V37.5C33.5 38.0523 33.0523 38.5 32.5 38.5H18C17.4477 38.5 17 38.0523 17 37.5V35.1C17 34.5477 17.4477 34.1 18 34.1H19.2C20.0752 34.1 20.9146 33.7523 21.5335 33.1335C22.1523 32.5146 22.5 31.6752 22.5 30.8C22.5 29.9248 22.1523 29.0854 21.5335 28.4665C20.9146 27.8477 20.0752 27.5 19.2 27.5H18Z" fill="white"/>
<defs>
<linearGradient id="paint0_linear_241_2392" x1="3.12425" y1="3.13739" x2="54.3643" y2="37.6734" gradientUnits="userSpaceOnUse">
<stop offset="0.168198" stop-color="#5FBAFD"/>
<stop offset="0.984375" stop-color="#2B6CEB"/>
</linearGradient>
</defs>
</svg>
