<svg width="104" height="104" viewBox="0 0 104 104" fill="none" xmlns="http://www.w3.org/2000/svg">
<rect x="20" y="20" width="64" height="64" rx="16" fill="url(#paint0_linear_7112_2928)"/>
<g opacity="0.32" filter="url(#filter0_f_7112_2928)">
<rect x="20" y="20" width="64" height="64" rx="16" fill="url(#paint1_linear_7112_2928)"/>
</g>
<path d="M60.2502 50.25C59.9942 50.25 59.7382 50.152 59.5432 49.957L55.6333 46.047L47.1102 46.994C46.8082 47.028 46.5083 46.922 46.2933 46.707L42.2932 42.707C41.9022 42.316 41.9022 41.684 42.2932 41.293C42.6842 40.902 43.3162 40.902 43.7072 41.293L47.3672 44.953L55.8892 44.006C56.1912 43.968 56.4922 44.077 56.7062 44.293L60.9562 48.543C61.3472 48.934 61.3472 49.566 60.9562 49.957C60.7622 50.152 60.5063 50.25 60.2502 50.25Z" fill="white"/>
<path d="M61.2496 51H57.7496C57.4456 51 57.1726 50.817 57.0566 50.537C56.9416 50.257 57.0046 49.934 57.2196 49.72L60.7196 46.22C60.9346 46.005 61.2566 45.942 61.5366 46.057C61.8166 46.173 61.9996 46.447 61.9996 46.75V50.25C61.9996 50.664 61.6636 51 61.2496 51Z" fill="white"/>
<path d="M63 58.25V61H57V58.25C57 57.56 57.56 57 58.25 57H61.75C62.44 57 63 57.56 63 58.25Z" fill="white"/>
<path d="M55 52.25V61H49V52.25C49 51.56 49.56 51 50.25 51H53.75C54.44 51 55 51.56 55 52.25Z" fill="white"/>
<path d="M47 54.25V61H41V54.25C41 53.56 41.56 53 42.25 53H45.75C46.44 53 47 53.56 47 54.25Z" fill="white"/>
<path d="M63.25 64H40.75C40.336 64 40 63.664 40 63.25C40 62.836 40.336 62.5 40.75 62.5H63.25C63.664 62.5 64 62.836 64 63.25C64 63.664 63.664 64 63.25 64Z" fill="white"/>
<defs>
<filter id="filter0_f_7112_2928" x="0" y="0" width="104" height="104" filterUnits="userSpaceOnUse" color-interpolation-filters="sRGB">
<feFlood flood-opacity="0" result="BackgroundImageFix"/>
<feBlend mode="normal" in="SourceGraphic" in2="BackgroundImageFix" result="shape"/>
<feGaussianBlur stdDeviation="10" result="effect1_foregroundBlur_7112_2928"/>
</filter>
<linearGradient id="paint0_linear_7112_2928" x1="20" y1="76.1412" x2="91.1367" y2="60.667" gradientUnits="userSpaceOnUse">
<stop stop-color="#3AA0FF"/>
<stop offset="0.984375" stop-color="#53D0F7"/>
</linearGradient>
<linearGradient id="paint1_linear_7112_2928" x1="20" y1="76.1412" x2="91.1367" y2="60.667" gradientUnits="userSpaceOnUse">
<stop stop-color="#3AA0FF"/>
<stop offset="0.984375" stop-color="#53D0F7"/>
</linearGradient>
</defs>
</svg>
