<svg width="80" height="86" viewBox="0 0 80 86" fill="none" xmlns="http://www.w3.org/2000/svg">
<path fill-rule="evenodd" clip-rule="evenodd" d="M27.7809 85.3735C27.687 85.3735 27.5931 85.35 27.4993 85.303L18.9985 80.3575C18.4881 80.0583 18.2065 79.4774 18.2065 78.7206L18.1713 68.4599C18.1713 68.0903 18.0657 67.8262 17.8897 67.7206C17.6257 67.5622 17.5377 67.2454 17.6961 66.999C17.8369 66.735 18.1713 66.6471 18.4177 66.8055L26.9185 71.7335C27.4465 72.0503 27.7281 72.6311 27.7281 73.4055L27.7633 83.6486C27.7633 84.0182 27.8689 84.2823 28.0449 84.3879C28.2913 84.5287 28.3793 84.8631 28.2385 85.1095C28.1329 85.2855 27.9569 85.3735 27.7809 85.3735ZM19.2449 68.5126L19.2801 78.7206C19.2801 78.9318 19.3153 79.3014 19.5441 79.4422L26.7073 83.5959L26.6721 73.4055C26.6721 73.0359 26.5665 72.7542 26.3905 72.6486L19.2449 68.5126Z" fill="#00D4FF"/>
<path d="M77.2912 6.13769C78.3296 5.5393 79.1568 6.0145 79.1568 7.19369L79.28 53.6577C79.2976 54.8369 78.4704 56.2625 77.432 56.8609L29.12 84.7041C28.0816 85.3025 27.2368 84.8273 27.2368 83.6481L27.2016 73.4049C27.2016 72.1729 26.3216 71.7505 25.3536 72.3137C25.0896 72.4545 24.8432 72.6657 24.5792 72.9649C23.1888 74.5313 21.6224 75.8865 19.968 76.8369C13.6144 80.4977 8.5456 77.0481 9.3376 69.1281C9.936 63.1793 13.9664 56.3505 18.8768 53.0065C19.2171 52.7718 19.5515 52.5548 19.88 52.3553C21.5344 51.4225 23.0832 50.9473 24.4736 50.8945C24.7552 50.8945 25.0368 50.8065 25.3008 50.6481C26.2688 50.0849 27.1312 48.7297 27.1312 47.5153L27.1136 37.2017C27.096 36.0225 27.9408 34.5793 28.9616 33.9809L77.2912 6.13769Z" fill="#09243F"/>
<path d="M79.28 53.6402C79.2976 54.837 78.4704 56.2626 77.432 56.8434L29.12 84.7042C28.0816 85.3026 27.2368 84.8274 27.2368 83.6482L27.2192 73.405C27.2016 72.173 26.3216 71.7506 25.3536 72.3138C25.1072 72.4546 24.8256 72.6658 24.5792 72.965C23.1888 74.5314 21.6224 75.8866 19.968 76.837C13.6144 80.4978 8.5456 77.0482 9.3376 69.1106C9.496 67.6674 9.8304 66.1538 10.376 64.6578C16.4128 66.8226 23.1536 68.037 30.2816 68.037C55.8368 68.037 76.552 52.4786 76.552 33.277C76.552 25.3042 72.9792 17.965 66.96 12.0866L77.2912 6.13777C78.3296 5.55697 79.1568 6.01457 79.1568 7.19377L79.28 53.6402Z" fill="#09243F"/>
<path fill-rule="evenodd" clip-rule="evenodd" d="M28.2564 85.4966C27.9924 85.4966 27.746 85.4262 27.5172 85.303C26.9892 85.0038 26.7076 84.4054 26.7076 83.6486L26.6724 73.4054C26.6724 73.0358 26.5668 72.7542 26.3908 72.6486C26.2148 72.5606 25.9156 72.5958 25.6164 72.7718C25.3935 72.9008 25.1823 73.0827 24.9828 73.3174C23.4868 74.9894 21.9028 76.3446 20.2308 77.295C17.1156 79.0902 14.0532 79.319 11.8708 77.8934C9.5124 76.3798 8.4036 73.159 8.8084 69.0758C9.4244 62.951 13.5252 56.0166 18.5588 52.567C18.9225 52.3206 19.2745 52.0976 19.6148 51.8982C21.3044 50.9302 22.9412 50.4198 24.4548 50.367C24.6308 50.367 24.8244 50.2966 25.0356 50.1734C25.898 49.6806 26.602 48.4838 26.602 47.5158L26.5668 37.2022C26.5668 35.8294 27.4996 34.2102 28.6964 33.5238L77.026 5.68057C77.6948 5.29337 78.3636 5.24057 78.874 5.53977C79.402 5.83897 79.6836 6.43737 79.6836 7.19417L79.8244 53.6582C79.8244 55.0134 78.8916 56.6326 77.6948 57.319L29.3828 85.1622C28.9956 85.3734 28.626 85.4966 28.2564 85.4966ZM26.162 71.5398C26.426 71.5398 26.69 71.6102 26.9188 71.7334C27.4468 72.0326 27.746 72.631 27.746 73.4054L27.7636 83.6486C27.7636 84.0182 27.8692 84.2822 28.0452 84.3702C28.2212 84.4758 28.5204 84.4406 28.8372 84.247L77.1668 56.3862C78.0292 55.8934 78.7508 54.6438 78.7508 53.6582L78.6276 7.19417C78.6276 6.84217 78.522 6.56057 78.346 6.47257C78.17 6.36697 77.8884 6.41977 77.554 6.59577L29.2244 34.4566C28.362 34.9494 27.6404 36.199 27.6404 37.2022L27.658 47.5158C27.6756 48.871 26.778 50.4022 25.5636 51.1062C25.1999 51.3174 24.842 51.4288 24.49 51.4406C23.1348 51.4758 21.6916 51.9334 20.1428 52.831C19.826 53.0187 19.4975 53.224 19.1572 53.447C14.3524 56.7206 10.4452 63.3382 9.8644 69.1814C9.4948 72.8598 10.4276 75.711 12.4516 76.9958C14.282 78.1926 16.9396 77.9638 19.7028 76.3798C21.2692 75.4646 22.7652 74.1974 24.1908 72.6134C24.4724 72.279 24.7716 72.0326 25.0884 71.8566C25.4404 71.6454 25.81 71.5398 26.162 71.5398Z" fill="#00D4FF"/>
<path d="M12.3642 77.5767L3.86344 72.6487C1.64584 71.3639 0.413839 68.4071 0.836239 64.2007C1.43464 58.2519 5.46504 51.4231 10.3578 48.0791C10.7098 47.8445 11.0501 47.6274 11.3786 47.4279C13.033 46.4775 14.5818 46.0023 15.9722 45.9671C16.2538 45.9671 16.5354 45.8615 16.7994 45.7031C17.7674 45.1575 18.6298 43.8023 18.6298 42.5703L27.1306 47.5159C27.1306 48.7303 26.2682 50.0855 25.3002 50.6487C25.0362 50.8071 24.7546 50.8951 24.473 50.8951C23.0826 50.9479 21.5338 51.4231 19.8794 52.3559C19.5509 52.5554 19.2165 52.7725 18.8762 53.0071C13.9658 56.3511 9.93544 63.1799 9.33704 69.1287C8.91464 73.3527 10.1466 76.2919 12.3642 77.5767Z" fill="#00D4FF"/>
<path fill-rule="evenodd" clip-rule="evenodd" d="M12.3639 78.1049C12.2701 78.1049 12.1821 78.0814 12.0999 78.0345L3.59913 73.1065C1.08233 71.6457 -0.114471 68.3721 0.307929 64.1481C0.923929 58.0233 5.02473 51.0713 10.0583 47.6393C10.4221 47.3929 10.7741 47.1699 11.1143 46.9705C12.8039 46.0025 14.4407 45.4745 15.9543 45.4393C16.1303 45.4393 16.3239 45.3689 16.5351 45.2457C17.3975 44.7529 18.1015 43.5561 18.1015 42.5881C18.1015 42.3945 18.2071 42.2185 18.3655 42.1129C18.5239 42.0249 18.7351 42.0249 18.8935 42.1129L27.3943 47.0409C27.5703 47.1465 27.6583 47.3225 27.6583 47.5161C27.6759 48.8713 26.7783 50.4025 25.5639 51.1065C25.2002 51.3177 24.8423 51.4291 24.4903 51.4409C23.1351 51.4761 21.6919 51.9337 20.1431 52.8313C19.8263 53.019 19.4978 53.2243 19.1575 53.4473C14.3527 56.7209 10.4455 63.3385 9.86473 69.1817C9.47753 72.9833 10.4983 75.8697 12.6279 77.1193C12.8919 77.2601 12.9799 77.5945 12.8215 77.8409C12.7335 78.0169 12.5575 78.1049 12.3639 78.1049ZM19.0519 43.4329C18.7879 44.5417 18.0135 45.6153 17.0631 46.1785C16.6994 46.3779 16.3415 46.4835 15.9895 46.4953C14.6519 46.5481 13.1911 47.0057 11.6423 47.8857C11.3255 48.0734 10.997 48.2846 10.6567 48.5193C5.85193 51.7929 1.94473 58.4105 1.36393 64.2537C0.976729 68.0553 1.99753 70.9417 4.12713 72.1913L9.70633 75.4121C8.87913 73.7577 8.56233 71.5929 8.80873 69.0761C9.42473 62.9513 13.5255 56.0169 18.5591 52.5673C18.9229 52.3209 19.2749 52.0979 19.6151 51.8985C21.3047 50.9305 22.9415 50.4201 24.4551 50.3673C24.6311 50.3673 24.8247 50.2969 25.0359 50.1737C25.8103 49.7337 26.4615 48.7129 26.5847 47.7977L19.0519 43.4329Z" fill="#00D4FF"/>
<path fill-rule="evenodd" clip-rule="evenodd" d="M27.148 48.0446C27.0541 48.0446 26.9603 48.0212 26.8664 47.9742L18.3656 43.0462C18.2072 42.9406 18.1016 42.7646 18.1016 42.5886L18.084 32.275C18.084 31.8526 18.172 31.395 18.3832 30.8494C18.436 30.7086 18.5592 30.603 18.7 30.5502C18.8584 30.4974 19.0168 30.515 19.1576 30.5854L27.6408 35.531C27.8696 35.6542 27.9752 35.9358 27.8696 36.1822C27.7112 36.587 27.6408 36.9214 27.6408 37.1854L27.676 47.5166C27.676 47.7102 27.5704 47.8862 27.412 47.9742C27.3299 48.0212 27.2419 48.0446 27.148 48.0446ZM19.1752 42.2718L26.6024 46.5838L26.5848 37.1854C26.5672 36.9038 26.62 36.587 26.7256 36.2174L19.1928 31.8526C19.1576 32.0052 19.14 32.146 19.14 32.275L19.1752 42.2718Z" fill="#00D4FF"/>
<path d="M70.1106 1.06954C69.7762 0.875938 69.3186 0.911136 68.7906 1.21034L20.461 29.0711C19.7746 29.4583 19.2114 30.2327 18.877 31.0599L27.3778 35.9879C27.6946 35.1607 28.2754 34.3863 28.9618 33.9815L77.2914 6.13834C77.8194 5.83914 78.277 5.80394 78.6114 5.99754L70.1106 1.06954Z" fill="#00D4FF"/>
<path fill-rule="evenodd" clip-rule="evenodd" d="M27.3768 36.5168C27.2829 36.5168 27.1949 36.4933 27.1128 36.4464L18.612 31.5184C18.3832 31.3776 18.2952 31.096 18.3832 30.8672C18.7704 29.8816 19.4392 29.0368 20.196 28.5968L68.5256 0.735968C69.212 0.348768 69.8632 0.295966 70.3736 0.612766L78.8744 5.54077C78.8744 5.54077 78.8803 5.54077 78.892 5.54077C79.1384 5.69917 79.2264 6.01597 79.068 6.27997C78.9272 6.52637 78.5928 6.61436 78.3464 6.47356V6.45597C78.1704 6.36797 77.8712 6.42077 77.5544 6.59677L29.2248 34.44C28.6968 34.7568 28.1688 35.4256 27.8696 36.1824C27.8168 36.3232 27.6936 36.4288 27.5528 36.4816C27.4941 36.505 27.4354 36.5168 27.3768 36.5168ZM19.5624 30.832L27.148 35.232C27.5352 34.4928 28.0984 33.8768 28.6968 33.5248L77.0088 5.68156L69.8456 1.52797C69.6696 1.42237 69.3704 1.47517 69.0536 1.66877L20.724 29.5296C20.284 29.776 19.8616 30.2512 19.5624 30.832Z" fill="#00D4FF"/>
<path d="M67.7864 5.06818C64.6888 3.27298 60.3768 3.51939 55.6072 6.26499C46.156 11.721 38.5 24.9562 38.5352 35.833C38.5528 41.2362 40.4536 45.0202 43.5336 46.8154L38.8168 44.0698C35.7368 42.2746 33.836 38.4906 33.8184 33.105C33.8008 22.2282 41.4392 8.97539 50.8904 3.53699C55.66 0.773791 59.972 0.527383 63.0872 2.34018L67.7864 5.06818Z" fill="#09243F"/>
<path fill-rule="evenodd" clip-rule="evenodd" d="M43.5342 47.3419C43.4404 47.3419 43.3524 47.3184 43.2702 47.2715L38.5535 44.5435C35.1742 42.5723 33.3086 38.5067 33.291 33.1035C33.2734 22.0683 41.0526 8.60427 50.627 3.06027C55.4142 0.314674 59.9198 -0.107729 63.3518 1.88107L68.051 4.60907C68.051 4.60907 68.0569 4.60907 68.0687 4.60907C68.3151 4.76747 68.4031 5.08427 68.2623 5.34827C68.1039 5.59467 67.787 5.68267 67.523 5.52427C64.443 3.74667 60.3071 4.16907 55.8895 6.72107C46.5791 12.0891 39.0462 25.1483 39.0638 35.8315C39.099 40.8475 40.771 44.5787 43.7982 46.3563C44.0622 46.4971 44.1326 46.8315 43.9918 47.0779C43.8862 47.2539 43.7102 47.3419 43.5342 47.3419ZM58.5822 1.70507C56.3118 1.70507 53.795 2.46187 51.155 3.99307C41.8798 9.34347 34.3294 22.4027 34.3646 33.0859C34.3646 38.1019 36.0542 41.8507 39.099 43.6107L40.1375 44.2267C38.747 42.0795 38.0254 39.2107 38.0078 35.8315C37.9726 24.8139 45.7518 11.3323 55.3439 5.80587C58.3535 4.06347 61.2399 3.27147 63.8447 3.39467L62.8238 2.79627C61.5566 2.05707 60.131 1.70507 58.5822 1.70507Z" fill="#00D4FF"/>
<path d="M55.6073 6.26454C65.0585 0.808537 72.7673 5.19093 72.8025 16.0501C72.8201 26.9269 65.1817 40.1621 55.7305 45.6181C46.2617 51.0741 38.5705 46.6917 38.5353 35.8325C38.5001 24.9733 46.1561 11.7205 55.6073 6.26454Z" fill="#09243F"/>
<path d="M72.8034 16.05C72.821 26.9092 65.1826 40.162 55.7314 45.618C48.005 50.0884 41.4402 47.9764 39.2754 41.1124C41.2994 41.6756 43.4114 41.9572 45.629 41.9572C58.4594 41.9572 68.8434 31.8372 68.8434 19.3236C68.8434 13.3924 66.5026 7.98921 62.6482 3.94121C68.6146 3.58921 72.7858 8.05961 72.8034 16.05Z" fill="#09243F"/>
<path fill-rule="evenodd" clip-rule="evenodd" d="M48.0399 48.5029C46.3151 48.5029 44.7135 48.0981 43.3055 47.2885C39.9087 45.3349 38.0255 41.2693 38.0079 35.8309C37.9727 24.8133 45.7519 11.3493 55.3439 5.80533C60.1135 3.05973 64.6191 2.61973 68.0335 4.59093C71.4303 6.54453 73.3135 10.6101 73.3311 16.0485C73.3663 27.0661 65.5871 40.5477 55.9951 46.0741C53.1967 47.6933 50.4863 48.5029 48.0399 48.5029ZM39.0639 35.8309C39.0815 40.8645 40.7711 44.6133 43.8335 46.3733C46.9135 48.1333 51.0319 47.7109 55.4671 45.1589C64.7599 39.7909 72.2927 26.7317 72.2575 16.0485C72.2575 11.0149 70.5679 7.26612 67.5055 5.50612C64.4255 3.74612 60.2895 4.16853 55.8895 6.72053C46.5791 12.0885 39.0463 25.1477 39.0639 35.8309Z" fill="#00D4FF"/>
<path d="M55.6412 14.5848C61.0796 11.452 65.5324 13.9688 65.55 20.2344C65.5676 26.5 61.15 34.1384 55.694 37.2888C50.2556 40.4392 45.8028 37.9048 45.7852 31.6392C45.7676 25.3736 50.1852 17.7352 55.6412 14.5848Z" fill="#00D4FF"/>
<path fill-rule="evenodd" clip-rule="evenodd" d="M51.2595 39.1736C50.2387 39.1736 49.2707 38.9272 48.4259 38.452C46.3843 37.2728 45.2755 34.8615 45.2579 31.6407C45.2403 25.2167 49.7811 17.3671 55.3779 14.1287C58.1939 12.5095 60.8691 12.2632 62.9107 13.4424C64.9347 14.604 66.0611 17.0151 66.0787 20.2359C66.0963 26.6599 61.5555 34.5096 55.9587 37.748C54.3219 38.6984 52.7203 39.1736 51.2595 39.1736ZM60.0595 13.7592C58.7923 13.7592 57.3843 14.1991 55.9059 15.0439C50.6083 18.1063 46.2963 25.5511 46.3139 31.6407C46.3315 34.4567 47.2643 36.5511 48.9539 37.5191C50.6611 38.5047 52.9667 38.2583 55.4307 36.8327C60.7283 33.7703 65.0227 26.3255 65.0051 20.2359C65.0051 17.4199 64.0723 15.3256 62.3827 14.3576C61.6963 13.9704 60.9219 13.7592 60.0595 13.7592Z" fill="#00D4FF"/>
<path d="M51.4355 29.2828L54.6387 29.9516L58.7923 20.1836" fill="#00D4FF"/>
<path d="M54.6383 30.4965C54.6031 30.4965 54.5679 30.4906 54.5327 30.4789L51.3295 29.7925C51.0479 29.7397 50.8543 29.4581 50.9247 29.1589C50.9775 28.8773 51.2767 28.7012 51.5583 28.754L54.3215 29.3525L58.2991 19.9717C58.4047 19.7077 58.7215 19.5845 58.9855 19.6901C59.2671 19.8133 59.3903 20.1301 59.2671 20.3941L55.1311 30.162C55.0431 30.3556 54.8495 30.4965 54.6383 30.4965Z" fill="#09243F"/>
</svg>
