<svg width="36" height="36" viewBox="0 0 36 36" fill="none" xmlns="http://www.w3.org/2000/svg">
<path d="M9.75 26.25V21.75M17.25 26.25V12.75M24.75 26.25V20.25M32.25 8.25C32.25 9.44347 31.7759 10.5881 30.932 11.432C30.0881 12.2759 28.9435 12.75 27.75 12.75C26.5565 12.75 25.4119 12.2759 24.568 11.432C23.7241 10.5881 23.25 9.44347 23.25 8.25C23.25 7.05653 23.7241 5.91193 24.568 5.06802C25.4119 4.22411 26.5565 3.75 27.75 3.75C28.9435 3.75 30.0881 4.22411 30.932 5.06802C31.7759 5.91193 32.25 7.05653 32.25 8.25Z" stroke="#3AA0FF" stroke-width="3" stroke-linecap="round" stroke-linejoin="round"/>
<path d="M32.244 16.5C32.244 16.5 32.25 17.01 32.25 18C32.25 24.717 32.25 28.077 30.1635 30.1635C28.077 32.25 24.7185 32.25 18 32.25C11.283 32.25 7.923 32.25 5.8365 30.1635C3.75 28.077 3.75 24.7185 3.75 18C3.75 11.283 3.75 7.9245 5.8365 5.8365C7.923 3.75 11.2815 3.75 18 3.75H19.5" stroke="#3AA0FF" stroke-width="3" stroke-linecap="round" stroke-linejoin="round"/>
</svg>
