<svg width="70" height="86" viewBox="0 0 70 86" fill="none" xmlns="http://www.w3.org/2000/svg">
<path d="M19.0392 75.9025L14.1816 73.0865C18.2648 75.4625 23.58 75.4449 29.212 72.9633C30.3032 72.4705 31.412 71.9073 32.4856 71.2913C45.3864 63.8465 55.9464 47.4961 58.1464 31.5329C59.0968 24.6337 58.252 18.9137 55.612 14.5137C54.38 12.4545 52.8312 10.8705 50.9656 9.79688L55.8408 12.6129C57.6888 13.7041 59.2376 15.2705 60.4872 17.3473C63.1272 21.7297 63.972 27.4673 63.004 34.3665C60.804 50.3297 50.2616 66.6625 37.3432 74.1073C36.2696 74.7409 35.1608 75.2865 34.0696 75.7793C28.4376 78.2609 23.1224 78.2785 19.0392 75.9025Z" fill="#00D4FF"/>
<path fill-rule="evenodd" clip-rule="evenodd" d="M25.8674 78.1918C23.2802 78.1918 20.869 77.5934 18.7746 76.3614L13.917 73.5454C13.653 73.4046 13.565 73.0702 13.7234 72.8238C13.8642 72.5598 14.181 72.4718 14.445 72.6302C18.405 74.9182 23.5794 74.8654 29.0002 72.4718C30.0562 71.9966 31.1474 71.451 32.221 70.835C44.981 63.4606 55.4354 47.2862 57.6178 31.4638C58.5682 24.6878 57.741 19.0734 55.1538 14.7966C53.9746 12.8254 52.4786 11.2942 50.7186 10.2734L50.701 10.2558C50.4546 10.115 50.3666 9.78061 50.5074 9.53421C50.6658 9.28781 50.9826 9.19984 51.2466 9.34064L56.1042 12.1566C58.0226 13.283 59.6594 14.9374 60.9442 17.067C63.637 21.555 64.4994 27.3982 63.5314 34.4382C61.3138 50.5422 50.6482 67.051 37.6066 74.5662C36.4978 75.2174 35.389 75.7806 34.2802 76.2734C31.3762 77.5582 28.525 78.1918 25.8674 78.1918ZM19.3026 75.4462C23.2626 77.7518 28.437 77.6814 33.8578 75.2878C34.9138 74.8302 36.005 74.267 37.0786 73.651C49.8562 66.2766 60.293 50.1022 62.4754 34.2974C63.4258 27.5038 62.5986 21.8894 60.029 17.6126C58.8322 15.6414 57.3362 14.1102 55.5586 13.0894L55.1186 12.8254C55.4589 13.2713 55.7757 13.7465 56.069 14.251C58.7794 18.739 59.6418 24.5822 58.6738 31.6222C56.4386 47.7262 45.7906 64.235 32.749 71.7502C31.6402 72.3838 30.5314 72.947 29.4226 73.4398C25.7442 75.059 22.1714 75.675 18.9506 75.235L19.3026 75.4462Z" fill="#00D4FF"/>
<path d="M48.1664 10.8897L43.3088 8.05612C43.1856 8.00332 43.1328 7.86253 43.1328 7.66893L43.1152 2.19531L47.9728 5.01131L47.9904 10.5025C47.9904 10.6902 48.0491 10.8193 48.1664 10.8897Z" fill="#00D4FF"/>
<path fill-rule="evenodd" clip-rule="evenodd" d="M48.2023 11.4369C48.0967 11.4369 47.9911 11.4017 47.9031 11.3489L43.0455 8.51536C42.7639 8.39216 42.6055 8.07535 42.6055 7.67055L42.5879 2.19693C42.5879 2.00333 42.6935 1.82736 42.8519 1.73936C43.0279 1.63376 43.2215 1.63376 43.3799 1.73936L48.2375 4.55536C48.4135 4.66096 48.5015 4.83693 48.5015 5.01293L48.5191 10.5041C48.7655 10.6625 48.8007 10.9441 48.6599 11.1905C48.5719 11.3489 48.3783 11.4369 48.2023 11.4369ZM43.6615 7.65293L47.4631 9.87055L47.4455 5.32974L43.6615 3.11212V7.65293ZM43.5383 7.58255L43.5735 7.60012C43.5618 7.60012 43.55 7.59428 43.5383 7.58255Z" fill="#00D4FF"/>
<path d="M55.0656 3.17952L59.9232 5.99552C56.4736 4.00672 52.496 3.46109 48.7824 3.90109C48.712 3.91283 48.6416 3.93632 48.5712 3.97152C48.2544 4.16512 47.9728 4.6227 47.9728 5.0099L43.1152 2.1939C43.1152 1.7891 43.3968 1.33152 43.7136 1.15552C43.784 1.10859 43.8544 1.08509 43.9248 1.08509C47.6384 0.627494 51.616 1.17312 55.0656 3.17952Z" fill="#00D4FF"/>
<path fill-rule="evenodd" clip-rule="evenodd" d="M59.9239 6.52462C59.83 6.52462 59.742 6.50112 59.6599 6.45419C55.7351 4.18379 51.6167 4.09579 48.8535 4.43019C48.6951 4.51819 48.5015 4.7998 48.5015 5.011C48.5015 5.2046 48.4135 5.38062 48.2375 5.46862C48.0791 5.57422 47.8679 5.57422 47.7095 5.46862L42.8519 2.65262C42.6935 2.56462 42.5879 2.3886 42.5879 2.195C42.5879 1.6318 42.9575 0.980599 43.4503 0.698999C43.5735 0.610999 43.7143 0.575791 43.8727 0.558191C46.7943 0.206191 51.1591 0.294199 55.3303 2.723L60.1879 5.539C60.4343 5.6798 60.5223 6.01422 60.3815 6.26062C60.2759 6.43662 60.0999 6.52462 59.9239 6.52462ZM43.7143 1.931L47.6567 4.219C47.8151 3.9198 48.0439 3.6734 48.3079 3.515C48.4487 3.43287 48.5895 3.38592 48.7303 3.37419C50.3319 3.18059 52.3735 3.1278 54.5735 3.515C50.7191 1.3502 46.7063 1.27979 43.9959 1.61419C43.8903 1.66699 43.7847 1.7902 43.7143 1.931Z" fill="#00D4FF"/>
<path d="M22.681 31.7474L17.8058 28.9138C17.7706 28.8962 17.7354 28.8609 17.7002 28.8081L16.8906 27.5938L21.7482 30.4098L22.5578 31.6418C22.593 31.677 22.6282 31.7122 22.681 31.7474Z" fill="#09243F"/>
<path fill-rule="evenodd" clip-rule="evenodd" d="M22.6993 32.2747C22.5937 32.2747 22.4881 32.257 22.4001 32.2042L17.5425 29.3707C17.4721 29.3531 17.3137 29.2122 17.2257 29.0362L16.4513 27.8922C16.3105 27.681 16.3281 27.417 16.5041 27.2234C16.6801 27.0474 16.9441 27.0122 17.1553 27.1354L22.0129 29.9514C22.0833 29.9984 22.142 30.057 22.1889 30.1274L22.9985 31.3419C23.2273 31.5003 23.2801 31.7995 23.1393 32.0459C23.0337 32.2043 22.8753 32.2747 22.6993 32.2747Z" fill="#00D4FF"/>
<path d="M21.7489 30.4089L16.8913 27.5929L16.3281 26.7305L21.2033 29.5465L21.7489 30.4089Z" fill="#09243F"/>
<path d="M21.7498 30.9362C21.6559 30.9362 21.5679 30.9127 21.4858 30.8658L16.6282 28.0498C16.5461 28.0028 16.4815 27.9442 16.4346 27.8738L15.889 27.0113C15.7482 26.8001 15.7834 26.5362 15.9418 26.3602C16.1178 26.1842 16.3818 26.149 16.6106 26.2722L21.4682 29.0882C21.5386 29.1351 21.5973 29.1938 21.6442 29.2642L22.1898 30.1265C22.3306 30.3201 22.2954 30.6018 22.137 30.7778C22.0314 30.8834 21.8906 30.9362 21.7498 30.9362Z" fill="#00D4FF"/>
<path d="M17.5603 21.2036L28.2963 15.4484C28.8067 15.1844 29.1059 15.6068 28.8771 16.2404L23.7555 30.9188C23.6323 31.2708 23.4035 31.5524 23.1571 31.6932C22.9283 31.8164 22.6995 31.8164 22.5587 31.6228L21.7491 30.4084L21.2035 29.546L19.3027 33.066C19.0211 33.5823 18.7395 34.0927 18.4579 34.5972C17.7891 35.794 17.1731 36.9028 16.5923 38.1348C14.1283 43.4324 12.4915 48.7124 11.7523 53.7812C10.4675 62.3876 12.1923 69.7444 16.4867 73.9508C20.7635 78.1572 27.1875 78.826 34.0691 75.7812C35.1603 75.2884 36.2691 74.7428 37.3427 74.1092C50.2611 66.6644 60.8035 50.3316 63.0035 34.3684C63.9715 27.4692 63.1267 21.7316 60.4867 17.3492C57.9699 13.1604 54.1859 10.9956 49.2403 10.9076C48.947 10.8959 48.6478 10.9018 48.3427 10.9252C48.1315 10.9428 47.9907 10.7668 47.9907 10.5028L47.9731 5.01161C47.9731 4.62441 48.2547 4.16682 48.5715 3.97322C48.6419 3.93802 48.7123 3.91453 48.7827 3.9028C57.3187 2.882 67.2803 7.07083 68.8467 22.242C70.4835 38.0644 61.8947 58.7268 47.9731 72.4724C44.6115 75.7812 41.1091 78.5092 37.5363 80.5684C24.1779 88.2596 12.4739 85.69 7.72193 73.9684C5.87393 69.4276 5.29314 63.5844 6.03234 57.0724C7.14114 47.3044 10.9955 37.3076 17.4547 27.346L18.6691 25.4628L16.9443 22.6996C16.7155 22.3124 17.0499 21.5028 17.5603 21.2036Z" fill="#09243F"/>
<path fill-rule="evenodd" clip-rule="evenodd" d="M23.2625 85.4958C21.2385 85.4958 19.3025 85.1789 17.4897 84.5629C12.8961 82.9789 9.34088 79.3886 7.22887 74.1614C5.34567 69.5502 4.74727 63.6189 5.50407 57.0189C6.63047 47.1629 10.5025 37.0958 16.9969 27.0638L18.0529 25.4621L16.5041 22.9806C16.3281 22.7166 16.2929 22.3646 16.3985 21.9774C16.5217 21.467 16.8737 20.9918 17.2785 20.7454C17.2902 20.7454 17.2961 20.7454 17.2961 20.7454L28.0497 14.9901C28.4545 14.7613 28.8593 14.7965 29.1585 15.0429C29.4929 15.3421 29.5809 15.8702 29.3873 16.4158L24.2657 31.0941C24.1073 31.5341 23.7905 31.9389 23.4209 32.1501C22.9281 32.4317 22.4001 32.3438 22.1185 31.9214L21.2385 30.6014L18.9329 34.8429C18.2641 36.0221 17.6481 37.1309 17.0849 38.3629C14.6209 43.6253 13.0017 48.8525 12.2625 53.8509C11.0129 62.2813 12.6849 69.4798 16.8561 73.5806C20.9745 77.6286 27.1697 78.2446 33.8577 75.2878C34.9137 74.8302 36.0049 74.2669 37.0785 73.6509C49.8561 66.2765 60.2929 50.1022 62.4753 34.2974C63.4257 27.5038 62.5985 21.8894 60.0289 17.6126C57.6177 13.5998 53.9921 11.5229 49.2401 11.4349C48.9467 11.4232 48.6593 11.4291 48.3777 11.4526C48.1313 11.4526 47.9201 11.3998 47.7441 11.2414C47.5681 11.0654 47.4625 10.8013 47.4625 10.5021L47.4449 5.01095C47.4449 4.44775 47.8145 3.79655 48.3073 3.51495C48.4481 3.43282 48.5889 3.38587 48.7297 3.37414C53.7985 2.77574 58.5681 4.00777 62.1409 6.87657C66.2417 10.1502 68.6705 15.307 69.3745 22.1886C71.0289 38.1518 62.3697 58.9901 48.3425 72.8589C44.9633 76.1853 41.4081 78.9486 37.8001 81.0254C32.6433 83.9998 27.7153 85.4958 23.2625 85.4958ZM17.8065 21.6781C17.5425 21.8365 17.3665 22.2941 17.4017 22.4349L19.1265 25.1806C19.2321 25.3566 19.2321 25.5854 19.1265 25.7614L17.8945 27.6446C11.4881 37.5358 7.66887 47.4621 6.56007 57.1421C5.83847 63.5661 6.40167 69.3038 8.21447 73.7566C10.2033 78.6846 13.5473 82.0814 17.8417 83.5598C23.2625 85.4254 30.1617 84.1933 37.2721 80.1101C40.7921 78.0685 44.2769 75.3757 47.6033 72.1021C61.4193 58.4445 69.9377 37.9757 68.3185 22.2941C67.6497 15.6941 65.3441 10.8014 61.4721 7.70376C58.1281 5.02856 53.6401 3.86694 48.8529 4.43014C48.6945 4.51814 48.5009 4.79975 48.5009 5.01095L48.5185 10.3789C48.7766 10.3672 49.023 10.3672 49.2577 10.3789C54.3969 10.4669 58.3217 12.7197 60.9441 17.0669C63.6369 21.5549 64.4993 27.3981 63.5313 34.4381C61.3137 50.5421 50.6481 67.0509 37.6065 74.5661C36.4977 75.2173 35.3889 75.7806 34.2801 76.2734C27.1873 79.4062 20.5521 78.7022 16.1169 74.3374C11.6993 69.9902 9.90407 62.475 11.2241 53.6926C11.9633 48.5886 13.6177 43.2734 16.1169 37.9054C16.6977 36.6558 17.3313 35.5294 18.0001 34.3326L20.7281 29.2989C20.8161 29.1229 20.9921 29.0174 21.1681 29.0174C21.3617 29.0174 21.5377 29.1054 21.6433 29.2638L22.9105 31.1998C23.0689 31.0942 23.1921 30.9357 23.2625 30.7421L28.3841 16.0638C28.3958 16.0403 28.4017 16.0227 28.4017 16.0109L17.8065 21.6781Z" fill="#00D4FF"/>
<path d="M23.8953 12.5959C23.7721 12.5255 23.6137 12.5255 23.4553 12.6311L12.6841 18.3863C12.5081 18.4919 12.3673 18.6503 12.2441 18.8439L17.1017 21.6775C17.2249 21.4839 17.3657 21.3079 17.5593 21.2023L28.3129 15.4471C28.4537 15.3767 28.5769 15.3416 28.6825 15.3768L23.8953 12.5959Z" fill="#00D4FF"/>
<path fill-rule="evenodd" clip-rule="evenodd" d="M17.1018 22.2063C17.0197 22.2063 16.9317 22.1829 16.8378 22.136L11.9802 19.3023C11.857 19.2319 11.769 19.1088 11.7338 18.9856C11.6986 18.8448 11.7162 18.6863 11.8042 18.5631C11.9802 18.2639 12.1914 18.0528 12.4202 17.9296L23.1914 12.1568C23.5082 11.9808 23.8778 11.9631 24.1594 12.1391L28.9466 14.92C29.1754 15.0608 29.281 15.3424 29.1754 15.5888C29.0698 15.8352 28.7882 15.9584 28.5418 15.888L17.8058 21.6783C17.7706 21.6959 17.6826 21.7664 17.5594 21.96C17.4538 22.1184 17.2954 22.2063 17.1018 22.2063ZM13.1242 18.7391L16.9786 20.992C17.0842 20.8864 17.1898 20.8042 17.2954 20.7456L27.4682 15.2896L23.7018 13.0896L13.1242 18.7391Z" fill="#00D4FF"/>
<path d="M17.4364 27.3475L18.5804 25.6227L13.7052 22.7891L12.5788 24.5315C6.13724 34.4931 2.28284 44.4899 1.17404 54.2579C0.434835 60.7523 0.998031 66.5955 2.86363 71.1539C4.51803 75.2371 7.01724 78.2115 10.15 80.0243L15.0076 82.8403C11.8748 81.0275 9.37563 78.0531 7.72123 73.9523C5.87323 69.4291 5.29243 63.5859 6.03163 57.0915C7.15803 47.3059 10.9948 37.3091 17.4364 27.3475Z" fill="#00D4FF"/>
<path fill-rule="evenodd" clip-rule="evenodd" d="M15.0082 83.3663C14.9261 83.3663 14.8381 83.3429 14.7442 83.296C14.7325 83.296 14.7208 83.2901 14.709 83.2783L9.88664 80.4976C6.56024 78.5616 4.04345 75.4816 2.37145 71.3456C0.488253 66.7344 -0.110156 60.8031 0.646644 54.2031C1.75544 44.3823 5.62745 34.2976 12.1395 24.248L13.2658 22.5056C13.4242 22.2592 13.7234 22.1888 13.9698 22.3296L18.845 25.1631C18.9682 25.2335 19.0563 25.3568 19.0915 25.4976C19.1267 25.6384 19.109 25.7968 19.021 25.92L17.8946 27.6448C11.4882 37.5184 7.66904 47.4447 6.56024 57.1423C5.82104 63.5487 6.40184 69.2864 8.21464 73.7568C9.79864 77.6816 12.1746 80.5679 15.237 82.3631L15.2722 82.3808C15.5362 82.5216 15.6243 82.8559 15.4835 83.1023C15.3779 83.2783 15.2018 83.3663 15.0082 83.3663ZM13.8818 23.5088L13.037 24.8288C6.61305 34.7376 2.79384 44.664 1.70264 54.3088C0.963444 60.7328 1.54425 66.488 3.35705 70.9408C4.92345 74.8128 7.26424 77.6992 10.3266 79.512C9.09464 77.9984 8.05625 76.2208 7.22905 74.1616C5.34585 69.5328 4.74744 63.6015 5.50424 57.0191C6.63064 47.1631 10.5026 37.0784 16.997 27.064L17.8242 25.7968L13.8818 23.5088Z" fill="#00D4FF"/>
<path d="M18.6854 25.4652L16.9606 22.702C16.8022 22.4556 16.8902 22.0332 17.119 21.6812L12.2614 18.8477C12.0326 19.1997 11.9446 19.6221 12.0854 19.8685L13.8102 22.6492L13.7046 22.79L18.5798 25.6237L18.6854 25.4652Z" fill="#00D4FF"/>
<path fill-rule="evenodd" clip-rule="evenodd" d="M18.5806 26.1497C18.4868 26.1497 18.3988 26.1262 18.3166 26.0793L13.4414 23.2457C13.3182 23.1753 13.2302 23.0521 13.195 22.9113C13.1716 22.8292 13.1716 22.7471 13.195 22.6649L11.6286 20.1481C11.347 19.6377 11.5406 19.0041 11.8046 18.5641C11.963 18.3353 12.2798 18.2473 12.5262 18.3881L17.3838 21.2217C17.507 21.2921 17.595 21.4153 17.6302 21.5561C17.6654 21.6969 17.6478 21.8377 17.5598 21.9609C17.419 22.1721 17.4014 22.3833 17.419 22.4361L19.1262 25.1817C19.2318 25.3577 19.2318 25.5865 19.1262 25.7625L19.0206 25.9209C18.915 26.0793 18.7566 26.1497 18.5806 26.1497ZM14.3214 22.5417L17.3134 24.2665L16.5038 22.9817C16.2926 22.6649 16.3102 22.2601 16.4334 21.8905L12.5614 19.6553L14.251 22.3657C14.2862 22.4127 14.3097 22.4713 14.3214 22.5417Z" fill="#00D4FF"/>
<path d="M47.4972 26.9227C44.9276 25.4267 41.3548 25.6379 37.4124 27.9083C29.598 32.4139 23.262 43.3787 23.2796 52.3899C23.2972 56.8427 24.8812 59.9931 27.4156 61.4715L24.0364 59.5003C21.4844 58.0219 19.9004 54.8891 19.9004 50.4187C19.8828 41.4075 26.2012 30.4603 34.0332 25.9371C37.958 23.6667 41.5484 23.4555 44.118 24.9515L47.4972 26.9227Z" fill="#00D4FF"/>
<path fill-rule="evenodd" clip-rule="evenodd" d="M27.4164 61.9997C27.3225 61.9997 27.2345 61.9762 27.1524 61.9293L23.7732 59.958C20.9396 58.3212 19.3732 54.9245 19.3732 50.4189C19.338 41.2493 25.7972 30.0733 33.77 25.4797C37.7476 23.1741 41.514 22.822 44.3828 24.494L47.762 26.4477C47.762 26.4594 47.762 26.4653 47.762 26.4653C48.026 26.6061 48.114 26.9229 47.9556 27.1869C47.8148 27.4333 47.4804 27.5213 47.234 27.3805C44.7172 25.9197 41.3204 26.2716 37.6772 28.366C30.0212 32.8012 23.7908 43.5724 23.8084 52.39C23.826 56.5084 25.1988 59.5708 27.6804 61.014C27.9444 61.1548 28.0148 61.4893 27.874 61.7357C27.7684 61.9117 27.5924 61.9997 27.4164 61.9997ZM40.3876 24.5117C38.5396 24.5117 36.4628 25.1453 34.298 26.3949C26.6244 30.8301 20.4116 41.6013 20.4292 50.4189C20.4468 54.5373 21.8196 57.5997 24.3012 59.0429L24.3364 59.0605C23.298 57.3181 22.7524 55.0476 22.7524 52.39C22.7172 43.2204 29.194 32.0445 37.1492 27.4509C39.5076 26.0781 41.8132 25.3917 43.8724 25.4269L43.8548 25.4093C42.834 24.8109 41.6548 24.5117 40.3876 24.5117Z" fill="#00D4FF"/>
<path d="M37.4121 27.9081C45.2441 23.3849 51.6153 27.0105 51.6329 36.0041C51.6681 44.9977 45.3321 55.9625 37.5177 60.4857C29.6857 65.0089 23.3145 61.3833 23.2793 52.3721C23.2617 43.3785 29.5801 32.4137 37.4121 27.9081Z" fill="#09243F"/>
<path d="M51.6341 36.0039C51.6693 44.9975 45.3333 55.9623 37.5189 60.4855C31.1125 64.1815 25.6741 62.4215 23.8965 56.7543C25.5509 57.2119 27.3285 57.4583 29.1413 57.4583C39.7717 57.4583 48.3781 49.0631 48.3781 38.7143C48.3781 33.8039 46.4421 29.3335 43.2389 25.9895C48.1669 25.6903 51.6341 29.3863 51.6341 36.0039Z" fill="#09243F"/>
<path fill-rule="evenodd" clip-rule="evenodd" d="M31.1473 62.9687C29.7041 62.9687 28.3665 62.6343 27.1697 61.9479C24.3361 60.3111 22.7697 56.9143 22.7521 52.3911C22.7169 43.2391 29.1937 32.0455 37.1489 27.4519C41.1265 25.1463 44.8753 24.7943 47.7441 26.4487C50.5953 28.0855 52.1617 31.4823 52.1793 36.0055C52.1969 45.1575 45.7377 56.3511 37.7825 60.9447C35.4417 62.2823 33.1889 62.9687 31.1473 62.9687ZM43.7665 26.4839C41.9185 26.4839 39.8417 27.1175 37.6769 28.3671C30.0033 32.8023 23.7905 43.5735 23.8081 52.3735C23.8257 56.5095 25.2161 59.5895 27.7153 61.0151C30.2321 62.4759 33.6113 62.1239 37.2369 60.0295C44.9105 55.5943 51.1409 44.8231 51.1057 36.0055C51.1057 31.8695 49.7153 28.8071 47.2161 27.3639C46.1953 26.7831 45.0337 26.4839 43.7665 26.4839Z" fill="#00D4FF"/>
<path d="M33.9105 55.2246C33.0657 55.2246 32.256 55.031 31.5696 54.6262C29.88 53.6582 28.9649 51.6694 28.9473 49.0294C28.9473 45.3862 30.7953 40.9334 33.6641 37.7302C33.8577 37.519 34.2097 37.5013 34.4209 37.6949C34.6321 37.8885 34.6497 38.223 34.4561 38.4518C31.7457 41.4614 30.0033 45.6326 30.0209 49.0294C30.0209 51.2822 30.76 52.9365 32.0976 53.7109C33.4352 54.4677 35.2481 54.2742 37.2193 53.1478C41.4785 50.6838 44.9281 44.7174 44.9105 39.8246C44.9105 37.9942 44.4177 36.551 43.4849 35.6534C42.7985 35.0022 41.8657 34.703 40.8273 34.7206C40.8273 34.7206 40.8214 34.7206 40.8097 34.7206C40.5281 34.7206 40.2993 34.4918 40.2817 34.2102C40.2641 33.9286 40.4929 33.6646 40.7921 33.6646C42.1473 33.6118 43.3265 34.0342 44.2241 34.8966C45.3505 35.9878 45.9665 37.695 45.9665 39.8246C45.9841 45.0518 42.3057 51.4405 37.7473 54.0629C36.4097 54.8373 35.1073 55.2246 33.9105 55.2246Z" fill="#00D4FF"/>
<path d="M37.4831 43.9763C37.1839 43.9763 36.9375 43.7475 36.9375 43.4483L36.9199 33.6979C36.9199 33.3987 37.1487 33.1523 37.4479 33.1523C37.7471 33.1523 37.9759 33.3987 37.9759 33.6803L38.0111 43.4483C38.0111 43.7475 37.7647 43.9763 37.4831 43.9763Z" fill="#00D4FF"/>
</svg>
