<svg width="36" height="36" viewBox="0 0 36 36" fill="none" xmlns="http://www.w3.org/2000/svg">
<path d="M18 23.3125C19.0507 23.3125 20.0778 23.0009 20.9515 22.4172C21.8251 21.8334 22.506 21.0037 22.9081 20.033C23.3102 19.0623 23.4154 17.9941 23.2104 16.9636C23.0054 15.9331 22.4995 14.9865 21.7565 14.2435C21.0135 13.5005 20.0669 12.9946 19.0364 12.7896C18.0059 12.5846 16.9377 12.6898 15.967 13.0919C14.9963 13.494 14.1666 14.1749 13.5828 15.0485C12.9991 15.9222 12.6875 16.9493 12.6875 18C12.6875 19.409 13.2472 20.7602 14.2435 21.7565C15.2398 22.7528 16.591 23.3125 18 23.3125ZM18 14.3125C18.7293 14.3125 19.4423 14.5288 20.0487 14.934C20.6551 15.3391 21.1277 15.9151 21.4068 16.5889C21.6859 17.2627 21.7589 18.0041 21.6166 18.7194C21.4744 19.4347 21.1232 20.0918 20.6075 20.6075C20.0918 21.1232 19.4347 21.4744 18.7194 21.6166C18.0041 21.7589 17.2627 21.6859 16.5889 21.4068C15.9151 21.1277 15.3391 20.6551 14.934 20.0487C14.5288 19.4423 14.3125 18.7293 14.3125 18C14.3125 17.022 14.701 16.0841 15.3925 15.3925C16.0841 14.701 17.022 14.3125 18 14.3125ZM33.75 8.1875H2.25L1.85197 27.398L1.67548 27.5745C1.67548 27.5745 1.67548 27.5745 1.67548 27.5745C1.82785 27.7269 2.03451 27.8125 2.25 27.8125H33.75C33.9655 27.8125 34.1722 27.7269 34.3245 27.5745C34.4769 27.4222 34.5625 27.2155 34.5625 27V9C34.5625 8.78452 34.4769 8.57785 34.3245 8.42548V8.42548C34.1722 8.2731 33.9655 8.1875 33.75 8.1875ZM3.0625 20.7212V15.2788C4.37497 14.9337 5.57362 14.2462 6.53489 13.2849C7.49616 12.3236 8.18374 11.125 8.52878 9.8125H27.4712C27.8163 11.125 28.5038 12.3236 29.4651 13.2849C30.4264 14.2462 31.625 14.9337 32.9375 15.2788V20.7212C31.625 21.0663 30.4264 21.7538 29.4651 22.7151C28.5038 23.6764 27.8163 24.875 27.4712 26.1875H8.52878C8.18374 24.875 7.49616 23.6764 6.53489 22.7151C5.57362 21.7538 4.37497 21.0663 3.0625 20.7212ZM32.9375 9.8125V13.5824C32.0643 13.2842 31.2694 12.7896 30.6149 12.1351C29.9604 11.4806 29.4658 10.6857 29.1676 9.8125H32.9375ZM3.0625 13.5824V9.8125H6.83238C6.53416 10.6857 6.03961 11.4806 5.38509 12.1351C4.73057 12.7896 3.93568 13.2842 3.0625 13.5824ZM3.0625 26.1875V22.4176C3.93568 22.7158 4.73057 23.2104 5.38509 23.8649C6.03961 24.5194 6.53416 25.3143 6.83238 26.1875H3.0625ZM32.9375 26.1875H29.1676C29.4658 25.3143 29.9604 24.5194 30.6149 23.8649C31.2694 23.2104 32.0643 22.7158 32.9375 22.4176V26.1875Z" fill="#178EE8" stroke="#178EE8" stroke-width="0.5"/>
</svg>
