<svg width="37" height="36" viewBox="0 0 37 36" fill="none" xmlns="http://www.w3.org/2000/svg">
<path d="M16.85 12.8981H17H18.5C18.8581 12.8981 19.2014 13.0404 19.4546 13.2936C19.7078 13.5467 19.85 13.8901 19.85 14.2481C19.85 14.6062 19.7078 14.9496 19.4546 15.2027C19.2014 15.4559 18.8581 15.5982 18.5 15.5982H14.75C14.5113 15.5982 14.2824 15.693 14.1136 15.8618C13.9448 16.0305 13.85 16.2595 13.85 16.4981C13.85 16.7368 13.9448 16.9658 14.1136 17.1345C14.2824 17.3033 14.5113 17.3981 14.75 17.3981H16.25H16.2502C17.1429 17.3973 18.0042 17.7281 18.6667 18.3265C19.3293 18.9249 19.7458 19.7481 19.8356 20.6364C19.9253 21.5246 19.6818 22.4145 19.1523 23.1333C18.6228 23.8521 17.8451 24.3485 16.9702 24.5262L16.85 24.5505V24.6732V25.4981C16.85 25.8562 16.7078 26.1996 16.4546 26.4527C16.2014 26.7059 15.8581 26.8482 15.5 26.8482C15.142 26.8482 14.7986 26.7059 14.5454 26.4527C14.2922 26.1996 14.15 25.8562 14.15 25.4981V24.7481V24.5982H14H12.5C12.142 24.5982 11.7986 24.4559 11.5454 24.2027C11.2922 23.9496 11.15 23.6062 11.15 23.2481C11.15 22.8901 11.2922 22.5467 11.5454 22.2936C11.7986 22.0404 12.142 21.8981 12.5 21.8981H16.25C16.4887 21.8981 16.7176 21.8033 16.8864 21.6345C17.0552 21.4658 17.15 21.2368 17.15 20.9981C17.15 20.7595 17.0552 20.5305 16.8864 20.3618C16.7176 20.193 16.4887 20.0982 16.25 20.0982H14.75H14.7499C13.8571 20.099 12.9958 19.7682 12.3333 19.1698C11.6708 18.5714 11.2542 17.7482 11.1645 16.8599C11.0747 15.9717 11.3183 15.0818 11.8478 14.363C12.3773 13.6442 13.155 13.1478 14.0299 12.9701L14.15 12.9458V12.8231V11.9981C14.15 11.6401 14.2922 11.2967 14.5454 11.0436C14.7986 10.7904 15.142 10.6481 15.5 10.6481C15.8581 10.6481 16.2014 10.7904 16.4546 11.0436C16.7078 11.2967 16.85 11.6401 16.85 11.9981V12.7481V12.8981ZM27.35 17.9981V18.1481H27.5H32C32.3581 18.1481 32.7014 18.2904 32.9546 18.5436C33.2078 18.7967 33.35 19.1401 33.35 19.4981V28.4981C33.35 29.6518 32.8917 30.7583 32.0759 31.5741C31.2601 32.3898 30.1537 32.8482 29 32.8482H8.00001C6.84632 32.8482 5.73988 32.3898 4.9241 31.5741C4.10831 30.7583 3.65001 29.6518 3.65001 28.4981L3.65001 4.49815L3.65001 4.49755C3.64907 4.25967 3.711 4.02576 3.82953 3.81951C3.94807 3.61326 4.11899 3.44199 4.32501 3.32305L4.32501 3.32305C4.53024 3.20457 4.76304 3.14219 5.00001 3.14219C5.23699 3.14219 5.46979 3.20457 5.67501 3.32305L5.6754 3.32328L10.1754 5.90328L10.25 5.94605L10.3246 5.90328L14.8246 3.32328L14.825 3.32305C15.0302 3.20457 15.263 3.14219 15.5 3.14219C15.737 3.14219 15.9698 3.20457 16.175 3.32305L16.1754 3.32328L20.6754 5.90328L20.75 5.94605L20.8246 5.90328L25.3246 3.32328L25.325 3.32305C25.5302 3.20457 25.763 3.14219 26 3.14219C26.237 3.14219 26.4698 3.20457 26.675 3.32305L26.7499 3.1934L26.675 3.32305C26.881 3.44199 27.052 3.61326 27.1705 3.81951C27.289 4.02576 27.351 4.25967 27.35 4.49755V4.49815V17.9981ZM6.57429 6.96283L6.35001 6.83499V7.09315V28.4981C6.35001 28.9358 6.52385 29.3554 6.83329 29.6649C7.14272 29.9743 7.56241 30.1481 8.00001 30.1481H24.77H24.9841L24.911 29.947C24.7423 29.4821 24.654 28.9919 24.65 28.4974V7.09315V6.83499L24.4257 6.96283L21.4282 8.67143C21.2187 8.78035 20.9861 8.83722 20.75 8.83722C20.514 8.83722 20.2814 8.78038 20.072 8.67152L15.5746 6.09302L15.5 6.05024L15.4254 6.09302L10.928 8.67152C10.7186 8.78038 10.4861 8.83722 10.25 8.83722C10.0139 8.83722 9.78129 8.78035 9.57184 8.67144L6.57429 6.96283ZM27.5 20.8482H27.35V20.9981V28.4981C27.35 28.9358 27.5238 29.3554 27.8333 29.6649C28.1427 29.9743 28.5624 30.1481 29 30.1481C29.4376 30.1481 29.8573 29.9743 30.1667 29.6649C30.4762 29.3554 30.65 28.9358 30.65 28.4981V20.9981V20.8482H30.5H27.5Z" fill="#178EE8" stroke="#F6F9FC" stroke-width="0.3"/>
</svg>
