<svg width="143" height="143" viewBox="0 0 143 143" fill="none" xmlns="http://www.w3.org/2000/svg">
<g filter="url(#filter1_d_2114_29849)">
<circle cx="71.5" cy="67.5" r="39.5" fill="url(#paint0_linear_2114_29849)" fill-opacity="0.9" shape-rendering="crispEdges"/>
<circle cx="71.5" cy="67.5" r="38.8828" stroke="url(#paint1_linear_2114_29849)" stroke-width="1.23438" shape-rendering="crispEdges"/>
</g>
<g opacity="0.5" filter="url(#filter2_d_2114_29849)">
<circle cx="71.5" cy="67.5" r="39.5" fill="url(#paint2_linear_2114_29849)" fill-opacity="0.9" shape-rendering="crispEdges"/>
<circle cx="71.5" cy="67.5" r="38.8828" stroke="url(#paint3_linear_2114_29849)" stroke-opacity="0.9" stroke-width="1.23438" shape-rendering="crispEdges"/>
</g>
<path d="M85.5109 55.753H83.3318V51.3075C83.3091 50.595 82.7367 50.0226 82.0243 50H61.3657C59.0549 50 57.1816 51.8732 57.1816 54.184V81.816C57.1816 84.1268 59.0549 86 61.3657 86H85.5109C86.233 86 86.8184 85.4146 86.8184 84.6925V57.0605C86.8184 56.3384 86.233 55.753 85.5109 55.753ZM72.3487 69.6562L69.2107 67.0847C68.7818 66.8262 68.245 66.8262 67.816 67.0847L64.678 69.6562V58.368H72.3487V69.6562ZM80.7167 55.753H61.3657C60.4991 55.753 59.7967 55.0506 59.7967 54.184C59.7967 53.3175 60.4991 52.615 61.3657 52.615H80.7167V55.753Z" fill="url(#paint4_linear_2114_29849)"/>
<defs>
<filter id="filter1_d_2114_29849" x="0" y="0" width="143" height="143" filterUnits="userSpaceOnUse" color-interpolation-filters="sRGB">
<feFlood flood-opacity="0" result="BackgroundImageFix"/>
<feColorMatrix in="SourceAlpha" type="matrix" values="0 0 0 0 0 0 0 0 0 0 0 0 0 0 0 0 0 0 127 0" result="hardAlpha"/>
<feOffset dy="4"/>
<feGaussianBlur stdDeviation="16"/>
<feComposite in2="hardAlpha" operator="out"/>
<feColorMatrix type="matrix" values="0 0 0 0 0.941176 0 0 0 0 0.333333 0 0 0 0 0.596078 0 0 0 0.32 0"/>
<feBlend mode="normal" in2="BackgroundImageFix" result="effect1_dropShadow_2114_29849"/>
<feBlend mode="normal" in="SourceGraphic" in2="effect1_dropShadow_2114_29849" result="shape"/>
</filter>
<filter id="filter2_d_2114_29849" x="0" y="0" width="143" height="143" filterUnits="userSpaceOnUse" color-interpolation-filters="sRGB">
<feFlood flood-opacity="0" result="BackgroundImageFix"/>
<feColorMatrix in="SourceAlpha" type="matrix" values="0 0 0 0 0 0 0 0 0 0 0 0 0 0 0 0 0 0 127 0" result="hardAlpha"/>
<feOffset dy="4"/>
<feGaussianBlur stdDeviation="16"/>
<feComposite in2="hardAlpha" operator="out"/>
<feColorMatrix type="matrix" values="0 0 0 0 0.941176 0 0 0 0 0.333333 0 0 0 0 0.596078 0 0 0 0.32 0"/>
<feBlend mode="normal" in2="BackgroundImageFix" result="effect1_dropShadow_2114_29849"/>
<feBlend mode="normal" in="SourceGraphic" in2="effect1_dropShadow_2114_29849" result="shape"/>
</filter>
<linearGradient id="paint0_linear_2114_29849" x1="78.8148" y1="13.6285" x2="96.3336" y2="103.588" gradientUnits="userSpaceOnUse">
<stop offset="0.168198" stop-color="#FF9DC8"/>
<stop offset="0.984375" stop-color="#EB2B7E"/>
</linearGradient>
<linearGradient id="paint1_linear_2114_29849" x1="53.9503" y1="17.4025" x2="28.3663" y2="94.208" gradientUnits="userSpaceOnUse">
<stop stop-color="#EFEAFC"/>
<stop offset="0.0820951" stop-color="#E8E1FB"/>
<stop offset="0.435042" stop-color="#7544E9" stop-opacity="0.38"/>
<stop offset="0.65666" stop-color="#DAD0F2" stop-opacity="0.2582"/>
<stop offset="0.847635" stop-color="#1F1141" stop-opacity="0.0314"/>
<stop offset="1" stop-color="#190549" stop-opacity="0.28"/>
</linearGradient>
<linearGradient id="paint2_linear_2114_29849" x1="78.8148" y1="13.6285" x2="96.3336" y2="103.588" gradientUnits="userSpaceOnUse">
<stop offset="0.168198" stop-color="#FF9DC8"/>
<stop offset="0.984375" stop-color="#EB2B7E"/>
</linearGradient>
<linearGradient id="paint3_linear_2114_29849" x1="72" y1="107" x2="57.1776" y2="30.8865" gradientUnits="userSpaceOnUse">
<stop offset="0.168198" stop-color="#FF9DC8"/>
<stop offset="0.984375" stop-color="#EB2B7E"/>
</linearGradient>
<linearGradient id="paint4_linear_2114_29849" x1="72" y1="50" x2="72" y2="86" gradientUnits="userSpaceOnUse">
<stop stop-color="white"/>
<stop offset="1" stop-color="white" stop-opacity="0.56"/>
</linearGradient>
</defs>
</svg>
