<svg width="56" height="57" viewBox="0 0 56 57" fill="none" xmlns="http://www.w3.org/2000/svg">
<rect y="0.5" width="56" height="56" rx="12" fill="url(#paint0_linear_241_1835)" fill-opacity="0.9"/>
<g clip-path="url(#clip0_241_1835)">
<path d="M27.334 22.8215V21.7748C27.334 20.0948 24.8207 19.2148 22.334 19.2148C19.8473 19.2148 17.334 20.1015 17.334 21.7748V28.6615C17.334 30.1015 19.1807 30.9482 21.2673 31.1682L21.334 31.1215V26.6548C21.334 24.5548 23.8007 22.9948 27.334 22.8215Z" fill="white"/>
<path d="M27.9991 23.7344C24.7124 23.7344 22.2324 24.9877 22.2324 26.6544V34.861C22.2324 36.5277 24.7124 37.781 27.9991 37.781C31.2858 37.781 33.7658 36.5277 33.7658 34.861V33.421C32.0993 34.6446 30.0644 35.261 27.9991 35.1677C26.6363 35.1907 25.2807 34.9648 23.9991 34.501V33.3477C25.2618 33.889 26.6255 34.1549 27.9991 34.1277C30.8058 34.1277 33.0991 33.3077 33.7524 31.9744V30.1477C32.5324 31.1677 30.4791 31.8344 27.9991 31.8344C26.6363 31.8574 25.2807 31.6315 23.9991 31.1677V29.9877C25.2618 30.529 26.6255 30.7949 27.9991 30.7677C30.8058 30.7677 33.0991 30.0277 33.7524 28.6944V26.6544C33.7658 24.9877 31.2858 23.7344 27.9991 23.7344Z" fill="white"/>
<path d="M30.9993 20.4997C31.0011 20.1864 31.0324 19.8739 31.0927 19.5664C29.6993 19.9597 28.666 20.6997 28.666 21.7731V22.8197C29.8066 22.8539 30.9334 23.0793 31.9993 23.4864C31.3512 22.6255 31.0003 21.5773 30.9993 20.4997Z" fill="white"/>
<path d="M35.9991 25.4921C35.3953 25.4908 34.7968 25.3801 34.2324 25.1654C34.5325 25.6035 34.695 26.1211 34.6991 26.6521V31.1188L34.7324 31.1588C36.8191 30.9454 38.6658 30.0921 38.6658 28.6588V24.7188C37.8683 25.2245 36.9434 25.4927 35.9991 25.4921Z" fill="white"/>
<path d="M35.9993 23.8268C37.8403 23.8268 39.3327 22.3344 39.3327 20.4935C39.3327 18.6525 37.8403 17.1602 35.9993 17.1602C34.1584 17.1602 32.666 18.6525 32.666 20.4935C32.666 22.3344 34.1584 23.8268 35.9993 23.8268Z" fill="white"/>
</g>
<defs>
<linearGradient id="paint0_linear_241_1835" x1="33.1852" y1="-9.68736" x2="45.6036" y2="54.0816" gradientUnits="userSpaceOnUse">
<stop offset="0.168198" stop-color="#FF9DC8"/>
<stop offset="0.984375" stop-color="#EB2B7E"/>
</linearGradient>
<clipPath id="clip0_241_1835">
<rect width="24" height="24" fill="white" transform="translate(16 16.5)"/>
</clipPath>
</defs>
</svg>
