<svg width="104" height="104" viewBox="0 0 104 104" fill="none" xmlns="http://www.w3.org/2000/svg">
<rect x="20" y="20" width="64" height="64" rx="16" fill="url(#paint0_linear_7112_2944)"/>
<g opacity="0.32" filter="url(#filter0_f_7112_2944)">
<rect x="20" y="20" width="64" height="64" rx="16" fill="url(#paint1_linear_7112_2944)"/>
</g>
<g clip-path="url(#clip0_7112_2944)">
<path d="M61.317 60.561L60.246 58.206C60.083 57.845 60 57.462 60 57.067V48C60 46.897 60.897 46 62 46C63.103 46 64 46.897 64 48V57.067C64 57.462 63.917 57.845 63.754 58.205L62.683 60.561C62.417 61.145 61.583 61.145 61.317 60.561Z" fill="white"/>
<path d="M49 48C45.691 48 43 50.691 43 54C43 57.309 45.691 60 49 60C52.309 60 55 57.309 55 54C55 50.691 52.309 48 49 48ZM45.528 56.828C46.533 56.577 47.14 55.687 47.14 54.794C47.145 54.621 47.204 54.456 47.283 54.356C47.409 54.213 47.549 54.127 47.722 54.092C49.912 53.608 50.17 51.022 49.43 49.543C51.571 49.75 53.262 51.447 53.459 53.591C53.257 53.616 52.567 53.329 51.811 53.435C49.485 53.715 48.337 56.475 49.675 58.431C47.977 58.69 46.493 58.009 45.528 56.828Z" fill="white"/>
<path d="M55 43H54C54 42.276 53.691 42 53.25 42H51.65C51.32 40.85 50.26 40 49 40C47.74 40 46.68 40.85 46.35 42H44.75C44.309 42 44 42.276 44 43H43C41.346 43 40 44.346 40 46V61C40 62.654 41.346 64 43 64H55C56.654 64 58 62.654 58 61V46C58 44.346 56.654 43 55 43ZM56 61C56 61.551 55.551 62 55 62H43C42.449 62 42 61.551 42 61V46C42 45.449 42.449 45 43 45H44.177C44.461 45.588 45.059 46 45.75 46H52.25C52.941 46 53.539 45.588 53.823 45H55C55.551 45 56 45.449 56 46V61Z" fill="white"/>
</g>
<defs>
<filter id="filter0_f_7112_2944" x="0" y="0" width="104" height="104" filterUnits="userSpaceOnUse" color-interpolation-filters="sRGB">
<feFlood flood-opacity="0" result="BackgroundImageFix"/>
<feBlend mode="normal" in="SourceGraphic" in2="BackgroundImageFix" result="shape"/>
<feGaussianBlur stdDeviation="10" result="effect1_foregroundBlur_7112_2944"/>
</filter>
<linearGradient id="paint0_linear_7112_2944" x1="20" y1="76.1412" x2="91.1367" y2="60.667" gradientUnits="userSpaceOnUse">
<stop stop-color="#3AA0FF"/>
<stop offset="0.984375" stop-color="#53D0F7"/>
</linearGradient>
<linearGradient id="paint1_linear_7112_2944" x1="20" y1="76.1412" x2="91.1367" y2="60.667" gradientUnits="userSpaceOnUse">
<stop stop-color="#3AA0FF"/>
<stop offset="0.984375" stop-color="#53D0F7"/>
</linearGradient>
<clipPath id="clip0_7112_2944">
<rect width="24" height="24" fill="white" transform="translate(40 40)"/>
</clipPath>
</defs>
</svg>
