<svg width="36" height="36" viewBox="0 0 36 36" fill="none" xmlns="http://www.w3.org/2000/svg">
<path d="M20.3164 15.6837C19.0878 14.4556 17.4217 13.7656 15.6844 13.7656C13.9472 13.7656 12.2811 14.4556 11.0524 15.6837L6.41895 20.3157C5.19027 21.5444 4.5 23.2108 4.5 24.9484C4.5 26.6861 5.19027 28.3525 6.41895 29.5812C7.64763 30.8099 9.31408 31.5001 11.0517 31.5001C12.7893 31.5001 14.4558 30.8099 15.6844 29.5812L18.0004 27.2652" stroke="#178EE8" stroke-width="3" stroke-linecap="round" stroke-linejoin="round"/>
<path d="M15.6836 20.3164C16.9123 21.5446 18.5784 22.2345 20.3156 22.2345C22.0528 22.2345 23.7189 21.5446 24.9476 20.3164L29.5811 15.6844C30.8098 14.4558 31.5 12.7893 31.5 11.0517C31.5 9.31408 30.8098 7.64763 29.5811 6.41895C28.3524 5.19027 26.686 4.5 24.9483 4.5C23.2107 4.5 21.5443 5.19027 20.3156 6.41895L17.9996 8.73495" stroke="#178EE8" stroke-width="3" stroke-linecap="round" stroke-linejoin="round"/>
</svg>
