<svg width="98" height="98" viewBox="0 0 98 98" fill="none" xmlns="http://www.w3.org/2000/svg">
<circle opacity="0.2" cx="49" cy="49" r="49" fill="#00D4FF"/>
<path fill-rule="evenodd" clip-rule="evenodd" d="M47.0372 27C44.2322 27 41.5421 28.1062 39.5587 30.0754C37.5753 32.0445 36.461 34.7152 36.461 37.5C36.461 40.2848 37.5753 42.9555 39.5587 44.9246C41.5421 46.8938 44.2322 48 47.0372 48C49.8422 48 52.5323 46.8938 54.5158 44.9246C56.4992 42.9555 57.6135 40.2848 57.6135 37.5C57.6135 34.7152 56.4992 32.0445 54.5158 30.0754C52.5323 28.1062 49.8422 27 47.0372 27ZM47.0372 50.1C41.9712 50.1 37.36 51.5574 33.9692 53.6112C32.277 54.636 30.8302 55.8456 29.7853 57.1602C28.7573 58.4496 28 59.9973 28 61.65C28 63.4245 28.8694 64.8231 30.1216 65.8206C31.3061 66.7656 32.8693 67.3914 34.5298 67.8282C37.8676 68.7039 42.3223 69 47.0372 69C47.5251 69 48.0081 68.9965 48.4862 68.9895C48.8404 68.9847 49.1878 68.8916 49.4964 68.7188C49.805 68.5459 50.0649 68.299 50.2523 68.0005C50.4397 67.7019 50.5485 67.3615 50.5689 67.0103C50.5892 66.6592 50.5204 66.3086 50.3687 65.9907C49.5667 64.3052 49.1513 62.4641 49.1525 60.6C49.1525 57.9708 49.9626 55.5348 51.346 53.5167C51.5516 53.2168 51.6755 52.8691 51.7055 52.5076C51.7355 52.146 51.6707 51.7829 51.5173 51.4536C51.3639 51.1243 51.1273 50.8401 50.8303 50.6286C50.5334 50.4172 50.1863 50.2857 49.823 50.247C48.912 50.149 47.9834 50.1 47.0372 50.1ZM63.6715 52.1937C63.4853 51.8764 63.2186 51.6132 62.8979 51.4303C62.5772 51.2473 62.2138 51.151 61.844 51.151C61.4741 51.151 61.1107 51.2473 60.79 51.4303C60.4694 51.6132 60.2026 51.8764 60.0164 52.1937L58.0915 55.4739L54.356 56.2761C53.9943 56.3538 53.6595 56.5243 53.3849 56.7706C53.1104 57.0169 52.9057 57.3305 52.7914 57.6799C52.6771 58.0293 52.6571 58.4024 52.7334 58.7619C52.8098 59.1213 52.9798 59.4546 53.2264 59.7285L55.7732 62.5593L55.3882 66.3351C55.3509 66.7005 55.4108 67.0692 55.5619 67.4044C55.7129 67.7397 55.9499 68.0297 56.2491 68.2456C56.5484 68.4615 56.8994 68.5958 57.2673 68.6349C57.6351 68.674 58.0068 68.6167 58.3453 68.4687L61.844 66.9357L65.3426 68.4687C65.6811 68.6167 66.0528 68.674 66.4207 68.6349C66.7885 68.5958 67.1395 68.4615 67.4388 68.2456C67.738 68.0297 67.975 67.7397 68.1261 67.4044C68.2771 67.0692 68.337 66.7005 68.2997 66.3351L67.9147 62.5572L70.4615 59.7285C70.7082 59.4546 70.8782 59.1213 70.9545 58.7619C71.0308 58.4024 71.0109 58.0293 70.8965 57.6799C70.7822 57.3305 70.5776 57.0169 70.303 56.7706C70.0285 56.5243 69.6936 56.3538 69.3319 56.2761L65.5964 55.4739L63.6715 52.1937Z" fill="url(#paint0_linear_445_8811)"/>
<defs>
<linearGradient id="paint0_linear_445_8811" x1="28.2966" y1="26.7871" x2="72.8303" y2="66.9717" gradientUnits="userSpaceOnUse">
<stop stop-color="#54E2FF"/>
<stop offset="1" stop-color="#06C3EA"/>
</linearGradient>
</defs>
</svg>
