<svg width="36" height="36" viewBox="0 0 36 36" fill="none" xmlns="http://www.w3.org/2000/svg">
<path d="M8.99983 12.0004L17.9998 16.5004L26.9998 12.0004L17.9998 7.50038L8.99983 12.0004ZM18.7333 4.67437L30.7228 10.7884C31.4518 11.1604 31.7143 12.0034 31.3093 12.6739C31.1681 12.9042 30.9655 13.0907 30.7243 13.2124L18.7333 19.3264C18.5058 19.4411 18.2546 19.5009 17.9998 19.5009C17.7451 19.5009 17.4938 19.4411 17.2663 19.3264L5.27683 13.2124C4.54783 12.8404 4.28533 11.9974 4.69033 11.3269C4.83155 11.0965 5.03412 10.9101 5.27533 10.7884L17.2663 4.67437C17.7223 4.44187 18.2773 4.44187 18.7333 4.67437ZM18.7333 25.3234C18.5064 25.44 18.255 25.5008 17.9998 25.5008C17.7447 25.5008 17.4933 25.44 17.2663 25.3234L5.27683 19.1029C4.54783 18.7249 4.28533 17.8669 4.69033 17.1859C4.83063 16.9525 5.03322 16.7629 5.27533 16.6384C5.45022 16.5474 5.64445 16.4999 5.84158 16.4999C6.03872 16.4999 6.23295 16.5474 6.40783 16.6384L17.2678 22.2709C17.7223 22.5079 18.2773 22.5079 18.7333 22.2709L29.5918 16.6384C29.7665 16.5477 29.9605 16.5003 30.1573 16.5003C30.3542 16.5003 30.5481 16.5477 30.7228 16.6384C31.4518 17.0164 31.7143 17.8744 31.3093 18.5554C31.169 18.7887 30.9665 18.9783 30.7243 19.1029L18.7333 25.3234ZM18.7333 31.3234C18.5064 31.44 18.255 31.5008 17.9998 31.5008C17.7447 31.5008 17.4933 31.44 17.2663 31.3234L5.27683 25.1029C4.54783 24.7249 4.28533 23.8669 4.69033 23.1859C4.83063 22.9525 5.03322 22.7629 5.27533 22.6384C5.45022 22.5474 5.64445 22.4999 5.84158 22.4999C6.03872 22.4999 6.23295 22.5474 6.40783 22.6384L17.2678 28.2709C17.7223 28.5079 18.2773 28.5079 18.7333 28.2709L29.5918 22.6384C29.7665 22.5477 29.9605 22.5003 30.1573 22.5003C30.3542 22.5003 30.5481 22.5477 30.7228 22.6384C31.4518 23.0164 31.7143 23.8744 31.3093 24.5554C31.169 24.7887 30.9665 24.9783 30.7243 25.1029L18.7333 31.3234Z" fill="#178EE8"/>
</svg>
