<svg width="104" height="104" viewBox="0 0 104 104" fill="none" xmlns="http://www.w3.org/2000/svg">
<rect x="20" y="20" width="64" height="64" rx="16" fill="url(#paint0_linear_7112_2920)"/>
<g opacity="0.32" filter="url(#filter0_f_7112_2920)">
<rect x="20" y="20" width="64" height="64" rx="16" fill="url(#paint1_linear_7112_2920)"/>
</g>
<path d="M60.0001 61.9999H58.9999V58.7269C58.9999 57.0989 58.3071 55.5411 57.0969 54.4531L55.4039 52.93C55.137 52.689 54.9899 52.3591 54.9899 52C54.9899 51.6409 55.137 51.311 55.4039 51.0709L57.0969 49.548C58.3071 48.458 58.9999 46.9011 58.9999 45.2731V42.0001H60.0001C60.553 42.0001 61 41.552 61 40.9999C61 40.4481 60.553 40 60.0001 40H43.9999C43.447 40 43 40.4481 43 40.9999C43 41.552 43.447 42.0001 43.9999 42.0001H45.0001V45.2731C45.0001 46.9011 45.6929 48.4589 46.9031 49.5469L48.5961 51.07C48.863 51.311 49.0101 51.6409 49.0101 52C49.0101 52.3591 48.863 52.689 48.5961 52.9291L46.9031 54.452C45.6929 55.542 45.0001 57.0989 45.0001 58.7269V61.9999H43.9999C43.447 61.9999 43 62.448 43 63.0001C43 63.5519 43.447 64 43.9999 64H60.0001C60.553 64 61 63.5519 61 63.0001C61 62.448 60.553 61.9999 60.0001 61.9999ZM48.0001 58.8289C48.0001 58.0939 48.2861 57.404 48.8061 56.884L51.4699 54.22C51.7631 53.927 52.238 53.927 52.531 54.22L55.195 56.884C55.715 57.404 56.001 58.0939 56.001 58.8289V61.9999H48.0001V58.8289Z" fill="white"/>
<defs>
<filter id="filter0_f_7112_2920" x="0" y="0" width="104" height="104" filterUnits="userSpaceOnUse" color-interpolation-filters="sRGB">
<feFlood flood-opacity="0" result="BackgroundImageFix"/>
<feBlend mode="normal" in="SourceGraphic" in2="BackgroundImageFix" result="shape"/>
<feGaussianBlur stdDeviation="10" result="effect1_foregroundBlur_7112_2920"/>
</filter>
<linearGradient id="paint0_linear_7112_2920" x1="20" y1="76.1412" x2="91.1367" y2="60.667" gradientUnits="userSpaceOnUse">
<stop stop-color="#3AA0FF"/>
<stop offset="0.984375" stop-color="#53D0F7"/>
</linearGradient>
<linearGradient id="paint1_linear_7112_2920" x1="20" y1="76.1412" x2="91.1367" y2="60.667" gradientUnits="userSpaceOnUse">
<stop stop-color="#3AA0FF"/>
<stop offset="0.984375" stop-color="#53D0F7"/>
</linearGradient>
</defs>
</svg>
