<svg width="82" height="82" viewBox="0 0 82 82" fill="none" xmlns="http://www.w3.org/2000/svg">
<path d="M64.9937 9.23263L71.1109 12.8078C68.8149 11.463 65.6169 11.6598 62.1073 13.6934C61.2873 14.1526 60.5001 14.6938 59.7293 15.3006L53.5957 11.7418C54.3665 11.135 55.1537 10.5938 55.9737 10.1182C59.4833 8.08461 62.6813 7.90423 64.9937 9.23263Z" fill="#178EE8"/>
<path d="M55.7615 6.29582C53.2687 4.85262 49.8247 5.06585 46.0035 7.26345C39.2139 11.1666 33.6051 20.1046 32.5555 28.2062L26.4219 24.631C27.4715 16.5458 33.0967 7.62424 39.8863 3.68824C43.6911 1.49064 47.1351 1.29385 49.6279 2.75345L55.7615 6.29582Z" fill="#6461EE"/>
<path d="M16.1384 66.1403L10.0048 62.5651C8.2992 61.5647 7.2332 59.4491 7.2168 56.4479C7.2168 50.8719 10.8412 44.1643 15.4988 40.7695L21.6324 44.3447C16.9584 47.7231 13.334 54.4471 13.3504 60.0067C13.3668 63.0243 14.4328 65.1399 16.1384 66.1403Z" fill="#6461EE"/>
<path d="M21.6317 44.3456L15.4981 40.7704C15.4817 35.1288 19.3849 28.372 24.2065 25.584C24.9773 25.1412 25.7153 24.8296 26.4205 24.6328L32.5541 28.208C31.8325 28.4048 31.1109 28.7 30.3401 29.1428C25.5185 31.9308 21.6153 38.704 21.6317 44.3456Z" fill="#178EE8"/>
<path fill-rule="evenodd" clip-rule="evenodd" d="M59.7296 15.7909C59.6422 15.8018 59.5547 15.7799 59.4672 15.7253L53.35 12.1665C53.2024 12.0845 53.104 11.9369 53.104 11.7729C53.0876 11.6089 53.1532 11.4449 53.2844 11.3465C54.1044 10.7069 54.908 10.1657 55.728 9.69009C59.2868 7.62369 62.6652 7.31207 65.24 8.80447L71.3572 12.3633C71.3572 12.3633 71.3572 12.3687 71.3572 12.3797C71.6032 12.5109 71.6852 12.8225 71.5376 13.0521C71.4064 13.2817 71.1112 13.3637 70.8652 13.2325C68.6184 11.9205 65.6008 12.2321 62.3536 14.1181C61.5664 14.5609 60.812 15.0857 60.0248 15.6925C59.9428 15.7581 59.828 15.7909 59.7296 15.7909ZM54.4816 11.6909L59.6804 14.7085C60.402 14.1509 61.1236 13.6753 61.8452 13.2489C63.9444 12.0517 65.9616 11.4449 67.782 11.4449C67.782 11.4449 67.7875 11.4449 67.7984 11.4449L64.7316 9.65726C62.4848 8.36166 59.4672 8.67329 56.22 10.5429C55.6296 10.8873 55.072 11.2645 54.4816 11.6909Z" fill="black"/>
<path fill-rule="evenodd" clip-rule="evenodd" d="M32.5537 28.6986C32.4717 28.6986 32.3733 28.6822 32.3077 28.633L26.1741 25.0742C25.9937 24.9594 25.8953 24.779 25.9281 24.5822C27.0105 16.2018 32.7669 7.23096 39.6385 3.26216C43.4761 1.04816 47.1169 0.703795 49.8721 2.31099L56.0057 5.86979C56.2353 6.01739 56.3173 6.31256 56.1861 6.54216C56.0549 6.78816 55.7433 6.87018 55.5137 6.72258H55.4973C53.0701 5.31218 49.7737 5.65656 46.2477 7.69016C39.6385 11.495 34.0953 20.1542 33.0457 28.2722C33.0293 28.4362 32.9146 28.5838 32.767 28.6494C32.7014 28.6822 32.6303 28.6986 32.5537 28.6986ZM26.9613 24.369L32.1601 27.403C33.4721 19.2358 39.0973 10.675 45.7557 6.82099C48.0681 5.49259 50.2821 4.85299 52.3157 4.88579L49.3801 3.18016C46.9365 1.75336 43.6565 2.08139 40.1305 4.11499C33.6033 7.9034 28.1093 16.3822 26.9613 24.369Z" fill="black"/>
<path fill-rule="evenodd" clip-rule="evenodd" d="M16.1382 66.6312C16.0508 66.6312 15.9688 66.6093 15.8922 66.5655L9.75866 62.9904C7.80706 61.8588 6.74106 59.53 6.72466 56.4468C6.70826 50.7888 10.3655 43.8844 15.2199 40.3748C15.3675 40.26 15.5806 40.2436 15.761 40.342L21.8782 43.9172C22.0258 43.9992 22.1242 44.1468 22.1242 44.3108C22.1406 44.4748 22.0587 44.6388 21.9275 44.7372C17.3027 48.0828 13.8423 54.6427 13.8587 60.0055C13.8587 62.7279 14.7606 64.7616 16.3842 65.6964C16.6302 65.844 16.7123 66.1392 16.5647 66.3852C16.4827 66.5328 16.3022 66.6312 16.1382 66.6312ZM15.5315 41.3588C11.0543 44.77 7.70864 51.1824 7.72504 56.4468C7.72504 59.1692 8.62706 61.1863 10.2507 62.1375L13.711 64.1384C13.1534 63.0068 12.8582 61.6127 12.8582 60.0055C12.8418 54.5935 16.1875 48.0172 20.7467 44.3928L15.5315 41.3588Z" fill="black"/>
<path fill-rule="evenodd" clip-rule="evenodd" d="M21.6315 44.8374C21.544 44.8374 21.462 44.8155 21.3855 44.7718L15.2519 41.1966C15.1043 41.1146 15.0059 40.9506 15.0059 40.7702C14.9895 35.0302 19.0075 28.011 23.9603 25.1574C24.7475 24.6982 25.5019 24.3702 26.2891 24.157C26.4203 24.1242 26.5515 24.1406 26.6663 24.2062L32.7999 27.7814C32.9803 27.8798 33.0623 28.0602 33.0459 28.257C33.0131 28.4702 32.8819 28.6178 32.6851 28.6834C31.9799 28.8802 31.2911 29.1754 30.5859 29.5854C25.9119 32.2914 22.1071 38.9006 22.1235 44.3454C22.1235 44.5094 22.0415 44.6898 21.8775 44.7718C21.801 44.8155 21.719 44.8374 21.6315 44.8374ZM16.0063 40.4914L21.1559 43.4926C21.5167 37.9166 25.3871 31.4386 30.0939 28.7162C30.5203 28.4757 30.9467 28.268 31.3731 28.093L26.3547 25.1738C25.7315 25.3706 25.1083 25.6494 24.4523 26.0102C19.8603 28.667 16.1211 35.1122 16.0063 40.4914Z" fill="black"/>
<path d="M46.0021 7.26482C53.5461 2.90242 59.7125 6.37922 59.7289 15.0548V15.3008C60.4997 14.694 61.2869 14.1528 62.1069 13.6936C69.0769 9.65921 74.7841 12.8736 74.8005 20.9096C74.8169 28.962 69.1589 38.7528 62.1889 42.7872C55.3993 46.7068 28.1917 62.4344 22.9273 65.4684C17.6629 68.5024 13.3661 66.0752 13.3497 60.0072C13.3333 54.4476 16.9577 47.7236 21.6317 44.3452C21.6153 38.7036 25.5185 31.9304 30.3401 29.1424C31.1109 28.6996 31.8325 28.4044 32.5541 28.2076C33.6037 20.1224 39.2289 11.1844 46.0021 7.26482Z" fill="white"/>
<path d="M74.8017 20.9075C74.8181 28.9599 69.1601 38.7507 62.1901 42.7851C55.4005 46.7047 28.1929 62.4159 22.9285 65.4663C17.6641 68.5003 13.3673 66.0731 13.3673 60.0051C13.3509 56.5939 14.7121 52.7071 16.8605 49.4599C20.5341 50.6079 24.4865 51.2475 28.6357 51.2475C47.0037 51.2475 61.8949 38.8983 61.8949 23.6627C61.8949 20.6123 61.2881 17.6931 60.1893 14.9543C60.7961 14.4787 61.4521 14.0687 62.1081 13.6751C69.0781 9.65711 74.7853 12.8715 74.8017 20.9075Z" fill="#E9EDF4"/>
<path fill-rule="evenodd" clip-rule="evenodd" d="M18.6467 67.2731C17.6463 67.2731 16.7279 67.0435 15.9079 66.5679C13.9563 65.4527 12.8739 63.1239 12.8575 60.0079C12.8411 54.4483 16.3835 47.6423 21.1395 44.0835C21.2379 38.3927 25.2067 31.5375 30.0939 28.7167C30.7663 28.3231 31.4387 28.0279 32.1111 27.8147C33.2919 19.5327 38.9991 10.7423 45.7559 6.8391C49.5935 4.6251 53.2179 4.2807 55.9731 5.8551C58.5479 7.3475 60.0403 10.3323 60.2043 14.3175C60.7619 13.9239 61.3031 13.5795 61.8443 13.2515C65.4031 11.2015 68.7815 10.8899 71.3399 12.3659C73.8819 13.8255 75.2923 16.8595 75.2923 20.9103C75.3251 29.0939 69.5523 39.0979 62.4347 43.2143L23.1731 65.8955C21.5823 66.8139 20.0407 67.2731 18.6467 67.2731ZM46.2643 7.69189C39.6387 11.5131 34.0955 20.1559 33.0459 28.2575C33.0131 28.4707 32.8819 28.6183 32.6851 28.6839C31.9799 28.8807 31.2911 29.1759 30.5859 29.5859C25.9119 32.2919 22.1071 38.9011 22.1235 44.3459C22.1235 44.4935 22.0579 44.6575 21.9267 44.7395C17.3019 48.0851 13.8415 54.6451 13.8579 60.0079C13.8579 62.7467 14.7599 64.7803 16.3999 65.7151C18.0563 66.6663 20.2867 66.4203 22.6811 65.0427L61.9427 42.3615C68.7815 38.4091 74.3247 28.7823 74.3083 20.9103C74.2919 17.2367 73.0619 14.4979 70.8479 13.2187C68.6011 11.9231 65.5835 12.2511 62.3527 14.1207C61.5655 14.5635 60.8111 15.0883 60.0239 15.6951C59.8763 15.8099 59.6631 15.8427 59.4991 15.7443C59.3351 15.6623 59.2203 15.4819 59.2203 15.2851L59.2367 15.0391C59.2203 11.0703 57.8919 8.10191 55.4811 6.72431C53.0375 5.31391 49.7575 5.65829 46.2643 7.69189Z" fill="black"/>
<path d="M62.7143 70.2073C61.3859 70.2073 60.1887 69.2725 59.9263 67.9113L51.9559 26.7636C51.6607 25.222 52.6611 23.7296 54.2027 23.4344C55.7443 23.1392 57.2367 24.1397 57.5483 25.6813L65.5187 66.8124C65.8139 68.3704 64.8135 69.8629 63.2719 70.1581C63.0861 70.1909 62.9002 70.2073 62.7143 70.2073Z" fill="white"/>
<path fill-rule="evenodd" clip-rule="evenodd" d="M62.7143 70.6987C61.1235 70.6987 59.746 69.5671 59.4508 67.9927L51.464 26.8615C51.1196 25.0575 52.3004 23.3026 54.1208 22.9418C54.99 22.7778 55.8755 22.9582 56.6135 23.4502C57.3515 23.9586 57.86 24.7131 58.024 25.5987L66.0108 66.7298C66.3552 68.5338 65.1744 70.2887 63.354 70.6495C63.1462 70.6823 62.933 70.6987 62.7143 70.6987ZM54.7603 23.8767C54.6073 23.8767 54.4542 23.8876 54.3011 23.9095C53.0383 24.1719 52.202 25.4018 52.448 26.681L60.4183 67.8122C60.6643 69.0586 61.8779 69.9279 63.1735 69.6655C64.4363 69.4195 65.2728 68.1894 65.0268 66.9102L57.0563 25.779C56.9415 25.1558 56.5807 24.631 56.0723 24.2702C55.6787 24.0078 55.2195 23.8767 54.7603 23.8767Z" fill="black"/>
<path d="M56.2701 39.277L40.9197 48.1658C40.4605 48.4282 39.985 48.543 39.493 48.543C38.509 48.543 37.5578 48.0346 37.033 47.1162C36.2458 45.755 36.7049 44.0166 38.0661 43.2294L53.433 34.3406C55.8602 32.9302 58.6973 37.8666 56.2701 39.277Z" fill="#6461EE"/>
<path fill-rule="evenodd" clip-rule="evenodd" d="M39.4932 49.0341C38.3124 49.0341 37.1971 48.3945 36.6067 47.3613C35.6719 45.7705 36.2295 43.7205 37.8203 42.8021L53.1707 33.9133C53.8759 33.5033 54.6959 33.5033 55.4667 33.8805C56.0899 34.1921 56.6803 34.7825 57.1067 35.5041C57.9267 36.9473 58.0087 38.8497 56.5163 39.7025L41.1659 48.5913C40.6575 48.8865 40.0836 49.0341 39.4932 49.0341ZM54.3352 34.5857C54.1056 34.5857 53.8869 34.6458 53.6792 34.7661L38.3123 43.6549C37.1971 44.3109 36.8035 45.7541 37.4595 46.8693C38.0827 47.9517 39.5751 48.3617 40.6739 47.7385L56.0243 38.8497C56.9919 38.2921 56.8115 36.9801 56.2375 35.9961C55.9259 35.4385 55.4667 34.9957 55.0075 34.7661C54.7779 34.6458 54.5538 34.5857 54.3352 34.5857Z" fill="black"/>
<path d="M58.4029 50.2821L43.0526 59.1709C42.5934 59.4333 42.1014 59.5481 41.6258 59.5481C40.6418 59.5481 39.6906 59.0397 39.1658 58.1213C38.3786 56.7601 38.8377 55.0217 40.1989 54.2345L55.5494 45.3457C57.9274 43.9681 60.7809 48.9045 58.4029 50.2821Z" fill="#6461EE"/>
<path fill-rule="evenodd" clip-rule="evenodd" d="M41.6251 60.0398C40.4279 60.0398 39.329 59.4001 38.7222 58.3669C37.8038 56.7761 38.3614 54.7262 39.9522 53.8078L55.3027 44.9189C55.9915 44.5089 56.7951 44.509 57.5659 44.9026C58.1891 45.2306 58.7631 45.8046 59.1895 46.5262C60.0259 47.9694 60.1079 49.8718 58.6483 50.7082L43.2979 59.5969C42.7895 59.8921 42.2155 60.0398 41.6251 60.0398ZM56.4179 45.6078C56.2101 45.6078 56.0079 45.6624 55.8111 45.7718L40.4442 54.6606C39.329 55.3166 38.9355 56.7433 39.5915 57.8749C40.2147 58.9573 41.7071 59.3674 42.7895 58.7442L58.1563 49.8554C59.0911 49.3142 58.8943 48.0022 58.3203 47.0182C58.0087 46.477 57.5659 46.0178 57.1067 45.7882C56.8771 45.6679 56.6475 45.6078 56.4179 45.6078Z" fill="black"/>
<path d="M60.5324 61.285L45.1656 70.141C44.7228 70.4034 44.2308 70.5347 43.7552 70.5347C42.7712 70.5347 41.8036 70.0262 41.2788 69.1078C40.4916 67.7466 40.9672 65.9918 42.3284 65.221L57.6788 56.3487C59.942 55.0367 62.7792 59.973 60.5324 61.285Z" fill="#6461EE"/>
<path fill-rule="evenodd" clip-rule="evenodd" d="M43.7556 71.0264C42.5584 71.0264 41.4432 70.3867 40.8528 69.3535C39.9344 67.7627 40.4756 65.7128 42.0828 64.778L57.4332 55.922C58.1056 55.5284 58.8928 55.5447 59.6308 55.9547C60.2376 56.2827 60.7952 56.8568 61.2216 57.5784C62.0252 58.9888 62.2384 60.8748 60.7788 61.7112L45.412 70.5835C44.9036 70.8787 44.3296 71.0264 43.7556 71.0264ZM58.4664 56.6272C58.2805 56.6272 58.1001 56.6763 57.9252 56.7747L42.5748 65.6472C41.4432 66.2868 41.066 67.7299 41.7056 68.8615C42.3288 69.9439 43.8212 70.354 44.92 69.7144L60.2868 60.8584C60.6476 60.6288 60.8444 60.2679 60.8608 59.7595C60.8608 59.2511 60.6804 58.6443 60.3688 58.0867C60.0408 57.5127 59.598 57.0536 59.1552 56.824C58.9146 56.6928 58.6851 56.6272 58.4664 56.6272Z" fill="black"/>
<path d="M45.609 80.1142C44.2642 80.1142 43.0834 79.163 42.821 77.8018L34.8342 36.6707C34.539 35.1291 35.5558 33.6202 37.0974 33.325C38.639 33.0298 40.1314 34.0302 40.4266 35.5882L48.397 76.7194C48.6922 78.261 47.6918 79.7535 46.1502 80.0487C45.9643 80.0924 45.7839 80.1142 45.609 80.1142Z" fill="white"/>
<path fill-rule="evenodd" clip-rule="evenodd" d="M45.6095 80.6057C44.0187 80.6057 42.6247 79.4577 42.3295 77.8997L34.3591 36.7685C33.9983 34.9481 35.1955 33.1933 36.9995 32.8325C38.8035 32.4881 40.5584 33.6853 40.9192 35.4893L48.8895 76.6205C49.2339 78.4245 48.0532 80.1957 46.2492 80.5401C46.0305 80.5839 45.8173 80.6057 45.6095 80.6057ZM37.6391 33.7673C37.4861 33.7673 37.333 33.7837 37.1799 33.8165C35.9171 34.0625 35.0807 35.2925 35.3267 36.5717L43.2972 77.7029C43.5432 78.9493 44.7732 79.8185 46.0524 79.5725C47.3316 79.3265 48.1679 78.0801 47.9219 76.8009L39.9352 35.6697C39.722 34.5545 38.738 33.7673 37.6391 33.7673Z" fill="black"/>
</svg>
