<svg width="56" height="56" viewBox="0 0 56 56" fill="none" xmlns="http://www.w3.org/2000/svg">
<rect width="56" height="56" rx="12" fill="url(#paint0_linear_241_1773)" fill-opacity="0.9"/>
<path d="M36 22C36 19.832 32.337 18 28 18C23.663 18 20 19.832 20 22V24C20 26.168 23.663 28 28 28C32.337 28 36 26.168 36 24V22ZM28 35C23.663 35 20 33.168 20 31V34C20 36.168 23.663 38 28 38C32.337 38 36 36.168 36 34V31C36 33.168 32.337 35 28 35Z" fill="white"/>
<path d="M36 26C36 28.168 32.337 30 28 30C23.663 30 20 28.168 20 26V29C20 31.168 23.663 33 28 33C32.337 33 36 31.168 36 29V26Z" fill="white"/>
<defs>
<linearGradient id="paint0_linear_241_1773" x1="33.1852" y1="-10.1874" x2="45.6036" y2="53.5816" gradientUnits="userSpaceOnUse">
<stop offset="0.168198" stop-color="#FF9DC8"/>
<stop offset="0.984375" stop-color="#EB2B7E"/>
</linearGradient>
</defs>
</svg>
