<svg width="82" height="82" viewBox="0 0 82 82" fill="none" xmlns="http://www.w3.org/2000/svg">
<path d="M64.2551 15.1028C67.4039 13.2824 69.9787 14.7256 69.9787 18.3664L70.0607 46.5252C70.0771 50.166 67.5187 54.594 64.3699 56.4144L23.8291 79.8172C20.6639 81.6376 18.1055 80.1616 18.0891 76.5372L18.0235 48.362C18.0071 44.7376 20.5491 40.326 23.7143 38.5056L64.2551 15.1028Z" fill="white"/>
<path d="M70.0603 46.5426C70.0767 50.167 67.5183 54.5949 64.3695 56.4153L23.8287 79.8181C20.6799 81.6385 18.1051 80.1625 18.0887 76.5381L18.0723 69.0269C25.7639 70.1749 34.5543 69.0433 43.0495 65.2713C62.0407 56.8745 72.3235 38.5885 66.0423 24.4189C64.7959 21.5981 62.9919 19.1545 60.7451 17.1209L64.2547 15.1038C67.4035 13.2834 69.9783 14.7429 69.9947 18.3673L70.0603 46.5426Z" fill="#E9EDF4"/>
<path fill-rule="evenodd" clip-rule="evenodd" d="M21.2712 81.0993C20.6316 81.0993 20.0576 80.9517 19.5328 80.6565C18.2864 79.9349 17.614 78.4753 17.5976 76.5401L17.5156 48.3649C17.5156 44.5929 20.1724 39.9681 23.4688 38.0657L64.0096 14.6629C65.6988 13.6953 67.306 13.5477 68.5524 14.2693C69.7988 14.9745 70.4712 16.4341 70.4876 18.3693L70.5532 46.5281C70.5696 50.3165 67.9128 54.9413 64.6164 56.8437L24.0756 80.2465C23.0916 80.8205 22.1404 81.0993 21.2712 81.0993ZM64.5016 15.5321L23.9608 38.9349C20.9432 40.6733 18.4996 44.9045 18.516 48.3649L18.598 76.5401C18.598 78.1145 19.1064 79.2625 20.0248 79.7873C20.9432 80.3285 22.206 80.1809 23.5836 79.3937L64.1244 55.9909C67.142 54.2361 69.5856 50.0049 69.5692 46.5281L69.4872 18.3693C69.4872 16.8113 68.9788 15.6469 68.0604 15.1221C67.142 14.5973 65.8792 14.7285 64.5016 15.5321Z" fill="black"/>
<path d="M62.1228 11.1004C61.0732 10.4772 59.6464 10.5756 58.0556 11.4776L17.5148 34.8968C15.7928 35.8808 14.284 37.652 13.2344 39.6364L19.4336 43.228C20.4832 41.2436 21.992 39.4888 23.714 38.4884L64.2548 15.102C65.8456 14.1836 67.2724 14.1016 68.322 14.692L62.1228 11.1004Z" fill="#6461EE"/>
<path fill-rule="evenodd" clip-rule="evenodd" d="M19.4338 43.7204C19.3463 43.7204 19.2643 43.6985 19.1878 43.6547L12.9886 40.0631C12.759 39.9319 12.677 39.6367 12.7918 39.3907C13.9398 37.2095 15.5306 35.4711 17.269 34.4707L57.8098 11.0515C59.499 10.0675 61.1226 9.93635 62.369 10.6744L68.5682 14.2659C68.7978 14.3971 68.8798 14.7088 68.7486 14.9384C68.601 15.1844 68.3058 15.2663 68.0598 15.1187C67.1414 14.5939 65.8786 14.7251 64.501 15.5287L23.9602 38.9315C22.4022 39.8171 20.9262 41.4735 19.8766 43.4579C19.811 43.5727 19.6962 43.6711 19.565 43.7039C19.5212 43.7149 19.4775 43.7204 19.4338 43.7204ZM13.907 39.4399L19.237 42.5395C20.3686 40.5715 21.8446 38.9972 23.4682 38.0624L64.009 14.6595C64.6814 14.2823 65.3374 14.0199 65.9606 13.9051L61.8606 11.5271C60.9422 10.9859 59.6794 11.1171 58.3018 11.9207L17.761 35.3235C16.3178 36.1599 14.9238 37.6359 13.907 39.4399Z" fill="black"/>
<path d="M11.8246 44.7699L11.9066 72.9287C11.9066 74.7327 12.5298 76.0119 13.5794 76.6023L19.7786 80.2103C18.729 79.6199 18.1058 78.3407 18.1058 76.5367L18.0074 48.3615C18.0074 46.7051 18.5486 44.8847 19.4342 43.2283L13.235 39.6367C12.3658 41.2931 11.8082 43.1135 11.8246 44.7699Z" fill="#178EE8"/>
<path fill-rule="evenodd" clip-rule="evenodd" d="M19.7788 80.719C19.6913 80.719 19.6093 80.6972 19.5328 80.6534C19.5219 80.6425 19.5109 80.637 19.5 80.637L13.3336 77.029C12.0872 76.3238 11.4148 74.8642 11.4148 72.929L11.3164 44.7702C11.3164 43.0974 11.8248 41.2442 12.7924 39.391C12.858 39.2762 12.9728 39.1942 13.104 39.1614C13.2188 39.1122 13.3664 39.1286 13.4812 39.1942L19.6804 42.8022C19.91 42.9334 19.992 43.2286 19.8772 43.4582C18.9916 45.131 18.4996 46.8694 18.516 48.3618L18.598 76.537C18.598 78.095 19.09 79.243 20.0084 79.7842H20.0248C20.2544 79.9318 20.3364 80.227 20.2052 80.473C20.1068 80.6206 19.9428 80.719 19.7788 80.719ZM13.4484 40.3258C12.7104 41.851 12.3168 43.409 12.3168 44.7702L12.3988 72.929C12.3988 74.487 12.9072 75.6514 13.8256 76.1762L17.9092 78.5542C17.7124 77.9638 17.5976 77.2914 17.5976 76.537L17.5156 48.3618C17.5156 46.8202 17.942 45.131 18.7784 43.4254L13.4484 40.3258Z" fill="black"/>
<path d="M19.9263 37.9008C19.8389 37.9008 19.7514 37.8789 19.6639 37.8352C19.4343 37.6876 19.3523 37.3924 19.4999 37.1464L38.8191 5.05162C38.9503 4.82202 39.2291 4.74 39.4587 4.8712L58.9419 14.5636C59.1879 14.6784 59.2863 14.99 59.1715 15.236C59.0403 15.4656 58.7451 15.5804 58.4991 15.4492L39.4259 5.95362L20.3527 37.6548C20.2543 37.8188 20.0903 37.9008 19.9263 37.9008Z" fill="black"/>
<path d="M38.6063 3.27921C38.1963 3.04961 37.6387 3.08239 37.0319 3.42679C35.7855 4.14839 34.7851 5.87041 34.8015 7.29721C34.8015 8.00241 35.0475 8.478 35.4575 8.724L32.3415 6.92C31.9315 6.6904 31.6855 6.18199 31.6855 5.47679C31.6855 4.06639 32.6859 2.34439 33.9159 1.62279C34.5391 1.26199 35.0967 1.22921 35.5067 1.47521L38.6063 3.27921Z" fill="#6461EE"/>
<path fill-rule="evenodd" clip-rule="evenodd" d="M35.441 9.21648C35.3644 9.21648 35.2824 9.19463 35.195 9.1509L32.0954 7.3469C31.505 7.0189 31.1934 6.34647 31.1934 5.47727C31.1934 3.88647 32.2758 2.0005 33.6698 1.1969C34.4242 0.754096 35.1622 0.704896 35.7526 1.0329L38.8686 2.85327C39.0982 2.98447 39.1802 3.29609 39.049 3.52569C38.9014 3.75529 38.6062 3.8373 38.3602 3.7061C38.0978 3.5585 37.7042 3.6077 37.2778 3.8701C36.1954 4.4933 35.277 6.05127 35.2934 7.28127C35.2934 7.78967 35.441 8.13409 35.687 8.28169L35.7034 8.2981C35.933 8.4293 36.015 8.72448 35.8838 8.97048C35.7854 9.13448 35.6214 9.21648 35.441 9.21648ZM34.9162 1.8201C34.703 1.8201 34.4406 1.90209 34.1618 2.04969C33.0794 2.67289 32.1774 4.24727 32.1774 5.47727C32.1774 5.96927 32.325 6.3465 32.5874 6.4941L34.3094 7.4781C34.2984 7.42344 34.293 7.36329 34.293 7.29769C34.293 5.69049 35.3754 3.8045 36.7694 3.0009C36.8459 2.9681 36.917 2.93528 36.9826 2.90248L35.2442 1.9021C35.1567 1.84744 35.0474 1.8201 34.9162 1.8201Z" fill="black"/>
<path d="M43.985 4.39633C43.3454 4.03553 42.4926 4.08472 41.5414 4.62592C39.639 5.72472 38.0974 8.38153 38.1138 10.5463C38.1138 11.6451 38.5074 12.3995 39.1142 12.7439L35.2602 10.5135C34.637 10.1527 34.2598 9.39832 34.2598 8.31592C34.2598 6.13472 35.785 3.47793 37.671 2.37913C38.6386 1.83793 39.4914 1.78874 40.1146 2.14954L43.985 4.39633Z" fill="white"/>
<path fill-rule="evenodd" clip-rule="evenodd" d="M39.1141 13.2527C39.0376 13.2527 38.9556 13.2308 38.8681 13.1871C38.8681 13.1762 38.8681 13.1707 38.8681 13.1707L35.0141 10.9403C34.2105 10.4811 33.7677 9.5463 33.7677 8.3163C33.7513 5.9875 35.4077 3.13389 37.4249 1.95309C38.5073 1.32989 39.5569 1.2479 40.3605 1.7235L44.2309 3.95392C44.4605 4.10152 44.5425 4.39671 44.4113 4.64271C44.2801 4.87231 43.9685 4.95429 43.7389 4.82309C43.2305 4.52789 42.5417 4.62631 41.7873 5.05271C40.0489 6.05311 38.6057 8.57871 38.6057 10.5467C38.6057 11.4159 38.8845 12.0391 39.3765 12.3179C39.6061 12.4655 39.6881 12.7607 39.5569 13.0067C39.4585 13.1543 39.2945 13.2527 39.1141 13.2527ZM39.2125 2.4123C38.8353 2.4123 38.3925 2.5435 37.9333 2.8223C36.1949 3.8063 34.7517 6.33192 34.7517 8.29992C34.7517 9.16912 35.0305 9.8087 35.5061 10.0875L37.6873 11.3503C37.6436 11.0988 37.6217 10.831 37.6217 10.5467C37.6053 8.18511 39.2289 5.39712 41.2953 4.19992C41.5468 4.04685 41.7982 3.92655 42.0497 3.83909L39.8685 2.5763C39.6826 2.46696 39.464 2.4123 39.2125 2.4123Z" fill="black"/>
<path d="M41.5409 4.62506C43.4269 3.54266 44.9685 4.41186 44.9849 6.59306C44.9849 8.77426 43.4433 11.4311 41.5573 12.5135C39.6549 13.6123 38.1133 12.7267 38.1133 10.5455C38.1133 8.38068 39.6385 5.72386 41.5409 4.62506Z" fill="white"/>
<path fill-rule="evenodd" clip-rule="evenodd" d="M40.0156 13.4808C39.6056 13.4808 39.212 13.3823 38.8676 13.1855C38.064 12.7263 37.6212 11.7916 37.6212 10.5452C37.6048 8.18357 39.2284 5.39557 41.2948 4.19837C42.3608 3.57517 43.4104 3.49317 44.214 3.95237C45.0176 4.42797 45.4768 5.36275 45.4768 6.59275C45.4768 8.95435 43.8696 11.7587 41.8032 12.9395C41.18 13.3003 40.5732 13.4808 40.0156 13.4808ZM41.7868 5.05117C40.0648 6.05157 38.6052 8.56077 38.6052 10.5452C38.6052 11.4144 38.884 12.054 39.376 12.3328C39.8516 12.6116 40.5568 12.5296 41.3112 12.0868C43.0332 11.0864 44.4928 8.57715 44.4764 6.59275C44.4764 5.72355 44.214 5.10034 43.722 4.82154C43.23 4.52634 42.5412 4.62477 41.7868 5.05117Z" fill="black"/>
<path d="M47.4938 44.051C48.0022 43.8542 48.363 44.1494 48.363 44.7234L48.3794 48.151C48.3794 48.7414 48.0022 49.4465 47.5102 49.8401L45.4438 51.4474C45.083 51.7262 44.7878 52.1854 44.6566 52.6446C44.6128 52.7976 44.5636 52.9507 44.509 53.1038C44.3614 53.5794 44.4106 54.0058 44.6074 54.2354L45.821 55.5146C46.1162 55.8262 46.067 56.4986 45.7226 57.1054L43.607 60.7626C43.4102 61.107 43.1478 61.3694 42.8854 61.5334C42.6722 61.6482 42.459 61.6974 42.2786 61.6646L40.5566 61.271C40.3762 61.2218 40.163 61.2709 39.9662 61.4021C39.8131 61.4787 39.671 61.5935 39.5398 61.7466C39.425 61.8614 39.3102 61.9762 39.2118 62.091C38.8674 62.4354 38.6214 62.9273 38.5558 63.3701L38.195 65.9778C38.113 66.5846 37.6702 67.2733 37.1782 67.5521L33.3078 69.7826L33.2586 69.3726L32.783 66.6994C32.7174 66.3222 32.4714 66.1254 32.1434 66.1746C32.0231 66.1855 31.9083 66.1964 31.799 66.2074C31.6678 66.2238 31.5202 66.273 31.3726 66.355C31.1758 66.4698 30.9626 66.6665 30.7822 66.8961L29.0602 69.2906C28.8798 69.5366 28.6666 69.7333 28.4534 69.8481C28.191 70.0121 27.9286 70.0449 27.7318 69.9301L25.6162 68.7166C25.239 68.5198 25.2062 67.8966 25.485 67.257L26.633 64.7314L26.6822 64.5838C26.8954 64.1082 26.9282 63.649 26.7806 63.3538C26.7314 63.2554 26.6822 63.1569 26.633 63.0421C26.5018 62.7305 26.2066 62.6158 25.8458 62.747L23.7794 63.5341C23.271 63.7145 22.9102 63.4358 22.9102 62.8618V59.4178C22.9102 58.8438 23.271 58.1386 23.763 57.745L25.8294 56.1378C26.1902 55.859 26.4854 55.4162 26.6166 54.957C26.6658 54.793 26.715 54.6125 26.7642 54.4321C26.9118 53.9893 26.8626 53.5794 26.6494 53.3498L25.4358 52.0706C25.157 51.759 25.2062 51.0866 25.5506 50.4634L27.6498 46.8226C27.863 46.4782 28.1254 46.2158 28.3878 46.0518C28.601 45.937 28.8142 45.8878 28.9946 45.9206L30.733 46.3141C30.897 46.3469 31.1102 46.2978 31.3234 46.183C31.4655 46.0955 31.6022 45.9807 31.7334 45.8386C31.8482 45.7238 31.9466 45.6089 32.0614 45.4941C32.3074 45.0349 32.4878 44.6578 32.7174 44.1986L33.0782 41.6074C33.1766 40.9842 33.603 40.3282 34.1114 40.033L37.0798 38.311C37.5882 38.0322 38.0146 38.1962 38.113 38.7046L38.4902 40.8694C38.5558 41.2466 38.8018 41.4598 39.1462 41.4106C39.261 41.3942 39.3758 41.3778 39.4906 41.3614C39.6218 41.3504 39.7584 41.3067 39.9006 41.2301C40.1138 41.1153 40.3106 40.9186 40.491 40.6726L42.213 38.2946C42.3934 38.0322 42.6066 37.8518 42.8198 37.7206C43.0822 37.573 43.3446 37.5402 43.5414 37.655L45.6734 38.8521C46.0178 39.0653 46.067 39.6721 45.7882 40.3281L44.5746 43.0014C44.3778 43.4606 44.3286 43.9198 44.4762 44.215C44.5308 44.3352 44.5855 44.45 44.6402 44.5594C44.7714 44.871 45.0666 44.953 45.411 44.8218L47.4938 44.051Z" fill="#6461EE"/>
<path d="M48.363 44.7234C48.363 44.1494 48.0022 43.8542 47.4938 44.051L45.411 44.8218C45.0666 44.953 44.7714 44.871 44.6402 44.5594C44.591 44.4446 44.5418 44.3298 44.4762 44.215C44.3286 43.9198 44.3778 43.4606 44.591 43.0014L45.7882 40.3281C46.067 39.6721 46.0178 39.0653 45.657 38.8521L43.5414 37.655C43.3446 37.5402 43.0822 37.573 42.8198 37.7206C42.6066 37.8518 42.3934 38.0322 42.213 38.2946L41.6554 39.0654C43.2462 41.673 44.1646 44.7398 44.1646 48.0198C44.1646 57.4006 36.6862 64.9938 27.4694 64.9938C27.1524 64.9938 26.8353 64.9828 26.5182 64.961L25.485 67.257C25.2062 67.8966 25.239 68.5198 25.6162 68.7166L27.7318 69.9301C27.9286 70.0449 28.191 70.0121 28.4534 69.8481C28.6666 69.7333 28.8798 69.553 29.0602 69.2906L30.7822 66.8961C30.9626 66.6665 31.1758 66.4698 31.3726 66.355C31.5202 66.273 31.6678 66.2238 31.799 66.2074C31.9138 66.2074 32.0286 66.191 32.1434 66.1746C32.4714 66.1254 32.7338 66.3386 32.783 66.6994L33.2422 69.3726L33.3078 69.7826L37.1618 67.5521C37.6702 67.2733 38.113 66.5846 38.195 65.9778L38.5558 63.3701C38.6214 62.9273 38.8674 62.4518 39.2118 62.091C39.3102 61.9762 39.425 61.8614 39.5398 61.7466C39.671 61.599 39.8186 61.4841 39.9662 61.4021C40.163 61.2709 40.3762 61.2218 40.5566 61.271L42.2786 61.6646C42.459 61.6974 42.6722 61.6482 42.8854 61.5334C43.1478 61.3694 43.4102 61.107 43.607 60.7626L45.7226 57.1054C46.067 56.4986 46.1162 55.8262 45.821 55.5146L44.6074 54.2354C44.4106 54.0058 44.3614 53.5793 44.509 53.1201C44.5582 52.9561 44.6074 52.7922 44.6566 52.6446C44.7878 52.169 45.083 51.7262 45.4438 51.4474L47.5102 49.8401C48.0022 49.4465 48.3794 48.725 48.3794 48.151L48.363 44.7234Z" fill="#178EE8"/>
<path fill-rule="evenodd" clip-rule="evenodd" d="M27.9947 70.4865C27.8143 70.4865 27.6339 70.4537 27.4863 70.3553L25.3707 69.1581C24.7639 68.8301 24.6327 67.9609 25.0263 67.0589L26.2235 64.3857C26.4039 64.0085 26.4039 63.7133 26.3383 63.5821L26.1907 63.2377C26.1579 63.1885 26.1087 63.1885 26.0267 63.2213L23.9603 63.9921C23.5667 64.1397 23.1895 64.1069 22.8943 63.9101C22.5991 63.6805 22.4187 63.3197 22.4187 62.8605L22.4023 59.4329C22.4023 58.6949 22.8451 57.8421 23.4519 57.3501L25.5347 55.7429C25.7971 55.5297 26.0267 55.1853 26.1251 54.8245C26.1907 54.6441 26.2399 54.4637 26.3055 54.2833C26.4039 53.9553 26.3547 53.7421 26.2891 53.6765L25.0755 52.3973C24.6327 51.9217 24.6491 51.0361 25.1247 50.2161L27.2239 46.5753C27.4699 46.1653 27.7979 45.8209 28.1423 45.6241C28.4703 45.4437 28.7983 45.3781 29.0935 45.4437L30.8319 45.8209C30.8647 45.8373 30.9467 45.8209 31.0779 45.7553C31.1763 45.6897 31.2747 45.6077 31.3731 45.5093L31.6519 45.1977C31.8651 44.7877 32.0455 44.4597 32.2423 44.0497L32.5867 41.5405C32.7015 40.7697 33.2263 39.9661 33.8495 39.6053L36.8343 37.8833C37.2443 37.6537 37.6543 37.6045 37.9987 37.7685C38.3103 37.9161 38.5235 38.2277 38.6055 38.6213L38.9663 40.7861C38.9991 40.9173 39.0319 40.9173 39.0811 40.9173C39.2287 40.9009 39.3435 40.8845 39.4583 40.8681C39.4747 40.8681 39.5403 40.8517 39.6551 40.8025C39.8027 40.7041 39.9667 40.5565 40.0979 40.3761L41.8199 37.9981C42.0331 37.7029 42.2955 37.4569 42.5579 37.2929C43.0007 37.0469 43.4435 37.0141 43.7879 37.2273L45.9035 38.4245C46.4939 38.7689 46.6251 39.6381 46.2315 40.5237L45.0343 43.2133C44.8539 43.5905 44.8703 43.8857 44.9195 43.9841L45.0835 44.3613C45.1163 44.3941 45.1655 44.3941 45.2475 44.3613L47.3303 43.5741C47.7075 43.4429 48.0847 43.4757 48.3635 43.6725C48.6751 43.8857 48.8555 44.2629 48.8555 44.7221L48.8719 48.1497C48.8719 48.8877 48.4291 49.7405 47.8059 50.2161L45.7395 51.8397C45.4771 52.0529 45.2311 52.4137 45.1327 52.7745C45.089 52.9276 45.0398 53.0916 44.9851 53.2665C44.8703 53.6273 44.9359 53.8405 44.9687 53.8897L46.1823 55.1689C46.6251 55.6445 46.6087 56.5465 46.1495 57.3501L44.0339 61.0073C43.8043 61.4173 43.4763 61.7453 43.1319 61.9585C42.8039 62.1389 42.4759 62.2045 42.1807 62.1389L40.4423 61.7453C40.4095 61.7453 40.3275 61.7453 40.2127 61.8273C40.0979 61.8765 39.9995 61.9749 39.9011 62.0733C39.7863 62.2045 39.6715 62.3193 39.5567 62.4341C39.2943 62.7129 39.0975 63.0901 39.0483 63.4509L38.6875 66.0421C38.5727 66.8129 38.0479 67.6165 37.4247 67.9773L33.5707 70.2077C33.4231 70.2897 33.2427 70.3061 33.0951 70.2241C32.9475 70.1585 32.8491 70.0109 32.8327 69.8633L32.2915 66.7965C32.2915 66.6981 32.2587 66.6653 32.2587 66.6653C32.0783 66.6817 31.9635 66.6981 31.8323 66.6981C31.7995 66.7145 31.7339 66.7145 31.6191 66.7801C31.4715 66.8621 31.3239 67.0097 31.1927 67.1901L29.4543 69.5845C29.2411 69.8797 28.9787 70.1257 28.6999 70.2897C28.4703 70.4209 28.2243 70.4865 27.9947 70.4865ZM26.1415 62.2045C26.5679 62.2045 26.9287 62.4341 27.0927 62.8441L27.2403 63.1557C27.4535 63.5657 27.4207 64.1725 27.1419 64.7793L25.9447 67.4689C25.7151 67.9445 25.8135 68.2561 25.8463 68.2889L27.9783 69.5025C27.9783 69.5025 28.0603 69.5025 28.2079 69.4205C28.3555 69.3385 28.5195 69.1909 28.6507 69.0105L30.3891 66.6161C30.6023 66.3209 30.8483 66.0749 31.1271 65.9273C31.3349 65.7961 31.5481 65.725 31.7667 65.7141C31.8651 65.7032 31.9635 65.6922 32.0619 65.6813C32.6687 65.5993 33.1771 65.9929 33.2755 66.6325L33.6855 68.9941L36.9163 67.1245C37.2935 66.9113 37.6379 66.3701 37.7035 65.9109L38.0643 63.3033C38.1463 62.7457 38.4415 62.1553 38.8515 61.7453C38.9663 61.6305 39.0647 61.5321 39.1631 61.4009C39.3381 61.226 39.5185 61.0784 39.7043 60.9581C40.0323 60.7777 40.3603 60.7121 40.6555 60.7777L42.3939 61.1713C42.4103 61.1877 42.5087 61.1713 42.6399 61.1057C42.8367 60.9745 43.0335 60.7613 43.1811 60.5153L45.2967 56.8581C45.5755 56.3825 45.5591 55.9397 45.4607 55.8577L44.2471 54.5621C43.9191 54.2013 43.8371 53.6109 44.0339 52.9549C44.0886 52.8018 44.1378 52.6542 44.1815 52.5121C44.3291 51.9545 44.6899 51.3969 45.1327 51.0525L47.1991 49.4453C47.5763 49.1501 47.8715 48.5761 47.8715 48.1497V44.7221C47.8715 44.5581 47.8223 44.4925 47.8059 44.4925C47.8059 44.4761 47.7567 44.4761 47.6747 44.5089L45.5919 45.2961C44.9851 45.5093 44.4111 45.2961 44.1815 44.7549L44.0831 44.5253C43.8207 44.0169 43.8535 43.4101 44.1323 42.8033L45.3295 40.1137C45.5427 39.6217 45.4771 39.3101 45.4115 39.2773L43.2959 38.0801C43.2959 38.0801 43.1975 38.0801 43.0663 38.1621C42.9023 38.2441 42.7547 38.3917 42.6235 38.5885L40.9015 40.9501C40.6719 41.2617 40.4259 41.4913 40.1471 41.6553C39.9394 41.7756 39.7317 41.8467 39.5239 41.8685C39.4091 41.8685 39.3271 41.8849 39.2287 41.8849C38.5891 41.9669 38.1135 41.6061 37.9987 40.9665L37.6215 38.7853C37.6051 38.7033 37.5723 38.6705 37.5723 38.6705C37.5559 38.6705 37.4739 38.6541 37.3263 38.7361L34.3579 40.4581C33.9807 40.6713 33.6363 41.2125 33.5707 41.6881L33.2099 44.2629C33.199 44.3176 33.1826 44.3722 33.1607 44.4269C32.9311 44.8861 32.7507 45.2469 32.5047 45.7225C32.4829 45.7663 32.4555 45.8045 32.4227 45.8373L32.0947 46.1817C31.9307 46.3621 31.7503 46.5097 31.5699 46.6081C31.2419 46.7885 30.9139 46.8541 30.6187 46.7885L28.8803 46.4113C28.8475 46.3949 28.7491 46.4113 28.6343 46.4769C28.4375 46.5917 28.2407 46.8213 28.0767 47.0837L25.9939 50.7081C25.6987 51.2001 25.7151 51.6265 25.8135 51.7249L27.0107 53.0041C27.3551 53.3813 27.4371 53.9553 27.2403 54.5785C27.1911 54.7589 27.1419 54.9229 27.0927 55.0869C26.9287 55.6445 26.5843 56.1857 26.1415 56.5301L24.0751 58.1373C23.6979 58.4325 23.4027 58.9901 23.4027 59.4165V62.8441C23.4027 63.0081 23.4519 63.0901 23.4683 63.0901C23.4683 63.0901 23.5175 63.1065 23.6159 63.0737L25.6823 62.2865C25.8354 62.2319 25.9885 62.2045 26.1415 62.2045Z" fill="black"/>
<path d="M35.6371 60.0198C38.6547 58.2814 41.0819 54.083 41.0655 50.6226C41.0655 47.1622 38.6055 45.7846 35.6043 47.5066C32.6031 49.245 30.1595 53.4598 30.1759 56.9202C30.1923 60.3642 32.6359 61.7582 35.6371 60.0198Z" fill="white"/>
<path d="M35.6371 60.0198C38.6547 58.2814 41.0819 54.083 41.0655 50.6226C41.0655 47.1622 38.6055 45.7846 35.6043 47.5066C32.6031 49.245 30.1595 53.4598 30.1759 56.9202C30.1923 60.3642 32.6359 61.7582 35.6371 60.0198Z" fill="white"/>
<path d="M41.0647 50.6258C41.0811 54.0862 38.6375 58.2846 35.6363 60.023C33.2091 61.417 31.1427 60.7938 30.4375 58.6782C30.4922 58.7 30.5414 58.7219 30.5851 58.7438C33.9143 60.023 37.7355 58.1534 39.1131 54.5618C40.1955 51.7082 39.4247 48.625 37.3747 46.8374C39.5231 46.4438 41.0647 47.887 41.0647 50.6258Z" fill="#E9EDF4"/>
<path fill-rule="evenodd" clip-rule="evenodd" d="M33.1933 61.2679C32.5865 61.2679 32.0289 61.1203 31.5205 60.8415C30.3397 60.1527 29.6837 58.7587 29.6837 56.9219C29.6673 53.3139 32.2257 48.9023 35.3581 47.0819C36.9817 46.1471 38.5233 46.0159 39.7205 46.7047C40.9013 47.3771 41.5573 48.7711 41.5573 50.6243C41.5737 54.2323 39.0317 58.6439 35.8829 60.4479C34.9481 60.9891 34.0297 61.2679 33.1933 61.2679ZM38.0477 47.2623C37.3917 47.2623 36.6373 47.4919 35.8501 47.9347C32.9801 49.5911 30.6677 53.6255 30.6677 56.9219C30.6841 58.3979 31.1597 59.4803 32.0125 59.9723C32.8981 60.4807 34.0953 60.3495 35.3909 59.5951C38.2609 57.9387 40.5897 53.9207 40.5733 50.6243C40.5733 49.1483 40.0977 48.0495 39.2285 47.5575C38.8841 47.3607 38.4741 47.2623 38.0477 47.2623Z" fill="black"/>
<path d="M64.6498 28.8152C64.945 28.7004 65.1746 28.8808 65.1746 29.2252V31.2916C65.1746 31.636 64.9614 32.0624 64.6498 32.3084L63.4034 33.276C63.1902 33.44 63.0098 33.7188 62.9442 33.9976C62.9114 34.0851 62.8786 34.178 62.8458 34.2764C62.7638 34.5552 62.7802 34.8177 62.9114 34.9489L63.6494 35.7196C63.8134 35.9164 63.797 36.3264 63.5838 36.6872L62.3046 38.8849C62.1898 39.0981 62.0258 39.262 61.8618 39.344C61.747 39.426 61.6158 39.4588 61.501 39.426L60.4678 39.1964C60.353 39.1636 60.2382 39.1964 60.107 39.2784C60.0195 39.3222 59.9321 39.3878 59.8446 39.4752C59.779 39.5518 59.7134 39.6228 59.6478 39.6884C59.451 39.9016 59.3034 40.1968 59.2542 40.4592L59.041 42.0336C58.9918 42.4108 58.7294 42.8045 58.4342 42.9849L56.1054 44.3296L56.0562 44.0836L55.7774 42.4764C55.7446 42.2468 55.597 42.132 55.4002 42.1484C55.3237 42.1594 55.2526 42.1703 55.187 42.1812C55.0995 42.1812 55.0175 42.2086 54.941 42.2632C54.8098 42.3288 54.6786 42.4436 54.5802 42.5912L53.5306 44.0344C53.4322 44.182 53.301 44.2969 53.1698 44.3789C53.0222 44.4609 52.8582 44.4772 52.727 44.4116L51.4642 43.69C51.2346 43.5752 51.2018 43.198 51.3822 42.8044L52.071 41.2792L52.1038 41.1972C52.235 40.9184 52.2514 40.6396 52.1694 40.4592C52.1366 40.3936 52.1038 40.328 52.071 40.2624C52.0054 40.082 51.825 40.0164 51.5954 40.0984L50.349 40.5576C50.0538 40.6724 49.8406 40.492 49.8242 40.1476V38.0812C49.8242 37.7368 50.0374 37.3105 50.349 37.0809L51.5954 36.0969C51.8086 35.9329 51.989 35.6704 52.0546 35.3916C52.0874 35.2932 52.1202 35.1894 52.153 35.08C52.235 34.8012 52.2186 34.5552 52.0874 34.424L51.3494 33.6532C51.1854 33.4564 51.2182 33.0628 51.4314 32.6856L52.6942 30.488C52.809 30.2748 52.973 30.1109 53.137 30.0289C53.2518 29.9469 53.383 29.9305 53.4978 29.9469L54.5474 30.1764C54.6458 30.2092 54.777 30.1764 54.9082 30.0944C54.9848 30.0507 55.0668 29.9851 55.1542 29.8976C55.2198 29.8211 55.2854 29.75 55.351 29.6844C55.4986 29.4056 55.6134 29.1924 55.7446 28.9136L55.9578 27.3392C56.0234 26.962 56.2694 26.5684 56.581 26.388L58.3686 25.3549C58.6802 25.1909 58.9426 25.2893 58.9918 25.6009L59.2214 26.8964C59.2542 27.126 59.4018 27.2572 59.615 27.2244C59.6806 27.2135 59.7517 27.2026 59.8282 27.1916C59.9048 27.1916 59.9868 27.1643 60.0742 27.1096C60.189 27.044 60.3202 26.9292 60.435 26.7816L61.4682 25.3384C61.583 25.1908 61.6978 25.076 61.829 25.0104C61.993 24.912 62.157 24.8956 62.2718 24.9612L63.551 25.6829C63.7642 25.8141 63.797 26.1748 63.6166 26.5684L62.895 28.192C62.7638 28.4544 62.7474 28.7332 62.8294 28.9136C62.8622 28.9792 62.895 29.0503 62.9278 29.1269C63.0098 29.3073 63.1902 29.3565 63.4034 29.2909L64.6498 28.8152Z" fill="#6461EE"/>
<path d="M65.1748 29.2252C65.1748 28.8808 64.9615 28.7004 64.6499 28.8152L63.4036 29.2909C63.1904 29.3565 63.0099 29.3073 62.9279 29.1269C62.8951 29.0503 62.8624 28.9792 62.8296 28.9136C62.7476 28.7332 62.764 28.4544 62.8952 28.192L63.6168 26.5684C63.7972 26.1748 63.7644 25.8141 63.5512 25.6829L62.2719 24.9612C62.1571 24.8956 61.9932 24.912 61.8292 25.0104C61.698 25.076 61.5832 25.1908 61.4684 25.3384L61.124 25.814C62.0916 27.372 62.6328 29.2252 62.6328 31.2096C62.6328 36.8676 58.1392 41.4432 52.5796 41.4432C52.3828 41.4432 52.1914 41.4378 52.0056 41.4269L51.3824 42.8044C51.2184 43.198 51.2348 43.5752 51.4644 43.69L52.7271 44.4116C52.8583 44.4772 53.006 44.4609 53.17 44.3789C53.3012 44.2969 53.4323 44.182 53.5307 44.0344L54.5804 42.5912C54.6788 42.4436 54.8099 42.3288 54.9247 42.2632C55.0231 42.214 55.1052 42.1812 55.1872 42.1812C55.2528 42.1703 55.3238 42.1594 55.4004 42.1484C55.5972 42.132 55.7448 42.2468 55.7776 42.4764L56.0564 44.0836L56.1056 44.3296L58.4344 42.9849C58.7296 42.8045 58.992 42.4108 59.0412 42.0336L59.2544 40.4592C59.3036 40.1968 59.4512 39.9016 59.648 39.6884C59.7136 39.6228 59.7846 39.5518 59.8612 39.4752C59.9268 39.3932 60.0252 39.3276 60.1072 39.2784C60.2384 39.1964 60.3532 39.1636 60.468 39.1964L61.5012 39.426C61.616 39.4588 61.7471 39.426 61.8619 39.3604C62.0259 39.262 62.19 39.0981 62.3048 38.8849L63.5839 36.6872C63.7971 36.3264 63.8136 35.9164 63.6496 35.7196L62.9116 34.9489C62.7804 34.8177 62.7639 34.5552 62.8459 34.2764C62.8787 34.178 62.9116 34.0851 62.9444 33.9976C63.01 33.7188 63.1904 33.44 63.4036 33.276L64.6664 32.3084C64.9616 32.0624 65.1748 31.636 65.1748 31.2916V29.2252Z" fill="#178EE8"/>
<path fill-rule="evenodd" clip-rule="evenodd" d="M52.8908 44.9533C52.7487 44.9533 52.6175 44.9205 52.4972 44.8549L51.218 44.1169C50.7588 43.8709 50.644 43.2477 50.9228 42.6081L51.6116 41.0829C51.7428 40.8041 51.7264 40.6893 51.7264 40.6729L51.6772 40.5909L50.5292 41.0337C50.234 41.1321 49.9388 41.0993 49.7092 40.9517C49.4632 40.7713 49.332 40.4925 49.332 40.1481V38.0817C49.332 37.5897 49.6272 37.0157 50.0372 36.6877L51.2836 35.7037C51.4148 35.6053 51.5296 35.4249 51.5788 35.2609C51.6116 35.1515 51.6499 35.0367 51.6936 34.9165C51.7264 34.8181 51.71 34.7361 51.71 34.7197L51.0048 33.9817C50.6604 33.6373 50.6768 33.0141 50.9884 32.4401L52.2676 30.2425C52.4316 29.9637 52.6448 29.7341 52.8908 29.6029C53.1204 29.4553 53.3828 29.4061 53.6124 29.4717L54.6456 29.7013C54.6784 29.6521 54.7276 29.6193 54.7932 29.5537L54.9408 29.4061L55.2688 28.7501L55.4656 27.2741C55.5476 26.7493 55.892 26.2245 56.3348 25.9621L58.1224 24.9289C58.4176 24.7485 58.7292 24.7321 59.008 24.8469C59.254 24.9617 59.4344 25.2077 59.4836 25.5029L59.6804 26.7165C59.7242 26.7055 59.7679 26.7001 59.8116 26.7001C59.8882 26.6454 59.9592 26.5743 60.0248 26.4869L61.058 25.0601C61.2056 24.8469 61.386 24.6829 61.5828 24.5681C61.8944 24.3877 62.2388 24.3713 62.5176 24.5353L63.7968 25.2569C64.2396 25.5193 64.3544 26.1261 64.0756 26.7657L63.354 28.3893C63.272 28.5697 63.272 28.6845 63.272 28.7009L63.3212 28.7829L64.4856 28.3565C64.7644 28.2417 65.0596 28.2745 65.2892 28.4221C65.5352 28.5861 65.6664 28.8813 65.6664 29.2257V31.2921C65.6828 31.7841 65.3876 32.3581 64.9612 32.6861L63.7148 33.6701C63.5836 33.7685 63.4688 33.9489 63.4196 34.1293C63.3868 34.2277 63.354 34.3261 63.3212 34.4245C63.2884 34.5557 63.2884 34.6377 63.3048 34.6541L64.01 35.3921C64.338 35.7365 64.338 36.3597 64.01 36.9337L62.7308 39.1313C62.5832 39.4101 62.3536 39.6397 62.1076 39.7873C61.878 39.9185 61.632 39.9677 61.4024 39.9185L60.3528 39.6725C60.32 39.7217 60.2708 39.7545 60.2216 39.8201L60.0084 40.0497C59.8772 40.1645 59.7788 40.3613 59.746 40.5417L59.5328 42.0997C59.4508 42.6245 59.1064 43.1657 58.68 43.4117L56.3512 44.7565C56.2036 44.8385 56.0396 44.8385 55.892 44.7729C55.7444 44.7073 55.646 44.5597 55.6132 44.4121L55.318 42.6573C55.2852 42.6682 55.2579 42.6737 55.236 42.6737C55.1212 42.7229 55.0392 42.8049 54.99 42.8869L53.9404 44.3301C53.7928 44.5269 53.6124 44.6909 53.4156 44.8057C53.2516 44.9041 53.0712 44.9533 52.8908 44.9533ZM51.7756 39.5577C52.1036 39.5577 52.3988 39.7545 52.53 40.0661L52.612 40.2465C52.7596 40.5417 52.7432 40.9681 52.5628 41.3945L51.8412 43.0181C51.7592 43.1985 51.7592 43.3133 51.7756 43.3297L52.9728 43.9857C52.9728 43.9201 53.0384 43.8709 53.1368 43.7397L54.1864 42.2965C54.3176 42.0997 54.498 41.9357 54.6784 41.8373C54.8424 41.7389 55.001 41.6897 55.154 41.6897L55.318 41.6569C55.7936 41.5913 56.1872 41.9029 56.2692 42.3949L56.466 43.5429L58.1716 42.5589C58.352 42.4605 58.516 42.1817 58.5488 41.9685L58.762 40.3941C58.8276 40.0169 59.0244 39.6233 59.3032 39.3445L59.4672 39.1641C59.5984 39.0165 59.7296 38.9181 59.8608 38.8361C60.0904 38.7049 60.3364 38.6557 60.566 38.7049L61.6156 38.9509C61.714 38.8689 61.8124 38.7705 61.878 38.6393L63.1572 36.4417C63.272 36.2285 63.272 36.0645 63.2556 36.0317L62.5504 35.2937C62.3044 35.0149 62.2388 34.5885 62.3864 34.1293C62.4083 34.0418 62.4302 33.9543 62.452 33.8669C62.5668 33.4897 62.7964 33.1289 63.108 32.8829L64.3544 31.9153C64.5512 31.7513 64.6824 31.4725 64.6824 31.2921V29.3405L63.5672 29.7505C63.108 29.9309 62.6488 29.7505 62.4684 29.3077L62.4192 29.1929C62.2388 28.8321 62.2552 28.4057 62.4356 27.9793L63.1736 26.3721C63.2556 26.1753 63.2392 26.0605 63.2228 26.0441L62.0256 25.3881C62.0092 25.4701 61.9272 25.5521 61.878 25.6341L60.8284 27.0609C60.6808 27.2741 60.5004 27.4381 60.32 27.5529C60.167 27.6294 60.0139 27.6786 59.8608 27.7005C59.7952 27.7005 59.746 27.7005 59.7132 27.7169C59.2048 27.7825 58.8112 27.4873 58.7292 26.9953L58.5324 25.8473L56.8268 26.8313C56.6628 26.9297 56.4824 27.1921 56.4496 27.4217L56.2364 28.9797C56.2255 29.0343 56.2091 29.0836 56.1872 29.1273L55.7936 29.9145C55.7718 29.9582 55.739 29.9965 55.6952 30.0293L55.5968 30.1441L55.5148 30.2425C55.4 30.3573 55.2852 30.4557 55.154 30.5377C54.908 30.6689 54.662 30.7181 54.4324 30.6525L53.3828 30.4393C53.2844 30.5049 53.186 30.6197 53.1204 30.7345L51.8576 32.9321C51.7428 33.1453 51.7264 33.3093 51.7428 33.3421L52.448 34.0801C52.694 34.3589 52.7596 34.7853 52.6284 35.2281C52.5956 35.3265 52.5628 35.4249 52.53 35.5233C52.4316 35.9005 52.1856 36.2613 51.8904 36.4909L50.644 37.4585C50.4472 37.6225 50.316 37.9013 50.316 38.0817L50.3324 40.0497L51.4312 39.6233C51.5515 39.5796 51.6663 39.5577 51.7756 39.5577ZM63.3704 28.9141H63.3868C63.3759 28.9141 63.3704 28.9141 63.3704 28.9141Z" fill="black"/>
<path d="M57.5001 38.0339C59.1237 37.0991 60.4193 34.8523 60.4193 32.9991C60.4193 31.1295 59.0909 30.3916 57.4837 31.3264C55.8765 32.2448 54.5645 34.5079 54.5645 36.3611C54.5809 38.2143 55.8929 38.9687 57.5001 38.0339Z" fill="white"/>
<path d="M57.5001 38.0339C59.1237 37.0991 60.4193 34.8523 60.4193 32.9991C60.4193 31.1295 59.0909 30.3916 57.4837 31.3264C55.8765 32.2448 54.5645 34.5079 54.5645 36.3611C54.5809 38.2143 55.8929 38.9687 57.5001 38.0339Z" fill="white"/>
<path fill-rule="evenodd" clip-rule="evenodd" d="M56.1879 38.9361C55.8271 38.9361 55.4827 38.8542 55.1875 38.6738C54.4659 38.2638 54.0723 37.4438 54.0723 36.3778C54.0723 34.3278 55.4663 31.917 57.2375 30.8838C58.1887 30.3426 59.0907 30.277 59.8123 30.687C60.5175 31.097 60.9111 31.917 60.9111 32.983C60.9111 35.033 59.5335 37.4437 57.7459 38.4605C57.2047 38.7721 56.6799 38.9361 56.1879 38.9361ZM58.7955 31.4085C58.4839 31.4085 58.1231 31.5234 57.7295 31.753C56.2863 32.5894 55.0563 34.7049 55.0727 36.3613C55.0727 37.0829 55.2859 37.5914 55.6795 37.821C56.0567 38.0342 56.6471 37.9686 57.2539 37.6078C58.7135 36.7714 59.9271 34.6557 59.9271 32.9993C59.9271 32.2777 59.6975 31.7694 59.3203 31.5398C59.1672 31.4523 58.9923 31.4085 58.7955 31.4085Z" fill="black"/>
</svg>
