<svg width="26" height="26" viewBox="0 0 26 26" fill="none" xmlns="http://www.w3.org/2000/svg">
<path d="M23.5625 17.6048V6.50065C23.5625 4.85723 22.2268 3.52148 20.5833 3.52148H5.41667C3.77325 3.52148 2.4375 4.85723 2.4375 6.50065V17.6048H23.5625ZM6.5 10.0215H9.20942L11.2526 7.11707C11.4292 6.86682 11.7325 6.73898 12.0348 6.78015C12.3381 6.82457 12.5916 7.03582 12.6891 7.32723L14.3303 12.251L15.5751 10.3833C15.7257 10.158 15.9792 10.0215 16.2511 10.0215H19.5011C19.9496 10.0215 20.3136 10.3855 20.3136 10.834C20.3136 11.2825 19.9496 11.6465 19.5011 11.6465H16.6855L14.7604 14.5347C14.6077 14.7622 14.3542 14.8965 14.0844 14.8965C14.0487 14.8965 14.0129 14.8943 13.9761 14.8889C13.6684 14.8477 13.4117 14.6354 13.3131 14.3407L11.6567 9.36824L10.2971 11.3009C10.1443 11.5176 9.89733 11.6465 9.633 11.6465H6.50108C6.05258 11.6465 5.68858 11.2825 5.68858 10.834C5.68858 10.3855 6.0515 10.0215 6.5 10.0215ZM23.5625 19.2298V19.5007C23.5625 21.1441 22.2268 22.4798 20.5833 22.4798H5.41667C3.77325 22.4798 2.4375 21.1441 2.4375 19.5007V19.2298H23.5625Z" fill="#FF0088"/>
</svg>
