<svg width="56" height="56" viewBox="0 0 56 56" fill="none" xmlns="http://www.w3.org/2000/svg">
<rect width="56" height="56" rx="12" fill="url(#paint0_linear_241_1677)" fill-opacity="0.9"/>
<path d="M24.25 26.4353L28.75 30.9353V36.625C28.75 36.7245 28.7105 36.8198 28.6402 36.8902C28.5698 36.9605 28.4745 37 28.375 37H20.5C20.1022 37 19.7206 36.842 19.4393 36.5607C19.158 36.2794 19 35.8978 19 35.5V20.5C19 20.1022 19.158 19.7206 19.4393 19.4393C19.7206 19.158 20.1022 19 20.5 19H22.375C22.4745 19 22.5698 19.0395 22.6402 19.1098C22.7105 19.1802 22.75 19.2755 22.75 19.375V30.3794C22.2496 30.5563 21.8278 30.9044 21.5593 31.3622C21.2907 31.82 21.1926 32.3581 21.2824 32.8812C21.3722 33.4043 21.644 33.8788 22.0498 34.221C22.4556 34.5631 22.9692 34.7507 23.5 34.7507C24.0308 34.7507 24.5444 34.5631 24.9502 34.221C25.356 33.8788 25.6278 33.4043 25.7176 32.8812C25.8074 32.3581 25.7093 31.82 25.4407 31.3622C25.1722 30.9044 24.7504 30.5563 24.25 30.3794V26.4353ZM23.5 33.25C23.6483 33.25 23.7933 33.206 23.9167 33.1236C24.04 33.0412 24.1361 32.9241 24.1929 32.787C24.2497 32.65 24.2645 32.4992 24.2356 32.3537C24.2067 32.2082 24.1352 32.0746 24.0303 31.9697C23.9254 31.8648 23.7918 31.7934 23.6463 31.7644C23.5008 31.7355 23.35 31.7503 23.213 31.8071C23.0759 31.8639 22.9588 31.96 22.8764 32.0833C22.794 32.2067 22.75 32.3517 22.75 32.5C22.75 32.6989 22.829 32.8897 22.9697 33.0303C23.1103 33.171 23.3011 33.25 23.5 33.25ZM33.25 25.75C33.25 25.6017 33.206 25.4567 33.1236 25.3333C33.0412 25.21 32.9241 25.1139 32.787 25.0571C32.65 25.0003 32.4992 24.9855 32.3537 25.0144C32.2082 25.0433 32.0746 25.1148 31.9697 25.2197C31.8648 25.3246 31.7934 25.4582 31.7644 25.6037C31.7355 25.7492 31.7503 25.9 31.8071 26.037C31.8639 26.1741 31.96 26.2912 32.0833 26.3736C32.2067 26.456 32.3517 26.5 32.5 26.5C32.6989 26.5 32.8897 26.421 33.0303 26.2803C33.171 26.1397 33.25 25.9489 33.25 25.75ZM35.5 19H30.625C30.5255 19 30.4302 19.0395 30.3598 19.1098C30.2895 19.1802 30.25 19.2755 30.25 19.375V22.4397L31.5306 23.7203C32.0096 23.4915 32.554 23.4394 33.0676 23.5732C33.5813 23.707 34.0311 24.018 34.3376 24.4514C34.644 24.8848 34.7874 25.4125 34.7424 25.9414C34.6974 26.4703 34.4668 26.9662 34.0915 27.3415C33.7162 27.7168 33.2203 27.9474 32.6914 27.9924C32.1625 28.0374 31.6348 27.894 31.2014 27.5876C30.768 27.2811 30.457 26.8313 30.3232 26.3176C30.1894 25.804 30.2415 25.2596 30.4703 24.7806L28.9703 23.2806C28.9005 23.211 28.8451 23.1283 28.8073 23.0372C28.7695 22.9462 28.75 22.8486 28.75 22.75V19.375C28.75 19.2755 28.7105 19.1802 28.6402 19.1098C28.5698 19.0395 28.4745 19 28.375 19H24.625C24.5255 19 24.4302 19.0395 24.3598 19.1098C24.2895 19.1802 24.25 19.2755 24.25 19.375V24.3147L30.0306 30.0944C30.1003 30.1641 30.1555 30.2468 30.1931 30.3379C30.2307 30.4289 30.2501 30.5265 30.25 30.625V36.625C30.25 36.7245 30.2895 36.8198 30.3598 36.8902C30.4302 36.9605 30.5255 37 30.625 37H35.5C35.8978 37 36.2794 36.842 36.5607 36.5607C36.842 36.2794 37 35.8978 37 35.5V20.5C37 20.1022 36.842 19.7206 36.5607 19.4393C36.2794 19.158 35.8978 19 35.5 19Z" fill="white"/>
<defs>
<linearGradient id="paint0_linear_241_1677" x1="3.12425" y1="3.13739" x2="54.3643" y2="37.6734" gradientUnits="userSpaceOnUse">
<stop offset="0.168198" stop-color="#5FBAFD"/>
<stop offset="0.984375" stop-color="#2B6CEB"/>
</linearGradient>
</defs>
</svg>
