<svg width="143" height="143" viewBox="0 0 143 143" fill="none" xmlns="http://www.w3.org/2000/svg">
<g filter="url(#filter1_d_2114_29835)">
<circle cx="71.5" cy="67.5" r="39.5" fill="url(#paint0_linear_2114_29835)" fill-opacity="0.9" shape-rendering="crispEdges"/>
<circle cx="71.5" cy="67.5" r="38.8828" stroke="url(#paint1_linear_2114_29835)" stroke-width="1.23438" shape-rendering="crispEdges"/>
</g>
<g opacity="0.5" filter="url(#filter2_d_2114_29835)">
<circle cx="71.5" cy="67.5" r="39.5" fill="url(#paint2_linear_2114_29835)" fill-opacity="0.9" shape-rendering="crispEdges"/>
<circle cx="71.5" cy="67.5" r="38.8828" stroke="url(#paint3_linear_2114_29835)" stroke-opacity="0.9" stroke-width="1.23438" shape-rendering="crispEdges"/>
</g>
<g clip-path="url(#clip0_2114_29835)">
<path d="M82.5 50H61.5C57.36 50 54 53.36 54 57.5V78.5C54 82.64 57.36 86 61.5 86H82.5C86.64 86 90 82.64 90 78.5V57.5C90 53.36 86.64 50 82.5 50ZM79.755 67.43L76.5 70.085L77.85 74.18C78.03 74.735 77.85 75.35 77.385 75.695C76.92 76.055 76.29 76.07 75.795 75.755L72.015 73.295L68.295 75.785C68.07 75.935 67.8 76.01 67.53 76.01C67.245 76.01 66.945 75.92 66.705 75.74C66.24 75.395 66.045 74.78 66.225 74.225L67.515 70.085L64.245 67.43C63.81 67.055 63.645 66.455 63.84 65.915C64.035 65.375 64.56 65.015 65.13 65.015H69.255L70.71 61.1C70.905 60.56 71.43 60.2 72 60.2C72.57 60.2 73.095 60.56 73.29 61.1L74.745 65.015H78.87C79.44 65.015 79.965 65.375 80.16 65.915C80.355 66.455 80.19 67.07 79.755 67.445V67.43Z" fill="url(#paint4_linear_2114_29835)"/>
</g>
<defs>
<filter id="filter1_d_2114_29835" x="0" y="0" width="143" height="143" filterUnits="userSpaceOnUse" color-interpolation-filters="sRGB">
<feFlood flood-opacity="0" result="BackgroundImageFix"/>
<feColorMatrix in="SourceAlpha" type="matrix" values="0 0 0 0 0 0 0 0 0 0 0 0 0 0 0 0 0 0 127 0" result="hardAlpha"/>
<feOffset dy="4"/>
<feGaussianBlur stdDeviation="16"/>
<feComposite in2="hardAlpha" operator="out"/>
<feColorMatrix type="matrix" values="0 0 0 0 0.941176 0 0 0 0 0.333333 0 0 0 0 0.596078 0 0 0 0.32 0"/>
<feBlend mode="normal" in2="BackgroundImageFix" result="effect1_dropShadow_2114_29835"/>
<feBlend mode="normal" in="SourceGraphic" in2="effect1_dropShadow_2114_29835" result="shape"/>
</filter>
<filter id="filter2_d_2114_29835" x="0" y="0" width="143" height="143" filterUnits="userSpaceOnUse" color-interpolation-filters="sRGB">
<feFlood flood-opacity="0" result="BackgroundImageFix"/>
<feColorMatrix in="SourceAlpha" type="matrix" values="0 0 0 0 0 0 0 0 0 0 0 0 0 0 0 0 0 0 127 0" result="hardAlpha"/>
<feOffset dy="4"/>
<feGaussianBlur stdDeviation="16"/>
<feComposite in2="hardAlpha" operator="out"/>
<feColorMatrix type="matrix" values="0 0 0 0 0.941176 0 0 0 0 0.333333 0 0 0 0 0.596078 0 0 0 0.32 0"/>
<feBlend mode="normal" in2="BackgroundImageFix" result="effect1_dropShadow_2114_29835"/>
<feBlend mode="normal" in="SourceGraphic" in2="effect1_dropShadow_2114_29835" result="shape"/>
</filter>
<linearGradient id="paint0_linear_2114_29835" x1="78.8148" y1="13.6285" x2="96.3336" y2="103.588" gradientUnits="userSpaceOnUse">
<stop offset="0.168198" stop-color="#FF9DC8"/>
<stop offset="0.984375" stop-color="#EB2B7E"/>
</linearGradient>
<linearGradient id="paint1_linear_2114_29835" x1="53.9503" y1="17.4025" x2="28.3663" y2="94.208" gradientUnits="userSpaceOnUse">
<stop stop-color="#EFEAFC"/>
<stop offset="0.0820951" stop-color="#E8E1FB"/>
<stop offset="0.435042" stop-color="#7544E9" stop-opacity="0.38"/>
<stop offset="0.65666" stop-color="#DAD0F2" stop-opacity="0.2582"/>
<stop offset="0.847635" stop-color="#1F1141" stop-opacity="0.0314"/>
<stop offset="1" stop-color="#190549" stop-opacity="0.28"/>
</linearGradient>
<linearGradient id="paint2_linear_2114_29835" x1="78.8148" y1="13.6285" x2="96.3336" y2="103.588" gradientUnits="userSpaceOnUse">
<stop offset="0.168198" stop-color="#FF9DC8"/>
<stop offset="0.984375" stop-color="#EB2B7E"/>
</linearGradient>
<linearGradient id="paint3_linear_2114_29835" x1="72" y1="107" x2="57.1776" y2="30.8865" gradientUnits="userSpaceOnUse">
<stop offset="0.168198" stop-color="#FF9DC8"/>
<stop offset="0.984375" stop-color="#EB2B7E"/>
</linearGradient>
<linearGradient id="paint4_linear_2114_29835" x1="72" y1="50" x2="72" y2="86" gradientUnits="userSpaceOnUse">
<stop stop-color="white"/>
<stop offset="1" stop-color="white" stop-opacity="0.56"/>
</linearGradient>
<clipPath id="clip0_2114_29835">
<rect width="36" height="36" fill="white" transform="translate(54 50)"/>
</clipPath>
</defs>
</svg>
