<svg width="56" height="56" viewBox="0 0 56 56" fill="none" xmlns="http://www.w3.org/2000/svg">
<rect width="56" height="56" rx="12" fill="url(#paint0_linear_241_2378)" fill-opacity="0.9"/>
<path d="M37 22.75H35.5V22C35.5 21.4033 35.2629 20.831 34.841 20.409C34.419 19.9871 33.8467 19.75 33.25 19.75H19.75C19.1533 19.75 18.581 19.9871 18.159 20.409C17.7371 20.831 17.5 21.4033 17.5 22V31C17.5 31.5967 17.7371 32.169 18.159 32.591C18.581 33.0129 19.1533 33.25 19.75 33.25H30.25V34C30.25 34.5967 30.4871 35.169 30.909 35.591C31.331 36.0129 31.9033 36.25 32.5 36.25H37C37.5967 36.25 38.169 36.0129 38.591 35.591C39.0129 35.169 39.25 34.5967 39.25 34V25C39.25 24.4033 39.0129 23.831 38.591 23.409C38.169 22.9871 37.5967 22.75 37 22.75ZM37.75 34C37.75 34.1989 37.671 34.3897 37.5303 34.5303C37.3897 34.671 37.1989 34.75 37 34.75H32.5C32.3011 34.75 32.1103 34.671 31.9697 34.5303C31.829 34.3897 31.75 34.1989 31.75 34V25C31.75 24.8011 31.829 24.6103 31.9697 24.4697C32.1103 24.329 32.3011 24.25 32.5 24.25H37C37.1989 24.25 37.3897 24.329 37.5303 24.4697C37.671 24.6103 37.75 24.8011 37.75 25V34ZM28.75 35.5C28.75 35.6989 28.671 35.8897 28.5303 36.0303C28.3897 36.171 28.1989 36.25 28 36.25H24.25C24.0511 36.25 23.8603 36.171 23.7197 36.0303C23.579 35.8897 23.5 35.6989 23.5 35.5C23.5 35.3011 23.579 35.1103 23.7197 34.9697C23.8603 34.829 24.0511 34.75 24.25 34.75H28C28.1989 34.75 28.3897 34.829 28.5303 34.9697C28.671 35.1103 28.75 35.3011 28.75 35.5ZM36.25 26.5C36.25 26.6989 36.171 26.8897 36.0303 27.0303C35.8897 27.171 35.6989 27.25 35.5 27.25H34C33.8011 27.25 33.6103 27.171 33.4697 27.0303C33.329 26.8897 33.25 26.6989 33.25 26.5C33.25 26.3011 33.329 26.1103 33.4697 25.9697C33.6103 25.829 33.8011 25.75 34 25.75H35.5C35.6989 25.75 35.8897 25.829 36.0303 25.9697C36.171 26.1103 36.25 26.3011 36.25 26.5Z" fill="white"/>
<defs>
<linearGradient id="paint0_linear_241_2378" x1="3.12425" y1="3.13739" x2="54.3643" y2="37.6734" gradientUnits="userSpaceOnUse">
<stop offset="0.168198" stop-color="#5FBAFD"/>
<stop offset="0.984375" stop-color="#2B6CEB"/>
</linearGradient>
</defs>
</svg>
