<svg width="37" height="36" viewBox="0 0 37 36" fill="none" xmlns="http://www.w3.org/2000/svg">
<path d="M16.9303 16.6914C15.5459 16.6914 14.1925 16.2809 13.0414 15.5117C11.8902 14.7425 10.993 13.6493 10.4632 12.3702C9.93338 11.0911 9.79475 9.68364 10.0648 8.32578C10.3349 6.96791 11.0016 5.72063 11.9806 4.74166C12.9596 3.76269 14.2068 3.09601 15.5647 2.82591C16.9226 2.55582 18.33 2.69444 19.6091 3.22425C20.8882 3.75407 21.9815 4.65127 22.7506 5.80242C23.5198 6.95356 23.9303 8.30694 23.9303 9.69141C23.9303 11.5479 23.1928 13.3284 21.8801 14.6412C20.5673 15.9539 18.7869 16.6914 16.9303 16.6914ZM16.9303 4.77141C15.9414 4.77141 14.9747 5.06465 14.1525 5.61406C13.3302 6.16347 12.6894 6.94436 12.3109 7.85799C11.9325 8.77162 11.8335 9.77696 12.0264 10.7469C12.2193 11.7168 12.6955 12.6077 13.3948 13.3069C14.0941 14.0062 14.985 14.4824 15.9549 14.6753C16.9248 14.8683 17.9301 14.7692 18.8438 14.3908C19.7574 14.0124 20.5383 13.3715 21.0877 12.5493C21.6371 11.727 21.9303 10.7603 21.9303 9.77141C21.9303 9.1148 21.801 8.46462 21.5497 7.85799C21.2985 7.25136 20.9302 6.70017 20.4659 6.23588C20.0016 5.77158 19.4504 5.40329 18.8438 5.15201C18.2371 4.90074 17.587 4.77141 16.9303 4.77141ZM22.5003 17.9014C17.0888 16.6829 11.4272 17.2695 6.38035 19.5714C5.68624 19.903 5.10061 20.4249 4.69165 21.0764C4.28268 21.7279 4.06722 22.4822 4.07035 23.2514V29.2014C4.07035 29.3327 4.09621 29.4628 4.14647 29.5841C4.19672 29.7054 4.27038 29.8157 4.36324 29.9085C4.4561 30.0014 4.56634 30.075 4.68766 30.1253C4.80899 30.1755 4.93902 30.2014 5.07035 30.2014C5.20167 30.2014 5.3317 30.1755 5.45303 30.1253C5.57436 30.075 5.68459 30.0014 5.77745 29.9085C5.87031 29.8157 5.94397 29.7054 5.99423 29.5841C6.04448 29.4628 6.07035 29.3327 6.07035 29.2014V23.2514C6.06164 22.8621 6.16677 22.4787 6.37283 22.1483C6.57889 21.8179 6.87692 21.5549 7.23035 21.3914C10.2705 19.9873 13.5816 19.2671 16.9303 19.2814C18.8066 19.2792 20.6765 19.5008 22.5003 19.9414V17.9014ZM22.6403 27.4114H28.7803V28.8114H22.6403V27.4114Z" fill="#178EE8"/>
<path d="M33.67 21.47H28.5V23.47H32.67V31.84H18.5V23.47H24.8V23.89C24.8 24.1552 24.9054 24.4096 25.0929 24.5971C25.2804 24.7846 25.5348 24.89 25.8 24.89C26.0652 24.89 26.3196 24.7846 26.5071 24.5971C26.6946 24.4096 26.8 24.1552 26.8 23.89V20C26.8 19.7348 26.6946 19.4804 26.5071 19.2929C26.3196 19.1054 26.0652 19 25.8 19C25.5348 19 25.2804 19.1054 25.0929 19.2929C24.9054 19.4804 24.8 19.7348 24.8 20V21.47H17.5C17.2348 21.47 16.9804 21.5754 16.7929 21.7629C16.6054 21.9504 16.5 22.2048 16.5 22.47V32.84C16.5 33.1052 16.6054 33.3596 16.7929 33.5471C16.9804 33.7346 17.2348 33.84 17.5 33.84H33.67C33.9352 33.84 34.1896 33.7346 34.3771 33.5471C34.5646 33.3596 34.67 33.1052 34.67 32.84V22.47C34.67 22.2048 34.5646 21.9504 34.3771 21.7629C34.1896 21.5754 33.9352 21.47 33.67 21.47Z" fill="#178EE8"/>
</svg>
