<svg width="98" height="98" viewBox="0 0 98 98" fill="none" xmlns="http://www.w3.org/2000/svg">
<circle opacity="0.2" cx="49" cy="49" r="49" fill="#00D4FF"/>
<path d="M49.5 32.6041C51.6273 32.6041 53.6674 33.4492 55.1716 34.9534C56.6758 36.4576 57.5208 38.4977 57.5208 40.625C57.5208 42.7522 56.6758 44.7923 55.1716 46.2965C53.6674 47.8007 51.6273 48.6458 49.5 48.6458C47.3727 48.6458 45.3326 47.8007 43.8284 46.2965C42.3242 44.7923 41.4792 42.7522 41.4792 40.625C41.4792 38.4977 42.3242 36.4576 43.8284 34.9534C45.3326 33.4492 47.3727 32.6041 49.5 32.6041ZM33.4583 38.3333C34.7417 38.3333 35.9333 38.677 36.9646 39.2958C36.6208 42.5729 37.5833 45.827 39.5542 48.3708C38.4083 50.5708 36.1167 52.0833 33.4583 52.0833C31.635 52.0833 29.8863 51.359 28.597 50.0697C27.3077 48.7803 26.5833 47.0317 26.5833 45.2083C26.5833 43.3849 27.3077 41.6362 28.597 40.3469C29.8863 39.0576 31.635 38.3333 33.4583 38.3333ZM65.5417 38.3333C67.365 38.3333 69.1137 39.0576 70.403 40.3469C71.6923 41.6362 72.4167 43.3849 72.4167 45.2083C72.4167 47.0317 71.6923 48.7803 70.403 50.0697C69.1137 51.359 67.365 52.0833 65.5417 52.0833C62.8833 52.0833 60.5917 50.5708 59.4458 48.3708C61.443 45.7909 62.3703 42.5412 62.0354 39.2958C63.0667 38.677 64.2583 38.3333 65.5417 38.3333ZM34.6042 61.8229C34.6042 57.0791 41.2729 53.2291 49.5 53.2291C57.7271 53.2291 64.3958 57.0791 64.3958 61.8229V65.8333H34.6042V61.8229ZM22 65.8333V62.3958C22 59.2104 26.3312 56.5291 32.1979 55.75C30.8458 57.3083 30.0208 59.4625 30.0208 61.8229V65.8333H22ZM77 65.8333H68.9792V61.8229C68.9792 59.4625 68.1542 57.3083 66.8021 55.75C72.6688 56.5291 77 59.2104 77 62.3958V65.8333Z" fill="url(#paint0_linear_445_8819)"/>
<defs>
<linearGradient id="paint0_linear_445_8819" x1="22.3793" y1="32.4357" x2="55.4158" y2="80.6292" gradientUnits="userSpaceOnUse">
<stop stop-color="#54E2FF"/>
<stop offset="1" stop-color="#06C3EA"/>
</linearGradient>
</defs>
</svg>
