<svg width="56" height="56" viewBox="0 0 56 56" fill="none" xmlns="http://www.w3.org/2000/svg">
<rect width="56" height="56" rx="12" fill="url(#paint0_linear_241_1671)" fill-opacity="0.9"/>
<path d="M32.5001 37.7485C32.5001 37.9474 32.4211 38.1382 32.2805 38.2788C32.1398 38.4195 31.949 38.4985 31.7501 38.4985H24.2501C24.0512 38.4985 23.8604 38.4195 23.7198 38.2788C23.5791 38.1382 23.5001 37.9474 23.5001 37.7485C23.5001 37.5496 23.5791 37.3588 23.7198 37.2182C23.8604 37.0775 24.0512 36.9985 24.2501 36.9985H31.7501C31.949 36.9985 32.1398 37.0775 32.2805 37.2182C32.4211 37.3588 32.5001 37.5496 32.5001 37.7485ZM36.2501 25.7485C36.2534 26.9988 35.9709 28.2333 35.4243 29.3578C34.8778 30.4823 34.0815 31.467 33.0964 32.2369C32.9122 32.3781 32.7627 32.5596 32.6593 32.7674C32.556 32.9752 32.5015 33.2039 32.5001 33.436V33.9985C32.5001 34.3963 32.3421 34.7778 32.0608 35.0591C31.7795 35.3405 31.3979 35.4985 31.0001 35.4985H25.0001C24.6023 35.4985 24.2208 35.3405 23.9395 35.0591C23.6582 34.7778 23.5001 34.3963 23.5001 33.9985V33.436C23.5 33.2067 23.4472 32.9804 23.346 32.7747C23.2447 32.5689 23.0977 32.3891 22.9161 32.2491C21.9334 31.4838 21.1377 30.5049 20.5892 29.3867C20.0407 28.2684 19.7537 27.04 19.7501 25.7944C19.7257 21.3263 23.337 17.6054 27.8014 17.4985C28.9014 17.472 29.9956 17.6658 31.0196 18.0685C32.0436 18.4712 32.9767 19.0747 33.7639 19.8434C34.5512 20.6122 35.1767 21.5306 35.6037 22.5448C36.0306 23.5589 36.2504 24.6482 36.2501 25.7485ZM31.5307 25.9679C31.4611 25.8981 31.3784 25.8428 31.2873 25.8051C31.1963 25.7673 31.0987 25.7479 31.0001 25.7479C30.9016 25.7479 30.804 25.7673 30.7129 25.8051C30.6219 25.8428 30.5392 25.8981 30.4695 25.9679L28.0001 28.4382L25.5307 25.9679C25.39 25.8271 25.1991 25.7481 25.0001 25.7481C24.8011 25.7481 24.6102 25.8271 24.4695 25.9679C24.3288 26.1086 24.2497 26.2995 24.2497 26.4985C24.2497 26.6975 24.3288 26.8884 24.4695 27.0291L27.2501 29.8088V33.2485C27.2501 33.4474 27.3291 33.6382 27.4698 33.7788C27.6104 33.9195 27.8012 33.9985 28.0001 33.9985C28.199 33.9985 28.3898 33.9195 28.5305 33.7788C28.6711 33.6382 28.7501 33.4474 28.7501 33.2485V29.8088L31.5307 27.0291C31.6005 26.9595 31.6558 26.8767 31.6935 26.7857C31.7313 26.6946 31.7507 26.597 31.7507 26.4985C31.7507 26.3999 31.7313 26.3023 31.6935 26.2113C31.6558 26.1202 31.6005 26.0375 31.5307 25.9679Z" fill="white"/>
<defs>
<linearGradient id="paint0_linear_241_1671" x1="3.12425" y1="3.13739" x2="54.3643" y2="37.6734" gradientUnits="userSpaceOnUse">
<stop offset="0.168198" stop-color="#5FBAFD"/>
<stop offset="0.984375" stop-color="#2B6CEB"/>
</linearGradient>
</defs>
</svg>
