<svg width="248" height="99" viewBox="0 0 248 99" fill="none" xmlns="http://www.w3.org/2000/svg">
<g filter="url(#filter0_d_450_9475)">
<rect x="16" y="12" width="216.487" height="67" rx="11.546" fill="white" shape-rendering="crispEdges"/>
<path d="M36.3868 33.9689C33.5848 33.9689 31.3354 31.7195 31.3354 28.9175C31.3354 26.1551 33.5848 23.8662 36.3868 23.8662C39.1492 23.8662 41.4381 26.1551 41.4381 28.9175C41.4381 31.7195 39.1492 33.9689 36.3868 33.9689ZM38.36 35.8632C42.1485 35.8632 45.2267 38.9413 45.2267 42.7299C45.2267 43.4797 44.5952 44.0716 43.8454 44.0716H28.8886C28.1388 44.0716 27.5469 43.4797 27.5469 42.7299C27.5469 38.9413 30.5856 35.8632 34.3741 35.8632H38.36Z" fill="#00D4FF"/>
<path d="M63.0818 28.9503H65.7448V37.1301C65.7448 38.0485 65.5255 38.8522 65.0867 39.541C64.6521 40.2298 64.0433 40.7669 63.2601 41.1523C62.477 41.5337 61.5647 41.7243 60.5233 41.7243C59.4778 41.7243 58.5634 41.5337 57.7803 41.1523C56.9972 40.7669 56.3883 40.2298 55.9537 39.541C55.5191 38.8522 55.3018 38.0485 55.3018 37.1301V28.9503H57.9648V36.9026C57.9648 37.3823 58.0694 37.8087 58.2785 38.1818C58.4917 38.5549 58.791 38.8481 59.1764 39.0613C59.5618 39.2745 60.0108 39.3811 60.5233 39.3811C61.0399 39.3811 61.4889 39.2745 61.8702 39.0613C62.2556 38.8481 62.5529 38.5549 62.762 38.1818C62.9752 37.8087 63.0818 37.3823 63.0818 36.9026V28.9503ZM75.7466 34.793L73.348 34.9406C73.307 34.7356 73.2188 34.5511 73.0835 34.3871C72.9482 34.219 72.7699 34.0858 72.5485 33.9874C72.3312 33.8849 72.0708 33.8336 71.7674 33.8336C71.3615 33.8336 71.0191 33.9197 70.7403 34.0919C70.4615 34.26 70.3221 34.4855 70.3221 34.7684C70.3221 34.9939 70.4123 35.1846 70.5927 35.3404C70.7731 35.4962 71.0827 35.6213 71.5214 35.7156L73.2311 36.06C74.1496 36.2486 74.8343 36.552 75.2853 36.9702C75.7363 37.3884 75.9618 37.9378 75.9618 38.6185C75.9618 39.2376 75.7794 39.7809 75.4145 40.2483C75.0537 40.7157 74.5575 41.0806 73.9261 41.343C73.2988 41.6013 72.5751 41.7305 71.7551 41.7305C70.5046 41.7305 69.5082 41.4701 68.7661 40.9494C68.0281 40.4246 67.5955 39.7111 67.4684 38.8091L70.0453 38.6738C70.1232 39.0551 70.3119 39.3462 70.6112 39.5471C70.9105 39.7439 71.2938 39.8424 71.7613 39.8424C72.2205 39.8424 72.5895 39.7542 72.8683 39.5779C73.1512 39.3975 73.2947 39.1658 73.2988 38.8829C73.2947 38.6451 73.1942 38.4504 72.9974 38.2987C72.8006 38.1428 72.4972 38.0239 72.0872 37.9419L70.4513 37.616C69.5287 37.4315 68.842 37.1117 68.3909 36.6565C67.944 36.2014 67.7206 35.6213 67.7206 34.916C67.7206 34.3092 67.8846 33.7865 68.2126 33.3477C68.5447 32.909 69.0101 32.5708 69.6087 32.333C70.2114 32.0951 70.9166 31.9762 71.7243 31.9762C72.9175 31.9762 73.8564 32.2284 74.5411 32.7327C75.23 33.237 75.6318 33.9238 75.7466 34.793ZM81.9168 41.7305C80.945 41.7305 80.1086 41.5337 79.4075 41.14C78.7105 40.7423 78.1734 40.1806 77.7961 39.4549C77.4189 38.7251 77.2303 37.862 77.2303 36.8657C77.2303 35.8939 77.4189 35.0411 77.7961 34.3072C78.1734 33.5732 78.7043 33.0013 79.389 32.5913C80.0779 32.1812 80.8856 31.9762 81.8122 31.9762C82.4354 31.9762 83.0156 32.0767 83.5527 32.2776C84.0939 32.4744 84.5655 32.7717 84.9673 33.1694C85.3732 33.5671 85.6889 34.0673 85.9144 34.67C86.1399 35.2687 86.2527 35.9698 86.2527 36.7734V37.493H78.2759V35.8693H83.7864C83.7864 35.4921 83.7044 35.1579 83.5404 34.8668C83.3764 34.5757 83.1489 34.3482 82.8578 34.1842C82.5707 34.0161 82.2366 33.932 81.8553 33.932C81.4576 33.932 81.1049 34.0243 80.7974 34.2088C80.494 34.3892 80.2562 34.6331 80.084 34.9406C79.9118 35.2441 79.8237 35.5823 79.8196 35.9554V37.4991C79.8196 37.9665 79.9057 38.3704 80.0779 38.7107C80.2542 39.051 80.5022 39.3134 80.822 39.4979C81.1418 39.6824 81.5211 39.7747 81.9598 39.7747C82.2509 39.7747 82.5174 39.7337 82.7594 39.6517C83.0013 39.5697 83.2083 39.4467 83.3805 39.2827C83.5527 39.1187 83.6839 38.9178 83.7741 38.68L86.1973 38.8399C86.0743 39.4221 85.8222 39.9305 85.4408 40.3651C85.0636 40.7956 84.5757 41.1318 83.9771 41.3738C83.3826 41.6116 82.6958 41.7305 81.9168 41.7305ZM87.9624 41.546V32.0992H90.5025V33.7475H90.6009C90.7731 33.1612 91.0621 32.7184 91.468 32.4191C91.874 32.1156 92.3414 31.9639 92.8703 31.9639C93.0015 31.9639 93.1429 31.9721 93.2947 31.9885C93.4464 32.0049 93.5796 32.0275 93.6944 32.0562V34.381C93.5714 34.3441 93.4013 34.3113 93.1839 34.2826C92.9666 34.2539 92.7678 34.2395 92.5874 34.2395C92.202 34.2395 91.8576 34.3236 91.5541 34.4917C91.2548 34.6557 91.017 34.8853 90.8407 35.1805C90.6685 35.4757 90.5824 35.816 90.5824 36.2014V41.546H87.9624ZM104.513 28.9503V41.546H101.85V31.4781H101.776L98.8913 33.2862V30.9246L102.009 28.9503H104.513Z" fill="#1F1F28"/>
<path d="M27.9056 55.2523V53.9715H33.94V55.2523H31.6906V61.319H30.1551V55.2523H27.9056ZM36.6173 61.4266C36.0504 61.4266 35.5625 61.3118 35.1535 61.0822C34.7469 60.8502 34.4336 60.5225 34.2136 60.0992C33.9935 59.6734 33.8835 59.17 33.8835 58.5888C33.8835 58.0219 33.9935 57.5245 34.2136 57.0963C34.4336 56.6682 34.7433 56.3346 35.1428 56.0954C35.5446 55.8562 36.0157 55.7366 36.5563 55.7366C36.9198 55.7366 37.2583 55.7952 37.5716 55.9124C37.8873 56.0272 38.1623 56.2006 38.3967 56.4326C38.6335 56.6646 38.8177 56.9564 38.9492 57.308C39.0808 57.6572 39.1465 58.0662 39.1465 58.535V58.9547H34.4934V58.0076H37.7079C37.7079 57.7876 37.6601 57.5926 37.5644 57.4228C37.4687 57.253 37.336 57.1203 37.1662 57.0246C36.9988 56.9265 36.8038 56.8775 36.5814 56.8775C36.3494 56.8775 36.1437 56.9313 35.9643 57.0389C35.7873 57.1442 35.6486 57.2865 35.5482 57.4659C35.4477 57.6429 35.3963 57.8402 35.3939 58.0578V58.9583C35.3939 59.231 35.4441 59.4666 35.5446 59.6651C35.6474 59.8636 35.7921 60.0167 35.9787 60.1243C36.1652 60.2319 36.3865 60.2857 36.6424 60.2857C36.8122 60.2857 36.9677 60.2618 37.1088 60.214C37.2499 60.1661 37.3707 60.0944 37.4711 59.9987C37.5716 59.9031 37.6481 59.7859 37.7007 59.6471L39.1143 59.7404C39.0425 60.08 38.8954 60.3766 38.673 60.6301C38.4529 60.8813 38.1683 61.0774 37.8191 61.2185C37.4723 61.3572 37.0717 61.4266 36.6173 61.4266ZM41.3224 55.8084L42.3341 57.7349L43.371 55.8084H44.9388L43.3423 58.5637L44.9818 61.319H43.4212L42.3341 59.4139L41.265 61.319H39.6865L41.3224 58.5637L39.7439 55.8084H41.3224ZM47.3882 61.423C47.0366 61.423 46.7233 61.362 46.4482 61.24C46.1732 61.1157 45.9555 60.9327 45.7953 60.6911C45.6374 60.4472 45.5585 60.1434 45.5585 59.7799C45.5585 59.4737 45.6147 59.2166 45.7271 59.0085C45.8395 58.8005 45.9926 58.633 46.1863 58.5063C46.3801 58.3795 46.6001 58.2838 46.8465 58.2193C47.0952 58.1547 47.3559 58.1092 47.6286 58.0829C47.9491 58.0495 48.2074 58.0184 48.4035 57.9897C48.5996 57.9586 48.7419 57.9131 48.8304 57.8533C48.9189 57.7935 48.9632 57.705 48.9632 57.5878V57.5663C48.9632 57.3391 48.8914 57.1633 48.7479 57.0389C48.6068 56.9146 48.4059 56.8524 48.1452 56.8524C47.8701 56.8524 47.6513 56.9134 47.4887 57.0354C47.326 57.1549 47.2184 57.3056 47.1658 57.4874L45.7522 57.3726C45.824 57.0377 45.9651 56.7483 46.1756 56.5044C46.3861 56.258 46.6575 56.0691 46.99 55.9375C47.3248 55.8036 47.7123 55.7366 48.1524 55.7366C48.4585 55.7366 48.7515 55.7725 49.0313 55.8443C49.3136 55.916 49.5635 56.0272 49.7811 56.1779C50.0012 56.3286 50.1746 56.5223 50.3013 56.7591C50.4281 56.9935 50.4915 57.2745 50.4915 57.6022V61.319H49.0421V60.5548H48.999C48.9105 60.727 48.7922 60.8789 48.6439 61.0104C48.4956 61.1396 48.3174 61.2412 48.1093 61.3154C47.9012 61.3871 47.6609 61.423 47.3882 61.423ZM47.8259 60.3683C48.0507 60.3683 48.2492 60.324 48.4214 60.2355C48.5936 60.1446 48.7288 60.0226 48.8268 59.8696C48.9249 59.7165 48.9739 59.5431 48.9739 59.3494V58.7646C48.9261 58.7957 48.8603 58.8244 48.7766 58.8507C48.6953 58.8746 48.6032 58.8973 48.5004 58.9189C48.3975 58.938 48.2947 58.9559 48.1918 58.9727C48.089 58.987 47.9957 59.0002 47.912 59.0121C47.7326 59.0384 47.576 59.0803 47.442 59.1377C47.3081 59.1951 47.204 59.2728 47.1299 59.3709C47.0557 59.4666 47.0187 59.5861 47.0187 59.7297C47.0187 59.9377 47.094 60.0968 47.2447 60.2068C47.3978 60.3144 47.5915 60.3683 47.8259 60.3683ZM56.2622 57.3798L54.863 57.4659C54.8391 57.3463 54.7877 57.2387 54.7087 57.143C54.6298 57.0449 54.5258 56.9672 54.3966 56.9098C54.2699 56.85 54.118 56.8201 53.941 56.8201C53.7042 56.8201 53.5045 56.8703 53.3419 56.9708C53.1792 57.0688 53.0979 57.2004 53.0979 57.3654C53.0979 57.497 53.1505 57.6082 53.2558 57.6991C53.361 57.7899 53.5416 57.8629 53.7975 57.9179L54.7948 58.1188C55.3306 58.2288 55.73 58.4058 55.9931 58.6498C56.2562 58.8937 56.3877 59.2142 56.3877 59.6113C56.3877 59.9724 56.2813 60.2893 56.0684 60.562C55.858 60.8346 55.5686 61.0475 55.2002 61.2006C54.8343 61.3513 54.4122 61.4266 53.9338 61.4266C53.2043 61.4266 52.6231 61.2747 52.1902 60.971C51.7597 60.6648 51.5074 60.2487 51.4332 59.7225L52.9365 59.6436C52.9819 59.866 53.0919 60.0358 53.2665 60.153C53.4411 60.2678 53.6647 60.3252 53.9374 60.3252C54.2053 60.3252 54.4205 60.2738 54.5832 60.1709C54.7482 60.0657 54.8319 59.9306 54.8343 59.7655C54.8319 59.6268 54.7733 59.5132 54.6585 59.4247C54.5437 59.3338 54.3667 59.2645 54.1275 59.2166L53.1732 59.0265C52.6351 58.9189 52.2345 58.7323 51.9714 58.4668C51.7107 58.2013 51.5803 57.8629 51.5803 57.4515C51.5803 57.0975 51.676 56.7926 51.8673 56.5367C52.0611 56.2808 52.3325 56.0834 52.6817 55.9447C53.0333 55.806 53.4447 55.7366 53.9159 55.7366C54.6119 55.7366 55.1596 55.8837 55.559 56.1779C55.9608 56.4721 56.1952 56.8727 56.2622 57.3798ZM59.0112 60.3144L58.9717 60.7091C58.9406 61.0248 58.8808 61.3393 58.7923 61.6526C58.7062 61.9683 58.6154 62.2541 58.5197 62.5101C58.4264 62.766 58.3511 62.9669 58.2937 63.1128H57.3035C57.3394 62.9717 57.3884 62.7743 57.4506 62.5208C57.5128 62.2697 57.5714 61.9875 57.6264 61.6741C57.6814 61.3608 57.7161 61.0415 57.7304 60.7162L57.7483 60.3144H59.0112ZM66.9685 53.9715H68.522V58.7431C68.522 59.2788 68.394 59.7476 68.1381 60.1494C67.8846 60.5512 67.5294 60.8645 67.0726 61.0894C66.6157 61.3118 66.0836 61.423 65.4761 61.423C64.8662 61.423 64.3328 61.3118 63.876 61.0894C63.4192 60.8645 63.064 60.5512 62.8105 60.1494C62.557 59.7476 62.4302 59.2788 62.4302 58.7431V53.9715H63.9836V58.6103C63.9836 58.8902 64.0446 59.1389 64.1666 59.3565C64.291 59.5742 64.4656 59.7452 64.6904 59.8696C64.9152 59.9939 65.1771 60.0561 65.4761 60.0561C65.7774 60.0561 66.0393 59.9939 66.2618 59.8696C66.4866 59.7452 66.66 59.5742 66.782 59.3565C66.9063 59.1389 66.9685 58.8902 66.9685 58.6103V53.9715ZM73.7859 56.0846C73.7572 55.7952 73.634 55.5704 73.4164 55.4102C73.1987 55.2499 72.9033 55.1698 72.5302 55.1698C72.2767 55.1698 72.0626 55.2057 71.8881 55.2774C71.7135 55.3468 71.5795 55.4436 71.4862 55.568C71.3954 55.6924 71.3499 55.8335 71.3499 55.9914C71.3451 56.1229 71.3726 56.2377 71.4324 56.3358C71.4946 56.4338 71.5795 56.5187 71.6871 56.5905C71.7948 56.6598 71.9191 56.7208 72.0603 56.7735C72.2014 56.8237 72.352 56.8667 72.5123 56.9026L73.1724 57.0605C73.4929 57.1322 73.7871 57.2279 74.055 57.3475C74.3228 57.4671 74.5548 57.6142 74.751 57.7888C74.9471 57.9634 75.099 58.169 75.2066 58.4058C75.3166 58.6426 75.3728 58.9141 75.3752 59.2202C75.3728 59.6699 75.258 60.0597 75.0308 60.3898C74.806 60.7174 74.4807 60.9722 74.055 61.1539C73.6316 61.3333 73.121 61.423 72.5231 61.423C71.9299 61.423 71.4133 61.3321 70.9732 61.1504C70.5355 60.9686 70.1935 60.6995 69.9471 60.3431C69.7032 59.9844 69.5752 59.5407 69.5633 59.0121H71.0665C71.0832 59.2585 71.1538 59.4642 71.2782 59.6292C71.4049 59.7918 71.5735 59.915 71.784 59.9987C71.9969 60.08 72.2372 60.1207 72.5051 60.1207C72.7682 60.1207 72.9966 60.0824 73.1904 60.0059C73.3865 59.9294 73.5384 59.8229 73.646 59.6866C73.7536 59.5503 73.8074 59.3936 73.8074 59.2166C73.8074 59.0516 73.7584 58.9129 73.6603 58.8005C73.5647 58.688 73.4236 58.5924 73.237 58.5135C73.0528 58.4345 72.8268 58.3628 72.5589 58.2982L71.7589 58.0973C71.1394 57.9466 70.6503 57.711 70.2916 57.3905C69.9328 57.07 69.7546 56.6383 69.757 56.0954C69.7546 55.6505 69.873 55.2619 70.1122 54.9294C70.3537 54.597 70.685 54.3375 71.106 54.1509C71.5269 53.9644 72.0052 53.8711 72.541 53.8711C73.0863 53.8711 73.5623 53.9644 73.9689 54.1509C74.3779 54.3375 74.696 54.597 74.9232 54.9294C75.1504 55.2619 75.2676 55.6469 75.2748 56.0846H73.7859ZM77.5188 61.319H75.8542L78.3906 53.9715H80.3925L82.9254 61.319H81.2607L79.4203 55.6505H79.3629L77.5188 61.319ZM77.4148 58.4309H81.3468V59.6436H77.4148V58.4309Z" fill="#4D5067"/>
<rect x="174.508" y="23.546" width="46.4325" height="18.6595" rx="4.32974" fill="#3AA0FF" fill-opacity="0.1"/>
<path d="M183.485 29.5779V35.8757H182.344V29.5779H183.485ZM185.784 33.1081V35.8757H184.671V31.1524H185.735V31.955H185.79C185.899 31.6905 186.072 31.4804 186.31 31.3246C186.55 31.1688 186.846 31.0909 187.199 31.0909C187.525 31.0909 187.809 31.1606 188.05 31.3C188.294 31.4394 188.483 31.6413 188.616 31.9058C188.752 32.1702 188.818 32.4911 188.816 32.8683V35.8757H187.703V33.0405C187.703 32.7248 187.621 32.4777 187.457 32.2994C187.295 32.121 187.071 32.0319 186.784 32.0319C186.589 32.0319 186.416 32.0749 186.264 32.161C186.114 32.2451 185.996 32.367 185.91 32.5269C185.826 32.6869 185.784 32.8806 185.784 33.1081ZM192.306 31.1524V32.0134H189.591V31.1524H192.306ZM190.261 30.0207H191.375V34.455C191.375 34.6047 191.397 34.7195 191.442 34.7994C191.489 34.8773 191.551 34.9307 191.627 34.9594C191.703 34.9881 191.787 35.0024 191.879 35.0024C191.949 35.0024 192.012 34.9973 192.07 34.987C192.129 34.9768 192.174 34.9676 192.205 34.9594L192.392 35.8296C192.333 35.8501 192.248 35.8727 192.137 35.8973C192.029 35.9219 191.895 35.9362 191.737 35.9403C191.459 35.9485 191.208 35.9065 190.984 35.8142C190.761 35.7199 190.583 35.5744 190.452 35.3776C190.323 35.1808 190.259 34.9348 190.261 34.6395V30.0207ZM195.278 35.968C194.804 35.968 194.395 35.8696 194.051 35.6728C193.708 35.4739 193.445 35.1931 193.26 34.8302C193.076 34.4653 192.984 34.0358 192.984 33.5417C192.984 33.0559 193.076 32.6294 193.26 32.2625C193.447 31.8935 193.707 31.6065 194.042 31.4015C194.376 31.1944 194.768 31.0909 195.219 31.0909C195.51 31.0909 195.785 31.138 196.043 31.2323C196.304 31.3246 196.533 31.4681 196.732 31.6628C196.933 31.8576 197.091 32.1057 197.206 32.407C197.321 32.7063 197.378 33.063 197.378 33.4772V33.8185H193.506V33.0682H196.311C196.309 32.855 196.263 32.6653 196.173 32.4993C196.082 32.3312 195.956 32.1989 195.794 32.1026C195.634 32.0062 195.448 31.9581 195.235 31.9581C195.007 31.9581 194.807 32.0134 194.635 32.1241C194.463 32.2328 194.329 32.3763 194.232 32.5546C194.138 32.7309 194.09 32.9247 194.088 33.1358V33.7908C194.088 34.0655 194.138 34.3013 194.238 34.4981C194.339 34.6928 194.479 34.8425 194.66 34.9471C194.84 35.0496 195.051 35.1008 195.293 35.1008C195.455 35.1008 195.602 35.0783 195.733 35.0332C195.864 34.986 195.978 34.9173 196.074 34.8271C196.171 34.7369 196.243 34.6252 196.292 34.4919L197.332 34.6088C197.266 34.8835 197.141 35.1234 196.957 35.3284C196.774 35.5313 196.541 35.6892 196.256 35.8019C195.971 35.9126 195.645 35.968 195.278 35.968ZM198.32 35.8757V31.1524H199.399V31.9396H199.448C199.534 31.6669 199.682 31.4568 199.891 31.3092C200.102 31.1596 200.343 31.0847 200.614 31.0847C200.675 31.0847 200.744 31.0878 200.82 31.0939C200.898 31.098 200.962 31.1052 201.014 31.1155V32.1395C200.966 32.1231 200.892 32.1087 200.789 32.0964C200.689 32.0821 200.591 32.0749 200.497 32.0749C200.294 32.0749 200.112 32.119 199.95 32.2071C199.79 32.2932 199.664 32.4132 199.571 32.5669C199.479 32.7207 199.433 32.898 199.433 33.0989V35.8757H198.32ZM202.866 33.1081V35.8757H201.753V31.1524H202.817V31.955H202.872C202.981 31.6905 203.154 31.4804 203.392 31.3246C203.632 31.1688 203.928 31.0909 204.281 31.0909C204.607 31.0909 204.891 31.1606 205.133 31.3C205.377 31.4394 205.565 31.6413 205.698 31.9058C205.834 32.1702 205.9 32.4911 205.898 32.8683V35.8757H204.785V33.0405C204.785 32.7248 204.703 32.4777 204.539 32.2994C204.377 32.121 204.153 32.0319 203.866 32.0319C203.671 32.0319 203.498 32.0749 203.346 32.161C203.196 32.2451 203.078 32.367 202.992 32.5269C202.908 32.6869 202.866 32.8806 202.866 33.1081ZM208.389 35.9711C208.09 35.9711 207.82 35.9178 207.58 35.8112C207.343 35.7025 207.154 35.5426 207.015 35.3314C206.877 35.1203 206.809 34.8599 206.809 34.5504C206.809 34.2839 206.858 34.0635 206.956 33.8892C207.055 33.715 207.189 33.5756 207.359 33.471C207.529 33.3664 207.721 33.2875 207.934 33.2342C208.149 33.1789 208.372 33.1389 208.601 33.1143C208.878 33.0856 209.103 33.06 209.275 33.0374C209.447 33.0128 209.572 32.9759 209.65 32.9267C209.73 32.8755 209.77 32.7965 209.77 32.6899V32.6715C209.77 32.4398 209.701 32.2604 209.564 32.1333C209.427 32.0062 209.229 31.9427 208.97 31.9427C208.698 31.9427 208.481 32.0021 208.322 32.121C208.164 32.2399 208.057 32.3804 208.002 32.5423L206.962 32.3947C207.044 32.1077 207.18 31.8678 207.368 31.6751C207.557 31.4804 207.787 31.3348 208.06 31.2385C208.333 31.1401 208.634 31.0909 208.964 31.0909C209.192 31.0909 209.418 31.1175 209.644 31.1708C209.869 31.2241 210.075 31.3123 210.262 31.4353C210.448 31.5562 210.598 31.7213 210.711 31.9304C210.826 32.1395 210.883 32.4009 210.883 32.7145V35.8757H209.813V35.2269H209.776C209.708 35.3581 209.613 35.4811 209.49 35.5959C209.369 35.7087 209.216 35.7999 209.032 35.8696C208.849 35.9372 208.635 35.9711 208.389 35.9711ZM208.678 35.1531C208.902 35.1531 209.095 35.109 209.259 35.0209C209.423 34.9307 209.55 34.8117 209.638 34.6641C209.728 34.5165 209.773 34.3556 209.773 34.1814V33.6248C209.738 33.6535 209.679 33.6801 209.595 33.7047C209.513 33.7293 209.42 33.7508 209.318 33.7693C209.215 33.7877 209.114 33.8041 209.013 33.8185C208.913 33.8328 208.826 33.8451 208.752 33.8554C208.586 33.8779 208.437 33.9148 208.306 33.9661C208.175 34.0173 208.071 34.0891 207.996 34.1814C207.92 34.2716 207.882 34.3884 207.882 34.5319C207.882 34.7369 207.957 34.8917 208.106 34.9963C208.256 35.1008 208.447 35.1531 208.678 35.1531ZM213.116 29.5779V35.8757H212.002V29.5779H213.116Z" fill="#3AA0FF"/>
<rect x="179.508" y="47.9785" width="41.4325" height="18.6595" rx="4.32974" fill="#09C481"/>
<path d="M188.153 60.3082H186.935L189.152 54.0104H190.56L192.781 60.3082H191.563L189.881 55.302H189.832L188.153 60.3082ZM188.193 57.8389H191.514V58.7553H188.193V57.8389ZM195.477 60.4005C195.006 60.4005 194.601 60.297 194.263 60.0899C193.927 59.8828 193.667 59.5969 193.485 59.2319C193.304 58.865 193.214 58.4427 193.214 57.965C193.214 57.4853 193.306 57.0619 193.491 56.695C193.675 56.326 193.936 56.039 194.272 55.834C194.61 55.6269 195.01 55.5234 195.471 55.5234C195.855 55.5234 196.194 55.5941 196.489 55.7356C196.786 55.875 197.023 56.0728 197.2 56.329C197.376 56.5833 197.476 56.8805 197.501 57.2208H196.437C196.394 56.9933 196.291 56.8036 196.129 56.6519C195.969 56.4982 195.755 56.4213 195.487 56.4213C195.259 56.4213 195.059 56.4828 194.887 56.6058C194.715 56.7268 194.581 56.901 194.484 57.1286C194.39 57.3561 194.343 57.6288 194.343 57.9465C194.343 58.2684 194.39 58.5452 194.484 58.7768C194.579 59.0064 194.711 59.1838 194.881 59.3088C195.053 59.4318 195.255 59.4933 195.487 59.4933C195.651 59.4933 195.797 59.4626 195.926 59.4011C196.058 59.3375 196.167 59.2463 196.255 59.1274C196.344 59.0085 196.404 58.864 196.437 58.6938H197.501C197.474 59.028 197.376 59.3242 197.206 59.5825C197.036 59.8388 196.804 60.0397 196.511 60.1852C196.218 60.3287 195.873 60.4005 195.477 60.4005ZM200.774 55.5849V56.4459H198.058V55.5849H200.774ZM198.729 54.4532H199.842V58.8875C199.842 59.0372 199.864 59.152 199.909 59.2319C199.957 59.3098 200.018 59.3631 200.094 59.3918C200.17 59.4205 200.254 59.4349 200.346 59.4349C200.416 59.4349 200.479 59.4298 200.537 59.4195C200.596 59.4093 200.641 59.4 200.672 59.3918L200.86 60.2621C200.8 60.2826 200.715 60.3052 200.604 60.3298C200.496 60.3544 200.363 60.3687 200.205 60.3728C199.926 60.381 199.675 60.339 199.451 60.2467C199.228 60.1524 199.05 60.0069 198.919 59.8101C198.79 59.6133 198.727 59.3672 198.729 59.072V54.4532ZM201.705 60.3082V55.5849H202.818V60.3082H201.705ZM202.264 54.9145C202.088 54.9145 201.936 54.8561 201.809 54.7392C201.682 54.6203 201.618 54.4778 201.618 54.3118C201.618 54.1437 201.682 54.0012 201.809 53.8843C201.936 53.7654 202.088 53.706 202.264 53.706C202.443 53.706 202.594 53.7654 202.719 53.8843C202.846 54.0012 202.91 54.1437 202.91 54.3118C202.91 54.4778 202.846 54.6203 202.719 54.7392C202.594 54.8561 202.443 54.9145 202.264 54.9145ZM208.181 55.5849L206.499 60.3082H205.269L203.587 55.5849H204.774L205.86 59.0936H205.909L206.998 55.5849H208.181ZM210.882 60.4005C210.409 60.4005 210 60.3021 209.655 60.1053C209.313 59.9064 209.049 59.6256 208.865 59.2627C208.68 58.8978 208.588 58.4683 208.588 57.9742C208.588 57.4884 208.68 57.0619 208.865 56.695C209.051 56.326 209.312 56.039 209.646 55.834C209.98 55.6269 210.373 55.5234 210.824 55.5234C211.115 55.5234 211.39 55.5705 211.648 55.6648C211.908 55.7571 212.138 55.9006 212.337 56.0953C212.538 56.2901 212.695 56.5382 212.81 56.8395C212.925 57.1388 212.982 57.4955 212.982 57.9096V58.251H209.111V57.5007H211.915C211.913 57.2875 211.867 57.0978 211.777 56.9318C211.687 56.7637 211.561 56.6314 211.399 56.5351C211.239 56.4387 211.052 56.3905 210.839 56.3905C210.612 56.3905 210.412 56.4459 210.239 56.5566C210.067 56.6653 209.933 56.8088 209.837 56.9871C209.742 57.1634 209.694 57.3572 209.692 57.5683V58.2233C209.692 58.498 209.742 58.7338 209.843 58.9306C209.943 59.1253 210.084 59.275 210.264 59.3795C210.445 59.4821 210.656 59.5333 210.898 59.5333C211.06 59.5333 211.206 59.5108 211.337 59.4656C211.469 59.4185 211.582 59.3498 211.679 59.2596C211.775 59.1694 211.848 59.0577 211.897 58.9244L212.936 59.0413C212.871 59.316 212.746 59.5559 212.561 59.7609C212.379 59.9638 212.145 60.1217 211.86 60.2344C211.575 60.3451 211.249 60.4005 210.882 60.4005Z" fill="white"/>
</g>
<defs>
<filter id="filter0_d_450_9475" x="0.7" y="0.7" width="247.088" height="97.6" filterUnits="userSpaceOnUse" color-interpolation-filters="sRGB">
<feFlood flood-opacity="0" result="BackgroundImageFix"/>
<feColorMatrix in="SourceAlpha" type="matrix" values="0 0 0 0 0 0 0 0 0 0 0 0 0 0 0 0 0 0 127 0" result="hardAlpha"/>
<feOffset dy="4"/>
<feGaussianBlur stdDeviation="7.65"/>
<feComposite in2="hardAlpha" operator="out"/>
<feColorMatrix type="matrix" values="0 0 0 0 0.615273 0 0 0 0 0.615273 0 0 0 0 0.7025 0 0 0 0.26 0"/>
<feBlend mode="normal" in2="BackgroundImageFix" result="effect1_dropShadow_450_9475"/>
<feBlend mode="normal" in="SourceGraphic" in2="effect1_dropShadow_450_9475" result="shape"/>
</filter>
</defs>
</svg>
