<svg width="24" height="24" viewBox="0 0 24 24" fill="none" xmlns="http://www.w3.org/2000/svg">
<path d="M17.3713 7.9361C17.2609 7.6369 17.0848 7.36609 16.8559 7.1438C16.6336 6.91492 16.363 6.73877 16.0636 6.62836C15.8208 6.53406 15.4561 6.42181 14.7842 6.39124C14.0575 6.35809 13.8396 6.35095 11.9998 6.35095C10.1597 6.35095 9.94183 6.35791 9.21527 6.39105C8.54346 6.42181 8.17853 6.53406 7.93591 6.62836C7.63654 6.73877 7.36572 6.91492 7.14362 7.1438C6.91473 7.36609 6.73859 7.63672 6.62799 7.9361C6.53369 8.17889 6.42145 8.54382 6.39087 9.21564C6.35773 9.9422 6.35059 10.1601 6.35059 12.0001C6.35059 13.84 6.35773 14.0579 6.39087 14.7846C6.42145 15.4564 6.53369 15.8212 6.62799 16.064C6.73859 16.3633 6.91455 16.634 7.14343 16.8563C7.36572 17.0851 7.63635 17.2613 7.93573 17.3717C8.17853 17.4662 8.54346 17.5784 9.21527 17.609C9.94183 17.6422 10.1595 17.6491 11.9996 17.6491C13.8398 17.6491 14.0577 17.6422 14.7841 17.609C15.4559 17.5784 15.8208 17.4662 16.0636 17.3717C16.6646 17.1399 17.1395 16.6649 17.3713 16.064C17.4656 15.8212 17.5779 15.4564 17.6086 14.7846C17.6418 14.0579 17.6487 13.84 17.6487 12.0001C17.6487 10.1601 17.6418 9.9422 17.6086 9.21564C17.5781 8.54382 17.4658 8.17889 17.3713 7.9361ZM11.9998 15.5383C10.0455 15.5383 8.46124 13.9542 8.46124 11.9999C8.46124 10.0457 10.0455 8.46161 11.9998 8.46161C13.9539 8.46161 15.5381 10.0457 15.5381 11.9999C15.5381 13.9542 13.9539 15.5383 11.9998 15.5383ZM15.678 9.14862C15.2213 9.14862 14.8511 8.77838 14.8511 8.32172C14.8511 7.86505 15.2213 7.49481 15.678 7.49481C16.1346 7.49481 16.5049 7.86505 16.5049 8.32172C16.5047 8.77838 16.1346 9.14862 15.678 9.14862Z" fill="white"/>
<path d="M14.2969 12C14.2969 13.2686 13.2686 14.2969 12 14.2969C10.7314 14.2969 9.70312 13.2686 9.70312 12C9.70312 10.7314 10.7314 9.70312 12 9.70312C13.2686 9.70312 14.2969 10.7314 14.2969 12Z" fill="white"/>
<path d="M22.2691 0H1.7309C0.774902 0 0 0.774902 0 1.7309V22.2691C0 23.2251 0.774902 24 1.7309 24H22.2691C23.2251 24 24 23.2251 24 22.2691V1.7309C24 0.774902 23.2251 0 22.2691 0V0ZM18.8491 14.8409C18.8157 15.5744 18.6991 16.0752 18.5288 16.5135C18.1708 17.4391 17.4391 18.1708 16.5135 18.5288C16.0754 18.6991 15.5744 18.8156 14.8411 18.8491C14.1063 18.8826 13.8715 18.8906 12.0002 18.8906C10.1287 18.8906 9.8941 18.8826 9.15912 18.8491C8.42578 18.8156 7.9248 18.6991 7.48663 18.5288C7.02667 18.3558 6.61029 18.0846 6.26605 17.7339C5.91559 17.3899 5.64441 16.9733 5.47137 16.5135C5.30109 16.0754 5.18445 15.5744 5.15112 14.8411C5.11725 14.1061 5.10938 13.8713 5.10938 12C5.10938 10.1287 5.11725 9.89392 5.15094 9.15912C5.18427 8.4256 5.30072 7.9248 5.47101 7.48645C5.64404 7.02667 5.91541 6.61011 6.26605 6.26605C6.61011 5.91541 7.02667 5.64423 7.48645 5.47119C7.9248 5.3009 8.4256 5.18445 9.15912 5.15094C9.89392 5.11743 10.1287 5.10938 12 5.10938C13.8713 5.10938 14.1061 5.11743 14.8409 5.15112C15.5744 5.18445 16.0752 5.3009 16.5135 5.47101C16.9733 5.64404 17.3899 5.91541 17.7341 6.26605C18.0846 6.61029 18.356 7.02667 18.5288 7.48645C18.6993 7.9248 18.8157 8.4256 18.8492 9.15912C18.8828 9.89392 18.8906 10.1287 18.8906 12C18.8906 13.8713 18.8828 14.1061 18.8491 14.8409Z" fill="white"/>
</svg>
