<svg width="42.1041" height="42.1041" viewBox="24.208 21 42.1041 42.1041" fill="none" xmlns="http://www.w3.org/2000/svg">
<g filter="url(#filter0_d_1764_4374)">
<rect x="24" y="21" width="42.1041" height="42.1041" rx="14.9256" fill="#178EE8" shape-rendering="crispEdges"/>
<g clip-path="url(#clip0_1764_4374)">
<path d="M44.4429 36.9701C42.0279 37.2431 40.0539 39.1751 39.7599 41.5901C39.5079 43.6901 40.4949 45.6011 42.0699 46.6721C42.4899 46.9451 42.7419 47.4071 42.7419 47.9111V48.3521H47.2989V47.9321C47.2989 47.4491 47.5299 46.9661 47.9499 46.6931C49.3989 45.7481 50.3439 44.1101 50.3439 42.2411C50.3649 39.1121 47.6559 36.6131 44.4429 36.9701Z" fill="white"/>
<path d="M42.7627 50.6833C42.7627 50.8723 42.8467 51.0403 42.9937 51.1663L43.6447 51.7123C43.7497 51.7963 43.8967 51.8593 44.0437 51.8593H46.0597C46.2067 51.8593 46.3537 51.8173 46.4587 51.7123L47.1097 51.1663C47.2567 51.0403 47.3407 50.8723 47.3407 50.6833V49.5073H42.7627V50.6833Z" fill="white"/>
<path d="M45.0524 35.3321C45.4094 35.3321 45.7034 35.0381 45.7034 34.6811V32.8961C45.7034 32.5391 45.4094 32.2451 45.0524 32.2451C44.6954 32.2451 44.4014 32.5391 44.4014 32.8961V34.6601C44.4014 35.0381 44.6744 35.3321 45.0524 35.3321Z" fill="white"/>
<path d="M40.7056 36.0252C40.8316 36.2352 41.0416 36.3612 41.2726 36.3612C41.3776 36.3612 41.5036 36.3402 41.5876 36.2772C41.9026 36.0882 42.0076 35.6892 41.8186 35.3952L40.9366 33.8622C40.7476 33.5472 40.3486 33.4422 40.0546 33.6312C39.7396 33.8202 39.6346 34.2192 39.8236 34.5132L40.7056 36.0252Z" fill="white"/>
<path d="M36.6523 38.1459L38.1853 39.0279C38.2903 39.0909 38.3953 39.1119 38.5003 39.1119C38.7313 39.1119 38.9413 38.9859 39.0673 38.7759C39.2563 38.4609 39.1303 38.0619 38.8363 37.8939L37.3033 37.0119C36.9883 36.8229 36.5893 36.9489 36.4213 37.2429C36.2323 37.5579 36.3373 37.9569 36.6523 38.1459Z" fill="white"/>
<path d="M38.1431 42.2413C38.1431 41.8843 37.8491 41.5903 37.4921 41.5903H35.7281C35.3711 41.5903 35.0771 41.8843 35.0771 42.2413C35.0771 42.5983 35.3711 42.8923 35.7281 42.8923H37.4921C37.8701 42.8923 38.1431 42.5983 38.1431 42.2413Z" fill="white"/>
<path d="M38.1853 45.4542L36.6523 46.3362C36.3373 46.5252 36.2323 46.9242 36.4213 47.2182C36.5473 47.4282 36.7573 47.5542 36.9883 47.5542C37.0933 47.5542 37.2193 47.5332 37.3033 47.4702L38.8363 46.5882C39.1513 46.3992 39.2563 46.0002 39.0673 45.7062C38.8993 45.3702 38.5003 45.2652 38.1853 45.4542Z" fill="white"/>
<path d="M53.4518 46.3153L51.9188 45.4333C51.6038 45.2443 51.2048 45.3703 51.0368 45.6643C50.8478 45.9793 50.9738 46.3783 51.2678 46.5463L52.8008 47.4283C52.9058 47.4913 53.0108 47.5123 53.1158 47.5123C53.3468 47.5123 53.5568 47.3863 53.6828 47.1763C53.8718 46.9033 53.7668 46.5043 53.4518 46.3153Z" fill="white"/>
<path d="M54.3759 41.5693H52.6119C52.2549 41.5693 51.9609 41.8633 51.9609 42.2203C51.9609 42.5773 52.2549 42.8713 52.6119 42.8713H54.3759C54.7329 42.8713 55.0269 42.5773 55.0269 42.2203C55.0269 41.8633 54.7329 41.5693 54.3759 41.5693Z" fill="white"/>
<path d="M51.583 39.0911C51.688 39.0911 51.814 39.0701 51.898 39.0071L53.431 38.1251C53.746 37.9361 53.851 37.5371 53.662 37.2431C53.473 36.9281 53.074 36.8231 52.78 37.0121L51.247 37.8941C50.932 38.0831 50.827 38.4821 51.016 38.7761C51.142 38.9861 51.352 39.0911 51.583 39.0911Z" fill="white"/>
<path d="M48.496 36.2562C48.601 36.3192 48.706 36.3402 48.811 36.3402C49.042 36.3402 49.252 36.2142 49.378 36.0042L50.26 34.4712C50.449 34.1562 50.323 33.7572 50.029 33.5892C49.714 33.4002 49.315 33.5052 49.147 33.8202L48.265 35.3532C48.076 35.6682 48.181 36.0672 48.496 36.2562Z" fill="white"/>
</g>
</g>
<defs>
<filter id="filter0_d_1764_4374" x="0.119009" y="0.104133" width="89.8665" height="89.866" filterUnits="userSpaceOnUse" color-interpolation-filters="sRGB">
<feFlood flood-opacity="0" result="BackgroundImageFix"/>
<feColorMatrix in="SourceAlpha" type="matrix" values="0 0 0 0 0 0 0 0 0 0 0 0 0 0 0 0 0 0 127 0" result="hardAlpha"/>
<feOffset dy="2.98512"/>
<feGaussianBlur stdDeviation="11.9405"/>
<feComposite in2="hardAlpha" operator="out"/>
<feColorMatrix type="matrix" values="0 0 0 0 0.0901961 0 0 0 0 0.556863 0 0 0 0 0.909804 0 0 0 0.33 0"/>
<feBlend mode="normal" in2="BackgroundImageFix" result="effect1_dropShadow_1764_4374"/>
<feBlend mode="normal" in="SourceGraphic" in2="effect1_dropShadow_1764_4374" result="shape"/>
</filter>
<clipPath id="clip0_1764_4374">
<rect width="21" height="21" fill="white" transform="translate(34.5518 31.5522)"/>
</clipPath>
</defs>
</svg>
