<svg width="24" height="24" viewBox="0 0 24 24" fill="none" xmlns="http://www.w3.org/2000/svg">
<g clip-path="url(#clip0_7761_4561)">
<path d="M2.20646 8.93756H2.9596C3.8911 8.9032 3.89119 7.56572 2.9596 7.53131H2.20646C1.275 7.56567 1.27486 8.90315 2.20646 8.93756Z" fill="white"/>
<path d="M21.7877 15.0626H21.0346C20.1031 15.0969 20.103 16.4344 21.0346 16.4688H21.7877C22.7192 16.4344 22.7193 15.0969 21.7877 15.0626Z" fill="white"/>
<path d="M8.23438 3.66567C8.62269 3.66567 8.9375 3.35086 8.9375 2.96254V2.2094C8.90314 1.2779 7.56566 1.27781 7.53125 2.2094V2.96254C7.53125 3.35086 7.84602 3.66567 8.23438 3.66567Z" fill="white"/>
<path d="M15.7656 20.3344C15.3773 20.3344 15.0625 20.6492 15.0625 21.0375V21.7907C15.0969 22.7221 16.4343 22.7223 16.4688 21.7907V21.0375C16.4688 20.6492 16.154 20.3344 15.7656 20.3344Z" fill="white"/>
<path d="M4.00526 5.00303C4.68739 5.63842 5.6345 4.69403 5.00112 4.01012L4.47017 3.47758C3.78809 2.84223 2.84089 3.78644 3.47431 4.47048L4.00526 5.00303Z" fill="white"/>
<path d="M19.9936 18.997C19.3115 18.3616 18.3643 19.3058 18.9977 19.9899L19.5287 20.5224C20.2108 21.1578 21.1579 20.2135 20.5246 19.5295L19.9936 18.997Z" fill="white"/>
<path d="M2.5212 19.3491C2.35348 19.1815 2.19729 19.0055 2.05268 18.8222L0.205945 20.669C-0.0686484 20.9436 -0.0686484 21.3888 0.205945 21.6633L2.3367 23.7941C2.61129 24.0687 3.05646 24.0687 3.33105 23.7941L5.17713 21.948C4.79585 21.6796 2.89666 19.7062 2.5212 19.3491Z" fill="white"/>
<path d="M7.63281 9.97607L9.76305 12.1062L10.9002 10.9694C11.4851 10.3843 11.4917 9.43068 10.9002 8.83902C10.3133 8.2521 9.35697 8.25102 8.7685 8.83959L7.63281 9.97607Z" fill="white"/>
<path d="M15.1579 13.0988C14.571 12.5119 13.6147 12.5108 13.0262 13.0994L11.8906 14.2357L14.0209 16.3658L15.158 15.2291C15.7429 14.644 15.7494 13.6904 15.1579 13.0988Z" fill="white"/>
<path d="M6.10538 10.4378C5.83093 10.1634 5.38604 10.1631 5.11144 10.4373L3.51469 12.0351C1.76485 13.7828 1.76705 16.6099 3.5146 18.3554L5.64226 20.4856C7.38619 22.2274 10.2223 22.2256 11.9654 20.4847C11.9654 20.4847 13.5607 18.8883 13.5609 18.8881C13.8356 18.6138 13.8361 18.168 13.5613 17.8933L6.10538 10.4378Z" fill="white"/>
<path d="M23.7915 2.3367L21.6608 0.205945C21.3862 -0.0686484 20.941 -0.0686484 20.6664 0.205945L18.8203 2.05202C19.0037 2.1963 19.1798 2.35207 19.3474 2.51946C19.7131 2.90445 21.6662 4.78882 21.9448 5.17779L23.7915 3.33105C24.066 3.05646 24.066 2.61129 23.7915 2.3367Z" fill="white"/>
<path d="M20.4869 11.965C22.2369 10.217 22.2343 7.38995 20.4869 5.64465L18.3593 3.51447C16.6162 1.77353 13.7802 1.77348 12.0362 3.5154C12.0362 3.5154 10.4409 5.11173 10.4407 5.11192C10.1659 5.38623 10.1655 5.83197 10.4402 6.10675L17.8961 13.5623C18.1706 13.8367 18.6154 13.8369 18.8901 13.5627L20.4869 11.965Z" fill="white"/>
</g>
<defs>
<clipPath id="clip0_7761_4561">
<rect width="24" height="24" fill="white"/>
</clipPath>
</defs>
</svg>
