<svg width="26" height="26" viewBox="0 0 26 26" fill="none" xmlns="http://www.w3.org/2000/svg">
<g clip-path="url(#clip0_7047_876)">
<path d="M25.6782 13.0545L24.3755 11.7529C24.2526 11.6289 24.1022 11.5367 23.9365 11.4829C19.8299 10.1616 18.3495 9.66336 17.1456 8.83699C15.5905 7.77027 13.8796 7.27205 12.1983 7.39495C11.8956 7.41707 11.605 7.45761 11.3267 7.51538L5.8852 1.08403C5.34525 0.429934 4.55067 0.0469444 3.64641 0.00414417C2.66859 -0.0441604 1.67977 0.332245 1.00705 1.00609C0.332124 1.67994 -0.043201 2.6665 0.00397186 3.64654C0.0467721 4.54971 0.429762 5.34537 1.07398 5.87652L7.50065 11.3142C7.13067 13.0539 7.572 15.2393 8.65137 16.8823C9.53808 18.2344 10.0945 19.6183 11.4838 23.9356C11.5376 24.1024 11.6298 24.2527 11.7527 24.3757L13.0543 25.6784C13.2661 25.8901 13.5471 25.9999 13.8313 25.9999C14.0266 25.9999 14.2231 25.9483 14.3998 25.8408C15.4197 25.2229 16.3688 24.569 17.2495 23.8993C18.0458 24.4539 18.9997 24.7606 19.9789 24.7606C22.6161 24.7606 24.7605 22.6151 24.7605 19.979C24.7605 19.0019 24.4557 18.0508 23.9042 17.2563C25.1546 15.6237 25.8003 14.4751 25.8625 14.3626C26.0996 13.9335 26.025 13.4001 25.6782 13.0545ZM22.5657 19.979C22.5657 21.4056 21.4057 22.5657 19.979 22.5657C19.667 22.5657 19.3638 22.5103 19.08 22.4051C20.3778 21.2692 21.4849 20.1305 22.4057 19.0817C22.5104 19.365 22.5657 19.6666 22.5657 19.979Z" fill="#FF0088"/>
</g>
<defs>
<clipPath id="clip0_7047_876">
<rect width="26" height="26" fill="white"/>
</clipPath>
</defs>
</svg>
