<svg width="32" height="32" viewBox="0 0 32 32" fill="none" xmlns="http://www.w3.org/2000/svg">
<g clip-path="url(#clip0_7047_786)">
<path d="M14.5208 31.2016C21.5679 31.2016 27.3124 25.9907 28.1417 19.1811C28.2525 18.2717 27.5192 17.4778 26.6031 17.4778H14.5207V5.39543C14.5207 4.47935 13.7268 3.74604 12.8174 3.8568C6.00785 4.68614 0.796885 10.4306 0.796875 17.4778C0.796865 25.0032 6.99537 31.2017 14.5208 31.2016Z" fill="#8A21DD"/>
<path d="M17.5703 2.34606V14.4272H29.6514C30.5913 14.4272 31.3016 13.597 31.1839 12.6645C30.4013 6.46074 25.5367 1.59618 19.333 0.813542C18.4005 0.6959 17.5703 1.40616 17.5703 2.34606Z" fill="#8A21DD"/>
</g>
<defs>
<clipPath id="clip0_7047_786">
<rect width="32" height="32" fill="white"/>
</clipPath>
</defs>
</svg>
