<svg width="32" height="32" viewBox="0 0 32 32" fill="none" xmlns="http://www.w3.org/2000/svg">
<path d="M28.2604 25.4639L22.2063 20.5109C23.6614 18.6872 24.5362 16.381 24.5362 13.8661C24.5362 7.97426 19.7612 3.19922 13.8697 3.19922C7.97784 3.19922 3.20312 7.97426 3.20312 13.8658C3.20312 19.7576 7.97817 24.5323 13.8697 24.5323C16.3846 24.5323 18.6918 23.6575 20.5158 22.2011L25.469 28.2555C26.0252 28.9355 26.9897 28.9842 27.6127 28.3618L28.3666 27.6075C28.9894 26.9858 28.9394 26.0213 28.2604 25.4639ZM10.6697 19.1995H8.53624V12.7992H10.6697V19.1995ZM14.9362 19.1995H12.8031V8.53266H14.9362V19.1995ZM19.2031 19.1995H17.0697V10.6658H19.2031V19.1995Z" fill="#178EE8"/>
</svg>
