<svg width="28" height="28" viewBox="0 0 28 28" fill="none" xmlns="http://www.w3.org/2000/svg">
<g clip-path="url(#clip0_7518_1992)">
<path d="M2.19226 5.21027C2.23263 6.29791 3.7935 6.29709 3.83349 5.21027V3.83349H5.21027C6.29791 3.79312 6.29709 2.23225 5.21027 2.19226H3.83349V0.815427C3.79312 -0.272219 2.23225 -0.271398 2.19226 0.815427V2.19226H0.815427C-0.272219 2.23263 -0.271398 3.7935 0.815427 3.83349H2.19226V5.21027Z" fill="white"/>
<path d="M25.8666 24.1668H24.4897V22.79C24.4494 21.7024 22.8885 21.7032 22.8485 22.79V24.1668H21.4717C20.384 24.2072 20.3849 25.7681 21.4717 25.808H22.8485V27.1849C22.8889 28.2725 24.4498 28.2717 24.4897 27.1849V25.808H25.8666C26.9542 25.7677 26.9534 24.2068 25.8666 24.1668Z" fill="white"/>
<path d="M27.1868 2.19223H26.6889V1.69433C26.6486 0.606687 25.0877 0.607508 25.0477 1.69433V2.19223H24.5498C23.4622 2.2326 23.463 3.79347 24.5498 3.83346H25.0477V4.3313C25.0881 5.41895 26.6489 5.41813 26.6889 4.3313V3.83346H27.1868C28.2744 3.79309 28.2736 2.23222 27.1868 2.19223Z" fill="white"/>
<path d="M5.64766 22.8484H5.14981V22.3506C5.10944 21.2629 3.54857 21.2638 3.50858 22.3506V22.8484H3.01074C1.92309 22.8888 1.92391 24.4497 3.01074 24.4897H3.50858V24.9875C3.54895 26.0751 5.10982 26.0743 5.14981 24.9875V24.4897H5.64766C6.7353 24.4493 6.73448 22.8884 5.64766 22.8484Z" fill="white"/>
<path d="M25.5589 19.3383C25.699 19.0633 25.673 18.7331 25.4916 18.4834L21.4371 12.9032L23.5685 6.34238C23.6639 6.04899 23.5866 5.72676 23.3683 5.50858C23.1502 5.29035 22.8279 5.213 22.5345 5.30841L15.9738 7.43988L10.3935 3.38526C10.1438 3.20385 9.81356 3.17787 9.53854 3.31797C9.26358 3.45808 9.09049 3.74059 9.09049 4.04914V10.9472L3.51013 15.0018C3.26055 15.1831 3.13374 15.4892 3.18199 15.794C3.2303 16.0988 3.44541 16.3507 3.73897 16.446L10.2993 18.5776L12.4308 25.1379C12.5261 25.4314 12.7781 25.6466 13.0829 25.6949C13.3877 25.7431 13.6938 25.6163 13.8751 25.3667L17.9297 19.7864H24.8277C25.1363 19.7864 25.4189 19.6133 25.5589 19.3383Z" fill="white"/>
</g>
<defs>
<clipPath id="clip0_7518_1992">
<rect width="28" height="28" fill="white"/>
</clipPath>
</defs>
</svg>
