<svg width="20" height="20" viewBox="0 0 20 20" fill="none" xmlns="http://www.w3.org/2000/svg">
<path d="M9.98023 9.89158L16.926 1.73878C17.3721 1.21519 17.9458 1.12593 18.4422 1.29347C18.6312 1.35705 18.808 1.45953 18.9596 1.58968C19.1109 1.71933 19.2396 1.8784 19.3323 2.05468C19.5801 2.52591 19.5841 3.11931 19.1336 3.64839L11.7704 12.2911C11.5126 12.5891 11.2134 12.8182 10.8798 12.9738C10.5392 13.1331 10.1632 13.2169 9.76032 13.2206C9.35865 13.2244 8.98167 13.1481 8.63809 12.9955C8.29352 12.8426 7.98385 12.6135 7.71732 12.3126L4.93132 9.16753C4.4753 8.65266 4.46682 8.06948 4.70268 7.6005C4.79244 7.42223 4.9181 7.26116 5.06745 7.12951C5.21705 6.99762 5.39233 6.8924 5.58007 6.82533C6.08048 6.64656 6.66839 6.72635 7.1309 7.24894L9.47708 9.89756L9.52446 9.94219C9.58404 9.98757 9.65735 10.0105 9.73015 10.0098C9.80719 10.009 9.88449 9.98134 9.94557 9.92748C9.94557 9.92748 9.98023 9.89158 9.98023 9.89158ZM11.4934 5.00099H5.64166C5.03105 5.00099 4.4758 5.25082 4.0654 5.66072C3.66448 6.06837 3.42114 6.61739 3.42114 7.22127V13.644C3.42114 14.2541 3.67121 14.8093 4.07363 15.2118C4.47605 15.6142 5.0313 15.864 5.64166 15.864H11.9452C12.5553 15.864 13.1106 15.6139 13.5209 15.204C13.9219 14.7964 14.1657 14.2471 14.1657 13.644V12.2288C14.1657 11.5573 14.5519 11.1265 15.0458 10.9373C15.2298 10.8672 15.4288 10.8315 15.6263 10.8315C15.8238 10.8315 16.0227 10.8672 16.2067 10.9373C16.7006 11.1265 17.0869 11.5573 17.0869 12.2288V13.644C17.0869 15.0599 16.5094 16.3457 15.5784 17.2767L15.5597 17.2939C14.6297 18.2149 13.3517 18.7851 11.9452 18.7851H5.64166C4.22522 18.7851 2.93943 18.2079 2.00844 17.2769L1.99099 17.2582C1.06997 16.328 0.5 15.0502 0.5 13.644V7.22127C0.5 5.80558 1.0772 4.52004 2.00869 3.5888C2.93894 2.65705 4.22472 2.08011 5.64166 2.08011H11.4934C12.1649 2.08011 12.5957 2.46632 12.7849 2.96024C12.855 3.14424 12.8906 3.34296 12.8906 3.54043C12.8906 3.73789 12.855 3.93686 12.7849 4.12086C12.5957 4.61478 12.1649 5.00099 11.4934 5.00099Z" fill="url(#paint0_linear_7047_746)"/>
<defs>
<linearGradient id="paint0_linear_7047_746" x1="10" y1="1.2168" x2="10" y2="18.7851" gradientUnits="userSpaceOnUse">
<stop stop-color="#E817AD"/>
<stop offset="1" stop-color="#FF0088"/>
</linearGradient>
</defs>
</svg>
