<svg width="24" height="24" viewBox="0 0 24 24" fill="none" xmlns="http://www.w3.org/2000/svg">
<g clip-path="url(#clip0_7047_858)">
<path d="M7.00002 7C5.897 7 5 7.897 5 9.00002C5 10.103 5.897 11 7.00002 11C8.10303 11 9.00003 10.103 9.00003 9.00002C9.00003 7.897 8.10303 7 7.00002 7Z" fill="white"/>
<path d="M21.184 0H2.81602C1.263 0 0 1.263 0 2.81602V15.184C0 16.737 1.263 18 2.81602 18H8.112C7.944 18.31 7.72898 18.66 7.491 19.001C6.11602 19.006 5.00002 20.125 5.00002 21.5C5.00002 22.878 6.12202 24 7.5 24H16.5C17.878 24 19 22.878 19 21.5C19 20.125 17.883 19.006 16.509 19.001C16.269 18.656 16.05 18.305 15.881 18H21.184C22.737 18 24 16.737 24 15.184V2.81602C24 1.263 22.737 0 21.184 0ZM6.99998 13C4.794 13 3 11.206 3 9C3 6.79402 4.794 5.00002 6.99998 5.00002C9.20597 5.00002 11 6.79402 11 9C11 11.206 9.20602 13 6.99998 13ZM9.85402 19C10.03 18.671 10.184 18.332 10.29 18H13.711C13.816 18.332 13.97 18.671 14.146 19H9.85402ZM19.707 11.707L17.707 13.707C17.512 13.902 17.256 14 17 14C16.7439 14 16.488 13.902 16.293 13.707L15.293 12.707C14.902 12.316 14.902 11.684 15.293 11.293C15.684 10.902 16.316 10.902 16.707 11.293L17 11.586L18.293 10.293C18.684 9.90206 19.316 9.90206 19.707 10.293C20.098 10.684 20.098 11.316 19.707 11.707ZM19.707 5.70698L17.707 7.707C17.512 7.902 17.256 8.00002 17 8.00002C16.7439 8.00002 16.488 7.902 16.293 7.707L15.293 6.70702C14.902 6.31603 14.902 5.68402 15.293 5.29303C15.684 4.90205 16.316 4.90205 16.707 5.29303L17 5.58605L18.293 4.29305C18.684 3.90206 19.316 3.90206 19.707 4.29305C20.098 4.68398 20.098 5.316 19.707 5.70698Z" fill="white"/>
</g>
<defs>
<clipPath id="clip0_7047_858">
<rect width="24" height="24" fill="white"/>
</clipPath>
</defs>
</svg>
