<svg width="24" height="24" viewBox="0 0 24 24" fill="none" xmlns="http://www.w3.org/2000/svg">
<g clip-path="url(#clip0_7514_2121)">
<path d="M12.4934 12.0986C11.062 12.3776 9.48712 12.5031 7.99299 12.5031C7.49945 12.5031 6.9969 12.4872 6.49286 12.4596V14.2528C6.49286 14.6671 6.15683 15.0029 5.74279 15.0029C5.32846 15.0029 4.99273 14.6671 4.99273 14.2528V12.3308C4.48088 12.2717 3.97954 12.1943 3.4926 12.1004V13.753C3.4926 14.1673 3.15657 14.503 2.74253 14.503C2.32819 14.503 1.99246 14.1673 1.99246 13.753V11.7314C1.2286 11.4989 0.548136 11.2069 -0.0078125 10.8496V14.5033C-0.0078125 15.8847 3.5745 17.0038 7.99299 17.0038C9.66204 17.0038 11.2111 16.8432 12.4934 16.5702V12.0986Z" fill="white"/>
<path d="M12.4934 18.0967C11.062 18.3757 9.48712 18.5011 7.99299 18.5011C7.49945 18.5011 6.9969 18.4852 6.49286 18.4576V20.2509C6.49286 20.6652 6.15683 21.0009 5.74279 21.0009C5.32846 21.0009 4.99273 20.6652 4.99273 20.2509V18.3289C4.48088 18.2698 3.97954 18.1924 3.4926 18.0985V19.751C3.4926 20.1653 3.15657 20.5011 2.74253 20.5011C2.32819 20.5011 1.99246 20.1653 1.99246 19.751V17.7294C1.2286 17.4963 0.548136 17.205 -0.0078125 16.8477V20.5014C-0.0078125 21.8827 3.5745 23.0018 7.99299 23.0018C9.66204 23.0018 11.2111 22.8413 12.4934 22.5683V18.0967Z" fill="white"/>
<path d="M7.99299 5.00024C12.4117 5.00024 15.9938 3.8809 15.9938 2.50012C15.9938 1.11934 12.4117 0 7.99299 0C3.57427 0 -0.0078125 1.11934 -0.0078125 2.50012C-0.0078125 3.8809 3.57427 5.00024 7.99299 5.00024Z" fill="white"/>
<path d="M7.99299 6.49915C7.49945 6.49915 6.9969 6.48355 6.49286 6.45595V8.2492C6.49286 8.66354 6.15683 8.99927 5.74279 8.99927C5.32846 8.99927 4.99273 8.66354 4.99273 8.2492V6.32723C4.48088 6.26783 3.97954 6.19072 3.4926 6.09681V7.74936C3.4926 8.1634 3.15657 8.49942 2.74253 8.49942C2.32819 8.49942 1.99246 8.1634 1.99246 7.74936V5.72778C1.2286 5.49526 0.548136 5.20333 -0.0078125 4.846V8.49972C-0.0078125 9.88075 3.5745 10.9998 7.99299 10.9998C12.4115 10.9998 15.9935 9.88075 15.9935 8.49972V4.8457C14.1516 6.03021 10.9128 6.49915 7.99299 6.49915Z" fill="white"/>
<path d="M22.5085 14.9983H21.5085V13.4982C21.5085 12.1174 20.3894 10.998 19.0081 10.998C17.627 10.998 16.5079 12.1174 16.5079 13.4982V14.9983H15.5079C14.6826 14.9983 14.0078 15.6734 14.0078 16.4984V22.499C14.0078 23.3246 14.6826 23.9991 15.5079 23.9991H22.5085C23.3338 23.9991 24.0086 23.3246 24.0086 22.499V16.4984C24.0086 15.6734 23.3338 14.9983 22.5085 14.9983ZM19.7581 20.9988H18.258V17.9986H19.7581V20.9988ZM20.0083 14.9983H18.0081V13.4982C18.0081 12.9455 18.4554 12.4985 19.0081 12.4985C19.561 12.4985 20.0083 12.9455 20.0083 13.4982V14.9983Z" fill="white"/>
</g>
<defs>
<clipPath id="clip0_7514_2121">
<rect width="24" height="24" fill="white"/>
</clipPath>
</defs>
</svg>
