<svg width="24" height="24" viewBox="0 0 24 24" fill="none" xmlns="http://www.w3.org/2000/svg">
<path d="M18.3985 12.8003V11.2005H21.5984V5.60031C21.5984 3.84039 20.1587 2.40039 18.3985 2.40039H12.7993V5.59959H11.1992V2.40039H5.59836C3.8382 2.40039 2.39844 3.84039 2.39844 5.60031V11.2002H5.59836V12.8001H2.39844V18.4002C2.39844 20.1606 3.8382 21.6004 5.59836 21.6004H11.1992V18.3995H12.7993V21.6004H18.3985C20.1587 21.6004 21.5984 20.1606 21.5984 18.4005V12.8003H18.3985ZM13.1298 12.0004C12.5077 12.6222 11.4892 12.6222 10.8671 12.0004L7.19844 8.33175L8.3298 7.20039L11.9984 10.869L17.2672 5.60031L18.3985 6.73143L13.1298 12.0004Z" fill="white"/>
</svg>
