<svg width="20" height="20" viewBox="0 0 20 20" fill="none" xmlns="http://www.w3.org/2000/svg">
<path d="M16.3703 6.56007H17.3969C17.9562 6.56007 18.4097 6.10661 18.4097 5.54724V2.41712C18.4097 1.85775 17.9562 1.4043 17.3969 1.4043H14.2668C13.7074 1.4043 13.2539 1.85775 13.2539 2.41712V5.54724C13.2539 6.10661 13.7074 6.56007 14.2668 6.56007H14.363C13.9322 7.17876 13.2814 7.90744 12.3923 8.43447C12.3923 7.87511 11.9389 7.42165 11.3795 7.42165H8.25399C7.69462 7.42165 7.24116 7.87511 7.24116 8.43447V9.14024H0.5V10.8588H5.28885C4.23936 11.7662 3.58859 12.8157 3.2632 13.439H2.23663C1.67727 13.439 1.22381 13.8925 1.22381 14.4518V17.582C1.22381 18.1413 1.67727 18.5948 2.23663 18.5948H5.36676C5.92612 18.5948 6.37958 18.1413 6.37958 17.582V14.4472C6.37958 13.8879 5.92612 13.4344 5.36676 13.4344H5.2751C5.70589 12.8157 6.35666 12.0871 7.24116 11.5646C7.24116 12.124 7.69462 12.5774 8.25398 12.5774H11.3841C11.9435 12.5774 12.3969 12.124 12.3969 11.5646V10.8588H19.5V9.14024H14.3492C15.3942 8.22824 16.0449 7.18334 16.3703 6.56007Z" fill="url(#paint0_linear_7047_758)"/>
<defs>
<linearGradient id="paint0_linear_7047_758" x1="10" y1="1.4043" x2="10" y2="18.5948" gradientUnits="userSpaceOnUse">
<stop stop-color="#E817AD"/>
<stop offset="1" stop-color="#FF0088"/>
</linearGradient>
</defs>
</svg>
