<svg width="26" height="26" viewBox="0 0 26 26" fill="none" xmlns="http://www.w3.org/2000/svg">
<path d="M21.6681 2.59961H4.33498C3.38182 2.59961 2.60156 3.37987 2.60156 4.33303V21.6662C2.60156 22.6193 3.38182 23.3996 4.33498 23.3996H21.6681C22.6213 23.3996 23.4016 22.6193 23.4016 21.6662V4.33303C23.4016 3.37987 22.6213 2.59961 21.6681 2.59961ZM9.89378 15.2408L8.66814 16.4662L5.20156 12.9996L8.66918 9.53303L9.89456 10.7584L7.65258 12.9996L9.89378 15.2408ZM11.8089 20.7996L10.1351 20.3508L14.1942 5.19961L15.8681 5.64837L11.8089 20.7996ZM17.3339 16.4662L16.1086 15.2408L18.3505 12.9996L16.1093 10.7584L17.335 9.53303L20.8016 12.9996L17.3339 16.4662Z" fill="#178EE8"/>
</svg>
