<svg width="20" height="20" viewBox="0 0 20 20" fill="none" xmlns="http://www.w3.org/2000/svg">
<path d="M19.5 15.0646C19.5 16.8146 18.082 18.2326 16.334 18.2326C14.5841 18.2326 13.1681 16.8146 13.1661 15.0646C13.1661 13.6847 14.0601 12.4627 15.3781 12.0447V5.93079C15.3701 5.40482 15.0521 4.93481 14.5661 4.73281C13.8941 4.45283 13.1241 4.77082 12.8441 5.4428L8.91819 15.2587C8.42819 16.4706 7.25421 17.2666 5.94622 17.2706C4.17025 17.2766 2.72428 15.8426 2.7183 14.0647V7.95277C1.7303 7.64277 0.958318 6.87078 0.646311 5.88279C0.122321 4.21482 1.05031 2.43685 2.7183 1.91288C4.38624 1.38687 6.16424 2.31485 6.6882 3.98282C7.21222 5.65081 6.28621 7.42876 4.61827 7.95277V14.0687C4.62425 14.5927 4.94424 15.0627 5.42824 15.2646C6.10022 15.5446 6.87021 15.2266 7.15021 14.5567L11.0841 4.73881C11.5741 3.52685 12.7481 2.73284 14.0541 2.72686C15.832 2.72085 17.278 4.15684 17.284 5.93279V12.0447C18.602 12.4587 19.5 13.6827 19.5 15.0646Z" fill="url(#paint0_linear_7047_749)"/>
<defs>
<linearGradient id="paint0_linear_7047_749" x1="10" y1="1.76562" x2="10" y2="18.2326" gradientUnits="userSpaceOnUse">
<stop stop-color="#E817AD"/>
<stop offset="1" stop-color="#FF0088"/>
</linearGradient>
</defs>
</svg>
