<svg width="24" height="24" viewBox="0 0 24 24" fill="none" xmlns="http://www.w3.org/2000/svg">
<path fill-rule="evenodd" clip-rule="evenodd" d="M11.3809 13.4299C11.3809 13.1512 11.1549 12.9253 10.8762 12.9253H7.67831C6.65718 12.9253 5.82702 13.7535 5.82702 14.7765V17.8633C7.28287 18.0226 8.39856 19.3093 8.28854 20.8292C8.18828 22.2144 7.03382 23.3348 5.64639 23.3968C4.05485 23.4678 2.74219 22.1985 2.74219 20.6227C2.74219 19.4145 3.51582 18.3856 4.59347 18.0036V14.7765C4.59347 13.0728 5.9746 11.6917 7.67831 11.6917H16.0091C17.0322 11.6917 17.8604 10.8615 17.8604 9.84042V6.46137H17.5524C16.53 6.46137 15.7012 5.63252 15.7012 4.61009V2.45089C15.7012 1.42846 16.53 0.599609 17.5524 0.599609H19.4037C20.4262 0.599609 21.255 1.42846 21.255 2.45089V4.61009C21.255 5.63252 20.4262 6.46137 19.4037 6.46137H19.0958V17.914C20.4217 18.2151 21.3885 19.4678 21.2399 20.9159C21.1016 22.2639 19.9653 23.333 18.6117 23.3965C17.0173 23.4712 15.7012 22.2006 15.7012 20.6227C15.7012 19.3015 16.6249 18.1946 17.8604 17.914V13.1682C17.8604 12.8155 17.5043 12.5623 17.178 12.6961C16.8178 12.8438 16.4231 12.9253 16.0091 12.9253H13.121C12.8423 12.9253 12.6164 13.1512 12.6164 13.4299V17.914C13.9422 18.2151 14.909 19.4678 14.7604 20.9159C14.6221 22.2639 13.4858 23.333 12.1322 23.3965C10.5378 23.4712 9.22167 22.2006 9.22167 20.6227C9.22167 19.3015 10.1454 18.1946 11.3809 17.914V13.4299Z" fill="white"/>
</svg>
