<svg width="24" height="24" viewBox="0 0 24 24" fill="none" xmlns="http://www.w3.org/2000/svg">
<g clip-path="url(#clip0_7516_2444)">
<path d="M12 0C5.3832 0 0 5.3832 0 12C0 18.6168 5.3832 24 12 24C18.6168 24 24 18.6168 24 12C24 5.3832 18.6168 0 12 0ZM12 21.8182C6.58618 21.8182 2.18182 17.4137 2.18182 12C2.18182 6.58625 6.58618 2.18182 12 2.18182C17.4138 2.18182 21.8182 6.58625 21.8182 12C21.8182 17.4137 17.4137 21.8182 12 21.8182Z" fill="white" fill-opacity="0.88"/>
<path d="M11.9986 5.45508C8.38942 5.45508 5.45312 8.39137 5.45312 12.0005C5.45312 15.6097 8.38942 18.546 11.9986 18.546C15.6077 18.546 18.544 15.6097 18.544 12.0005C18.544 8.39137 15.6077 5.45508 11.9986 5.45508ZM11.9986 16.3642C9.59247 16.3642 7.63494 14.4066 7.63494 12.0005C7.63494 9.59442 9.59247 7.6369 11.9986 7.6369C14.4047 7.6369 16.3622 9.59442 16.3622 12.0005C16.3622 14.4066 14.4047 16.3642 11.9986 16.3642Z" fill="white" fill-opacity="0.88"/>
<path d="M11.9979 13.818C13.002 13.818 13.8161 13.004 13.8161 11.9998C13.8161 10.9957 13.002 10.1816 11.9979 10.1816C10.9937 10.1816 10.1797 10.9957 10.1797 11.9998C10.1797 13.004 10.9937 13.818 11.9979 13.818Z" fill="white" fill-opacity="0.88"/>
</g>
<defs>
<clipPath id="clip0_7516_2444">
<rect width="24" height="24" fill="white"/>
</clipPath>
</defs>
</svg>
