<svg width="16" height="16" viewBox="0 0 16 16" fill="none" xmlns="http://www.w3.org/2000/svg">
<path d="M13.2126 1.33335H11.336V1.01535C11.336 0.455345 10.8806 0 10.3213 0H5.68392C5.12457 0 4.66926 0.455345 4.66926 1.01535V1.33335H2.7926C1.98925 1.33335 1.33594 1.98669 1.33594 2.79001V10.5434C1.33591 11.3467 1.98925 12 2.7926 12H7.33595V13.3334H4.0026C3.63394 13.3334 3.33594 13.632 3.33594 14C3.33594 14.368 3.63394 14.6667 4.0026 14.6667H7.33595V15.3333C7.33595 15.7013 7.63395 16 8.00261 16C8.37126 16 8.66927 15.7013 8.66927 15.3333V14.6667H12.0026C12.3713 14.6667 12.6693 14.368 12.6693 14C12.6693 13.632 12.3713 13.3334 12.0026 13.3334H8.66927V12H13.2126C14.016 12 14.6693 11.3467 14.6693 10.5434V2.79001C14.6693 1.98666 14.016 1.33335 13.2126 1.33335ZM6.0026 1.33335H10.0026V2.66669H6.0026V1.33335ZM5.33595 7.33336C5.33595 5.8627 6.53195 4.6667 8.00261 4.6667C8.49595 4.6667 8.95195 4.81004 9.34861 5.0447L5.71395 8.67936C5.47926 8.28267 5.33595 7.82667 5.33595 7.33336ZM8.00261 10C7.50926 10 7.05326 9.85668 6.6566 9.62202L10.2913 5.98736C10.5259 6.38401 10.6693 6.84001 10.6693 7.33336C10.6693 8.80402 9.47327 10 8.00261 10Z" fill="url(#paint0_linear_7047_830)" fill-opacity="0.9"/>
<defs>
<linearGradient id="paint0_linear_7047_830" x1="9.23717" y1="-2.91067" x2="13.4275" y2="15.0208" gradientUnits="userSpaceOnUse">
<stop offset="0.168198" stop-color="#FF9DC8"/>
<stop offset="0.984375" stop-color="#EB2B7E"/>
</linearGradient>
</defs>
</svg>
