<svg width="24" height="24" viewBox="0 0 24 24" fill="none" xmlns="http://www.w3.org/2000/svg">
<path d="M11.9984 5.59961C7.89372 5.59961 4.31868 8.17769 2.39844 11.9997C4.31868 15.8224 7.89372 18.3998 11.9984 18.3998C16.1032 18.3998 19.6782 15.8224 21.5984 11.9997C19.6782 8.17769 16.1032 5.59961 11.9984 5.59961ZM11.9984 15.9998C9.789 15.9998 7.99836 14.2091 7.99836 11.9997C7.99836 9.79025 9.789 7.99961 11.9984 7.99961C14.2079 7.99961 15.9985 9.79025 15.9985 11.9997C15.9985 14.2091 14.2079 15.9998 11.9984 15.9998Z" fill="white"/>
<path d="M12.0016 14.3996C13.327 14.3996 14.4016 13.3251 14.4016 11.9996C14.4016 10.6741 13.327 9.59961 12.0016 9.59961C10.6761 9.59961 9.60156 10.6741 9.60156 11.9996C9.60156 13.3251 10.6761 14.3996 12.0016 14.3996Z" fill="white"/>
</svg>
