<svg width="32" height="32" viewBox="0 0 32 32" fill="none" xmlns="http://www.w3.org/2000/svg">
<path d="M21.543 24.8162C20.6022 25.405 19.5142 25.7154 18.407 25.709C17.5942 25.7058 16.791 25.5298 16.0518 25.1938C15.2678 25.517 14.4294 25.6834 13.5814 25.6898C12.471 25.6962 11.3862 25.3858 10.4454 24.797C10.1222 24.6082 9.82138 24.3778 9.55257 24.1122V28.8034C9.54618 29.6322 9.97177 30.4002 10.6758 30.8386C11.367 31.2674 12.2342 31.3186 12.9734 30.9698L15.7862 29.6226C15.9142 29.5458 16.0742 29.5458 16.2022 29.6226L19.015 30.9698C19.335 31.1202 19.687 31.197 20.0422 31.2002H20.0646C21.3798 31.1906 22.4422 30.1186 22.4358 28.8034V24.1314C22.1574 24.3842 21.8598 24.6146 21.543 24.8162ZM26.8806 9.65458C26.4966 9.20661 26.311 8.62419 26.3686 8.0386C26.5382 6.04817 25.2294 4.2338 23.2902 3.76341H23.2326C22.6726 3.62262 22.1862 3.26739 21.8822 2.77458C20.8486 1.037 18.6918 0.333015 16.8294 1.12341C16.295 1.35059 15.6934 1.35059 15.159 1.12341C13.2966 0.336219 11.1398 1.0402 10.103 2.77458C9.80218 3.26739 9.31577 3.62262 8.75577 3.76341H8.69817C6.75257 4.237 5.44378 6.06419 5.61978 8.05778C5.61978 8.13458 5.63897 8.1922 5.63897 8.26579C5.63577 8.77778 5.44698 9.27059 5.10778 9.65458C3.77657 11.1714 3.77657 13.437 5.10778 14.9538C5.48858 15.3954 5.67417 15.9714 5.61978 16.5506C5.44378 18.5634 6.78138 20.4002 8.75577 20.845C9.04698 20.9186 9.31897 21.053 9.55257 21.2418C9.77337 21.4018 9.96218 21.6002 10.103 21.8306C10.4326 22.3874 10.8966 22.8514 11.4534 23.181C12.567 23.8818 13.9526 23.9874 15.159 23.4658C15.6934 23.2386 16.295 23.2386 16.8294 23.4658C18.0326 24.0034 19.4214 23.9042 20.535 23.2002C21.0886 22.8578 21.5494 22.3906 21.8822 21.8306C22.2022 21.3474 22.6886 20.9954 23.2518 20.845C25.2166 20.3906 26.5446 18.5602 26.3686 16.5506C26.3142 15.9714 26.4998 15.3954 26.8806 14.9538C28.2214 13.4338 28.2342 11.1618 26.8806 9.65458ZM15.9942 19.837C11.8342 19.8306 8.46458 16.4546 8.47097 12.2946C8.47417 8.13458 11.8534 4.76501 16.0134 4.77137C20.167 4.77458 23.5302 8.14098 23.5366 12.2946C23.5334 16.4578 20.1574 19.8338 15.9942 19.837Z" fill="#8A21DD"/>
</svg>
