<svg width="24" height="24" viewBox="0 0 24 24" fill="none" xmlns="http://www.w3.org/2000/svg">
<g clip-path="url(#clip0_7761_4593)">
<path d="M5.77404 12.7713C5.98276 12.9801 6.26174 13.091 6.54567 13.091C6.68618 13.091 6.82792 13.0638 6.96283 13.0078C7.37046 12.839 7.63628 12.4412 7.63628 12V7.63639H22.9089C23.5114 7.63639 23.9998 7.14795 23.9998 6.54549C23.9998 5.94302 23.5114 5.45458 22.9089 5.45458H7.63628V1.09097C7.63628 0.649812 7.37054 0.251997 6.96283 0.0831249C6.5552 -0.0858195 6.08589 0.00756176 5.77404 0.31956L0.319525 5.77407C-0.106508 6.20011 -0.106508 6.89079 0.319525 7.31683L5.77404 12.7713Z" fill="white"/>
<path d="M18.2259 11.2286C17.9139 10.9165 17.4446 10.8232 17.037 10.9921C16.6294 11.161 16.3635 11.5588 16.3635 11.9999V16.3635H1.0909C0.488433 16.3635 0 16.852 0 17.4544C0 18.0569 0.488433 18.5454 1.0909 18.5454H16.3635V22.909C16.3635 23.3502 16.6293 23.748 17.037 23.9168C17.1719 23.9727 17.3137 23.9999 17.4541 23.9999C17.7381 23.9999 18.0171 23.8891 18.2258 23.6803L23.6803 18.2258C24.1063 17.7998 24.1063 17.1091 23.6803 16.683L18.2259 11.2286Z" fill="white"/>
</g>
<defs>
<clipPath id="clip0_7761_4593">
<rect width="24" height="24" fill="white"/>
</clipPath>
</defs>
</svg>
