<svg width="24" height="24" viewBox="0 0 24 24" fill="none" xmlns="http://www.w3.org/2000/svg">
<g clip-path="url(#clip0_7047_835)">
<path d="M4.99997 9C4.99997 6.79402 6.79397 5.00002 8.99995 5.00002C9.55294 5.00002 9.99994 4.55203 9.99994 4.00003C9.99994 3.44803 9.55298 3 9 3C5.691 3 3 5.691 3 9C3 9.552 3.447 9.99998 3.99998 9.99998C4.55297 9.99998 4.99997 9.552 4.99997 9Z" fill="white"/>
<path d="M9 6C7.34602 6 6 7.34602 6 9C6 9.552 6.447 9.99998 6.99998 9.99998C7.55297 9.99998 7.99997 9.552 7.99997 9C7.99997 8.44898 8.44795 8.00002 8.99995 8.00002C9.55294 8.00002 9.99994 7.55203 9.99994 7.00003C9.99994 6.44803 9.55298 6 9 6Z" fill="white"/>
<path d="M9 2.00002C9.55298 2.00002 9.99998 1.55203 9.99998 1.00003C9.99998 0.448031 9.55298 0 9 0C4.03702 0 0 4.038 0 9C0 9.552 0.447 9.99998 0.999984 9.99998C1.55297 9.99998 1.99997 9.552 1.99997 9C1.99997 5.13998 5.14097 2.00002 9 2.00002Z" fill="white"/>
<path d="M23.1496 7.89677L20.1656 4.91275C19.0756 3.82075 17.1696 3.82075 16.0796 4.91275L12.3886 8.60373C11.4826 9.50973 11.3176 10.8667 11.8676 11.9517L5.78859 18.0317C4.92858 18.8918 4.34761 19.9778 4.10859 21.1707C3.95358 21.9477 4.19461 22.7457 4.75561 23.3067C5.20359 23.7557 5.80561 24.0007 6.42661 24.0007C6.58059 24.0007 6.73659 23.9847 6.89259 23.9537C8.08458 23.7157 9.17058 23.1347 10.0316 22.2737L16.1096 16.1957C16.5106 16.4007 16.9516 16.5217 17.4156 16.5217C18.1866 16.5217 18.9126 16.2207 19.4586 15.6747L23.1495 11.9837C24.2766 10.8568 24.2766 9.02378 23.1496 7.89677ZM8.61759 20.8588C8.03658 21.4398 7.30458 21.8318 6.49959 21.9928C6.33759 22.0268 6.22261 21.9438 6.16959 21.8928C6.11761 21.8408 6.03661 21.7298 6.06961 21.5638C6.23062 20.7578 6.62259 20.0258 7.20262 19.4458L13.1726 13.4758L14.5876 14.8898L8.61759 20.8588ZM18.9966 10.0007C18.4446 10.0007 17.9966 9.55277 17.9966 9.00077C17.9966 8.44877 18.4446 8.00078 18.9966 8.00078C19.5486 8.00078 19.9966 8.44877 19.9966 9.00077C19.9966 9.55277 19.5486 10.0007 18.9966 10.0007Z" fill="white"/>
</g>
<defs>
<clipPath id="clip0_7047_835">
<rect width="24" height="24" fill="white"/>
</clipPath>
</defs>
</svg>
