<svg width="26" height="26" viewBox="0 0 26 26" fill="none" xmlns="http://www.w3.org/2000/svg">
<path d="M18.2016 12.9996C16.6418 12.9996 15.2461 13.6894 14.2932 14.777L10.9925 12.7456C11.1615 12.2817 11.2684 11.7883 11.2684 11.2662C11.2684 10.9251 11.2195 10.5969 11.1449 10.2777L15.5324 8.25305C16.1678 9.02837 17.1207 9.53277 18.2018 9.53277C20.1154 9.53277 21.6684 7.98057 21.6684 6.06619C21.6684 4.15181 20.1152 2.59961 18.2016 2.59961C16.2864 2.59961 14.735 4.15181 14.735 6.06619C14.735 6.27757 14.7612 6.48167 14.7966 6.68317L10.4143 8.70597C9.62468 7.63529 8.36602 6.93277 6.93498 6.93277C4.54142 6.93303 2.60156 8.87263 2.60156 11.2662C2.60156 13.6597 4.54142 15.5996 6.93498 15.5996C8.18064 15.5996 9.2963 15.0663 10.0867 14.2234L13.3825 16.2514C13.1386 16.8538 13.0016 17.5098 13.0016 18.1996C13.0016 21.0721 15.3291 23.3996 18.2016 23.3996C21.0725 23.3996 23.4016 21.0721 23.4016 18.1996C23.4016 15.3271 21.0725 12.9996 18.2016 12.9996Z" fill="#8A21DD"/>
</svg>
