<svg width="24" height="24" viewBox="0 0 24 24" fill="none" xmlns="http://www.w3.org/2000/svg">
<g clip-path="url(#clip0_7047_865)">
<path d="M23 16C23 13.794 21.206 12 19 12C16.794 12 15 13.794 15 16C14.448 16 14 16.448 14 17V23C14 23.552 14.448 24 15 24H23C23.553 24 24 23.552 24 23V17C24 16.448 23.553 16 23 16ZM19 14C20.103 14 21 14.897 21 16H17C17 14.897 17.897 14 19 14ZM22 22H16V18H18V19C18 19.552 18.448 20 19 20C19.552 20 20 19.552 20 19V18H22V22Z" fill="white"/>
<path d="M4.99998 12H7.99998C8.55297 12 8.99997 11.552 8.99997 11C8.99997 10.448 8.55297 10 7.99998 10H4.99998C4.447 10 4 10.448 4 11C4 11.552 4.44695 12 4.99998 12Z" fill="white"/>
<path d="M16 11C16 10.448 15.553 10 15 10H12C11.447 10 11 10.448 11 11C11 11.552 11.447 12 12 12H15C15.553 12 16 11.552 16 11Z" fill="white"/>
<path d="M11 15C11 14.448 10.553 14 10 14H4.99998C4.447 14 4 14.448 4 15C4 15.552 4.447 16 4.99998 16H10C10.553 16 11 15.552 11 15Z" fill="white"/>
<path d="M4.99998 18C4.447 18 4 18.448 4 19C4 19.552 4.447 20 4.99998 20H7.99998C8.55297 20 8.99997 19.552 8.99997 19C8.99997 18.448 8.55297 18 7.99998 18H4.99998Z" fill="white"/>
<path d="M23 0H0.999984C0.447 0 0 0.447984 0 0.999984V6.99998V23C0 23.552 0.447 24 0.999984 24H9.99998C10.553 24 11 23.552 11 23C11 22.448 10.553 22 9.99998 22H2.00002V8.00002H22V10C22 10.552 22.447 11 23 11C23.553 11 24 10.552 24 9.99998V6.99998V0.999984C24 0.447984 23.553 0 23 0ZM3.99998 5.00002C3.44798 5.00002 3 4.55198 3 3.99998C3 3.44798 3.44798 3 3.99998 3C4.55198 3 4.99997 3.44798 4.99997 3.99998C4.99997 4.55198 4.55198 5.00002 3.99998 5.00002ZM6.99998 5.00002C6.44798 5.00002 6 4.55203 6 4.00003C6 3.44803 6.44798 3 6.99998 3C7.55198 3 7.99997 3.44798 7.99997 3.99998C7.99997 4.55198 7.55198 5.00002 6.99998 5.00002ZM9.99998 5.00002C9.44798 5.00002 9 4.55203 9 4.00003C9 3.44803 9.44798 3 9.99998 3C10.552 3 11 3.44798 11 3.99998C11 4.55198 10.552 5.00002 9.99998 5.00002Z" fill="white"/>
</g>
<defs>
<clipPath id="clip0_7047_865">
<rect width="24" height="24" fill="white"/>
</clipPath>
</defs>
</svg>
