<svg width="26" height="26" viewBox="0 0 26 26" fill="none" xmlns="http://www.w3.org/2000/svg">
<path d="M9.47058 0.650391V5.94263C9.47058 6.90987 8.67297 7.7069 7.70573 7.7069H2.41406V23.5854C2.41406 24.5526 3.2088 25.3496 4.17604 25.3496H7.07629H10.6468H12.9985L12.9974 20.2038C12.2703 19.3741 11.8235 18.2938 11.8235 17.1169C11.8235 14.5395 13.9496 12.4128 16.5271 12.4128C19.1045 12.4128 21.2307 14.5395 21.2307 17.1169C21.2307 18.2938 20.7839 19.3741 20.0568 20.2038L20.0556 25.3496H21.8188C22.786 25.3496 23.5836 24.5526 23.5836 23.5854V2.41524C23.5836 1.448 22.786 0.650391 21.8188 0.650391H9.47058ZM8.29382 0.993826L2.75865 6.53072H7.70573C8.0417 6.53072 8.29382 6.27859 8.29382 5.94263V0.993826Z" fill="url(#paint0_linear_7047_715)"/>
<path d="M16.5294 13.5898C14.5876 13.5898 13 15.1753 13 17.1171C13 19.0589 14.5876 20.6465 16.5294 20.6465C18.4712 20.6465 20.0588 19.0589 20.0588 17.1171C20.0588 15.1753 18.4712 13.5898 16.5294 13.5898Z" fill="url(#paint1_linear_7047_715)"/>
<path d="M14.1719 21.1758V24.7606C14.1715 25.0854 14.4346 25.349 14.7594 25.3494C14.8754 25.3495 14.9889 25.3153 15.0856 25.2511L16.5248 24.292L17.964 25.2511C18.2345 25.4309 18.5996 25.3573 18.7794 25.0868C18.8437 24.9902 18.8779 24.8767 18.8777 24.7606V21.1758C18.183 21.5832 17.3801 21.8219 16.5248 21.8219C15.6695 21.8219 14.8666 21.5832 14.1719 21.1758Z" fill="url(#paint2_linear_7047_715)"/>
<defs>
<linearGradient id="paint0_linear_7047_715" x1="2.41406" y1="22.3167" x2="26.2298" y2="17.8765" gradientUnits="userSpaceOnUse">
<stop stop-color="#3AA0FF"/>
<stop offset="0.984375" stop-color="#53D0F7"/>
</linearGradient>
<linearGradient id="paint1_linear_7047_715" x1="13" y1="19.78" x2="20.8457" y2="18.0728" gradientUnits="userSpaceOnUse">
<stop stop-color="#3AA0FF"/>
<stop offset="0.984375" stop-color="#53D0F7"/>
</linearGradient>
<linearGradient id="paint2_linear_7047_715" x1="14.1719" y1="24.837" x2="19.3392" y2="23.5696" gradientUnits="userSpaceOnUse">
<stop stop-color="#3AA0FF"/>
<stop offset="0.984375" stop-color="#53D0F7"/>
</linearGradient>
</defs>
</svg>
