<svg width="20" height="20" viewBox="0 0 20 20" fill="none" xmlns="http://www.w3.org/2000/svg">
<g clip-path="url(#clip0_7047_755)">
<path fill-rule="evenodd" clip-rule="evenodd" d="M19.5 10C19.5 9.81999 19.428 9.64601 19.3 9.52L18.156 8.37801L18.776 6.88399C18.846 6.718 18.846 6.532 18.776 6.364C18.708 6.19801 18.576 6.06599 18.408 5.998L16.914 5.37999L16.916 3.76401C16.916 3.58201 16.844 3.41001 16.718 3.28199C16.59 3.156 16.418 3.084 16.236 3.084L14.62 3.08601L14.002 1.592C13.934 1.42401 13.802 1.29199 13.636 1.22401C13.468 1.154 13.282 1.154 13.116 1.22401L11.622 1.844L10.48 0.700015C10.354 0.572002 10.18 0.5 9.99999 0.5C9.81999 0.5 9.64599 0.572002 9.52 0.700015L8.378 1.844L6.88398 1.22401C6.71799 1.154 6.53196 1.154 6.36402 1.22401C6.19799 1.29199 6.06601 1.42401 5.998 1.592L5.37999 3.08601L3.76399 3.084C3.58197 3.084 3.41003 3.156 3.28198 3.28199C3.15599 3.41001 3.084 3.58201 3.084 3.76401L3.08599 5.37999L1.59197 5.998C1.42399 6.06599 1.29197 6.19801 1.224 6.364C1.154 6.532 1.154 6.718 1.224 6.88399L1.84399 8.37801L0.699997 9.52C0.571984 9.64601 0.5 9.81999 0.5 10C0.5 10.18 0.571984 10.354 0.699997 10.48L1.84399 11.622L1.224 13.116C1.154 13.282 1.154 13.468 1.224 13.636C1.29197 13.802 1.42399 13.934 1.59197 14.002L3.08599 14.62L3.084 16.236C3.084 16.418 3.15599 16.59 3.28198 16.718C3.41003 16.844 3.58197 16.916 3.76399 16.916L5.37999 16.914L5.998 18.408C6.06601 18.576 6.19799 18.708 6.36402 18.776C6.53196 18.846 6.71799 18.846 6.88398 18.776L8.378 18.156L9.52 19.3C9.64599 19.428 9.81999 19.5 9.99999 19.5C10.18 19.5 10.354 19.428 10.48 19.3L11.622 18.156L13.116 18.776C13.282 18.846 13.468 18.846 13.636 18.776C13.802 18.708 13.934 18.576 14.002 18.408L14.62 16.914L16.236 16.916C16.418 16.916 16.59 16.844 16.718 16.718C16.844 16.59 16.916 16.418 16.916 16.236L16.914 14.62L18.408 14.002C18.576 13.934 18.708 13.802 18.776 13.636C18.846 13.468 18.846 13.282 18.776 13.116L18.156 11.622L19.3 10.48C19.428 10.354 19.5 10.18 19.5 10ZM6.72324 10.7228C6.32571 10.3253 6.32571 9.67474 6.72324 9.27719C7.12077 8.87964 7.76834 8.87964 8.16884 9.27719L9.37956 10.4879L11.7378 7.34367C12.0751 6.89192 12.7166 6.80157 13.1683 7.13888C13.6201 7.47619 13.7104 8.11769 13.3731 8.56944L10.3072 12.6563C10.1295 12.8943 9.85543 13.0418 9.56029 13.0629C9.26515 13.084 8.976 12.9756 8.76519 12.7648L6.72324 10.7228Z" fill="url(#paint0_linear_7047_755)"/>
</g>
<defs>
<linearGradient id="paint0_linear_7047_755" x1="9.99999" y1="0.5" x2="9.99999" y2="19.5" gradientUnits="userSpaceOnUse">
<stop stop-color="#E817AD"/>
<stop offset="1" stop-color="#FF0088"/>
</linearGradient>
<clipPath id="clip0_7047_755">
<rect width="20" height="20" fill="white"/>
</clipPath>
</defs>
</svg>
