<svg width="32" height="32" viewBox="0 0 32 32" fill="none" xmlns="http://www.w3.org/2000/svg">
<g clip-path="url(#clip0_7501_9949)">
<path d="M28.3791 8.44721C27.8109 7.879 27.0533 7.31079 26.1062 6.93198L28.7579 4.28035C29.5155 3.52273 29.5155 2.38632 28.7579 1.62871C28.0003 0.871094 26.8639 0.871094 26.1062 1.62871L21.9394 5.60617C18.3407 4.84855 13.9845 4.65915 10.1964 5.60617L6.02954 1.4393C5.27193 0.681691 4.13551 0.681691 3.3779 1.4393C2.62029 2.19691 2.62029 3.33333 3.3779 4.09094L6.02954 6.74258C5.27193 7.31079 4.51432 7.6896 3.75671 8.44721C-0.0313495 12.2353 -0.410155 24.7359 3.94611 28.1451C8.87058 32.1226 23.2652 32.1226 28.1897 28.1451C32.3565 24.7359 31.9777 12.0459 28.3791 8.44721ZM9.24939 13.7505C9.24939 12.6141 10.007 11.8565 11.1434 11.8565C12.2798 11.8565 13.0374 12.6141 13.0374 13.7505C13.0374 14.8869 12.2798 15.6445 11.1434 15.6445C10.007 15.6445 9.24939 14.8869 9.24939 13.7505ZM18.9089 24.1676H13.2268C12.0904 24.1676 11.3328 23.41 11.3328 22.2736C11.3328 21.1372 12.0904 20.3796 13.2268 20.3796H18.9089C20.0454 20.3796 20.803 21.1372 20.803 22.2736C20.803 23.41 20.0454 24.1676 18.9089 24.1676ZM20.9924 15.6445C19.8559 15.6445 19.0983 14.8869 19.0983 13.7505C19.0983 12.6141 19.8559 11.8565 20.9924 11.8565C22.1288 11.8565 22.8864 12.6141 22.8864 13.7505C22.8864 14.8869 21.9394 15.6445 20.9924 15.6445Z" fill="#8A21DD"/>
</g>
<defs>
<clipPath id="clip0_7501_9949">
<rect width="32" height="32" fill="white"/>
</clipPath>
</defs>
</svg>
