<svg width="26" height="26" viewBox="0 0 26 26" fill="none" xmlns="http://www.w3.org/2000/svg">
<path d="M23.401 19.9344V18.201H21.9606C21.9005 18.0028 21.8225 17.8143 21.726 17.6355L22.7452 16.6165L21.5188 15.3909L20.4996 16.409C20.321 16.3126 20.1325 16.2348 19.9344 16.1748V14.7344H18.201V16.1748C18.0028 16.2348 17.8143 16.3126 17.6355 16.409L16.6165 15.3901L15.3909 16.6165L16.409 17.6355C16.3126 17.8143 16.2348 18.0028 16.1748 18.201H14.7344V19.9344H16.1748C16.2348 20.1325 16.3126 20.321 16.409 20.4996L15.3909 21.5188L16.6165 22.7442L17.6347 21.726C17.8141 21.8225 18.0028 21.9005 18.201 21.9606V23.401H19.9344V21.9606C20.1325 21.9005 20.321 21.8225 20.5007 21.726L21.5188 22.7442L22.7452 21.5188L21.726 20.4996C21.8225 20.3205 21.9005 20.1325 21.9606 19.9344H23.401ZM19.0675 20.3675C18.3499 20.3675 17.7675 19.7854 17.7675 19.0675C17.7675 18.3499 18.3499 17.7675 19.0675 17.7675C19.7854 17.7675 20.3675 18.3499 20.3675 19.0675C20.3675 19.7854 19.7854 20.3675 19.0675 20.3675Z" fill="#178EE8"/>
<path d="M23.4016 6.06619V4.33303C23.4016 3.37987 22.6213 2.59961 21.6681 2.59961H4.33498C3.38182 2.59961 2.60156 3.37987 2.60156 4.33303V6.06619H23.4016Z" fill="#178EE8"/>
<path d="M2.60156 7.80078V19.9342C2.60156 20.8871 3.38182 21.6674 4.33498 21.6674H13.435V19.0684C13.435 15.958 15.9562 13.4342 19.0681 13.4342H23.4016V7.80078H2.60156ZM4.33498 10.4008H10.4016V12.1342H4.33498V10.4008ZM6.06814 19.0674H4.33498V17.3342H6.06814V19.0674ZM11.2681 19.0674H7.80156V17.3342H11.2681V19.0674ZM13.0016 15.6008H6.06814V13.8674H13.0016V15.6008ZM16.4681 12.1342H12.135V10.4008H16.4681V12.1342Z" fill="#178EE8"/>
</svg>
