<svg width="26" height="26" viewBox="0 0 26 26" fill="none" xmlns="http://www.w3.org/2000/svg">
<g clip-path="url(#clip0_7513_2039)">
<path d="M17.0003 2.70669L12.6661 -0.00195312V1.6233H11.0408C4.75792 1.6233 -0.335938 6.71715 -0.335938 13C-0.335938 17.5657 2.35808 21.49 6.23722 23.3018L7.15191 21.3398C4.0116 19.8735 1.83117 16.6959 1.83117 13C1.83117 7.91496 5.95475 3.79008 11.0411 3.79008H12.6664V5.41565L17.0003 2.70669Z" fill="#8A21DD"/>
<path d="M19.0915 2.69727L18.1771 4.65927C21.3161 6.12557 23.4976 9.30325 23.4976 12.9991C23.4976 18.0851 19.3733 22.209 14.2876 22.209H12.6623V20.5835L8.32812 23.2924L12.6623 26.0011V24.3758H14.2876C20.5702 24.3758 25.6643 19.282 25.6643 12.9991C25.6643 8.43342 22.9706 4.50877 19.0915 2.69727Z" fill="#8A21DD"/>
<path d="M17.4844 12.4766L19.7019 10.9911L19.0599 9.43994L16.441 9.9584C16.2187 9.68211 15.972 9.43604 15.7015 9.21891L16.2197 6.60031L14.6676 5.95898L13.1821 8.1755C12.8372 8.13747 12.4884 8.13617 12.1361 8.1755L10.6506 5.95898L9.1001 6.60031L9.61758 9.21891C9.34128 9.44027 9.09587 9.68763 8.87809 9.9584L6.25916 9.44222L5.61719 10.993L7.83403 12.4775C7.79665 12.8234 7.796 13.1728 7.83403 13.5252L5.61719 15.0097L6.25916 16.5605L8.87776 16.042C9.1001 16.3183 9.34648 16.5644 9.61758 16.7815L9.09977 19.4004L10.6512 20.0437L12.1357 17.8249C12.4816 17.863 12.8307 17.863 13.183 17.8249L14.6685 20.0437L16.2193 19.4004L15.7012 16.7825C15.9775 16.5592 16.2236 16.3128 16.4413 16.042L19.0603 16.5605L19.7016 15.0097L17.4841 13.5252C17.5225 13.179 17.5238 12.8299 17.4844 12.4766ZM12.6594 14.6264C11.7619 14.6264 11.0341 13.8974 11.0341 13.0012C11.0341 12.1037 11.7619 11.3759 12.6594 11.3759C13.5562 11.3759 14.2846 12.1037 14.2846 13.0012C14.2846 13.8974 13.5565 14.6264 12.6594 14.6264Z" fill="#8A21DD"/>
</g>
<defs>
<clipPath id="clip0_7513_2039">
<rect width="26" height="26" fill="white"/>
</clipPath>
</defs>
</svg>
