<svg width="24" height="24" viewBox="0 0 24 24" fill="none" xmlns="http://www.w3.org/2000/svg">
<path d="M21.6115 11.1046C20.9849 11.1046 20.3584 11.4626 20.0899 11.9997H16.2083L15.4922 9.94107C15.4027 9.58305 15.0447 9.31454 14.6867 9.31454C14.2392 9.31454 13.9707 9.58305 13.7916 9.85157L12.2701 13.8793L11.1065 6.45041C11.017 6.09239 10.659 5.73438 10.301 5.73438C9.85346 5.73438 9.49545 6.00289 9.31644 6.3609L7.70536 11.9997H3.91321C3.6447 11.4626 3.01817 11.1046 2.39164 11.1046C1.4071 11.1046 0.601562 11.9102 0.601562 12.8947C0.601562 13.8793 1.4071 14.6848 2.39164 14.6848C3.01817 14.6848 3.6447 14.3268 3.91321 13.7897H8.4214C8.77941 13.7897 9.13743 13.5212 9.31644 13.1632L10.0325 10.7466L11.196 17.5489C11.2855 17.9069 11.554 18.265 12.0016 18.265H12.0911C12.4491 18.265 12.8071 17.9964 12.8966 17.7279L14.6867 12.8947L14.7762 13.1632C14.8657 13.5212 15.2237 13.7897 15.5817 13.7897H20.0899C20.3584 14.3268 20.9849 14.6848 21.6115 14.6848C22.596 14.6848 23.4016 13.8793 23.4016 12.8947C23.4016 11.9102 22.596 11.1046 21.6115 11.1046Z" fill="white"/>
</svg>
