<svg width="24" height="24" viewBox="0 0 24 24" fill="none" xmlns="http://www.w3.org/2000/svg">
<path fill-rule="evenodd" clip-rule="evenodd" d="M23.3977 19.1254C23.3977 20.7406 22.1617 21.9742 20.5465 21.9742C18.9337 21.9742 17.6977 20.7406 17.6977 19.1254C17.6977 17.8894 18.4585 16.8454 19.5985 16.4638V11.5054H16.7473C16.2721 11.5054 15.7969 11.0302 15.7969 10.555V2.97578C15.7969 2.50059 16.1785 2.02539 16.6537 2.02539H16.7473C17.2225 2.02539 17.6977 2.50059 17.6977 2.97578V9.60461H20.5465C21.0217 9.60461 21.4969 9.9838 21.4969 10.459V16.4638C22.6369 16.8454 23.3977 17.8894 23.3977 19.1254Z" fill="white"/>
<path fill-rule="evenodd" clip-rule="evenodd" d="M14.8538 19.1254C14.8538 20.7406 13.6202 21.9742 12.005 21.9742C10.3899 21.9742 9.15625 20.7406 9.15625 19.1254C9.15625 17.8894 9.91464 16.8454 11.0546 16.4638V2.97578C11.0546 2.50059 11.4338 2.02539 11.909 2.02539H12.005C12.4802 2.02539 12.9555 2.50059 12.9555 2.97578V16.4638C14.0955 16.8454 14.8538 17.8894 14.8538 19.1254Z" fill="white"/>
<path fill-rule="evenodd" clip-rule="evenodd" d="M8.20236 2.97578V10.555C8.20236 11.0302 7.72716 11.5054 7.25197 11.5054H4.40077V16.4638C5.54077 16.8454 6.30156 17.8894 6.30156 19.1254C6.30156 20.7406 5.06556 21.9742 3.45276 21.9742C1.83757 21.9742 0.601562 20.7406 0.601562 19.1254C0.601562 17.8894 1.36236 16.8454 2.50236 16.4638V10.555C2.50236 10.0798 2.97757 9.60461 3.45276 9.60461H6.30156V2.8798C6.39757 2.40461 6.77676 2.02539 7.25197 2.02539C7.72716 2.02539 8.20236 2.50059 8.20236 2.97578Z" fill="white"/>
</svg>
