<svg width="36" height="36" viewBox="0 0 36 36" fill="none" xmlns="http://www.w3.org/2000/svg">
<path d="M16.875 33C7.98375 33 0.75 25.7663 0.75 16.875C0.75 7.98375 7.98375 0.75 16.875 0.75C25.7663 0.75 33 7.98375 33 16.875C33 18.1087 32.859 19.3275 32.5815 20.4982C32.4863 20.901 32.0797 21.15 31.6792 21.0555C31.2765 20.9602 31.0268 20.556 31.1228 20.1525C31.3733 19.095 31.5 17.9925 31.5 16.875C31.5 8.811 24.939 2.25 16.875 2.25C8.811 2.25 2.25 8.811 2.25 16.875C2.25 24.939 8.811 31.5 16.875 31.5C17.9902 31.5 19.0928 31.3733 20.1525 31.1228C20.5545 31.026 20.9587 31.2773 21.0548 31.68C21.15 32.0835 20.9002 32.487 20.4967 32.5823C19.3253 32.859 18.1057 33 16.875 33Z" fill="#178EE8"/>
<path d="M16.875 29.25C10.0515 29.25 4.5 23.6985 4.5 16.875C4.5 10.0515 10.0515 4.5 16.875 4.5C23.6985 4.5 29.25 10.0515 29.25 16.875C29.25 17.6115 29.1855 18.3405 29.0573 19.0417C28.983 19.4497 28.5915 19.7168 28.1858 19.6455C27.7778 19.5712 27.5078 19.1805 27.582 18.7733C27.693 18.1605 27.75 17.5223 27.75 16.875C27.75 10.8787 22.8713 6 16.875 6C10.8787 6 6 10.8787 6 16.875C6 22.8713 10.8787 27.75 16.875 27.75C17.5215 27.75 18.1605 27.6938 18.7733 27.582C19.1813 27.5123 19.5705 27.7778 19.6448 28.1858C19.7198 28.593 19.449 28.9837 19.041 29.058C18.3398 29.1855 17.6123 29.25 16.875 29.25Z" fill="#178EE8"/>
<path d="M17.6531 16.3882C17.4844 16.3207 17.3269 16.2578 17.1911 16.1948C17.0524 16.131 16.8866 16.0635 16.7036 15.9907C15.6491 15.57 14.7761 15.1477 14.7761 14.235C14.7761 13.7415 15.1909 13.206 15.8074 12.903C16.2986 12.6608 17.6194 12.2355 19.2671 13.5082C19.5956 13.7617 20.0666 13.6995 20.3186 13.3732C20.5721 13.0447 20.5114 12.5745 20.1836 12.321C19.3751 11.697 18.4961 11.3152 17.6254 11.1862V9.75C17.6254 9.336 17.2901 9 16.8754 9C16.4606 9 16.1254 9.336 16.1254 9.75V11.2328C15.7894 11.3018 15.4594 11.4015 15.1451 11.556C14.0089 12.114 13.2754 13.1655 13.2754 14.2343C13.2754 16.2382 15.1436 16.9837 16.1471 17.3835C16.3024 17.445 16.4434 17.5005 16.5596 17.5553C16.7179 17.6287 16.8994 17.7015 17.0951 17.7803C18.1961 18.222 18.9754 18.6053 18.9754 19.515C18.9754 20.0085 18.5606 20.544 17.9441 20.847C17.4529 21.0885 16.1321 21.5145 14.4844 20.2418C14.1544 19.9868 13.6849 20.0498 13.4329 20.3768C13.1794 20.7053 13.2401 21.1755 13.5679 21.429C14.3764 22.0538 15.2546 22.4242 16.1261 22.5525V24C16.1261 24.414 16.4614 24.75 16.8761 24.75C17.2909 24.75 17.6261 24.414 17.6261 24V22.524C17.9629 22.455 18.2921 22.3477 18.6064 22.1932C19.7426 21.6353 20.4761 20.5838 20.4761 19.515C20.4761 17.52 18.7091 16.8112 17.6531 16.3882Z" fill="#178EE8"/>
<path d="M34.8114 33.7509L33.7509 34.8114C33.1659 35.3964 32.2149 35.3964 31.6299 34.8114L29.9079 33.0894L29.4107 33.6766C29.0499 34.0989 28.4867 34.2931 27.9414 34.1716C27.3962 34.0509 26.9657 33.6414 26.8187 33.1021L25.1529 26.9934C25.0097 26.4676 25.1537 25.9231 25.5392 25.5384C25.9247 25.1536 26.4692 25.0089 26.9942 25.1521L33.1029 26.8179C33.6422 26.9641 34.0517 27.3954 34.1724 27.9406C34.2932 28.4859 34.1072 29.0454 33.6774 29.4099L33.0902 29.9071L34.8122 31.6291C35.3972 32.2141 35.3972 33.1659 34.8122 33.7501L34.8114 33.7509ZM29.3312 31.4529C29.4639 31.3201 29.6417 31.2414 29.8299 31.2339C30.0399 31.2249 30.2432 31.3044 30.3917 31.4529L32.6897 33.7509L33.7502 32.6904L31.4522 30.3924C31.3037 30.2439 31.2249 30.0406 31.2332 29.8306C31.2414 29.6214 31.3389 29.4226 31.4979 29.2891L32.7077 28.2661L26.5989 26.6004L28.2647 32.7091L29.2877 31.4994C29.3012 31.4836 29.3154 31.4679 29.3297 31.4536L29.3312 31.4529Z" fill="#178EE8"/>
<path d="M30.8689 23.4435L30.0731 24.2392C29.7799 24.5325 29.3051 24.5317 29.0126 24.2392C28.7201 23.9467 28.7194 23.472 29.0126 23.1787L29.8084 22.383C30.1016 22.0897 30.5764 22.0905 30.8689 22.383C31.1614 22.6755 31.1621 23.1502 30.8689 23.4435Z" fill="#178EE8"/>
<path d="M24.239 30.0726L23.4432 30.8684C23.15 31.1616 22.6752 31.1609 22.3827 30.8684C22.0902 30.5759 22.0895 30.1011 22.3827 29.8079L23.1785 29.0121C23.4717 28.7189 23.9465 28.7196 24.239 29.0121C24.5315 29.3046 24.5322 29.7794 24.239 30.0726Z" fill="#178EE8"/>
<path d="M23.4432 22.383L24.239 23.1787C24.5322 23.472 24.5315 23.9467 24.239 24.2392C23.9465 24.5317 23.4717 24.5325 23.1785 24.2392L22.3827 23.4435C22.0895 23.1502 22.0902 22.6755 22.3827 22.383C22.6752 22.0905 23.15 22.0897 23.4432 22.383Z" fill="#178EE8"/>
<path d="M21.376 25.8757H22.501C22.9157 25.8757 23.251 26.2117 23.251 26.6257C23.251 27.0397 22.9157 27.3757 22.501 27.3757H21.376C20.9612 27.3757 20.626 27.0397 20.626 26.6257C20.626 26.2117 20.9612 25.8757 21.376 25.8757Z" fill="#178EE8"/>
<path d="M27.376 21.3757V22.5007C27.376 22.9155 27.04 23.2507 26.626 23.2507C26.212 23.2507 25.876 22.9155 25.876 22.5007V21.3757C25.876 20.961 26.212 20.6257 26.626 20.6257C27.04 20.6257 27.376 20.961 27.376 21.3757Z" fill="#178EE8"/>
</svg>
