<svg width="32" height="32" viewBox="0 0 32 32" fill="none" xmlns="http://www.w3.org/2000/svg">
<path d="M20.8706 14.0157C20.8706 17.0557 18.4034 19.5229 15.3666 19.5229C12.3266 19.5229 9.85938 17.0557 9.85938 14.0157C9.85938 10.9789 12.3266 8.51172 15.3666 8.51172C18.4034 8.51172 20.8706 10.9789 20.8706 14.0157Z" fill="#8A21DD"/>
<path d="M3.45237 31.2008H28.5503C30.056 31.2008 31.1594 29.7641 30.7476 28.3158C30.1516 26.22 28.8698 23.4544 26.1218 21.6982C27.6665 19.5383 28.5805 16.8971 28.5853 14.0406C28.5974 6.75256 22.6549 0.800448 15.3668 0.800781C8.0665 0.801115 2.14866 6.71916 2.14866 14.0181C2.14866 16.9602 3.11077 19.6763 4.73598 21.8718C3.69503 22.8694 1.8796 25.0344 1.21402 28.4834C0.942337 29.8912 2.01855 31.2008 3.45237 31.2008ZM15.3675 3.70239C21.0631 3.70239 25.6812 8.32048 25.6812 14.0176C25.6812 19.7143 21.0631 24.3328 15.3675 24.3328C9.66886 24.3328 5.05076 19.7143 5.05076 14.0176C5.05076 8.32098 9.66886 3.70239 15.3675 3.70239Z" fill="#8A21DD"/>
</svg>
