<svg width="26" height="26" viewBox="0 0 26 26" fill="none" xmlns="http://www.w3.org/2000/svg">
<path d="M21.6679 4.33303H21.2347L20.8013 6.93277H19.9347V2.59961H18.2013V4.33303H16.9013L16.4679 6.93277H15.601V2.59961H13.8679V4.33303H12.5679L12.1347 6.93277H11.2684V2.59961H9.53472V4.33303H8.23498L7.8013 6.93277H6.93498V2.59961H5.20156V4.33303H4.33498C3.3813 4.33303 2.60156 5.11303 2.60156 6.06619V21.6664C2.60156 22.6193 3.3813 23.3996 4.33498 23.3996H21.6679C22.6208 23.3996 23.4016 22.6193 23.4016 21.6664V6.06619C23.4016 5.11303 22.6208 4.33303 21.6679 4.33303ZM7.36814 20.3664H5.20156V18.1999H7.36814V20.3664ZM7.36814 16.0328H5.20156V13.8662H7.36814V16.0328ZM7.36814 11.6996H5.20156V9.53277H7.36814V11.6996ZM11.2684 20.3664H9.1013V18.1999H11.2684V20.3664ZM11.2684 16.0328H9.1013V13.8662H11.2684V16.0328ZM11.2684 11.6996H9.1013V9.53277H11.2684V11.6996ZM13.0013 9.53277H15.1679V11.6996H13.0013V9.53277ZM18.8393 21.0502C18.726 21.3888 18.3417 21.6664 17.9847 21.6664H17.5513C17.1925 21.6664 16.8085 21.3888 16.6949 21.0502L16.4679 20.3664H19.0679L18.8393 21.0502ZM21.6679 19.0664H13.8679V18.1999C14.6718 17.3146 15.1679 16.0879 15.1679 14.733C15.1679 13.2968 16.3324 12.133 17.7681 12.133C19.2036 12.133 20.3679 13.2968 20.3679 14.733C20.3679 16.0879 20.864 17.3146 21.6679 18.1999V19.0664Z" fill="#178EE8"/>
</svg>
