<svg width="32" height="32" viewBox="0 0 32 32" fill="none" xmlns="http://www.w3.org/2000/svg">
<path d="M15.9993 22.065C21.8602 22.065 26.6314 17.2938 26.6314 11.4329C26.6314 5.5719 21.8602 0.800781 15.9993 0.800781C10.1384 0.800781 5.36719 5.5719 5.36719 11.4329C5.36719 17.2938 10.1384 22.065 15.9993 22.065ZM11.8401 9.96379L14.416 12.3429L20.0686 6.45782L22.6444 8.92636L14.5591 17.3515L9.40736 12.5755L11.8401 9.96379Z" fill="#8A21DD"/>
<path d="M9.35156 22.9414V31.2001L15.9966 27.8775L22.6417 31.2001V22.9414C20.6881 24.0711 18.4154 24.7223 15.9966 24.7223C13.5778 24.7223 11.3052 24.0711 9.35156 22.9414Z" fill="#8A21DD"/>
</svg>
