<svg width="24" height="24" viewBox="0 0 24 24" fill="none" xmlns="http://www.w3.org/2000/svg">
<g clip-path="url(#clip0_7496_8613)">
<path d="M14.9625 17.1719C14.9625 14.5309 16.9332 12.342 19.4812 11.9975V5.22188C19.4812 4.89923 19.2616 4.61798 18.9486 4.53975C13.2093 3.10491 10.2659 0.233813 10.2368 0.204984C10.0995 0.0687188 9.92025 0 9.74063 0C9.561 0 9.38175 0.0687188 9.24441 0.204984C9.21534 0.233813 6.27192 3.10491 0.532594 4.53975C0.219609 4.61798 0 4.89923 0 5.22188V12.7531C0 15.3337 0.643687 17.8303 2.74772 19.9343C4.3898 21.5764 6.62006 22.7245 9.46359 23.9431C9.55205 23.9811 9.64631 24 9.74063 24C9.83494 24 9.92911 23.9811 10.0176 23.9431C12.0022 23.0926 13.6877 22.2762 15.0833 21.3024C15.0044 20.9421 14.9625 20.568 14.9625 20.1844V17.1719H14.9625ZM9.48469 14.7566C9.34739 14.8939 9.16744 14.9625 8.98753 14.9625C8.80762 14.9625 8.62763 14.8939 8.49038 14.7566L5.85445 12.1207C5.57986 11.8461 5.57986 11.4009 5.85445 11.1263C6.129 10.8517 6.57422 10.8517 6.84881 11.1263L8.98758 13.265L14.1389 8.11378C14.4134 7.83919 14.8586 7.83919 15.1332 8.11378C15.4078 8.38837 15.4078 8.83355 15.1332 9.10814L9.48469 14.7566Z" fill="white"/>
<path d="M20.1828 13.3555C18.0788 13.3555 16.3672 15.0672 16.3672 17.1711V20.1836C16.3672 22.2875 18.0789 23.9992 20.1828 23.9992C22.2868 23.9992 23.9984 22.2875 23.9984 20.1836V17.1711C23.9984 15.0672 22.2867 13.3555 20.1828 13.3555ZM20.0381 21.8404C19.8733 22.125 19.4623 22.3195 19.0773 22.0965C18.3964 21.7022 17.9734 20.9692 17.9734 20.1836C17.9734 19.7953 18.2882 19.4805 18.6765 19.4805C19.0648 19.4805 19.3797 19.7953 19.3797 20.1836C19.3797 20.4692 19.5338 20.7358 19.782 20.8796C20.118 21.0742 20.2327 21.5044 20.0381 21.8404ZM22.3921 20.1836C22.3921 20.5719 22.0773 20.8867 21.689 20.8867C21.3007 20.8867 20.9859 20.5719 20.9859 20.1836V17.1711C20.9859 16.7283 20.6255 16.368 20.1827 16.368C19.7399 16.368 19.3796 16.7283 19.3796 17.1711C19.3796 17.5594 19.0648 17.8742 18.6765 17.8742C18.2882 17.8742 17.9734 17.5594 17.9734 17.1711C17.9734 15.9529 18.9645 14.9617 20.1827 14.9617C21.401 14.9617 22.3921 15.9529 22.3921 17.1711V20.1836Z" fill="white"/>
</g>
<defs>
<clipPath id="clip0_7496_8613">
<rect width="24" height="24" fill="white"/>
</clipPath>
</defs>
</svg>
