<svg width="26" height="26" viewBox="0 0 26 26" fill="none" xmlns="http://www.w3.org/2000/svg">
<g clip-path="url(#clip0_7047_881)">
<path d="M14.0807 11.916C12.8858 11.916 11.9141 12.8878 11.9141 14.0827C11.9141 15.2776 12.8859 16.2493 14.0807 16.2493C15.2757 16.2493 16.2474 15.2776 16.2474 14.0826C16.2474 12.8877 15.2757 11.916 14.0807 11.916Z" fill="#FF0088"/>
<path d="M21.4636 2.16668H18.4141V1.64993C18.4141 0.739934 17.6741 0 16.7652 0H9.22956C8.32063 0 7.58075 0.739934 7.58075 1.64993V2.16668H4.53113C3.2257 2.16668 2.16406 3.22837 2.16406 4.53375V23.6329C2.16406 24.9383 3.2257 26 4.53113 26H21.4636C22.7691 26 23.8307 24.9383 23.8307 23.6329V4.53375C23.8307 3.22832 22.7691 2.16668 21.4636 2.16668ZM9.74738 2.16668H16.2474V4.33337H9.74738V2.16668ZM20.2633 20.2659C20.0521 20.4772 19.7747 20.5834 19.4974 20.5834C19.2201 20.5834 18.9427 20.4772 18.7314 20.2659L16.5648 18.0992C16.4651 17.9996 16.3936 17.8848 16.3416 17.7634C15.6808 18.1697 14.9116 18.4167 14.0806 18.4167C12.4838 18.4167 11.1015 17.5392 10.3496 16.25H7.58064C6.98163 16.25 6.49738 15.7647 6.49738 15.1667C6.49738 14.5687 6.98163 14.0834 7.5807 14.0834H9.74738C9.74738 13.2904 9.97706 12.5569 10.3497 11.9167H7.5807C6.98163 11.9167 6.49738 11.4314 6.49738 10.8334C6.49738 10.2354 6.98163 9.75 7.5807 9.75H14.0807C16.4705 9.75 18.414 11.6935 18.414 14.0833C18.414 14.9143 18.167 15.6834 17.7608 16.3442C17.8821 16.3962 17.9969 16.4678 18.0966 16.5674L20.2633 18.7341C20.6869 19.1577 20.6869 19.8423 20.2633 20.2659Z" fill="#FF0088"/>
</g>
<defs>
<clipPath id="clip0_7047_881">
<rect width="26" height="26" fill="white"/>
</clipPath>
</defs>
</svg>
