<svg width="28" height="28" viewBox="0 0 28 28" fill="none" xmlns="http://www.w3.org/2000/svg">
<g clip-path="url(#clip0_7761_3434)">
<path d="M17.5473 16.5776C17.6497 12.4991 23.3352 11.9359 24.267 15.8636C31.1512 11.0353 27.7653 0.0273984 19.2463 0H8.70251C-2.86357 0.44018 -2.85477 17.0202 8.70251 17.4563H17.5473V16.5776ZM18.8653 6.09219C18.8692 5.25946 19.9715 4.96185 20.3942 5.67886L21.9405 8.32978V6.09219C21.9809 5.00495 23.5412 5.00577 23.5812 6.09219V11.3641C23.5812 11.7346 23.3327 12.0592 22.975 12.1559C22.4532 12.2969 22.1346 11.9185 22.0523 11.7774L20.5059 9.12641V11.3641C20.4656 12.4513 18.9053 12.4505 18.8653 11.3641V6.09219ZM8.20485 9.82641C8.08629 12.9503 3.60694 12.9492 3.48898 9.82729C3.48898 9.37426 3.85626 9.00703 4.3093 9.00703C4.76233 9.00703 5.12961 9.37431 5.12961 9.82734C5.12961 10.2224 5.45101 10.5437 5.84607 10.5437C6.2425 10.5437 6.56428 10.222 6.56428 9.82641V6.9125H6.06662C4.97938 6.87214 4.9802 5.31185 6.06662 5.27187H7.38459C7.83762 5.27187 8.20491 5.63916 8.20491 6.09219V9.82641H8.20485ZM14.3554 9.82641C14.2364 12.951 9.75732 12.9487 9.63952 9.82641V7.62978C9.75847 4.50516 14.2376 4.50751 14.3554 7.62978V9.82641ZM17.4306 11.3641C17.3903 12.4513 15.83 12.4505 15.79 11.3641V6.09219C15.8304 5.00495 17.3907 5.00577 17.4306 6.09219V11.3641Z" fill="white"/>
<path d="M11.9986 6.91248C11.6031 6.91248 11.2812 7.23426 11.2812 7.62981V9.82644C11.3175 10.777 12.68 10.7763 12.7159 9.82644V7.62981C12.7159 7.23426 12.3941 6.91248 11.9986 6.91248Z" fill="white"/>
<path d="M26.2144 20.0922H22.6997V16.5776C22.6124 14.2483 19.2713 14.2508 19.1851 16.5776V22.7281L18.0996 22.0046C17.1981 21.4036 15.9975 21.5227 15.2312 22.2888C14.7455 22.7746 14.7462 23.5611 15.2312 24.0461L18.9715 27.7863C19.1083 27.9232 19.2939 28 19.4873 28H26.2143C27.1846 28 27.9716 27.2124 27.9716 26.2427V21.8495C27.9716 20.8792 27.184 20.0922 26.2144 20.0922Z" fill="white"/>
</g>
<defs>
<clipPath id="clip0_7761_3434">
<rect width="28" height="28" fill="white"/>
</clipPath>
</defs>
</svg>
