<svg width="16" height="16" viewBox="0 0 16 16" fill="none" xmlns="http://www.w3.org/2000/svg">
<g clip-path="url(#clip0_7514_2272)">
<path d="M12.5971 3.31021L13.6013 2.30605C13.7843 2.12299 13.7843 1.82621 13.6013 1.64314C13.4182 1.46008 13.1214 1.46011 12.9384 1.64314L11.9342 2.6473C11.7511 2.83033 11.7511 3.12714 11.9342 3.31021C12.1172 3.49324 12.414 3.4933 12.5971 3.31021Z" fill="#178EE8"/>
<path d="M14.7776 5.52344H13.7734C13.5146 5.52344 13.3047 5.73331 13.3047 5.99219C13.3047 6.25106 13.5146 6.46094 13.7734 6.46094H14.7776C15.0365 6.46094 15.2464 6.25106 15.2464 5.99219C15.2464 5.73331 15.0365 5.52344 14.7776 5.52344Z" fill="#178EE8"/>
<path d="M9.25 1.94166C9.50888 1.94166 9.71875 1.73178 9.71875 1.47291V0.46875C9.71875 0.209875 9.50888 0 9.25 0C8.99112 0 8.78125 0.209875 8.78125 0.46875V1.47291C8.78125 1.73178 8.99112 1.94166 9.25 1.94166Z" fill="#178EE8"/>
<path d="M0.887238 11.6858C0.704332 11.8687 0.704176 12.1657 0.887238 12.3487L2.89558 14.3571C3.07858 14.5401 3.37539 14.5402 3.55849 14.3571L4.34399 13.5716L1.67277 10.9004L0.887238 11.6858Z" fill="#178EE8"/>
<path d="M9.00241 12.0645L5.71094 13.6134L7.96103 15.8635C8.14403 16.0465 8.44088 16.0466 8.62394 15.8635L10.3812 14.1062C10.5643 13.9231 10.5643 13.6264 10.3812 13.4433L9.00241 12.0645Z" fill="#178EE8"/>
<path d="M7.07337 1.64315C6.96544 1.53521 6.81169 1.48662 6.66131 1.51284C6.51094 1.53909 6.38278 1.6369 6.31778 1.77502L2.33594 10.2364L5.00716 12.9076L13.4686 8.92581C13.6067 8.86081 13.7045 8.73262 13.7308 8.58224C13.757 8.43187 13.7084 8.27815 13.6004 8.17021L7.07337 1.64315Z" fill="#178EE8"/>
</g>
<defs>
<clipPath id="clip0_7514_2272">
<rect width="16" height="16" fill="white"/>
</clipPath>
</defs>
</svg>
