<svg width="24" height="24" viewBox="0 0 24 24" fill="none" xmlns="http://www.w3.org/2000/svg">
<g clip-path="url(#clip0_7047_844)">
<path d="M23.923 0.618C23.822 0.372984 23.627 0.177984 23.382 0.0770156C23.26 0.027 23.13 0 23 0H17C16.448 0 16 0.447 16 0.999984C16 1.55297 16.448 1.99997 17 1.99997H20.586L12.586 9.99998H0V24H14V11.414L22 3.414V6.99998C22 7.55297 22.448 7.99997 23 7.99997C23.552 7.99997 24 7.55302 24 6.99998V0.999984C24 0.87 23.974 0.740016 23.923 0.618Z" fill="white"/>
</g>
<defs>
<clipPath id="clip0_7047_844">
<rect width="24" height="24" fill="white"/>
</clipPath>
</defs>
</svg>
