<svg width="24" height="24" viewBox="0 0 24 24" fill="none" xmlns="http://www.w3.org/2000/svg">
<g clip-path="url(#clip0_7518_2032)">
<path d="M14.1194 3.35955L10.9889 0.229103C10.7647 0.00518135 10.4285 -0.0612873 10.136 0.0594156C9.84348 0.1804 9.65294 0.465727 9.65294 0.782367V1.82941C5.92062 2.68441 3.04587 5.4737 2 9.02837L2.25383 8.77454C2.69708 8.33101 3.28662 8.0867 3.91381 8.0867C4.54099 8.0867 5.13049 8.33101 5.57379 8.77454L6.67076 9.87151C7.21713 8.49952 8.27819 7.37415 9.65294 6.75943V7.04321C9.65294 7.35986 9.84348 7.64518 10.136 7.76617C10.428 7.88767 10.7647 7.82068 10.9889 7.59648L14.1194 4.46603C14.425 4.16069 14.425 3.66494 14.1194 3.35955Z" fill="#FF0088"/>
<path d="M23.937 10.1351C23.8158 9.84265 23.5305 9.65206 23.2141 9.65206H22.167C21.3124 5.91945 18.523 3.0448 14.968 1.99902L15.2219 2.2529C15.6652 2.69568 15.9097 3.28546 15.9097 3.91293C15.9097 4.54035 15.6651 5.13013 15.2214 5.57342L14.125 6.66978C15.4971 7.21615 16.6224 8.27712 17.237 9.65206H16.9532C16.6368 9.65206 16.3515 9.8426 16.2302 10.1351C16.109 10.4276 16.1762 10.7643 16.3999 10.988L19.5304 14.1185C19.6832 14.2713 19.8835 14.3478 20.0837 14.3478C20.2839 14.3478 20.4842 14.2713 20.637 14.1185L23.7675 10.988C23.9911 10.7643 24.0584 10.4276 23.937 10.1351Z" fill="#FF0088"/>
<path d="M21.7432 15.2249C21.2999 15.6684 20.7104 15.9127 20.0832 15.9127C19.456 15.9127 18.8665 15.6684 18.4232 15.2249L17.3263 14.1279C16.7799 15.4999 15.7189 16.6253 14.3441 17.24V16.9562C14.3441 16.6396 14.1536 16.3543 13.8611 16.2333C13.5697 16.112 13.2323 16.1788 13.0081 16.403L9.87769 19.5334C9.57202 19.8388 9.57202 20.3346 9.87769 20.6401L13.0081 23.7705C13.158 23.9203 13.3582 23.9998 13.5614 23.9998C13.6624 23.9998 13.7642 23.9805 13.861 23.9402C14.1535 23.8192 14.3441 23.5339 14.3441 23.2173V22.1701C18.0764 21.3152 20.9511 18.5258 21.997 14.9712L21.7432 15.2249Z" fill="#FF0088"/>
<path d="M8.08697 20.0872C8.08697 19.4598 8.33156 18.87 8.77528 18.4267L9.87168 17.3303C8.49961 16.7839 7.37424 15.723 6.75966 14.348H7.04349C7.35989 14.348 7.64522 14.1575 7.76644 13.865C7.8877 13.5725 7.82044 13.2357 7.59675 13.012L4.4663 9.8816C4.16063 9.57593 3.66535 9.57593 3.35963 9.8816L0.22928 13.0121C0.00559333 13.2358 -0.0616253 13.5726 0.0595932 13.8651C0.180859 14.1576 0.466186 14.3481 0.782545 14.3481H1.82959C2.68421 18.0808 5.47365 20.9554 9.02864 22.0012L8.77481 21.7472C8.33156 21.3044 8.08697 20.7146 8.08697 20.0872Z" fill="#FF0088"/>
</g>
<defs>
<clipPath id="clip0_7518_2032">
<rect width="24" height="24" fill="white"/>
</clipPath>
</defs>
</svg>
