<svg width="26" height="26" viewBox="0 0 26 26" fill="none" xmlns="http://www.w3.org/2000/svg">
<path d="M12.0692 7.67734C11.6886 6.91438 10.7616 6.60437 9.99868 6.9849C9.75732 7.10528 9.55171 7.2868 9.40233 7.51138L6.77409 11.4557H3.61999C3.26032 11.4557 2.96875 11.7472 2.96875 12.1069V13.8919C2.96875 14.2516 3.26032 14.5432 3.61999 14.5432H7.6C8.11632 14.5435 8.59862 14.2857 8.88517 13.8562L10.4945 11.4557L13.9371 18.3369C14.1867 18.8242 14.6757 19.1429 15.2223 19.1744H15.3187C15.8351 19.1747 16.3174 18.9169 16.6039 18.4874L19.2322 14.5432H22.3863C22.7459 14.5432 23.0375 14.2516 23.0375 13.8919V12.1069C23.0375 11.7472 22.7459 11.4557 22.3863 11.4557H18.4062C17.8899 11.4553 17.4076 11.7131 17.1211 12.1426L15.5117 14.5432L12.0692 7.67734Z" fill="url(#paint0_linear_7047_731)"/>
<path d="M1.42188 3.73789V8.36914H4.50937V3.73789H8.48939C8.84906 3.73789 9.14062 3.44632 9.14062 3.08665V1.30163C9.14062 0.941959 8.84906 0.650391 8.48939 0.650391H4.50937C2.8042 0.650391 1.42188 2.03271 1.42188 3.73789Z" fill="url(#paint1_linear_7047_731)"/>
<path d="M24.5781 8.36914V3.73789C24.5781 2.03271 23.1958 0.650391 21.4906 0.650391H17.5106C17.1509 0.650391 16.8594 0.941959 16.8594 1.30163V3.08665C16.8594 3.44632 17.1509 3.73789 17.5106 3.73789H21.4906V8.36914H24.5781Z" fill="url(#paint2_linear_7047_731)"/>
<path d="M21.4906 22.2621H17.5106C17.1509 22.2621 16.8594 22.5537 16.8594 22.9133V24.6984C16.8594 25.058 17.1509 25.3496 17.5106 25.3496H21.4906C23.1958 25.3496 24.5781 23.9673 24.5781 22.2621V18.2821C24.5781 17.9224 24.2866 17.6309 23.9269 17.6309H22.1419C21.7822 17.6309 21.4906 17.9224 21.4906 18.2821V22.2621Z" fill="url(#paint3_linear_7047_731)"/>
<path d="M1.42188 22.2621C1.42188 23.9673 2.8042 25.3496 4.50937 25.3496H8.48939C8.84906 25.3496 9.14062 25.058 9.14062 24.6984V22.9133C9.14062 22.5537 8.84906 22.2621 8.48939 22.2621H4.50937V18.2821C4.50937 17.9224 4.21781 17.6309 3.85814 17.6309H2.07311C1.71344 17.6309 1.42188 17.9224 1.42188 18.2821V22.2621Z" fill="url(#paint4_linear_7047_731)"/>
<defs>
<linearGradient id="paint0_linear_7047_731" x1="2.96875" y1="17.6577" x2="23.7368" y2="10.3178" gradientUnits="userSpaceOnUse">
<stop stop-color="#3AA0FF"/>
<stop offset="0.984375" stop-color="#53D0F7"/>
</linearGradient>
<linearGradient id="paint1_linear_7047_731" x1="1.42188" y1="7.42133" x2="10.0014" y2="5.55506" gradientUnits="userSpaceOnUse">
<stop stop-color="#3AA0FF"/>
<stop offset="0.984375" stop-color="#53D0F7"/>
</linearGradient>
<linearGradient id="paint2_linear_7047_731" x1="16.8594" y1="7.42133" x2="25.4389" y2="5.55506" gradientUnits="userSpaceOnUse">
<stop stop-color="#3AA0FF"/>
<stop offset="0.984375" stop-color="#53D0F7"/>
</linearGradient>
<linearGradient id="paint3_linear_7047_731" x1="16.8594" y1="24.4018" x2="25.4389" y2="22.5355" gradientUnits="userSpaceOnUse">
<stop stop-color="#3AA0FF"/>
<stop offset="0.984375" stop-color="#53D0F7"/>
</linearGradient>
<linearGradient id="paint4_linear_7047_731" x1="1.42188" y1="24.4018" x2="10.0014" y2="22.5355" gradientUnits="userSpaceOnUse">
<stop stop-color="#3AA0FF"/>
<stop offset="0.984375" stop-color="#53D0F7"/>
</linearGradient>
</defs>
</svg>
