<svg width="24" height="24" viewBox="0 0 24 24" fill="none" xmlns="http://www.w3.org/2000/svg">
<g clip-path="url(#clip0_7516_2281)">
<path d="M21.4808 5.50798L12.4113 0.11243C12.1593 -0.0374766 11.8454 -0.0374766 11.5933 0.11243L2.5238 5.50798C2.28141 5.65221 2.13281 5.91349 2.13281 6.19554V9.27555C2.13281 15.7628 5.88094 21.6879 11.7135 23.946C11.8991 24.0179 12.1053 24.018 12.2911 23.946C18.1095 21.6935 21.8717 15.7812 21.8717 9.27555V6.19554C21.8718 5.91344 21.7232 5.65221 21.4808 5.50798ZM15.9547 10.2023L10.9407 15.2164C10.6283 15.5288 10.1217 15.5288 9.8093 15.2164L8.04961 13.4567C7.73719 13.1443 7.73719 12.6378 8.04961 12.3253C8.36203 12.013 8.86861 12.013 9.18098 12.3253L10.3749 13.5193L14.8233 9.07095C15.1357 8.75857 15.6422 8.75857 15.9547 9.07095C16.2671 9.38341 16.2671 9.88995 15.9547 10.2023Z" fill="url(#paint0_linear_7516_2281)" fill-opacity="0.9"/>
</g>
<defs>
<linearGradient id="paint0_linear_7516_2281" x1="3.23405" y1="1.34459" x2="23.326" y2="12.4823" gradientUnits="userSpaceOnUse">
<stop offset="0.015625" stop-color="#8A21DD"/>
<stop offset="0.831802" stop-color="#6617E8"/>
</linearGradient>
<clipPath id="clip0_7516_2281">
<rect width="24" height="24" fill="white"/>
</clipPath>
</defs>
</svg>
