<svg width="24" height="24" viewBox="0 0 24 24" fill="none" xmlns="http://www.w3.org/2000/svg">
<g clip-path="url(#clip0_7047_849)">
<path d="M12 10.207C11.267 10.662 10.269 11.135 9 11.42V13.27C9 15.256 9.79298 17.124 11.12 18.267C11.405 18.5121 11.699 18.7191 12 18.886C12.301 18.719 12.595 18.512 12.88 18.267C14.207 17.124 15 15.256 15 13.27V11.42C13.731 11.135 12.733 10.662 12 10.207Z" fill="white"/>
<path d="M21.001 0.999984H16C16 0.447 15.553 0 15 0H9C8.44702 0 8.00002 0.447 8.00002 0.999984H2.99902C1.34602 0.999984 0 2.34502 0 3.999V21C0 22.654 1.34602 24 2.99902 24H21.001C22.654 24 24 22.654 24 21V3.999C24 2.34502 22.654 0.999984 21.001 0.999984ZM9.99998 2.00002H14V5.13103L12.555 4.167C12.219 3.94402 11.781 3.94402 11.445 4.167L9.99998 5.13098V2.00002ZM17 13.271C17 15.831 15.947 18.266 14.185 19.783C13.622 20.268 13.02 20.65 12.395 20.918C12.269 20.973 12.134 21 12 21C11.866 21 11.731 20.973 11.605 20.918C10.98 20.65 10.378 20.268 9.81497 19.783C8.05298 18.266 6.99998 15.831 6.99998 13.271V10.587C6.99998 10.088 7.36697 9.666 7.86098 9.597C9.552 9.36 10.721 8.70502 11.403 8.19698C11.757 7.93397 12.243 7.93397 12.597 8.19698C13.279 8.70497 14.448 9.36 16.139 9.597C16.633 9.666 17 10.088 17 10.587V13.271Z" fill="white"/>
</g>
<defs>
<clipPath id="clip0_7047_849">
<rect width="24" height="24" fill="white"/>
</clipPath>
</defs>
</svg>
