<svg width="26" height="26" viewBox="0 0 26 26" fill="none" xmlns="http://www.w3.org/2000/svg">
<path d="M21.6691 20.4428L16.7418 15.5145C17.6542 14.3406 18.2025 12.8695 18.2025 11.2674C18.2025 7.43838 15.0989 4.33398 11.2691 4.33398C7.43956 4.33398 4.33594 7.43838 4.33594 11.2674C4.33594 15.0972 7.43956 18.2008 11.2691 18.2008C12.8712 18.2008 14.3423 17.6525 15.5162 16.7401L20.4419 21.6674L21.6691 20.4428ZM11.2691 7.80082C9.35706 7.80082 7.80252 9.35484 7.80252 11.2674H6.0691C6.0691 8.40012 8.40182 6.0674 11.2691 6.0674V7.80082Z" fill="url(#paint0_linear_7512_1941)"/>
<path d="M4.33498 21.6658V18.1992H2.60156V23.3992H7.80156V21.6658H4.33498Z" fill="url(#paint1_linear_7512_1941)"/>
<path d="M21.6697 4.33303V7.79961H23.4031V2.59961H18.2031V4.33303H21.6697Z" fill="url(#paint2_linear_7512_1941)"/>
<defs>
<linearGradient id="paint0_linear_7512_1941" x1="4.33594" y1="19.539" x2="23.602" y2="15.3481" gradientUnits="userSpaceOnUse">
<stop stop-color="#3AA0FF"/>
<stop offset="0.984375" stop-color="#53D0F7"/>
</linearGradient>
<linearGradient id="paint1_linear_7512_1941" x1="2.60156" y1="22.7607" x2="8.38142" y2="21.5034" gradientUnits="userSpaceOnUse">
<stop stop-color="#3AA0FF"/>
<stop offset="0.984375" stop-color="#53D0F7"/>
</linearGradient>
<linearGradient id="paint2_linear_7512_1941" x1="18.2031" y1="7.16108" x2="23.983" y2="5.90381" gradientUnits="userSpaceOnUse">
<stop stop-color="#3AA0FF"/>
<stop offset="0.984375" stop-color="#53D0F7"/>
</linearGradient>
</defs>
</svg>
