<svg width="20" height="20" viewBox="0 0 20 20" fill="none" xmlns="http://www.w3.org/2000/svg">
<path d="M18.0234 3.43058C18.0129 3.21868 17.8346 3.05423 17.6225 3.06086C16.0385 3.0881 12.9056 2.82346 10.2514 0.59343C10.1057 0.468857 9.89106 0.468857 9.74542 0.59343C7.09118 2.82346 3.95825 3.0881 2.37427 3.06086C2.16221 3.05423 1.98391 3.21868 1.97341 3.43058C1.82162 7.34967 1.90725 12.3196 3.61187 14.6547C5.39433 17.1065 9.12661 19.1887 9.99838 19.5C10.8702 19.1848 14.6024 17.1026 16.3849 14.6547C18.0895 12.3196 18.1751 7.34967 18.0234 3.43058ZM13.431 8.0502L9.46909 12.4013C9.35915 12.5194 9.2062 12.5881 9.04488 12.592H9.0371C8.87968 12.5916 8.72925 12.5269 8.62067 12.413L6.57745 10.3269C6.35177 10.0959 6.35612 9.7256 6.58718 9.49991C6.81824 9.27422 7.18851 9.27858 7.4142 9.50964L9.02153 11.1559L12.567 7.26405C12.7863 7.0275 13.1559 7.01355 13.3924 7.23288C13.6258 7.44931 13.643 7.81277 13.431 8.0502Z" fill="#178EE8"/>
</svg>
