<svg width="24" height="24" viewBox="0 0 24 24" fill="none" xmlns="http://www.w3.org/2000/svg">
<g clip-path="url(#clip0_7047_764)">
<path d="M22.7603 4.34903L12.1794 0.636012C12.0338 0.587475 11.8882 0.587475 11.7669 0.636012L1.186 4.34903C0.943314 4.4461 0.773438 4.66451 0.773438 4.93146V7.57656C0.773438 7.91631 1.06465 8.20753 1.40441 8.20753H22.6147C22.9545 8.20753 23.2457 7.91631 23.2457 7.57656V4.93146C23.1972 4.66451 23.0273 4.4461 22.7603 4.34903Z" fill="white"/>
<path d="M22.567 19.3712H20.4314V10.4645C20.4314 10.246 20.2615 10.0762 20.0431 10.0762H16.8883C16.6699 10.0762 16.5 10.246 16.5 10.4645V19.3712H13.9276V10.4645C13.9276 10.246 13.7577 10.0762 13.5393 10.0762H10.3844C10.166 10.0762 9.99614 10.246 9.99614 10.4645V19.3712H7.44799V10.4645C7.44799 10.246 7.27812 10.0762 7.0597 10.0762H3.90485C3.68644 10.0762 3.51656 10.246 3.51656 10.4645V19.3712H1.38097C1.04122 19.3712 0.75 19.6624 0.75 20.0022V22.7686C0.75 23.1084 1.04122 23.3996 1.38097 23.3996H22.5913C22.931 23.3996 23.2223 23.1084 23.2223 22.7686V20.0022C23.198 19.6624 22.9068 19.3712 22.567 19.3712Z" fill="white"/>
</g>
<defs>
<clipPath id="clip0_7047_764">
<rect width="24" height="24" fill="white"/>
</clipPath>
</defs>
</svg>
