<svg width="16" height="16" viewBox="0 0 16 16" fill="none" xmlns="http://www.w3.org/2000/svg">
<path d="M13.34 14.917V3.56148C13.34 3.20203 13.0345 2.89648 12.657 2.89648H10.2127C10.0689 2.89648 9.94312 3.02229 9.94312 3.16608V3.8131C9.94312 4.29837 9.5477 4.6758 9.0804 4.6758H6.92366C6.43838 4.6758 6.06095 4.28041 6.06095 3.8131V3.16608C6.06095 3.02229 5.93514 2.89648 5.79136 2.89648H3.34704C2.96961 2.89648 2.66406 3.20203 2.66406 3.57946V14.917C2.66406 15.2944 2.96961 15.6 3.34704 15.6H12.657C13.0345 15.6 13.34 15.2944 13.34 14.917ZM8.00203 7.28888C8.77486 7.28888 9.40391 7.91793 9.40391 8.69078C9.40391 9.4636 8.77486 10.0927 8.00203 10.0927C7.22921 10.0927 6.60015 9.4636 6.60015 8.69078C6.60015 7.91793 7.22921 7.28888 8.00203 7.28888ZM10.7519 13.5974H5.25216C5.12635 13.5974 5.01852 13.4895 5.01852 13.3637C5.14433 11.836 6.42042 10.6139 8.00203 10.6139C9.58365 10.6139 10.8597 11.8181 10.9855 13.3637C10.9855 13.4895 10.8777 13.5974 10.7519 13.5974Z" fill="url(#paint0_linear_7047_801)" fill-opacity="0.9"/>
<path d="M9.07948 0.400391H6.90475C6.743 0.400391 6.61719 0.526201 6.61719 0.687955V3.83151C6.61719 3.99328 6.743 4.11908 6.90475 4.11908H9.09746C9.25921 4.11908 9.38502 3.9753 9.36706 3.81354V0.687955C9.36706 0.526201 9.24125 0.400391 9.07948 0.400391Z" fill="url(#paint1_linear_7047_801)" fill-opacity="0.9"/>
<defs>
<linearGradient id="paint0_linear_7047_801" x1="8.99054" y1="0.585506" x2="12.2925" y2="14.8348" gradientUnits="userSpaceOnUse">
<stop offset="0.168198" stop-color="#FF9DC8"/>
<stop offset="0.984375" stop-color="#EB2B7E"/>
</linearGradient>
<linearGradient id="paint1_linear_7047_801" x1="8.24775" y1="-0.276103" x2="9.32957" y2="3.83436" gradientUnits="userSpaceOnUse">
<stop offset="0.168198" stop-color="#FF9DC8"/>
<stop offset="0.984375" stop-color="#EB2B7E"/>
</linearGradient>
</defs>
</svg>
