<svg width="20" height="20" viewBox="0 0 20 20" fill="none" xmlns="http://www.w3.org/2000/svg">
<g clip-path="url(#clip0_7761_3500)">
<path d="M11.4141 8.59203C11.9055 8.82415 12.4539 8.95457 13.0325 8.95457C15.1296 8.95457 16.8356 7.24857 16.8356 5.15154C16.8356 3.05451 15.1296 1.34851 13.0325 1.34851C12.4539 1.34851 11.9055 1.47894 11.4141 1.71106C11.7858 2.18984 12.0818 2.73003 12.2842 3.3136C12.4842 3.88984 12.5932 4.50815 12.5932 5.15154C12.5932 5.79493 12.4842 6.41324 12.2842 6.98948C12.0818 7.57306 11.7858 8.11324 11.4141 8.59203Z" fill="white"/>
<path d="M12.3594 10.8054C13.0568 11.3483 13.6703 11.994 14.1776 12.7195C15.0097 13.9099 15.5551 15.3146 15.7119 16.8333C15.7428 17.1322 15.7587 17.4354 15.7587 17.7424C15.7587 18.0611 15.7033 18.3669 15.6023 18.6515H19.0921C19.5942 18.6515 20.0012 18.2445 20.0012 17.7424C20.0012 13.8993 16.8746 10.7727 13.0315 10.7727C12.8065 10.7727 12.5822 10.7838 12.3594 10.8054Z" fill="white"/>
<path d="M6.96709 8.95457C8.20279 8.95457 9.3023 8.36184 9.9974 7.44615C10.4819 6.80784 10.7701 6.01287 10.7701 5.15154C10.7701 4.29021 10.4819 3.49524 9.9974 2.85693C9.3023 1.94124 8.20279 1.34851 6.96709 1.34851C4.87006 1.34851 3.16406 3.05451 3.16406 5.15154C3.16406 7.24857 4.87006 8.95457 6.96709 8.95457Z" fill="white"/>
<path d="M0.909091 18.6515H13.0303C13.5324 18.6515 13.9394 18.2445 13.9394 17.7424C13.9394 17.4343 13.919 17.1309 13.8801 16.8333C13.671 15.2349 12.9181 13.8054 11.8139 12.7365C11.2828 12.2225 10.6708 11.7917 9.99867 11.466C9.08218 11.022 8.05455 10.7727 6.9697 10.7727C3.12661 10.7727 0 13.8993 0 17.7424C0 18.2445 0.40703 18.6515 0.909091 18.6515Z" fill="white"/>
</g>
<defs>
<clipPath id="clip0_7761_3500">
<rect width="20" height="20" fill="white"/>
</clipPath>
</defs>
</svg>
