<svg width="20" height="20" viewBox="0 0 20 20" fill="none" xmlns="http://www.w3.org/2000/svg">
<path d="M16.2703 1.62285C15.0987 1.62285 14.1456 2.57597 14.1456 3.74753C14.1456 4.10628 14.2356 4.44378 14.3934 4.74066L11.6459 7.48816C11.3441 7.29191 11.0059 7.14785 10.6428 7.07035V5.32285C11.51 5.05535 12.1422 4.24628 12.1422 3.29222C12.1422 2.12066 11.1891 1.16785 10.0178 1.16785C8.84656 1.16785 7.89344 2.12097 7.89344 3.29222C7.89344 4.24628 8.52563 5.05535 9.39281 5.32285V7.07035C8.74344 7.20878 8.1725 7.5591 7.75313 8.0441L4.9875 6.53566C5.00188 6.44691 5.01125 6.3566 5.01125 6.26378C5.01125 5.32597 4.24812 4.56285 3.31031 4.56285C2.3725 4.56285 1.60938 5.32597 1.60938 6.26378C1.60938 7.2016 2.3725 7.96472 3.31031 7.96472C3.70031 7.96472 4.05906 7.83128 4.34625 7.60972L7.14906 9.13847C7.06688 9.4116 7.02125 9.70066 7.02125 10.0003C7.02125 10.6007 7.20062 11.1594 7.50594 11.6288L4.79375 14.341C4.49719 14.1835 4.15937 14.0932 3.80063 14.0932C2.62906 14.0932 1.67594 15.0463 1.67594 16.2178C1.67594 17.3894 2.62906 18.3425 3.80063 18.3425C4.97219 18.3425 5.925 17.3894 5.925 16.2178C5.925 15.8591 5.835 15.5213 5.67719 15.2247L8.38937 12.5125C8.69094 12.7088 9.02937 12.8528 9.3925 12.9303V14.6778C8.52531 14.9453 7.89313 15.7544 7.89313 16.7085C7.89313 17.88 8.84625 18.8332 10.0175 18.8332C11.1887 18.8332 12.1419 17.88 12.1419 16.7085C12.1419 15.7544 11.5097 14.9457 10.6425 14.6778V12.9303C11.9956 12.6419 13.0141 11.4382 13.0141 10.0003C13.0141 9.40003 12.8347 8.8416 12.5297 8.37222L15.2772 5.62472C15.5737 5.78222 15.9116 5.87253 16.2703 5.87253C17.4419 5.87253 18.395 4.91941 18.395 3.74816C18.3947 2.57597 17.4419 1.62285 16.2703 1.62285Z" fill="white"/>
</svg>
