<svg width="26" height="26" viewBox="0 0 26 26" fill="none" xmlns="http://www.w3.org/2000/svg">
<path d="M11.2681 13.8666C11.2681 10.0436 14.3783 6.93318 18.2016 6.93318C18.8009 6.93318 19.3796 7.01768 19.935 7.16172V4.33318C14.1575 1.93624 7.95886 2.10888 2.60156 4.33318V10.399C2.60156 12.305 2.98506 14.1245 3.67146 15.7841C4.38412 17.5048 5.42152 19.0526 6.71502 20.3502C8.00982 21.6476 9.55448 22.6871 11.2684 23.3998C12.9763 22.69 14.5142 21.6546 15.8067 20.3648C13.1622 19.3864 11.2681 16.8465 11.2681 13.8666Z" fill="url(#paint0_linear_7512_1946)"/>
<path d="M17.7666 16.4923L15.1666 13.8923L16.0857 12.9732L17.7666 14.6538L22.0459 10.3747C21.0946 9.32772 19.7267 8.66602 18.2 8.66602C15.3275 8.66602 13 10.9935 13 13.866C13 16.7385 15.3275 19.066 18.2 19.066C21.0725 19.066 23.4 16.7385 23.4 13.866C23.4 12.9953 23.1834 12.176 22.8051 11.454L17.7666 16.4923Z" fill="url(#paint1_linear_7512_1946)"/>
<defs>
<linearGradient id="paint0_linear_7512_1946" x1="2.60156" y1="20.8456" x2="22.1376" y2="17.3043" gradientUnits="userSpaceOnUse">
<stop stop-color="#3AA0FF"/>
<stop offset="0.984375" stop-color="#53D0F7"/>
</linearGradient>
<linearGradient id="paint1_linear_7512_1946" x1="13" y1="17.789" x2="24.5597" y2="15.2744" gradientUnits="userSpaceOnUse">
<stop stop-color="#3AA0FF"/>
<stop offset="0.984375" stop-color="#53D0F7"/>
</linearGradient>
</defs>
</svg>
