<svg width="24" height="24" viewBox="0 0 24 24" fill="none" xmlns="http://www.w3.org/2000/svg">
<g clip-path="url(#clip0_7047_726)">
<path d="M23.3967 21.9746C23.3967 22.8296 22.6842 23.3996 21.9717 23.3996H10.5717C9.71668 23.3996 9.14668 22.8296 9.14668 21.9746C9.14668 18.5546 11.5692 15.7046 14.8467 14.9921V8.86461C13.8492 8.57961 12.9942 7.86711 12.5667 7.01211L7.57918 9.86211C8.00668 11.5721 7.15168 13.2821 5.58418 14.2796C4.87168 14.7071 4.01668 14.4221 3.58918 13.7096C3.30418 12.9971 3.44668 12.1421 4.15918 11.8571C4.87168 11.4296 5.01418 10.5746 4.72918 9.86211C4.30168 9.14961 3.44668 8.86461 2.73418 9.29211C2.02168 9.71961 1.16668 9.43461 0.739181 8.86461C0.454181 8.15211 0.596681 7.29711 1.30918 6.86961C2.87668 5.87211 4.87168 6.15711 6.29668 7.29711L12.1392 4.01961C12.5667 2.02461 14.2767 0.599609 16.2717 0.599609C18.6942 0.599609 20.5467 2.45211 20.5467 4.87461C20.5467 6.72711 19.4067 8.29461 17.6967 8.86461V14.9921C20.9742 15.5621 23.3967 18.5546 23.3967 21.9746Z" fill="url(#paint0_linear_7047_726)"/>
</g>
<defs>
<linearGradient id="paint0_linear_7047_726" x1="0.601563" y1="20.5999" x2="25.9391" y2="15.0895" gradientUnits="userSpaceOnUse">
<stop stop-color="#3AA0FF"/>
<stop offset="0.984375" stop-color="#53D0F7"/>
</linearGradient>
<clipPath id="clip0_7047_726">
<rect width="24" height="24" fill="white"/>
</clipPath>
</defs>
</svg>
