<svg width="26" height="26" viewBox="0 0 26 26" fill="none" xmlns="http://www.w3.org/2000/svg">
<g clip-path="url(#clip0_7047_741)">
<path d="M19.0157 3.9378L14.8585 0.83694C14.244 0.378598 13.3698 0.817132 13.3698 1.58373V3.10385C6.21887 2.58378 3.34357 7.78758 2.46694 9.9365C2.26868 10.4225 2.51637 10.9751 3.00866 11.1571L5.29031 12.001C5.74197 12.1681 6.25034 11.9642 6.45357 11.5276C8.21702 7.73911 11.2701 6.96807 13.3154 6.91694V7.83478C13.3154 8.60195 14.1907 9.04033 14.805 8.58083L19.0167 5.43063C19.5153 5.05771 19.5148 4.31007 19.0157 3.9378Z" fill="url(#paint0_linear_7047_741)"/>
<path d="M19.702 23.9806L24.5136 21.899C25.2289 21.5895 25.2706 20.5908 24.5836 20.2227L23.2329 19.4992C27.1179 13.6063 23.7272 8.65786 22.2266 6.92427C21.8948 6.54094 21.3182 6.49529 20.9282 6.8192L19.0991 8.33822C18.7164 8.6561 18.6501 9.22088 18.9524 9.61607C21.4937 12.9384 20.719 15.9133 19.8011 17.6471L18.9414 17.1985C18.2618 16.844 17.4687 17.4159 17.5906 18.1727L18.4123 23.2737C18.5089 23.8735 19.1444 24.2218 19.702 23.9806Z" fill="url(#paint1_linear_7047_741)"/>
<path d="M1.65651 14.1558L0.939327 19.2443C0.832432 20.0028 1.63556 20.559 2.30798 20.1922L3.67663 19.4457C6.76732 25.7141 12.8845 25.547 15.2173 25.227C15.7344 25.156 16.0894 24.6724 16.007 24.157L15.6388 21.856C15.5623 21.3775 15.1305 21.0332 14.6477 21.0752C10.365 21.447 8.18344 19.2285 7.10841 17.5392L7.87565 17.1129C8.5567 16.7345 8.50013 15.7371 7.78066 15.4382L2.9365 13.4254C2.37366 13.1916 1.74157 13.5522 1.65651 14.1558Z" fill="url(#paint2_linear_7047_741)"/>
</g>
<defs>
<linearGradient id="paint0_linear_7047_741" x1="2.39844" y1="10.6582" x2="20.2998" y2="4.85854" gradientUnits="userSpaceOnUse">
<stop stop-color="#3AA0FF"/>
<stop offset="0.984375" stop-color="#53D0F7"/>
</linearGradient>
<linearGradient id="paint1_linear_7047_741" x1="17.5781" y1="21.9146" x2="26.2301" y2="21.1062" gradientUnits="userSpaceOnUse">
<stop stop-color="#3AA0FF"/>
<stop offset="0.984375" stop-color="#53D0F7"/>
</linearGradient>
<linearGradient id="paint2_linear_7047_741" x1="0.929688" y1="23.8773" x2="17.2718" y2="19.4061" gradientUnits="userSpaceOnUse">
<stop stop-color="#3AA0FF"/>
<stop offset="0.984375" stop-color="#53D0F7"/>
</linearGradient>
<clipPath id="clip0_7047_741">
<rect width="26" height="26" fill="white"/>
</clipPath>
</defs>
</svg>
