<svg width="26" height="26" viewBox="0 0 26 26" fill="none" xmlns="http://www.w3.org/2000/svg">
<path d="M18.2031 2.59961H19.9365V4.33303H18.2031V2.59961Z" fill="#8A21DD"/>
<path d="M21.6641 2.59961H23.3975V4.33303H21.6641V2.59961Z" fill="#8A21DD"/>
<path d="M4.33498 2.59961C3.38156 2.59961 2.60156 3.37987 2.60156 4.33303H16.4681V2.59961H4.33498Z" fill="#8A21DD"/>
<path d="M2.60156 6.06641V21.6664C2.60156 22.6196 3.38156 23.3998 4.33498 23.3998H21.6684C22.6213 23.3998 23.4016 22.6196 23.4016 21.6664V6.06641H2.60156ZM6.93498 20.7998H5.20156V15.5998H6.93498V20.7998ZM10.4016 20.7998H8.66814V8.66641H10.4016V20.7998ZM13.8681 20.7998H12.1347V10.3998H13.8681V20.7998ZM17.335 20.7998H15.6016V15.5998H17.335V20.7998ZM20.8016 20.7998H19.0681V12.1332H20.8016V20.7998Z" fill="#8A21DD"/>
</svg>
