<svg width="26" height="26" viewBox="0 0 26 26" fill="none" xmlns="http://www.w3.org/2000/svg">
<path d="M22.8938 20.439L16.9998 14.545C17.7564 13.3431 18.2016 11.925 18.2016 10.3996C18.2016 6.09167 14.7095 2.59961 10.4016 2.59961C6.09362 2.59805 2.60156 6.09167 2.60156 10.3996C2.60156 13.1036 3.97774 15.4852 6.06814 16.8843V9.53303H7.80156V17.7449C8.35432 17.9404 8.9323 18.0808 9.53498 18.1468V6.06619H11.2681V18.1351C11.8708 18.0673 12.4488 17.9277 13.0016 17.7295V7.79961H14.735V17.182L20.4428 22.89C21.119 23.5689 22.2165 23.5689 22.8938 22.8918C23.5708 22.2132 23.5708 21.1163 22.8938 20.439Z" fill="#8A21DD"/>
</svg>
