<svg width="16" height="16" viewBox="0 0 16 16" fill="none" xmlns="http://www.w3.org/2000/svg">
<g clip-path="url(#clip0_7047_814)">
<path d="M6.00259 13.3333H2.66925V10.6667C2.66925 10.2987 2.37125 10 2.00259 10C1.63394 10 1.33594 10.2987 1.33594 10.6667V14C1.33594 14.368 1.63394 14.6667 2.00259 14.6667H6.00259C6.37125 14.6667 6.66925 14.368 6.66925 14C6.66925 13.632 6.37125 13.3333 6.00259 13.3333Z" fill="url(#paint0_linear_7047_814)" fill-opacity="0.9"/>
<path d="M10.0026 2.66632H13.3359V5.33298C13.3359 5.70098 13.6339 5.99963 14.0026 5.99963C14.3713 5.99963 14.6693 5.70098 14.6693 5.33298V1.99966C14.6693 1.63166 14.3713 1.33301 14.0026 1.33301H10.0026C9.63394 1.33301 9.33594 1.63166 9.33594 1.99966C9.33594 2.36766 9.63394 2.66632 10.0026 2.66632Z" fill="url(#paint1_linear_7047_814)" fill-opacity="0.9"/>
<path d="M8 3.33334C8 2.96534 7.702 2.66669 7.33334 2.66669H6.66669C6.66669 2.49003 6.59669 2.32003 6.47134 2.19534L4.47134 0.195344C4.34666 0.07 4.17734 0 4 0H0.666656C0.298 0 0 0.298656 0 0.666656V3.33331V7.33331C0 7.70134 0.298 8 0.666656 8H7.33331C7.70197 8 7.99997 7.70134 7.99997 7.33334V3.33334H8ZM1.33334 2.66666V1.33334H3.724L5.05734 2.66669L1.33334 2.66666Z" fill="url(#paint2_linear_7047_814)" fill-opacity="0.9"/>
<path d="M15.3333 10.6667H14.6667C14.6667 10.49 14.5967 10.32 14.4713 10.1953L12.4713 8.19531C12.3467 8.07 12.1773 8 12 8H8.66666C8.298 8 8 8.29866 8 8.66666V11.3333V15.3333C8 15.7013 8.298 16 8.66666 16H15.3333C15.702 16 16 15.7013 16 15.3333V11.3333C16 10.9653 15.702 10.6667 15.3333 10.6667ZM9.33334 10.6667V9.33331H11.724L13.0573 10.6667H9.33334Z" fill="url(#paint3_linear_7047_814)" fill-opacity="0.9"/>
</g>
<defs>
<linearGradient id="paint0_linear_7047_814" x1="4.49642" y1="9.15106" x2="5.40975" y2="14.511" gradientUnits="userSpaceOnUse">
<stop offset="0.168198" stop-color="#FF9DC8"/>
<stop offset="0.984375" stop-color="#EB2B7E"/>
</linearGradient>
<linearGradient id="paint1_linear_7047_814" x1="12.4964" y1="0.484069" x2="13.4097" y2="5.84401" gradientUnits="userSpaceOnUse">
<stop offset="0.168198" stop-color="#FF9DC8"/>
<stop offset="0.984375" stop-color="#EB2B7E"/>
</linearGradient>
<linearGradient id="paint2_linear_7047_814" x1="4.74074" y1="-1.45534" x2="6.5148" y2="7.65452" gradientUnits="userSpaceOnUse">
<stop offset="0.168198" stop-color="#FF9DC8"/>
<stop offset="0.984375" stop-color="#EB2B7E"/>
</linearGradient>
<linearGradient id="paint3_linear_7047_814" x1="12.7407" y1="6.54467" x2="14.5148" y2="15.6545" gradientUnits="userSpaceOnUse">
<stop offset="0.168198" stop-color="#FF9DC8"/>
<stop offset="0.984375" stop-color="#EB2B7E"/>
</linearGradient>
<clipPath id="clip0_7047_814">
<rect width="16" height="16" fill="white"/>
</clipPath>
</defs>
</svg>
