<svg width="26" height="26" viewBox="0 0 26 26" fill="none" xmlns="http://www.w3.org/2000/svg">
<g clip-path="url(#clip0_7514_2116)">
<path d="M25.6693 21.2743C25.6693 22.0235 24.7768 22.5902 24.5094 23.2412C24.2275 23.9153 24.448 24.9451 23.9403 25.4529C23.4303 25.9621 22.4017 25.7412 21.7276 26.0216C21.0751 26.2918 20.5081 27.1844 19.7592 27.1844C19.0103 27.1844 18.4457 26.2918 17.7922 26.022C17.1195 25.7415 16.0909 25.9621 15.5806 25.4532C15.0728 24.9451 15.293 23.9157 15.0139 23.2416C14.7437 22.5905 13.8516 22.0239 13.8516 21.2746C13.8516 20.5257 14.7441 19.9587 15.0139 19.3077C15.293 18.6339 15.0728 17.6038 15.5806 17.0964C16.0909 16.5872 17.1195 16.8077 17.7922 16.5273C18.4457 16.2571 19.0103 15.3652 19.7592 15.3652C20.5081 15.3652 21.0751 16.2574 21.7272 16.5273C22.4013 16.8077 23.43 16.5875 23.9399 17.0964C24.448 17.6042 24.2275 18.6339 24.509 19.3077C24.7768 19.9584 25.6693 20.5254 25.6693 21.2743Z" fill="#178EE8"/>
<path d="M10.302 -1.18555C7.57907 1.73493 3.81748 3.54232 -0.335938 3.54232V11.2588C-0.335938 16.0168 1.59379 20.3258 4.71072 23.4449C6.30109 25.0331 8.19784 26.3072 10.302 27.1824C11.274 26.7781 12.1952 26.2796 13.069 25.714C12.9122 25.2165 12.8672 24.7466 12.8349 24.3981C12.8278 24.3183 12.8232 24.2399 12.814 24.1626C12.77 24.1108 12.7239 24.0576 12.6775 24.0034C12.2321 23.4726 11.4864 22.5836 11.4864 21.2723C11.4864 19.9613 12.2325 19.0723 12.6775 18.5415C12.7275 18.4826 12.7778 18.4259 12.8229 18.3695C12.8207 18.3234 12.8254 18.2355 12.8346 18.1468C12.897 17.4667 13.003 16.3274 13.9079 15.4225C14.8139 14.5175 15.9511 14.4111 16.6309 14.348C16.7107 14.3399 16.7901 14.3353 16.8664 14.3257C16.9206 14.2831 16.9738 14.2345 17.0291 14.1895C17.5593 13.7441 18.4482 12.9984 19.7581 12.9984C20.1539 12.9984 20.506 13.0711 20.8272 13.1785C20.8974 12.547 20.94 11.9087 20.94 11.2588V3.54232C16.7869 3.54232 13.0254 1.73493 10.302 -1.18555ZM9.71127 15.3625L6.16528 11.8165L7.83651 10.1453L9.71127 12.0201L13.9498 7.77978L15.621 9.451L9.71127 15.3625Z" fill="#178EE8"/>
</g>
<defs>
<clipPath id="clip0_7514_2116">
<rect width="26" height="26" fill="white"/>
</clipPath>
</defs>
</svg>
