<svg width="32" height="32" viewBox="0 0 32 32" fill="none" xmlns="http://www.w3.org/2000/svg">
<path d="M15.9993 22.065C21.8602 22.065 26.6314 17.2938 26.6314 11.4329C26.6314 5.5719 21.8602 0.800781 15.9993 0.800781C10.1384 0.800781 5.36719 5.5719 5.36719 11.4329C5.36719 17.2938 10.1384 22.065 15.9993 22.065ZM11.8401 9.96379L14.416 12.3429L20.0686 6.45782L22.6444 8.92636L14.5591 17.3515L9.40736 12.5755L11.8401 9.96379Z" fill="#8A21DD"/>
<path d="M9 22V30.2587L15.6451 26.9361L22.2901 30.2587V22C20.3365 23.1297 18.0639 23.7809 15.6451 23.7809C13.2263 23.7809 10.9536 23.1297 9 22Z" fill="#8A21DD"/>
</svg>
