<svg width="16" height="16" viewBox="0 0 16 16" fill="none" xmlns="http://www.w3.org/2000/svg">
<path d="M11.3307 4H4.66406V6H11.3307V4Z" fill="url(#paint0_linear_7047_806)" fill-opacity="0.9"/>
<path d="M4 9.33301C4 9.70101 4.298 9.99966 4.66666 9.99966H6.66666V10.3703C6.26731 10.6037 5.93731 10.9337 5.704 11.333H5.33334C4.96534 11.333 4.66669 11.6316 4.66669 11.9996V13.333C4.66669 13.701 4.96534 13.9996 5.33334 13.9996H5.704C5.93734 14.399 6.26734 14.729 6.66666 14.9623V15.3329C6.66666 15.7009 6.96531 15.9996 7.33331 15.9996H8.66666C9.03466 15.9996 9.33331 15.7009 9.33331 15.3329V14.9623C9.73266 14.7289 10.0627 14.3989 10.296 13.9996H10.6666C11.0346 13.9996 11.3333 13.701 11.3333 13.333V11.9997C11.3333 11.6317 11.0346 11.333 10.6666 11.333H10.296C10.0626 10.9337 9.73262 10.6037 9.33331 10.3704V9.99966H11.3333C11.702 9.99966 12 9.70101 12 9.33301V7.33301H4V9.33301ZM8 11.333C8.73534 11.333 9.33334 11.931 9.33334 12.6664C9.33334 13.4017 8.73534 13.9997 8 13.9997C7.26466 13.9997 6.66666 13.4017 6.66666 12.6663C6.66666 11.931 7.26466 11.333 8 11.333Z" fill="url(#paint1_linear_7047_806)" fill-opacity="0.9"/>
<path d="M11.3333 0H4.66666C4.298 0 4 0.298656 4 0.666656V2.66266C4 2.664 4.00066 2.66531 4.00066 2.66666H11.9993C11.9993 2.66531 12 2.664 12 2.66266V0.666656C12 0.298656 11.702 0 11.3333 0Z" fill="url(#paint2_linear_7047_806)" fill-opacity="0.9"/>
<defs>
<linearGradient id="paint0_linear_7047_806" x1="8.61467" y1="3.63617" x2="8.7523" y2="5.99196" gradientUnits="userSpaceOnUse">
<stop offset="0.168198" stop-color="#FF9DC8"/>
<stop offset="0.984375" stop-color="#EB2B7E"/>
</linearGradient>
<linearGradient id="paint1_linear_7047_806" x1="8.74072" y1="5.75641" x2="10.8096" y2="15.5631" gradientUnits="userSpaceOnUse">
<stop offset="0.168198" stop-color="#FF9DC8"/>
<stop offset="0.984375" stop-color="#EB2B7E"/>
</linearGradient>
<linearGradient id="paint2_linear_7047_806" x1="8.74072" y1="-0.485111" x2="8.94445" y2="2.65343" gradientUnits="userSpaceOnUse">
<stop offset="0.168198" stop-color="#FF9DC8"/>
<stop offset="0.984375" stop-color="#EB2B7E"/>
</linearGradient>
</defs>
</svg>
