<svg width="16" height="16" viewBox="0 0 16 16" fill="none" xmlns="http://www.w3.org/2000/svg">
<g clip-path="url(#clip0_7047_823)">
<path d="M5.33072 8.66666H10.6641C11.0327 8.66666 11.3307 8.368 11.3307 8V4C11.3307 3.632 11.0327 3.33334 10.6641 3.33334V2.66666C10.664 1.196 9.46803 0 7.99738 0C6.52672 0 5.33072 1.196 5.33072 2.66666V3.33331C4.96206 3.33331 4.66406 3.63197 4.66406 3.99997V7.99997C4.66403 8.368 4.96203 8.66666 5.33072 8.66666ZM6.66403 2.66666C6.66403 1.93131 7.26203 1.33331 7.99738 1.33331C8.73272 1.33331 9.33072 1.93131 9.33072 2.66666V3.33331H6.66406V2.66666H6.66403Z" fill="url(#paint0_linear_7047_823)" fill-opacity="0.9"/>
<path d="M12.6667 9.33301H3.33334C1.49534 9.33301 0 10.8283 0 12.6663C0 14.5043 1.49534 15.9997 3.33334 15.9997H12.6667C14.5047 15.9997 16 14.5043 16 12.6663C16 10.8283 14.5047 9.33301 12.6667 9.33301ZM4.66666 13.333C4.66666 13.701 4.36866 13.9997 4 13.9997C3.63134 13.9997 3.33334 13.701 3.33334 13.333V11.9997C3.33334 11.6317 3.63134 11.333 4 11.333C4.36866 11.333 4.66666 11.6317 4.66666 11.9997V13.333ZM7.33334 13.333C7.33334 13.701 7.03534 13.9997 6.66669 13.9997C6.298 13.9997 6 13.701 6 13.333V11.9997C6 11.6317 6.298 11.333 6.66666 11.333C7.03531 11.333 7.33331 11.6317 7.33331 11.9997V13.333H7.33334ZM10 13.333C10 13.701 9.702 13.9997 9.33334 13.9997C8.96469 13.9997 8.66669 13.701 8.66669 13.333V11.9997C8.66669 11.6317 8.96469 11.333 9.33334 11.333C9.702 11.333 10 11.6317 10 11.9997V13.333ZM12.6667 13.9997H11.3333C10.9647 13.9997 10.6667 13.701 10.6667 13.333C10.6667 12.965 10.9647 12.6664 11.3333 12.6664H12.6667C13.0353 12.6664 13.3333 12.965 13.3333 13.333C13.3333 13.701 13.0353 13.9997 12.6667 13.9997Z" fill="url(#paint1_linear_7047_823)" fill-opacity="0.9"/>
</g>
<defs>
<linearGradient id="paint0_linear_7047_823" x1="8.61467" y1="-1.57661" x2="11.0517" y2="8.04969" gradientUnits="userSpaceOnUse">
<stop offset="0.168198" stop-color="#FF9DC8"/>
<stop offset="0.984375" stop-color="#EB2B7E"/>
</linearGradient>
<linearGradient id="paint1_linear_7047_823" x1="9.48148" y1="8.12023" x2="10.1166" y2="15.9481" gradientUnits="userSpaceOnUse">
<stop offset="0.168198" stop-color="#FF9DC8"/>
<stop offset="0.984375" stop-color="#EB2B7E"/>
</linearGradient>
<clipPath id="clip0_7047_823">
<rect width="16" height="16" fill="white"/>
</clipPath>
</defs>
</svg>
