<svg width="28" height="28" viewBox="0 0 28 28" fill="none" xmlns="http://www.w3.org/2000/svg">
<g clip-path="url(#clip0_7518_1977)">
<path d="M7.85048 17.5723H4.33594C3.88291 17.5723 3.51562 17.9395 3.51562 18.3926V27.1791C3.51562 27.6321 3.88291 27.9994 4.33594 27.9994H7.85054C8.30357 27.9994 8.67085 27.6321 8.67085 27.1791V18.3926C8.6708 17.9395 8.30352 17.5723 7.85048 17.5723Z" fill="white"/>
<path d="M27.1787 1.75781H26.125V8.67026H27.1787C27.6317 8.67026 27.999 8.30298 27.999 7.84995V2.57812C27.999 2.12509 27.6317 1.75781 27.1787 1.75781Z" fill="white"/>
<path d="M0 20.1504V25.4222C0 25.8752 0.367281 26.2425 0.820312 26.2425H1.87398V19.3301H0.820312C0.367281 19.3301 0 19.6974 0 20.1504Z" fill="white"/>
<path d="M14.8802 10.5442H13.123C12.5993 10.5442 12.186 10.1185 12.186 9.60727C12.186 9.09064 12.6063 8.67026 13.123 8.67026H17.6912V1.75781H13.123C8.78766 1.75781 5.27344 5.26514 5.27344 9.60727C5.27344 13.9355 8.79471 17.4567 13.1229 17.4567H14.8802C15.4041 17.4567 15.8171 17.8827 15.8171 18.3938C15.8171 18.9104 15.3968 19.3307 14.8802 19.3307H10.3119V26.2432H14.8802C19.2159 26.2432 22.7296 22.7352 22.7296 18.3938C22.7297 14.0655 19.2084 10.5442 14.8802 10.5442Z" fill="white"/>
<path d="M23.663 0H20.1484C19.6954 0 19.3281 0.367281 19.3281 0.820312V9.60679C19.3281 10.0598 19.6954 10.4271 20.1484 10.4271H23.663C24.1161 10.4271 24.4834 10.0598 24.4834 9.60679V0.820312C24.4834 0.367281 24.1161 0 23.663 0Z" fill="white"/>
</g>
<defs>
<clipPath id="clip0_7518_1977">
<rect width="28" height="28" fill="white"/>
</clipPath>
</defs>
</svg>
