<svg width="26" height="26" viewBox="0 0 26 26" fill="none" xmlns="http://www.w3.org/2000/svg">
<path d="M13.0007 6.27665C11.0039 6.27665 9.38417 7.89642 9.38417 9.89319V9.89579C9.38674 11.8926 11.0039 13.5097 13.0007 13.5097C14.9974 13.5097 16.6172 11.8926 16.6172 9.89319C16.6172 7.89642 14.9974 6.27665 13.0007 6.27665ZM21.5208 8.75961C21.6482 8.588 21.7444 8.39821 21.8094 8.19282C21.8692 8.00301 21.8978 7.81061 21.8978 7.62342C21.8978 6.81224 21.3752 6.06345 20.5614 5.80864C19.7658 5.55645 19.2276 4.81287 19.2328 3.97827C19.238 3.75728 19.2016 3.53888 19.1288 3.33088C18.7882 2.3377 17.704 1.8125 16.7134 2.15309C16.5184 2.2207 16.313 2.2545 16.105 2.2545C15.4889 2.2545 14.9091 1.95549 14.5529 1.4537C14.4281 1.27691 14.2773 1.12611 14.1005 1.00131C13.2425 0.392931 12.0569 0.59572 11.4485 1.4537C11.0923 1.95549 10.5125 2.2545 9.89635 2.2545C9.68834 2.2545 9.48294 2.2207 9.28794 2.15309C9.08513 2.08549 8.87195 2.04911 8.65617 2.05171C7.60837 2.0621 6.76599 2.92269 6.7764 3.97046C6.78421 4.81026 6.24079 5.55905 5.43998 5.80864C5.23201 5.87364 5.03961 5.97244 4.8654 6.10244C4.02302 6.73164 3.85144 7.92241 4.48061 8.76479C4.98239 9.43819 4.98239 10.3586 4.48061 11.032C4.35322 11.2036 4.25702 11.396 4.19202 11.5988C3.8774 12.6023 4.43643 13.6709 5.43998 13.9855C6.23559 14.2403 6.77119 14.9865 6.76078 15.8211C6.75818 16.0421 6.79198 16.2631 6.86479 16.4711C7.20537 17.4617 8.28956 17.9895 9.28013 17.6463C10.0757 17.3785 10.9545 17.6645 11.4407 18.3509C11.5655 18.5251 11.7189 18.6784 11.8931 18.8033C12.7511 19.409 13.9393 19.2062 14.5451 18.3509C15.0313 17.6645 15.91 17.3785 16.7056 17.6463C16.9136 17.7191 17.1346 17.7529 17.3556 17.7503C18.4034 17.7347 19.2406 16.8715 19.225 15.8211V15.8029C19.225 14.9709 19.7658 14.2325 20.5614 13.9855C20.7694 13.9205 20.9618 13.8217 21.136 13.6917C21.9784 13.0625 22.1499 11.8692 21.5208 11.0294C21.019 10.3534 21.019 9.43299 21.5208 8.75961ZM13.0007 15.2959C10.0185 15.2959 7.60317 12.8779 7.60317 9.89579C7.60317 8.406 8.20898 7.05663 9.18657 6.08165C10.1616 5.10406 11.5109 4.49826 13.0007 4.49826C15.9828 4.49826 18.3982 6.91362 18.3982 9.89579C18.3982 12.8779 15.9828 15.2959 13.0007 15.2959ZM13.0007 6.27665C11.0039 6.27665 9.38417 7.89642 9.38417 9.89319V9.89579C9.38674 11.8926 11.0039 13.5097 13.0007 13.5097C14.9974 13.5097 16.6172 11.8926 16.6172 9.89319C16.6172 7.89642 14.9974 6.27665 13.0007 6.27665ZM13.0007 6.27665C11.0039 6.27665 9.38417 7.89642 9.38417 9.89319V9.89579C9.38674 11.8926 11.0039 13.5097 13.0007 13.5097C14.9974 13.5097 16.6172 11.8926 16.6172 9.89319C16.6172 7.89642 14.9974 6.27665 13.0007 6.27665ZM10.0055 19.3908C9.98474 19.3596 9.94834 19.3415 9.90933 19.3415H9.87033C8.86418 19.682 7.75919 19.5676 6.8466 19.0269L5.4582 22.997C5.34642 23.3194 5.5206 23.6704 5.84299 23.7822C5.9834 23.829 6.13679 23.8238 6.27459 23.7692H6.26679L8.21158 22.9736C8.47418 22.8696 8.77575 22.9762 8.91096 23.2258L9.93793 25.038C10.1069 25.3344 10.4839 25.4384 10.7803 25.2694C10.9103 25.194 11.0091 25.077 11.0585 24.9366L12.4521 20.904C11.4641 20.7506 10.5827 20.2046 10.0055 19.3908ZM20.5432 22.997L19.1678 19.019C18.2526 19.5572 17.1502 19.6716 16.1441 19.331H16.105C16.0661 19.331 16.0297 19.3492 16.0063 19.3804C15.4317 20.1942 14.5477 20.7402 13.5623 20.8936L14.9559 24.9262C15.0053 25.0666 15.1041 25.1836 15.2341 25.259C15.5278 25.428 15.9074 25.324 16.0765 25.0302L17.1034 23.2154C17.2412 22.9762 17.5324 22.8748 17.7898 22.9736L19.7242 23.7692C19.8646 23.8264 20.018 23.8316 20.161 23.7822C20.4834 23.6704 20.655 23.3194 20.5432 22.997Z" fill="url(#paint0_linear_7047_738)"/>
<defs>
<linearGradient id="paint0_linear_7047_738" x1="4.10156" y1="22.3174" x2="24.3238" y2="19.1477" gradientUnits="userSpaceOnUse">
<stop stop-color="#3AA0FF"/>
<stop offset="0.984375" stop-color="#53D0F7"/>
</linearGradient>
</defs>
</svg>
