<svg width="24" height="24" viewBox="0 0 24 24" fill="none" xmlns="http://www.w3.org/2000/svg">
<path d="M12.0016 3.81836C6.79496 3.81836 2.35512 9.18568 0.855723 11.2256C0.516842 11.6866 0.516842 12.3126 0.855723 12.7737C2.35512 14.8136 6.79496 20.1809 12.0016 20.1809C17.2082 20.1809 21.648 14.8136 23.1474 12.7737C23.4863 12.3126 23.4863 11.6866 23.1474 11.2256C21.648 9.18568 17.2082 3.81836 12.0016 3.81836ZM12.0016 17.8434C8.4953 17.8434 4.98903 14.3372 3.2359 11.9996C4.98903 9.66213 8.4953 6.15587 12.0016 6.15587C15.5078 6.15587 19.0141 9.66213 20.7672 11.9996C19.0141 14.3372 15.5078 17.8434 12.0016 17.8434Z" fill="white"/>
<path d="M11.9983 15.5065C13.9347 15.5065 15.5045 13.9367 15.5045 12.0003C15.5045 10.0639 13.9347 8.49414 11.9983 8.49414C10.0619 8.49414 8.49219 10.0639 8.49219 12.0003C8.49219 13.9367 10.0619 15.5065 11.9983 15.5065Z" fill="white"/>
</svg>
