<svg width="24" height="24" viewBox="0 0 24 24" fill="none" xmlns="http://www.w3.org/2000/svg">
<g clip-path="url(#clip0_7761_4598)">
<path d="M23.7909 5.47697L18.519 0.20513C18.2572 -0.0672607 17.7865 -0.0672139 17.5247 0.20513L12.2528 5.47697C12.0517 5.67807 11.9916 5.9805 12.1004 6.24324C12.2092 6.50597 12.4656 6.6773 12.75 6.6773H15.0594V23.296C15.0594 23.6843 15.3742 23.9992 15.7625 23.9992H20.2813C20.6696 23.9992 20.9844 23.6843 20.9844 23.296V6.6773H23.2938C23.5782 6.6773 23.8346 6.50597 23.9434 6.24324C24.0522 5.9805 23.992 5.67811 23.7909 5.47697Z" fill="white"/>
<path d="M12.7531 9.78979H8.23438C7.84606 9.78979 7.53125 10.1046 7.53125 10.4929V23.296C7.53125 23.6843 7.84606 23.9992 8.23438 23.9992H12.7531C13.1414 23.9992 13.4562 23.6843 13.4562 23.296V10.4929C13.4562 10.1046 13.1414 9.78979 12.7531 9.78979Z" fill="white"/>
<path d="M5.22188 15.8148H0.703125C0.314812 15.8148 0 16.1296 0 16.5179V23.296C0 23.6843 0.314812 23.9991 0.703125 23.9991H5.22188C5.61019 23.9991 5.925 23.6843 5.925 23.296V16.5179C5.925 16.1296 5.61019 15.8148 5.22188 15.8148Z" fill="white"/>
</g>
<defs>
<clipPath id="clip0_7761_4598">
<rect width="24" height="24" fill="white"/>
</clipPath>
</defs>
</svg>
