<svg width="608" height="248" viewBox="0 0 608 248" fill="none" xmlns="http://www.w3.org/2000/svg">
<g filter="url(#filter0_d_357_22291)">
<rect x="24.5" y="20" width="338" height="106" rx="20.6946" fill="#0D2F4F"/>
<path d="M49.4325 57V47.5455H52.978C53.7043 47.5455 54.3137 47.6809 54.8061 47.9517C55.3016 48.2225 55.6755 48.5949 55.9279 49.0689C56.1834 49.5398 56.3111 50.0753 56.3111 50.6754C56.3111 51.2817 56.1834 51.8203 55.9279 52.2912C55.6725 52.7621 55.2955 53.1329 54.7969 53.4038C54.2983 53.6715 53.6843 53.8054 52.9549 53.8054H50.6051V52.3974H52.7241C53.1488 52.3974 53.4966 52.3235 53.7674 52.1758C54.0382 52.0281 54.2383 51.8249 54.3675 51.5664C54.4999 51.3079 54.5661 51.0109 54.5661 50.6754C54.5661 50.34 54.4999 50.0445 54.3675 49.7891C54.2383 49.5336 54.0367 49.3351 53.7628 49.1935C53.492 49.0489 53.1426 48.9766 52.7148 48.9766H51.1452V57H49.4325ZM60.7164 57.1385C60.0239 57.1385 59.4237 56.9862 58.9159 56.6815C58.4081 56.3768 58.0142 55.9505 57.7341 55.4027C57.4571 54.8549 57.3186 54.2147 57.3186 53.4822C57.3186 52.7498 57.4571 52.1081 57.7341 51.5572C58.0142 51.0063 58.4081 50.5785 58.9159 50.2738C59.4237 49.9691 60.0239 49.8168 60.7164 49.8168C61.4088 49.8168 62.009 49.9691 62.5168 50.2738C63.0246 50.5785 63.417 51.0063 63.694 51.5572C63.974 52.1081 64.1141 52.7498 64.1141 53.4822C64.1141 54.2147 63.974 54.8549 63.694 55.4027C63.417 55.9505 63.0246 56.3768 62.5168 56.6815C62.009 56.9862 61.4088 57.1385 60.7164 57.1385ZM60.7256 55.7997C61.1011 55.7997 61.415 55.6966 61.6673 55.4904C61.9197 55.2811 62.1075 55.0011 62.2306 54.6502C62.3567 54.2994 62.4198 53.9085 62.4198 53.4776C62.4198 53.0437 62.3567 52.6513 62.2306 52.3004C62.1075 51.9465 61.9197 51.6649 61.6673 51.4556C61.415 51.2463 61.1011 51.1417 60.7256 51.1417C60.3409 51.1417 60.0208 51.2463 59.7654 51.4556C59.513 51.6649 59.3237 51.9465 59.1975 52.3004C59.0744 52.6513 59.0129 53.0437 59.0129 53.4776C59.0129 53.9085 59.0744 54.2994 59.1975 54.6502C59.3237 55.0011 59.513 55.2811 59.7654 55.4904C60.0208 55.6966 60.3409 55.7997 60.7256 55.7997ZM66.7928 57L64.7892 49.9091H66.4927L67.7392 54.8949H67.8038L69.0779 49.9091H70.763L72.0371 54.8672H72.1064L73.3343 49.9091H75.0424L73.0343 57H71.2939L69.9643 52.2081H69.8674L68.5378 57H66.7928ZM79.1453 57.1385C78.4344 57.1385 77.8204 56.9908 77.3034 56.6953C76.7894 56.3968 76.3939 55.9751 76.1169 55.4304C75.8399 54.8826 75.7014 54.2378 75.7014 53.4961C75.7014 52.7667 75.8399 52.1265 76.1169 51.5756C76.397 51.0217 76.7878 50.5908 77.2895 50.283C77.7912 49.9722 78.3805 49.8168 79.0576 49.8168C79.4946 49.8168 79.907 49.8875 80.2948 50.0291C80.6857 50.1676 81.0304 50.383 81.3289 50.6754C81.6305 50.9678 81.8675 51.3402 82.0399 51.7926C82.2122 52.242 82.2984 52.7775 82.2984 53.3991V53.9116H76.4862V52.7852H80.6965C80.6934 52.4651 80.6241 52.1804 80.4887 51.9311C80.3533 51.6787 80.164 51.4802 79.9209 51.3356C79.6808 51.1909 79.4008 51.1186 79.0807 51.1186C78.7391 51.1186 78.439 51.2017 78.1805 51.3679C77.922 51.531 77.7204 51.7464 77.5757 52.0142C77.4342 52.2789 77.3618 52.5697 77.3588 52.8867V53.87C77.3588 54.2824 77.4342 54.6364 77.585 54.9318C77.7358 55.2242 77.9466 55.4489 78.2174 55.6058C78.4883 55.7597 78.8052 55.8366 79.1684 55.8366C79.4115 55.8366 79.6316 55.8028 79.8286 55.7351C80.0255 55.6643 80.1963 55.5612 80.341 55.4258C80.4856 55.2904 80.5949 55.1226 80.6688 54.9226L82.2291 55.098C82.1307 55.5104 81.9429 55.8705 81.6659 56.1783C81.392 56.483 81.0412 56.7199 80.6134 56.8892C80.1856 57.0554 79.6962 57.1385 79.1453 57.1385ZM83.7122 57V49.9091H85.3326V51.0909H85.4064C85.5357 50.6816 85.7573 50.3661 86.0712 50.1445C86.3882 49.9199 86.7498 49.8075 87.1561 49.8075C87.2484 49.8075 87.3515 49.8121 87.4654 49.8214C87.5823 49.8275 87.6793 49.8383 87.7562 49.8537V51.391C87.6854 51.3664 87.5731 51.3448 87.4192 51.3263C87.2684 51.3048 87.1222 51.294 86.9806 51.294C86.676 51.294 86.402 51.3602 86.1589 51.4925C85.9189 51.6218 85.7296 51.8018 85.5911 52.0327C85.4526 52.2635 85.3833 52.5297 85.3833 52.8313V57H83.7122ZM92.165 57V47.5455H95.7843C96.4675 47.5455 97.0353 47.6532 97.4877 47.8686C97.9432 48.081 98.2833 48.3718 98.508 48.7411C98.7357 49.1104 98.8496 49.529 98.8496 49.9968C98.8496 50.3815 98.7757 50.7108 98.628 50.9847C98.4803 51.2556 98.2818 51.4756 98.0325 51.6449C97.7832 51.8142 97.5047 51.9357 97.1969 52.0096V52.1019C97.5324 52.1204 97.854 52.2235 98.1618 52.4112C98.4726 52.5959 98.7265 52.8575 98.9235 53.196C99.1204 53.5346 99.2189 53.9439 99.2189 54.424C99.2189 54.9134 99.1004 55.3535 98.8635 55.7443C98.6265 56.1321 98.2695 56.4383 97.7924 56.663C97.3154 56.8877 96.7153 57 95.992 57H92.165ZM93.8777 55.5689H95.7196C96.3413 55.5689 96.7891 55.4504 97.063 55.2134C97.34 54.9734 97.4785 54.6656 97.4785 54.2901C97.4785 54.0101 97.4093 53.7577 97.2708 53.533C97.1323 53.3053 96.9353 53.1268 96.6799 52.9975C96.4244 52.8652 96.1197 52.799 95.7658 52.799H93.8777V55.5689ZM93.8777 51.5664H95.5719C95.8674 51.5664 96.1336 51.5125 96.3706 51.4048C96.6075 51.294 96.7937 51.1386 96.9292 50.9386C97.0676 50.7354 97.1369 50.4954 97.1369 50.2184C97.1369 49.8522 97.0076 49.5505 96.7491 49.3136C96.4937 49.0766 96.1136 48.9581 95.6088 48.9581H93.8777V51.5664ZM102.422 47.5455V57H100.709V47.5455H102.422ZM107.501 57V47.5455H111.046C111.773 47.5455 112.382 47.6809 112.874 47.9517C113.37 48.2225 113.744 48.5949 113.996 49.0689C114.252 49.5398 114.379 50.0753 114.379 50.6754C114.379 51.2817 114.252 51.8203 113.996 52.2912C113.741 52.7621 113.364 53.1329 112.865 53.4038C112.367 53.6715 111.753 53.8054 111.023 53.8054H108.673V52.3974H110.792C111.217 52.3974 111.565 52.3235 111.836 52.1758C112.107 52.0281 112.307 51.8249 112.436 51.5664C112.568 51.3079 112.634 51.0109 112.634 50.6754C112.634 50.34 112.568 50.0445 112.436 49.7891C112.307 49.5336 112.105 49.3351 111.831 49.1935C111.56 49.0489 111.211 48.9766 110.783 48.9766H109.214V57H107.501ZM115.793 57V49.9091H117.414V51.0909H117.487C117.617 50.6816 117.838 50.3661 118.152 50.1445C118.469 49.9199 118.831 49.8075 119.237 49.8075C119.329 49.8075 119.433 49.8121 119.546 49.8214C119.663 49.8275 119.76 49.8383 119.837 49.8537V51.391C119.766 51.3664 119.654 51.3448 119.5 51.3263C119.349 51.3048 119.203 51.294 119.062 51.294C118.757 51.294 118.483 51.3602 118.24 51.4925C118 51.6218 117.811 51.8018 117.672 52.0327C117.534 52.2635 117.464 52.5297 117.464 52.8313V57H115.793ZM123.749 57.1385C123.056 57.1385 122.456 56.9862 121.948 56.6815C121.44 56.3768 121.046 55.9505 120.766 55.4027C120.489 54.8549 120.351 54.2147 120.351 53.4822C120.351 52.7498 120.489 52.1081 120.766 51.5572C121.046 51.0063 121.44 50.5785 121.948 50.2738C122.456 49.9691 123.056 49.8168 123.749 49.8168C124.441 49.8168 125.041 49.9691 125.549 50.2738C126.057 50.5785 126.449 51.0063 126.726 51.5572C127.006 52.1081 127.146 52.7498 127.146 53.4822C127.146 54.2147 127.006 54.8549 126.726 55.4027C126.449 55.9505 126.057 56.3768 125.549 56.6815C125.041 56.9862 124.441 57.1385 123.749 57.1385ZM123.758 55.7997C124.133 55.7997 124.447 55.6966 124.7 55.4904C124.952 55.2811 125.14 55.0011 125.263 54.6502C125.389 54.2994 125.452 53.9085 125.452 53.4776C125.452 53.0437 125.389 52.6513 125.263 52.3004C125.14 51.9465 124.952 51.6649 124.7 51.4556C124.447 51.2463 124.133 51.1417 123.758 51.1417C123.373 51.1417 123.053 51.2463 122.798 51.4556C122.545 51.6649 122.356 51.9465 122.23 52.3004C122.107 52.6513 122.045 53.0437 122.045 53.4776C122.045 53.9085 122.107 54.2994 122.23 54.6502C122.356 55.0011 122.545 55.2811 122.798 55.4904C123.053 55.6966 123.373 55.7997 123.758 55.7997ZM131.863 57V47.5455H133.576V55.5643H137.74V57H131.863ZM139.153 57V49.9091H140.824V57H139.153ZM139.993 48.9027C139.728 48.9027 139.5 48.815 139.31 48.6396C139.119 48.4611 139.023 48.2472 139.023 47.9979C139.023 47.7455 139.119 47.5316 139.31 47.3562C139.5 47.1777 139.728 47.0884 139.993 47.0884C140.261 47.0884 140.488 47.1777 140.676 47.3562C140.867 47.5316 140.962 47.7455 140.962 47.9979C140.962 48.2472 140.867 48.4611 140.676 48.6396C140.488 48.815 140.261 48.9027 139.993 48.9027ZM145.635 57.1385C144.927 57.1385 144.32 56.9831 143.812 56.6722C143.307 56.3614 142.918 55.9321 142.644 55.3842C142.373 54.8333 142.238 54.1993 142.238 53.4822C142.238 52.7621 142.376 52.1265 142.653 51.5756C142.93 51.0217 143.321 50.5908 143.826 50.283C144.333 49.9722 144.934 49.8168 145.626 49.8168C146.202 49.8168 146.711 49.9229 147.154 50.1353C147.6 50.3446 147.956 50.6416 148.221 51.0263C148.485 51.4079 148.636 51.8542 148.673 52.3651H147.076C147.011 52.0234 146.857 51.7388 146.614 51.511C146.374 51.2802 146.052 51.1648 145.649 51.1648C145.308 51.1648 145.007 51.2571 144.749 51.4418C144.49 51.6233 144.289 51.8849 144.144 52.2266C144.003 52.5682 143.932 52.9775 143.932 53.4545C143.932 53.9377 144.003 54.3532 144.144 54.701C144.286 55.0457 144.484 55.3119 144.74 55.4996C144.998 55.6843 145.301 55.7766 145.649 55.7766C145.895 55.7766 146.115 55.7305 146.309 55.6381C146.506 55.5427 146.671 55.4058 146.803 55.2273C146.936 55.0488 147.026 54.8318 147.076 54.5763H148.673C148.633 55.078 148.485 55.5227 148.23 55.9105C147.974 56.2952 147.627 56.5968 147.186 56.8153C146.746 57.0308 146.229 57.1385 145.635 57.1385ZM153.184 57.1385C152.473 57.1385 151.859 56.9908 151.342 56.6953C150.828 56.3968 150.433 55.9751 150.156 55.4304C149.879 54.8826 149.741 54.2378 149.741 53.4961C149.741 52.7667 149.879 52.1265 150.156 51.5756C150.436 51.0217 150.827 50.5908 151.329 50.283C151.83 49.9722 152.42 49.8168 153.097 49.8168C153.534 49.8168 153.946 49.8875 154.334 50.0291C154.725 50.1676 155.069 50.383 155.368 50.6754C155.67 50.9678 155.907 51.3402 156.079 51.7926C156.251 52.242 156.337 52.7775 156.337 53.3991V53.9116H150.525V52.7852H154.736C154.732 52.4651 154.663 52.1804 154.528 51.9311C154.392 51.6787 154.203 51.4802 153.96 51.3356C153.72 51.1909 153.44 51.1186 153.12 51.1186C152.778 51.1186 152.478 51.2017 152.22 51.3679C151.961 51.531 151.759 51.7464 151.615 52.0142C151.473 52.2789 151.401 52.5697 151.398 52.8867V53.87C151.398 54.2824 151.473 54.6364 151.624 54.9318C151.775 55.2242 151.986 55.4489 152.256 55.6058C152.527 55.7597 152.844 55.8366 153.207 55.8366C153.451 55.8366 153.671 55.8028 153.868 55.7351C154.065 55.6643 154.235 55.5612 154.38 55.4258C154.525 55.2904 154.634 55.1226 154.708 54.9226L156.268 55.098C156.17 55.5104 155.982 55.8705 155.705 56.1783C155.431 56.483 155.08 56.7199 154.652 56.8892C154.225 57.0554 153.735 57.1385 153.184 57.1385ZM159.422 52.8452V57H157.751V49.9091H159.349V51.114H159.432C159.595 50.717 159.855 50.4015 160.212 50.1676C160.572 49.9337 161.017 49.8168 161.546 49.8168C162.035 49.8168 162.462 49.9214 162.825 50.1307C163.191 50.34 163.474 50.6431 163.674 51.0401C163.877 51.4371 163.977 51.9188 163.974 52.4851V57H162.303V52.7436C162.303 52.2696 162.18 51.8988 161.934 51.631C161.691 51.3633 161.354 51.2294 160.923 51.2294C160.63 51.2294 160.37 51.294 160.143 51.4233C159.918 51.5495 159.741 51.7326 159.612 51.9727C159.485 52.2127 159.422 52.5036 159.422 52.8452ZM171.278 51.7834L169.754 51.9496C169.711 51.7957 169.636 51.651 169.528 51.5156C169.423 51.3802 169.282 51.271 169.103 51.1879C168.925 51.1048 168.706 51.0632 168.448 51.0632C168.1 51.0632 167.807 51.1386 167.57 51.2894C167.337 51.4402 167.221 51.6357 167.224 51.8757C167.221 52.0819 167.297 52.2496 167.45 52.3789C167.607 52.5082 167.866 52.6143 168.226 52.6974L169.436 52.956C170.106 53.1006 170.605 53.3299 170.931 53.6438C171.261 53.9577 171.427 54.3686 171.43 54.8764C171.427 55.3227 171.296 55.7166 171.037 56.0582C170.782 56.3968 170.427 56.6615 169.971 56.8523C169.516 57.0431 168.992 57.1385 168.401 57.1385C167.534 57.1385 166.835 56.9569 166.306 56.5938C165.776 56.2275 165.461 55.7182 165.359 55.0657L166.989 54.9087C167.063 55.2288 167.22 55.4704 167.46 55.6335C167.7 55.7966 168.012 55.8782 168.397 55.8782C168.794 55.8782 169.112 55.7966 169.352 55.6335C169.596 55.4704 169.717 55.2688 169.717 55.0288C169.717 54.8256 169.639 54.6579 169.482 54.5256C169.328 54.3932 169.088 54.2917 168.762 54.2209L167.552 53.967C166.872 53.8254 166.369 53.5869 166.042 53.2514C165.716 52.9129 165.555 52.4851 165.558 51.968C165.555 51.531 165.673 51.1525 165.913 50.8324C166.156 50.5092 166.493 50.2599 166.924 50.0845C167.358 49.906 167.858 49.8168 168.425 49.8168C169.256 49.8168 169.91 49.9937 170.387 50.3477C170.867 50.7016 171.164 51.1802 171.278 51.7834ZM175.947 57.1385C175.236 57.1385 174.622 56.9908 174.105 56.6953C173.591 56.3968 173.196 55.9751 172.919 55.4304C172.642 54.8826 172.503 54.2378 172.503 53.4961C172.503 52.7667 172.642 52.1265 172.919 51.5756C173.199 51.0217 173.59 50.5908 174.091 50.283C174.593 49.9722 175.182 49.8168 175.859 49.8168C176.296 49.8168 176.709 49.8875 177.097 50.0291C177.487 50.1676 177.832 50.383 178.131 50.6754C178.432 50.9678 178.669 51.3402 178.842 51.7926C179.014 52.242 179.1 52.7775 179.1 53.3991V53.9116H173.288V52.7852H177.498C177.495 52.4651 177.426 52.1804 177.29 51.9311C177.155 51.6787 176.966 51.4802 176.723 51.3356C176.483 51.1909 176.203 51.1186 175.882 51.1186C175.541 51.1186 175.241 51.2017 174.982 51.3679C174.724 51.531 174.522 51.7464 174.377 52.0142C174.236 52.2789 174.164 52.5697 174.161 52.8867V53.87C174.161 54.2824 174.236 54.6364 174.387 54.9318C174.538 55.2242 174.748 55.4489 175.019 55.6058C175.29 55.7597 175.607 55.8366 175.97 55.8366C176.213 55.8366 176.433 55.8028 176.63 55.7351C176.827 55.6643 176.998 55.5612 177.143 55.4258C177.287 55.2904 177.397 55.1226 177.471 54.9226L179.031 55.098C178.932 55.5104 178.745 55.8705 178.468 56.1783C178.194 56.483 177.843 56.7199 177.415 56.8892C176.987 57.0554 176.498 57.1385 175.947 57.1385Z" fill="white" fill-opacity="0.6"/>
<path d="M58.1349 95.4474C56.4247 95.4408 54.9531 95.0199 53.7202 94.1847C52.4938 93.3494 51.5492 92.1397 50.8864 90.5554C50.2301 88.9711 49.9053 87.0653 49.9119 84.8381C49.9119 82.6174 50.2401 80.7249 50.8963 79.1605C51.5592 77.5961 52.5038 76.4062 53.7301 75.5909C54.9631 74.7689 56.4313 74.358 58.1349 74.358C59.8385 74.358 61.3035 74.7689 62.5298 75.5909C63.7628 76.4129 64.7107 77.6061 65.3736 79.1705C66.0365 80.7282 66.3646 82.6174 66.358 84.8381C66.358 87.072 66.0265 88.9811 65.3636 90.5653C64.7074 92.1496 63.7661 93.3594 62.5398 94.1946C61.3134 95.0298 59.8452 95.4474 58.1349 95.4474ZM58.1349 91.8778C59.3016 91.8778 60.233 91.2912 60.929 90.1179C61.625 88.9446 61.9697 87.1847 61.9631 84.8381C61.9631 83.2936 61.804 82.0076 61.4858 80.9801C61.1742 79.9527 60.7301 79.1804 60.1534 78.6634C59.5833 78.1463 58.9105 77.8878 58.1349 77.8878C56.9749 77.8878 56.0469 78.4678 55.3509 79.6278C54.6548 80.7879 54.3035 82.5246 54.2969 84.8381C54.2969 86.4025 54.4527 87.7083 54.7642 88.7557C55.0824 89.7964 55.5298 90.5786 56.1065 91.1023C56.6832 91.6193 57.3594 91.8778 58.1349 91.8778ZM78.2873 74.6364V95H73.9819V78.723H73.8626L69.1992 81.6463V77.8281L74.2404 74.6364H78.2873Z" fill="white"/>
<rect x="270.5" y="56.5" width="68" height="33" rx="8" fill="#00D4FF"/>
<path d="M284.812 78.5H282.843L286.428 68.3182H288.705L292.294 78.5H290.325L287.606 70.4062H287.526L284.812 78.5ZM284.876 74.5078H290.246V75.9893H284.876V74.5078ZM296.654 78.6491C295.892 78.6491 295.237 78.4818 294.69 78.147C294.147 77.8123 293.728 77.3499 293.433 76.7599C293.141 76.1667 292.995 75.4839 292.995 74.7116C292.995 73.9361 293.144 73.2517 293.442 72.6584C293.741 72.0618 294.162 71.5978 294.705 71.2663C295.252 70.9316 295.898 70.7642 296.644 70.7642C297.264 70.7642 297.813 70.8786 298.29 71.1072C298.77 71.3326 299.153 71.6525 299.438 72.0668C299.723 72.4777 299.886 72.9583 299.925 73.5085H298.205C298.136 73.1406 297.97 72.834 297.708 72.5888C297.45 72.3402 297.103 72.2159 296.669 72.2159C296.301 72.2159 295.978 72.3153 295.7 72.5142C295.421 72.7098 295.204 72.9915 295.048 73.3594C294.896 73.7273 294.82 74.1681 294.82 74.6818C294.82 75.2022 294.896 75.6496 295.048 76.0241C295.201 76.3954 295.415 76.6821 295.69 76.8842C295.968 77.0831 296.295 77.1825 296.669 77.1825C296.934 77.1825 297.171 77.1328 297.38 77.0334C297.592 76.9306 297.769 76.7831 297.912 76.5909C298.054 76.3987 298.152 76.165 298.205 75.8899H299.925C299.882 76.4302 299.723 76.9091 299.448 77.3267C299.173 77.741 298.799 78.0658 298.325 78.3011C297.851 78.5331 297.294 78.6491 296.654 78.6491ZM305.216 70.8636V72.2557H300.827V70.8636H305.216ZM301.91 69.0341H303.71V76.2031C303.71 76.4451 303.747 76.6307 303.819 76.7599C303.896 76.8859 303.995 76.9721 304.118 77.0185C304.24 77.0649 304.376 77.0881 304.525 77.0881C304.638 77.0881 304.741 77.0798 304.834 77.0632C304.93 77.0466 305.003 77.0317 305.052 77.0185L305.356 78.4254C305.26 78.4586 305.122 78.495 304.943 78.5348C304.767 78.5746 304.552 78.5978 304.297 78.6044C303.846 78.6177 303.44 78.5497 303.079 78.4006C302.717 78.2481 302.431 78.0128 302.219 77.6946C302.01 77.3764 301.907 76.9787 301.91 76.5014V69.0341ZM306.722 78.5V70.8636H308.521V78.5H306.722ZM307.626 69.7798C307.341 69.7798 307.096 69.6854 306.891 69.4964C306.685 69.3042 306.582 69.0739 306.582 68.8054C306.582 68.5336 306.685 68.3033 306.891 68.1143C307.096 67.9221 307.341 67.826 307.626 67.826C307.915 67.826 308.16 67.9221 308.362 68.1143C308.568 68.3033 308.67 68.5336 308.67 68.8054C308.67 69.0739 308.568 69.3042 308.362 69.4964C308.16 69.6854 307.915 69.7798 307.626 69.7798ZM317.193 70.8636L314.474 78.5H312.485L309.765 70.8636H311.684L313.439 76.5362H313.519L315.279 70.8636H317.193ZM321.559 78.6491C320.794 78.6491 320.132 78.4901 319.576 78.1719C319.022 77.8504 318.596 77.3963 318.298 76.8097C318 76.2197 317.85 75.5253 317.85 74.7266C317.85 73.9411 318 73.2517 318.298 72.6584C318.6 72.0618 319.02 71.5978 319.561 71.2663C320.101 70.9316 320.736 70.7642 321.465 70.7642C321.935 70.7642 322.38 70.8404 322.797 70.9929C323.218 71.142 323.589 71.3741 323.911 71.6889C324.236 72.0038 324.491 72.4048 324.676 72.892C324.862 73.3759 324.955 73.9527 324.955 74.6222V75.174H318.696V73.9609H323.23C323.226 73.6162 323.152 73.3097 323.006 73.0412C322.86 72.7694 322.656 72.5556 322.395 72.3999C322.136 72.2441 321.834 72.1662 321.49 72.1662C321.122 72.1662 320.799 72.2557 320.52 72.4347C320.242 72.6103 320.025 72.8423 319.869 73.1307C319.717 73.4157 319.639 73.7289 319.635 74.0703V75.1293C319.635 75.5734 319.717 75.9545 319.879 76.2727C320.041 76.5876 320.268 76.8295 320.56 76.9986C320.852 77.1643 321.193 77.2472 321.584 77.2472C321.846 77.2472 322.083 77.2107 322.295 77.1378C322.507 77.0616 322.691 76.9505 322.847 76.8047C323.003 76.6589 323.12 76.4782 323.2 76.2628L324.88 76.4517C324.774 76.8958 324.572 77.2836 324.274 77.6151C323.979 77.9432 323.601 78.1984 323.14 78.3807C322.68 78.5597 322.153 78.6491 321.559 78.6491Z" fill="#0D2F4F"/>
</g>
<g filter="url(#filter1_d_357_22291)">
<rect x="245.5" y="114" width="338" height="106" rx="20.6946" fill="#0D2F4F"/>
<path d="M270.433 151V141.545H273.978C274.704 141.545 275.314 141.681 275.806 141.952C276.302 142.223 276.676 142.595 276.928 143.069C277.183 143.54 277.311 144.075 277.311 144.675C277.311 145.282 277.183 145.82 276.928 146.291C276.672 146.762 276.295 147.133 275.797 147.404C275.298 147.672 274.684 147.805 273.955 147.805H271.605V146.397H273.724C274.149 146.397 274.497 146.324 274.767 146.176C275.038 146.028 275.238 145.825 275.368 145.566C275.5 145.308 275.566 145.011 275.566 144.675C275.566 144.34 275.5 144.045 275.368 143.789C275.238 143.534 275.037 143.335 274.763 143.194C274.492 143.049 274.143 142.977 273.715 142.977H272.145V151H270.433ZM281.716 151.138C281.024 151.138 280.424 150.986 279.916 150.681C279.408 150.377 279.014 149.951 278.734 149.403C278.457 148.855 278.319 148.215 278.319 147.482C278.319 146.75 278.457 146.108 278.734 145.557C279.014 145.006 279.408 144.578 279.916 144.274C280.424 143.969 281.024 143.817 281.716 143.817C282.409 143.817 283.009 143.969 283.517 144.274C284.025 144.578 284.417 145.006 284.694 145.557C284.974 146.108 285.114 146.75 285.114 147.482C285.114 148.215 284.974 148.855 284.694 149.403C284.417 149.951 284.025 150.377 283.517 150.681C283.009 150.986 282.409 151.138 281.716 151.138ZM281.726 149.8C282.101 149.8 282.415 149.697 282.667 149.49C282.92 149.281 283.107 149.001 283.231 148.65C283.357 148.299 283.42 147.908 283.42 147.478C283.42 147.044 283.357 146.651 283.231 146.3C283.107 145.946 282.92 145.665 282.667 145.456C282.415 145.246 282.101 145.142 281.726 145.142C281.341 145.142 281.021 145.246 280.765 145.456C280.513 145.665 280.324 145.946 280.198 146.3C280.074 146.651 280.013 147.044 280.013 147.478C280.013 147.908 280.074 148.299 280.198 148.65C280.324 149.001 280.513 149.281 280.765 149.49C281.021 149.697 281.341 149.8 281.726 149.8ZM287.793 151L285.789 143.909H287.493L288.739 148.895H288.804L290.078 143.909H291.763L293.037 148.867H293.106L294.334 143.909H296.042L294.034 151H292.294L290.964 146.208H290.867L289.538 151H287.793ZM300.145 151.138C299.434 151.138 298.82 150.991 298.303 150.695C297.789 150.397 297.394 149.975 297.117 149.43C296.84 148.883 296.701 148.238 296.701 147.496C296.701 146.767 296.84 146.127 297.117 145.576C297.397 145.022 297.788 144.591 298.29 144.283C298.791 143.972 299.381 143.817 300.058 143.817C300.495 143.817 300.907 143.888 301.295 144.029C301.686 144.168 302.03 144.383 302.329 144.675C302.631 144.968 302.868 145.34 303.04 145.793C303.212 146.242 303.298 146.777 303.298 147.399V147.912H297.486V146.785H301.696C301.693 146.465 301.624 146.18 301.489 145.931C301.353 145.679 301.164 145.48 300.921 145.336C300.681 145.191 300.401 145.119 300.081 145.119C299.739 145.119 299.439 145.202 299.18 145.368C298.922 145.531 298.72 145.746 298.576 146.014C298.434 146.279 298.362 146.57 298.359 146.887V147.87C298.359 148.282 298.434 148.636 298.585 148.932C298.736 149.224 298.947 149.449 299.217 149.606C299.488 149.76 299.805 149.837 300.168 149.837C300.412 149.837 300.632 149.803 300.829 149.735C301.026 149.664 301.196 149.561 301.341 149.426C301.486 149.29 301.595 149.123 301.669 148.923L303.229 149.098C303.131 149.51 302.943 149.871 302.666 150.178C302.392 150.483 302.041 150.72 301.613 150.889C301.186 151.055 300.696 151.138 300.145 151.138ZM304.712 151V143.909H306.333V145.091H306.406C306.536 144.682 306.757 144.366 307.071 144.145C307.388 143.92 307.75 143.808 308.156 143.808C308.248 143.808 308.352 143.812 308.465 143.821C308.582 143.828 308.679 143.838 308.756 143.854V145.391C308.685 145.366 308.573 145.345 308.419 145.326C308.268 145.305 308.122 145.294 307.981 145.294C307.676 145.294 307.402 145.36 307.159 145.493C306.919 145.622 306.73 145.802 306.591 146.033C306.453 146.263 306.383 146.53 306.383 146.831V151H304.712ZM313.165 151V141.545H316.784C317.468 141.545 318.035 141.653 318.488 141.869C318.943 142.081 319.283 142.372 319.508 142.741C319.736 143.11 319.85 143.529 319.85 143.997C319.85 144.382 319.776 144.711 319.628 144.985C319.48 145.256 319.282 145.476 319.032 145.645C318.783 145.814 318.505 145.936 318.197 146.01V146.102C318.532 146.12 318.854 146.223 319.162 146.411C319.473 146.596 319.727 146.857 319.923 147.196C320.12 147.535 320.219 147.944 320.219 148.424C320.219 148.913 320.1 149.353 319.863 149.744C319.626 150.132 319.269 150.438 318.792 150.663C318.315 150.888 317.715 151 316.992 151H313.165ZM314.878 149.569H316.72C317.341 149.569 317.789 149.45 318.063 149.213C318.34 148.973 318.479 148.666 318.479 148.29C318.479 148.01 318.409 147.758 318.271 147.533C318.132 147.305 317.935 147.127 317.68 146.998C317.424 146.865 317.12 146.799 316.766 146.799H314.878V149.569ZM314.878 145.566H316.572C316.867 145.566 317.134 145.513 317.371 145.405C317.608 145.294 317.794 145.139 317.929 144.939C318.068 144.735 318.137 144.495 318.137 144.218C318.137 143.852 318.008 143.551 317.749 143.314C317.494 143.077 317.114 142.958 316.609 142.958H314.878V145.566ZM323.422 141.545V151H321.709V141.545H323.422ZM328.501 151V141.545H334.65V142.981H330.214V145.548H334.331V146.984H330.214V149.564H334.687V151H328.501ZM336.324 151V143.909H337.921V145.114H338.004C338.152 144.708 338.396 144.391 338.738 144.163C339.08 143.932 339.487 143.817 339.961 143.817C340.441 143.817 340.846 143.934 341.175 144.168C341.508 144.398 341.742 144.714 341.877 145.114H341.951C342.108 144.72 342.373 144.406 342.745 144.172C343.121 143.935 343.565 143.817 344.079 143.817C344.732 143.817 345.264 144.023 345.676 144.435C346.089 144.848 346.295 145.449 346.295 146.24V151H344.619V146.499C344.619 146.059 344.502 145.737 344.268 145.534C344.035 145.328 343.748 145.225 343.41 145.225C343.007 145.225 342.691 145.351 342.463 145.603C342.239 145.853 342.126 146.177 342.126 146.577V151H340.488V146.43C340.488 146.063 340.377 145.771 340.155 145.553C339.937 145.334 339.65 145.225 339.297 145.225C339.056 145.225 338.838 145.286 338.641 145.409C338.444 145.529 338.287 145.7 338.17 145.922C338.053 146.14 337.995 146.396 337.995 146.688V151H336.324ZM348.064 151V141.545H349.736V145.082H349.805C349.891 144.909 350.013 144.726 350.169 144.532C350.326 144.335 350.539 144.168 350.807 144.029C351.074 143.888 351.416 143.817 351.831 143.817C352.379 143.817 352.873 143.957 353.313 144.237C353.756 144.514 354.107 144.925 354.366 145.469C354.627 146.011 354.758 146.676 354.758 147.464C354.758 148.242 354.631 148.904 354.375 149.449C354.12 149.994 353.772 150.409 353.332 150.695C352.892 150.982 352.393 151.125 351.836 151.125C351.43 151.125 351.093 151.057 350.825 150.922C350.557 150.786 350.342 150.623 350.179 150.432C350.019 150.238 349.894 150.055 349.805 149.883H349.708V151H348.064ZM349.703 147.455C349.703 147.913 349.768 148.315 349.897 148.659C350.029 149.004 350.219 149.273 350.465 149.467C350.714 149.658 351.016 149.754 351.37 149.754C351.739 149.754 352.048 149.655 352.298 149.458C352.547 149.258 352.735 148.986 352.861 148.641C352.99 148.293 353.055 147.898 353.055 147.455C353.055 147.014 352.992 146.624 352.866 146.282C352.739 145.94 352.552 145.673 352.302 145.479C352.053 145.285 351.742 145.188 351.37 145.188C351.013 145.188 350.71 145.282 350.46 145.469C350.211 145.657 350.022 145.92 349.892 146.259C349.766 146.597 349.703 146.996 349.703 147.455ZM359.318 151.138C358.607 151.138 357.993 150.991 357.476 150.695C356.962 150.397 356.567 149.975 356.29 149.43C356.013 148.883 355.874 148.238 355.874 147.496C355.874 146.767 356.013 146.127 356.29 145.576C356.57 145.022 356.961 144.591 357.462 144.283C357.964 143.972 358.553 143.817 359.23 143.817C359.667 143.817 360.08 143.888 360.468 144.029C360.859 144.168 361.203 144.383 361.502 144.675C361.803 144.968 362.04 145.34 362.213 145.793C362.385 146.242 362.471 146.777 362.471 147.399V147.912H356.659V146.785H360.869C360.866 146.465 360.797 146.18 360.662 145.931C360.526 145.679 360.337 145.48 360.094 145.336C359.854 145.191 359.574 145.119 359.254 145.119C358.912 145.119 358.612 145.202 358.353 145.368C358.095 145.531 357.893 145.746 357.749 146.014C357.607 146.279 357.535 146.57 357.532 146.887V147.87C357.532 148.282 357.607 148.636 357.758 148.932C357.909 149.224 358.119 149.449 358.39 149.606C358.661 149.76 358.978 149.837 359.341 149.837C359.584 149.837 359.804 149.803 360.001 149.735C360.198 149.664 360.369 149.561 360.514 149.426C360.658 149.29 360.768 149.123 360.842 148.923L362.402 149.098C362.304 149.51 362.116 149.871 361.839 150.178C361.565 150.483 361.214 150.72 360.786 150.889C360.358 151.055 359.869 151.138 359.318 151.138ZM366.516 151.125C365.959 151.125 365.461 150.982 365.021 150.695C364.581 150.409 364.233 149.994 363.977 149.449C363.722 148.904 363.594 148.242 363.594 147.464C363.594 146.676 363.723 146.011 363.982 145.469C364.244 144.925 364.596 144.514 365.039 144.237C365.482 143.957 365.976 143.817 366.521 143.817C366.937 143.817 367.278 143.888 367.546 144.029C367.814 144.168 368.026 144.335 368.183 144.532C368.34 144.726 368.462 144.909 368.548 145.082H368.617V141.545H370.293V151H368.649V149.883H368.548C368.462 150.055 368.337 150.238 368.174 150.432C368.011 150.623 367.795 150.786 367.527 150.922C367.26 151.057 366.923 151.125 366.516 151.125ZM366.983 149.754C367.337 149.754 367.638 149.658 367.888 149.467C368.137 149.273 368.326 149.004 368.455 148.659C368.585 148.315 368.649 147.913 368.649 147.455C368.649 146.996 368.585 146.597 368.455 146.259C368.329 145.92 368.141 145.657 367.892 145.469C367.646 145.282 367.343 145.188 366.983 145.188C366.61 145.188 366.299 145.285 366.05 145.479C365.801 145.673 365.613 145.94 365.487 146.282C365.361 146.624 365.298 147.014 365.298 147.455C365.298 147.898 365.361 148.293 365.487 148.641C365.616 148.986 365.805 149.258 366.055 149.458C366.307 149.655 366.616 149.754 366.983 149.754ZM374.705 151.125C374.148 151.125 373.649 150.982 373.209 150.695C372.769 150.409 372.421 149.994 372.166 149.449C371.91 148.904 371.783 148.242 371.783 147.464C371.783 146.676 371.912 146.011 372.17 145.469C372.432 144.925 372.784 144.514 373.228 144.237C373.671 143.957 374.165 143.817 374.71 143.817C375.125 143.817 375.467 143.888 375.734 144.029C376.002 144.168 376.214 144.335 376.371 144.532C376.528 144.726 376.65 144.909 376.736 145.082H376.805V141.545H378.481V151H376.838V149.883H376.736C376.65 150.055 376.525 150.238 376.362 150.432C376.199 150.623 375.984 150.786 375.716 150.922C375.448 151.057 375.111 151.125 374.705 151.125ZM375.171 149.754C375.525 149.754 375.827 149.658 376.076 149.467C376.325 149.273 376.515 149.004 376.644 148.659C376.773 148.315 376.838 147.913 376.838 147.455C376.838 146.996 376.773 146.597 376.644 146.259C376.518 145.92 376.33 145.657 376.081 145.469C375.834 145.282 375.531 145.188 375.171 145.188C374.799 145.188 374.488 145.285 374.239 145.479C373.989 145.673 373.802 145.94 373.675 146.282C373.549 146.624 373.486 147.014 373.486 147.455C373.486 147.898 373.549 148.293 373.675 148.641C373.805 148.986 373.994 149.258 374.243 149.458C374.496 149.655 374.805 149.754 375.171 149.754ZM383.401 151.138C382.69 151.138 382.076 150.991 381.559 150.695C381.045 150.397 380.65 149.975 380.373 149.43C380.096 148.883 379.957 148.238 379.957 147.496C379.957 146.767 380.096 146.127 380.373 145.576C380.653 145.022 381.044 144.591 381.545 144.283C382.047 143.972 382.636 143.817 383.313 143.817C383.751 143.817 384.163 143.888 384.551 144.029C384.942 144.168 385.286 144.383 385.585 144.675C385.886 144.968 386.123 145.34 386.296 145.793C386.468 146.242 386.554 146.777 386.554 147.399V147.912H380.742V146.785H384.952C384.949 146.465 384.88 146.18 384.745 145.931C384.609 145.679 384.42 145.48 384.177 145.336C383.937 145.191 383.657 145.119 383.337 145.119C382.995 145.119 382.695 145.202 382.436 145.368C382.178 145.531 381.976 145.746 381.832 146.014C381.69 146.279 381.618 146.57 381.615 146.887V147.87C381.615 148.282 381.69 148.636 381.841 148.932C381.992 149.224 382.202 149.449 382.473 149.606C382.744 149.76 383.061 149.837 383.424 149.837C383.667 149.837 383.887 149.803 384.084 149.735C384.281 149.664 384.452 149.561 384.597 149.426C384.742 149.29 384.851 149.123 384.925 148.923L386.485 149.098C386.387 149.51 386.199 149.871 385.922 150.178C385.648 150.483 385.297 150.72 384.869 150.889C384.441 151.055 383.952 151.138 383.401 151.138ZM390.599 151.125C390.042 151.125 389.544 150.982 389.104 150.695C388.664 150.409 388.316 149.994 388.06 149.449C387.805 148.904 387.677 148.242 387.677 147.464C387.677 146.676 387.806 146.011 388.065 145.469C388.327 144.925 388.679 144.514 389.122 144.237C389.565 143.957 390.059 143.817 390.604 143.817C391.02 143.817 391.361 143.888 391.629 144.029C391.897 144.168 392.109 144.335 392.266 144.532C392.423 144.726 392.545 144.909 392.631 145.082H392.7V141.545H394.376V151H392.732V149.883H392.631C392.545 150.055 392.42 150.238 392.257 150.432C392.094 150.623 391.878 150.786 391.61 150.922C391.343 151.057 391.006 151.125 390.599 151.125ZM391.066 149.754C391.42 149.754 391.721 149.658 391.971 149.467C392.22 149.273 392.409 149.004 392.538 148.659C392.668 148.315 392.732 147.913 392.732 147.455C392.732 146.996 392.668 146.597 392.538 146.259C392.412 145.92 392.224 145.657 391.975 145.469C391.729 145.282 391.426 145.188 391.066 145.188C390.693 145.188 390.382 145.285 390.133 145.479C389.884 145.673 389.696 145.94 389.57 146.282C389.444 146.624 389.381 147.014 389.381 147.455C389.381 147.898 389.444 148.293 389.57 148.641C389.699 148.986 389.888 149.258 390.138 149.458C390.39 149.655 390.699 149.754 391.066 149.754ZM400.669 151H398.841L402.169 141.545H404.284L407.617 151H405.789L403.264 143.484H403.19L400.669 151ZM400.729 147.293H405.715V148.669H400.729V147.293ZM410.575 141.545V151H408.862V141.545H410.575ZM415.654 151V141.545H417.367V149.564H421.531V151H415.654ZM422.944 151V143.909H424.615V151H422.944ZM423.784 142.903C423.519 142.903 423.291 142.815 423.101 142.64C422.91 142.461 422.814 142.247 422.814 141.998C422.814 141.746 422.91 141.532 423.101 141.356C423.291 141.178 423.519 141.088 423.784 141.088C424.052 141.088 424.279 141.178 424.467 141.356C424.658 141.532 424.753 141.746 424.753 141.998C424.753 142.247 424.658 142.461 424.467 142.64C424.279 142.815 424.052 142.903 423.784 142.903ZM429.426 151.138C428.718 151.138 428.111 150.983 427.603 150.672C427.098 150.361 426.709 149.932 426.435 149.384C426.164 148.833 426.029 148.199 426.029 147.482C426.029 146.762 426.167 146.127 426.444 145.576C426.721 145.022 427.112 144.591 427.617 144.283C428.124 143.972 428.725 143.817 429.417 143.817C429.993 143.817 430.502 143.923 430.945 144.135C431.391 144.345 431.747 144.642 432.012 145.026C432.276 145.408 432.427 145.854 432.464 146.365H430.867C430.802 146.023 430.648 145.739 430.405 145.511C430.165 145.28 429.843 145.165 429.44 145.165C429.099 145.165 428.798 145.257 428.54 145.442C428.281 145.623 428.08 145.885 427.935 146.227C427.794 146.568 427.723 146.978 427.723 147.455C427.723 147.938 427.794 148.353 427.935 148.701C428.077 149.046 428.275 149.312 428.531 149.5C428.789 149.684 429.092 149.777 429.44 149.777C429.686 149.777 429.906 149.73 430.1 149.638C430.297 149.543 430.462 149.406 430.594 149.227C430.727 149.049 430.817 148.832 430.867 148.576H432.464C432.424 149.078 432.276 149.523 432.021 149.911C431.765 150.295 431.418 150.597 430.977 150.815C430.537 151.031 430.02 151.138 429.426 151.138ZM436.975 151.138C436.264 151.138 435.65 150.991 435.133 150.695C434.619 150.397 434.224 149.975 433.947 149.43C433.67 148.883 433.532 148.238 433.532 147.496C433.532 146.767 433.67 146.127 433.947 145.576C434.227 145.022 434.618 144.591 435.12 144.283C435.621 143.972 436.211 143.817 436.888 143.817C437.325 143.817 437.737 143.888 438.125 144.029C438.516 144.168 438.86 144.383 439.159 144.675C439.461 144.968 439.698 145.34 439.87 145.793C440.042 146.242 440.128 146.777 440.128 147.399V147.912H434.316V146.785H438.527C438.523 146.465 438.454 146.18 438.319 145.931C438.183 145.679 437.994 145.48 437.751 145.336C437.511 145.191 437.231 145.119 436.911 145.119C436.569 145.119 436.269 145.202 436.011 145.368C435.752 145.531 435.55 145.746 435.406 146.014C435.264 146.279 435.192 146.57 435.189 146.887V147.87C435.189 148.282 435.264 148.636 435.415 148.932C435.566 149.224 435.777 149.449 436.047 149.606C436.318 149.76 436.635 149.837 436.998 149.837C437.242 149.837 437.462 149.803 437.659 149.735C437.856 149.664 438.026 149.561 438.171 149.426C438.316 149.29 438.425 149.123 438.499 148.923L440.059 149.098C439.961 149.51 439.773 149.871 439.496 150.178C439.222 150.483 438.871 150.72 438.443 150.889C438.016 151.055 437.526 151.138 436.975 151.138ZM443.213 146.845V151H441.542V143.909H443.14V145.114H443.223C443.386 144.717 443.646 144.402 444.003 144.168C444.363 143.934 444.808 143.817 445.337 143.817C445.826 143.817 446.253 143.921 446.616 144.131C446.982 144.34 447.265 144.643 447.465 145.04C447.668 145.437 447.768 145.919 447.765 146.485V151H446.094V146.744C446.094 146.27 445.971 145.899 445.725 145.631C445.482 145.363 445.145 145.229 444.714 145.229C444.421 145.229 444.161 145.294 443.934 145.423C443.709 145.549 443.532 145.733 443.403 145.973C443.277 146.213 443.213 146.504 443.213 146.845ZM455.069 145.783L453.545 145.95C453.502 145.796 453.427 145.651 453.319 145.516C453.214 145.38 453.073 145.271 452.894 145.188C452.716 145.105 452.497 145.063 452.239 145.063C451.891 145.063 451.598 145.139 451.362 145.289C451.128 145.44 451.012 145.636 451.015 145.876C451.012 146.082 451.088 146.25 451.241 146.379C451.398 146.508 451.657 146.614 452.017 146.697L453.227 146.956C453.897 147.101 454.396 147.33 454.722 147.644C455.052 147.958 455.218 148.369 455.221 148.876C455.218 149.323 455.087 149.717 454.828 150.058C454.573 150.397 454.218 150.661 453.762 150.852C453.307 151.043 452.783 151.138 452.192 151.138C451.325 151.138 450.626 150.957 450.097 150.594C449.567 150.228 449.252 149.718 449.15 149.066L450.78 148.909C450.854 149.229 451.011 149.47 451.251 149.634C451.491 149.797 451.803 149.878 452.188 149.878C452.585 149.878 452.903 149.797 453.143 149.634C453.387 149.47 453.508 149.269 453.508 149.029C453.508 148.826 453.43 148.658 453.273 148.526C453.119 148.393 452.879 148.292 452.553 148.221L451.343 147.967C450.663 147.825 450.16 147.587 449.833 147.251C449.507 146.913 449.346 146.485 449.349 145.968C449.346 145.531 449.464 145.152 449.704 144.832C449.947 144.509 450.284 144.26 450.715 144.085C451.149 143.906 451.649 143.817 452.216 143.817C453.047 143.817 453.701 143.994 454.178 144.348C454.658 144.702 454.955 145.18 455.069 145.783ZM459.738 151.138C459.027 151.138 458.413 150.991 457.896 150.695C457.382 150.397 456.987 149.975 456.71 149.43C456.433 148.883 456.294 148.238 456.294 147.496C456.294 146.767 456.433 146.127 456.71 145.576C456.99 145.022 457.381 144.591 457.882 144.283C458.384 143.972 458.973 143.817 459.65 143.817C460.087 143.817 460.5 143.888 460.888 144.029C461.278 144.168 461.623 144.383 461.922 144.675C462.223 144.968 462.46 145.34 462.633 145.793C462.805 146.242 462.891 146.777 462.891 147.399V147.912H457.079V146.785H461.289C461.286 146.465 461.217 146.18 461.081 145.931C460.946 145.679 460.757 145.48 460.514 145.336C460.274 145.191 459.994 145.119 459.673 145.119C459.332 145.119 459.032 145.202 458.773 145.368C458.515 145.531 458.313 145.746 458.169 146.014C458.027 146.279 457.955 146.57 457.952 146.887V147.87C457.952 148.282 458.027 148.636 458.178 148.932C458.329 149.224 458.539 149.449 458.81 149.606C459.081 149.76 459.398 149.837 459.761 149.837C460.004 149.837 460.224 149.803 460.421 149.735C460.618 149.664 460.789 149.561 460.934 149.426C461.078 149.29 461.188 149.123 461.262 148.923L462.822 149.098C462.723 149.51 462.536 149.871 462.259 150.178C461.985 150.483 461.634 150.72 461.206 150.889C460.778 151.055 460.289 151.138 459.738 151.138Z" fill="white" fill-opacity="0.6"/>
<path d="M279.135 189.447C277.425 189.441 275.953 189.02 274.72 188.185C273.494 187.349 272.549 186.14 271.886 184.555C271.23 182.971 270.905 181.065 270.912 178.838C270.912 176.617 271.24 174.725 271.896 173.161C272.559 171.596 273.504 170.406 274.73 169.591C275.963 168.769 277.431 168.358 279.135 168.358C280.839 168.358 282.304 168.769 283.53 169.591C284.763 170.413 285.711 171.606 286.374 173.17C287.036 174.728 287.365 176.617 287.358 178.838C287.358 181.072 287.027 182.981 286.364 184.565C285.707 186.15 284.766 187.359 283.54 188.195C282.313 189.03 280.845 189.447 279.135 189.447ZM279.135 185.878C280.302 185.878 281.233 185.291 281.929 184.118C282.625 182.945 282.97 181.185 282.963 178.838C282.963 177.294 282.804 176.008 282.486 174.98C282.174 173.953 281.73 173.18 281.153 172.663C280.583 172.146 279.911 171.888 279.135 171.888C277.975 171.888 277.047 172.468 276.351 173.628C275.655 174.788 275.304 176.525 275.297 178.838C275.297 180.402 275.453 181.708 275.764 182.756C276.082 183.796 276.53 184.579 277.107 185.102C277.683 185.619 278.359 185.878 279.135 185.878ZM299.287 168.636V189H294.982V172.723H294.863L290.199 175.646V171.828L295.24 168.636H299.287Z" fill="white"/>
<rect x="491.5" y="150.5" width="68" height="33" rx="7.76048" fill="#00D4FF"/>
<path d="M505.812 172.5H503.843L507.428 162.318H509.705L513.294 172.5H511.325L508.606 164.406H508.526L505.812 172.5ZM505.876 168.508H511.246V169.989H505.876V168.508ZM517.654 172.649C516.892 172.649 516.237 172.482 515.69 172.147C515.147 171.812 514.728 171.35 514.433 170.76C514.141 170.167 513.995 169.484 513.995 168.712C513.995 167.936 514.144 167.252 514.442 166.658C514.741 166.062 515.162 165.598 515.705 165.266C516.252 164.932 516.898 164.764 517.644 164.764C518.264 164.764 518.813 164.879 519.29 165.107C519.77 165.333 520.153 165.652 520.438 166.067C520.723 166.478 520.886 166.958 520.925 167.509H519.205C519.136 167.141 518.97 166.834 518.708 166.589C518.45 166.34 518.103 166.216 517.669 166.216C517.301 166.216 516.978 166.315 516.7 166.514C516.421 166.71 516.204 166.991 516.048 167.359C515.896 167.727 515.82 168.168 515.82 168.682C515.82 169.202 515.896 169.65 516.048 170.024C516.201 170.395 516.415 170.682 516.69 170.884C516.968 171.083 517.295 171.183 517.669 171.183C517.934 171.183 518.171 171.133 518.38 171.033C518.592 170.931 518.769 170.783 518.912 170.591C519.054 170.399 519.152 170.165 519.205 169.89H520.925C520.882 170.43 520.723 170.909 520.448 171.327C520.173 171.741 519.799 172.066 519.325 172.301C518.851 172.533 518.294 172.649 517.654 172.649ZM526.216 164.864V166.256H521.827V164.864H526.216ZM522.91 163.034H524.71V170.203C524.71 170.445 524.747 170.631 524.819 170.76C524.896 170.886 524.995 170.972 525.118 171.018C525.24 171.065 525.376 171.088 525.525 171.088C525.638 171.088 525.741 171.08 525.834 171.063C525.93 171.047 526.003 171.032 526.052 171.018L526.356 172.425C526.26 172.459 526.122 172.495 525.943 172.535C525.767 172.575 525.552 172.598 525.297 172.604C524.846 172.618 524.44 172.55 524.079 172.401C523.717 172.248 523.431 172.013 523.219 171.695C523.01 171.376 522.907 170.979 522.91 170.501V163.034ZM527.722 172.5V164.864H529.521V172.5H527.722ZM528.626 163.78C528.341 163.78 528.096 163.685 527.891 163.496C527.685 163.304 527.582 163.074 527.582 162.805C527.582 162.534 527.685 162.303 527.891 162.114C528.096 161.922 528.341 161.826 528.626 161.826C528.915 161.826 529.16 161.922 529.362 162.114C529.568 162.303 529.67 162.534 529.67 162.805C529.67 163.074 529.568 163.304 529.362 163.496C529.16 163.685 528.915 163.78 528.626 163.78ZM538.193 164.864L535.474 172.5H533.485L530.765 164.864H532.684L534.439 170.536H534.519L536.279 164.864H538.193ZM542.559 172.649C541.794 172.649 541.132 172.49 540.576 172.172C540.022 171.85 539.596 171.396 539.298 170.81C539 170.22 538.85 169.525 538.85 168.727C538.85 167.941 539 167.252 539.298 166.658C539.6 166.062 540.02 165.598 540.561 165.266C541.101 164.932 541.736 164.764 542.465 164.764C542.935 164.764 543.38 164.84 543.797 164.993C544.218 165.142 544.589 165.374 544.911 165.689C545.236 166.004 545.491 166.405 545.676 166.892C545.862 167.376 545.955 167.953 545.955 168.622V169.174H539.696V167.961H544.23C544.226 167.616 544.152 167.31 544.006 167.041C543.86 166.769 543.656 166.556 543.395 166.4C543.136 166.244 542.834 166.166 542.49 166.166C542.122 166.166 541.799 166.256 541.52 166.435C541.242 166.61 541.025 166.842 540.869 167.131C540.717 167.416 540.639 167.729 540.635 168.07V169.129C540.635 169.573 540.717 169.955 540.879 170.273C541.041 170.588 541.268 170.83 541.56 170.999C541.852 171.164 542.193 171.247 542.584 171.247C542.846 171.247 543.083 171.211 543.295 171.138C543.507 171.062 543.691 170.951 543.847 170.805C544.003 170.659 544.12 170.478 544.2 170.263L545.88 170.452C545.774 170.896 545.572 171.284 545.274 171.615C544.979 171.943 544.601 172.198 544.14 172.381C543.68 172.56 543.153 172.649 542.559 172.649Z" fill="#0D2F4F"/>
</g>
<defs>
<filter id="filter0_d_357_22291" x="0.5" y="0" width="386" height="154" filterUnits="userSpaceOnUse" color-interpolation-filters="sRGB">
<feFlood flood-opacity="0" result="BackgroundImageFix"/>
<feColorMatrix in="SourceAlpha" type="matrix" values="0 0 0 0 0 0 0 0 0 0 0 0 0 0 0 0 0 0 127 0" result="hardAlpha"/>
<feOffset dy="4"/>
<feGaussianBlur stdDeviation="12"/>
<feColorMatrix type="matrix" values="0 0 0 0 0.0235294 0 0 0 0 0.0941176 0 0 0 0 0.172549 0 0 0 0.4 0"/>
<feBlend mode="normal" in2="BackgroundImageFix" result="effect1_dropShadow_357_22291"/>
<feBlend mode="normal" in="SourceGraphic" in2="effect1_dropShadow_357_22291" result="shape"/>
</filter>
<filter id="filter1_d_357_22291" x="221.5" y="94" width="386" height="154" filterUnits="userSpaceOnUse" color-interpolation-filters="sRGB">
<feFlood flood-opacity="0" result="BackgroundImageFix"/>
<feColorMatrix in="SourceAlpha" type="matrix" values="0 0 0 0 0 0 0 0 0 0 0 0 0 0 0 0 0 0 127 0" result="hardAlpha"/>
<feOffset dy="4"/>
<feGaussianBlur stdDeviation="12"/>
<feColorMatrix type="matrix" values="0 0 0 0 0.0235294 0 0 0 0 0.0941176 0 0 0 0 0.172549 0 0 0 0.4 0"/>
<feBlend mode="normal" in2="BackgroundImageFix" result="effect1_dropShadow_357_22291"/>
<feBlend mode="normal" in="SourceGraphic" in2="effect1_dropShadow_357_22291" result="shape"/>
</filter>
</defs>
</svg>
