<svg width="404" height="290" viewBox="0 0 404 290" fill="none" xmlns="http://www.w3.org/2000/svg">
<g filter="url(#filter0_d_351_22976)">
<g filter="url(#filter1_d_351_22976)">
<g filter="url(#filter2_d_351_22976)">
<rect x="32.5" y="28" width="339" height="226" rx="16" fill="#0D2F4F"/>
<path d="M67.608 65.2898H65.483C65.4223 64.9413 65.3106 64.6326 65.1477 64.3636C64.9848 64.0909 64.7822 63.8598 64.5398 63.6705C64.2973 63.4811 64.0208 63.339 63.7102 63.2443C63.4034 63.1458 63.072 63.0966 62.7159 63.0966C62.0833 63.0966 61.5227 63.2557 61.0341 63.5739C60.5455 63.8883 60.1629 64.3504 59.8864 64.9602C59.6098 65.5663 59.4716 66.3068 59.4716 67.1818C59.4716 68.072 59.6098 68.822 59.8864 69.4318C60.1667 70.0379 60.5492 70.4962 61.0341 70.8068C61.5227 71.1136 62.0814 71.267 62.7102 71.267C63.0587 71.267 63.3845 71.2216 63.6875 71.1307C63.9943 71.036 64.2689 70.8977 64.5114 70.7159C64.7576 70.5341 64.964 70.3106 65.1307 70.0455C65.3011 69.7803 65.4186 69.4773 65.483 69.1364L67.608 69.1477C67.5284 69.7008 67.3561 70.2197 67.0909 70.7045C66.8295 71.1894 66.4867 71.6174 66.0625 71.9886C65.6383 72.3561 65.142 72.6439 64.5739 72.8523C64.0057 73.0568 63.375 73.1591 62.6818 73.1591C61.6591 73.1591 60.7462 72.9223 59.9432 72.4489C59.1402 71.9754 58.5076 71.2917 58.0455 70.3977C57.5833 69.5038 57.3523 68.4318 57.3523 67.1818C57.3523 65.928 57.5852 64.8561 58.0511 63.9659C58.517 63.072 59.1515 62.3883 59.9545 61.9148C60.7576 61.4413 61.6667 61.2045 62.6818 61.2045C63.3295 61.2045 63.9318 61.2955 64.4886 61.4773C65.0455 61.6591 65.5417 61.9261 65.9773 62.2784C66.4129 62.6269 66.7708 63.0549 67.0511 63.5625C67.3352 64.0663 67.5208 64.642 67.608 65.2898ZM71.9588 73.1761C71.4058 73.1761 70.9077 73.0777 70.4645 72.8807C70.0251 72.6799 69.6766 72.3845 69.419 71.9943C69.1652 71.6042 69.0384 71.1231 69.0384 70.5511C69.0384 70.0587 69.1293 69.6515 69.3111 69.3295C69.4929 69.0076 69.741 68.75 70.0554 68.5568C70.3698 68.3636 70.724 68.2178 71.1179 68.1193C71.5156 68.017 71.9266 67.9432 72.3509 67.8977C72.8622 67.8447 73.277 67.7973 73.5952 67.7557C73.9134 67.7102 74.1444 67.642 74.2884 67.5511C74.4361 67.4564 74.5099 67.3106 74.5099 67.1136V67.0795C74.5099 66.6515 74.383 66.3201 74.1293 66.0852C73.8755 65.8504 73.5099 65.733 73.0327 65.733C72.5289 65.733 72.1293 65.8428 71.8338 66.0625C71.5421 66.2822 71.3452 66.5417 71.2429 66.8409L69.3224 66.5682C69.474 66.0379 69.724 65.5947 70.0724 65.2386C70.4209 64.8788 70.8471 64.6098 71.3509 64.4318C71.8546 64.25 72.4115 64.1591 73.0213 64.1591C73.4418 64.1591 73.8603 64.2083 74.277 64.3068C74.6937 64.4053 75.0743 64.5682 75.419 64.7955C75.7637 65.0189 76.0402 65.3239 76.2486 65.7102C76.4607 66.0966 76.5668 66.5795 76.5668 67.1591V73H74.5895V71.8011H74.5213C74.3963 72.0436 74.2202 72.2708 73.9929 72.483C73.7694 72.6913 73.4872 72.8598 73.1463 72.9886C72.8092 73.1136 72.4134 73.1761 71.9588 73.1761ZM72.4929 71.6648C72.9058 71.6648 73.2637 71.5833 73.5668 71.4205C73.8698 71.2538 74.1027 71.0341 74.2656 70.7614C74.4323 70.4886 74.5156 70.1913 74.5156 69.8693V68.8409C74.4512 68.8939 74.3414 68.9432 74.1861 68.9886C74.0346 69.0341 73.8641 69.0739 73.6747 69.108C73.4853 69.142 73.2978 69.1723 73.1122 69.1989C72.9266 69.2254 72.7656 69.2481 72.6293 69.267C72.3224 69.3087 72.0478 69.3769 71.8054 69.4716C71.563 69.5663 71.3717 69.6989 71.2315 69.8693C71.0914 70.036 71.0213 70.2519 71.0213 70.517C71.0213 70.8958 71.1596 71.1818 71.4361 71.375C71.7126 71.5682 72.0649 71.6648 72.4929 71.6648ZM78.6349 76.2727V64.2727H80.6577V65.7159H80.777C80.883 65.5038 81.0327 65.2784 81.2259 65.0398C81.419 64.7973 81.6804 64.5909 82.0099 64.4205C82.3395 64.2462 82.7599 64.1591 83.2713 64.1591C83.9455 64.1591 84.5535 64.3314 85.0952 64.6761C85.6406 65.017 86.0724 65.5227 86.3906 66.1932C86.7126 66.8598 86.8736 67.678 86.8736 68.6477C86.8736 69.6061 86.7164 70.4205 86.402 71.0909C86.0876 71.7614 85.6596 72.2727 85.1179 72.625C84.5762 72.9773 83.9626 73.1534 83.277 73.1534C82.777 73.1534 82.3622 73.0701 82.0327 72.9034C81.7031 72.7367 81.438 72.536 81.2372 72.3011C81.0402 72.0625 80.8868 71.8371 80.777 71.625H80.6918V76.2727H78.6349ZM80.652 68.6364C80.652 69.2008 80.7315 69.6951 80.8906 70.1193C81.0535 70.5436 81.2865 70.875 81.5895 71.1136C81.8963 71.3485 82.2675 71.4659 82.7031 71.4659C83.1577 71.4659 83.5384 71.3447 83.8452 71.1023C84.152 70.8561 84.383 70.5208 84.5384 70.0966C84.6974 69.6686 84.777 69.1818 84.777 68.6364C84.777 68.0947 84.6993 67.6136 84.544 67.1932C84.3887 66.7727 84.1577 66.4432 83.8509 66.2045C83.544 65.9659 83.1615 65.8466 82.7031 65.8466C82.2637 65.8466 81.8906 65.9621 81.5838 66.1932C81.277 66.4242 81.044 66.7481 80.8849 67.1648C80.7296 67.5814 80.652 68.072 80.652 68.6364ZM91.1463 73.1761C90.5933 73.1761 90.0952 73.0777 89.652 72.8807C89.2126 72.6799 88.8641 72.3845 88.6065 71.9943C88.3527 71.6042 88.2259 71.1231 88.2259 70.5511C88.2259 70.0587 88.3168 69.6515 88.4986 69.3295C88.6804 69.0076 88.9285 68.75 89.2429 68.5568C89.5573 68.3636 89.9115 68.2178 90.3054 68.1193C90.7031 68.017 91.1141 67.9432 91.5384 67.8977C92.0497 67.8447 92.4645 67.7973 92.7827 67.7557C93.1009 67.7102 93.3319 67.642 93.4759 67.5511C93.6236 67.4564 93.6974 67.3106 93.6974 67.1136V67.0795C93.6974 66.6515 93.5705 66.3201 93.3168 66.0852C93.063 65.8504 92.6974 65.733 92.2202 65.733C91.7164 65.733 91.3168 65.8428 91.0213 66.0625C90.7296 66.2822 90.5327 66.5417 90.4304 66.8409L88.5099 66.5682C88.6615 66.0379 88.9115 65.5947 89.2599 65.2386C89.6084 64.8788 90.0346 64.6098 90.5384 64.4318C91.0421 64.25 91.599 64.1591 92.2088 64.1591C92.6293 64.1591 93.0478 64.2083 93.4645 64.3068C93.8812 64.4053 94.2618 64.5682 94.6065 64.7955C94.9512 65.0189 95.2277 65.3239 95.4361 65.7102C95.6482 66.0966 95.7543 66.5795 95.7543 67.1591V73H93.777V71.8011H93.7088C93.5838 72.0436 93.4077 72.2708 93.1804 72.483C92.9569 72.6913 92.6747 72.8598 92.3338 72.9886C91.9967 73.1136 91.6009 73.1761 91.1463 73.1761ZM91.6804 71.6648C92.0933 71.6648 92.4512 71.5833 92.7543 71.4205C93.0573 71.2538 93.2902 71.0341 93.4531 70.7614C93.6198 70.4886 93.7031 70.1913 93.7031 69.8693V68.8409C93.6387 68.8939 93.5289 68.9432 93.3736 68.9886C93.2221 69.0341 93.0516 69.0739 92.8622 69.108C92.6728 69.142 92.4853 69.1723 92.2997 69.1989C92.1141 69.2254 91.9531 69.2481 91.8168 69.267C91.5099 69.3087 91.2353 69.3769 90.9929 69.4716C90.7505 69.5663 90.5592 69.6989 90.419 69.8693C90.2789 70.036 90.2088 70.2519 90.2088 70.517C90.2088 70.8958 90.3471 71.1818 90.6236 71.375C90.9001 71.5682 91.2524 71.6648 91.6804 71.6648ZM101.629 73.1705C100.758 73.1705 100.01 72.9792 99.3849 72.5966C98.7637 72.214 98.2846 71.6856 97.9474 71.0114C97.6141 70.3333 97.4474 69.553 97.4474 68.6705C97.4474 67.7841 97.6179 67.0019 97.9588 66.3239C98.2997 65.642 98.7808 65.1117 99.402 64.733C100.027 64.3504 100.766 64.1591 101.618 64.1591C102.326 64.1591 102.953 64.2898 103.499 64.5511C104.048 64.8087 104.485 65.1742 104.811 65.6477C105.137 66.1174 105.322 66.6667 105.368 67.2955H103.402C103.322 66.875 103.133 66.5246 102.834 66.2443C102.538 65.9602 102.143 65.8182 101.646 65.8182C101.226 65.8182 100.857 65.9318 100.538 66.1591C100.22 66.3826 99.9721 66.7045 99.794 67.125C99.6198 67.5455 99.5327 68.0492 99.5327 68.6364C99.5327 69.2311 99.6198 69.7424 99.794 70.1705C99.9683 70.5947 100.213 70.9223 100.527 71.1534C100.845 71.3807 101.218 71.4943 101.646 71.4943C101.949 71.4943 102.22 71.4375 102.459 71.3239C102.701 71.2064 102.904 71.0379 103.067 70.8182C103.23 70.5985 103.341 70.3314 103.402 70.017H105.368C105.319 70.6345 105.137 71.1818 104.822 71.6591C104.508 72.1326 104.08 72.5038 103.538 72.7727C102.997 73.0379 102.36 73.1705 101.629 73.1705ZM107.057 73V64.2727H109.114V73H107.057ZM108.091 63.0341C107.765 63.0341 107.485 62.9261 107.25 62.7102C107.015 62.4905 106.898 62.2273 106.898 61.9205C106.898 61.6098 107.015 61.3466 107.25 61.1307C107.485 60.911 107.765 60.8011 108.091 60.8011C108.42 60.8011 108.701 60.911 108.932 61.1307C109.167 61.3466 109.284 61.6098 109.284 61.9205C109.284 62.2273 109.167 62.4905 108.932 62.7102C108.701 62.9261 108.42 63.0341 108.091 63.0341ZM115.587 64.2727V65.8636H110.57V64.2727H115.587ZM111.808 62.1818H113.865V70.375C113.865 70.6515 113.907 70.8636 113.99 71.0114C114.077 71.1553 114.191 71.2538 114.331 71.3068C114.471 71.3598 114.626 71.3864 114.797 71.3864C114.926 71.3864 115.043 71.3769 115.149 71.358C115.259 71.339 115.342 71.322 115.399 71.3068L115.746 72.9148C115.636 72.9527 115.479 72.9943 115.274 73.0398C115.073 73.0852 114.827 73.1117 114.536 73.1193C114.02 73.1345 113.556 73.0568 113.143 72.8864C112.731 72.7121 112.403 72.4432 112.161 72.0795C111.922 71.7159 111.804 71.2614 111.808 70.7159V62.1818ZM118.585 76.2727C118.305 76.2727 118.045 76.25 117.807 76.2045C117.572 76.1629 117.384 76.1136 117.244 76.0568L117.722 74.4545C118.021 74.5417 118.288 74.5833 118.523 74.5795C118.758 74.5758 118.964 74.5019 119.142 74.358C119.324 74.2178 119.477 73.983 119.602 73.6534L119.778 73.1818L116.614 64.2727H118.795L120.807 70.8636H120.898L122.915 64.2727H125.102L121.608 74.0568C121.445 74.5189 121.229 74.9148 120.96 75.2443C120.691 75.5777 120.362 75.8314 119.972 76.0057C119.585 76.1837 119.123 76.2727 118.585 76.2727Z" fill="white"/>
<path d="M62.1037 90.6719C62.0639 90.2997 61.8963 90.0099 61.6009 89.8026C61.3082 89.5952 60.9276 89.4915 60.4588 89.4915C60.1293 89.4915 59.8466 89.5412 59.6108 89.6406C59.375 89.7401 59.1946 89.875 59.0696 90.0455C58.9446 90.2159 58.8807 90.4105 58.8778 90.6293C58.8778 90.8111 58.919 90.9687 59.0014 91.1023C59.0866 91.2358 59.2017 91.3494 59.3466 91.4432C59.4915 91.5341 59.652 91.6108 59.8281 91.6733C60.0043 91.7358 60.1818 91.7884 60.3608 91.831L61.179 92.0355C61.5085 92.1122 61.8253 92.2159 62.1293 92.3466C62.4361 92.4773 62.7102 92.642 62.9517 92.8409C63.196 93.0398 63.3892 93.2798 63.5312 93.5611C63.6733 93.8423 63.7443 94.1719 63.7443 94.5497C63.7443 95.0611 63.6136 95.5114 63.3523 95.9006C63.0909 96.2869 62.7131 96.5895 62.2188 96.8082C61.7273 97.0241 61.1321 97.1321 60.4332 97.1321C59.7543 97.1321 59.1648 97.027 58.6648 96.8168C58.1676 96.6065 57.7784 96.2997 57.4972 95.8963C57.2188 95.4929 57.0682 95.0014 57.0455 94.4219H58.6009C58.6236 94.7259 58.7173 94.9787 58.8821 95.1804C59.0469 95.3821 59.2614 95.5327 59.5256 95.6321C59.7926 95.7315 60.0909 95.7812 60.4205 95.7812C60.7642 95.7812 61.0653 95.7301 61.3239 95.6278C61.5852 95.5227 61.7898 95.3778 61.9375 95.1932C62.0852 95.0057 62.1605 94.7869 62.1634 94.5369C62.1605 94.3097 62.0938 94.1222 61.9631 93.9744C61.8324 93.8239 61.6491 93.6989 61.4134 93.5994C61.1804 93.4972 60.9077 93.4062 60.5952 93.3267L59.6023 93.071C58.8835 92.8864 58.3153 92.6065 57.8977 92.2315C57.483 91.8537 57.2756 91.3523 57.2756 90.7273C57.2756 90.2131 57.4148 89.7628 57.6932 89.3764C57.9744 88.9901 58.3565 88.6903 58.8395 88.4773C59.3224 88.2614 59.8693 88.1534 60.4801 88.1534C61.0994 88.1534 61.642 88.2614 62.108 88.4773C62.5767 88.6903 62.9446 88.9872 63.2116 89.3679C63.4787 89.7457 63.6165 90.1804 63.625 90.6719H62.1037ZM67.9833 97.1278C67.3271 97.1278 66.7603 96.9915 66.283 96.7188C65.8086 96.4432 65.4435 96.054 65.1879 95.5511C64.9322 95.0455 64.8043 94.4503 64.8043 93.7656C64.8043 93.0923 64.9322 92.5014 65.1879 91.9929C65.4464 91.4815 65.8072 91.0838 66.2702 90.7997C66.7333 90.5128 67.2773 90.3693 67.9023 90.3693C68.3058 90.3693 68.6864 90.4347 69.0444 90.5653C69.4052 90.6932 69.7234 90.892 69.9989 91.1619C70.2773 91.4318 70.4961 91.7756 70.6552 92.1932C70.8143 92.608 70.8938 93.1023 70.8938 93.6761V94.1491H65.5288V93.1094H69.4151C69.4123 92.8139 69.3484 92.5511 69.2234 92.321C69.0984 92.0881 68.9237 91.9048 68.6992 91.7713C68.4776 91.6378 68.2191 91.571 67.9237 91.571C67.6083 91.571 67.3313 91.6477 67.0927 91.8011C66.854 91.9517 66.668 92.1506 66.5344 92.3977C66.4038 92.642 66.337 92.9105 66.3342 93.2031V94.1108C66.3342 94.4915 66.4038 94.8182 66.543 95.0909C66.6822 95.3608 66.8768 95.5682 67.1268 95.7131C67.3768 95.8551 67.6694 95.9261 68.0046 95.9261C68.229 95.9261 68.4322 95.8949 68.614 95.8324C68.7958 95.767 68.9535 95.6719 69.087 95.5469C69.2205 95.4219 69.3214 95.267 69.3896 95.0824L70.8299 95.2443C70.739 95.625 70.5657 95.9574 70.31 96.2415C70.0572 96.5227 69.7333 96.7415 69.3384 96.8977C68.9435 97.0511 68.4918 97.1278 67.9833 97.1278ZM75.4673 90.4545V91.6477H71.7045V90.4545H75.4673ZM72.6335 88.8864H74.1761V95.0312C74.1761 95.2386 74.2074 95.3977 74.2699 95.5085C74.3352 95.6165 74.4205 95.6903 74.5256 95.7301C74.6307 95.7699 74.7472 95.7898 74.875 95.7898C74.9716 95.7898 75.0597 95.7827 75.1392 95.7685C75.2216 95.7543 75.2841 95.7415 75.3267 95.7301L75.5866 96.9361C75.5043 96.9645 75.3864 96.9957 75.233 97.0298C75.0824 97.0639 74.8977 97.0838 74.679 97.0895C74.2926 97.1009 73.9446 97.0426 73.6349 96.9148C73.3253 96.7841 73.0795 96.5824 72.8977 96.3097C72.7188 96.0369 72.6307 95.696 72.6335 95.2869V88.8864ZM82.5891 97.1278C81.9357 97.1278 81.3746 96.9844 80.9059 96.6974C80.44 96.4105 80.0806 96.0142 79.8278 95.5085C79.5778 95 79.4528 94.4148 79.4528 93.7528C79.4528 93.0881 79.5806 92.5014 79.8363 91.9929C80.092 91.4815 80.4528 91.0838 80.9187 90.7997C81.3874 90.5128 81.9414 90.3693 82.5806 90.3693C83.1119 90.3693 83.582 90.4673 83.9911 90.6634C84.4031 90.8565 84.7312 91.1307 84.9755 91.4858C85.2198 91.8381 85.359 92.25 85.3931 92.7216H83.9187C83.859 92.4062 83.717 92.1435 83.4925 91.9332C83.271 91.7202 82.9741 91.6136 82.6019 91.6136C82.2866 91.6136 82.0096 91.6989 81.771 91.8693C81.5323 92.0369 81.3462 92.2784 81.2127 92.5938C81.082 92.9091 81.0167 93.2869 81.0167 93.7273C81.0167 94.1733 81.082 94.5568 81.2127 94.8778C81.3434 95.196 81.5266 95.4418 81.7624 95.6151C82.0011 95.7855 82.2809 95.8707 82.6019 95.8707C82.8292 95.8707 83.0323 95.8281 83.2113 95.7429C83.3931 95.6548 83.5451 95.5284 83.6673 95.3636C83.7894 95.1989 83.8732 94.9986 83.9187 94.7628H85.3931C85.3562 95.2259 85.2198 95.6364 84.984 95.9943C84.7482 96.3494 84.4272 96.6278 84.021 96.8295C83.6147 97.0284 83.1374 97.1278 82.5891 97.1278ZM88.5433 97.1321C88.1286 97.1321 87.755 97.0582 87.4226 96.9105C87.093 96.7599 86.8317 96.5384 86.6385 96.2457C86.4482 95.9531 86.353 95.5923 86.353 95.1634C86.353 94.794 86.4212 94.4886 86.5575 94.2472C86.6939 94.0057 86.88 93.8125 87.1158 93.6676C87.3516 93.5227 87.6172 93.4134 87.9126 93.3395C88.2109 93.2628 88.5192 93.2074 88.8374 93.1733C89.2209 93.1335 89.532 93.098 89.7706 93.0668C90.0092 93.0327 90.1825 92.9815 90.2905 92.9134C90.4013 92.8423 90.4567 92.733 90.4567 92.5852V92.5597C90.4567 92.2386 90.3615 91.9901 90.1712 91.8139C89.9808 91.6378 89.7067 91.5497 89.3487 91.5497C88.9709 91.5497 88.6712 91.6321 88.4496 91.7969C88.2308 91.9616 88.0831 92.1562 88.0064 92.3807L86.5661 92.1761C86.6797 91.7784 86.8672 91.446 87.1286 91.179C87.3899 90.9091 87.7095 90.7074 88.0874 90.5739C88.4652 90.4375 88.8828 90.3693 89.3402 90.3693C89.6555 90.3693 89.9695 90.4062 90.282 90.4801C90.5945 90.554 90.88 90.6761 91.1385 90.8466C91.397 91.0142 91.6044 91.2429 91.7607 91.5327C91.9197 91.8224 91.9993 92.1847 91.9993 92.6193V97H90.5163V96.1009H90.4652C90.3714 96.2827 90.2393 96.4531 90.0689 96.6122C89.9013 96.7685 89.6896 96.8949 89.4339 96.9915C89.1811 97.0852 88.8842 97.1321 88.5433 97.1321ZM88.9439 95.9986C89.2536 95.9986 89.522 95.9375 89.7493 95.8153C89.9766 95.6903 90.1513 95.5256 90.2734 95.321C90.3984 95.1165 90.4609 94.8935 90.4609 94.652V93.8807C90.4126 93.9205 90.3303 93.9574 90.2138 93.9915C90.1001 94.0256 89.9723 94.0554 89.8303 94.081C89.6882 94.1065 89.5476 94.1293 89.4084 94.1491C89.2692 94.169 89.1484 94.1861 89.0462 94.2003C88.8161 94.2315 88.6101 94.2827 88.4283 94.3537C88.2464 94.4247 88.103 94.5241 87.9979 94.652C87.8928 94.777 87.8402 94.9389 87.8402 95.1378C87.8402 95.4219 87.9439 95.6364 88.1513 95.7812C88.3587 95.9261 88.6229 95.9986 88.9439 95.9986ZM93.5504 99.4545V90.4545H95.0675V91.5369H95.157C95.2365 91.3778 95.3487 91.2088 95.4936 91.0298C95.6385 90.848 95.8345 90.6932 96.0817 90.5653C96.3288 90.4347 96.6442 90.3693 97.0277 90.3693C97.5334 90.3693 97.9893 90.4986 98.3956 90.7571C98.8047 91.0128 99.1286 91.392 99.3672 91.8949C99.6087 92.3949 99.7294 93.0085 99.7294 93.7358C99.7294 94.4545 99.6115 95.0653 99.3757 95.5682C99.1399 96.071 98.8189 96.4545 98.4126 96.7188C98.0064 96.983 97.5462 97.1151 97.032 97.1151C96.657 97.1151 96.3459 97.0526 96.0987 96.9276C95.8516 96.8026 95.6527 96.652 95.5021 96.4759C95.3544 96.2969 95.2393 96.1278 95.157 95.9688H95.093V99.4545H93.5504ZM95.0632 93.7273C95.0632 94.1506 95.1229 94.5213 95.2422 94.8395C95.3643 95.1577 95.5391 95.4062 95.7663 95.5852C95.9964 95.7614 96.2749 95.8494 96.6016 95.8494C96.9425 95.8494 97.228 95.7585 97.4581 95.5767C97.6882 95.392 97.8615 95.1406 97.978 94.8224C98.0973 94.5014 98.157 94.1364 98.157 93.7273C98.157 93.321 98.0987 92.9602 97.9822 92.6449C97.8658 92.3295 97.6925 92.0824 97.4624 91.9034C97.2322 91.7244 96.9453 91.6349 96.6016 91.6349C96.272 91.6349 95.9922 91.7216 95.7621 91.8949C95.532 92.0682 95.3572 92.3111 95.2379 92.6236C95.1214 92.9361 95.0632 93.304 95.0632 93.7273ZM102.934 97.1321C102.519 97.1321 102.146 97.0582 101.813 96.9105C101.484 96.7599 101.222 96.5384 101.029 96.2457C100.839 95.9531 100.744 95.5923 100.744 95.1634C100.744 94.794 100.812 94.4886 100.948 94.2472C101.085 94.0057 101.271 93.8125 101.506 93.6676C101.742 93.5227 102.008 93.4134 102.303 93.3395C102.602 93.2628 102.91 93.2074 103.228 93.1733C103.612 93.1335 103.923 93.098 104.161 93.0668C104.4 93.0327 104.573 92.9815 104.681 92.9134C104.792 92.8423 104.847 92.733 104.847 92.5852V92.5597C104.847 92.2386 104.752 91.9901 104.562 91.8139C104.371 91.6378 104.097 91.5497 103.739 91.5497C103.362 91.5497 103.062 91.6321 102.84 91.7969C102.621 91.9616 102.474 92.1562 102.397 92.3807L100.957 92.1761C101.07 91.7784 101.258 91.446 101.519 91.179C101.781 90.9091 102.1 90.7074 102.478 90.5739C102.856 90.4375 103.273 90.3693 103.731 90.3693C104.046 90.3693 104.36 90.4062 104.673 90.4801C104.985 90.554 105.271 90.6761 105.529 90.8466C105.788 91.0142 105.995 91.2429 106.151 91.5327C106.31 91.8224 106.39 92.1847 106.39 92.6193V97H104.907V96.1009H104.856C104.762 96.2827 104.63 96.4531 104.46 96.6122C104.292 96.7685 104.08 96.8949 103.825 96.9915C103.572 97.0852 103.275 97.1321 102.934 97.1321ZM103.335 95.9986C103.644 95.9986 103.913 95.9375 104.14 95.8153C104.367 95.6903 104.542 95.5256 104.664 95.321C104.789 95.1165 104.852 94.8935 104.852 94.652V93.8807C104.803 93.9205 104.721 93.9574 104.604 93.9915C104.491 94.0256 104.363 94.0554 104.221 94.081C104.079 94.1065 103.938 94.1293 103.799 94.1491C103.66 94.169 103.539 94.1861 103.437 94.2003C103.207 94.2315 103.001 94.2827 102.819 94.3537C102.637 94.4247 102.494 94.5241 102.388 94.652C102.283 94.777 102.231 94.9389 102.231 95.1378C102.231 95.4219 102.335 95.6364 102.542 95.7812C102.749 95.9261 103.013 95.9986 103.335 95.9986ZM110.796 97.1278C110.143 97.1278 109.582 96.9844 109.113 96.6974C108.647 96.4105 108.288 96.0142 108.035 95.5085C107.785 95 107.66 94.4148 107.66 93.7528C107.66 93.0881 107.788 92.5014 108.043 91.9929C108.299 91.4815 108.66 91.0838 109.126 90.7997C109.594 90.5128 110.148 90.3693 110.788 90.3693C111.319 90.3693 111.789 90.4673 112.198 90.6634C112.61 90.8565 112.938 91.1307 113.183 91.4858C113.427 91.8381 113.566 92.25 113.6 92.7216H112.126C112.066 92.4062 111.924 92.1435 111.7 91.9332C111.478 91.7202 111.181 91.6136 110.809 91.6136C110.494 91.6136 110.217 91.6989 109.978 91.8693C109.739 92.0369 109.553 92.2784 109.42 92.5938C109.289 92.9091 109.224 93.2869 109.224 93.7273C109.224 94.1733 109.289 94.5568 109.42 94.8778C109.55 95.196 109.734 95.4418 109.969 95.6151C110.208 95.7855 110.488 95.8707 110.809 95.8707C111.036 95.8707 111.239 95.8281 111.418 95.7429C111.6 95.6548 111.752 95.5284 111.874 95.3636C111.996 95.1989 112.08 94.9986 112.126 94.7628H113.6C113.563 95.2259 113.427 95.6364 113.191 95.9943C112.955 96.3494 112.634 96.6278 112.228 96.8295C111.822 97.0284 111.344 97.1278 110.796 97.1278ZM114.867 97V90.4545H116.409V97H114.867ZM115.642 89.5256C115.398 89.5256 115.188 89.4446 115.012 89.2827C114.836 89.1179 114.748 88.9205 114.748 88.6903C114.748 88.4574 114.836 88.2599 115.012 88.098C115.188 87.9332 115.398 87.8509 115.642 87.8509C115.89 87.8509 116.1 87.9332 116.273 88.098C116.449 88.2599 116.537 88.4574 116.537 88.6903C116.537 88.9205 116.449 89.1179 116.273 89.2827C116.1 89.4446 115.89 89.5256 115.642 89.5256ZM121.264 90.4545V91.6477H117.501V90.4545H121.264ZM118.43 88.8864H119.973V95.0312C119.973 95.2386 120.004 95.3977 120.067 95.5085C120.132 95.6165 120.217 95.6903 120.322 95.7301C120.428 95.7699 120.544 95.7898 120.672 95.7898C120.768 95.7898 120.857 95.7827 120.936 95.7685C121.018 95.7543 121.081 95.7415 121.124 95.7301L121.384 96.9361C121.301 96.9645 121.183 96.9957 121.03 97.0298C120.879 97.0639 120.695 97.0838 120.476 97.0895C120.089 97.1009 119.741 97.0426 119.432 96.9148C119.122 96.7841 118.876 96.5824 118.695 96.3097C118.516 96.0369 118.428 95.696 118.43 95.2869V88.8864ZM123.513 99.4545C123.303 99.4545 123.108 99.4375 122.929 99.4034C122.753 99.3722 122.613 99.3352 122.507 99.2926L122.865 98.0909C123.09 98.1563 123.29 98.1875 123.466 98.1847C123.642 98.1818 123.797 98.1264 123.931 98.0185C124.067 97.9134 124.182 97.7372 124.276 97.4901L124.408 97.1364L122.034 90.4545H123.671L125.179 95.3977H125.248L126.76 90.4545H128.401L125.78 97.7926C125.658 98.1392 125.496 98.4361 125.294 98.6832C125.093 98.9332 124.846 99.1236 124.553 99.2543C124.263 99.3878 123.917 99.4545 123.513 99.4545ZM135.76 90.4545V91.6477H131.891V90.4545H135.76ZM132.858 97V89.8366C132.858 89.3963 132.949 89.0298 133.131 88.7372C133.316 88.4446 133.563 88.2259 133.873 88.081C134.182 87.9361 134.526 87.8636 134.904 87.8636C135.171 87.8636 135.408 87.8849 135.615 87.9276C135.823 87.9702 135.976 88.0085 136.076 88.0426L135.769 89.2358C135.703 89.2159 135.621 89.196 135.522 89.1761C135.422 89.1534 135.311 89.142 135.189 89.142C134.902 89.142 134.699 89.2116 134.58 89.3509C134.463 89.4872 134.405 89.6832 134.405 89.9389V97H132.858ZM139.577 97.1278C138.938 97.1278 138.384 96.9872 137.915 96.706C137.447 96.4247 137.083 96.0312 136.825 95.5256C136.569 95.0199 136.441 94.429 136.441 93.7528C136.441 93.0767 136.569 92.4844 136.825 91.9759C137.083 91.4673 137.447 91.0724 137.915 90.7912C138.384 90.5099 138.938 90.3693 139.577 90.3693C140.217 90.3693 140.771 90.5099 141.239 90.7912C141.708 91.0724 142.07 91.4673 142.326 91.9759C142.585 92.4844 142.714 93.0767 142.714 93.7528C142.714 94.429 142.585 95.0199 142.326 95.5256C142.07 96.0312 141.708 96.4247 141.239 96.706C140.771 96.9872 140.217 97.1278 139.577 97.1278ZM139.586 95.892C139.933 95.892 140.222 95.7969 140.455 95.6065C140.688 95.4134 140.862 95.1548 140.975 94.831C141.092 94.5071 141.15 94.1463 141.15 93.7486C141.15 93.348 141.092 92.9858 140.975 92.6619C140.862 92.3352 140.688 92.0753 140.455 91.8821C140.222 91.6889 139.933 91.5923 139.586 91.5923C139.231 91.5923 138.935 91.6889 138.7 91.8821C138.467 92.0753 138.292 92.3352 138.175 92.6619C138.062 92.9858 138.005 93.348 138.005 93.7486C138.005 94.1463 138.062 94.5071 138.175 94.831C138.292 95.1548 138.467 95.4134 138.7 95.6065C138.935 95.7969 139.231 95.892 139.586 95.892ZM144.023 97V90.4545H145.519V91.5455H145.587C145.706 91.1676 145.911 90.8764 146.201 90.6719C146.493 90.4645 146.827 90.3608 147.202 90.3608C147.287 90.3608 147.382 90.3651 147.488 90.3736C147.596 90.3793 147.685 90.3892 147.756 90.4034V91.8224C147.691 91.7997 147.587 91.7798 147.445 91.7628C147.306 91.7429 147.171 91.733 147.04 91.733C146.759 91.733 146.506 91.794 146.282 91.9162C146.06 92.0355 145.885 92.2017 145.757 92.4148C145.63 92.6278 145.566 92.8736 145.566 93.152V97H144.023ZM152.716 99.4545C152.506 99.4545 152.311 99.4375 152.132 99.4034C151.956 99.3722 151.816 99.3352 151.711 99.2926L152.069 98.0909C152.293 98.1563 152.493 98.1875 152.669 98.1847C152.846 98.1818 153 98.1264 153.134 98.0185C153.27 97.9134 153.385 97.7372 153.479 97.4901L153.611 97.1364L151.238 90.4545H152.874L154.382 95.3977H154.451L155.963 90.4545H157.604L154.983 97.7926C154.861 98.1392 154.699 98.4361 154.498 98.6832C154.296 98.9332 154.049 99.1236 153.756 99.2543C153.466 99.3878 153.12 99.4545 152.716 99.4545ZM161.304 97.1278C160.665 97.1278 160.111 96.9872 159.642 96.706C159.173 96.4247 158.81 96.0312 158.551 95.5256C158.295 95.0199 158.168 94.429 158.168 93.7528C158.168 93.0767 158.295 92.4844 158.551 91.9759C158.81 91.4673 159.173 91.0724 159.642 90.7912C160.111 90.5099 160.665 90.3693 161.304 90.3693C161.943 90.3693 162.497 90.5099 162.966 90.7912C163.435 91.0724 163.797 91.4673 164.053 91.9759C164.311 92.4844 164.44 93.0767 164.44 93.7528C164.44 94.429 164.311 95.0199 164.053 95.5256C163.797 96.0312 163.435 96.4247 162.966 96.706C162.497 96.9872 161.943 97.1278 161.304 97.1278ZM161.312 95.892C161.659 95.892 161.949 95.7969 162.182 95.6065C162.415 95.4134 162.588 95.1548 162.702 94.831C162.818 94.5071 162.876 94.1463 162.876 93.7486C162.876 93.348 162.818 92.9858 162.702 92.6619C162.588 92.3352 162.415 92.0753 162.182 91.8821C161.949 91.6889 161.659 91.5923 161.312 91.5923C160.957 91.5923 160.662 91.6889 160.426 91.8821C160.193 92.0753 160.018 92.3352 159.902 92.6619C159.788 92.9858 159.732 93.348 159.732 93.7486C159.732 94.1463 159.788 94.5071 159.902 94.831C160.018 95.1548 160.193 95.4134 160.426 95.6065C160.662 95.7969 160.957 95.892 161.312 95.892ZM169.922 94.2472V90.4545H171.464V97H169.968V95.8366H169.9C169.752 96.2031 169.51 96.5028 169.172 96.7358C168.836 96.9687 168.423 97.0852 167.931 97.0852C167.502 97.0852 167.123 96.9901 166.794 96.7997C166.467 96.6065 166.211 96.3267 166.027 95.9602C165.842 95.5909 165.75 95.1449 165.75 94.6222V90.4545H167.292V94.3835C167.292 94.7983 167.406 95.1278 167.633 95.3722C167.86 95.6165 168.159 95.7386 168.528 95.7386C168.755 95.7386 168.975 95.6832 169.189 95.5724C169.402 95.4616 169.576 95.2969 169.713 95.0781C169.852 94.8565 169.922 94.5795 169.922 94.2472ZM173.05 97V90.4545H174.546V91.5455H174.614C174.734 91.1676 174.938 90.8764 175.228 90.6719C175.521 90.4645 175.854 90.3608 176.229 90.3608C176.315 90.3608 176.41 90.3651 176.515 90.3736C176.623 90.3793 176.712 90.3892 176.783 90.4034V91.8224C176.718 91.7997 176.614 91.7798 176.472 91.7628C176.333 91.7429 176.198 91.733 176.067 91.733C175.786 91.733 175.533 91.794 175.309 91.9162C175.087 92.0355 174.913 92.2017 174.785 92.4148C174.657 92.6278 174.593 92.8736 174.593 93.152V97H173.05ZM184.053 90.4545V91.6477H180.29V90.4545H184.053ZM181.219 88.8864H182.762V95.0312C182.762 95.2386 182.793 95.3977 182.856 95.5085C182.921 95.6165 183.006 95.6903 183.112 95.7301C183.217 95.7699 183.333 95.7898 183.461 95.7898C183.558 95.7898 183.646 95.7827 183.725 95.7685C183.808 95.7543 183.87 95.7415 183.913 95.7301L184.173 96.9361C184.09 96.9645 183.972 96.9957 183.819 97.0298C183.668 97.0639 183.484 97.0838 183.265 97.0895C182.879 97.1009 182.531 97.0426 182.221 96.9148C181.911 96.7841 181.665 96.5824 181.484 96.3097C181.305 96.0369 181.217 95.696 181.219 95.2869V88.8864ZM188.171 97.1278C187.515 97.1278 186.948 96.9915 186.471 96.7188C185.996 96.4432 185.631 96.054 185.375 95.5511C185.12 95.0455 184.992 94.4503 184.992 93.7656C184.992 93.0923 185.12 92.5014 185.375 91.9929C185.634 91.4815 185.995 91.0838 186.458 90.7997C186.921 90.5128 187.465 90.3693 188.09 90.3693C188.493 90.3693 188.874 90.4347 189.232 90.5653C189.593 90.6932 189.911 90.892 190.186 91.1619C190.465 91.4318 190.684 91.7756 190.843 92.1932C191.002 92.608 191.081 93.1023 191.081 93.6761V94.1491H185.716V93.1094H189.603C189.6 92.8139 189.536 92.5511 189.411 92.321C189.286 92.0881 189.111 91.9048 188.887 91.7713C188.665 91.6378 188.407 91.571 188.111 91.571C187.796 91.571 187.519 91.6477 187.28 91.8011C187.042 91.9517 186.855 92.1506 186.722 92.3977C186.591 92.642 186.525 92.9105 186.522 93.2031V94.1108C186.522 94.4915 186.591 94.8182 186.73 95.0909C186.87 95.3608 187.064 95.5682 187.314 95.7131C187.564 95.8551 187.857 95.9261 188.192 95.9261C188.417 95.9261 188.62 95.8949 188.801 95.8324C188.983 95.767 189.141 95.6719 189.275 95.5469C189.408 95.4219 189.509 95.267 189.577 95.0824L191.017 95.2443C190.926 95.625 190.753 95.9574 190.498 96.2415C190.245 96.5227 189.921 96.7415 189.526 96.8977C189.131 97.0511 188.679 97.1278 188.171 97.1278ZM193.929 93.1648V97H192.386V90.4545H193.861V91.5668H193.938C194.088 91.2003 194.328 90.9091 194.658 90.6932C194.99 90.4773 195.401 90.3693 195.889 90.3693C196.341 90.3693 196.734 90.4659 197.07 90.6591C197.408 90.8523 197.669 91.1321 197.854 91.4986C198.041 91.8651 198.134 92.3097 198.131 92.8324V97H196.588V93.071C196.588 92.6335 196.474 92.2912 196.247 92.044C196.023 91.7969 195.712 91.6733 195.314 91.6733C195.044 91.6733 194.804 91.733 194.594 91.8523C194.386 91.9687 194.223 92.1378 194.104 92.3594C193.987 92.581 193.929 92.8494 193.929 93.1648ZM201.582 97.1321C201.168 97.1321 200.794 97.0582 200.462 96.9105C200.132 96.7599 199.871 96.5384 199.678 96.2457C199.487 95.9531 199.392 95.5923 199.392 95.1634C199.392 94.794 199.46 94.4886 199.597 94.2472C199.733 94.0057 199.919 93.8125 200.155 93.6676C200.391 93.5227 200.656 93.4134 200.952 93.3395C201.25 93.2628 201.558 93.2074 201.876 93.1733C202.26 93.1335 202.571 93.098 202.81 93.0668C203.048 93.0327 203.222 92.9815 203.33 92.9134C203.44 92.8423 203.496 92.733 203.496 92.5852V92.5597C203.496 92.2386 203.401 91.9901 203.21 91.8139C203.02 91.6378 202.746 91.5497 202.388 91.5497C202.01 91.5497 201.71 91.6321 201.489 91.7969C201.27 91.9616 201.122 92.1562 201.045 92.3807L199.605 92.1761C199.719 91.7784 199.906 91.446 200.168 91.179C200.429 90.9091 200.749 90.7074 201.126 90.5739C201.504 90.4375 201.922 90.3693 202.379 90.3693C202.695 90.3693 203.009 90.4062 203.321 90.4801C203.634 90.554 203.919 90.6761 204.178 90.8466C204.436 91.0142 204.643 91.2429 204.8 91.5327C204.959 91.8224 205.038 92.1847 205.038 92.6193V97H203.555V96.1009H203.504C203.411 96.2827 203.278 96.4531 203.108 96.6122C202.94 96.7685 202.729 96.8949 202.473 96.9915C202.22 97.0852 201.923 97.1321 201.582 97.1321ZM201.983 95.9986C202.293 95.9986 202.561 95.9375 202.788 95.8153C203.016 95.6903 203.19 95.5256 203.312 95.321C203.438 95.1165 203.5 94.8935 203.5 94.652V93.8807C203.452 93.9205 203.369 93.9574 203.253 93.9915C203.139 94.0256 203.011 94.0554 202.869 94.081C202.727 94.1065 202.587 94.1293 202.447 94.1491C202.308 94.169 202.188 94.1861 202.085 94.2003C201.855 94.2315 201.649 94.2827 201.467 94.3537C201.286 94.4247 201.142 94.5241 201.037 94.652C200.932 94.777 200.879 94.9389 200.879 95.1378C200.879 95.4219 200.983 95.6364 201.19 95.7812C201.398 95.9261 201.662 95.9986 201.983 95.9986ZM208.132 93.1648V97H206.589V90.4545H208.064V91.5668H208.141C208.291 91.2003 208.531 90.9091 208.861 90.6932C209.193 90.4773 209.604 90.3693 210.092 90.3693C210.544 90.3693 210.938 90.4659 211.273 90.6591C211.611 90.8523 211.872 91.1321 212.057 91.4986C212.244 91.8651 212.337 92.3097 212.334 92.8324V97H210.791V93.071C210.791 92.6335 210.678 92.2912 210.45 92.044C210.226 91.7969 209.915 91.6733 209.517 91.6733C209.247 91.6733 209.007 91.733 208.797 91.8523C208.589 91.9687 208.426 92.1378 208.307 92.3594C208.19 92.581 208.132 92.8494 208.132 93.1648ZM217.17 90.4545V91.6477H213.408V90.4545H217.17ZM214.337 88.8864H215.879V95.0312C215.879 95.2386 215.911 95.3977 215.973 95.5085C216.038 95.6165 216.124 95.6903 216.229 95.7301C216.334 95.7699 216.45 95.7898 216.578 95.7898C216.675 95.7898 216.763 95.7827 216.842 95.7685C216.925 95.7543 216.987 95.7415 217.03 95.7301L217.29 96.9361C217.207 96.9645 217.089 96.9957 216.936 97.0298C216.786 97.0639 216.601 97.0838 216.382 97.0895C215.996 97.1009 215.648 97.0426 215.338 96.9148C215.028 96.7841 214.783 96.5824 214.601 96.3097C214.422 96.0369 214.334 95.696 214.337 95.2869V88.8864Z" fill="white" fill-opacity="0.6"/>
<path d="M64.831 126.217H63.2372C63.1918 125.956 63.108 125.724 62.9858 125.523C62.8636 125.318 62.7116 125.145 62.5298 125.003C62.348 124.861 62.1406 124.754 61.9077 124.683C61.6776 124.609 61.429 124.572 61.1619 124.572C60.6875 124.572 60.267 124.692 59.9006 124.93C59.5341 125.166 59.2472 125.513 59.0398 125.97C58.8324 126.425 58.7287 126.98 58.7287 127.636C58.7287 128.304 58.8324 128.866 59.0398 129.324C59.25 129.778 59.5369 130.122 59.9006 130.355C60.267 130.585 60.6861 130.7 61.1577 130.7C61.419 130.7 61.6634 130.666 61.8906 130.598C62.1207 130.527 62.3267 130.423 62.5085 130.287C62.6932 130.151 62.848 129.983 62.973 129.784C63.1009 129.585 63.1889 129.358 63.2372 129.102L64.831 129.111C64.7713 129.526 64.642 129.915 64.4432 130.278C64.2472 130.642 63.9901 130.963 63.6719 131.241C63.3537 131.517 62.9815 131.733 62.5554 131.889C62.1293 132.043 61.6563 132.119 61.1364 132.119C60.3693 132.119 59.6847 131.942 59.0824 131.587C58.4801 131.232 58.0057 130.719 57.6591 130.048C57.3125 129.378 57.1392 128.574 57.1392 127.636C57.1392 126.696 57.3139 125.892 57.6634 125.224C58.0128 124.554 58.4886 124.041 59.0909 123.686C59.6932 123.331 60.375 123.153 61.1364 123.153C61.6222 123.153 62.0739 123.222 62.4915 123.358C62.9091 123.494 63.2813 123.695 63.608 123.959C63.9347 124.22 64.2031 124.541 64.4134 124.922C64.6264 125.3 64.7656 125.732 64.831 126.217ZM68.0941 132.132C67.6793 132.132 67.3058 132.058 66.9734 131.911C66.6438 131.76 66.3825 131.538 66.1893 131.246C65.9989 130.953 65.9038 130.592 65.9038 130.163C65.9038 129.794 65.9719 129.489 66.1083 129.247C66.2447 129.006 66.4308 128.812 66.6665 128.668C66.9023 128.523 67.168 128.413 67.4634 128.339C67.7617 128.263 68.07 128.207 68.3881 128.173C68.7717 128.134 69.0827 128.098 69.3214 128.067C69.56 128.033 69.7333 127.982 69.8413 127.913C69.9521 127.842 70.0075 127.733 70.0075 127.585V127.56C70.0075 127.239 69.9123 126.99 69.7219 126.814C69.5316 126.638 69.2575 126.55 68.8995 126.55C68.5217 126.55 68.2219 126.632 68.0004 126.797C67.7816 126.962 67.6339 127.156 67.5572 127.381L66.1168 127.176C66.2305 126.778 66.418 126.446 66.6793 126.179C66.9407 125.909 67.2603 125.707 67.6381 125.574C68.016 125.438 68.4336 125.369 68.891 125.369C69.2063 125.369 69.5202 125.406 69.8327 125.48C70.1452 125.554 70.4308 125.676 70.6893 125.847C70.9478 126.014 71.1552 126.243 71.3114 126.533C71.4705 126.822 71.5501 127.185 71.5501 127.619V132H70.0671V131.101H70.016C69.9222 131.283 69.7901 131.453 69.6197 131.612C69.4521 131.768 69.2404 131.895 68.9847 131.991C68.7319 132.085 68.435 132.132 68.0941 132.132ZM68.4947 130.999C68.8043 130.999 69.0728 130.937 69.3001 130.815C69.5273 130.69 69.7021 130.526 69.8242 130.321C69.9492 130.116 70.0117 129.893 70.0117 129.652V128.881C69.9634 128.92 69.881 128.957 69.7646 128.991C69.6509 129.026 69.5231 129.055 69.381 129.081C69.239 129.107 69.0984 129.129 68.9592 129.149C68.82 129.169 68.6992 129.186 68.5969 129.2C68.3668 129.232 68.1609 129.283 67.979 129.354C67.7972 129.425 67.6538 129.524 67.5487 129.652C67.4435 129.777 67.391 129.939 67.391 130.138C67.391 130.422 67.4947 130.636 67.7021 130.781C67.9094 130.926 68.1737 130.999 68.4947 130.999ZM73.1012 134.455V125.455H74.6183V126.537H74.7077C74.7873 126.378 74.8995 126.209 75.0444 126.03C75.1893 125.848 75.3853 125.693 75.6325 125.565C75.8796 125.435 76.195 125.369 76.5785 125.369C77.0842 125.369 77.5401 125.499 77.9464 125.757C78.3555 126.013 78.6793 126.392 78.918 126.895C79.1594 127.395 79.2802 128.009 79.2802 128.736C79.2802 129.455 79.1623 130.065 78.9265 130.568C78.6907 131.071 78.3697 131.455 77.9634 131.719C77.5572 131.983 77.0969 132.115 76.5827 132.115C76.2077 132.115 75.8967 132.053 75.6495 131.928C75.4023 131.803 75.2035 131.652 75.0529 131.476C74.9052 131.297 74.7901 131.128 74.7077 130.969H74.6438V134.455H73.1012ZM74.614 128.727C74.614 129.151 74.6737 129.521 74.793 129.839C74.9151 130.158 75.0898 130.406 75.3171 130.585C75.5472 130.761 75.8256 130.849 76.1523 130.849C76.4933 130.849 76.7788 130.759 77.0089 130.577C77.239 130.392 77.4123 130.141 77.5288 129.822C77.6481 129.501 77.7077 129.136 77.7077 128.727C77.7077 128.321 77.6495 127.96 77.533 127.645C77.4165 127.33 77.2433 127.082 77.0131 126.903C76.783 126.724 76.4961 126.635 76.1523 126.635C75.8228 126.635 75.543 126.722 75.3129 126.895C75.0827 127.068 74.908 127.311 74.7887 127.624C74.6722 127.936 74.614 128.304 74.614 128.727ZM82.4847 132.132C82.07 132.132 81.6964 132.058 81.364 131.911C81.0344 131.76 80.7731 131.538 80.5799 131.246C80.3896 130.953 80.2944 130.592 80.2944 130.163C80.2944 129.794 80.3626 129.489 80.4989 129.247C80.6353 129.006 80.8214 128.812 81.0572 128.668C81.293 128.523 81.5586 128.413 81.854 128.339C82.1523 128.263 82.4606 128.207 82.7788 128.173C83.1623 128.134 83.4734 128.098 83.712 128.067C83.9506 128.033 84.1239 127.982 84.2319 127.913C84.3427 127.842 84.3981 127.733 84.3981 127.585V127.56C84.3981 127.239 84.3029 126.99 84.1126 126.814C83.9222 126.638 83.6481 126.55 83.2901 126.55C82.9123 126.55 82.6126 126.632 82.391 126.797C82.1722 126.962 82.0245 127.156 81.9478 127.381L80.5075 127.176C80.6211 126.778 80.8086 126.446 81.07 126.179C81.3313 125.909 81.6509 125.707 82.0288 125.574C82.4066 125.438 82.8242 125.369 83.2816 125.369C83.5969 125.369 83.9109 125.406 84.2234 125.48C84.5359 125.554 84.8214 125.676 85.0799 125.847C85.3384 126.014 85.5458 126.243 85.7021 126.533C85.8612 126.822 85.9407 127.185 85.9407 127.619V132H84.4577V131.101H84.4066C84.3129 131.283 84.1808 131.453 84.0103 131.612C83.8427 131.768 83.631 131.895 83.3754 131.991C83.1225 132.085 82.8256 132.132 82.4847 132.132ZM82.8853 130.999C83.195 130.999 83.4634 130.937 83.6907 130.815C83.918 130.69 84.0927 130.526 84.2148 130.321C84.3398 130.116 84.4023 129.893 84.4023 129.652V128.881C84.354 128.92 84.2717 128.957 84.1552 128.991C84.0415 129.026 83.9137 129.055 83.7717 129.081C83.6296 129.107 83.489 129.129 83.3498 129.149C83.2106 129.169 83.0898 129.186 82.9876 129.2C82.7575 129.232 82.5515 129.283 82.3697 129.354C82.1879 129.425 82.0444 129.524 81.9393 129.652C81.8342 129.777 81.7816 129.939 81.7816 130.138C81.7816 130.422 81.8853 130.636 82.0927 130.781C82.3001 130.926 82.5643 130.999 82.8853 130.999ZM90.3469 132.128C89.6935 132.128 89.1325 131.984 88.6637 131.697C88.1978 131.411 87.8384 131.014 87.5856 130.509C87.3356 130 87.2106 129.415 87.2106 128.753C87.2106 128.088 87.3384 127.501 87.5941 126.993C87.8498 126.482 88.2106 126.084 88.6765 125.8C89.1452 125.513 89.6992 125.369 90.3384 125.369C90.8697 125.369 91.3398 125.467 91.7489 125.663C92.1609 125.857 92.489 126.131 92.7333 126.486C92.9776 126.838 93.1168 127.25 93.1509 127.722H91.6765C91.6168 127.406 91.4748 127.143 91.2504 126.933C91.0288 126.72 90.7319 126.614 90.3597 126.614C90.0444 126.614 89.7674 126.699 89.5288 126.869C89.2901 127.037 89.104 127.278 88.9705 127.594C88.8398 127.909 88.7745 128.287 88.7745 128.727C88.7745 129.173 88.8398 129.557 88.9705 129.878C89.1012 130.196 89.2844 130.442 89.5202 130.615C89.7589 130.786 90.0387 130.871 90.3597 130.871C90.587 130.871 90.7901 130.828 90.9691 130.743C91.1509 130.655 91.3029 130.528 91.4251 130.364C91.5472 130.199 91.631 129.999 91.6765 129.763H93.1509C93.114 130.226 92.9776 130.636 92.7418 130.994C92.506 131.349 92.185 131.628 91.7788 131.83C91.3725 132.028 90.8952 132.128 90.3469 132.128ZM94.4176 132V125.455H95.9602V132H94.4176ZM95.1932 124.526C94.9489 124.526 94.7386 124.445 94.5625 124.283C94.3864 124.118 94.2983 123.92 94.2983 123.69C94.2983 123.457 94.3864 123.26 94.5625 123.098C94.7386 122.933 94.9489 122.851 95.1932 122.851C95.4403 122.851 95.6506 122.933 95.8239 123.098C96 123.26 96.0881 123.457 96.0881 123.69C96.0881 123.92 96 124.118 95.8239 124.283C95.6506 124.445 95.4403 124.526 95.1932 124.526ZM100.815 125.455V126.648H97.0522V125.455H100.815ZM97.9812 123.886H99.5238V130.031C99.5238 130.239 99.555 130.398 99.6175 130.509C99.6829 130.616 99.7681 130.69 99.8732 130.73C99.9783 130.77 100.095 130.79 100.223 130.79C100.319 130.79 100.407 130.783 100.487 130.768C100.569 130.754 100.632 130.741 100.674 130.73L100.934 131.936C100.852 131.964 100.734 131.996 100.581 132.03C100.43 132.064 100.245 132.084 100.027 132.089C99.6403 132.101 99.2923 132.043 98.9826 131.915C98.6729 131.784 98.4272 131.582 98.2454 131.31C98.0664 131.037 97.9783 130.696 97.9812 130.287V123.886ZM103.064 134.455C102.854 134.455 102.659 134.438 102.48 134.403C102.304 134.372 102.163 134.335 102.058 134.293L102.416 133.091C102.641 133.156 102.841 133.188 103.017 133.185C103.193 133.182 103.348 133.126 103.482 133.018C103.618 132.913 103.733 132.737 103.827 132.49L103.959 132.136L101.585 125.455H103.222L104.73 130.398H104.798L106.311 125.455H107.952L105.331 132.793C105.209 133.139 105.047 133.436 104.845 133.683C104.643 133.933 104.396 134.124 104.104 134.254C103.814 134.388 103.467 134.455 103.064 134.455ZM112.987 127.73V129H109.058V127.73H112.987ZM122.475 127.636C122.475 128.577 122.299 129.382 121.947 130.053C121.598 130.72 121.12 131.232 120.515 131.587C119.913 131.942 119.23 132.119 118.466 132.119C117.701 132.119 117.017 131.942 116.412 131.587C115.809 131.229 115.332 130.716 114.98 130.048C114.63 129.378 114.456 128.574 114.456 127.636C114.456 126.696 114.63 125.892 114.98 125.224C115.332 124.554 115.809 124.041 116.412 123.686C117.017 123.331 117.701 123.153 118.466 123.153C119.23 123.153 119.913 123.331 120.515 123.686C121.12 124.041 121.598 124.554 121.947 125.224C122.299 125.892 122.475 126.696 122.475 127.636ZM120.886 127.636C120.886 126.974 120.782 126.416 120.575 125.962C120.37 125.504 120.086 125.159 119.723 124.926C119.359 124.69 118.94 124.572 118.466 124.572C117.991 124.572 117.572 124.69 117.208 124.926C116.845 125.159 116.559 125.504 116.352 125.962C116.147 126.416 116.045 126.974 116.045 127.636C116.045 128.298 116.147 128.858 116.352 129.315C116.559 129.77 116.845 130.115 117.208 130.351C117.572 130.584 117.991 130.7 118.466 130.7C118.94 130.7 119.359 130.584 119.723 130.351C120.086 130.115 120.37 129.77 120.575 129.315C120.782 128.858 120.886 128.298 120.886 127.636ZM125.445 128.165V132H123.902V125.455H125.376V126.567H125.453C125.604 126.2 125.844 125.909 126.173 125.693C126.506 125.477 126.916 125.369 127.405 125.369C127.857 125.369 128.25 125.466 128.585 125.659C128.923 125.852 129.185 126.132 129.369 126.499C129.557 126.865 129.649 127.31 129.646 127.832V132H128.104V128.071C128.104 127.634 127.99 127.291 127.763 127.044C127.538 126.797 127.227 126.673 126.83 126.673C126.56 126.673 126.32 126.733 126.109 126.852C125.902 126.969 125.739 127.138 125.619 127.359C125.503 127.581 125.445 127.849 125.445 128.165ZM134.112 132.128C133.456 132.128 132.889 131.991 132.412 131.719C131.938 131.443 131.572 131.054 131.317 130.551C131.061 130.045 130.933 129.45 130.933 128.766C130.933 128.092 131.061 127.501 131.317 126.993C131.575 126.482 131.936 126.084 132.399 125.8C132.862 125.513 133.406 125.369 134.031 125.369C134.435 125.369 134.815 125.435 135.173 125.565C135.534 125.693 135.852 125.892 136.128 126.162C136.406 126.432 136.625 126.776 136.784 127.193C136.943 127.608 137.023 128.102 137.023 128.676V129.149H131.658V128.109H135.544C135.541 127.814 135.477 127.551 135.352 127.321C135.227 127.088 135.053 126.905 134.828 126.771C134.607 126.638 134.348 126.571 134.053 126.571C133.737 126.571 133.46 126.648 133.222 126.801C132.983 126.952 132.797 127.151 132.663 127.398C132.533 127.642 132.466 127.911 132.463 128.203V129.111C132.463 129.491 132.533 129.818 132.672 130.091C132.811 130.361 133.006 130.568 133.256 130.713C133.506 130.855 133.798 130.926 134.134 130.926C134.358 130.926 134.561 130.895 134.743 130.832C134.925 130.767 135.082 130.672 135.216 130.547C135.349 130.422 135.45 130.267 135.518 130.082L136.959 130.244C136.868 130.625 136.695 130.957 136.439 131.241C136.186 131.523 135.862 131.741 135.467 131.898C135.072 132.051 134.621 132.128 134.112 132.128ZM142.295 127.73V129H138.366V127.73H142.295ZM149.487 123.273H151.068V128.974C151.068 129.599 150.92 130.149 150.625 130.624C150.332 131.098 149.92 131.469 149.389 131.736C148.858 132 148.237 132.132 147.527 132.132C146.814 132.132 146.192 132 145.661 131.736C145.129 131.469 144.717 131.098 144.425 130.624C144.132 130.149 143.986 129.599 143.986 128.974V123.273H145.567V128.842C145.567 129.206 145.646 129.53 145.805 129.814C145.967 130.098 146.195 130.321 146.487 130.483C146.78 130.642 147.126 130.722 147.527 130.722C147.928 130.722 148.274 130.642 148.567 130.483C148.862 130.321 149.089 130.098 149.249 129.814C149.408 129.53 149.487 129.206 149.487 128.842V123.273ZM157.529 125.672C157.49 125.3 157.322 125.01 157.027 124.803C156.734 124.595 156.353 124.491 155.885 124.491C155.555 124.491 155.272 124.541 155.037 124.641C154.801 124.74 154.62 124.875 154.495 125.045C154.37 125.216 154.306 125.411 154.304 125.629C154.304 125.811 154.345 125.969 154.427 126.102C154.512 126.236 154.627 126.349 154.772 126.443C154.917 126.534 155.078 126.611 155.254 126.673C155.43 126.736 155.608 126.788 155.787 126.831L156.605 127.036C156.934 127.112 157.251 127.216 157.555 127.347C157.862 127.477 158.136 127.642 158.377 127.841C158.622 128.04 158.815 128.28 158.957 128.561C159.099 128.842 159.17 129.172 159.17 129.55C159.17 130.061 159.039 130.511 158.778 130.901C158.517 131.287 158.139 131.589 157.645 131.808C157.153 132.024 156.558 132.132 155.859 132.132C155.18 132.132 154.591 132.027 154.091 131.817C153.593 131.607 153.204 131.3 152.923 130.896C152.645 130.493 152.494 130.001 152.471 129.422H154.027C154.049 129.726 154.143 129.979 154.308 130.18C154.473 130.382 154.687 130.533 154.951 130.632C155.218 130.732 155.517 130.781 155.846 130.781C156.19 130.781 156.491 130.73 156.75 130.628C157.011 130.523 157.216 130.378 157.363 130.193C157.511 130.006 157.586 129.787 157.589 129.537C157.586 129.31 157.52 129.122 157.389 128.974C157.258 128.824 157.075 128.699 156.839 128.599C156.606 128.497 156.333 128.406 156.021 128.327L155.028 128.071C154.309 127.886 153.741 127.607 153.324 127.232C152.909 126.854 152.701 126.352 152.701 125.727C152.701 125.213 152.841 124.763 153.119 124.376C153.4 123.99 153.782 123.69 154.265 123.477C154.748 123.261 155.295 123.153 155.906 123.153C156.525 123.153 157.068 123.261 157.534 123.477C158.002 123.69 158.37 123.987 158.637 124.368C158.904 124.746 159.042 125.18 159.051 125.672H157.529Z" fill="white"/>
<path d="M176.555 127.574L174.074 130.074C173.938 130.191 173.781 130.25 173.625 130.25C173.449 130.25 173.293 130.191 173.176 130.074L170.695 127.574C170.5 127.398 170.441 127.125 170.539 126.891C170.637 126.656 170.871 126.5 171.125 126.5H176.105C176.359 126.5 176.574 126.656 176.672 126.891C176.77 127.125 176.73 127.398 176.555 127.574Z" fill="#00D4FF"/>
<path d="M63.4425 146.181H62.1143C62.0765 145.963 62.0066 145.77 61.9048 145.602C61.803 145.432 61.6764 145.287 61.5249 145.169C61.3733 145.051 61.2005 144.962 61.0064 144.903C60.8146 144.841 60.6075 144.81 60.3849 144.81C59.9896 144.81 59.6392 144.91 59.3338 145.109C59.0284 145.305 58.7893 145.594 58.6165 145.975C58.4437 146.354 58.3572 146.817 58.3572 147.364C58.3572 147.92 58.4437 148.389 58.6165 148.77C58.7917 149.149 59.0308 149.435 59.3338 149.629C59.6392 149.821 59.9884 149.917 60.3814 149.917C60.5992 149.917 60.8028 149.888 60.9922 149.832C61.1839 149.772 61.3556 149.686 61.5071 149.572C61.661 149.459 61.79 149.319 61.8942 149.153C62.0007 148.988 62.0741 148.798 62.1143 148.585L63.4425 148.592C63.3928 148.938 63.285 149.262 63.1193 149.565C62.956 149.868 62.7417 150.136 62.4766 150.368C62.2114 150.598 61.9013 150.777 61.5462 150.908C61.1911 151.036 60.7969 151.099 60.3636 151.099C59.7244 151.099 59.1539 150.951 58.652 150.656C58.1501 150.36 57.7547 149.932 57.4659 149.374C57.1771 148.815 57.0327 148.145 57.0327 147.364C57.0327 146.58 57.1783 145.91 57.4695 145.354C57.7607 144.795 58.1572 144.368 58.6591 144.072C59.161 143.776 59.7292 143.628 60.3636 143.628C60.7685 143.628 61.1449 143.685 61.4929 143.798C61.8409 143.912 62.151 144.079 62.4233 144.299C62.6955 144.517 62.9193 144.784 63.0945 145.102C63.272 145.416 63.388 145.776 63.4425 146.181ZM65.8777 147.804V151H64.5922V143.727H65.8493V146.472H65.9132C66.041 146.165 66.2387 145.922 66.5062 145.744C66.7761 145.564 67.1194 145.474 67.536 145.474C67.9148 145.474 68.2451 145.554 68.5268 145.712C68.8085 145.871 69.0263 146.103 69.1802 146.408C69.3365 146.714 69.4146 147.087 69.4146 147.527V151H68.1291V147.726C68.1291 147.359 68.0344 147.074 67.845 146.87C67.658 146.664 67.3952 146.561 67.0566 146.561C66.8294 146.561 66.6258 146.611 66.4458 146.71C66.2683 146.807 66.1286 146.948 66.0268 147.133C65.9274 147.317 65.8777 147.541 65.8777 147.804ZM73.1397 151.107C72.5929 151.107 72.1206 150.993 71.7228 150.766C71.3275 150.536 71.0233 150.212 70.8102 149.793C70.5971 149.371 70.4906 148.875 70.4906 148.305C70.4906 147.744 70.5971 147.251 70.8102 146.827C71.0256 146.401 71.3263 146.07 71.7122 145.833C72.0981 145.594 72.5514 145.474 73.0723 145.474C73.4084 145.474 73.7257 145.529 74.024 145.638C74.3246 145.744 74.5898 145.91 74.8194 146.135C75.0514 146.36 75.2337 146.646 75.3663 146.994C75.4989 147.34 75.5652 147.752 75.5652 148.23V148.624H71.0943V147.758H74.3329C74.3306 147.512 74.2773 147.293 74.1731 147.101C74.069 146.907 73.9234 146.754 73.7363 146.643C73.5517 146.531 73.3362 146.476 73.09 146.476C72.8272 146.476 72.5964 146.54 72.3975 146.668C72.1987 146.793 72.0436 146.959 71.9324 147.165C71.8234 147.368 71.7678 147.592 71.7654 147.836V148.592C71.7654 148.91 71.8234 149.182 71.9395 149.409C72.0555 149.634 72.2176 149.807 72.426 149.928C72.6343 150.046 72.8781 150.105 73.1575 150.105C73.3445 150.105 73.5138 150.079 73.6653 150.027C73.8168 149.973 73.9482 149.893 74.0595 149.789C74.1708 149.685 74.2548 149.556 74.3116 149.402L75.5119 149.537C75.4361 149.854 75.2917 150.131 75.0787 150.368C74.868 150.602 74.5981 150.785 74.269 150.915C73.9399 151.043 73.5635 151.107 73.1397 151.107ZM79.032 151.107C78.4875 151.107 78.0199 150.987 77.6293 150.748C77.241 150.509 76.9415 150.179 76.7308 149.757C76.5225 149.333 76.4183 148.846 76.4183 148.294C76.4183 147.74 76.5249 147.251 76.7379 146.827C76.951 146.401 77.2517 146.07 77.6399 145.833C78.0305 145.594 78.4922 145.474 79.0249 145.474C79.4676 145.474 79.8594 145.556 80.2003 145.719C80.5436 145.88 80.817 146.109 81.0206 146.405C81.2242 146.698 81.3402 147.042 81.3686 147.435H80.1399C80.0902 147.172 79.9718 146.953 79.7848 146.778C79.6001 146.6 79.3527 146.511 79.0426 146.511C78.7798 146.511 78.549 146.582 78.3501 146.724C78.1513 146.864 77.9962 147.065 77.8849 147.328C77.776 147.591 77.7216 147.906 77.7216 148.273C77.7216 148.644 77.776 148.964 77.8849 149.232C77.9938 149.497 78.1465 149.701 78.343 149.846C78.5419 149.988 78.7751 150.059 79.0426 150.059C79.232 150.059 79.4013 150.023 79.5504 149.952C79.7019 149.879 79.8286 149.774 79.9304 149.636C80.0322 149.499 80.102 149.332 80.1399 149.136H81.3686C81.3378 149.522 81.2242 149.864 81.0277 150.162C80.8312 150.458 80.5637 150.69 80.2251 150.858C79.8866 151.024 79.4889 151.107 79.032 151.107ZM83.5961 149.288L83.5925 147.737H83.7985L85.7587 145.545H87.2608L84.8496 148.23H84.5833L83.5961 149.288ZM82.4242 151V143.727H83.7097V151H82.4242ZM85.8475 151L84.0719 148.518L84.9384 147.612L87.3851 151H85.8475ZM88.9094 151.078C88.694 151.078 88.5094 151.002 88.3555 150.851C88.2016 150.699 88.1258 150.515 88.1282 150.297C88.1258 150.084 88.2016 149.902 88.3555 149.75C88.5094 149.598 88.694 149.523 88.9094 149.523C89.1178 149.523 89.2989 149.598 89.4528 149.75C89.609 149.902 89.6883 150.084 89.6907 150.297C89.6883 150.441 89.6504 150.573 89.5771 150.691C89.506 150.809 89.4113 150.904 89.293 150.975C89.177 151.044 89.0491 151.078 88.9094 151.078ZM88.9094 147.186C88.694 147.186 88.5094 147.11 88.3555 146.959C88.2016 146.805 88.1258 146.62 88.1282 146.405C88.1258 146.192 88.2016 146.009 88.3555 145.858C88.5094 145.704 88.694 145.627 88.9094 145.627C89.1178 145.627 89.2989 145.704 89.4528 145.858C89.609 146.009 89.6883 146.192 89.6907 146.405C89.6883 146.547 89.6504 146.677 89.5771 146.795C89.506 146.914 89.4113 147.009 89.293 147.08C89.177 147.151 89.0491 147.186 88.9094 147.186ZM93.4842 151V150.048L96.0091 147.573C96.2505 147.329 96.4518 147.113 96.6127 146.923C96.7737 146.734 96.8945 146.55 96.975 146.373C97.0555 146.195 97.0957 146.006 97.0957 145.805C97.0957 145.575 97.0436 145.379 96.9395 145.215C96.8353 145.049 96.6921 144.922 96.5098 144.832C96.3275 144.742 96.1203 144.697 95.8883 144.697C95.6492 144.697 95.4397 144.746 95.2598 144.846C95.0798 144.943 94.9402 145.081 94.8407 145.261C94.7437 145.441 94.6951 145.656 94.6951 145.904H93.4416C93.4416 145.442 93.5469 145.041 93.7576 144.7C93.9683 144.359 94.2583 144.095 94.6277 143.908C94.9993 143.721 95.4255 143.628 95.9061 143.628C96.3938 143.628 96.8223 143.719 97.1916 143.901C97.5609 144.084 97.8474 144.333 98.051 144.651C98.2569 144.968 98.3599 145.33 98.3599 145.737C98.3599 146.009 98.3078 146.277 98.2037 146.54C98.0995 146.803 97.916 147.094 97.6532 147.413C97.3928 147.733 97.027 148.12 96.5559 148.575L95.3024 149.849V149.899H98.47V151H93.4842ZM102.224 151.099C101.75 151.099 101.326 151.011 100.952 150.833C100.578 150.653 100.281 150.407 100.061 150.094C99.8431 149.782 99.7271 149.424 99.7129 149.022H100.991C101.015 149.32 101.144 149.564 101.378 149.754C101.613 149.941 101.894 150.034 102.224 150.034C102.482 150.034 102.711 149.975 102.912 149.857C103.114 149.738 103.272 149.574 103.388 149.363C103.504 149.152 103.561 148.912 103.559 148.642C103.561 148.367 103.503 148.124 103.385 147.911C103.266 147.697 103.104 147.531 102.898 147.41C102.692 147.287 102.456 147.225 102.188 147.225C101.97 147.223 101.756 147.263 101.545 147.346C101.335 147.429 101.168 147.538 101.045 147.673L99.8549 147.477L100.235 143.727H104.454V144.828H101.325L101.116 146.756H101.158C101.293 146.598 101.484 146.466 101.73 146.362C101.976 146.256 102.246 146.202 102.54 146.202C102.98 146.202 103.373 146.307 103.719 146.515C104.064 146.721 104.336 147.005 104.535 147.367C104.734 147.729 104.834 148.144 104.834 148.61C104.834 149.091 104.722 149.519 104.5 149.896C104.28 150.27 103.973 150.564 103.58 150.78C103.189 150.993 102.737 151.099 102.224 151.099ZM110.349 146.987L109.177 147.115C109.144 146.997 109.086 146.885 109.003 146.781C108.922 146.677 108.813 146.593 108.676 146.529C108.539 146.465 108.371 146.433 108.172 146.433C107.904 146.433 107.679 146.491 107.497 146.607C107.317 146.723 107.228 146.874 107.231 147.058C107.228 147.217 107.286 147.346 107.405 147.445C107.525 147.545 107.724 147.626 108.001 147.69L108.932 147.889C109.448 148 109.831 148.177 110.082 148.418C110.336 148.66 110.463 148.976 110.466 149.366C110.463 149.71 110.363 150.013 110.164 150.276C109.967 150.536 109.694 150.74 109.344 150.886C108.993 151.033 108.591 151.107 108.136 151.107C107.469 151.107 106.931 150.967 106.524 150.688C106.117 150.406 105.874 150.014 105.796 149.512L107.05 149.391C107.106 149.638 107.227 149.823 107.412 149.949C107.596 150.074 107.837 150.137 108.133 150.137C108.438 150.137 108.683 150.074 108.868 149.949C109.055 149.823 109.148 149.668 109.148 149.484C109.148 149.327 109.088 149.198 108.967 149.097C108.849 148.995 108.664 148.917 108.413 148.862L107.483 148.667C106.96 148.558 106.573 148.375 106.322 148.116C106.071 147.856 105.946 147.527 105.949 147.129C105.946 146.793 106.037 146.502 106.222 146.256C106.409 146.007 106.668 145.815 107 145.68C107.334 145.543 107.718 145.474 108.154 145.474C108.793 145.474 109.296 145.611 109.663 145.883C110.032 146.155 110.261 146.523 110.349 146.987Z" fill="white" fill-opacity="0.6"/>
<path d="M63.3395 164.092H62.2315C62.1889 163.856 62.1096 163.647 61.9936 163.467C61.8776 163.287 61.7356 163.135 61.5675 163.009C61.3994 162.884 61.2112 162.789 61.0028 162.725C60.7969 162.661 60.5779 162.629 60.3459 162.629C59.9268 162.629 59.5516 162.735 59.2202 162.945C58.8911 163.156 58.6307 163.465 58.4389 163.872C58.2495 164.279 58.1548 164.777 58.1548 165.364C58.1548 165.955 58.2495 166.455 58.4389 166.862C58.6307 167.269 58.8923 167.577 59.2237 167.786C59.5552 167.994 59.928 168.098 60.3423 168.098C60.572 168.098 60.7898 168.067 60.9957 168.006C61.2041 167.942 61.3923 167.848 61.5604 167.725C61.7285 167.602 61.8705 167.452 61.9865 167.274C62.1049 167.094 62.1866 166.888 62.2315 166.656L63.3395 166.66C63.2803 167.017 63.1655 167.346 62.995 167.647C62.8269 167.945 62.6103 168.203 62.3452 168.421C62.0824 168.637 61.7817 168.804 61.4432 168.922C61.1046 169.04 60.7353 169.099 60.3352 169.099C59.7055 169.099 59.1444 168.95 58.652 168.652C58.1596 168.351 57.7713 167.922 57.4872 167.363C57.2055 166.804 57.0646 166.138 57.0646 165.364C57.0646 164.587 57.2067 163.921 57.4908 163.364C57.7749 162.806 58.1631 162.377 58.6555 162.079C59.148 161.778 59.7079 161.628 60.3352 161.628C60.7211 161.628 61.081 161.683 61.4148 161.795C61.7509 161.904 62.0528 162.065 62.3203 162.278C62.5878 162.488 62.8092 162.746 62.9844 163.052C63.1596 163.355 63.2779 163.702 63.3395 164.092ZM65.6291 165.761V169H64.5673V161.727H65.6149V164.433H65.6824C65.8102 164.14 66.0055 163.906 66.2683 163.734C66.5311 163.561 66.8743 163.474 67.2981 163.474C67.6722 163.474 67.9989 163.551 68.2782 163.705C68.56 163.859 68.7778 164.089 68.9316 164.394C69.0879 164.697 69.166 165.076 69.166 165.531V169H68.1042V165.658C68.1042 165.258 68.0012 164.948 67.7953 164.728C67.5893 164.505 67.3029 164.394 66.9359 164.394C66.685 164.394 66.46 164.447 66.2612 164.554C66.0647 164.661 65.9096 164.817 65.796 165.023C65.6847 165.226 65.6291 165.473 65.6291 165.761ZM72.1703 169.121C71.8246 169.121 71.5121 169.057 71.2328 168.929C70.9534 168.799 70.7321 168.611 70.5687 168.364C70.4077 168.118 70.3272 167.816 70.3272 167.459C70.3272 167.151 70.3864 166.898 70.5048 166.699C70.6232 166.5 70.783 166.343 70.9842 166.227C71.1854 166.111 71.4103 166.023 71.6589 165.964C71.9075 165.905 72.1608 165.86 72.4189 165.829C72.7456 165.791 73.0107 165.76 73.2143 165.737C73.4179 165.71 73.5659 165.669 73.6582 165.612C73.7505 165.555 73.7967 165.463 73.7967 165.335V165.31C73.7967 165 73.7091 164.76 73.5339 164.589C73.3611 164.419 73.103 164.334 72.7598 164.334C72.4023 164.334 72.1206 164.413 71.9146 164.572C71.711 164.728 71.5701 164.902 71.492 165.094L70.4941 164.866C70.6125 164.535 70.7853 164.268 71.0126 164.064C71.2422 163.858 71.5062 163.709 71.8045 163.616C72.1028 163.522 72.4165 163.474 72.7456 163.474C72.9634 163.474 73.1942 163.5 73.438 163.553C73.6842 163.602 73.9139 163.695 74.127 163.83C74.3424 163.964 74.5188 164.157 74.6561 164.408C74.7934 164.657 74.862 164.98 74.862 165.378V169H73.8251V168.254H73.7825C73.7138 168.392 73.6109 168.527 73.4735 168.659C73.3362 168.792 73.1599 168.902 72.9444 168.989C72.729 169.077 72.4709 169.121 72.1703 169.121ZM72.4011 168.268C72.6947 168.268 72.9456 168.21 73.1539 168.094C73.3646 167.978 73.5244 167.827 73.6333 167.64C73.7446 167.451 73.8002 167.248 73.8002 167.033V166.33C73.7624 166.367 73.689 166.403 73.5801 166.436C73.4735 166.467 73.3516 166.494 73.2143 166.518C73.077 166.539 72.9432 166.559 72.813 166.578C72.6828 166.595 72.5739 166.609 72.4863 166.621C72.2804 166.647 72.0922 166.691 71.9217 166.752C71.7536 166.814 71.6187 166.902 71.5169 167.018C71.4174 167.132 71.3677 167.284 71.3677 167.473C71.3677 167.736 71.4648 167.935 71.6589 168.07C71.853 168.202 72.1004 168.268 72.4011 168.268ZM77.3381 165.761V169H76.2763V163.545H77.2955V164.433H77.3629C77.4884 164.144 77.6849 163.912 77.9524 163.737C78.2223 163.562 78.562 163.474 78.9716 163.474C79.3433 163.474 79.6688 163.553 79.9482 163.709C80.2275 163.863 80.4441 164.092 80.598 164.398C80.7519 164.703 80.8288 165.081 80.8288 165.531V169H79.767V165.658C79.767 165.263 79.6641 164.954 79.4581 164.732C79.2521 164.507 78.9692 164.394 78.6094 164.394C78.3632 164.394 78.1442 164.447 77.9524 164.554C77.763 164.661 77.6127 164.817 77.5014 165.023C77.3925 165.226 77.3381 165.473 77.3381 165.761ZM84.5398 171.159C84.1065 171.159 83.7337 171.102 83.4212 170.989C83.111 170.875 82.8577 170.725 82.6612 170.538C82.4647 170.351 82.3179 170.146 82.2209 169.923L83.1335 169.547C83.1974 169.651 83.2827 169.761 83.3892 169.877C83.4981 169.996 83.6449 170.096 83.8295 170.179C84.0166 170.262 84.2569 170.303 84.5504 170.303C84.9529 170.303 85.2855 170.205 85.5483 170.009C85.8111 169.814 85.9425 169.504 85.9425 169.078V168.006H85.875C85.8111 168.122 85.7188 168.251 85.598 168.393C85.4796 168.535 85.3163 168.658 85.108 168.762C84.8996 168.866 84.6286 168.918 84.2947 168.918C83.8639 168.918 83.4756 168.818 83.13 168.616C82.7867 168.413 82.5144 168.113 82.3132 167.718C82.1143 167.32 82.0149 166.831 82.0149 166.251C82.0149 165.671 82.1132 165.174 82.3097 164.76C82.5085 164.346 82.7808 164.028 83.1264 163.808C83.4721 163.586 83.8639 163.474 84.3018 163.474C84.6404 163.474 84.9138 163.531 85.1222 163.645C85.3305 163.756 85.4927 163.886 85.6087 164.036C85.727 164.185 85.8182 164.316 85.8821 164.43H85.9602V163.545H87.0007V169.121C87.0007 169.589 86.8918 169.974 86.674 170.275C86.4562 170.576 86.1615 170.798 85.7898 170.942C85.4205 171.087 85.0038 171.159 84.5398 171.159ZM84.5291 168.038C84.8345 168.038 85.0926 167.967 85.3033 167.825C85.5163 167.68 85.6773 167.474 85.7862 167.207C85.8975 166.937 85.9531 166.614 85.9531 166.237C85.9531 165.87 85.8987 165.547 85.7898 165.268C85.6809 164.988 85.5211 164.771 85.3104 164.614C85.0997 164.456 84.8393 164.376 84.5291 164.376C84.2095 164.376 83.9432 164.459 83.7301 164.625C83.517 164.788 83.3561 165.011 83.2472 165.293C83.1406 165.574 83.0874 165.889 83.0874 166.237C83.0874 166.595 83.1418 166.908 83.2507 167.178C83.3596 167.448 83.5206 167.659 83.7337 167.81C83.9491 167.962 84.2143 168.038 84.5291 168.038ZM90.7756 169.11C90.2382 169.11 89.7753 168.995 89.3871 168.766C89.0012 168.534 88.7029 168.208 88.4922 167.789C88.2839 167.368 88.1797 166.874 88.1797 166.308C88.1797 165.75 88.2839 165.257 88.4922 164.831C88.7029 164.405 88.9964 164.072 89.3729 163.833C89.7517 163.594 90.1944 163.474 90.701 163.474C91.0088 163.474 91.3071 163.525 91.5959 163.627C91.8847 163.729 92.1439 163.889 92.3736 164.107C92.6032 164.324 92.7843 164.607 92.9169 164.955C93.0495 165.301 93.1158 165.721 93.1158 166.216V166.592H88.7798V165.797H92.0753C92.0753 165.518 92.0185 165.27 91.9048 165.055C91.7912 164.837 91.6314 164.665 91.4254 164.54C91.2218 164.414 90.9827 164.352 90.7081 164.352C90.4098 164.352 90.1494 164.425 89.9268 164.572C89.7067 164.716 89.5362 164.906 89.4155 165.14C89.2971 165.372 89.2379 165.624 89.2379 165.896V166.518C89.2379 166.882 89.3018 167.192 89.4297 167.448C89.5599 167.704 89.741 167.899 89.973 168.034C90.205 168.167 90.4761 168.233 90.7862 168.233C90.9875 168.233 91.1709 168.205 91.3366 168.148C91.5024 168.089 91.6456 168.001 91.7663 167.885C91.8871 167.769 91.9794 167.626 92.0433 167.455L93.0483 167.636C92.9678 167.932 92.8234 168.192 92.6151 168.414C92.4091 168.634 92.1499 168.806 91.8374 168.929C91.5272 169.05 91.1733 169.11 90.7756 169.11Z" fill="#00D4FF"/>
<path d="M109.299 169V161.727H111.891C112.455 161.727 112.922 161.824 113.294 162.018C113.668 162.213 113.947 162.481 114.132 162.825C114.317 163.165 114.409 163.56 114.409 164.007C114.409 164.452 114.316 164.844 114.129 165.183C113.944 165.519 113.665 165.78 113.29 165.967C112.919 166.154 112.451 166.248 111.888 166.248H109.924V165.303H111.788C112.143 165.303 112.432 165.252 112.655 165.151C112.88 165.049 113.044 164.901 113.148 164.707C113.253 164.513 113.305 164.279 113.305 164.007C113.305 163.732 113.251 163.495 113.145 163.293C113.041 163.092 112.876 162.938 112.651 162.832C112.429 162.723 112.136 162.668 111.774 162.668H110.396V169H109.299ZM112.889 165.719L114.686 169H113.436L111.675 165.719H112.889ZM117.942 169.11C117.404 169.11 116.941 168.995 116.553 168.766C116.167 168.534 115.869 168.208 115.658 167.789C115.45 167.368 115.346 166.874 115.346 166.308C115.346 165.75 115.45 165.257 115.658 164.831C115.869 164.405 116.162 164.072 116.539 163.833C116.918 163.594 117.36 163.474 117.867 163.474C118.175 163.474 118.473 163.525 118.762 163.627C119.051 163.729 119.31 163.889 119.54 164.107C119.769 164.324 119.95 164.607 120.083 164.955C120.215 165.301 120.282 165.721 120.282 166.216V166.592H115.946V165.797H119.241C119.241 165.518 119.184 165.27 119.071 165.055C118.957 164.837 118.797 164.665 118.591 164.54C118.388 164.414 118.149 164.352 117.874 164.352C117.576 164.352 117.315 164.425 117.093 164.572C116.873 164.716 116.702 164.906 116.581 165.14C116.463 165.372 116.404 165.624 116.404 165.896V166.518C116.404 166.882 116.468 167.192 116.596 167.448C116.726 167.704 116.907 167.899 117.139 168.034C117.371 168.167 117.642 168.233 117.952 168.233C118.153 168.233 118.337 168.205 118.503 168.148C118.668 168.089 118.812 168.001 118.932 167.885C119.053 167.769 119.145 167.626 119.209 167.455L120.214 167.636C120.134 167.932 119.989 168.192 119.781 168.414C119.575 168.634 119.316 168.806 119.003 168.929C118.693 169.05 118.339 169.11 117.942 169.11ZM125.547 164.877L124.585 165.048C124.545 164.924 124.481 164.807 124.393 164.696C124.308 164.585 124.192 164.494 124.045 164.423C123.898 164.352 123.715 164.316 123.495 164.316C123.194 164.316 122.943 164.384 122.742 164.518C122.541 164.651 122.44 164.823 122.44 165.033C122.44 165.216 122.507 165.362 122.642 165.474C122.777 165.585 122.995 165.676 123.296 165.747L124.162 165.946C124.664 166.062 125.038 166.241 125.284 166.482C125.531 166.724 125.654 167.037 125.654 167.423C125.654 167.75 125.559 168.041 125.37 168.297C125.183 168.55 124.921 168.749 124.585 168.893C124.251 169.038 123.864 169.11 123.424 169.11C122.813 169.11 122.315 168.98 121.929 168.719C121.543 168.457 121.306 168.084 121.218 167.601L122.245 167.445C122.309 167.712 122.44 167.915 122.639 168.052C122.838 168.187 123.097 168.254 123.417 168.254C123.765 168.254 124.043 168.182 124.251 168.038C124.459 167.891 124.564 167.712 124.564 167.501C124.564 167.331 124.5 167.188 124.372 167.072C124.246 166.956 124.053 166.868 123.793 166.809L122.87 166.607C122.361 166.491 121.984 166.306 121.74 166.053C121.499 165.799 121.378 165.478 121.378 165.09C121.378 164.768 121.468 164.487 121.648 164.245C121.828 164.004 122.077 163.815 122.394 163.68C122.711 163.543 123.074 163.474 123.484 163.474C124.074 163.474 124.538 163.602 124.876 163.858C125.215 164.111 125.438 164.451 125.547 164.877ZM129.172 169.11C128.635 169.11 128.172 168.995 127.784 168.766C127.398 168.534 127.099 168.208 126.889 167.789C126.68 167.368 126.576 166.874 126.576 166.308C126.576 165.75 126.68 165.257 126.889 164.831C127.099 164.405 127.393 164.072 127.769 163.833C128.148 163.594 128.591 163.474 129.097 163.474C129.405 163.474 129.704 163.525 129.992 163.627C130.281 163.729 130.54 163.889 130.77 164.107C131 164.324 131.181 164.607 131.313 164.955C131.446 165.301 131.512 165.721 131.512 166.216V166.592H127.176V165.797H130.472C130.472 165.518 130.415 165.27 130.301 165.055C130.188 164.837 130.028 164.665 129.822 164.54C129.618 164.414 129.379 164.352 129.105 164.352C128.806 164.352 128.546 164.425 128.323 164.572C128.103 164.716 127.933 164.906 127.812 165.14C127.694 165.372 127.634 165.624 127.634 165.896V166.518C127.634 166.882 127.698 167.192 127.826 167.448C127.956 167.704 128.137 167.899 128.369 168.034C128.602 168.167 128.873 168.233 129.183 168.233C129.384 168.233 129.567 168.205 129.733 168.148C129.899 168.089 130.042 168.001 130.163 167.885C130.284 167.769 130.376 167.626 130.44 167.455L131.445 167.636C131.364 167.932 131.22 168.192 131.012 168.414C130.806 168.634 130.546 168.806 130.234 168.929C129.924 169.05 129.57 169.11 129.172 169.11ZM135.237 163.545V164.398H132.257V163.545H135.237ZM133.056 162.239H134.118V167.398C134.118 167.604 134.149 167.759 134.21 167.864C134.272 167.965 134.351 168.035 134.448 168.073C134.548 168.109 134.655 168.126 134.771 168.126C134.857 168.126 134.931 168.121 134.995 168.109C135.059 168.097 135.109 168.087 135.144 168.08L135.336 168.957C135.274 168.981 135.187 169.005 135.073 169.028C134.96 169.054 134.817 169.069 134.647 169.071C134.368 169.076 134.107 169.026 133.866 168.922C133.624 168.818 133.429 168.657 133.28 168.439C133.131 168.221 133.056 167.948 133.056 167.619V162.239Z" fill="#00D4FF"/>
<rect x="279.5" y="132" width="68" height="27" rx="6" fill="#0FD38D"/>
<path d="M290.361 150V141.273H293.634C294.304 141.273 294.866 141.389 295.321 141.622C295.778 141.855 296.124 142.182 296.357 142.602C296.592 143.02 296.71 143.507 296.71 144.064C296.71 144.624 296.591 145.109 296.352 145.521C296.116 145.93 295.768 146.247 295.308 146.472C294.848 146.693 294.283 146.804 293.612 146.804H291.281V145.491H293.399C293.791 145.491 294.112 145.437 294.362 145.33C294.612 145.219 294.797 145.058 294.916 144.848C295.038 144.635 295.099 144.374 295.099 144.064C295.099 143.754 295.038 143.49 294.916 143.271C294.794 143.05 294.608 142.882 294.358 142.768C294.108 142.652 293.786 142.594 293.391 142.594H291.942V150H290.361ZM294.869 146.045L297.03 150H295.266L293.143 146.045H294.869ZM302.269 147.247V143.455H303.812V150H302.316V148.837H302.248C302.1 149.203 301.857 149.503 301.519 149.736C301.184 149.969 300.771 150.085 300.279 150.085C299.85 150.085 299.471 149.99 299.141 149.8C298.815 149.607 298.559 149.327 298.374 148.96C298.19 148.591 298.097 148.145 298.097 147.622V143.455H299.64V147.384C299.64 147.798 299.754 148.128 299.981 148.372C300.208 148.616 300.506 148.739 300.876 148.739C301.103 148.739 301.323 148.683 301.536 148.572C301.749 148.462 301.924 148.297 302.06 148.078C302.2 147.857 302.269 147.58 302.269 147.247ZM306.941 146.165V150H305.398V143.455H306.873V144.567H306.949C307.1 144.2 307.34 143.909 307.669 143.693C308.002 143.477 308.412 143.369 308.901 143.369C309.353 143.369 309.746 143.466 310.081 143.659C310.419 143.852 310.681 144.132 310.865 144.499C311.053 144.865 311.145 145.31 311.142 145.832V150H309.6V146.071C309.6 145.634 309.486 145.291 309.259 145.044C309.034 144.797 308.723 144.673 308.326 144.673C308.056 144.673 307.816 144.733 307.605 144.852C307.398 144.969 307.235 145.138 307.115 145.359C306.999 145.581 306.941 145.849 306.941 146.165ZM314.253 146.165V150H312.711V143.455H314.185V144.567H314.262C314.412 144.2 314.652 143.909 314.982 143.693C315.314 143.477 315.725 143.369 316.213 143.369C316.665 143.369 317.059 143.466 317.394 143.659C317.732 143.852 317.993 144.132 318.178 144.499C318.365 144.865 318.458 145.31 318.455 145.832V150H316.912V146.071C316.912 145.634 316.799 145.291 316.571 145.044C316.347 144.797 316.036 144.673 315.638 144.673C315.368 144.673 315.128 144.733 314.918 144.852C314.711 144.969 314.547 145.138 314.428 145.359C314.311 145.581 314.253 145.849 314.253 146.165ZM320.023 150V143.455H321.566V150H320.023ZM320.799 142.526C320.554 142.526 320.344 142.445 320.168 142.283C319.992 142.118 319.904 141.92 319.904 141.69C319.904 141.457 319.992 141.26 320.168 141.098C320.344 140.933 320.554 140.851 320.799 140.851C321.046 140.851 321.256 140.933 321.429 141.098C321.605 141.26 321.694 141.457 321.694 141.69C321.694 141.92 321.605 142.118 321.429 142.283C321.256 142.445 321.046 142.526 320.799 142.526ZM324.695 146.165V150H323.152V143.455H324.626V144.567H324.703C324.854 144.2 325.094 143.909 325.423 143.693C325.756 143.477 326.166 143.369 326.655 143.369C327.107 143.369 327.5 143.466 327.835 143.659C328.173 143.852 328.435 144.132 328.619 144.499C328.807 144.865 328.899 145.31 328.896 145.832V150H327.354V146.071C327.354 145.634 327.24 145.291 327.013 145.044C326.788 144.797 326.477 144.673 326.08 144.673C325.81 144.673 325.57 144.733 325.359 144.852C325.152 144.969 324.989 145.138 324.869 145.359C324.753 145.581 324.695 145.849 324.695 146.165ZM333.311 152.591C332.757 152.591 332.281 152.516 331.884 152.365C331.486 152.217 331.166 152.018 330.925 151.768C330.683 151.518 330.516 151.241 330.422 150.938L331.811 150.601C331.874 150.729 331.964 150.855 332.084 150.98C332.203 151.108 332.364 151.213 332.565 151.295C332.77 151.381 333.027 151.423 333.337 151.423C333.774 151.423 334.136 151.317 334.423 151.104C334.71 150.893 334.854 150.547 334.854 150.064V148.824H334.777C334.697 148.983 334.581 149.146 334.428 149.314C334.277 149.482 334.077 149.622 333.827 149.736C333.58 149.849 333.268 149.906 332.893 149.906C332.391 149.906 331.935 149.788 331.526 149.553C331.119 149.314 330.795 148.959 330.554 148.487C330.315 148.013 330.196 147.419 330.196 146.706C330.196 145.987 330.315 145.381 330.554 144.886C330.795 144.389 331.121 144.013 331.53 143.757C331.939 143.499 332.395 143.369 332.898 143.369C333.281 143.369 333.597 143.435 333.844 143.565C334.094 143.693 334.293 143.848 334.44 144.03C334.588 144.209 334.7 144.378 334.777 144.537H334.862V143.455H336.384V150.107C336.384 150.666 336.25 151.129 335.983 151.496C335.716 151.862 335.351 152.136 334.888 152.318C334.425 152.5 333.899 152.591 333.311 152.591ZM333.324 148.696C333.651 148.696 333.929 148.616 334.159 148.457C334.389 148.298 334.564 148.07 334.683 147.771C334.803 147.473 334.862 147.115 334.862 146.697C334.862 146.286 334.803 145.925 334.683 145.615C334.567 145.305 334.393 145.065 334.163 144.895C333.936 144.722 333.656 144.635 333.324 144.635C332.98 144.635 332.693 144.724 332.463 144.903C332.233 145.082 332.06 145.328 331.943 145.641C331.827 145.95 331.768 146.303 331.768 146.697C331.768 147.098 331.827 147.449 331.943 147.75C332.063 148.048 332.237 148.281 332.467 148.449C332.7 148.614 332.986 148.696 333.324 148.696Z" fill="#0D2F4F"/>
<path d="M57.3608 203V194.273H63.0369V195.598H58.9418V197.967H62.7429V199.293H58.9418V201.675H63.071V203H57.3608ZM64.5817 203V196.455H66.0561V197.567H66.1328C66.2692 197.192 66.495 196.899 66.8104 196.689C67.1257 196.476 67.5021 196.369 67.9396 196.369C68.3828 196.369 68.7564 196.477 69.0604 196.693C69.3672 196.906 69.5831 197.197 69.7081 197.567H69.7763C69.9212 197.203 70.1655 196.913 70.5092 196.697C70.8558 196.479 71.2663 196.369 71.7408 196.369C72.343 196.369 72.8345 196.56 73.2152 196.94C73.5959 197.321 73.7862 197.876 73.7862 198.607V203H72.2393V198.845C72.2393 198.439 72.1314 198.142 71.9155 197.955C71.6996 197.764 71.4354 197.669 71.1229 197.669C70.7507 197.669 70.4595 197.786 70.2493 198.018C70.0419 198.249 69.9382 198.548 69.9382 198.918V203H68.4254V198.781C68.4254 198.443 68.3232 198.173 68.1186 197.972C67.9169 197.77 67.6527 197.669 67.326 197.669C67.1044 197.669 66.9027 197.726 66.7209 197.839C66.5391 197.95 66.3942 198.108 66.2862 198.312C66.1783 198.514 66.1243 198.75 66.1243 199.02V203H64.5817ZM75.4194 203V194.273H76.962V197.537H77.0259C77.1055 197.378 77.2177 197.209 77.3626 197.03C77.5075 196.848 77.7035 196.693 77.9506 196.565C78.1978 196.435 78.5131 196.369 78.8967 196.369C79.4023 196.369 79.8583 196.499 80.2646 196.757C80.6737 197.013 80.9975 197.392 81.2362 197.895C81.4776 198.395 81.5984 199.009 81.5984 199.736C81.5984 200.455 81.4805 201.065 81.2447 201.568C81.0089 202.071 80.6879 202.455 80.2816 202.719C79.8754 202.983 79.4151 203.115 78.9009 203.115C78.5259 203.115 78.2148 203.053 77.9677 202.928C77.7205 202.803 77.5217 202.652 77.3711 202.476C77.2234 202.297 77.1083 202.128 77.0259 201.969H76.9364V203H75.4194ZM76.9322 199.727C76.9322 200.151 76.9918 200.521 77.1112 200.839C77.2333 201.158 77.408 201.406 77.6353 201.585C77.8654 201.761 78.1438 201.849 78.4705 201.849C78.8114 201.849 79.0969 201.759 79.3271 201.577C79.5572 201.392 79.7305 201.141 79.8469 200.822C79.9663 200.501 80.0259 200.136 80.0259 199.727C80.0259 199.321 79.9677 198.96 79.8512 198.645C79.7347 198.33 79.5614 198.082 79.3313 197.903C79.1012 197.724 78.8143 197.635 78.4705 197.635C78.141 197.635 77.8612 197.722 77.631 197.895C77.4009 198.068 77.2262 198.311 77.1069 198.624C76.9904 198.936 76.9322 199.304 76.9322 199.727ZM85.8075 203.128C85.1513 203.128 84.5845 202.991 84.1072 202.719C83.6328 202.443 83.2678 202.054 83.0121 201.551C82.7564 201.045 82.6286 200.45 82.6286 199.766C82.6286 199.092 82.7564 198.501 83.0121 197.993C83.2706 197.482 83.6314 197.084 84.0945 196.8C84.5575 196.513 85.1016 196.369 85.7266 196.369C86.13 196.369 86.5107 196.435 86.8686 196.565C87.2294 196.693 87.5476 196.892 87.8232 197.162C88.1016 197.432 88.3203 197.776 88.4794 198.193C88.6385 198.608 88.718 199.102 88.718 199.676V200.149H83.353V199.109H87.2393C87.2365 198.814 87.1726 198.551 87.0476 198.321C86.9226 198.088 86.7479 197.905 86.5234 197.771C86.3018 197.638 86.0433 197.571 85.7479 197.571C85.4325 197.571 85.1555 197.648 84.9169 197.801C84.6783 197.952 84.4922 198.151 84.3587 198.398C84.228 198.642 84.1612 198.911 84.1584 199.203V200.111C84.1584 200.491 84.228 200.818 84.3672 201.091C84.5064 201.361 84.701 201.568 84.951 201.713C85.201 201.855 85.4936 201.926 85.8288 201.926C86.0533 201.926 86.2564 201.895 86.4382 201.832C86.62 201.767 86.7777 201.672 86.9112 201.547C87.0447 201.422 87.1456 201.267 87.2138 201.082L88.6541 201.244C88.5632 201.625 88.3899 201.957 88.1342 202.241C87.8814 202.523 87.5575 202.741 87.1626 202.898C86.7678 203.051 86.3161 203.128 85.8075 203.128ZM92.4521 203.115C91.9379 203.115 91.4776 202.983 91.0714 202.719C90.6651 202.455 90.3441 202.071 90.1083 201.568C89.8725 201.065 89.7546 200.455 89.7546 199.736C89.7546 199.009 89.8739 198.395 90.1126 197.895C90.354 197.392 90.6793 197.013 91.0884 196.757C91.4975 196.499 91.9535 196.369 92.4563 196.369C92.8398 196.369 93.1552 196.435 93.4023 196.565C93.6495 196.693 93.8455 196.848 93.9904 197.03C94.1353 197.209 94.2475 197.378 94.3271 197.537H94.391V194.273H95.9379V203H94.4208V201.969H94.3271C94.2475 202.128 94.1325 202.297 93.9819 202.476C93.8313 202.652 93.6325 202.803 93.3853 202.928C93.1381 203.053 92.8271 203.115 92.4521 203.115ZM92.8825 201.849C93.2092 201.849 93.4876 201.761 93.7177 201.585C93.9478 201.406 94.1225 201.158 94.2418 200.839C94.3612 200.521 94.4208 200.151 94.4208 199.727C94.4208 199.304 94.3612 198.936 94.2418 198.624C94.1254 198.311 93.9521 198.068 93.7219 197.895C93.4947 197.722 93.2148 197.635 92.8825 197.635C92.5387 197.635 92.2518 197.724 92.0217 197.903C91.7915 198.082 91.6183 198.33 91.5018 198.645C91.3853 198.96 91.3271 199.321 91.3271 199.727C91.3271 200.136 91.3853 200.501 91.5018 200.822C91.6211 201.141 91.7958 201.392 92.0259 201.577C92.2589 201.759 92.5444 201.849 92.8825 201.849ZM100.011 203.115C99.4964 203.115 99.0362 202.983 98.63 202.719C98.2237 202.455 97.9027 202.071 97.6669 201.568C97.4311 201.065 97.3132 200.455 97.3132 199.736C97.3132 199.009 97.4325 198.395 97.6712 197.895C97.9126 197.392 98.2379 197.013 98.647 196.757C99.0561 196.499 99.5121 196.369 100.015 196.369C100.398 196.369 100.714 196.435 100.961 196.565C101.208 196.693 101.404 196.848 101.549 197.03C101.694 197.209 101.806 197.378 101.886 197.537H101.95V194.273H103.496V203H101.979V201.969H101.886C101.806 202.128 101.691 202.297 101.54 202.476C101.39 202.652 101.191 202.803 100.944 202.928C100.697 203.053 100.386 203.115 100.011 203.115ZM100.441 201.849C100.768 201.849 101.046 201.761 101.276 201.585C101.506 201.406 101.681 201.158 101.8 200.839C101.92 200.521 101.979 200.151 101.979 199.727C101.979 199.304 101.92 198.936 101.8 198.624C101.684 198.311 101.511 198.068 101.281 197.895C101.053 197.722 100.773 197.635 100.441 197.635C100.097 197.635 99.8104 197.724 99.5803 197.903C99.3501 198.082 99.1768 198.33 99.0604 198.645C98.9439 198.96 98.8857 199.321 98.8857 199.727C98.8857 200.136 98.9439 200.501 99.0604 200.822C99.1797 201.141 99.3544 201.392 99.5845 201.577C99.8175 201.759 100.103 201.849 100.441 201.849ZM108.038 203.128C107.382 203.128 106.815 202.991 106.338 202.719C105.863 202.443 105.498 202.054 105.243 201.551C104.987 201.045 104.859 200.45 104.859 199.766C104.859 199.092 104.987 198.501 105.243 197.993C105.501 197.482 105.862 197.084 106.325 196.8C106.788 196.513 107.332 196.369 107.957 196.369C108.36 196.369 108.741 196.435 109.099 196.565C109.46 196.693 109.778 196.892 110.054 197.162C110.332 197.432 110.551 197.776 110.71 198.193C110.869 198.608 110.949 199.102 110.949 199.676V200.149H105.583V199.109H109.47C109.467 198.814 109.403 198.551 109.278 198.321C109.153 198.088 108.978 197.905 108.754 197.771C108.532 197.638 108.274 197.571 107.978 197.571C107.663 197.571 107.386 197.648 107.147 197.801C106.909 197.952 106.723 198.151 106.589 198.398C106.458 198.642 106.392 198.911 106.389 199.203V200.111C106.389 200.491 106.458 200.818 106.598 201.091C106.737 201.361 106.931 201.568 107.181 201.713C107.431 201.855 107.724 201.926 108.059 201.926C108.284 201.926 108.487 201.895 108.669 201.832C108.85 201.767 109.008 201.672 109.142 201.547C109.275 201.422 109.376 201.267 109.444 201.082L110.885 201.244C110.794 201.625 110.62 201.957 110.365 202.241C110.112 202.523 109.788 202.741 109.393 202.898C108.998 203.051 108.547 203.128 108.038 203.128ZM114.683 203.115C114.168 203.115 113.708 202.983 113.302 202.719C112.896 202.455 112.575 202.071 112.339 201.568C112.103 201.065 111.985 200.455 111.985 199.736C111.985 199.009 112.104 198.395 112.343 197.895C112.585 197.392 112.91 197.013 113.319 196.757C113.728 196.499 114.184 196.369 114.687 196.369C115.07 196.369 115.386 196.435 115.633 196.565C115.88 196.693 116.076 196.848 116.221 197.03C116.366 197.209 116.478 197.378 116.558 197.537H116.621V194.273H118.168V203H116.651V201.969H116.558C116.478 202.128 116.363 202.297 116.212 202.476C116.062 202.652 115.863 202.803 115.616 202.928C115.369 203.053 115.058 203.115 114.683 203.115ZM115.113 201.849C115.44 201.849 115.718 201.761 115.948 201.585C116.178 201.406 116.353 201.158 116.472 200.839C116.592 200.521 116.651 200.151 116.651 199.727C116.651 199.304 116.592 198.936 116.472 198.624C116.356 198.311 116.183 198.068 115.952 197.895C115.725 197.722 115.445 197.635 115.113 197.635C114.769 197.635 114.482 197.724 114.252 197.903C114.022 198.082 113.849 198.33 113.732 198.645C113.616 198.96 113.558 199.321 113.558 199.727C113.558 200.136 113.616 200.501 113.732 200.822C113.852 201.141 114.026 201.392 114.256 201.577C114.489 201.759 114.775 201.849 115.113 201.849ZM122.473 195.598V194.273H129.436V195.598H126.739V203H125.171V195.598H122.473ZM130.711 203V196.455H132.253V203H130.711ZM131.486 195.526C131.242 195.526 131.032 195.445 130.855 195.283C130.679 195.118 130.591 194.92 130.591 194.69C130.591 194.457 130.679 194.26 130.855 194.098C131.032 193.933 131.242 193.851 131.486 193.851C131.733 193.851 131.944 193.933 132.117 194.098C132.293 194.26 132.381 194.457 132.381 194.69C132.381 194.92 132.293 195.118 132.117 195.283C131.944 195.445 131.733 195.526 131.486 195.526ZM133.839 203V196.455H135.314V197.567H135.391C135.527 197.192 135.753 196.899 136.068 196.689C136.384 196.476 136.76 196.369 137.197 196.369C137.641 196.369 138.014 196.477 138.318 196.693C138.625 196.906 138.841 197.197 138.966 197.567H139.034C139.179 197.203 139.423 196.913 139.767 196.697C140.114 196.479 140.524 196.369 140.999 196.369C141.601 196.369 142.092 196.56 142.473 196.94C142.854 197.321 143.044 197.876 143.044 198.607V203H141.497V198.845C141.497 198.439 141.389 198.142 141.173 197.955C140.957 197.764 140.693 197.669 140.381 197.669C140.009 197.669 139.717 197.786 139.507 198.018C139.3 198.249 139.196 198.548 139.196 198.918V203H137.683V198.781C137.683 198.443 137.581 198.173 137.376 197.972C137.175 197.77 136.911 197.669 136.584 197.669C136.362 197.669 136.161 197.726 135.979 197.839C135.797 197.95 135.652 198.108 135.544 198.312C135.436 198.514 135.382 198.75 135.382 199.02V203H133.839ZM147.507 203.128C146.85 203.128 146.284 202.991 145.806 202.719C145.332 202.443 144.967 202.054 144.711 201.551C144.456 201.045 144.328 200.45 144.328 199.766C144.328 199.092 144.456 198.501 144.711 197.993C144.97 197.482 145.331 197.084 145.794 196.8C146.257 196.513 146.801 196.369 147.426 196.369C147.829 196.369 148.21 196.435 148.568 196.565C148.929 196.693 149.247 196.892 149.522 197.162C149.801 197.432 150.02 197.776 150.179 198.193C150.338 198.608 150.417 199.102 150.417 199.676V200.149H145.052V199.109H148.939C148.936 198.814 148.872 198.551 148.747 198.321C148.622 198.088 148.447 197.905 148.223 197.771C148.001 197.638 147.743 197.571 147.447 197.571C147.132 197.571 146.855 197.648 146.616 197.801C146.377 197.952 146.191 198.151 146.058 198.398C145.927 198.642 145.86 198.911 145.858 199.203V200.111C145.858 200.491 145.927 200.818 146.066 201.091C146.206 201.361 146.4 201.568 146.65 201.713C146.9 201.855 147.193 201.926 147.528 201.926C147.752 201.926 147.956 201.895 148.137 201.832C148.319 201.767 148.477 201.672 148.61 201.547C148.744 201.422 148.845 201.267 148.913 201.082L150.353 201.244C150.262 201.625 150.089 201.957 149.833 202.241C149.581 202.523 149.257 202.741 148.862 202.898C148.467 203.051 148.015 203.128 147.507 203.128ZM162.565 198.636C162.565 199.577 162.389 200.382 162.037 201.053C161.688 201.72 161.21 202.232 160.605 202.587C160.003 202.942 159.32 203.119 158.555 203.119C157.791 203.119 157.107 202.942 156.501 202.587C155.899 202.229 155.422 201.716 155.07 201.048C154.72 200.378 154.545 199.574 154.545 198.636C154.545 197.696 154.72 196.892 155.07 196.224C155.422 195.554 155.899 195.041 156.501 194.686C157.107 194.331 157.791 194.153 158.555 194.153C159.32 194.153 160.003 194.331 160.605 194.686C161.21 195.041 161.688 195.554 162.037 196.224C162.389 196.892 162.565 197.696 162.565 198.636ZM160.976 198.636C160.976 197.974 160.872 197.416 160.665 196.962C160.46 196.504 160.176 196.159 159.812 195.926C159.449 195.69 159.03 195.572 158.555 195.572C158.081 195.572 157.662 195.69 157.298 195.926C156.935 196.159 156.649 196.504 156.442 196.962C156.237 197.416 156.135 197.974 156.135 198.636C156.135 199.298 156.237 199.858 156.442 200.315C156.649 200.77 156.935 201.115 157.298 201.351C157.662 201.584 158.081 201.7 158.555 201.7C159.03 201.7 159.449 201.584 159.812 201.351C160.176 201.115 160.46 200.77 160.665 200.315C160.872 199.858 160.976 199.298 160.976 198.636ZM168.164 200.247V196.455H169.706V203H168.211V201.837H168.142C167.995 202.203 167.752 202.503 167.414 202.736C167.078 202.969 166.665 203.085 166.174 203.085C165.745 203.085 165.365 202.99 165.036 202.8C164.709 202.607 164.453 202.327 164.269 201.96C164.084 201.591 163.992 201.145 163.992 200.622V196.455H165.534V200.384C165.534 200.798 165.648 201.128 165.875 201.372C166.103 201.616 166.401 201.739 166.77 201.739C166.998 201.739 167.218 201.683 167.431 201.572C167.644 201.462 167.819 201.297 167.955 201.078C168.094 200.857 168.164 200.58 168.164 200.247ZM174.561 196.455V197.648H170.798V196.455H174.561ZM171.727 194.886H173.27V201.031C173.27 201.239 173.301 201.398 173.364 201.509C173.429 201.616 173.514 201.69 173.619 201.73C173.724 201.77 173.841 201.79 173.969 201.79C174.065 201.79 174.153 201.783 174.233 201.768C174.315 201.754 174.378 201.741 174.42 201.73L174.68 202.936C174.598 202.964 174.48 202.996 174.327 203.03C174.176 203.064 173.991 203.084 173.773 203.089C173.386 203.101 173.038 203.043 172.729 202.915C172.419 202.784 172.173 202.582 171.991 202.31C171.813 202.037 171.724 201.696 171.727 201.287V194.886Z" fill="white"/>
<path d="M57.299 222V214.727H59.8913C60.4548 214.727 60.9223 214.824 61.294 215.018C61.6681 215.213 61.9474 215.481 62.1321 215.825C62.3168 216.165 62.4091 216.56 62.4091 217.007C62.4091 217.452 62.3156 217.844 62.1286 218.183C61.9439 218.519 61.6645 218.78 61.2905 218.967C60.9188 219.154 60.4512 219.248 59.8878 219.248H57.924V218.303H59.7884C60.1435 218.303 60.4323 218.252 60.6548 218.151C60.8797 218.049 61.0443 217.901 61.1484 217.707C61.2526 217.513 61.3047 217.279 61.3047 217.007C61.3047 216.732 61.2514 216.495 61.1449 216.293C61.0407 216.092 60.8762 215.938 60.6513 215.832C60.4287 215.723 60.1364 215.668 59.7741 215.668H58.3963V222H57.299ZM60.8892 218.719L62.6861 222H61.4361L59.6747 218.719H60.8892ZM65.9416 222.11C65.4042 222.11 64.9413 221.995 64.5531 221.766C64.1672 221.534 63.8689 221.208 63.6582 220.789C63.4499 220.368 63.3457 219.874 63.3457 219.308C63.3457 218.75 63.4499 218.257 63.6582 217.831C63.8689 217.405 64.1625 217.072 64.5389 216.833C64.9177 216.594 65.3604 216.474 65.867 216.474C66.1748 216.474 66.4731 216.525 66.7619 216.627C67.0507 216.729 67.31 216.889 67.5396 217.107C67.7692 217.324 67.9503 217.607 68.0829 217.955C68.2155 218.301 68.2818 218.721 68.2818 219.216V219.592H63.9458V218.797H67.2413C67.2413 218.518 67.1845 218.27 67.0708 218.055C66.9572 217.837 66.7974 217.665 66.5914 217.54C66.3878 217.414 66.1487 217.352 65.8741 217.352C65.5758 217.352 65.3154 217.425 65.0929 217.572C64.8727 217.716 64.7022 217.906 64.5815 218.14C64.4631 218.372 64.4039 218.624 64.4039 218.896V219.518C64.4039 219.882 64.4679 220.192 64.5957 220.448C64.7259 220.704 64.907 220.899 65.139 221.034C65.371 221.167 65.6421 221.233 65.9522 221.233C66.1535 221.233 66.3369 221.205 66.5027 221.148C66.6684 221.089 66.8116 221.001 66.9324 220.885C67.0531 220.769 67.1454 220.626 67.2093 220.455L68.2143 220.636C68.1338 220.932 67.9894 221.192 67.7811 221.414C67.5751 221.634 67.3159 221.806 67.0034 221.929C66.6932 222.05 66.3393 222.11 65.9416 222.11ZM73.5472 217.877L72.5849 218.048C72.5446 217.924 72.4807 217.807 72.3931 217.696C72.3079 217.585 72.1919 217.494 72.0451 217.423C71.8983 217.352 71.7148 217.316 71.4947 217.316C71.194 217.316 70.9431 217.384 70.7418 217.518C70.5406 217.651 70.44 217.823 70.44 218.033C70.44 218.216 70.5075 218.362 70.6424 218.474C70.7773 218.585 70.9951 218.676 71.2958 218.747L72.1623 218.946C72.6642 219.062 73.0382 219.241 73.2844 219.482C73.5307 219.724 73.6538 220.037 73.6538 220.423C73.6538 220.75 73.5591 221.041 73.3697 221.297C73.1826 221.55 72.921 221.749 72.5849 221.893C72.2511 222.038 71.864 222.11 71.4237 222.11C70.8129 222.11 70.3145 221.98 69.9286 221.719C69.5427 221.457 69.306 221.084 69.2184 220.601L70.2447 220.445C70.3086 220.712 70.44 220.915 70.6388 221.052C70.8377 221.187 71.0969 221.254 71.4165 221.254C71.7646 221.254 72.0427 221.182 72.2511 221.038C72.4594 220.891 72.5636 220.712 72.5636 220.501C72.5636 220.331 72.4996 220.188 72.3718 220.072C72.2463 219.956 72.0534 219.868 71.793 219.809L70.8697 219.607C70.3607 219.491 69.9843 219.306 69.7404 219.053C69.4989 218.799 69.3782 218.478 69.3782 218.09C69.3782 217.768 69.4682 217.487 69.6481 217.245C69.828 217.004 70.0766 216.815 70.3938 216.68C70.7111 216.543 71.0745 216.474 71.484 216.474C72.0735 216.474 72.5375 216.602 72.8761 216.858C73.2146 217.111 73.4383 217.451 73.5472 217.877ZM77.1721 222.11C76.6346 222.11 76.1718 221.995 75.7836 221.766C75.3977 221.534 75.0994 221.208 74.8887 220.789C74.6803 220.368 74.5762 219.874 74.5762 219.308C74.5762 218.75 74.6803 218.257 74.8887 217.831C75.0994 217.405 75.3929 217.072 75.7694 216.833C76.1481 216.594 76.5908 216.474 77.0975 216.474C77.4052 216.474 77.7035 216.525 77.9924 216.627C78.2812 216.729 78.5404 216.889 78.7701 217.107C78.9997 217.324 79.1808 217.607 79.3134 217.955C79.446 218.301 79.5123 218.721 79.5123 219.216V219.592H75.1763V218.797H78.4718C78.4718 218.518 78.415 218.27 78.3013 218.055C78.1877 217.837 78.0279 217.665 77.8219 217.54C77.6183 217.414 77.3792 217.352 77.1046 217.352C76.8063 217.352 76.5459 217.425 76.3233 217.572C76.1032 217.716 75.9327 217.906 75.812 218.14C75.6936 218.372 75.6344 218.624 75.6344 218.896V219.518C75.6344 219.882 75.6983 220.192 75.8262 220.448C75.9564 220.704 76.1375 220.899 76.3695 221.034C76.6015 221.167 76.8726 221.233 77.1827 221.233C77.3839 221.233 77.5674 221.205 77.7331 221.148C77.8989 221.089 78.0421 221.001 78.1628 220.885C78.2836 220.769 78.3759 220.626 78.4398 220.455L79.4448 220.636C79.3643 220.932 79.2199 221.192 79.0115 221.414C78.8056 221.634 78.5463 221.806 78.2338 221.929C77.9237 222.05 77.5698 222.11 77.1721 222.11ZM83.2365 216.545V217.398H80.2571V216.545H83.2365ZM81.0561 215.239H82.1179V220.398C82.1179 220.604 82.1487 220.759 82.2102 220.864C82.2718 220.965 82.3511 221.035 82.4482 221.073C82.5476 221.109 82.6553 221.126 82.7713 221.126C82.8565 221.126 82.9311 221.121 82.995 221.109C83.0589 221.097 83.1087 221.087 83.1442 221.08L83.3359 221.957C83.2744 221.981 83.1868 222.005 83.0732 222.028C82.9595 222.054 82.8175 222.069 82.647 222.071C82.3677 222.076 82.1072 222.026 81.8658 221.922C81.6243 221.818 81.429 221.657 81.2798 221.439C81.1307 221.221 81.0561 220.948 81.0561 220.619V215.239Z" fill="#00D4FF"/>
<rect x="282.5" y="194" width="65" height="27" rx="6" fill="#00D4FF" fill-opacity="0.2"/>
<path d="M296.472 212.119C296.054 212.116 295.646 212.044 295.249 211.902C294.851 211.757 294.493 211.523 294.175 211.199C293.857 210.872 293.604 210.439 293.416 209.899C293.229 209.357 293.136 208.685 293.139 207.884C293.139 207.136 293.219 206.47 293.378 205.885C293.537 205.3 293.766 204.805 294.064 204.402C294.362 203.996 294.722 203.686 295.142 203.473C295.565 203.26 296.038 203.153 296.561 203.153C297.109 203.153 297.595 203.261 298.018 203.477C298.445 203.693 298.788 203.989 299.05 204.364C299.311 204.736 299.473 205.156 299.536 205.625H297.98C297.901 205.29 297.737 205.023 297.49 204.824C297.246 204.622 296.936 204.521 296.561 204.521C295.956 204.521 295.49 204.784 295.163 205.31C294.839 205.835 294.676 206.557 294.673 207.474H294.733C294.872 207.224 295.053 207.01 295.274 206.831C295.496 206.652 295.746 206.514 296.024 206.418C296.305 206.318 296.602 206.268 296.915 206.268C297.426 206.268 297.885 206.391 298.291 206.635C298.7 206.879 299.024 207.216 299.263 207.645C299.501 208.071 299.619 208.56 299.616 209.111C299.619 209.685 299.489 210.2 299.224 210.658C298.96 211.112 298.592 211.47 298.121 211.732C297.649 211.993 297.099 212.122 296.472 212.119ZM296.463 210.841C296.773 210.841 297.05 210.766 297.294 210.615C297.538 210.464 297.732 210.261 297.874 210.006C298.016 209.75 298.085 209.463 298.082 209.145C298.085 208.832 298.017 208.55 297.878 208.297C297.741 208.044 297.553 207.844 297.311 207.696C297.07 207.548 296.794 207.474 296.484 207.474C296.254 207.474 296.04 207.518 295.841 207.607C295.642 207.695 295.469 207.817 295.321 207.973C295.173 208.126 295.057 208.305 294.972 208.51C294.889 208.712 294.847 208.928 294.844 209.158C294.847 209.462 294.918 209.741 295.057 209.997C295.196 210.253 295.388 210.457 295.632 210.611C295.876 210.764 296.153 210.841 296.463 210.841ZM304.283 212.166C303.581 212.166 302.979 211.989 302.476 211.634C301.976 211.276 301.591 210.76 301.321 210.087C301.054 209.411 300.92 208.597 300.92 207.645C300.923 206.693 301.058 205.884 301.325 205.216C301.595 204.545 301.98 204.034 302.48 203.682C302.983 203.33 303.584 203.153 304.283 203.153C304.982 203.153 305.582 203.33 306.085 203.682C306.588 204.034 306.973 204.545 307.24 205.216C307.51 205.886 307.645 206.696 307.645 207.645C307.645 208.599 307.51 209.415 307.24 210.091C306.973 210.764 306.588 211.278 306.085 211.634C305.585 211.989 304.984 212.166 304.283 212.166ZM304.283 210.832C304.828 210.832 305.259 210.564 305.574 210.027C305.892 209.487 306.051 208.693 306.051 207.645C306.051 206.952 305.979 206.369 305.834 205.898C305.689 205.426 305.484 205.071 305.22 204.832C304.956 204.591 304.643 204.47 304.283 204.47C303.74 204.47 303.311 204.74 302.996 205.28C302.68 205.817 302.521 206.605 302.518 207.645C302.516 208.341 302.585 208.926 302.727 209.401C302.872 209.875 303.077 210.233 303.341 210.474C303.605 210.713 303.919 210.832 304.283 210.832ZM309.078 212V205.455H310.552V206.567H310.629C310.765 206.192 310.991 205.899 311.306 205.689C311.622 205.476 311.998 205.369 312.436 205.369C312.879 205.369 313.252 205.477 313.556 205.693C313.863 205.906 314.079 206.197 314.204 206.567H314.272C314.417 206.203 314.662 205.913 315.005 205.697C315.352 205.479 315.762 205.369 316.237 205.369C316.839 205.369 317.331 205.56 317.711 205.94C318.092 206.321 318.282 206.876 318.282 207.607V212H316.735V207.845C316.735 207.439 316.627 207.142 316.412 206.955C316.196 206.764 315.931 206.669 315.619 206.669C315.247 206.669 314.956 206.786 314.745 207.018C314.538 207.249 314.434 207.548 314.434 207.918V212H312.922V207.781C312.922 207.443 312.819 207.173 312.615 206.972C312.413 206.77 312.149 206.669 311.822 206.669C311.6 206.669 311.399 206.726 311.217 206.839C311.035 206.95 310.89 207.108 310.782 207.312C310.674 207.514 310.62 207.75 310.62 208.02V212H309.078Z" fill="#00D4FF"/>
<path d="M336.766 207.789L333.789 210.789C333.625 210.93 333.438 211 333.25 211C333.039 211 332.852 210.93 332.711 210.789L329.734 207.789C329.5 207.578 329.43 207.25 329.547 206.969C329.664 206.688 329.945 206.5 330.25 206.5H336.227C336.531 206.5 336.789 206.688 336.906 206.969C337.023 207.25 336.977 207.578 336.766 207.789Z" fill="#00D4FF"/>
</g>
</g>
</g>
<defs>
<filter id="filter0_d_351_22976" x="8.5" y="8" width="387" height="274" filterUnits="userSpaceOnUse" color-interpolation-filters="sRGB">
<feFlood flood-opacity="0" result="BackgroundImageFix"/>
<feColorMatrix in="SourceAlpha" type="matrix" values="0 0 0 0 0 0 0 0 0 0 0 0 0 0 0 0 0 0 127 0" result="hardAlpha"/>
<feOffset dy="4"/>
<feGaussianBlur stdDeviation="12"/>
<feColorMatrix type="matrix" values="0 0 0 0 0.0235294 0 0 0 0 0.0941176 0 0 0 0 0.172549 0 0 0 0.4 0"/>
<feBlend mode="normal" in2="BackgroundImageFix" result="effect1_dropShadow_351_22976"/>
<feBlend mode="normal" in="SourceGraphic" in2="effect1_dropShadow_351_22976" result="shape"/>
</filter>
<filter id="filter1_d_351_22976" x="0.5" y="0" width="403" height="290" filterUnits="userSpaceOnUse" color-interpolation-filters="sRGB">
<feFlood flood-opacity="0" result="BackgroundImageFix"/>
<feColorMatrix in="SourceAlpha" type="matrix" values="0 0 0 0 0 0 0 0 0 0 0 0 0 0 0 0 0 0 127 0" result="hardAlpha"/>
<feOffset dy="4"/>
<feGaussianBlur stdDeviation="16"/>
<feComposite in2="hardAlpha" operator="out"/>
<feColorMatrix type="matrix" values="0 0 0 0 0.121569 0 0 0 0 0.121569 0 0 0 0 0.156863 0 0 0 0.07 0"/>
<feBlend mode="normal" in2="BackgroundImageFix" result="effect1_dropShadow_351_22976"/>
<feBlend mode="normal" in="SourceGraphic" in2="effect1_dropShadow_351_22976" result="shape"/>
</filter>
<filter id="filter2_d_351_22976" x="0.5" y="0" width="403" height="290" filterUnits="userSpaceOnUse" color-interpolation-filters="sRGB">
<feFlood flood-opacity="0" result="BackgroundImageFix"/>
<feColorMatrix in="SourceAlpha" type="matrix" values="0 0 0 0 0 0 0 0 0 0 0 0 0 0 0 0 0 0 127 0" result="hardAlpha"/>
<feOffset dy="4"/>
<feGaussianBlur stdDeviation="16"/>
<feComposite in2="hardAlpha" operator="out"/>
<feColorMatrix type="matrix" values="0 0 0 0 0.121569 0 0 0 0 0.121569 0 0 0 0 0.156863 0 0 0 0.07 0"/>
<feBlend mode="normal" in2="BackgroundImageFix" result="effect1_dropShadow_351_22976"/>
<feBlend mode="normal" in="SourceGraphic" in2="effect1_dropShadow_351_22976" result="shape"/>
</filter>
</defs>
</svg>
