<svg width="380" height="304" viewBox="0 0 380 304" fill="none" xmlns="http://www.w3.org/2000/svg">
<g filter="url(#filter0_d_351_23129)">
<g filter="url(#filter1_d_351_23129)">
<rect x="30.6875" y="119.885" width="249.571" height="150.118" rx="15.0118" fill="#0D2F4F"/>
<path d="M60.607 227.342C58.7599 227.342 57.1166 227.042 55.6773 226.442C54.2459 225.835 53.1225 225.007 52.3068 223.959C51.4912 222.912 51.0834 221.724 51.0834 220.397C51.0834 219.373 51.3153 218.434 51.7791 217.578C52.2509 216.715 52.8906 215.999 53.6982 215.431C54.5058 214.856 55.4094 214.488 56.409 214.328V214.16C55.0976 213.896 54.034 213.26 53.2184 212.253C52.4028 211.237 51.995 210.058 51.995 208.714C51.995 207.443 52.3668 206.311 53.1105 205.32C53.8541 204.32 54.8737 203.537 56.1691 202.969C57.4725 202.393 58.9518 202.105 60.607 202.105C62.2623 202.105 63.7376 202.393 65.033 202.969C66.3364 203.545 67.3599 204.332 68.1036 205.332C68.8472 206.323 69.2231 207.451 69.2311 208.714C69.2231 210.066 68.8073 211.245 67.9836 212.253C67.16 213.26 66.1045 213.896 64.8171 214.16V214.328C65.8006 214.488 66.6922 214.856 67.4919 215.431C68.2995 215.999 68.9392 216.715 69.411 217.578C69.8908 218.434 70.1346 219.373 70.1426 220.397C70.1346 221.724 69.7228 222.912 68.9072 223.959C68.0916 225.007 66.9641 225.835 65.5248 226.442C64.0934 227.042 62.4542 227.342 60.607 227.342ZM60.607 223.528C61.4306 223.528 62.1503 223.38 62.766 223.084C63.3817 222.78 63.8615 222.364 64.2054 221.836C64.5572 221.301 64.7331 220.685 64.7331 219.989C64.7331 219.278 64.5532 218.65 64.1934 218.106C63.8335 217.554 63.3458 217.123 62.73 216.811C62.1143 216.491 61.4067 216.331 60.607 216.331C59.8154 216.331 59.1077 216.491 58.484 216.811C57.8603 217.123 57.3685 217.554 57.0087 218.106C56.6568 218.65 56.4809 219.278 56.4809 219.989C56.4809 220.685 56.6528 221.301 56.9967 221.836C57.3405 222.364 57.8243 222.78 58.448 223.084C59.0717 223.38 59.7914 223.528 60.607 223.528ZM60.607 212.553C61.2947 212.553 61.9064 212.413 62.4422 212.133C62.9779 211.853 63.3977 211.465 63.7016 210.969C64.0055 210.474 64.1574 209.902 64.1574 209.254C64.1574 208.614 64.0055 208.055 63.7016 207.575C63.3977 207.087 62.9819 206.707 62.4542 206.435C61.9264 206.156 61.3107 206.016 60.607 206.016C59.9113 206.016 59.2956 206.156 58.7599 206.435C58.2241 206.707 57.8043 207.087 57.5004 207.575C57.2046 208.055 57.0567 208.614 57.0567 209.254C57.0567 209.902 57.2086 210.474 57.5124 210.969C57.8163 211.465 58.2361 211.853 58.7719 212.133C59.3076 212.413 59.9193 212.553 60.607 212.553ZM78.6827 223.648L78.5508 224.967C78.4468 226.022 78.2469 227.074 77.951 228.121C77.6632 229.177 77.3593 230.133 77.0395 230.988C76.7276 231.844 76.4757 232.515 76.2838 233.003H72.9733C73.0933 232.531 73.2572 231.872 73.4651 231.024C73.673 230.185 73.8689 229.241 74.0528 228.193C74.2368 227.146 74.3527 226.078 74.4007 224.991L74.4607 223.648H78.6827ZM91.4808 227.342C89.6337 227.342 87.9904 227.042 86.5511 226.442C85.1198 225.835 83.9963 225.007 83.1806 223.959C82.365 222.912 81.9572 221.724 81.9572 220.397C81.9572 219.373 82.1891 218.434 82.6529 217.578C83.1247 216.715 83.7644 215.999 84.572 215.431C85.3796 214.856 86.2832 214.488 87.2828 214.328V214.16C85.9714 213.896 84.9078 213.26 84.0922 212.253C83.2766 211.237 82.8688 210.058 82.8688 208.714C82.8688 207.443 83.2406 206.311 83.9843 205.32C84.7279 204.32 85.7475 203.537 87.0429 202.969C88.3463 202.393 89.8256 202.105 91.4808 202.105C93.1361 202.105 94.6114 202.393 95.9068 202.969C97.2102 203.545 98.2337 204.332 98.9774 205.332C99.721 206.323 100.097 207.451 100.105 208.714C100.097 210.066 99.6811 211.245 98.8574 212.253C98.0338 213.26 96.9783 213.896 95.6909 214.16V214.328C96.6744 214.488 97.566 214.856 98.3657 215.431C99.1733 215.999 99.813 216.715 100.285 217.578C100.765 218.434 101.008 219.373 101.016 220.397C101.008 221.724 100.597 222.912 99.781 223.959C98.9654 225.007 97.8379 225.835 96.3986 226.442C94.9672 227.042 93.328 227.342 91.4808 227.342ZM91.4808 223.528C92.3044 223.528 93.0241 223.38 93.6398 223.084C94.2556 222.78 94.7353 222.364 95.0792 221.836C95.431 221.301 95.6069 220.685 95.6069 219.989C95.6069 219.278 95.427 218.65 95.0672 218.106C94.7073 217.554 94.2196 217.123 93.6039 216.811C92.9881 216.491 92.2805 216.331 91.4808 216.331C90.6892 216.331 89.9815 216.491 89.3578 216.811C88.7341 217.123 88.2423 217.554 87.8825 218.106C87.5306 218.65 87.3547 219.278 87.3547 219.989C87.3547 220.685 87.5266 221.301 87.8705 221.836C88.2143 222.364 88.6981 222.78 89.3218 223.084C89.9455 223.38 90.6652 223.528 91.4808 223.528ZM91.4808 212.553C92.1685 212.553 92.7802 212.413 93.316 212.133C93.8517 211.853 94.2715 211.465 94.5754 210.969C94.8793 210.474 95.0312 209.902 95.0312 209.254C95.0312 208.614 94.8793 208.055 94.5754 207.575C94.2715 207.087 93.8557 206.707 93.328 206.435C92.8002 206.156 92.1845 206.016 91.4808 206.016C90.7851 206.016 90.1694 206.156 89.6337 206.435C89.0979 206.707 88.6781 207.087 88.3743 207.575C88.0784 208.055 87.9305 208.614 87.9305 209.254C87.9305 209.902 88.0824 210.474 88.3862 210.969C88.6901 211.465 89.1099 211.853 89.6457 212.133C90.1814 212.413 90.7931 212.553 91.4808 212.553ZM104.276 222.688V218.598L114.531 202.441H118.058V208.103H115.971L109.506 218.334V218.526H124.079V222.688H104.276ZM116.067 227.006V221.441L116.162 219.629V202.441H121.032V227.006H116.067ZM136.967 227.342C135.703 227.334 134.484 227.122 133.309 226.706C132.141 226.29 131.094 225.615 130.166 224.679C129.238 223.743 128.503 222.504 127.959 220.961C127.423 219.417 127.155 217.522 127.155 215.275C127.163 213.212 127.399 211.369 127.863 209.746C128.335 208.115 129.007 206.731 129.878 205.596C130.758 204.46 131.809 203.597 133.033 203.005C134.256 202.405 135.628 202.105 137.147 202.105C138.786 202.105 140.233 202.425 141.489 203.065C142.744 203.697 143.752 204.556 144.511 205.644C145.279 206.731 145.743 207.951 145.903 209.302H140.781C140.581 208.447 140.161 207.775 139.522 207.287C138.882 206.799 138.09 206.555 137.147 206.555C135.548 206.555 134.332 207.251 133.501 208.642C132.677 210.034 132.257 211.925 132.241 214.316H132.409C132.777 213.588 133.273 212.968 133.896 212.457C134.528 211.937 135.244 211.541 136.043 211.269C136.851 210.989 137.703 210.849 138.598 210.849C140.053 210.849 141.349 211.193 142.484 211.881C143.62 212.561 144.515 213.496 145.171 214.688C145.827 215.879 146.155 217.242 146.155 218.778C146.155 220.441 145.767 221.92 144.991 223.216C144.224 224.511 143.148 225.527 141.765 226.262C140.389 226.99 138.79 227.35 136.967 227.342ZM136.943 223.264C137.743 223.264 138.458 223.072 139.09 222.688C139.722 222.304 140.217 221.784 140.577 221.129C140.937 220.473 141.117 219.737 141.117 218.922C141.117 218.106 140.937 217.374 140.577 216.727C140.225 216.079 139.738 215.563 139.114 215.179C138.49 214.796 137.779 214.604 136.979 214.604C136.379 214.604 135.823 214.716 135.312 214.94C134.808 215.163 134.364 215.475 133.98 215.875C133.604 216.275 133.309 216.739 133.093 217.266C132.877 217.786 132.769 218.342 132.769 218.934C132.769 219.725 132.949 220.449 133.309 221.105C133.676 221.76 134.172 222.284 134.796 222.676C135.428 223.068 136.143 223.264 136.943 223.264Z" fill="white"/>
<path d="M155.052 227.006V225.577L158.843 221.862C159.205 221.496 159.507 221.17 159.749 220.886C159.99 220.602 160.172 220.326 160.293 220.06C160.413 219.793 160.474 219.509 160.474 219.207C160.474 218.862 160.396 218.567 160.239 218.322C160.083 218.073 159.868 217.881 159.594 217.746C159.321 217.611 159.01 217.544 158.661 217.544C158.302 217.544 157.988 217.618 157.718 217.768C157.448 217.913 157.238 218.121 157.089 218.391C156.943 218.661 156.87 218.983 156.87 219.356H154.988C154.988 218.663 155.146 218.061 155.463 217.549C155.779 217.037 156.214 216.641 156.769 216.36C157.327 216.079 157.966 215.939 158.688 215.939C159.42 215.939 160.063 216.076 160.618 216.35C161.172 216.623 161.602 216.998 161.908 217.474C162.217 217.951 162.372 218.494 162.372 219.106C162.372 219.514 162.293 219.916 162.137 220.31C161.981 220.705 161.705 221.142 161.311 221.622C160.92 222.102 160.371 222.683 159.663 223.365L157.782 225.279V225.353H162.537V227.006H155.052ZM168.294 227.155C167.527 227.155 166.844 227.024 166.247 226.761C165.654 226.498 165.184 226.132 164.84 225.663C164.495 225.193 164.312 224.652 164.291 224.037H166.295C166.313 224.332 166.411 224.589 166.588 224.81C166.766 225.026 167.002 225.195 167.297 225.316C167.592 225.437 167.923 225.497 168.289 225.497C168.68 225.497 169.026 225.43 169.328 225.295C169.63 225.156 169.867 224.964 170.037 224.719C170.208 224.474 170.291 224.191 170.288 223.871C170.291 223.541 170.206 223.249 170.032 222.997C169.858 222.745 169.606 222.548 169.275 222.405C168.948 222.263 168.554 222.192 168.092 222.192H167.127V220.668H168.092C168.472 220.668 168.804 220.602 169.088 220.47C169.376 220.339 169.602 220.154 169.765 219.916C169.929 219.674 170.009 219.395 170.005 219.079C170.009 218.77 169.94 218.501 169.797 218.274C169.659 218.043 169.462 217.864 169.206 217.736C168.953 217.608 168.657 217.544 168.315 217.544C167.981 217.544 167.672 217.604 167.388 217.725C167.104 217.846 166.874 218.018 166.7 218.242C166.526 218.462 166.434 218.725 166.423 219.031H164.52C164.534 218.42 164.71 217.883 165.048 217.421C165.389 216.955 165.844 216.593 166.412 216.334C166.981 216.071 167.619 215.939 168.326 215.939C169.055 215.939 169.687 216.076 170.224 216.35C170.764 216.62 171.182 216.984 171.477 217.442C171.772 217.901 171.919 218.407 171.919 218.962C171.923 219.577 171.741 220.092 171.375 220.508C171.013 220.923 170.537 221.195 169.947 221.323V221.409C170.714 221.515 171.303 221.799 171.711 222.261C172.124 222.72 172.328 223.29 172.324 223.973C172.324 224.584 172.15 225.131 171.802 225.615C171.457 226.094 170.981 226.471 170.373 226.745C169.769 227.018 169.076 227.155 168.294 227.155ZM173.957 224.98V223.408L178.589 216.088H179.901V218.327H179.101L175.983 223.269V223.354H182.449V224.98H173.957ZM179.165 227.006V224.5L179.186 223.797V216.088H181.052V227.006H179.165Z" fill="#00A587"/>
<path d="M189.976 223.67L193.699 219.917C193.905 219.741 194.139 219.624 194.403 219.624C194.638 219.624 194.872 219.741 195.048 219.917L198.772 223.67C199.036 223.934 199.124 224.344 198.977 224.696C198.83 225.048 198.508 225.253 198.127 225.253H190.65C190.269 225.253 189.917 225.048 189.771 224.696C189.624 224.344 189.712 223.934 189.976 223.67Z" fill="#00A587"/>
<path d="M52.0083 245.959L54.3172 253.217H54.4059L56.7195 245.959H58.9584L55.6653 255.512H53.0625L49.7647 245.959H52.0083ZM60.0709 255.512V248.347H62.058V255.512H60.0709ZM61.0691 247.424C60.7737 247.424 60.5203 247.326 60.3088 247.13C60.1005 246.931 59.9963 246.693 59.9963 246.416C59.9963 246.142 60.1005 245.908 60.3088 245.712C60.5203 245.513 60.7737 245.413 61.0691 245.413C61.3646 245.413 61.6164 245.513 61.8248 245.712C62.0363 245.908 62.142 246.142 62.142 246.416C62.142 246.693 62.0363 246.931 61.8248 247.13C61.6164 247.326 61.3646 247.424 61.0691 247.424ZM69.611 250.39L67.7919 250.502C67.7608 250.347 67.6939 250.207 67.5913 250.082C67.4887 249.955 67.3534 249.854 67.1855 249.779C67.0207 249.701 66.8232 249.663 66.5931 249.663C66.2852 249.663 66.0256 249.728 65.8141 249.858C65.6027 249.986 65.4969 250.157 65.4969 250.372C65.4969 250.543 65.5654 250.687 65.7022 250.805C65.839 250.924 66.0738 251.018 66.4065 251.09L67.7033 251.351C68.3998 251.494 68.9191 251.724 69.2612 252.041C69.6033 252.359 69.7743 252.775 69.7743 253.292C69.7743 253.761 69.6359 254.173 69.3592 254.528C69.0855 254.882 68.7092 255.159 68.2303 255.358C67.7546 255.554 67.2057 255.652 66.5838 255.652C65.6353 255.652 64.8797 255.454 64.3168 255.059C63.7571 254.661 63.429 254.12 63.3326 253.436L65.287 253.334C65.3461 253.623 65.4892 253.843 65.7162 253.996C65.9432 254.145 66.2339 254.22 66.5884 254.22C66.9367 254.22 67.2166 254.153 67.428 254.019C67.6426 253.882 67.7515 253.707 67.7546 253.492C67.7515 253.312 67.6753 253.164 67.526 253.049C67.3767 252.931 67.1466 252.841 66.8357 252.778L65.5949 252.531C64.8952 252.391 64.3743 252.149 64.0323 251.804C63.6933 251.458 63.5238 251.018 63.5238 250.483C63.5238 250.023 63.6482 249.627 63.897 249.294C64.1489 248.961 64.5018 248.705 64.9559 248.524C65.413 248.344 65.9478 248.254 66.5604 248.254C67.4654 248.254 68.1775 248.445 68.6968 248.828C69.2192 249.21 69.524 249.731 69.611 250.39ZM71.0256 255.512V248.347H73.0126V255.512H71.0256ZM72.0238 247.424C71.7284 247.424 71.4749 247.326 71.2635 247.13C71.0551 246.931 70.9509 246.693 70.9509 246.416C70.9509 246.142 71.0551 245.908 71.2635 245.712C71.4749 245.513 71.7284 245.413 72.0238 245.413C72.3192 245.413 72.5711 245.513 72.7794 245.712C72.9909 245.908 73.0966 246.142 73.0966 246.416C73.0966 246.693 72.9909 246.931 72.7794 247.13C72.5711 247.326 72.3192 247.424 72.0238 247.424ZM78.4153 248.347V249.84H74.1006V248.347H78.4153ZM75.0802 246.631H77.0673V253.31C77.0673 253.494 77.0953 253.637 77.1512 253.739C77.2072 253.839 77.285 253.909 77.3845 253.949C77.4871 253.99 77.6053 254.01 77.739 254.01C77.8323 254.01 77.9256 254.002 78.0188 253.987C78.1121 253.968 78.1837 253.954 78.2334 253.945L78.5459 255.423C78.4464 255.454 78.3065 255.49 78.1261 255.53C77.9458 255.574 77.7265 255.6 77.4684 255.61C76.9895 255.628 76.5697 255.565 76.209 255.419C75.8514 255.272 75.5731 255.045 75.3741 254.738C75.175 254.43 75.0771 254.041 75.0802 253.571V246.631ZM85.5812 250.39L83.762 250.502C83.7309 250.347 83.6641 250.207 83.5615 250.082C83.4588 249.955 83.3236 249.854 83.1557 249.779C82.9908 249.701 82.7934 249.663 82.5633 249.663C82.2554 249.663 81.9957 249.728 81.7843 249.858C81.5728 249.986 81.4671 250.157 81.4671 250.372C81.4671 250.543 81.5355 250.687 81.6723 250.805C81.8092 250.924 82.0439 251.018 82.3767 251.09L83.6734 251.351C84.37 251.494 84.8893 251.724 85.2314 252.041C85.5734 252.359 85.7445 252.775 85.7445 253.292C85.7445 253.761 85.6061 254.173 85.3293 254.528C85.0557 254.882 84.6794 255.159 84.2005 255.358C83.7247 255.554 83.1759 255.652 82.5539 255.652C81.6055 255.652 80.8498 255.454 80.287 255.059C79.7272 254.661 79.3992 254.12 79.3028 253.436L81.2572 253.334C81.3163 253.623 81.4593 253.843 81.6863 253.996C81.9133 254.145 82.2041 254.22 82.5586 254.22C82.9069 254.22 83.1867 254.153 83.3982 254.019C83.6128 253.882 83.7216 253.707 83.7247 253.492C83.7216 253.312 83.6454 253.164 83.4962 253.049C83.3469 252.931 83.1168 252.841 82.8058 252.778L81.565 252.531C80.8654 252.391 80.3445 252.149 80.0024 251.804C79.6635 251.458 79.494 251.018 79.494 250.483C79.494 250.023 79.6184 249.627 79.8672 249.294C80.119 248.961 80.472 248.705 80.926 248.524C81.3831 248.344 81.918 248.254 82.5306 248.254C83.4355 248.254 84.1476 248.445 84.667 248.828C85.1894 249.21 85.4941 249.731 85.5812 250.39Z" fill="white" fill-opacity="0.6"/>
<path d="M49.4521 152.821L61.2322 158.709L73.0123 157.835L84.7923 163.724L96.5724 151.785L108.352 137.712L120.133 142.079L131.913 141.724L143.693 157.609L155.473 149.715L167.253 144.312L179.033 147.353L190.813 148.324L202.593 145.412L214.373 167.282L226.153 144.215L237.933 155.829L249.713 149.618L261.493 164.015V168.674H249.713H237.933H226.153H214.373H202.593H190.813H179.033H167.253H155.473H143.693H131.913H120.133H108.352H96.5724H84.7923H73.0123H61.2322H49.4521V152.821Z" fill="#975FE4" fill-opacity="0.5"/>
<path d="M254.926 237.61C251.283 237.61 248.358 240.56 248.358 244.177C248.358 247.82 251.283 250.745 254.926 250.745C258.543 250.745 261.494 247.82 261.494 244.177C261.494 240.56 258.543 237.61 254.926 237.61ZM254.926 240.893C255.362 240.893 255.747 241.278 255.747 241.714C255.747 242.176 255.362 242.535 254.926 242.535C254.464 242.535 254.105 242.176 254.105 241.714C254.105 241.278 254.464 240.893 254.926 240.893ZM255.952 247.461H253.9C253.541 247.461 253.284 247.205 253.284 246.845C253.284 246.512 253.541 246.23 253.9 246.23H254.31V244.588H254.105C253.746 244.588 253.489 244.331 253.489 243.972C253.489 243.639 253.746 243.356 254.105 243.356H254.926C255.26 243.356 255.542 243.639 255.542 243.972V246.23H255.952C256.286 246.23 256.568 246.512 256.568 246.845C256.568 247.205 256.286 247.461 255.952 247.461Z" fill="white" fill-opacity="0.6"/>
</g>
<g filter="url(#filter2_d_351_23129)">
<rect x="100.116" y="27" width="249.571" height="150.118" rx="15.0118" fill="#0D2F4F"/>
<path d="M129.124 137.191V106.485H131.091V137.191H129.124ZM134.342 116.621C134.246 115.653 133.834 114.901 133.106 114.366C132.379 113.83 131.391 113.562 130.144 113.562C129.296 113.562 128.58 113.682 127.997 113.922C127.413 114.154 126.965 114.478 126.653 114.893C126.349 115.309 126.197 115.781 126.197 116.309C126.182 116.749 126.273 117.132 126.473 117.46C126.681 117.788 126.965 118.072 127.325 118.312C127.685 118.544 128.101 118.748 128.572 118.924C129.044 119.092 129.548 119.235 130.084 119.355L132.291 119.883C133.362 120.123 134.346 120.443 135.241 120.843C136.137 121.243 136.913 121.734 137.568 122.318C138.224 122.902 138.732 123.589 139.092 124.381C139.459 125.173 139.647 126.08 139.655 127.104C139.647 128.607 139.263 129.911 138.504 131.014C137.752 132.11 136.665 132.961 135.241 133.569C133.826 134.169 132.119 134.468 130.12 134.468C128.137 134.468 126.409 134.165 124.938 133.557C123.475 132.949 122.331 132.05 121.508 130.858C120.692 129.659 120.264 128.175 120.224 126.408H125.25C125.306 127.232 125.542 127.919 125.958 128.471C126.381 129.015 126.945 129.427 127.649 129.707C128.361 129.979 129.164 130.114 130.06 130.114C130.939 130.114 131.703 129.987 132.351 129.731C133.006 129.475 133.514 129.119 133.874 128.663C134.234 128.207 134.414 127.684 134.414 127.092C134.414 126.54 134.25 126.076 133.922 125.7C133.602 125.325 133.13 125.005 132.507 124.741C131.891 124.477 131.135 124.237 130.24 124.021L127.565 123.35C125.494 122.846 123.859 122.058 122.659 120.987C121.46 119.915 120.864 118.472 120.872 116.657C120.864 115.169 121.26 113.87 122.059 112.758C122.867 111.647 123.975 110.779 125.382 110.156C126.789 109.532 128.388 109.22 130.18 109.22C132.003 109.22 133.594 109.532 134.953 110.156C136.321 110.779 137.384 111.647 138.144 112.758C138.904 113.87 139.295 115.157 139.319 116.621H134.342ZM151.893 109.22C153.156 109.22 154.372 109.432 155.539 109.856C156.714 110.28 157.762 110.955 158.682 111.883C159.609 112.81 160.341 114.042 160.877 115.577C161.42 117.104 161.696 118.98 161.704 121.203C161.704 123.29 161.468 125.153 160.996 126.792C160.533 128.423 159.865 129.811 158.993 130.954C158.122 132.098 157.07 132.969 155.839 133.569C154.607 134.161 153.232 134.456 151.713 134.456C150.074 134.456 148.626 134.141 147.371 133.509C146.115 132.869 145.104 132.002 144.336 130.906C143.577 129.803 143.117 128.563 142.957 127.188H148.078C148.278 128.083 148.698 128.779 149.338 129.275C149.978 129.763 150.769 130.006 151.713 130.006C153.312 130.006 154.527 129.311 155.359 127.919C156.191 126.52 156.611 124.605 156.619 122.174H156.451C156.083 122.894 155.587 123.513 154.963 124.033C154.34 124.545 153.624 124.941 152.816 125.221C152.017 125.501 151.165 125.641 150.261 125.641C148.814 125.641 147.523 125.301 146.387 124.621C145.252 123.941 144.356 123.006 143.7 121.814C143.045 120.623 142.717 119.263 142.717 117.736C142.709 116.089 143.089 114.622 143.856 113.334C144.624 112.047 145.696 111.039 147.071 110.312C148.454 109.576 150.062 109.212 151.893 109.22ZM151.929 113.298C151.121 113.298 150.401 113.49 149.77 113.874C149.146 114.258 148.65 114.774 148.282 115.421C147.923 116.069 147.747 116.793 147.755 117.592C147.755 118.4 147.931 119.127 148.282 119.775C148.642 120.415 149.13 120.927 149.746 121.31C150.369 121.686 151.081 121.874 151.881 121.874C152.48 121.874 153.036 121.762 153.548 121.538C154.06 121.314 154.503 121.007 154.879 120.615C155.263 120.215 155.563 119.755 155.779 119.235C155.995 118.716 156.103 118.164 156.103 117.58C156.095 116.805 155.911 116.093 155.551 115.445C155.191 114.797 154.695 114.278 154.064 113.886C153.432 113.494 152.72 113.298 151.929 113.298ZM174.934 134.66C172.871 134.652 171.096 134.145 169.609 133.137C168.129 132.13 166.99 130.67 166.19 128.759C165.398 126.848 165.007 124.549 165.015 121.862C165.015 119.183 165.41 116.901 166.202 115.013C167.002 113.126 168.141 111.691 169.621 110.707C171.108 109.716 172.879 109.22 174.934 109.22C176.989 109.22 178.756 109.716 180.236 110.707C181.723 111.699 182.866 113.138 183.666 115.025C184.466 116.905 184.862 119.183 184.854 121.862C184.854 124.557 184.454 126.86 183.654 128.771C182.862 130.682 181.727 132.142 180.248 133.149C178.768 134.157 176.997 134.66 174.934 134.66ZM174.934 130.354C176.341 130.354 177.465 129.647 178.305 128.231C179.144 126.816 179.56 124.693 179.552 121.862C179.552 119.999 179.36 118.448 178.976 117.208C178.6 115.969 178.065 115.037 177.369 114.414C176.681 113.79 175.87 113.478 174.934 113.478C173.535 113.478 172.415 114.178 171.576 115.577C170.736 116.976 170.312 119.072 170.304 121.862C170.304 123.749 170.492 125.325 170.868 126.588C171.252 127.843 171.792 128.787 172.487 129.419C173.183 130.042 173.999 130.354 174.934 130.354ZM193.169 130.762L193.037 132.082C192.933 133.137 192.733 134.189 192.437 135.236C192.149 136.292 191.845 137.247 191.525 138.103C191.214 138.958 190.962 139.63 190.77 140.118H187.459C187.579 139.646 187.743 138.986 187.951 138.139C188.159 137.299 188.355 136.356 188.539 135.308C188.723 134.261 188.839 133.193 188.887 132.106L188.947 130.762H193.169ZM206.219 109.22C207.482 109.22 208.698 109.432 209.865 109.856C211.04 110.28 212.088 110.955 213.008 111.883C213.935 112.81 214.667 114.042 215.203 115.577C215.746 117.104 216.022 118.98 216.03 121.203C216.03 123.29 215.794 125.153 215.323 126.792C214.859 128.423 214.191 129.811 213.319 130.954C212.448 132.098 211.396 132.969 210.165 133.569C208.933 134.161 207.558 134.456 206.039 134.456C204.4 134.456 202.952 134.141 201.697 133.509C200.441 132.869 199.43 132.002 198.662 130.906C197.903 129.803 197.443 128.563 197.283 127.188H202.404C202.604 128.083 203.024 128.779 203.664 129.275C204.304 129.763 205.095 130.006 206.039 130.006C207.638 130.006 208.853 129.311 209.685 127.919C210.517 126.52 210.937 124.605 210.945 122.174H210.777C210.409 122.894 209.913 123.513 209.289 124.033C208.666 124.545 207.95 124.941 207.142 125.221C206.343 125.501 205.491 125.641 204.587 125.641C203.14 125.641 201.849 125.301 200.713 124.621C199.578 123.941 198.682 123.006 198.026 121.814C197.371 120.623 197.043 119.263 197.043 117.736C197.035 116.089 197.415 114.622 198.182 113.334C198.95 112.047 200.022 111.039 201.397 110.312C202.78 109.576 204.388 109.212 206.219 109.22ZM206.255 113.298C205.447 113.298 204.727 113.49 204.096 113.874C203.472 114.258 202.976 114.774 202.608 115.421C202.249 116.069 202.073 116.793 202.081 117.592C202.081 118.4 202.257 119.127 202.608 119.775C202.968 120.415 203.456 120.927 204.072 121.31C204.695 121.686 205.407 121.874 206.207 121.874C206.806 121.874 207.362 121.762 207.874 121.538C208.386 121.314 208.83 121.007 209.205 120.615C209.589 120.215 209.889 119.755 210.105 119.235C210.321 118.716 210.429 118.164 210.429 117.58C210.421 116.805 210.237 116.093 209.877 115.445C209.517 114.797 209.021 114.278 208.39 113.886C207.758 113.494 207.046 113.298 206.255 113.298ZM229.26 134.66C227.197 134.652 225.422 134.145 223.935 133.137C222.455 132.13 221.316 130.67 220.516 128.759C219.724 126.848 219.333 124.549 219.341 121.862C219.341 119.183 219.736 116.901 220.528 115.013C221.328 113.126 222.467 111.691 223.947 110.707C225.434 109.716 227.205 109.22 229.26 109.22C231.315 109.22 233.082 109.716 234.562 110.707C236.049 111.699 237.192 113.138 237.992 115.025C238.792 116.905 239.188 119.183 239.18 121.862C239.18 124.557 238.78 126.86 237.98 128.771C237.188 130.682 236.053 132.142 234.574 133.149C233.094 134.157 231.323 134.66 229.26 134.66ZM229.26 130.354C230.667 130.354 231.791 129.647 232.631 128.231C233.47 126.816 233.886 124.693 233.878 121.862C233.878 119.999 233.686 118.448 233.302 117.208C232.926 115.969 232.391 115.037 231.695 114.414C231.007 113.79 230.196 113.478 229.26 113.478C227.861 113.478 226.741 114.178 225.902 115.577C225.062 116.976 224.638 119.072 224.63 121.862C224.63 123.749 224.818 125.325 225.194 126.588C225.578 127.843 226.118 128.787 226.813 129.419C227.509 130.042 228.325 130.354 229.26 130.354ZM252.514 134.66C250.451 134.652 248.676 134.145 247.189 133.137C245.71 132.13 244.57 130.67 243.77 128.759C242.979 126.848 242.587 124.549 242.595 121.862C242.595 119.183 242.991 116.901 243.782 115.013C244.582 113.126 245.722 111.691 247.201 110.707C248.688 109.716 250.459 109.22 252.514 109.22C254.569 109.22 256.337 109.716 257.816 110.707C259.303 111.699 260.447 113.138 261.246 115.025C262.046 116.905 262.442 119.183 262.434 121.862C262.434 124.557 262.034 126.86 261.234 128.771C260.443 130.682 259.307 132.142 257.828 133.149C256.349 134.157 254.577 134.66 252.514 134.66ZM252.514 130.354C253.922 130.354 255.045 129.647 255.885 128.231C256.724 126.816 257.14 124.693 257.132 121.862C257.132 119.999 256.94 118.448 256.557 117.208C256.181 115.969 255.645 115.037 254.949 114.414C254.262 113.79 253.45 113.478 252.514 113.478C251.115 113.478 249.996 114.178 249.156 115.577C248.316 116.976 247.893 119.072 247.885 121.862C247.885 123.749 248.072 125.325 248.448 126.588C248.832 127.843 249.372 128.787 250.068 129.419C250.763 130.042 251.579 130.354 252.514 130.354Z" fill="white"/>
<path d="M119.347 154.739V153.074H127.193V154.739H124.268V162.626H122.272V154.739H119.347ZM130.646 162.766C129.921 162.766 129.295 162.612 128.766 162.305C128.241 161.994 127.835 161.561 127.549 161.008C127.263 160.451 127.12 159.806 127.12 159.072C127.12 158.332 127.263 157.685 127.549 157.132C127.835 156.575 128.241 156.143 128.766 155.835C129.295 155.524 129.921 155.368 130.646 155.368C131.371 155.368 131.996 155.524 132.521 155.835C133.05 156.143 133.457 156.575 133.743 157.132C134.029 157.685 134.172 158.332 134.172 159.072C134.172 159.806 134.029 160.451 133.743 161.008C133.457 161.561 133.05 161.994 132.521 162.305C131.996 162.612 131.371 162.766 130.646 162.766ZM130.655 161.227C130.985 161.227 131.26 161.134 131.481 160.947C131.702 160.758 131.868 160.499 131.98 160.173C132.095 159.846 132.153 159.475 132.153 159.058C132.153 158.641 132.095 158.27 131.98 157.943C131.868 157.617 131.702 157.359 131.481 157.169C131.26 156.979 130.985 156.884 130.655 156.884C130.323 156.884 130.043 156.979 129.816 157.169C129.592 157.359 129.422 157.617 129.307 157.943C129.195 158.27 129.139 158.641 129.139 159.058C129.139 159.475 129.195 159.846 129.307 160.173C129.422 160.499 129.592 160.758 129.816 160.947C130.043 161.134 130.323 161.227 130.655 161.227ZM139.275 155.462V156.954H134.961V155.462H139.275ZM135.94 153.745H137.927V160.425C137.927 160.608 137.955 160.751 138.011 160.854C138.067 160.953 138.145 161.023 138.244 161.064C138.347 161.104 138.465 161.124 138.599 161.124C138.692 161.124 138.786 161.117 138.879 161.101C138.972 161.083 139.044 161.069 139.093 161.059L139.406 162.538C139.306 162.569 139.166 162.605 138.986 162.645C138.806 162.689 138.587 162.715 138.328 162.724C137.85 162.743 137.43 162.679 137.069 162.533C136.711 162.387 136.433 162.16 136.234 161.852C136.035 161.544 135.937 161.156 135.94 160.686V153.745ZM142.613 162.762C142.156 162.762 141.748 162.682 141.391 162.524C141.033 162.362 140.75 162.124 140.542 161.81C140.336 161.493 140.234 161.098 140.234 160.625C140.234 160.227 140.307 159.893 140.453 159.623C140.599 159.352 140.798 159.134 141.05 158.969C141.302 158.805 141.588 158.68 141.908 158.596C142.232 158.512 142.571 158.453 142.925 158.419C143.342 158.376 143.678 158.335 143.933 158.298C144.188 158.257 144.373 158.198 144.488 158.121C144.603 158.043 144.661 157.928 144.661 157.775V157.747C144.661 157.452 144.567 157.223 144.381 157.062C144.197 156.9 143.936 156.819 143.597 156.819C143.239 156.819 142.955 156.898 142.743 157.057C142.532 157.213 142.392 157.408 142.324 157.645L140.486 157.495C140.579 157.06 140.763 156.684 141.036 156.367C141.31 156.046 141.663 155.801 142.095 155.63C142.53 155.456 143.034 155.368 143.606 155.368C144.004 155.368 144.385 155.415 144.749 155.508C145.116 155.602 145.441 155.746 145.724 155.942C146.01 156.138 146.236 156.39 146.4 156.698C146.565 157.003 146.648 157.368 146.648 157.794V162.626H144.763V161.633H144.707C144.592 161.857 144.438 162.054 144.245 162.225C144.053 162.393 143.821 162.525 143.55 162.622C143.28 162.715 142.967 162.762 142.613 162.762ZM143.182 161.39C143.474 161.39 143.732 161.333 143.956 161.218C144.18 161.1 144.356 160.941 144.483 160.742C144.611 160.543 144.675 160.318 144.675 160.066V159.305C144.612 159.346 144.527 159.383 144.418 159.417C144.312 159.448 144.193 159.478 144.059 159.506C143.925 159.531 143.791 159.554 143.658 159.576C143.524 159.595 143.403 159.612 143.294 159.627C143.061 159.661 142.857 159.716 142.683 159.79C142.509 159.865 142.373 159.966 142.277 160.094C142.181 160.218 142.132 160.374 142.132 160.56C142.132 160.831 142.23 161.037 142.426 161.18C142.625 161.32 142.877 161.39 143.182 161.39ZM150.176 153.074V162.626H148.189V153.074H150.176ZM160.028 155.821C159.99 155.445 159.83 155.152 159.547 154.944C159.264 154.736 158.88 154.631 158.395 154.631C158.066 154.631 157.787 154.678 157.56 154.771C157.333 154.862 157.159 154.988 157.038 155.149C156.92 155.311 156.861 155.494 156.861 155.7C156.854 155.871 156.89 156.02 156.968 156.147C157.049 156.275 157.159 156.385 157.299 156.479C157.439 156.569 157.601 156.648 157.784 156.717C157.968 156.782 158.164 156.838 158.372 156.884L159.23 157.09C159.647 157.183 160.029 157.307 160.378 157.463C160.726 157.618 161.028 157.81 161.283 158.037C161.538 158.264 161.735 158.531 161.875 158.839C162.018 159.147 162.091 159.5 162.094 159.898C162.091 160.482 161.942 160.989 161.646 161.418C161.354 161.844 160.931 162.176 160.378 162.412C159.827 162.645 159.163 162.762 158.386 162.762C157.615 162.762 156.943 162.644 156.371 162.407C155.802 162.171 155.357 161.821 155.037 161.358C154.72 160.891 154.553 160.314 154.538 159.627H156.492C156.514 159.947 156.606 160.215 156.767 160.429C156.932 160.641 157.151 160.801 157.425 160.91C157.702 161.016 158.014 161.069 158.363 161.069C158.705 161.069 159.002 161.019 159.253 160.919C159.508 160.82 159.706 160.681 159.846 160.504C159.986 160.327 160.056 160.123 160.056 159.893C160.056 159.678 159.992 159.498 159.865 159.352C159.74 159.206 159.557 159.081 159.314 158.979C159.075 158.876 158.781 158.783 158.433 158.699L157.392 158.438C156.587 158.242 155.951 157.936 155.485 157.519C155.018 157.102 154.786 156.541 154.79 155.835C154.786 155.257 154.94 154.751 155.251 154.319C155.565 153.887 155.996 153.549 156.543 153.307C157.091 153.064 157.713 152.943 158.409 152.943C159.118 152.943 159.737 153.064 160.266 153.307C160.797 153.549 161.211 153.887 161.506 154.319C161.802 154.751 161.954 155.252 161.964 155.821H160.028ZM165.458 162.762C165.001 162.762 164.594 162.682 164.236 162.524C163.879 162.362 163.596 162.124 163.387 161.81C163.182 161.493 163.08 161.098 163.08 160.625C163.08 160.227 163.153 159.893 163.299 159.623C163.445 159.352 163.644 159.134 163.896 158.969C164.148 158.805 164.434 158.68 164.754 158.596C165.078 158.512 165.416 158.453 165.771 158.419C166.188 158.376 166.524 158.335 166.779 158.298C167.033 158.257 167.219 158.198 167.334 158.121C167.449 158.043 167.506 157.928 167.506 157.775V157.747C167.506 157.452 167.413 157.223 167.226 157.062C167.043 156.9 166.782 156.819 166.443 156.819C166.085 156.819 165.801 156.898 165.589 157.057C165.378 157.213 165.238 157.408 165.169 157.645L163.331 157.495C163.425 157.06 163.608 156.684 163.882 156.367C164.155 156.046 164.508 155.801 164.941 155.63C165.376 155.456 165.88 155.368 166.452 155.368C166.85 155.368 167.231 155.415 167.595 155.508C167.962 155.602 168.287 155.746 168.57 155.942C168.856 156.138 169.081 156.39 169.246 156.698C169.411 157.003 169.493 157.368 169.493 157.794V162.626H167.609V161.633H167.553C167.438 161.857 167.284 162.054 167.091 162.225C166.898 162.393 166.667 162.525 166.396 162.622C166.125 162.715 165.813 162.762 165.458 162.762ZM166.028 161.39C166.32 161.39 166.578 161.333 166.802 161.218C167.026 161.1 167.201 160.941 167.329 160.742C167.456 160.543 167.52 160.318 167.52 160.066V159.305C167.458 159.346 167.372 159.383 167.264 159.417C167.158 159.448 167.038 159.478 166.904 159.506C166.771 159.531 166.637 159.554 166.503 159.576C166.37 159.595 166.248 159.612 166.139 159.627C165.906 159.661 165.703 159.716 165.528 159.79C165.354 159.865 165.219 159.966 165.123 160.094C165.026 160.218 164.978 160.374 164.978 160.56C164.978 160.831 165.076 161.037 165.272 161.18C165.471 161.32 165.723 161.39 166.028 161.39ZM173.022 153.074V162.626H171.035V153.074H173.022ZM177.879 162.766C177.142 162.766 176.508 162.617 175.976 162.319C175.447 162.017 175.04 161.591 174.754 161.041C174.468 160.487 174.325 159.832 174.325 159.077C174.325 158.34 174.468 157.693 174.754 157.136C175.04 156.58 175.442 156.146 175.962 155.835C176.484 155.524 177.097 155.368 177.8 155.368C178.272 155.368 178.712 155.445 179.12 155.597C179.53 155.746 179.888 155.972 180.193 156.273C180.5 156.575 180.74 156.954 180.911 157.412C181.082 157.866 181.167 158.397 181.167 159.007V159.553H175.118V158.321H179.297C179.297 158.035 179.235 157.782 179.11 157.561C178.986 157.34 178.813 157.167 178.593 157.043C178.375 156.916 178.121 156.852 177.832 156.852C177.531 156.852 177.263 156.922 177.03 157.062C176.8 157.199 176.619 157.384 176.489 157.617C176.358 157.847 176.291 158.103 176.288 158.386V159.557C176.288 159.912 176.354 160.218 176.484 160.476C176.618 160.734 176.806 160.933 177.049 161.073C177.291 161.213 177.579 161.283 177.912 161.283C178.132 161.283 178.334 161.252 178.518 161.19C178.701 161.128 178.858 161.034 178.989 160.91C179.12 160.786 179.219 160.633 179.288 160.453L181.125 160.574C181.032 161.016 180.841 161.401 180.552 161.731C180.266 162.057 179.896 162.312 179.442 162.496C178.991 162.676 178.47 162.766 177.879 162.766ZM188.425 157.505L186.606 157.617C186.575 157.461 186.508 157.321 186.406 157.197C186.303 157.069 186.168 156.968 186 156.894C185.835 156.816 185.638 156.777 185.407 156.777C185.1 156.777 184.84 156.842 184.628 156.973C184.417 157.101 184.311 157.272 184.311 157.486C184.311 157.657 184.38 157.802 184.517 157.92C184.653 158.038 184.888 158.133 185.221 158.204L186.518 158.466C187.214 158.609 187.733 158.839 188.076 159.156C188.418 159.473 188.589 159.89 188.589 160.406C188.589 160.876 188.45 161.288 188.174 161.642C187.9 161.997 187.524 162.274 187.045 162.473C186.569 162.668 186.02 162.766 185.398 162.766C184.45 162.766 183.694 162.569 183.131 162.174C182.571 161.776 182.243 161.235 182.147 160.551L184.101 160.448C184.16 160.737 184.304 160.958 184.531 161.11C184.758 161.26 185.048 161.334 185.403 161.334C185.751 161.334 186.031 161.268 186.242 161.134C186.457 160.997 186.566 160.821 186.569 160.607C186.566 160.426 186.49 160.279 186.34 160.164C186.191 160.045 185.961 159.955 185.65 159.893L184.409 159.646C183.71 159.506 183.189 159.263 182.847 158.918C182.508 158.573 182.338 158.133 182.338 157.598C182.338 157.138 182.463 156.741 182.711 156.409C182.963 156.076 183.316 155.819 183.77 155.639C184.227 155.459 184.762 155.368 185.375 155.368C186.28 155.368 186.992 155.56 187.511 155.942C188.034 156.325 188.338 156.846 188.425 157.505Z" fill="white" fill-opacity="0.6"/>
<path d="M121.834 60.7646L119.137 51.2117H120.999L122.72 58.2318H122.808L124.646 51.2117H126.339L128.182 58.2365H128.266L129.987 51.2117H131.848L129.152 60.7646H127.445L125.532 54.0617H125.458L123.541 60.7646H121.834ZM135.368 60.9046C134.668 60.9046 134.062 60.7507 133.548 60.4428C133.035 60.1349 132.637 59.7042 132.354 59.1507C132.074 58.5972 131.935 57.9504 131.935 57.2103C131.935 56.4702 132.074 55.8218 132.354 55.2652C132.637 54.7085 133.035 54.2763 133.548 53.9684C134.062 53.6606 134.668 53.5067 135.368 53.5067C136.067 53.5067 136.674 53.6606 137.187 53.9684C137.7 54.2763 138.096 54.7085 138.376 55.2652C138.659 55.8218 138.801 56.4702 138.801 57.2103C138.801 57.9504 138.659 58.5972 138.376 59.1507C138.096 59.7042 137.7 60.1349 137.187 60.4428C136.674 60.7507 136.067 60.9046 135.368 60.9046ZM135.377 59.5519C135.756 59.5519 136.074 59.4477 136.329 59.2393C136.583 59.0279 136.773 58.7449 136.898 58.3904C137.025 58.0359 137.089 57.641 137.089 57.2056C137.089 56.7672 137.025 56.3707 136.898 56.0162C136.773 55.6586 136.583 55.374 136.329 55.1626C136.074 54.9511 135.756 54.8454 135.377 54.8454C134.988 54.8454 134.665 54.9511 134.407 55.1626C134.152 55.374 133.96 55.6586 133.833 56.0162C133.709 56.3707 133.646 56.7672 133.646 57.2056C133.646 57.641 133.709 58.0359 133.833 58.3904C133.96 58.7449 134.152 59.0279 134.407 59.2393C134.665 59.4477 134.988 59.5519 135.377 59.5519ZM141.652 60.7646L138.956 51.2117H140.817L142.538 58.2318H142.627L144.465 51.2117H146.158L148 58.2365H148.084L149.805 51.2117H151.667L148.971 60.7646H147.263L145.351 54.0617H145.276L143.359 60.7646H141.652ZM164.302 54.4349H162.557C162.507 54.1488 162.416 53.8954 162.282 53.6746C162.148 53.4507 161.982 53.261 161.783 53.1055C161.584 52.95 161.357 52.8334 161.102 52.7557C160.85 52.6748 160.578 52.6344 160.285 52.6344C159.766 52.6344 159.306 52.765 158.905 53.0262C158.504 53.2843 158.19 53.6637 157.963 54.1643C157.736 54.6619 157.622 55.2698 157.622 55.9882C157.622 56.719 157.736 57.3347 157.963 57.8353C158.193 58.3329 158.507 58.7091 158.905 58.9641C159.306 59.216 159.765 59.342 160.281 59.342C160.567 59.342 160.834 59.3047 161.083 59.23C161.335 59.1523 161.56 59.0388 161.759 58.8895C161.962 58.7402 162.131 58.5568 162.268 58.3391C162.408 58.1214 162.504 57.8726 162.557 57.5928L164.302 57.6021C164.236 58.0561 164.095 58.4821 163.877 58.8802C163.663 59.2782 163.381 59.6296 163.033 59.9344C162.685 60.236 162.277 60.4723 161.811 60.6434C161.344 60.8113 160.827 60.8953 160.258 60.8953C159.418 60.8953 158.668 60.7009 158.009 60.3122C157.35 59.9235 156.831 59.3622 156.451 58.6283C156.072 57.8944 155.882 57.0144 155.882 55.9882C155.882 54.9589 156.073 54.0788 156.456 53.3481C156.838 52.6142 157.359 52.0529 158.019 51.6642C158.678 51.2755 159.424 51.0811 160.258 51.0811C160.789 51.0811 161.284 51.1557 161.741 51.305C162.198 51.4543 162.605 51.6735 162.963 51.9627C163.321 52.2488 163.614 52.6002 163.845 53.0169C164.078 53.4305 164.23 53.9031 164.302 54.4349ZM167.5 56.5666V60.7646H165.812V51.2117H167.463V54.8174H167.547C167.715 54.4131 167.975 54.0944 168.326 53.8612C168.68 53.6248 169.131 53.5067 169.679 53.5067C170.176 53.5067 170.61 53.6108 170.98 53.8192C171.35 54.0275 171.636 54.3323 171.838 54.7334C172.044 55.1346 172.146 55.6243 172.146 56.2027V60.7646H170.458V56.464C170.458 55.982 170.333 55.6072 170.084 55.3398C169.839 55.0693 169.494 54.934 169.049 54.934C168.75 54.934 168.483 54.9993 168.247 55.1299C168.013 55.2574 167.83 55.4424 167.696 55.685C167.566 55.9275 167.5 56.2214 167.5 56.5666ZM175.929 60.9092C175.475 60.9092 175.066 60.8284 174.702 60.6667C174.342 60.5019 174.056 60.2593 173.844 59.939C173.636 59.6187 173.532 59.2238 173.532 58.7542C173.532 58.35 173.606 58.0157 173.755 57.7514C173.905 57.487 174.108 57.2756 174.367 57.117C174.625 56.9584 174.915 56.8387 175.239 56.7578C175.565 56.6739 175.903 56.6132 176.251 56.5759C176.671 56.5324 177.011 56.4935 177.273 56.4593C177.534 56.422 177.723 56.366 177.842 56.2914C177.963 56.2136 178.023 56.0939 178.023 55.9322V55.9042C178.023 55.5528 177.919 55.2807 177.711 55.0879C177.503 54.8951 177.203 54.7987 176.811 54.7987C176.397 54.7987 176.069 54.8889 175.827 55.0693C175.587 55.2496 175.425 55.4626 175.341 55.7083L173.765 55.4844C173.889 55.0491 174.094 54.6852 174.381 54.3929C174.667 54.0975 175.016 53.8767 175.43 53.7305C175.844 53.5813 176.301 53.5067 176.801 53.5067C177.147 53.5067 177.49 53.5471 177.832 53.6279C178.174 53.7088 178.487 53.8425 178.77 54.0291C179.053 54.2125 179.28 54.4629 179.451 54.7801C179.625 55.0973 179.712 55.4937 179.712 55.9695V60.7646H178.089V59.7804H178.033C177.93 59.9795 177.786 60.166 177.599 60.3402C177.416 60.5112 177.184 60.6496 176.904 60.7553C176.627 60.8579 176.302 60.9092 175.929 60.9092ZM176.368 59.6685C176.707 59.6685 177 59.6016 177.249 59.4679C177.498 59.3311 177.689 59.1507 177.823 58.9268C177.96 58.7029 178.028 58.4588 178.028 58.1945V57.3502C177.975 57.3938 177.885 57.4342 177.758 57.4715C177.633 57.5088 177.493 57.5415 177.338 57.5695C177.182 57.5974 177.028 57.6223 176.876 57.6441C176.724 57.6659 176.591 57.6845 176.48 57.7001C176.228 57.7343 176.002 57.7902 175.803 57.868C175.604 57.9457 175.447 58.0546 175.332 58.1945C175.217 58.3313 175.159 58.5086 175.159 58.7263C175.159 59.0372 175.273 59.272 175.5 59.4306C175.727 59.5892 176.016 59.6685 176.368 59.6685ZM183.099 56.5666V60.7646H181.41V53.5999H183.024V54.8174H183.108C183.273 54.4162 183.535 54.0975 183.896 53.8612C184.26 53.6248 184.709 53.5067 185.244 53.5067C185.739 53.5067 186.169 53.6124 186.536 53.8238C186.906 54.0353 187.192 54.3416 187.395 54.7428C187.6 55.1439 187.701 55.6306 187.698 56.2027V60.7646H186.009V56.464C186.009 55.9851 185.885 55.6104 185.636 55.3398C185.39 55.0693 185.05 54.934 184.614 54.934C184.319 54.934 184.056 54.9993 183.826 55.1299C183.599 55.2574 183.42 55.4424 183.29 55.685C183.162 55.9275 183.099 56.2214 183.099 56.5666ZM192.53 63.6007C191.924 63.6007 191.403 63.5183 190.968 63.3535C190.532 63.1918 190.182 62.9741 189.918 62.7004C189.654 62.4268 189.47 62.1236 189.368 61.7908L190.888 61.4223C190.957 61.5623 191.056 61.7007 191.187 61.8375C191.317 61.9774 191.493 62.0925 191.714 62.1827C191.938 62.276 192.219 62.3226 192.558 62.3226C193.037 62.3226 193.434 62.206 193.748 61.9728C194.062 61.7426 194.219 61.3633 194.219 60.8346V59.4772H194.135C194.048 59.6514 193.92 59.8302 193.752 60.0137C193.587 60.1971 193.368 60.3511 193.095 60.4754C192.824 60.5998 192.484 60.662 192.073 60.662C191.523 60.662 191.024 60.533 190.576 60.2749C190.131 60.0137 189.777 59.625 189.512 59.1087C189.251 58.5894 189.12 57.9395 189.12 57.159C189.12 56.3722 189.251 55.7083 189.512 55.1672C189.777 54.623 190.133 54.211 190.58 53.9311C191.028 53.6481 191.527 53.5067 192.078 53.5067C192.498 53.5067 192.843 53.5782 193.113 53.7212C193.387 53.8612 193.605 54.0306 193.766 54.2297C193.928 54.4256 194.051 54.6106 194.135 54.7847H194.228V53.5999H195.893V60.8813C195.893 61.4939 195.747 62.0007 195.455 62.4019C195.163 62.803 194.763 63.1031 194.256 63.3021C193.749 63.5012 193.174 63.6007 192.53 63.6007ZM192.544 59.3373C192.902 59.3373 193.207 59.2502 193.458 59.0761C193.71 58.9019 193.902 58.6516 194.032 58.3251C194.163 57.9986 194.228 57.6068 194.228 57.1496C194.228 56.6987 194.163 56.3038 194.032 55.9649C193.905 55.6259 193.715 55.3631 193.463 55.1766C193.214 54.9869 192.908 54.892 192.544 54.892C192.168 54.892 191.854 54.99 191.602 55.1859C191.35 55.3818 191.16 55.6508 191.033 55.9928C190.905 56.3318 190.842 56.7174 190.842 57.1496C190.842 57.5881 190.905 57.9722 191.033 58.3018C191.163 58.6283 191.355 58.8833 191.607 59.0668C191.862 59.2471 192.174 59.3373 192.544 59.3373ZM200.796 60.9046C200.077 60.9046 199.457 60.7553 198.935 60.4568C198.415 60.1552 198.016 59.7291 197.736 59.1787C197.456 58.6252 197.316 57.9737 197.316 57.2243C197.316 56.4873 197.456 55.8405 197.736 55.2838C198.019 54.7241 198.414 54.2887 198.921 53.9778C199.427 53.6637 200.023 53.5067 200.707 53.5067C201.149 53.5067 201.565 53.5782 201.957 53.7212C202.352 53.8612 202.7 54.0788 203.002 54.3743C203.307 54.6697 203.546 55.0459 203.72 55.5031C203.894 55.9571 203.982 56.4982 203.982 57.1263V57.6441H198.109V56.5059H202.363C202.36 56.1825 202.29 55.8949 202.153 55.643C202.016 55.388 201.825 55.1874 201.579 55.0413C201.337 54.8951 201.054 54.822 200.73 54.822C200.385 54.822 200.082 54.906 199.821 55.0739C199.56 55.2387 199.356 55.4564 199.21 55.727C199.067 55.9944 198.994 56.2883 198.991 56.6086V57.6021C198.991 58.0188 199.067 58.3764 199.219 58.6749C199.371 58.9704 199.584 59.1974 199.858 59.356C200.132 59.5114 200.452 59.5892 200.819 59.5892C201.065 59.5892 201.287 59.555 201.486 59.4866C201.685 59.415 201.858 59.3109 202.004 59.174C202.15 59.0372 202.26 58.8677 202.335 58.6656L203.912 58.8429C203.812 59.2596 203.622 59.6234 203.343 59.9344C203.066 60.2422 202.711 60.4817 202.279 60.6527C201.847 60.8206 201.352 60.9046 200.796 60.9046Z" fill="white" fill-opacity="0.6"/>
<path d="M214.569 52.5764V60.7646H213.086V54.0197H213.038L211.122 55.2432V53.8838L213.158 52.5764H214.569ZM216.648 60.7646V59.6931L219.491 56.9064C219.762 56.6319 219.989 56.388 220.17 56.1748C220.352 55.9615 220.487 55.755 220.578 55.555C220.669 55.3551 220.714 55.1419 220.714 54.9153C220.714 54.6568 220.655 54.4356 220.538 54.2516C220.421 54.0651 220.26 53.9211 220.054 53.8198C219.849 53.7186 219.616 53.6679 219.355 53.6679C219.085 53.6679 218.85 53.7239 218.647 53.8358C218.444 53.9451 218.287 54.101 218.175 54.3036C218.066 54.5062 218.011 54.7474 218.011 55.0273H216.6C216.6 54.5075 216.719 54.0557 216.956 53.6719C217.193 53.2881 217.52 52.9909 217.935 52.7803C218.354 52.5697 218.834 52.4645 219.375 52.4645C219.924 52.4645 220.406 52.5671 220.822 52.7723C221.238 52.9776 221.56 53.2588 221.79 53.6159C222.021 53.9731 222.137 54.3809 222.137 54.8394C222.137 55.1459 222.079 55.4471 221.961 55.743C221.844 56.0388 221.638 56.3667 221.342 56.7265C221.049 57.0863 220.637 57.5221 220.106 58.0339L218.695 59.4692V59.5252H222.261V60.7646H216.648ZM228.019 59.2294V58.7976C228.019 58.4804 228.085 58.1885 228.219 57.922C228.355 57.6554 228.552 57.4408 228.81 57.2783C229.069 57.1157 229.382 57.0344 229.75 57.0344C230.128 57.0344 230.446 57.1157 230.701 57.2783C230.957 57.4382 231.151 57.6514 231.281 57.918C231.414 58.1845 231.481 58.4777 231.481 58.7976V59.2294C231.481 59.5465 231.414 59.8384 231.281 60.105C231.148 60.3715 230.952 60.5861 230.693 60.7487C230.438 60.9112 230.123 60.9925 229.75 60.9925C229.377 60.9925 229.061 60.9112 228.802 60.7487C228.544 60.5861 228.348 60.3715 228.215 60.105C228.084 59.8384 228.019 59.5465 228.019 59.2294ZM229.062 58.7976V59.2294C229.062 59.4399 229.113 59.6332 229.214 59.8091C229.315 59.985 229.494 60.073 229.75 60.073C230.008 60.073 230.186 59.9863 230.282 59.8131C230.38 59.6372 230.43 59.4426 230.43 59.2294V58.7976C230.43 58.5843 230.383 58.3897 230.29 58.2138C230.196 58.0352 230.016 57.9459 229.75 57.9459C229.499 57.9459 229.322 58.0352 229.218 58.2138C229.114 58.3897 229.062 58.5843 229.062 58.7976ZM223.857 54.5435V54.1117C223.857 53.7919 223.925 53.4987 224.061 53.2321C224.196 52.9656 224.394 52.7523 224.652 52.5924C224.911 52.4298 225.224 52.3485 225.592 52.3485C225.968 52.3485 226.283 52.4298 226.539 52.5924C226.798 52.7523 226.992 52.9656 227.123 53.2321C227.254 53.4987 227.319 53.7919 227.319 54.1117V54.5435C227.319 54.8634 227.252 55.1566 227.119 55.4231C226.988 55.687 226.794 55.8989 226.535 56.0588C226.277 56.2187 225.962 56.2987 225.592 56.2987C225.216 56.2987 224.899 56.2187 224.64 56.0588C224.384 55.8989 224.19 55.6857 224.057 55.4191C223.923 55.1526 223.857 54.8607 223.857 54.5435ZM224.908 54.1117V54.5435C224.908 54.7567 224.957 54.9513 225.056 55.1272C225.157 55.3005 225.336 55.3871 225.592 55.3871C225.848 55.3871 226.024 55.3005 226.12 55.1272C226.218 54.9513 226.267 54.7567 226.267 54.5435V54.1117C226.267 53.8985 226.221 53.7039 226.128 53.528C226.034 53.3494 225.856 53.2601 225.592 53.2601C225.339 53.2601 225.161 53.3494 225.06 53.528C224.959 53.7066 224.908 53.9011 224.908 54.1117ZM224.312 60.7646L229.942 52.5764H230.941L225.312 60.7646H224.312Z" fill="#00A587"/>
<path d="M234.586 58.7625L237.378 55.9478C237.532 55.8158 237.708 55.7279 237.906 55.7279C238.082 55.7279 238.258 55.8158 238.39 55.9478L241.183 58.7625C241.38 58.9604 241.446 59.2683 241.337 59.5321C241.227 59.796 240.985 59.9499 240.699 59.9499H235.091C234.806 59.9499 234.542 59.796 234.432 59.5321C234.322 59.2683 234.388 58.9604 234.586 58.7625Z" fill="#00A587"/>
<path d="M123.06 87.394H119.823V77.8411H123.126C124.074 77.8411 124.889 78.0323 125.57 78.4148C126.254 78.7942 126.779 79.34 127.146 80.0521C127.513 80.7642 127.697 81.6163 127.697 82.6082C127.697 83.6033 127.512 84.4585 127.142 85.1737C126.775 85.889 126.245 86.4378 125.551 86.8203C124.861 87.2028 124.03 87.394 123.06 87.394ZM121.554 85.8967H122.976C123.642 85.8967 124.197 85.7755 124.642 85.5329C125.086 85.2872 125.421 84.9218 125.644 84.4367C125.868 83.9485 125.98 83.339 125.98 82.6082C125.98 81.8775 125.868 81.2711 125.644 80.7891C125.421 80.304 125.089 79.9417 124.651 79.7022C124.216 79.4597 123.674 79.3384 123.028 79.3384H121.554V85.8967ZM132.392 87.534C131.692 87.534 131.086 87.38 130.572 87.0722C130.059 86.7643 129.661 86.3336 129.378 85.7801C129.098 85.2266 128.959 84.5798 128.959 83.8397C128.959 83.0996 129.098 82.4512 129.378 81.8946C129.661 81.3379 130.059 80.9057 130.572 80.5978C131.086 80.29 131.692 80.136 132.392 80.136C133.091 80.136 133.698 80.29 134.211 80.5978C134.724 80.9057 135.12 81.3379 135.4 81.8946C135.683 82.4512 135.825 83.0996 135.825 83.8397C135.825 84.5798 135.683 85.2266 135.4 85.7801C135.12 86.3336 134.724 86.7643 134.211 87.0722C133.698 87.38 133.091 87.534 132.392 87.534ZM132.401 86.1813C132.78 86.1813 133.098 86.0771 133.353 85.8687C133.608 85.6573 133.797 85.3743 133.922 85.0198C134.049 84.6653 134.113 84.2704 134.113 83.835C134.113 83.3965 134.049 83.0001 133.922 82.6456C133.797 82.2879 133.608 82.0034 133.353 81.792C133.098 81.5805 132.78 81.4748 132.401 81.4748C132.012 81.4748 131.689 81.5805 131.431 81.792C131.176 82.0034 130.985 82.2879 130.857 82.6456C130.733 83.0001 130.67 83.3965 130.67 83.835C130.67 84.2704 130.733 84.6653 130.857 85.0198C130.985 85.3743 131.176 85.6573 131.431 85.8687C131.689 86.0771 132.012 86.1813 132.401 86.1813ZM140.57 87.394H137.333V77.8411H140.635C141.583 77.8411 142.398 78.0323 143.079 78.4148C143.763 78.7942 144.289 79.34 144.656 80.0521C145.023 80.7642 145.206 81.6163 145.206 82.6082C145.206 83.6033 145.021 84.4585 144.651 85.1737C144.284 85.889 143.754 86.4378 143.061 86.8203C142.37 87.2028 141.54 87.394 140.57 87.394ZM139.063 85.8967H140.486C141.151 85.8967 141.706 85.7755 142.151 85.5329C142.596 85.2872 142.93 84.9218 143.154 84.4367C143.378 83.9485 143.49 83.339 143.49 82.6082C143.49 81.8775 143.378 81.2711 143.154 80.7891C142.93 80.304 142.599 79.9417 142.16 79.7022C141.725 79.4597 141.184 79.3384 140.537 79.3384H139.063V85.8967ZM158.286 81.0643H156.541C156.491 80.7782 156.4 80.5248 156.266 80.304C156.132 80.0801 155.966 79.8904 155.767 79.7349C155.568 79.5794 155.341 79.4628 155.086 79.3851C154.834 79.3042 154.562 79.2638 154.269 79.2638C153.75 79.2638 153.29 79.3944 152.889 79.6556C152.488 79.9137 152.173 80.2931 151.946 80.7937C151.719 81.2913 151.606 81.8992 151.606 82.6176C151.606 83.3483 151.719 83.9641 151.946 84.4647C152.177 84.9623 152.491 85.3385 152.889 85.5935C153.29 85.8454 153.749 85.9714 154.265 85.9714C154.551 85.9714 154.818 85.934 155.067 85.8594C155.319 85.7817 155.544 85.6682 155.743 85.5189C155.946 85.3696 156.115 85.1862 156.252 84.9685C156.392 84.7508 156.488 84.502 156.541 84.2222L158.286 84.2315C158.22 84.6855 158.079 85.1115 157.861 85.5096C157.647 85.9076 157.365 86.259 157.017 86.5638C156.669 86.8654 156.261 87.1017 155.795 87.2728C155.328 87.4407 154.811 87.5246 154.241 87.5246C153.402 87.5246 152.652 87.3303 151.993 86.9416C151.334 86.5529 150.815 85.9916 150.435 85.2577C150.056 84.5238 149.866 83.6438 149.866 82.6176C149.866 81.5883 150.057 80.7082 150.44 79.9775C150.822 79.2436 151.343 78.6823 152.002 78.2936C152.662 77.9048 153.408 77.7105 154.241 77.7105C154.773 77.7105 155.268 77.7851 155.725 77.9344C156.182 78.0837 156.589 78.3029 156.947 78.5921C157.304 78.8782 157.598 79.2296 157.828 79.6463C158.062 80.0599 158.214 80.5325 158.286 81.0643ZM161.484 83.196V87.394H159.796V77.8411H161.447V81.4468H161.531C161.699 81.0425 161.958 80.7238 162.31 80.4906C162.664 80.2542 163.115 80.136 163.663 80.136C164.16 80.136 164.594 80.2402 164.964 80.4486C165.334 80.6569 165.62 80.9617 165.822 81.3628C166.028 81.764 166.13 82.2537 166.13 82.8321V87.394H164.442V83.0934C164.442 82.6114 164.317 82.2366 164.068 81.9692C163.823 81.6987 163.478 81.5634 163.033 81.5634C162.734 81.5634 162.467 81.6287 162.231 81.7593C161.997 81.8868 161.814 82.0718 161.68 82.3144C161.55 82.5569 161.484 82.8508 161.484 83.196ZM169.913 87.5386C169.459 87.5386 169.05 87.4578 168.686 87.2961C168.326 87.1313 168.039 86.8887 167.828 86.5684C167.62 86.2481 167.515 85.8532 167.515 85.3836C167.515 84.9794 167.59 84.6451 167.739 84.3808C167.889 84.1164 168.092 83.905 168.35 83.7464C168.609 83.5878 168.899 83.4681 169.223 83.3872C169.549 83.3033 169.887 83.2426 170.235 83.2053C170.655 83.1618 170.995 83.1229 171.256 83.0887C171.518 83.0514 171.707 82.9954 171.826 82.9208C171.947 82.843 172.007 82.7233 172.007 82.5616V82.5336C172.007 82.1822 171.903 81.9101 171.695 81.7173C171.487 81.5245 171.186 81.4281 170.795 81.4281C170.381 81.4281 170.053 81.5183 169.81 81.6987C169.571 81.879 169.409 82.092 169.325 82.3377L167.749 82.1138C167.873 81.6784 168.078 81.3146 168.364 81.0223C168.651 80.7269 169 80.5061 169.414 80.3599C169.828 80.2107 170.285 80.136 170.785 80.136C171.131 80.136 171.474 80.1765 171.816 80.2573C172.158 80.3382 172.471 80.4719 172.754 80.6585C173.037 80.8419 173.264 81.0923 173.435 81.4095C173.609 81.7266 173.696 82.1231 173.696 82.5989V87.394H172.073V86.4098H172.017C171.914 86.6088 171.77 86.7954 171.583 86.9696C171.399 87.1406 171.168 87.279 170.888 87.3847C170.611 87.4873 170.286 87.5386 169.913 87.5386ZM170.352 86.2979C170.69 86.2979 170.984 86.231 171.233 86.0973C171.482 85.9605 171.673 85.7801 171.807 85.5562C171.944 85.3323 172.012 85.0882 172.012 84.8239V83.9796C171.959 84.0231 171.869 84.0636 171.742 84.1009C171.617 84.1382 171.477 84.1709 171.322 84.1988C171.166 84.2268 171.012 84.2517 170.86 84.2735C170.708 84.2952 170.575 84.3139 170.463 84.3295C170.212 84.3637 169.986 84.4196 169.787 84.4974C169.588 84.5751 169.431 84.684 169.316 84.8239C169.201 84.9607 169.143 85.138 169.143 85.3556C169.143 85.6666 169.257 85.9014 169.484 86.06C169.711 86.2186 170 86.2979 170.352 86.2979ZM177.082 83.196V87.394H175.394V80.2293H177.008V81.4468H177.092C177.257 81.0456 177.519 80.7269 177.88 80.4906C178.244 80.2542 178.693 80.136 179.228 80.136C179.723 80.136 180.153 80.2418 180.52 80.4532C180.89 80.6647 181.176 80.971 181.378 81.3721C181.584 81.7733 181.685 82.26 181.682 82.8321V87.394H179.993V83.0934C179.993 82.6145 179.869 82.2397 179.62 81.9692C179.374 81.6987 179.034 81.5634 178.598 81.5634C178.303 81.5634 178.04 81.6287 177.81 81.7593C177.583 81.8868 177.404 82.0718 177.274 82.3144C177.146 82.5569 177.082 82.8508 177.082 83.196ZM186.514 90.2301C185.908 90.2301 185.387 90.1477 184.951 89.9829C184.516 89.8211 184.166 89.6035 183.902 89.3298C183.638 89.0562 183.454 88.753 183.352 88.4202L184.872 88.0517C184.941 88.1917 185.04 88.3301 185.171 88.4669C185.301 88.6068 185.477 88.7219 185.698 88.8121C185.922 88.9053 186.203 88.952 186.542 88.952C187.021 88.952 187.417 88.8354 187.732 88.6022C188.046 88.372 188.203 87.9927 188.203 87.464V86.1066H188.119C188.032 86.2808 187.904 86.4596 187.736 86.6431C187.571 86.8265 187.352 86.9805 187.079 87.1048C186.808 87.2292 186.467 87.2914 186.057 87.2914C185.507 87.2914 185.007 87.1624 184.56 86.9043C184.115 86.6431 183.76 86.2543 183.496 85.7381C183.235 85.2188 183.104 84.5689 183.104 83.7884C183.104 83.0016 183.235 82.3377 183.496 81.7966C183.76 81.2524 184.117 80.8404 184.564 80.5605C185.012 80.2775 185.511 80.136 186.062 80.136C186.481 80.136 186.827 80.2076 187.097 80.3506C187.371 80.4906 187.588 80.66 187.75 80.859C187.912 81.055 188.035 81.24 188.119 81.4141H188.212V80.2293H189.877V87.5107C189.877 88.1233 189.731 88.6301 189.439 89.0313C189.146 89.4324 188.747 89.7325 188.24 89.9315C187.733 90.1306 187.158 90.2301 186.514 90.2301ZM186.528 85.9667C186.886 85.9667 187.19 85.8796 187.442 85.7055C187.694 85.5313 187.885 85.281 188.016 84.9545C188.147 84.628 188.212 84.2362 188.212 83.779C188.212 83.3281 188.147 82.9332 188.016 82.5942C187.889 82.2553 187.699 81.9925 187.447 81.8059C187.198 81.6163 186.892 81.5214 186.528 81.5214C186.152 81.5214 185.838 81.6194 185.586 81.8153C185.334 82.0112 185.144 82.2802 185.017 82.6222C184.889 82.9612 184.826 83.3468 184.826 83.779C184.826 84.2175 184.889 84.6015 185.017 84.9312C185.147 85.2577 185.339 85.5127 185.591 85.6962C185.846 85.8765 186.158 85.9667 186.528 85.9667ZM194.78 87.534C194.061 87.534 193.441 87.3847 192.918 87.0862C192.399 86.7845 192 86.3585 191.72 85.8081C191.44 85.2546 191.3 84.6031 191.3 83.8537C191.3 83.1167 191.44 82.4699 191.72 81.9132C192.003 81.3535 192.398 80.9181 192.904 80.6072C193.411 80.2931 194.007 80.136 194.691 80.136C195.133 80.136 195.549 80.2076 195.941 80.3506C196.336 80.4906 196.684 80.7082 196.986 81.0036C197.291 81.2991 197.53 81.6753 197.704 82.1325C197.878 82.5865 197.965 83.1276 197.965 83.7557V84.2735H192.093V83.1353H196.347C196.344 82.8119 196.274 82.5243 196.137 82.2724C196 82.0174 195.809 81.8168 195.563 81.6707C195.321 81.5245 195.038 81.4514 194.714 81.4514C194.369 81.4514 194.066 81.5354 193.805 81.7033C193.544 81.8681 193.34 82.0858 193.194 82.3564C193.051 82.6238 192.978 82.9177 192.974 83.238V84.2315C192.974 84.6482 193.051 85.0058 193.203 85.3043C193.355 85.5998 193.568 85.8268 193.842 85.9854C194.116 86.1408 194.436 86.2186 194.803 86.2186C195.049 86.2186 195.271 86.1844 195.47 86.116C195.669 86.0444 195.842 85.9403 195.988 85.8034C196.134 85.6666 196.244 85.4971 196.319 85.295L197.896 85.4723C197.796 85.889 197.606 86.2528 197.326 86.5638C197.05 86.8716 196.695 87.1111 196.263 87.2821C195.831 87.45 195.336 87.534 194.78 87.534Z" fill="white" fill-opacity="0.6"/>
<path d="M208.569 79.2058V87.394H207.086V80.6491H207.038L205.122 81.8726V80.5132L207.158 79.2058H208.569ZM213.978 79.2058V87.394H212.495V80.6491H212.447L210.532 81.8726V80.5132L212.567 79.2058H213.978ZM220.435 85.8587V85.4269C220.435 85.1098 220.502 84.8179 220.635 84.5513C220.771 84.2848 220.969 84.0702 221.227 83.9076C221.486 83.7451 221.799 83.6638 222.167 83.6638C222.545 83.6638 222.862 83.7451 223.118 83.9076C223.374 84.0676 223.567 84.2808 223.698 84.5474C223.831 84.8139 223.898 85.1071 223.898 85.4269V85.8587C223.898 86.1759 223.831 86.4678 223.698 86.7343C223.565 87.0009 223.369 87.2155 223.11 87.3781C222.854 87.5406 222.54 87.6219 222.167 87.6219C221.793 87.6219 221.478 87.5406 221.219 87.3781C220.961 87.2155 220.765 87.0009 220.631 86.7343C220.501 86.4678 220.435 86.1759 220.435 85.8587ZM221.479 85.4269V85.8587C221.479 86.0693 221.53 86.2626 221.631 86.4385C221.732 86.6144 221.911 86.7024 222.167 86.7024C222.425 86.7024 222.602 86.6157 222.698 86.4425C222.797 86.2666 222.846 86.072 222.846 85.8587V85.4269C222.846 85.2137 222.8 85.0191 222.706 84.8432C222.613 84.6646 222.433 84.5753 222.167 84.5753C221.916 84.5753 221.739 84.6646 221.635 84.8432C221.531 85.0191 221.479 85.2137 221.479 85.4269ZM216.273 81.1729V80.7411C216.273 80.4212 216.341 80.1281 216.477 79.8615C216.613 79.595 216.81 79.3817 217.069 79.2218C217.328 79.0592 217.641 78.9779 218.009 78.9779C218.384 78.9779 218.7 79.0592 218.956 79.2218C219.215 79.3817 219.409 79.595 219.54 79.8615C219.67 80.1281 219.736 80.4212 219.736 80.7411V81.1729C219.736 81.4928 219.669 81.786 219.536 82.0525C219.405 82.3164 219.211 82.5283 218.952 82.6882C218.694 82.8481 218.379 82.9281 218.009 82.9281C217.633 82.9281 217.316 82.8481 217.057 82.6882C216.801 82.5283 216.607 82.315 216.473 82.0485C216.34 81.782 216.273 81.4901 216.273 81.1729ZM217.325 80.7411V81.1729C217.325 81.3861 217.374 81.5807 217.473 81.7566C217.574 81.9299 217.753 82.0165 218.009 82.0165C218.264 82.0165 218.44 81.9299 218.536 81.7566C218.635 81.5807 218.684 81.3861 218.684 81.1729V80.7411C218.684 80.5279 218.638 80.3333 218.544 80.1574C218.451 79.9788 218.272 79.8895 218.009 79.8895C217.755 79.8895 217.578 79.9788 217.477 80.1574C217.375 80.336 217.325 80.5305 217.325 80.7411ZM216.729 87.394L222.359 79.2058H223.358L217.729 87.394H216.729Z" fill="#F64F59"/>
<path d="M234.205 84.9741L231.412 87.7888C231.258 87.9207 231.082 87.9867 230.906 87.9867C230.708 87.9867 230.532 87.9207 230.4 87.7888L227.608 84.9741C227.388 84.7762 227.322 84.4683 227.432 84.2044C227.542 83.9406 227.806 83.7646 228.091 83.7646H233.699C233.985 83.7646 234.227 83.9406 234.337 84.2044C234.446 84.4683 234.402 84.7762 234.205 84.9741Z" fill="#F64F59"/>
<path d="M324.354 144.724C320.711 144.724 317.786 147.675 317.786 151.292C317.786 154.935 320.711 157.86 324.354 157.86C327.971 157.86 330.921 154.935 330.921 151.292C330.921 147.675 327.971 144.724 324.354 144.724ZM324.354 148.008C324.79 148.008 325.175 148.393 325.175 148.829C325.175 149.291 324.79 149.65 324.354 149.65C323.892 149.65 323.533 149.291 323.533 148.829C323.533 148.393 323.892 148.008 324.354 148.008ZM325.38 154.576H323.328C322.968 154.576 322.712 154.319 322.712 153.96C322.712 153.627 322.968 153.344 323.328 153.344H323.738V151.702H323.533C323.174 151.702 322.917 151.446 322.917 151.087C322.917 150.753 323.174 150.471 323.533 150.471H324.354C324.687 150.471 324.969 150.753 324.969 151.087V153.344H325.38C325.713 153.344 325.996 153.627 325.996 153.96C325.996 154.319 325.713 154.576 325.38 154.576Z" fill="white" fill-opacity="0.6"/>
</g>
</g>
<defs>
<filter id="filter0_d_351_23129" x="0.663971" y="0.729412" width="379.047" height="303.05" filterUnits="userSpaceOnUse" color-interpolation-filters="sRGB">
<feFlood flood-opacity="0" result="BackgroundImageFix"/>
<feColorMatrix in="SourceAlpha" type="matrix" values="0 0 0 0 0 0 0 0 0 0 0 0 0 0 0 0 0 0 127 0" result="hardAlpha"/>
<feOffset dy="3.75294"/>
<feGaussianBlur stdDeviation="15.0118"/>
<feComposite in2="hardAlpha" operator="out"/>
<feColorMatrix type="matrix" values="0 0 0 0 0.121569 0 0 0 0 0.121569 0 0 0 0 0.156863 0 0 0 0.07 0"/>
<feBlend mode="normal" in2="BackgroundImageFix" result="effect1_dropShadow_351_23129"/>
<feBlend mode="normal" in="SourceGraphic" in2="effect1_dropShadow_351_23129" result="shape"/>
</filter>
<filter id="filter1_d_351_23129" x="6.6875" y="99.8853" width="297.57" height="198.118" filterUnits="userSpaceOnUse" color-interpolation-filters="sRGB">
<feFlood flood-opacity="0" result="BackgroundImageFix"/>
<feColorMatrix in="SourceAlpha" type="matrix" values="0 0 0 0 0 0 0 0 0 0 0 0 0 0 0 0 0 0 127 0" result="hardAlpha"/>
<feOffset dy="4"/>
<feGaussianBlur stdDeviation="12"/>
<feColorMatrix type="matrix" values="0 0 0 0 0.0235294 0 0 0 0 0.0941176 0 0 0 0 0.172549 0 0 0 0.4 0"/>
<feBlend mode="normal" in2="BackgroundImageFix" result="effect1_dropShadow_351_23129"/>
<feBlend mode="normal" in="SourceGraphic" in2="effect1_dropShadow_351_23129" result="shape"/>
</filter>
<filter id="filter2_d_351_23129" x="76.1162" y="7" width="297.57" height="198.118" filterUnits="userSpaceOnUse" color-interpolation-filters="sRGB">
<feFlood flood-opacity="0" result="BackgroundImageFix"/>
<feColorMatrix in="SourceAlpha" type="matrix" values="0 0 0 0 0 0 0 0 0 0 0 0 0 0 0 0 0 0 127 0" result="hardAlpha"/>
<feOffset dy="4"/>
<feGaussianBlur stdDeviation="12"/>
<feColorMatrix type="matrix" values="0 0 0 0 0.0235294 0 0 0 0 0.0941176 0 0 0 0 0.172549 0 0 0 0.4 0"/>
<feBlend mode="normal" in2="BackgroundImageFix" result="effect1_dropShadow_351_23129"/>
<feBlend mode="normal" in="SourceGraphic" in2="effect1_dropShadow_351_23129" result="shape"/>
</filter>
</defs>
</svg>
