<svg width="534" height="464" viewBox="0 0 534 464" fill="none" xmlns="http://www.w3.org/2000/svg">
<g filter="url(#filter0_d_351_23103)">
<g filter="url(#filter1_d_351_23103)">
<rect x="32" y="28" width="470" height="400" rx="20" fill="#09243F"/>
</g>
<g filter="url(#filter2_d_351_23103)">
<rect x="124" y="133.202" width="287.185" height="239.196" rx="14.3518" fill="#0D2F4F"/>
<path d="M247.917 174.074V162.941H249.934V172.383H254.837V174.074H247.917ZM260.143 174.237C259.327 174.237 258.621 174.058 258.023 173.699C257.425 173.34 256.961 172.838 256.631 172.193C256.305 171.548 256.142 170.794 256.142 169.932C256.142 169.069 256.305 168.313 256.631 167.665C256.961 167.016 257.425 166.512 258.023 166.153C258.621 165.795 259.327 165.615 260.143 165.615C260.958 165.615 261.665 165.795 262.263 166.153C262.861 166.512 263.323 167.016 263.649 167.665C263.979 168.313 264.144 169.069 264.144 169.932C264.144 170.794 263.979 171.548 263.649 172.193C263.323 172.838 262.861 173.34 262.263 173.699C261.665 174.058 260.958 174.237 260.143 174.237ZM260.154 172.661C260.596 172.661 260.966 172.539 261.263 172.296C261.56 172.05 261.781 171.72 261.926 171.307C262.075 170.894 262.149 170.434 262.149 169.926C262.149 169.415 262.075 168.953 261.926 168.54C261.781 168.123 261.56 167.792 261.263 167.545C260.966 167.299 260.596 167.175 260.154 167.175C259.701 167.175 259.324 167.299 259.023 167.545C258.726 167.792 258.503 168.123 258.354 168.54C258.209 168.953 258.137 169.415 258.137 169.926C258.137 170.434 258.209 170.894 258.354 171.307C258.503 171.72 258.726 172.05 259.023 172.296C259.324 172.539 259.701 172.661 260.154 172.661ZM269.446 177.379C268.739 177.379 268.132 177.283 267.625 177.091C267.117 176.903 266.709 176.649 266.401 176.33C266.093 176.011 265.88 175.658 265.76 175.27L267.532 174.841C267.612 175.004 267.728 175.165 267.88 175.324C268.032 175.488 268.237 175.622 268.494 175.727C268.755 175.835 269.083 175.89 269.478 175.89C270.036 175.89 270.499 175.754 270.865 175.482C271.231 175.214 271.414 174.772 271.414 174.156V172.574H271.316C271.214 172.777 271.066 172.985 270.87 173.199C270.678 173.413 270.422 173.592 270.103 173.737C269.788 173.882 269.391 173.954 268.913 173.954C268.271 173.954 267.69 173.804 267.168 173.503C266.65 173.199 266.236 172.746 265.928 172.144C265.624 171.539 265.472 170.782 265.472 169.872C265.472 168.955 265.624 168.181 265.928 167.551C266.236 166.916 266.651 166.436 267.173 166.11C267.695 165.78 268.277 165.615 268.918 165.615C269.408 165.615 269.81 165.699 270.125 165.865C270.444 166.028 270.698 166.226 270.886 166.458C271.075 166.686 271.218 166.902 271.316 167.105H271.425V165.724H273.365V174.21C273.365 174.924 273.195 175.515 272.854 175.982C272.514 176.45 272.048 176.799 271.457 177.031C270.866 177.263 270.196 177.379 269.446 177.379ZM269.462 172.411C269.879 172.411 270.234 172.309 270.528 172.106C270.821 171.903 271.044 171.611 271.196 171.231C271.348 170.85 271.425 170.394 271.425 169.861C271.425 169.335 271.348 168.875 271.196 168.48C271.048 168.085 270.827 167.779 270.533 167.561C270.243 167.34 269.886 167.23 269.462 167.23C269.023 167.23 268.657 167.344 268.364 167.572C268.07 167.801 267.849 168.114 267.701 168.513C267.552 168.908 267.478 169.357 267.478 169.861C267.478 170.372 267.552 170.82 267.701 171.204C267.853 171.584 268.076 171.881 268.369 172.095C268.667 172.305 269.031 172.411 269.462 172.411ZM275.382 174.074V165.724H277.35V174.074H275.382ZM276.372 164.539C276.06 164.539 275.792 164.436 275.567 164.229C275.342 164.019 275.23 163.767 275.23 163.473C275.23 163.176 275.342 162.924 275.567 162.718C275.792 162.507 276.06 162.402 276.372 162.402C276.687 162.402 276.955 162.507 277.176 162.718C277.401 162.924 277.513 163.176 277.513 163.473C277.513 163.767 277.401 164.019 277.176 164.229C276.955 164.436 276.687 164.539 276.372 164.539ZM281.342 169.181V174.074H279.374V165.724H281.255V167.143H281.353C281.545 166.675 281.851 166.304 282.271 166.028C282.695 165.753 283.219 165.615 283.842 165.615C284.419 165.615 284.921 165.738 285.348 165.985C285.779 166.231 286.113 166.588 286.348 167.056C286.588 167.523 286.705 168.091 286.702 168.757V174.074H284.734V169.062C284.734 168.504 284.589 168.067 284.299 167.752C284.013 167.436 283.616 167.279 283.108 167.279C282.764 167.279 282.458 167.355 282.19 167.507C281.925 167.656 281.717 167.871 281.565 168.154C281.416 168.437 281.342 168.779 281.342 169.181Z" fill="white"/>
<path d="M229.861 190.239H228.336C228.292 189.989 228.212 189.767 228.095 189.574C227.978 189.379 227.833 189.213 227.659 189.077C227.485 188.941 227.287 188.839 227.064 188.771C226.844 188.7 226.606 188.665 226.35 188.665C225.896 188.665 225.494 188.779 225.143 189.008C224.793 189.233 224.518 189.565 224.32 190.002C224.121 190.437 224.022 190.969 224.022 191.597C224.022 192.235 224.121 192.773 224.32 193.211C224.521 193.646 224.795 193.975 225.143 194.198C225.494 194.418 225.895 194.528 226.346 194.528C226.596 194.528 226.83 194.495 227.047 194.43C227.268 194.362 227.465 194.263 227.639 194.133C227.815 194.002 227.963 193.842 228.083 193.651C228.205 193.461 228.29 193.244 228.336 192.999L229.861 193.007C229.804 193.404 229.68 193.776 229.49 194.124C229.302 194.472 229.056 194.779 228.752 195.046C228.447 195.31 228.091 195.516 227.684 195.666C227.276 195.812 226.823 195.886 226.326 195.886C225.592 195.886 224.937 195.716 224.361 195.376C223.784 195.036 223.33 194.546 222.999 193.904C222.667 193.263 222.501 192.494 222.501 191.597C222.501 190.697 222.669 189.928 223.003 189.289C223.337 188.647 223.792 188.157 224.369 187.817C224.945 187.477 225.597 187.307 226.326 187.307C226.791 187.307 227.223 187.373 227.622 187.503C228.022 187.633 228.378 187.825 228.691 188.078C229.003 188.328 229.26 188.635 229.461 188.999C229.665 189.361 229.798 189.774 229.861 190.239ZM235.172 193.138V189.509H236.648V195.772H235.217V194.659H235.152C235.011 195.009 234.778 195.296 234.455 195.519C234.134 195.742 233.739 195.853 233.268 195.853C232.858 195.853 232.495 195.762 232.18 195.58C231.867 195.395 231.622 195.127 231.446 194.777C231.269 194.423 231.181 193.997 231.181 193.497V189.509H232.657V193.268C232.657 193.665 232.765 193.98 232.983 194.214C233.2 194.448 233.486 194.565 233.839 194.565C234.057 194.565 234.267 194.512 234.471 194.406C234.675 194.3 234.842 194.142 234.973 193.933C235.106 193.721 235.172 193.456 235.172 193.138ZM243.116 191.164L241.77 191.311C241.732 191.175 241.666 191.047 241.57 190.928C241.478 190.808 241.353 190.712 241.195 190.638C241.038 190.565 240.845 190.528 240.616 190.528C240.309 190.528 240.051 190.595 239.842 190.728C239.635 190.861 239.533 191.034 239.536 191.246C239.533 191.428 239.6 191.576 239.736 191.69C239.874 191.804 240.103 191.898 240.421 191.972L241.489 192.2C242.081 192.328 242.522 192.53 242.81 192.807C243.101 193.085 243.248 193.448 243.25 193.896C243.248 194.29 243.132 194.638 242.904 194.94C242.678 195.239 242.364 195.473 241.962 195.641C241.56 195.81 241.098 195.894 240.576 195.894C239.809 195.894 239.192 195.734 238.725 195.413C238.257 195.089 237.978 194.64 237.889 194.063L239.328 193.925C239.393 194.207 239.532 194.421 239.744 194.565C239.956 194.709 240.232 194.781 240.572 194.781C240.922 194.781 241.204 194.709 241.416 194.565C241.63 194.421 241.738 194.243 241.738 194.031C241.738 193.851 241.668 193.703 241.53 193.586C241.394 193.469 241.182 193.38 240.894 193.317L239.825 193.093C239.225 192.968 238.78 192.757 238.492 192.461C238.204 192.162 238.061 191.784 238.064 191.327C238.061 190.941 238.166 190.607 238.378 190.324C238.593 190.039 238.89 189.819 239.271 189.664C239.654 189.506 240.096 189.427 240.596 189.427C241.33 189.427 241.908 189.584 242.329 189.896C242.753 190.209 243.015 190.632 243.116 191.164ZM247.595 189.509V190.651H243.994V189.509H247.595ZM244.883 188.009H246.359V193.888C246.359 194.086 246.389 194.239 246.449 194.345C246.511 194.448 246.593 194.519 246.694 194.557C246.794 194.595 246.906 194.614 247.028 194.614C247.12 194.614 247.205 194.607 247.281 194.593C247.359 194.58 247.419 194.567 247.46 194.557L247.709 195.71C247.63 195.738 247.517 195.768 247.37 195.8C247.226 195.833 247.05 195.852 246.84 195.857C246.471 195.868 246.138 195.812 245.841 195.69C245.545 195.565 245.31 195.372 245.136 195.111C244.965 194.85 244.881 194.524 244.883 194.133V188.009ZM251.493 195.894C250.882 195.894 250.352 195.759 249.903 195.49C249.455 195.221 249.107 194.845 248.86 194.361C248.615 193.877 248.493 193.312 248.493 192.665C248.493 192.018 248.615 191.451 248.86 190.965C249.107 190.478 249.455 190.1 249.903 189.831C250.352 189.562 250.882 189.427 251.493 189.427C252.105 189.427 252.635 189.562 253.084 189.831C253.532 190.1 253.879 190.478 254.123 190.965C254.371 191.451 254.494 192.018 254.494 192.665C254.494 193.312 254.371 193.877 254.123 194.361C253.879 194.845 253.532 195.221 253.084 195.49C252.635 195.759 252.105 195.894 251.493 195.894ZM251.502 194.712C251.833 194.712 252.11 194.62 252.333 194.438C252.556 194.254 252.722 194.006 252.831 193.696C252.942 193.386 252.998 193.041 252.998 192.661C252.998 192.277 252.942 191.931 252.831 191.621C252.722 191.308 252.556 191.06 252.333 190.875C252.11 190.69 251.833 190.598 251.502 190.598C251.162 190.598 250.879 190.69 250.653 190.875C250.431 191.06 250.263 191.308 250.152 191.621C250.043 191.931 249.989 192.277 249.989 192.661C249.989 193.041 250.043 193.386 250.152 193.696C250.263 194.006 250.431 194.254 250.653 194.438C250.879 194.62 251.162 194.712 251.502 194.712ZM255.747 195.772V189.509H257.158V190.573H257.231C257.362 190.214 257.578 189.934 257.879 189.733C258.181 189.529 258.541 189.427 258.96 189.427C259.384 189.427 259.741 189.531 260.032 189.737C260.326 189.941 260.532 190.22 260.652 190.573H260.717C260.856 190.225 261.089 189.948 261.418 189.741C261.75 189.532 262.143 189.427 262.597 189.427C263.173 189.427 263.643 189.61 264.007 189.974C264.372 190.338 264.554 190.869 264.554 191.568V195.772H263.074V191.796C263.074 191.408 262.97 191.124 262.764 190.944C262.557 190.762 262.304 190.671 262.005 190.671C261.649 190.671 261.371 190.782 261.17 191.005C260.971 191.226 260.872 191.512 260.872 191.866V195.772H259.425V191.735C259.425 191.412 259.327 191.153 259.131 190.96C258.938 190.768 258.685 190.671 258.373 190.671C258.161 190.671 257.968 190.725 257.794 190.834C257.62 190.94 257.481 191.091 257.378 191.287C257.275 191.48 257.223 191.705 257.223 191.963V195.772H255.747ZM268.824 195.894C268.196 195.894 267.653 195.763 267.197 195.503C266.743 195.239 266.394 194.866 266.149 194.385C265.904 193.902 265.782 193.332 265.782 192.677C265.782 192.033 265.904 191.467 266.149 190.981C266.396 190.492 266.741 190.111 267.185 189.839C267.628 189.565 268.148 189.427 268.746 189.427C269.132 189.427 269.496 189.49 269.839 189.615C270.184 189.737 270.488 189.928 270.752 190.186C271.018 190.444 271.228 190.773 271.38 191.173C271.532 191.569 271.608 192.042 271.608 192.591V193.044H266.475V192.049H270.194C270.191 191.766 270.13 191.515 270.01 191.295C269.89 191.072 269.723 190.897 269.509 190.769C269.297 190.641 269.049 190.577 268.767 190.577C268.465 190.577 268.2 190.651 267.971 190.797C267.743 190.941 267.565 191.132 267.437 191.368C267.312 191.602 267.248 191.859 267.246 192.139V193.007C267.246 193.371 267.312 193.684 267.445 193.945C267.579 194.203 267.765 194.402 268.004 194.54C268.243 194.676 268.523 194.744 268.844 194.744C269.059 194.744 269.253 194.714 269.427 194.654C269.601 194.592 269.752 194.501 269.88 194.381C270.007 194.262 270.104 194.114 270.169 193.937L271.547 194.092C271.46 194.456 271.294 194.774 271.05 195.046C270.808 195.315 270.498 195.524 270.12 195.674C269.742 195.821 269.31 195.894 268.824 195.894ZM272.857 195.772V189.509H274.288V190.553H274.353C274.467 190.191 274.663 189.913 274.94 189.717C275.22 189.519 275.54 189.419 275.899 189.419C275.98 189.419 276.071 189.423 276.172 189.432C276.275 189.437 276.361 189.446 276.429 189.46V190.818C276.366 190.796 276.267 190.777 276.131 190.761C275.998 190.742 275.869 190.732 275.744 190.732C275.475 190.732 275.233 190.791 275.018 190.907C274.806 191.022 274.639 191.181 274.516 191.385C274.394 191.588 274.333 191.824 274.333 192.09V195.772H272.857ZM280.322 195.772V187.421H283.454C284.095 187.421 284.633 187.541 285.068 187.78C285.506 188.019 285.836 188.348 286.059 188.767C286.285 189.183 286.397 189.656 286.397 190.186C286.397 190.721 286.285 191.197 286.059 191.613C285.833 192.029 285.5 192.356 285.06 192.595C284.62 192.832 284.077 192.95 283.433 192.95H281.358V191.707H283.229C283.605 191.707 283.912 191.641 284.151 191.511C284.39 191.38 284.567 191.201 284.681 190.973C284.798 190.744 284.856 190.482 284.856 190.186C284.856 189.89 284.798 189.629 284.681 189.403C284.567 189.177 284.389 189.002 284.147 188.877C283.908 188.749 283.599 188.685 283.221 188.685H281.835V195.772H280.322ZM290.288 195.894C289.676 195.894 289.146 195.759 288.698 195.49C288.249 195.221 287.902 194.845 287.654 194.361C287.41 193.877 287.287 193.312 287.287 192.665C287.287 192.018 287.41 191.451 287.654 190.965C287.902 190.478 288.249 190.1 288.698 189.831C289.146 189.562 289.676 189.427 290.288 189.427C290.9 189.427 291.43 189.562 291.878 189.831C292.327 190.1 292.673 190.478 292.918 190.965C293.165 191.451 293.289 192.018 293.289 192.665C293.289 193.312 293.165 193.877 292.918 194.361C292.673 194.845 292.327 195.221 291.878 195.49C291.43 195.759 290.9 195.894 290.288 195.894ZM290.296 194.712C290.628 194.712 290.905 194.62 291.128 194.438C291.351 194.254 291.517 194.006 291.625 193.696C291.737 193.386 291.793 193.041 291.793 192.661C291.793 192.277 291.737 191.931 291.625 191.621C291.517 191.308 291.351 191.06 291.128 190.875C290.905 190.69 290.628 190.598 290.296 190.598C289.956 190.598 289.674 190.69 289.448 190.875C289.225 191.06 289.058 191.308 288.947 191.621C288.838 191.931 288.784 192.277 288.784 192.661C288.784 193.041 288.838 193.386 288.947 193.696C289.058 194.006 289.225 194.254 289.448 194.438C289.674 194.62 289.956 194.712 290.296 194.712ZM294.542 195.772V189.509H295.973V190.553H296.038C296.152 190.191 296.348 189.913 296.625 189.717C296.905 189.519 297.224 189.419 297.583 189.419C297.665 189.419 297.756 189.423 297.856 189.432C297.96 189.437 298.045 189.446 298.113 189.46V190.818C298.051 190.796 297.952 190.777 297.816 190.761C297.682 190.742 297.553 190.732 297.428 190.732C297.159 190.732 296.917 190.791 296.703 190.907C296.491 191.022 296.323 191.181 296.201 191.385C296.079 191.588 296.018 191.824 296.018 192.09V195.772H294.542ZM302.557 189.509V190.651H298.957V189.509H302.557ZM299.846 188.009H301.322V193.888C301.322 194.086 301.352 194.239 301.412 194.345C301.474 194.448 301.556 194.519 301.656 194.557C301.757 194.595 301.868 194.614 301.991 194.614C302.083 194.614 302.167 194.607 302.243 194.593C302.322 194.58 302.382 194.567 302.423 194.557L302.672 195.71C302.593 195.738 302.48 195.768 302.333 195.8C302.189 195.833 302.012 195.852 301.803 195.857C301.433 195.868 301.1 195.812 300.804 195.69C300.508 195.565 300.273 195.372 300.099 195.111C299.928 194.85 299.843 194.524 299.846 194.133V188.009ZM305.594 195.898C305.197 195.898 304.84 195.827 304.522 195.686C304.206 195.542 303.956 195.33 303.771 195.05C303.589 194.77 303.498 194.425 303.498 194.014C303.498 193.661 303.563 193.369 303.694 193.138C303.824 192.907 304.002 192.722 304.228 192.583C304.454 192.445 304.708 192.34 304.99 192.269C305.276 192.196 305.571 192.143 305.875 192.11C306.242 192.072 306.54 192.038 306.768 192.008C306.996 191.976 307.162 191.927 307.266 191.862C307.372 191.794 307.425 191.689 307.425 191.548V191.523C307.425 191.216 307.334 190.978 307.151 190.81C306.969 190.641 306.707 190.557 306.365 190.557C306.003 190.557 305.716 190.636 305.504 190.793C305.295 190.951 305.154 191.137 305.08 191.352L303.702 191.156C303.811 190.776 303.99 190.458 304.24 190.202C304.49 189.944 304.796 189.751 305.158 189.623C305.519 189.493 305.919 189.427 306.356 189.427C306.658 189.427 306.958 189.463 307.257 189.533C307.556 189.604 307.83 189.721 308.077 189.884C308.324 190.044 308.523 190.263 308.672 190.541C308.824 190.818 308.901 191.164 308.901 191.58V195.772H307.482V194.911H307.433C307.343 195.085 307.217 195.248 307.054 195.401C306.893 195.55 306.691 195.671 306.446 195.763C306.204 195.853 305.92 195.898 305.594 195.898ZM305.977 194.813C306.273 194.813 306.53 194.755 306.748 194.638C306.965 194.519 307.132 194.361 307.249 194.165C307.369 193.969 307.429 193.756 307.429 193.525V192.787C307.382 192.825 307.304 192.86 307.192 192.893C307.083 192.926 306.961 192.954 306.825 192.979C306.689 193.003 306.555 193.025 306.422 193.044C306.288 193.063 306.173 193.079 306.075 193.093C305.855 193.123 305.658 193.172 305.484 193.24C305.31 193.308 305.173 193.403 305.072 193.525C304.971 193.645 304.921 193.8 304.921 193.99C304.921 194.262 305.02 194.467 305.219 194.606C305.417 194.744 305.67 194.813 305.977 194.813ZM311.861 187.421V195.772H310.385V187.421H311.861Z" fill="white"/>
<g filter="url(#filter3_d_351_23103)">
<rect x="146.608" y="225.092" width="241.557" height="33.4814" rx="5.74071" fill="#06182C" shape-rendering="crispEdges"/>
<path d="M166.522 241.386C167.96 241.386 169.153 240.215 169.153 238.755C169.153 237.316 167.96 236.124 166.522 236.124C165.062 236.124 163.89 237.316 163.89 238.755C163.89 240.215 165.062 241.386 166.522 241.386ZM167.549 242.373H165.473C163.5 242.373 161.917 243.976 161.917 245.95C161.917 246.34 162.225 246.649 162.616 246.649H170.407C170.797 246.649 171.126 246.34 171.126 245.95C171.126 243.976 169.523 242.373 167.549 242.373Z" fill="#00D4FF"/>
<path d="M186.633 232.266H187.475V235.928C187.475 236.317 187.384 236.662 187.201 236.963C187.018 237.262 186.761 237.498 186.429 237.67C186.097 237.84 185.709 237.925 185.263 237.925C184.819 237.925 184.431 237.84 184.099 237.67C183.768 237.498 183.511 237.262 183.328 236.963C183.144 236.662 183.053 236.317 183.053 235.928V232.266H183.893V235.86C183.893 236.112 183.948 236.335 184.059 236.531C184.171 236.727 184.33 236.881 184.534 236.993C184.739 237.104 184.982 237.159 185.263 237.159C185.546 237.159 185.789 237.104 185.994 236.993C186.201 236.881 186.358 236.727 186.467 236.531C186.578 236.335 186.633 236.112 186.633 235.86V232.266ZM191.76 234.677L191.023 234.808C190.992 234.713 190.944 234.624 190.876 234.539C190.811 234.453 190.722 234.384 190.61 234.329C190.498 234.275 190.357 234.248 190.189 234.248C189.959 234.248 189.767 234.299 189.613 234.403C189.459 234.504 189.381 234.636 189.381 234.797C189.381 234.936 189.433 235.049 189.536 235.134C189.64 235.219 189.806 235.289 190.037 235.343L190.7 235.495C191.084 235.584 191.37 235.721 191.559 235.906C191.747 236.091 191.841 236.331 191.841 236.626C191.841 236.876 191.769 237.099 191.624 237.295C191.481 237.489 191.281 237.641 191.023 237.751C190.768 237.862 190.471 237.917 190.134 237.917C189.667 237.917 189.285 237.818 188.99 237.618C188.695 237.417 188.514 237.132 188.446 236.762L189.232 236.642C189.281 236.847 189.382 237.002 189.534 237.107C189.686 237.211 189.884 237.262 190.129 237.262C190.395 237.262 190.608 237.207 190.768 237.096C190.927 236.984 191.007 236.847 191.007 236.686C191.007 236.555 190.958 236.446 190.86 236.357C190.764 236.268 190.616 236.201 190.417 236.156L189.71 236.001C189.321 235.912 189.033 235.771 188.846 235.577C188.661 235.383 188.569 235.138 188.569 234.84C188.569 234.594 188.638 234.378 188.775 234.193C188.913 234.009 189.103 233.865 189.346 233.761C189.589 233.656 189.867 233.604 190.181 233.604C190.632 233.604 190.987 233.701 191.246 233.897C191.505 234.091 191.677 234.351 191.76 234.677ZM194.534 237.917C194.123 237.917 193.769 237.829 193.472 237.654C193.176 237.476 192.948 237.227 192.787 236.906C192.627 236.584 192.547 236.206 192.547 235.773C192.547 235.345 192.627 234.968 192.787 234.642C192.948 234.316 193.173 234.061 193.461 233.878C193.751 233.695 194.09 233.604 194.477 233.604C194.713 233.604 194.941 233.643 195.162 233.72C195.383 233.798 195.582 233.921 195.758 234.087C195.933 234.254 196.072 234.471 196.173 234.737C196.275 235.002 196.326 235.323 196.326 235.702V235.99H193.007V235.381H195.529C195.529 235.167 195.486 234.978 195.399 234.813C195.312 234.646 195.189 234.515 195.032 234.419C194.876 234.323 194.693 234.275 194.483 234.275C194.254 234.275 194.055 234.331 193.885 234.443C193.716 234.554 193.586 234.699 193.493 234.878C193.403 235.056 193.357 235.249 193.357 235.457V235.933C193.357 236.212 193.406 236.449 193.504 236.645C193.604 236.841 193.743 236.99 193.92 237.094C194.098 237.195 194.305 237.246 194.543 237.246C194.697 237.246 194.837 237.224 194.964 237.181C195.091 237.135 195.2 237.068 195.293 236.98C195.385 236.891 195.456 236.781 195.505 236.651L196.274 236.789C196.212 237.016 196.102 237.214 195.942 237.385C195.785 237.553 195.586 237.684 195.347 237.779C195.11 237.871 194.839 237.917 194.534 237.917ZM197.227 237.833V233.658H198.013V234.321H198.056C198.133 234.096 198.267 233.92 198.459 233.791C198.653 233.661 198.872 233.595 199.117 233.595C199.167 233.595 199.227 233.597 199.296 233.601C199.367 233.604 199.422 233.609 199.462 233.614V234.392C199.429 234.383 199.371 234.373 199.288 234.362C199.204 234.349 199.121 234.343 199.038 234.343C198.846 234.343 198.674 234.384 198.524 234.465C198.375 234.545 198.258 234.656 198.171 234.8C198.084 234.941 198.04 235.102 198.04 235.283V237.833H197.227ZM200.978 235.354V237.833H200.165V233.658H200.945V234.337H200.997C201.093 234.116 201.243 233.939 201.448 233.805C201.655 233.671 201.915 233.604 202.228 233.604C202.513 233.604 202.762 233.663 202.976 233.783C203.189 233.901 203.355 234.077 203.473 234.31C203.591 234.544 203.65 234.833 203.65 235.177V237.833H202.837V235.275C202.837 234.973 202.758 234.736 202.6 234.566C202.443 234.394 202.226 234.308 201.951 234.308C201.762 234.308 201.595 234.348 201.448 234.43C201.303 234.511 201.188 234.631 201.103 234.789C201.019 234.945 200.978 235.133 200.978 235.354ZM205.955 237.925C205.69 237.925 205.451 237.876 205.237 237.779C205.023 237.679 204.854 237.535 204.729 237.346C204.606 237.158 204.544 236.927 204.544 236.653C204.544 236.418 204.589 236.224 204.68 236.072C204.77 235.919 204.893 235.799 205.047 235.71C205.201 235.621 205.373 235.554 205.563 235.509C205.754 235.464 205.947 235.429 206.145 235.406C206.395 235.377 206.598 235.353 206.754 235.335C206.91 235.315 207.023 235.283 207.094 235.24C207.164 235.196 207.2 235.126 207.2 235.028V235.009C207.2 234.771 207.133 234.588 206.998 234.457C206.866 234.327 206.669 234.261 206.406 234.261C206.132 234.261 205.917 234.322 205.759 234.443C205.603 234.563 205.495 234.696 205.436 234.843L204.672 234.669C204.762 234.415 204.895 234.211 205.069 234.055C205.244 233.897 205.446 233.783 205.675 233.712C205.903 233.64 206.143 233.604 206.395 233.604C206.562 233.604 206.738 233.624 206.925 233.663C207.114 233.701 207.289 233.772 207.452 233.875C207.617 233.979 207.752 234.126 207.857 234.318C207.962 234.509 208.015 234.756 208.015 235.061V237.833H207.221V237.262H207.189C207.136 237.367 207.057 237.471 206.952 237.572C206.847 237.674 206.712 237.758 206.547 237.825C206.382 237.892 206.185 237.925 205.955 237.925ZM206.131 237.273C206.356 237.273 206.548 237.229 206.708 237.14C206.869 237.051 206.991 236.935 207.075 236.792C207.16 236.647 207.202 236.492 207.202 236.327V235.789C207.173 235.818 207.117 235.845 207.034 235.871C206.952 235.894 206.859 235.915 206.754 235.933C206.649 235.949 206.546 235.965 206.447 235.979C206.347 235.992 206.264 236.003 206.197 236.012C206.039 236.032 205.895 236.065 205.764 236.112C205.636 236.16 205.532 236.227 205.455 236.316C205.378 236.403 205.34 236.519 205.34 236.664C205.34 236.865 205.415 237.018 205.563 237.121C205.712 237.222 205.901 237.273 206.131 237.273ZM209.098 237.833V233.658H209.878V234.337H209.929C210.016 234.107 210.159 233.928 210.356 233.799C210.554 233.669 210.79 233.604 211.065 233.604C211.345 233.604 211.578 233.669 211.767 233.799C211.957 233.93 212.097 234.109 212.188 234.337H212.232C212.331 234.115 212.49 233.937 212.707 233.805C212.925 233.671 213.184 233.604 213.485 233.604C213.863 233.604 214.172 233.722 214.412 233.96C214.653 234.197 214.773 234.555 214.773 235.033V237.833H213.96V235.109C213.96 234.827 213.883 234.622 213.729 234.495C213.575 234.368 213.391 234.305 213.177 234.305C212.913 234.305 212.707 234.386 212.56 234.549C212.414 234.711 212.34 234.918 212.34 235.172V237.833H211.53V235.058C211.53 234.831 211.46 234.649 211.318 234.511C211.177 234.374 210.993 234.305 210.766 234.305C210.612 234.305 210.47 234.346 210.34 234.427C210.211 234.507 210.107 234.618 210.027 234.762C209.949 234.905 209.91 235.07 209.91 235.259V237.833H209.098ZM217.662 237.917C217.25 237.917 216.896 237.829 216.599 237.654C216.304 237.476 216.075 237.227 215.914 236.906C215.754 236.584 215.675 236.206 215.675 235.773C215.675 235.345 215.754 234.968 215.914 234.642C216.075 234.316 216.3 234.061 216.588 233.878C216.878 233.695 217.217 233.604 217.605 233.604C217.84 233.604 218.069 233.643 218.29 233.72C218.511 233.798 218.709 233.921 218.885 234.087C219.061 234.254 219.199 234.471 219.301 234.737C219.402 235.002 219.453 235.323 219.453 235.702V235.99H216.134V235.381H218.657C218.657 235.167 218.613 234.978 218.526 234.813C218.439 234.646 218.317 234.515 218.159 234.419C218.003 234.323 217.82 234.275 217.61 234.275C217.382 234.275 217.182 234.331 217.012 234.443C216.844 234.554 216.713 234.699 216.621 234.878C216.53 235.056 216.485 235.249 216.485 235.457V235.933C216.485 236.212 216.534 236.449 216.632 236.645C216.731 236.841 216.87 236.99 217.047 237.094C217.225 237.195 217.432 237.246 217.67 237.246C217.824 237.246 217.964 237.224 218.091 237.181C218.218 237.135 218.328 237.068 218.42 236.98C218.512 236.891 218.583 236.781 218.632 236.651L219.401 236.789C219.34 237.016 219.229 237.214 219.07 237.385C218.912 237.553 218.714 237.684 218.474 237.779C218.237 237.871 217.966 237.917 217.662 237.917Z" fill="#00D4FF"/>
<path d="M186.257 242.179H187.408V247.605C187.408 248.096 187.311 248.516 187.117 248.865C186.925 249.214 186.655 249.48 186.306 249.665C185.957 249.847 185.548 249.938 185.08 249.938C184.649 249.938 184.262 249.859 183.918 249.702C183.576 249.545 183.306 249.317 183.107 249.018C182.91 248.717 182.811 248.35 182.811 247.919H183.959C183.959 248.131 184.007 248.314 184.105 248.469C184.204 248.623 184.34 248.744 184.512 248.831C184.686 248.916 184.886 248.958 185.11 248.958C185.354 248.958 185.561 248.907 185.73 248.805C185.902 248.701 186.033 248.547 186.123 248.346C186.212 248.144 186.257 247.897 186.257 247.605V242.179ZM191.418 249.949C190.88 249.949 190.41 249.826 190.009 249.579C189.608 249.332 189.296 248.987 189.074 248.544C188.853 248.1 188.742 247.582 188.742 246.989C188.742 246.393 188.853 245.873 189.074 245.427C189.296 244.981 189.608 244.634 190.009 244.388C190.41 244.141 190.88 244.018 191.418 244.018C191.956 244.018 192.426 244.141 192.827 244.388C193.228 244.634 193.539 244.981 193.761 245.427C193.983 245.873 194.094 246.393 194.094 246.989C194.094 247.582 193.983 248.1 193.761 248.544C193.539 248.987 193.228 249.332 192.827 249.579C192.426 249.826 191.956 249.949 191.418 249.949ZM191.422 249.011C191.77 249.011 192.059 248.919 192.289 248.734C192.518 248.55 192.687 248.304 192.797 247.998C192.909 247.691 192.965 247.354 192.965 246.985C192.965 246.619 192.909 246.282 192.797 245.976C192.687 245.667 192.518 245.419 192.289 245.232C192.059 245.045 191.77 244.952 191.422 244.952C191.07 244.952 190.779 245.045 190.547 245.232C190.318 245.419 190.147 245.667 190.035 245.976C189.925 246.282 189.871 246.619 189.871 246.985C189.871 247.354 189.925 247.691 190.035 247.998C190.147 248.304 190.318 248.55 190.547 248.734C190.779 248.919 191.07 249.011 191.422 249.011ZM196.459 246.424V249.833H195.341V242.179H196.444V245.027H196.515C196.649 244.718 196.855 244.472 197.131 244.29C197.408 244.108 197.769 244.018 198.215 244.018C198.609 244.018 198.953 244.099 199.247 244.26C199.543 244.422 199.773 244.664 199.935 244.986C200.099 245.304 200.181 245.703 200.181 246.182V249.833H199.064V246.316C199.064 245.895 198.955 245.569 198.739 245.337C198.522 245.103 198.22 244.986 197.834 244.986C197.57 244.986 197.333 245.042 197.124 245.154C196.917 245.266 196.754 245.43 196.634 245.647C196.517 245.861 196.459 246.12 196.459 246.424ZM202.79 246.424V249.833H201.672V244.092H202.745V245.027H202.816C202.948 244.723 203.155 244.478 203.436 244.294C203.721 244.11 204.078 244.018 204.509 244.018C204.9 244.018 205.243 244.1 205.537 244.264C205.831 244.426 206.059 244.668 206.221 244.989C206.383 245.311 206.464 245.708 206.464 246.182V249.833H205.346V246.316C205.346 245.9 205.238 245.575 205.021 245.341C204.804 245.104 204.507 244.986 204.128 244.986C203.869 244.986 203.638 245.042 203.436 245.154C203.237 245.266 203.079 245.43 202.962 245.647C202.847 245.861 202.79 246.12 202.79 246.424ZM213.315 249.833H210.838V242.179H213.394C214.144 242.179 214.788 242.332 215.326 242.638C215.864 242.942 216.277 243.38 216.563 243.95C216.852 244.518 216.997 245.2 216.997 245.995C216.997 246.792 216.851 247.477 216.56 248.05C216.271 248.623 215.852 249.064 215.304 249.373C214.756 249.68 214.093 249.833 213.315 249.833ZM211.992 248.824H213.252C213.835 248.824 214.32 248.714 214.706 248.495C215.092 248.273 215.381 247.953 215.573 247.534C215.765 247.113 215.861 246.6 215.861 245.995C215.861 245.394 215.765 244.885 215.573 244.466C215.384 244.047 215.101 243.73 214.725 243.513C214.348 243.296 213.881 243.188 213.323 243.188H211.992V248.824ZM220.761 249.949C220.223 249.949 219.754 249.826 219.352 249.579C218.951 249.332 218.64 248.987 218.418 248.544C218.196 248.1 218.085 247.582 218.085 246.989C218.085 246.393 218.196 245.873 218.418 245.427C218.64 244.981 218.951 244.634 219.352 244.388C219.754 244.141 220.223 244.018 220.761 244.018C221.3 244.018 221.769 244.141 222.17 244.388C222.572 244.634 222.883 244.981 223.105 245.427C223.327 245.873 223.437 246.393 223.437 246.989C223.437 247.582 223.327 248.1 223.105 248.544C222.883 248.987 222.572 249.332 222.17 249.579C221.769 249.826 221.3 249.949 220.761 249.949ZM220.765 249.011C221.114 249.011 221.403 248.919 221.632 248.734C221.861 248.55 222.031 248.304 222.141 247.998C222.253 247.691 222.309 247.354 222.309 246.985C222.309 246.619 222.253 246.282 222.141 245.976C222.031 245.667 221.861 245.419 221.632 245.232C221.403 245.045 221.114 244.952 220.765 244.952C220.414 244.952 220.122 245.045 219.891 245.232C219.661 245.419 219.491 245.667 219.379 245.976C219.269 246.282 219.214 246.619 219.214 246.985C219.214 247.354 219.269 247.691 219.379 247.998C219.491 248.304 219.661 248.55 219.891 248.734C220.122 248.919 220.414 249.011 220.765 249.011ZM227.159 249.949C226.593 249.949 226.106 249.828 225.698 249.586C225.292 249.342 224.978 249 224.756 248.559C224.537 248.115 224.427 247.596 224.427 247C224.427 246.412 224.537 245.894 224.756 245.445C224.978 244.997 225.287 244.647 225.683 244.395C226.081 244.143 226.547 244.018 227.081 244.018C227.404 244.018 227.718 244.071 228.022 244.178C228.326 244.285 228.599 244.454 228.841 244.683C229.083 244.912 229.273 245.21 229.413 245.576C229.552 245.94 229.622 246.382 229.622 246.903V247.299H225.059V246.462H228.527C228.527 246.168 228.467 245.907 228.348 245.681C228.228 245.451 228.06 245.271 227.843 245.139C227.629 245.007 227.377 244.941 227.088 244.941C226.774 244.941 226.5 245.018 226.266 245.172C226.034 245.324 225.855 245.524 225.728 245.77C225.603 246.015 225.541 246.28 225.541 246.566V247.221C225.541 247.604 225.608 247.931 225.743 248.2C225.88 248.469 226.07 248.674 226.314 248.816C226.559 248.956 226.844 249.026 227.17 249.026C227.382 249.026 227.575 248.996 227.75 248.936C227.924 248.874 228.075 248.782 228.202 248.659C228.329 248.537 228.426 248.387 228.493 248.207L229.551 248.398C229.466 248.709 229.314 248.982 229.095 249.216C228.878 249.448 228.605 249.629 228.276 249.758C227.95 249.885 227.578 249.949 227.159 249.949Z" fill="white"/>
<rect x="147.108" y="225.592" width="240.557" height="32.4814" rx="5.24071" stroke="#00D4FF" shape-rendering="crispEdges"/>
</g>
<rect x="146.608" y="271.969" width="241.557" height="32.1357" rx="5.08541" fill="#06182C"/>
<path d="M163.561 286.274V285.288C163.561 283.664 164.877 282.328 166.522 282.328C168.145 282.328 169.482 283.664 169.482 285.288V286.274H169.81C170.53 286.274 171.126 286.871 171.126 287.59V291.537C171.126 292.277 170.53 292.852 169.81 292.852H163.233C162.493 292.852 161.917 292.277 161.917 291.537V287.59C161.917 286.871 162.493 286.274 163.233 286.274H163.561ZM164.877 286.274H168.166V285.288C168.166 284.383 167.426 283.643 166.522 283.643C165.597 283.643 164.877 284.383 164.877 285.288V286.274Z" fill="white"/>
<path d="M183.282 291.537V283.882H186.011C186.606 283.882 187.1 283.991 187.491 284.208C187.882 284.424 188.175 284.721 188.369 285.097C188.563 285.471 188.661 285.892 188.661 286.36C188.661 286.831 188.562 287.255 188.365 287.631C188.171 288.005 187.877 288.301 187.483 288.521C187.092 288.737 186.6 288.846 186.007 288.846H184.131V287.867H185.902C186.279 287.867 186.584 287.802 186.818 287.672C187.052 287.54 187.224 287.361 187.334 287.134C187.443 286.907 187.498 286.649 187.498 286.36C187.498 286.071 187.443 285.815 187.334 285.59C187.224 285.366 187.051 285.191 186.814 285.063C186.58 284.936 186.271 284.873 185.887 284.873H184.437V291.537H183.282ZM191.544 291.664C191.18 291.664 190.851 291.597 190.557 291.462C190.263 291.325 190.03 291.127 189.858 290.868C189.689 290.609 189.604 290.291 189.604 289.915C189.604 289.591 189.667 289.324 189.791 289.115C189.916 288.906 190.084 288.74 190.296 288.618C190.507 288.496 190.744 288.404 191.006 288.341C191.267 288.279 191.534 288.232 191.806 288.199C192.149 288.159 192.428 288.127 192.643 288.102C192.857 288.075 193.013 288.031 193.11 287.971C193.207 287.911 193.256 287.814 193.256 287.68V287.654C193.256 287.327 193.164 287.074 192.979 286.895C192.797 286.715 192.526 286.626 192.164 286.626C191.788 286.626 191.492 286.709 191.275 286.876C191.061 287.041 190.912 287.224 190.83 287.426L189.78 287.186C189.904 286.838 190.086 286.556 190.326 286.342C190.567 286.125 190.845 285.968 191.159 285.871C191.473 285.771 191.803 285.721 192.149 285.721C192.379 285.721 192.622 285.749 192.878 285.804C193.137 285.856 193.379 285.953 193.603 286.095C193.83 286.237 194.016 286.44 194.16 286.704C194.305 286.966 194.377 287.306 194.377 287.725V291.537H193.286V290.752H193.241C193.168 290.896 193.06 291.038 192.916 291.178C192.771 291.317 192.585 291.433 192.359 291.526C192.132 291.618 191.86 291.664 191.544 291.664ZM191.787 290.767C192.096 290.767 192.36 290.706 192.579 290.584C192.801 290.462 192.969 290.302 193.084 290.105C193.201 289.906 193.259 289.693 193.259 289.466V288.726C193.22 288.766 193.142 288.803 193.028 288.838C192.916 288.871 192.787 288.899 192.643 288.924C192.498 288.947 192.357 288.968 192.22 288.988C192.083 289.005 191.969 289.02 191.877 289.033C191.66 289.06 191.462 289.106 191.282 289.171C191.105 289.236 190.963 289.329 190.856 289.451C190.752 289.571 190.699 289.73 190.699 289.93C190.699 290.206 190.801 290.416 191.006 290.558C191.21 290.697 191.47 290.767 191.787 290.767ZM200.167 287.198L199.154 287.377C199.112 287.247 199.045 287.124 198.953 287.007C198.863 286.89 198.741 286.794 198.586 286.719C198.432 286.644 198.239 286.607 198.007 286.607C197.69 286.607 197.426 286.678 197.215 286.82C197.003 286.96 196.897 287.14 196.897 287.362C196.897 287.554 196.968 287.708 197.11 287.825C197.252 287.943 197.481 288.038 197.798 288.113L198.71 288.323C199.238 288.445 199.631 288.633 199.891 288.887C200.15 289.141 200.279 289.471 200.279 289.877C200.279 290.221 200.18 290.528 199.98 290.797C199.783 291.063 199.508 291.273 199.154 291.425C198.803 291.577 198.396 291.653 197.932 291.653C197.289 291.653 196.765 291.516 196.359 291.241C195.953 290.965 195.703 290.572 195.611 290.064L196.691 289.9C196.759 290.181 196.897 290.394 197.106 290.539C197.316 290.681 197.588 290.752 197.925 290.752C198.291 290.752 198.584 290.676 198.803 290.524C199.022 290.369 199.132 290.181 199.132 289.96C199.132 289.78 199.065 289.629 198.93 289.507C198.798 289.385 198.595 289.293 198.321 289.231L197.349 289.018C196.813 288.896 196.417 288.701 196.161 288.435C195.906 288.168 195.779 287.83 195.779 287.422C195.779 287.083 195.874 286.786 196.063 286.532C196.253 286.278 196.514 286.08 196.848 285.938C197.182 285.794 197.565 285.721 197.996 285.721C198.616 285.721 199.104 285.856 199.461 286.125C199.817 286.392 200.053 286.749 200.167 287.198ZM205.81 287.198L204.797 287.377C204.755 287.247 204.687 287.124 204.595 287.007C204.505 286.89 204.383 286.794 204.229 286.719C204.074 286.644 203.881 286.607 203.65 286.607C203.333 286.607 203.069 286.678 202.857 286.82C202.645 286.96 202.54 287.14 202.54 287.362C202.54 287.554 202.611 287.708 202.753 287.825C202.895 287.943 203.124 288.038 203.44 288.113L204.352 288.323C204.88 288.445 205.274 288.633 205.533 288.887C205.792 289.141 205.922 289.471 205.922 289.877C205.922 290.221 205.822 290.528 205.623 290.797C205.426 291.063 205.151 291.273 204.797 291.425C204.446 291.577 204.038 291.653 203.575 291.653C202.932 291.653 202.407 291.516 202.001 291.241C201.595 290.965 201.346 290.572 201.254 290.064L202.334 289.9C202.401 290.181 202.54 290.394 202.749 290.539C202.958 290.681 203.231 290.752 203.567 290.752C203.934 290.752 204.226 290.676 204.446 290.524C204.665 290.369 204.775 290.181 204.775 289.96C204.775 289.78 204.707 289.629 204.573 289.507C204.441 289.385 204.238 289.293 203.963 289.231L202.992 289.018C202.456 288.896 202.06 288.701 201.803 288.435C201.549 288.168 201.422 287.83 201.422 287.422C201.422 287.083 201.517 286.786 201.706 286.532C201.895 286.278 202.157 286.08 202.491 285.938C202.825 285.794 203.207 285.721 203.638 285.721C204.259 285.721 204.747 285.856 205.103 286.125C205.46 286.392 205.695 286.749 205.81 287.198ZM208.395 291.537L206.706 285.796H207.861L208.986 290.012H209.042L210.17 285.796H211.325L212.447 289.993H212.503L213.62 285.796H214.775L213.089 291.537H211.949L210.783 287.392H210.697L209.531 291.537H208.395ZM218.079 291.653C217.541 291.653 217.071 291.529 216.67 291.283C216.269 291.036 215.957 290.691 215.735 290.247C215.514 289.804 215.403 289.286 215.403 288.693C215.403 288.097 215.514 287.576 215.735 287.13C215.957 286.684 216.269 286.338 216.67 286.091C217.071 285.845 217.541 285.721 218.079 285.721C218.617 285.721 219.087 285.845 219.488 286.091C219.889 286.338 220.2 286.684 220.422 287.13C220.644 287.576 220.755 288.097 220.755 288.693C220.755 289.286 220.644 289.804 220.422 290.247C220.2 290.691 219.889 291.036 219.488 291.283C219.087 291.529 218.617 291.653 218.079 291.653ZM218.083 290.715C218.431 290.715 218.72 290.622 218.95 290.438C219.179 290.254 219.348 290.008 219.458 289.702C219.57 289.395 219.626 289.058 219.626 288.689C219.626 288.323 219.57 287.986 219.458 287.68C219.348 287.371 219.179 287.123 218.95 286.936C218.72 286.749 218.431 286.656 218.083 286.656C217.731 286.656 217.44 286.749 217.208 286.936C216.979 287.123 216.808 287.371 216.696 287.68C216.586 287.986 216.532 288.323 216.532 288.689C216.532 289.058 216.586 289.395 216.696 289.702C216.808 290.008 216.979 290.254 217.208 290.438C217.44 290.622 217.731 290.715 218.083 290.715ZM222.002 291.537V285.796H223.082V286.708H223.142C223.247 286.399 223.431 286.156 223.695 285.979C223.962 285.8 224.263 285.71 224.6 285.71C224.67 285.71 224.752 285.713 224.846 285.718C224.944 285.723 225.02 285.729 225.074 285.736V286.805C225.03 286.793 224.95 286.779 224.835 286.764C224.721 286.747 224.606 286.738 224.491 286.738C224.227 286.738 223.992 286.794 223.785 286.906C223.581 287.016 223.419 287.169 223.299 287.366C223.18 287.56 223.12 287.782 223.12 288.031V291.537H222.002ZM227.985 291.649C227.522 291.649 227.108 291.531 226.744 291.294C226.383 291.055 226.099 290.715 225.892 290.273C225.688 289.83 225.586 289.298 225.586 288.678C225.586 288.057 225.689 287.526 225.896 287.085C226.105 286.644 226.392 286.307 226.755 286.073C227.119 285.838 227.531 285.721 227.992 285.721C228.349 285.721 228.635 285.781 228.852 285.901C229.071 286.018 229.241 286.155 229.36 286.312C229.482 286.469 229.577 286.607 229.644 286.727H229.712V283.882H230.829V291.537H229.738V290.643H229.644C229.577 290.766 229.48 290.905 229.353 291.062C229.228 291.219 229.056 291.356 228.837 291.473C228.618 291.59 228.334 291.649 227.985 291.649ZM228.232 290.696C228.553 290.696 228.825 290.611 229.046 290.442C229.271 290.27 229.44 290.032 229.555 289.728C229.672 289.424 229.73 289.07 229.73 288.666C229.73 288.268 229.673 287.919 229.558 287.62C229.444 287.321 229.276 287.088 229.054 286.921C228.832 286.754 228.558 286.671 228.232 286.671C227.895 286.671 227.615 286.758 227.391 286.932C227.166 287.107 226.997 287.345 226.882 287.646C226.77 287.948 226.714 288.288 226.714 288.666C226.714 289.05 226.772 289.395 226.886 289.702C227.001 290.008 227.17 290.251 227.394 290.43C227.621 290.607 227.9 290.696 228.232 290.696Z" fill="white"/>
<rect x="146.608" y="317.5" width="241.557" height="33.3416" rx="5.08541" fill="#00D4FF"/>
<path d="M243.127 332.49C243.075 332.308 243.002 332.148 242.907 332.008C242.812 331.866 242.696 331.746 242.559 331.649C242.425 331.55 242.27 331.474 242.096 331.421C241.924 331.369 241.733 331.343 241.524 331.343C241.133 331.343 240.789 331.44 240.493 331.634C240.199 331.829 239.969 332.111 239.805 332.483C239.64 332.851 239.558 333.302 239.558 333.836C239.558 334.369 239.639 334.822 239.801 335.196C239.963 335.57 240.192 335.855 240.489 336.052C240.785 336.246 241.135 336.343 241.539 336.343C241.905 336.343 242.218 336.279 242.477 336.149C242.739 336.017 242.938 335.831 243.075 335.592C243.215 335.353 243.284 335.07 243.284 334.744L243.613 334.792H241.64V333.574H244.843V334.538C244.843 335.211 244.701 335.789 244.417 336.272C244.133 336.753 243.742 337.125 243.243 337.386C242.745 337.645 242.174 337.775 241.532 337.775C240.814 337.775 240.184 337.617 239.64 337.3C239.097 336.981 238.674 336.529 238.37 335.944C238.068 335.356 237.917 334.658 237.917 333.851C237.917 333.23 238.007 332.677 238.187 332.191C238.368 331.703 238.623 331.289 238.949 330.95C239.275 330.612 239.655 330.354 240.089 330.177C240.522 330 240.992 329.911 241.498 329.911C241.931 329.911 242.335 329.975 242.709 330.102C243.083 330.227 243.414 330.403 243.703 330.633C243.995 330.862 244.232 331.135 244.417 331.451C244.601 331.765 244.72 332.111 244.772 332.49H243.127ZM248.645 337.782C248.054 337.782 247.546 337.663 247.12 337.424C246.696 337.182 246.37 336.841 246.141 336.4C245.912 335.956 245.797 335.432 245.797 334.826C245.797 334.236 245.912 333.717 246.141 333.271C246.37 332.825 246.693 332.478 247.109 332.229C247.527 331.979 248.018 331.855 248.581 331.855C248.96 331.855 249.313 331.916 249.639 332.038C249.968 332.158 250.254 332.338 250.499 332.58C250.745 332.822 250.937 333.126 251.074 333.492C251.211 333.856 251.28 334.282 251.28 334.77V335.207H246.432V334.221H249.781C249.781 333.991 249.731 333.788 249.632 333.611C249.532 333.435 249.394 333.296 249.217 333.197C249.042 333.094 248.839 333.043 248.607 333.043C248.366 333.043 248.151 333.099 247.965 333.212C247.78 333.321 247.636 333.469 247.531 333.656C247.426 333.841 247.373 334.046 247.37 334.273V335.211C247.37 335.495 247.423 335.741 247.527 335.947C247.634 336.154 247.785 336.314 247.98 336.426C248.174 336.538 248.404 336.594 248.671 336.594C248.848 336.594 249.01 336.569 249.157 336.519C249.304 336.469 249.43 336.395 249.534 336.295C249.639 336.195 249.719 336.073 249.774 335.929L251.246 336.026C251.171 336.38 251.018 336.689 250.786 336.953C250.557 337.214 250.261 337.419 249.897 337.566C249.536 337.71 249.118 337.782 248.645 337.782ZM255.372 331.93V333.126H251.915V331.93H255.372ZM252.7 330.554H254.292V335.906C254.292 336.053 254.315 336.168 254.359 336.25C254.404 336.33 254.467 336.386 254.546 336.418C254.628 336.451 254.723 336.467 254.83 336.467C254.905 336.467 254.98 336.461 255.055 336.448C255.129 336.433 255.187 336.422 255.226 336.415L255.477 337.599C255.397 337.624 255.285 337.653 255.141 337.685C254.996 337.72 254.82 337.741 254.614 337.749C254.23 337.764 253.893 337.713 253.604 337.596C253.318 337.478 253.095 337.297 252.935 337.05C252.776 336.803 252.697 336.492 252.7 336.116V330.554ZM263.027 332.217C262.998 331.916 262.869 331.682 262.642 331.515C262.416 331.348 262.108 331.264 261.719 331.264C261.455 331.264 261.232 331.302 261.05 331.376C260.868 331.449 260.729 331.55 260.632 331.679C260.537 331.809 260.49 331.956 260.49 332.12C260.485 332.257 260.513 332.377 260.576 332.479C260.64 332.581 260.729 332.67 260.841 332.744C260.953 332.817 261.083 332.88 261.23 332.935C261.377 332.987 261.534 333.032 261.701 333.069L262.388 333.234C262.722 333.309 263.029 333.408 263.308 333.533C263.587 333.658 263.829 333.811 264.033 333.993C264.237 334.175 264.395 334.389 264.507 334.635C264.622 334.882 264.681 335.165 264.683 335.484C264.681 335.952 264.561 336.358 264.324 336.702C264.09 337.044 263.751 337.309 263.308 337.498C262.867 337.685 262.335 337.779 261.712 337.779C261.094 337.779 260.556 337.684 260.097 337.495C259.641 337.305 259.285 337.025 259.028 336.654C258.774 336.28 258.641 335.818 258.628 335.267H260.194C260.212 335.524 260.285 335.738 260.415 335.91C260.547 336.079 260.723 336.208 260.942 336.295C261.164 336.38 261.414 336.422 261.693 336.422C261.967 336.422 262.205 336.382 262.407 336.302C262.611 336.223 262.77 336.112 262.882 335.97C262.994 335.828 263.05 335.665 263.05 335.48C263.05 335.308 262.999 335.164 262.897 335.047C262.797 334.929 262.65 334.83 262.456 334.748C262.264 334.665 262.028 334.591 261.749 334.523L260.916 334.314C260.27 334.157 259.761 333.912 259.387 333.578C259.013 333.244 258.828 332.794 258.83 332.229C258.828 331.765 258.951 331.36 259.2 331.014C259.452 330.668 259.797 330.397 260.236 330.203C260.674 330.009 261.172 329.911 261.731 329.911C262.299 329.911 262.794 330.009 263.218 330.203C263.644 330.397 263.976 330.668 264.212 331.014C264.449 331.36 264.571 331.761 264.578 332.217H263.027ZM268.795 331.93V333.126H265.338V331.93H268.795ZM266.123 330.554H267.715V335.906C267.715 336.053 267.738 336.168 267.782 336.25C267.827 336.33 267.89 336.386 267.969 336.418C268.052 336.451 268.146 336.467 268.253 336.467C268.328 336.467 268.403 336.461 268.478 336.448C268.552 336.433 268.61 336.422 268.65 336.415L268.9 337.599C268.82 337.624 268.708 337.653 268.564 337.685C268.419 337.72 268.243 337.741 268.037 337.749C267.653 337.764 267.316 337.713 267.027 337.596C266.741 337.478 266.518 337.297 266.358 337.05C266.199 336.803 266.12 336.492 266.123 336.116V330.554ZM271.469 337.779C271.103 337.779 270.777 337.715 270.49 337.588C270.204 337.458 269.977 337.268 269.81 337.016C269.646 336.762 269.563 336.446 269.563 336.067C269.563 335.748 269.622 335.48 269.739 335.263C269.856 335.047 270.016 334.872 270.217 334.74C270.419 334.608 270.648 334.508 270.905 334.441C271.164 334.374 271.436 334.327 271.72 334.299C272.054 334.264 272.323 334.232 272.527 334.202C272.731 334.17 272.88 334.122 272.972 334.06C273.064 333.998 273.11 333.905 273.11 333.783V333.761C273.11 333.524 273.035 333.341 272.886 333.212C272.739 333.082 272.53 333.017 272.258 333.017C271.971 333.017 271.743 333.081 271.574 333.208C271.405 333.332 271.292 333.489 271.238 333.679L269.765 333.559C269.84 333.21 269.987 332.909 270.206 332.655C270.425 332.398 270.708 332.201 271.055 332.064C271.403 331.925 271.807 331.855 272.265 331.855C272.584 331.855 272.89 331.892 273.181 331.967C273.475 332.042 273.736 332.158 273.962 332.315C274.192 332.472 274.372 332.673 274.504 332.92C274.636 333.164 274.702 333.457 274.702 333.798V337.67H273.192V336.874H273.148C273.055 337.054 272.932 337.212 272.778 337.349C272.623 337.483 272.437 337.589 272.221 337.667C272.004 337.741 271.753 337.779 271.469 337.779ZM271.925 336.68C272.16 336.68 272.366 336.634 272.546 336.542C272.725 336.447 272.866 336.32 272.968 336.16C273.07 336.001 273.121 335.82 273.121 335.618V335.009C273.072 335.042 273.003 335.072 272.916 335.099C272.831 335.124 272.735 335.148 272.628 335.17C272.521 335.19 272.414 335.209 272.307 335.226C272.199 335.241 272.102 335.255 272.015 335.267C271.828 335.295 271.665 335.338 271.525 335.398C271.386 335.458 271.278 335.539 271.2 335.641C271.123 335.741 271.084 335.865 271.084 336.015C271.084 336.231 271.163 336.397 271.32 336.512C271.479 336.624 271.681 336.68 271.925 336.68ZM275.938 337.67V331.93H277.481V332.931H277.541C277.646 332.575 277.821 332.306 278.068 332.124C278.315 331.94 278.599 331.847 278.92 331.847C279 331.847 279.086 331.852 279.178 331.862C279.27 331.872 279.351 331.886 279.421 331.903V333.316C279.346 333.294 279.243 333.274 279.111 333.256C278.979 333.239 278.858 333.23 278.748 333.23C278.514 333.23 278.305 333.281 278.12 333.383C277.938 333.483 277.794 333.623 277.687 333.802C277.582 333.981 277.53 334.188 277.53 334.422V337.67H275.938ZM283.585 331.93V333.126H280.128V331.93H283.585ZM280.913 330.554H282.505V335.906C282.505 336.053 282.528 336.168 282.572 336.25C282.617 336.33 282.68 336.386 282.759 336.418C282.842 336.451 282.936 336.467 283.043 336.467C283.118 336.467 283.193 336.461 283.268 336.448C283.342 336.433 283.4 336.422 283.44 336.415L283.69 337.599C283.61 337.624 283.498 337.653 283.354 337.685C283.209 337.72 283.033 337.741 282.827 337.749C282.443 337.764 282.106 337.713 281.817 337.596C281.531 337.478 281.308 337.297 281.148 337.05C280.989 336.803 280.91 336.492 280.913 336.116V330.554ZM287.177 337.782C286.586 337.782 286.078 337.663 285.652 337.424C285.228 337.182 284.902 336.841 284.673 336.4C284.444 335.956 284.329 335.432 284.329 334.826C284.329 334.236 284.444 333.717 284.673 333.271C284.902 332.825 285.225 332.478 285.641 332.229C286.059 331.979 286.55 331.855 287.113 331.855C287.492 331.855 287.845 331.916 288.171 332.038C288.5 332.158 288.787 332.338 289.031 332.58C289.277 332.822 289.469 333.126 289.606 333.492C289.743 333.856 289.812 334.282 289.812 334.77V335.207H284.964V334.221H288.313C288.313 333.991 288.263 333.788 288.164 333.611C288.064 333.435 287.926 333.296 287.749 333.197C287.574 333.094 287.371 333.043 287.14 333.043C286.898 333.043 286.684 333.099 286.497 333.212C286.312 333.321 286.168 333.469 286.063 333.656C285.959 333.841 285.905 334.046 285.902 334.273V335.211C285.902 335.495 285.955 335.741 286.059 335.947C286.167 336.154 286.317 336.314 286.512 336.426C286.706 336.538 286.937 336.594 287.203 336.594C287.38 336.594 287.542 336.569 287.689 336.519C287.836 336.469 287.962 336.395 288.066 336.295C288.171 336.195 288.251 336.073 288.306 335.929L289.778 336.026C289.703 336.38 289.55 336.689 289.319 336.953C289.089 337.214 288.793 337.419 288.429 337.566C288.068 337.71 287.65 337.782 287.177 337.782ZM292.966 337.764C292.53 337.764 292.135 337.652 291.781 337.427C291.43 337.201 291.151 336.868 290.944 336.429C290.74 335.988 290.638 335.448 290.638 334.807C290.638 334.15 290.744 333.603 290.956 333.167C291.167 332.728 291.449 332.4 291.8 332.184C292.154 331.964 292.541 331.855 292.963 331.855C293.284 331.855 293.552 331.91 293.766 332.019C293.983 332.126 294.157 332.261 294.289 332.423C294.424 332.582 294.526 332.739 294.596 332.894H294.644V330.016H296.233V337.67H294.663V336.751H294.596C294.521 336.91 294.415 337.069 294.278 337.226C294.144 337.38 293.968 337.508 293.751 337.61C293.537 337.713 293.275 337.764 292.966 337.764ZM293.471 336.497C293.727 336.497 293.944 336.427 294.121 336.287C294.301 336.145 294.438 335.947 294.532 335.693C294.629 335.439 294.678 335.141 294.678 334.8C294.678 334.459 294.631 334.162 294.536 333.91C294.441 333.659 294.304 333.464 294.125 333.327C293.945 333.19 293.727 333.122 293.471 333.122C293.209 333.122 292.989 333.193 292.809 333.335C292.63 333.477 292.494 333.674 292.402 333.925C292.31 334.177 292.264 334.469 292.264 334.8C292.264 335.134 292.31 335.429 292.402 335.686C292.497 335.94 292.632 336.139 292.809 336.284C292.989 336.426 293.209 336.497 293.471 336.497Z" fill="#06182C"/>
</g>
<g filter="url(#filter4_d_351_23103)">
<ellipse cx="267.505" cy="83.4875" rx="33.505" ry="33.4875" fill="#06182C"/>
</g>
<g clip-path="url(#clip0_351_23103)">
<path d="M270.287 95V80.1462H275.238V83.8885H278.771V73H283.723V95H278.771V87.8754H275.238V95H270.287Z" fill="#00D4FF"/>
<path d="M264.277 86.9687C264.522 86.6089 264.594 86.5081 264.738 86.2634C265.271 85.3638 265.544 84.2628 265.544 82.9602C265.544 81.6648 265.285 80.5565 264.76 79.6282C264.241 78.6998 263.507 77.9945 262.572 77.498C261.636 77.0086 260.535 76.7567 259.29 76.7567H252V94.9929H256.577V89.1636C256.577 89.0485 256.649 88.9478 256.75 88.919C260.312 87.8323 262.147 89.2356 262.147 90.5382C262.147 92.2582 262.147 92.69 262.147 92.985V94.9929H266.724V88.8254H266.71C266.623 88.077 266.033 87.5012 265.314 87.5012H263.932L264.277 86.9687ZM256.577 80.7148H258.189C258.729 80.7148 259.189 80.794 259.571 80.9523C259.952 81.1107 260.247 81.3553 260.449 81.6792C260.658 82.0102 260.758 82.4348 260.758 82.9602C260.758 83.4783 260.658 83.8957 260.449 84.2124C260.24 84.5362 259.952 84.7665 259.571 84.9105C259.189 85.0544 258.729 85.1264 258.189 85.1264H256.577V80.7148Z" fill="#00D4FF"/>
</g>
</g>
<defs>
<filter id="filter0_d_351_23103" x="0" y="0" width="534" height="464" filterUnits="userSpaceOnUse" color-interpolation-filters="sRGB">
<feFlood flood-opacity="0" result="BackgroundImageFix"/>
<feColorMatrix in="SourceAlpha" type="matrix" values="0 0 0 0 0 0 0 0 0 0 0 0 0 0 0 0 0 0 127 0" result="hardAlpha"/>
<feOffset dy="4"/>
<feGaussianBlur stdDeviation="16"/>
<feColorMatrix type="matrix" values="0 0 0 0 0.121569 0 0 0 0 0.121569 0 0 0 0 0.156863 0 0 0 0.15 0"/>
<feBlend mode="normal" in2="BackgroundImageFix" result="effect1_dropShadow_351_23103"/>
<feBlend mode="normal" in="SourceGraphic" in2="effect1_dropShadow_351_23103" result="shape"/>
</filter>
<filter id="filter1_d_351_23103" x="8" y="8" width="518" height="448" filterUnits="userSpaceOnUse" color-interpolation-filters="sRGB">
<feFlood flood-opacity="0" result="BackgroundImageFix"/>
<feColorMatrix in="SourceAlpha" type="matrix" values="0 0 0 0 0 0 0 0 0 0 0 0 0 0 0 0 0 0 127 0" result="hardAlpha"/>
<feOffset dy="4"/>
<feGaussianBlur stdDeviation="12"/>
<feColorMatrix type="matrix" values="0 0 0 0 0.0235294 0 0 0 0 0.0941176 0 0 0 0 0.172549 0 0 0 0.4 0"/>
<feBlend mode="normal" in2="BackgroundImageFix" result="effect1_dropShadow_351_23103"/>
<feBlend mode="normal" in="SourceGraphic" in2="effect1_dropShadow_351_23103" result="shape"/>
</filter>
<filter id="filter2_d_351_23103" x="100" y="113.202" width="335.185" height="287.196" filterUnits="userSpaceOnUse" color-interpolation-filters="sRGB">
<feFlood flood-opacity="0" result="BackgroundImageFix"/>
<feColorMatrix in="SourceAlpha" type="matrix" values="0 0 0 0 0 0 0 0 0 0 0 0 0 0 0 0 0 0 127 0" result="hardAlpha"/>
<feOffset dy="4"/>
<feGaussianBlur stdDeviation="12"/>
<feColorMatrix type="matrix" values="0 0 0 0 0.0235294 0 0 0 0 0.0941176 0 0 0 0 0.172549 0 0 0 0.4 0"/>
<feBlend mode="normal" in2="BackgroundImageFix" result="effect1_dropShadow_351_23103"/>
<feBlend mode="normal" in="SourceGraphic" in2="effect1_dropShadow_351_23103" result="shape"/>
</filter>
<filter id="filter3_d_351_23103" x="143.218" y="225.092" width="248.337" height="40.262" filterUnits="userSpaceOnUse" color-interpolation-filters="sRGB">
<feFlood flood-opacity="0" result="BackgroundImageFix"/>
<feColorMatrix in="SourceAlpha" type="matrix" values="0 0 0 0 0 0 0 0 0 0 0 0 0 0 0 0 0 0 127 0" result="hardAlpha"/>
<feOffset dy="3.39027"/>
<feGaussianBlur stdDeviation="1.69514"/>
<feComposite in2="hardAlpha" operator="out"/>
<feColorMatrix type="matrix" values="0 0 0 0 0.392157 0 0 0 0 0.380392 0 0 0 0 0.933333 0 0 0 0.15 0"/>
<feBlend mode="normal" in2="BackgroundImageFix" result="effect1_dropShadow_351_23103"/>
<feBlend mode="normal" in="SourceGraphic" in2="effect1_dropShadow_351_23103" result="shape"/>
</filter>
<filter id="filter4_d_351_23103" x="206.878" y="26.2681" width="121.254" height="121.219" filterUnits="userSpaceOnUse" color-interpolation-filters="sRGB">
<feFlood flood-opacity="0" result="BackgroundImageFix"/>
<feColorMatrix in="SourceAlpha" type="matrix" values="0 0 0 0 0 0 0 0 0 0 0 0 0 0 0 0 0 0 127 0" result="hardAlpha"/>
<feOffset dy="3.39027"/>
<feGaussianBlur stdDeviation="13.5611"/>
<feComposite in2="hardAlpha" operator="out"/>
<feColorMatrix type="matrix" values="0 0 0 0 0.121569 0 0 0 0 0.121569 0 0 0 0 0.156863 0 0 0 0.07 0"/>
<feBlend mode="normal" in2="BackgroundImageFix" result="effect1_dropShadow_351_23103"/>
<feBlend mode="normal" in="SourceGraphic" in2="effect1_dropShadow_351_23103" result="shape"/>
</filter>
<clipPath id="clip0_351_23103">
<rect width="31.7226" height="22" fill="white" transform="translate(252 73)"/>
</clipPath>
</defs>
</svg>
