<svg width="24" height="24" viewBox="0 0 24 24" fill="none" xmlns="http://www.w3.org/2000/svg">
<path d="M18 16H6C4.89543 16 4 16.8954 4 18C4 19.1046 4.89543 20 6 20H18C19.1046 20 20 19.1046 20 18C20 16.8954 19.1046 16 18 16Z" stroke="white" stroke-width="1.5"/>
<path d="M4.9109 11.364L8.0009 16H16.0009L19.0909 11.364C19.5269 10.711 19.7449 10.384 19.7089 10.029C19.6739 9.673 19.3969 9.396 18.8419 8.841L12.0009 2L5.1609 8.84C4.6049 9.396 4.3279 9.673 4.2929 10.029C4.2569 10.385 4.4759 10.711 4.9109 11.364Z" stroke="white" stroke-width="1.5"/>
<path d="M12 13.5C13.3807 13.5 14.5 12.3807 14.5 11C14.5 9.61929 13.3807 8.5 12 8.5C10.6193 8.5 9.5 9.61929 9.5 11C9.5 12.3807 10.6193 13.5 12 13.5Z" stroke="white" stroke-width="1.5"/>
<path d="M12 2V9" stroke="white" stroke-width="1.5"/>
</svg>
