<svg width="603" height="96" viewBox="0 0 603 96" fill="none" xmlns="http://www.w3.org/2000/svg">
<rect width="603" height="96" rx="6" fill="url(#paint0_linear_156_2707)" fill-opacity="0.19"/>
<g filter="url(#filter0_d_156_2707)">
<rect x="28" y="23" width="50" height="50" rx="25" fill="#3FCCFC"/>
<path d="M55.6145 40.4545V55H52.5392V43.3736H52.454L49.123 45.4616V42.7344L52.7239 40.4545H55.6145Z" fill="#09243F"/>
</g>
<path d="M97.083 26.3594L100.714 33.8252L104.345 26.3594H107.331L102.067 36.2422V42H99.3496V36.2422L94.0859 26.3594H97.083ZM107.578 36.3174V36.0703C107.578 35.2324 107.7 34.4554 107.943 33.7393C108.187 33.016 108.538 32.3893 108.996 31.8594C109.462 31.3223 110.027 30.9069 110.693 30.6133C111.367 30.3125 112.126 30.1621 112.971 30.1621C113.823 30.1621 114.582 30.3125 115.248 30.6133C115.921 30.9069 116.491 31.3223 116.956 31.8594C117.422 32.3893 117.776 33.016 118.02 33.7393C118.263 34.4554 118.385 35.2324 118.385 36.0703V36.3174C118.385 37.1553 118.263 37.9323 118.02 38.6484C117.776 39.3646 117.422 39.9912 116.956 40.5283C116.491 41.0583 115.925 41.4736 115.259 41.7744C114.593 42.068 113.837 42.2148 112.992 42.2148C112.14 42.2148 111.377 42.068 110.704 41.7744C110.038 41.4736 109.472 41.0583 109.007 40.5283C108.541 39.9912 108.187 39.3646 107.943 38.6484C107.7 37.9323 107.578 37.1553 107.578 36.3174ZM110.167 36.0703V36.3174C110.167 36.8402 110.221 37.3343 110.328 37.7998C110.436 38.2653 110.604 38.6735 110.833 39.0244C111.062 39.3753 111.356 39.651 111.714 39.8516C112.072 40.0521 112.498 40.1523 112.992 40.1523C113.472 40.1523 113.887 40.0521 114.238 39.8516C114.596 39.651 114.89 39.3753 115.119 39.0244C115.348 38.6735 115.517 38.2653 115.624 37.7998C115.739 37.3343 115.796 36.8402 115.796 36.3174V36.0703C115.796 35.5547 115.739 35.0677 115.624 34.6094C115.517 34.1439 115.345 33.7321 115.108 33.374C114.879 33.016 114.586 32.7367 114.228 32.5361C113.877 32.3285 113.458 32.2246 112.971 32.2246C112.484 32.2246 112.061 32.3285 111.703 32.5361C111.352 32.7367 111.062 33.016 110.833 33.374C110.604 33.7321 110.436 34.1439 110.328 34.6094C110.221 35.0677 110.167 35.5547 110.167 36.0703ZM127.548 39.2607V30.377H130.147V42H127.698L127.548 39.2607ZM127.913 36.8438L128.783 36.8223C128.783 37.6029 128.697 38.3226 128.525 38.9814C128.354 39.6331 128.089 40.2025 127.73 40.6895C127.372 41.1693 126.914 41.5452 126.355 41.8174C125.797 42.0824 125.127 42.2148 124.347 42.2148C123.781 42.2148 123.262 42.1325 122.789 41.9678C122.316 41.8031 121.908 41.5488 121.564 41.2051C121.228 40.8613 120.966 40.4137 120.78 39.8623C120.594 39.3109 120.501 38.652 120.501 37.8857V30.377H123.09V37.9072C123.09 38.3298 123.14 38.6842 123.24 38.9707C123.34 39.25 123.477 39.4756 123.648 39.6475C123.82 39.8193 124.021 39.9411 124.25 40.0127C124.479 40.0843 124.723 40.1201 124.98 40.1201C125.718 40.1201 126.298 39.9769 126.721 39.6904C127.15 39.3968 127.455 39.0029 127.634 38.5088C127.82 38.0146 127.913 37.4596 127.913 36.8438ZM140.868 32.7402V42H138.279V30.377H140.718L140.868 32.7402ZM140.449 35.7588L139.568 35.748C139.568 34.946 139.669 34.2048 139.869 33.5244C140.07 32.8441 140.363 32.2533 140.75 31.752C141.137 31.2435 141.617 30.8532 142.189 30.5811C142.77 30.3018 143.439 30.1621 144.198 30.1621C144.728 30.1621 145.212 30.2409 145.648 30.3984C146.092 30.5488 146.476 30.7887 146.798 31.1182C147.127 31.4476 147.378 31.8701 147.55 32.3857C147.729 32.9014 147.818 33.5244 147.818 34.2549V42H145.229V34.4805C145.229 33.9147 145.144 33.4707 144.972 33.1484C144.807 32.8262 144.567 32.597 144.252 32.4609C143.944 32.3177 143.575 32.2461 143.146 32.2461C142.659 32.2461 142.243 32.3392 141.899 32.5254C141.563 32.7116 141.287 32.9658 141.072 33.2881C140.857 33.6104 140.7 33.9827 140.6 34.4053C140.499 34.8278 140.449 35.279 140.449 35.7588ZM147.657 35.0713L146.443 35.3398C146.443 34.638 146.54 33.9756 146.733 33.3525C146.934 32.7223 147.224 32.1709 147.604 31.6982C147.99 31.2184 148.466 30.8424 149.032 30.5703C149.598 30.2982 150.246 30.1621 150.977 30.1621C151.571 30.1621 152.101 30.2445 152.566 30.4092C153.039 30.5667 153.44 30.8174 153.77 31.1611C154.099 31.5049 154.35 31.9525 154.521 32.5039C154.693 33.0482 154.779 33.707 154.779 34.4805V42H152.18V34.4697C152.18 33.8825 152.094 33.4277 151.922 33.1055C151.757 32.7832 151.521 32.5612 151.213 32.4395C150.905 32.3105 150.536 32.2461 150.106 32.2461C149.705 32.2461 149.351 32.3213 149.043 32.4717C148.742 32.6149 148.488 32.819 148.28 33.084C148.073 33.3418 147.915 33.639 147.808 33.9756C147.707 34.3122 147.657 34.6774 147.657 35.0713ZM164.437 39.2607V30.377H167.036V42H164.587L164.437 39.2607ZM164.802 36.8438L165.672 36.8223C165.672 37.6029 165.586 38.3226 165.414 38.9814C165.242 39.6331 164.977 40.2025 164.619 40.6895C164.261 41.1693 163.803 41.5452 163.244 41.8174C162.686 42.0824 162.016 42.2148 161.235 42.2148C160.67 42.2148 160.15 42.1325 159.678 41.9678C159.205 41.8031 158.797 41.5488 158.453 41.2051C158.117 40.8613 157.855 40.4137 157.669 39.8623C157.483 39.3109 157.39 38.652 157.39 37.8857V30.377H159.979V37.9072C159.979 38.3298 160.029 38.6842 160.129 38.9707C160.229 39.25 160.365 39.4756 160.537 39.6475C160.709 39.8193 160.91 39.9411 161.139 40.0127C161.368 40.0843 161.611 40.1201 161.869 40.1201C162.607 40.1201 163.187 39.9769 163.609 39.6904C164.039 39.3968 164.343 39.0029 164.522 38.5088C164.709 38.0146 164.802 37.4596 164.802 36.8438ZM176.21 38.8525C176.21 38.5947 176.146 38.362 176.017 38.1543C175.888 37.9395 175.641 37.7461 175.275 37.5742C174.917 37.4023 174.387 37.2448 173.686 37.1016C173.07 36.9655 172.504 36.8044 171.988 36.6182C171.48 36.4248 171.043 36.1921 170.678 35.9199C170.312 35.6478 170.03 35.3255 169.829 34.9531C169.629 34.5807 169.528 34.151 169.528 33.6641C169.528 33.1914 169.632 32.7438 169.84 32.3213C170.048 31.8988 170.345 31.5264 170.731 31.2041C171.118 30.8818 171.587 30.6276 172.139 30.4414C172.697 30.2552 173.32 30.1621 174.008 30.1621C174.982 30.1621 175.816 30.3268 176.511 30.6562C177.213 30.9785 177.75 31.4189 178.122 31.9775C178.494 32.529 178.681 33.152 178.681 33.8467H176.092C176.092 33.5387 176.013 33.2523 175.855 32.9873C175.705 32.7152 175.476 32.4967 175.168 32.332C174.86 32.1602 174.473 32.0742 174.008 32.0742C173.564 32.0742 173.195 32.1458 172.901 32.2891C172.615 32.4251 172.4 32.6042 172.257 32.8262C172.121 33.0482 172.053 33.2917 172.053 33.5566C172.053 33.75 172.089 33.9255 172.16 34.083C172.239 34.2334 172.368 34.373 172.547 34.502C172.726 34.6237 172.969 34.7383 173.277 34.8457C173.592 34.9531 173.986 35.057 174.459 35.1572C175.347 35.3434 176.11 35.5833 176.747 35.877C177.392 36.1634 177.886 36.5358 178.229 36.9941C178.573 37.4453 178.745 38.0182 178.745 38.7129C178.745 39.2285 178.634 39.7012 178.412 40.1309C178.197 40.5534 177.882 40.9222 177.467 41.2373C177.051 41.5452 176.554 41.7852 175.974 41.957C175.401 42.1289 174.756 42.2148 174.04 42.2148C172.987 42.2148 172.096 42.0286 171.365 41.6562C170.635 41.2767 170.08 40.7933 169.7 40.2061C169.328 39.6117 169.142 38.9958 169.142 38.3584H171.645C171.673 38.8382 171.806 39.2214 172.042 39.5078C172.285 39.7871 172.586 39.9912 172.944 40.1201C173.31 40.2419 173.686 40.3027 174.072 40.3027C174.538 40.3027 174.928 40.2419 175.243 40.1201C175.558 39.9912 175.798 39.8193 175.963 39.6045C176.128 39.3825 176.21 39.1318 176.21 38.8525ZM186.34 30.377V32.2676H179.787V30.377H186.34ZM181.678 27.5303H184.267V38.7881C184.267 39.1462 184.317 39.4219 184.417 39.6152C184.524 39.8014 184.671 39.9268 184.857 39.9912C185.044 40.0557 185.262 40.0879 185.513 40.0879C185.692 40.0879 185.864 40.0771 186.028 40.0557C186.193 40.0342 186.326 40.0127 186.426 39.9912L186.437 41.9678C186.222 42.0322 185.971 42.0895 185.685 42.1396C185.405 42.1898 185.083 42.2148 184.718 42.2148C184.123 42.2148 183.597 42.111 183.139 41.9033C182.68 41.6885 182.322 41.3411 182.064 40.8613C181.807 40.3815 181.678 39.7441 181.678 38.9492V27.5303ZM196.373 25.5V42H193.795V25.5H196.373ZM195.922 35.7588L195.084 35.748C195.091 34.946 195.202 34.2048 195.417 33.5244C195.639 32.8441 195.947 32.2533 196.341 31.752C196.742 31.2435 197.222 30.8532 197.78 30.5811C198.339 30.3018 198.958 30.1621 199.639 30.1621C200.212 30.1621 200.727 30.2409 201.186 30.3984C201.651 30.556 202.052 30.8102 202.389 31.1611C202.725 31.5049 202.979 31.9561 203.151 32.5146C203.33 33.0661 203.42 33.7393 203.42 34.5342V42H200.82V34.5127C200.82 33.9541 200.738 33.5101 200.573 33.1807C200.416 32.8512 200.183 32.6149 199.875 32.4717C199.567 32.3213 199.191 32.2461 198.747 32.2461C198.282 32.2461 197.87 32.3392 197.512 32.5254C197.161 32.7116 196.867 32.9658 196.631 33.2881C196.395 33.6104 196.215 33.9827 196.094 34.4053C195.979 34.8278 195.922 35.279 195.922 35.7588ZM212.594 39.6689V34.126C212.594 33.7106 212.519 33.3525 212.368 33.0518C212.218 32.751 211.989 32.5182 211.681 32.3535C211.38 32.1888 211 32.1064 210.542 32.1064C210.119 32.1064 209.754 32.1781 209.446 32.3213C209.138 32.4645 208.898 32.6579 208.727 32.9014C208.555 33.1449 208.469 33.4206 208.469 33.7285H205.891C205.891 33.2702 206.002 32.8262 206.224 32.3965C206.446 31.9668 206.768 31.5837 207.19 31.2471C207.613 30.9105 208.118 30.6455 208.705 30.4521C209.292 30.2588 209.951 30.1621 210.682 30.1621C211.555 30.1621 212.329 30.3089 213.002 30.6025C213.682 30.8962 214.216 31.3402 214.603 31.9346C214.996 32.5218 215.193 33.2594 215.193 34.1475V39.3145C215.193 39.8444 215.229 40.3206 215.301 40.7432C215.38 41.1585 215.491 41.5202 215.634 41.8281V42H212.98C212.859 41.7207 212.762 41.3662 212.69 40.9365C212.626 40.4997 212.594 40.0771 212.594 39.6689ZM212.97 34.9316L212.991 36.5322H211.133C210.653 36.5322 210.23 36.5788 209.865 36.6719C209.5 36.7578 209.196 36.8867 208.952 37.0586C208.709 37.2305 208.526 37.4382 208.404 37.6816C208.283 37.9251 208.222 38.2008 208.222 38.5088C208.222 38.8167 208.293 39.0996 208.437 39.3574C208.58 39.6081 208.787 39.805 209.06 39.9482C209.339 40.0915 209.675 40.1631 210.069 40.1631C210.599 40.1631 211.061 40.0557 211.455 39.8408C211.856 39.6188 212.171 39.3503 212.4 39.0352C212.63 38.7129 212.751 38.4085 212.766 38.1221L213.604 39.2715C213.518 39.5651 213.371 39.8802 213.163 40.2168C212.955 40.5534 212.683 40.8757 212.347 41.1836C212.017 41.4844 211.62 41.7314 211.154 41.9248C210.696 42.1182 210.166 42.2148 209.564 42.2148C208.805 42.2148 208.129 42.0645 207.534 41.7637C206.94 41.4557 206.474 41.0439 206.138 40.5283C205.801 40.0055 205.633 39.4147 205.633 38.7559C205.633 38.14 205.747 37.5957 205.977 37.123C206.213 36.6432 206.557 36.2422 207.008 35.9199C207.466 35.5977 208.025 35.3542 208.684 35.1895C209.342 35.0176 210.094 34.9316 210.939 34.9316H212.97ZM221.51 39.9482L224.356 30.377H227.042L223.003 42H221.327L221.51 39.9482ZM219.329 30.377L222.229 39.9912L222.369 42H220.693L216.633 30.377H219.329ZM233.616 42.2148C232.757 42.2148 231.98 42.0752 231.285 41.7959C230.598 41.5094 230.01 41.112 229.523 40.6035C229.044 40.0951 228.675 39.4971 228.417 38.8096C228.159 38.1221 228.03 37.3809 228.03 36.5859V36.1562C228.03 35.2467 228.163 34.4232 228.428 33.6855C228.693 32.9479 229.062 32.3177 229.534 31.7949C230.007 31.265 230.565 30.8604 231.21 30.5811C231.854 30.3018 232.553 30.1621 233.305 30.1621C234.135 30.1621 234.862 30.3018 235.485 30.5811C236.108 30.8604 236.624 31.2542 237.032 31.7627C237.448 32.264 237.756 32.862 237.956 33.5566C238.164 34.2513 238.268 35.0176 238.268 35.8555V36.9619H229.287V35.1035H235.711V34.8994C235.697 34.4339 235.604 33.9971 235.432 33.5889C235.267 33.1807 235.013 32.8512 234.669 32.6006C234.325 32.3499 233.867 32.2246 233.294 32.2246C232.864 32.2246 232.481 32.3177 232.145 32.5039C231.815 32.6829 231.539 32.9443 231.317 33.2881C231.095 33.6318 230.924 34.0472 230.802 34.5342C230.687 35.014 230.63 35.5547 230.63 36.1562V36.5859C230.63 37.0944 230.698 37.5671 230.834 38.0039C230.977 38.4336 231.185 38.8096 231.457 39.1318C231.729 39.4541 232.059 39.7083 232.445 39.8945C232.832 40.0736 233.272 40.1631 233.767 40.1631C234.39 40.1631 234.945 40.0378 235.432 39.7871C235.919 39.5365 236.341 39.182 236.699 38.7236L238.063 40.0449C237.813 40.4102 237.487 40.7611 237.086 41.0977C236.685 41.4271 236.194 41.6956 235.614 41.9033C235.041 42.111 234.375 42.2148 233.616 42.2148ZM252.318 39.6689V34.126C252.318 33.7106 252.243 33.3525 252.093 33.0518C251.942 32.751 251.713 32.5182 251.405 32.3535C251.104 32.1888 250.725 32.1064 250.267 32.1064C249.844 32.1064 249.479 32.1781 249.171 32.3213C248.863 32.4645 248.623 32.6579 248.451 32.9014C248.279 33.1449 248.193 33.4206 248.193 33.7285H245.615C245.615 33.2702 245.726 32.8262 245.948 32.3965C246.17 31.9668 246.493 31.5837 246.915 31.2471C247.338 30.9105 247.842 30.6455 248.43 30.4521C249.017 30.2588 249.676 30.1621 250.406 30.1621C251.28 30.1621 252.053 30.3089 252.727 30.6025C253.407 30.8962 253.94 31.3402 254.327 31.9346C254.721 32.5218 254.918 33.2594 254.918 34.1475V39.3145C254.918 39.8444 254.954 40.3206 255.025 40.7432C255.104 41.1585 255.215 41.5202 255.358 41.8281V42H252.705C252.583 41.7207 252.487 41.3662 252.415 40.9365C252.351 40.4997 252.318 40.0771 252.318 39.6689ZM252.694 34.9316L252.716 36.5322H250.857C250.378 36.5322 249.955 36.5788 249.59 36.6719C249.225 36.7578 248.92 36.8867 248.677 37.0586C248.433 37.2305 248.251 37.4382 248.129 37.6816C248.007 37.9251 247.946 38.2008 247.946 38.5088C247.946 38.8167 248.018 39.0996 248.161 39.3574C248.304 39.6081 248.512 39.805 248.784 39.9482C249.063 40.0915 249.4 40.1631 249.794 40.1631C250.324 40.1631 250.786 40.0557 251.18 39.8408C251.581 39.6188 251.896 39.3503 252.125 39.0352C252.354 38.7129 252.476 38.4085 252.49 38.1221L253.328 39.2715C253.242 39.5651 253.095 39.8802 252.888 40.2168C252.68 40.5534 252.408 40.8757 252.071 41.1836C251.742 41.4844 251.344 41.7314 250.879 41.9248C250.421 42.1182 249.891 42.2148 249.289 42.2148C248.53 42.2148 247.853 42.0645 247.259 41.7637C246.664 41.4557 246.199 41.0439 245.862 40.5283C245.526 40.0055 245.357 39.4147 245.357 38.7559C245.357 38.14 245.472 37.5957 245.701 37.123C245.938 36.6432 246.281 36.2422 246.732 35.9199C247.191 35.5977 247.749 35.3542 248.408 35.1895C249.067 35.0176 249.819 34.9316 250.664 34.9316H252.694ZM260.192 32.8584V42H257.604V30.377H260.042L260.192 32.8584ZM259.73 35.7588L258.893 35.748C258.9 34.9245 259.014 34.1689 259.236 33.4814C259.465 32.7939 259.781 32.2031 260.182 31.709C260.59 31.2148 261.077 30.8353 261.643 30.5703C262.208 30.2982 262.839 30.1621 263.533 30.1621C264.092 30.1621 264.597 30.2409 265.048 30.3984C265.506 30.5488 265.896 30.7959 266.219 31.1396C266.548 31.4834 266.799 31.931 266.971 32.4824C267.143 33.0267 267.229 33.6963 267.229 34.4912V42H264.629V34.4805C264.629 33.9219 264.547 33.4814 264.382 33.1592C264.224 32.8298 263.992 32.597 263.684 32.4609C263.383 32.3177 263.007 32.2461 262.556 32.2461C262.112 32.2461 261.714 32.3392 261.363 32.5254C261.012 32.7116 260.715 32.9658 260.472 33.2881C260.235 33.6104 260.053 33.9827 259.924 34.4053C259.795 34.8278 259.73 35.279 259.73 35.7588ZM281.902 39.6689V34.126C281.902 33.7106 281.827 33.3525 281.677 33.0518C281.526 32.751 281.297 32.5182 280.989 32.3535C280.688 32.1888 280.309 32.1064 279.851 32.1064C279.428 32.1064 279.063 32.1781 278.755 32.3213C278.447 32.4645 278.207 32.6579 278.035 32.9014C277.863 33.1449 277.777 33.4206 277.777 33.7285H275.199C275.199 33.2702 275.31 32.8262 275.532 32.3965C275.754 31.9668 276.076 31.5837 276.499 31.2471C276.922 30.9105 277.426 30.6455 278.014 30.4521C278.601 30.2588 279.26 30.1621 279.99 30.1621C280.864 30.1621 281.637 30.3089 282.311 30.6025C282.991 30.8962 283.524 31.3402 283.911 31.9346C284.305 32.5218 284.502 33.2594 284.502 34.1475V39.3145C284.502 39.8444 284.538 40.3206 284.609 40.7432C284.688 41.1585 284.799 41.5202 284.942 41.8281V42H282.289C282.167 41.7207 282.071 41.3662 281.999 40.9365C281.935 40.4997 281.902 40.0771 281.902 39.6689ZM282.278 34.9316L282.3 36.5322H280.441C279.962 36.5322 279.539 36.5788 279.174 36.6719C278.809 36.7578 278.504 36.8867 278.261 37.0586C278.017 37.2305 277.835 37.4382 277.713 37.6816C277.591 37.9251 277.53 38.2008 277.53 38.5088C277.53 38.8167 277.602 39.0996 277.745 39.3574C277.888 39.6081 278.096 39.805 278.368 39.9482C278.647 40.0915 278.984 40.1631 279.378 40.1631C279.908 40.1631 280.37 40.0557 280.764 39.8408C281.165 39.6188 281.48 39.3503 281.709 39.0352C281.938 38.7129 282.06 38.4085 282.074 38.1221L282.912 39.2715C282.826 39.5651 282.679 39.8802 282.472 40.2168C282.264 40.5534 281.992 40.8757 281.655 41.1836C281.326 41.4844 280.928 41.7314 280.463 41.9248C280.005 42.1182 279.475 42.2148 278.873 42.2148C278.114 42.2148 277.437 42.0645 276.843 41.7637C276.248 41.4557 275.783 41.0439 275.446 40.5283C275.11 40.0055 274.941 39.4147 274.941 38.7559C274.941 38.14 275.056 37.5957 275.285 37.123C275.521 36.6432 275.865 36.2422 276.316 35.9199C276.775 35.5977 277.333 35.3542 277.992 35.1895C278.651 35.0176 279.403 34.9316 280.248 34.9316H282.278ZM291.957 40.1523C292.38 40.1523 292.759 40.07 293.096 39.9053C293.439 39.7334 293.715 39.4971 293.923 39.1963C294.138 38.8955 294.256 38.5482 294.277 38.1543H296.716C296.701 38.9062 296.479 39.5902 296.05 40.2061C295.62 40.8219 295.051 41.3125 294.342 41.6777C293.633 42.0358 292.849 42.2148 291.989 42.2148C291.101 42.2148 290.328 42.0645 289.669 41.7637C289.01 41.4557 288.462 41.0332 288.025 40.4961C287.589 39.959 287.259 39.3395 287.037 38.6377C286.822 37.9359 286.715 37.1839 286.715 36.3818V36.0059C286.715 35.2038 286.822 34.4518 287.037 33.75C287.259 33.041 287.589 32.418 288.025 31.8809C288.462 31.3438 289.01 30.9248 289.669 30.624C290.328 30.3161 291.098 30.1621 291.979 30.1621C292.91 30.1621 293.726 30.3483 294.428 30.7207C295.13 31.0859 295.681 31.598 296.082 32.2568C296.49 32.9085 296.701 33.6676 296.716 34.5342H294.277C294.256 34.1045 294.148 33.7178 293.955 33.374C293.769 33.0231 293.504 32.7438 293.16 32.5361C292.824 32.3285 292.419 32.2246 291.946 32.2246C291.424 32.2246 290.99 32.332 290.646 32.5469C290.303 32.7546 290.034 33.041 289.841 33.4062C289.647 33.7643 289.508 34.1689 289.422 34.6201C289.343 35.0641 289.304 35.526 289.304 36.0059V36.3818C289.304 36.8617 289.343 37.3271 289.422 37.7783C289.501 38.2295 289.637 38.6341 289.83 38.9922C290.031 39.3431 290.303 39.626 290.646 39.8408C290.99 40.0485 291.427 40.1523 291.957 40.1523ZM304.031 30.377V32.2676H297.479V30.377H304.031ZM299.369 27.5303H301.958V38.7881C301.958 39.1462 302.008 39.4219 302.108 39.6152C302.216 39.8014 302.363 39.9268 302.549 39.9912C302.735 40.0557 302.953 40.0879 303.204 40.0879C303.383 40.0879 303.555 40.0771 303.72 40.0557C303.884 40.0342 304.017 40.0127 304.117 39.9912L304.128 41.9678C303.913 42.0322 303.662 42.0895 303.376 42.1396C303.097 42.1898 302.774 42.2148 302.409 42.2148C301.815 42.2148 301.288 42.111 300.83 41.9033C300.372 41.6885 300.014 41.3411 299.756 40.8613C299.498 40.3815 299.369 39.7441 299.369 38.9492V27.5303ZM308.801 30.377V42H306.201V30.377H308.801ZM306.029 27.3262C306.029 26.9323 306.158 26.6064 306.416 26.3486C306.681 26.0837 307.046 25.9512 307.512 25.9512C307.97 25.9512 308.332 26.0837 308.597 26.3486C308.862 26.6064 308.994 26.9323 308.994 27.3262C308.994 27.7129 308.862 28.0352 308.597 28.293C308.332 28.5508 307.97 28.6797 307.512 28.6797C307.046 28.6797 306.681 28.5508 306.416 28.293C306.158 28.0352 306.029 27.7129 306.029 27.3262ZM315.418 39.9482L318.265 30.377H320.95L316.911 42H315.235L315.418 39.9482ZM313.237 30.377L316.138 39.9912L316.277 42H314.602L310.541 30.377H313.237ZM327.524 42.2148C326.665 42.2148 325.888 42.0752 325.193 41.7959C324.506 41.5094 323.919 41.112 323.432 40.6035C322.952 40.0951 322.583 39.4971 322.325 38.8096C322.067 38.1221 321.938 37.3809 321.938 36.5859V36.1562C321.938 35.2467 322.071 34.4232 322.336 33.6855C322.601 32.9479 322.97 32.3177 323.442 31.7949C323.915 31.265 324.474 30.8604 325.118 30.5811C325.763 30.3018 326.461 30.1621 327.213 30.1621C328.044 30.1621 328.771 30.3018 329.394 30.5811C330.017 30.8604 330.532 31.2542 330.94 31.7627C331.356 32.264 331.664 32.862 331.864 33.5566C332.072 34.2513 332.176 35.0176 332.176 35.8555V36.9619H323.195V35.1035H329.619V34.8994C329.605 34.4339 329.512 33.9971 329.34 33.5889C329.175 33.1807 328.921 32.8512 328.577 32.6006C328.233 32.3499 327.775 32.2246 327.202 32.2246C326.772 32.2246 326.389 32.3177 326.053 32.5039C325.723 32.6829 325.448 32.9443 325.226 33.2881C325.004 33.6318 324.832 34.0472 324.71 34.5342C324.595 35.014 324.538 35.5547 324.538 36.1562V36.5859C324.538 37.0944 324.606 37.5671 324.742 38.0039C324.885 38.4336 325.093 38.8096 325.365 39.1318C325.637 39.4541 325.967 39.7083 326.354 39.8945C326.74 40.0736 327.181 40.1631 327.675 40.1631C328.298 40.1631 328.853 40.0378 329.34 39.7871C329.827 39.5365 330.249 39.182 330.607 38.7236L331.972 40.0449C331.721 40.4102 331.395 40.7611 330.994 41.0977C330.593 41.4271 330.103 41.6956 329.522 41.9033C328.95 42.111 328.284 42.2148 327.524 42.2148ZM346.022 28.4434L341.35 42H338.524L344.411 26.3594H346.216L346.022 28.4434ZM349.933 42L345.249 28.4434L345.045 26.3594H346.86L352.769 42H349.933ZM349.707 36.1992V38.3369H341.199V36.1992H349.707ZM363.382 39.9375V42H354.724V39.9375H363.382ZM363.146 31.9883L355.604 42H353.929V40.335L361.427 30.377H363.146V31.9883ZM362.146 30.377V32.4395H354.058V30.377H362.146ZM372.448 39.2607V30.377H375.048V42H372.599L372.448 39.2607ZM372.813 36.8438L373.684 36.8223C373.684 37.6029 373.598 38.3226 373.426 38.9814C373.254 39.6331 372.989 40.2025 372.631 40.6895C372.273 41.1693 371.814 41.5452 371.256 41.8174C370.697 42.0824 370.028 42.2148 369.247 42.2148C368.681 42.2148 368.162 42.1325 367.689 41.9678C367.217 41.8031 366.809 41.5488 366.465 41.2051C366.128 40.8613 365.867 40.4137 365.681 39.8623C365.494 39.3109 365.401 38.652 365.401 37.8857V30.377H367.99V37.9072C367.99 38.3298 368.04 38.6842 368.141 38.9707C368.241 39.25 368.377 39.4756 368.549 39.6475C368.721 39.8193 368.921 39.9411 369.15 40.0127C369.38 40.0843 369.623 40.1201 369.881 40.1201C370.618 40.1201 371.199 39.9769 371.621 39.6904C372.051 39.3968 372.355 39.0029 372.534 38.5088C372.72 38.0146 372.813 37.4596 372.813 36.8438ZM380.301 32.5898V42H377.712V30.377H380.183L380.301 32.5898ZM383.856 30.3018L383.835 32.708C383.677 32.6794 383.506 32.6579 383.319 32.6436C383.14 32.6292 382.961 32.6221 382.782 32.6221C382.338 32.6221 381.948 32.6865 381.611 32.8154C381.275 32.9372 380.992 33.1162 380.763 33.3525C380.541 33.5817 380.369 33.861 380.247 34.1904C380.125 34.5199 380.054 34.8887 380.032 35.2969L379.441 35.3398C379.441 34.6094 379.513 33.9326 379.656 33.3096C379.799 32.6865 380.014 32.1387 380.301 31.666C380.594 31.1934 380.96 30.8245 381.396 30.5596C381.84 30.2946 382.353 30.1621 382.933 30.1621C383.09 30.1621 383.258 30.1764 383.438 30.2051C383.624 30.2337 383.763 30.266 383.856 30.3018ZM390.388 42.2148C389.528 42.2148 388.751 42.0752 388.057 41.7959C387.369 41.5094 386.782 41.112 386.295 40.6035C385.815 40.0951 385.446 39.4971 385.188 38.8096C384.931 38.1221 384.802 37.3809 384.802 36.5859V36.1562C384.802 35.2467 384.934 34.4232 385.199 33.6855C385.464 32.9479 385.833 32.3177 386.306 31.7949C386.778 31.265 387.337 30.8604 387.981 30.5811C388.626 30.3018 389.324 30.1621 390.076 30.1621C390.907 30.1621 391.634 30.3018 392.257 30.5811C392.88 30.8604 393.396 31.2542 393.804 31.7627C394.219 32.264 394.527 32.862 394.728 33.5566C394.935 34.2513 395.039 35.0176 395.039 35.8555V36.9619H386.059V35.1035H392.482V34.8994C392.468 34.4339 392.375 33.9971 392.203 33.5889C392.038 33.1807 391.784 32.8512 391.44 32.6006C391.097 32.3499 390.638 32.2246 390.065 32.2246C389.636 32.2246 389.253 32.3177 388.916 32.5039C388.587 32.6829 388.311 32.9443 388.089 33.2881C387.867 33.6318 387.695 34.0472 387.573 34.5342C387.459 35.014 387.401 35.5547 387.401 36.1562V36.5859C387.401 37.0944 387.469 37.5671 387.605 38.0039C387.749 38.4336 387.956 38.8096 388.229 39.1318C388.501 39.4541 388.83 39.7083 389.217 39.8945C389.604 40.0736 390.044 40.1631 390.538 40.1631C391.161 40.1631 391.716 40.0378 392.203 39.7871C392.69 39.5365 393.113 39.182 393.471 38.7236L394.835 40.0449C394.584 40.4102 394.258 40.7611 393.857 41.0977C393.456 41.4271 392.966 41.6956 392.386 41.9033C391.813 42.111 391.147 42.2148 390.388 42.2148ZM409.058 38.8525C409.058 38.5947 408.993 38.362 408.864 38.1543C408.735 37.9395 408.488 37.7461 408.123 37.5742C407.765 37.4023 407.235 37.2448 406.533 37.1016C405.917 36.9655 405.352 36.8044 404.836 36.6182C404.327 36.4248 403.891 36.1921 403.525 35.9199C403.16 35.6478 402.877 35.3255 402.677 34.9531C402.476 34.5807 402.376 34.151 402.376 33.6641C402.376 33.1914 402.48 32.7438 402.688 32.3213C402.895 31.8988 403.192 31.5264 403.579 31.2041C403.966 30.8818 404.435 30.6276 404.986 30.4414C405.545 30.2552 406.168 30.1621 406.855 30.1621C407.829 30.1621 408.664 30.3268 409.358 30.6562C410.06 30.9785 410.597 31.4189 410.97 31.9775C411.342 32.529 411.528 33.152 411.528 33.8467H408.939C408.939 33.5387 408.861 33.2523 408.703 32.9873C408.553 32.7152 408.324 32.4967 408.016 32.332C407.708 32.1602 407.321 32.0742 406.855 32.0742C406.411 32.0742 406.043 32.1458 405.749 32.2891C405.463 32.4251 405.248 32.6042 405.104 32.8262C404.968 33.0482 404.9 33.2917 404.9 33.5566C404.9 33.75 404.936 33.9255 405.008 34.083C405.087 34.2334 405.215 34.373 405.395 34.502C405.574 34.6237 405.817 34.7383 406.125 34.8457C406.44 34.9531 406.834 35.057 407.307 35.1572C408.195 35.3434 408.957 35.5833 409.595 35.877C410.239 36.1634 410.733 36.5358 411.077 36.9941C411.421 37.4453 411.593 38.0182 411.593 38.7129C411.593 39.2285 411.482 39.7012 411.26 40.1309C411.045 40.5534 410.73 40.9222 410.314 41.2373C409.899 41.5452 409.401 41.7852 408.821 41.957C408.248 42.1289 407.604 42.2148 406.888 42.2148C405.835 42.2148 404.943 42.0286 404.213 41.6562C403.482 41.2767 402.927 40.7933 402.548 40.2061C402.175 39.6117 401.989 38.9958 401.989 38.3584H404.492C404.521 38.8382 404.653 39.2214 404.89 39.5078C405.133 39.7871 405.434 39.9912 405.792 40.1201C406.157 40.2419 406.533 40.3027 406.92 40.3027C407.385 40.3027 407.776 40.2419 408.091 40.1201C408.406 39.9912 408.646 39.8193 408.811 39.6045C408.975 39.3825 409.058 39.1318 409.058 38.8525ZM420.853 39.2607V30.377H423.452V42H421.003L420.853 39.2607ZM421.218 36.8438L422.088 36.8223C422.088 37.6029 422.002 38.3226 421.83 38.9814C421.658 39.6331 421.393 40.2025 421.035 40.6895C420.677 41.1693 420.219 41.5452 419.66 41.8174C419.102 42.0824 418.432 42.2148 417.651 42.2148C417.086 42.2148 416.566 42.1325 416.094 41.9678C415.621 41.8031 415.213 41.5488 414.869 41.2051C414.533 40.8613 414.271 40.4137 414.085 39.8623C413.899 39.3109 413.806 38.652 413.806 37.8857V30.377H416.395V37.9072C416.395 38.3298 416.445 38.6842 416.545 38.9707C416.645 39.25 416.781 39.4756 416.953 39.6475C417.125 39.8193 417.326 39.9411 417.555 40.0127C417.784 40.0843 418.027 40.1201 418.285 40.1201C419.023 40.1201 419.603 39.9769 420.025 39.6904C420.455 39.3968 420.759 39.0029 420.938 38.5088C421.125 38.0146 421.218 37.4596 421.218 36.8438ZM426.116 25.5H428.705V39.5186L428.458 42H426.116V25.5ZM436.289 36.0811V36.3066C436.289 37.166 436.192 37.9574 435.999 38.6807C435.813 39.3968 435.526 40.0199 435.14 40.5498C434.76 41.0798 434.287 41.4915 433.722 41.7852C433.163 42.0716 432.515 42.2148 431.777 42.2148C431.054 42.2148 430.424 42.0788 429.887 41.8066C429.35 41.5345 428.898 41.1478 428.533 40.6465C428.175 40.1452 427.885 39.5472 427.663 38.8525C427.441 38.1579 427.284 37.3916 427.19 36.5537V35.834C427.284 34.9889 427.441 34.2227 427.663 33.5352C427.885 32.8405 428.175 32.2425 428.533 31.7412C428.898 31.2327 429.346 30.8424 429.876 30.5703C430.413 30.2982 431.04 30.1621 431.756 30.1621C432.501 30.1621 433.156 30.3053 433.722 30.5918C434.295 30.8783 434.771 31.2865 435.15 31.8164C435.53 32.3392 435.813 32.9622 435.999 33.6855C436.192 34.4089 436.289 35.2074 436.289 36.0811ZM433.7 36.3066V36.0811C433.7 35.5583 433.657 35.0677 433.571 34.6094C433.485 34.1439 433.342 33.7357 433.142 33.3848C432.948 33.0339 432.683 32.7581 432.347 32.5576C432.017 32.3499 431.605 32.2461 431.111 32.2461C430.653 32.2461 430.259 32.3249 429.93 32.4824C429.6 32.64 429.325 32.8548 429.103 33.127C428.881 33.3991 428.705 33.7142 428.576 34.0723C428.454 34.4303 428.372 34.8171 428.329 35.2324V37.1768C428.394 37.7139 428.53 38.208 428.737 38.6592C428.952 39.1032 429.253 39.4613 429.64 39.7334C430.026 39.9984 430.524 40.1309 431.133 40.1309C431.613 40.1309 432.017 40.0342 432.347 39.8408C432.676 39.6475 432.938 39.3789 433.131 39.0352C433.331 38.6842 433.475 38.276 433.561 37.8105C433.654 37.3451 433.7 36.8438 433.7 36.3066ZM445.001 38.8525C445.001 38.5947 444.937 38.362 444.808 38.1543C444.679 37.9395 444.432 37.7461 444.066 37.5742C443.708 37.4023 443.178 37.2448 442.477 37.1016C441.861 36.9655 441.295 36.8044 440.779 36.6182C440.271 36.4248 439.834 36.1921 439.469 35.9199C439.104 35.6478 438.821 35.3255 438.62 34.9531C438.42 34.5807 438.319 34.151 438.319 33.6641C438.319 33.1914 438.423 32.7438 438.631 32.3213C438.839 31.8988 439.136 31.5264 439.522 31.2041C439.909 30.8818 440.378 30.6276 440.93 30.4414C441.488 30.2552 442.111 30.1621 442.799 30.1621C443.773 30.1621 444.607 30.3268 445.302 30.6562C446.004 30.9785 446.541 31.4189 446.913 31.9775C447.285 32.529 447.472 33.152 447.472 33.8467H444.883C444.883 33.5387 444.804 33.2523 444.646 32.9873C444.496 32.7152 444.267 32.4967 443.959 32.332C443.651 32.1602 443.264 32.0742 442.799 32.0742C442.355 32.0742 441.986 32.1458 441.692 32.2891C441.406 32.4251 441.191 32.6042 441.048 32.8262C440.912 33.0482 440.844 33.2917 440.844 33.5566C440.844 33.75 440.88 33.9255 440.951 34.083C441.03 34.2334 441.159 34.373 441.338 34.502C441.517 34.6237 441.76 34.7383 442.068 34.8457C442.383 34.9531 442.777 35.057 443.25 35.1572C444.138 35.3434 444.901 35.5833 445.538 35.877C446.183 36.1634 446.677 36.5358 447.021 36.9941C447.364 37.4453 447.536 38.0182 447.536 38.7129C447.536 39.2285 447.425 39.7012 447.203 40.1309C446.988 40.5534 446.673 40.9222 446.258 41.2373C445.842 41.5452 445.345 41.7852 444.765 41.957C444.192 42.1289 443.547 42.2148 442.831 42.2148C441.778 42.2148 440.887 42.0286 440.156 41.6562C439.426 41.2767 438.871 40.7933 438.491 40.2061C438.119 39.6117 437.933 38.9958 437.933 38.3584H440.436C440.464 38.8382 440.597 39.2214 440.833 39.5078C441.076 39.7871 441.377 39.9912 441.735 40.1201C442.101 40.2419 442.477 40.3027 442.863 40.3027C443.329 40.3027 443.719 40.2419 444.034 40.1201C444.349 39.9912 444.589 39.8193 444.754 39.6045C444.919 39.3825 445.001 39.1318 445.001 38.8525ZM454.551 40.1523C454.973 40.1523 455.353 40.07 455.689 39.9053C456.033 39.7334 456.309 39.4971 456.517 39.1963C456.731 38.8955 456.85 38.5482 456.871 38.1543H459.31C459.295 38.9062 459.073 39.5902 458.644 40.2061C458.214 40.8219 457.645 41.3125 456.936 41.6777C456.227 42.0358 455.442 42.2148 454.583 42.2148C453.695 42.2148 452.922 42.0645 452.263 41.7637C451.604 41.4557 451.056 41.0332 450.619 40.4961C450.182 39.959 449.853 39.3395 449.631 38.6377C449.416 37.9359 449.309 37.1839 449.309 36.3818V36.0059C449.309 35.2038 449.416 34.4518 449.631 33.75C449.853 33.041 450.182 32.418 450.619 31.8809C451.056 31.3438 451.604 30.9248 452.263 30.624C452.922 30.3161 453.691 30.1621 454.572 30.1621C455.503 30.1621 456.32 30.3483 457.021 30.7207C457.723 31.0859 458.275 31.598 458.676 32.2568C459.084 32.9085 459.295 33.6676 459.31 34.5342H456.871C456.85 34.1045 456.742 33.7178 456.549 33.374C456.363 33.0231 456.098 32.7438 455.754 32.5361C455.417 32.3285 455.013 32.2246 454.54 32.2246C454.017 32.2246 453.584 32.332 453.24 32.5469C452.896 32.7546 452.628 33.041 452.435 33.4062C452.241 33.7643 452.102 34.1689 452.016 34.6201C451.937 35.0641 451.897 35.526 451.897 36.0059V36.3818C451.897 36.8617 451.937 37.3271 452.016 37.7783C452.094 38.2295 452.23 38.6341 452.424 38.9922C452.624 39.3431 452.896 39.626 453.24 39.8408C453.584 40.0485 454.021 40.1523 454.551 40.1523ZM463.896 32.5898V42H461.308V30.377H463.778L463.896 32.5898ZM467.452 30.3018L467.431 32.708C467.273 32.6794 467.101 32.6579 466.915 32.6436C466.736 32.6292 466.557 32.6221 466.378 32.6221C465.934 32.6221 465.544 32.6865 465.207 32.8154C464.87 32.9372 464.588 33.1162 464.358 33.3525C464.136 33.5817 463.965 33.861 463.843 34.1904C463.721 34.5199 463.649 34.8887 463.628 35.2969L463.037 35.3398C463.037 34.6094 463.109 33.9326 463.252 33.3096C463.395 32.6865 463.61 32.1387 463.896 31.666C464.19 31.1934 464.555 30.8245 464.992 30.5596C465.436 30.2946 465.948 30.1621 466.528 30.1621C466.686 30.1621 466.854 30.1764 467.033 30.2051C467.219 30.2337 467.359 30.266 467.452 30.3018ZM471.846 30.377V42H469.246V30.377H471.846ZM469.074 27.3262C469.074 26.9323 469.203 26.6064 469.461 26.3486C469.726 26.0837 470.091 25.9512 470.557 25.9512C471.015 25.9512 471.377 26.0837 471.642 26.3486C471.907 26.6064 472.039 26.9323 472.039 27.3262C472.039 27.7129 471.907 28.0352 471.642 28.293C471.377 28.5508 471.015 28.6797 470.557 28.6797C470.091 28.6797 469.726 28.5508 469.461 28.293C469.203 28.0352 469.074 27.7129 469.074 27.3262ZM477.281 32.6113V46.4688H474.692V30.377H477.077L477.281 32.6113ZM484.854 36.0811V36.3066C484.854 37.1517 484.754 37.9359 484.554 38.6592C484.36 39.3753 484.07 40.002 483.684 40.5391C483.304 41.069 482.835 41.4808 482.276 41.7744C481.718 42.068 481.073 42.2148 480.343 42.2148C479.619 42.2148 478.986 42.0824 478.441 41.8174C477.904 41.5452 477.45 41.1621 477.077 40.668C476.705 40.1738 476.404 39.5938 476.175 38.9277C475.953 38.2546 475.795 37.5169 475.702 36.7148V35.8447C475.795 34.9925 475.953 34.2191 476.175 33.5244C476.404 32.8298 476.705 32.2318 477.077 31.7305C477.45 31.2292 477.904 30.8424 478.441 30.5703C478.979 30.2982 479.605 30.1621 480.321 30.1621C481.052 30.1621 481.7 30.3053 482.266 30.5918C482.831 30.8711 483.308 31.2721 483.694 31.7949C484.081 32.3105 484.371 32.9336 484.564 33.6641C484.758 34.3874 484.854 35.193 484.854 36.0811ZM482.266 36.3066V36.0811C482.266 35.5439 482.215 35.0462 482.115 34.5879C482.015 34.1224 481.857 33.7142 481.643 33.3633C481.428 33.0124 481.152 32.7402 480.815 32.5469C480.486 32.3464 480.089 32.2461 479.623 32.2461C479.165 32.2461 478.771 32.3249 478.441 32.4824C478.112 32.6328 477.836 32.8441 477.614 33.1162C477.392 33.3883 477.22 33.707 477.099 34.0723C476.977 34.4303 476.891 34.8206 476.841 35.2432V37.3271C476.927 37.8428 477.074 38.3154 477.281 38.7451C477.489 39.1748 477.783 39.5186 478.162 39.7764C478.549 40.027 479.043 40.1523 479.645 40.1523C480.11 40.1523 480.507 40.0521 480.837 39.8516C481.166 39.651 481.435 39.3753 481.643 39.0244C481.857 38.6663 482.015 38.2546 482.115 37.7891C482.215 37.3236 482.266 36.8294 482.266 36.3066ZM492.385 30.377V32.2676H485.832V30.377H492.385ZM487.723 27.5303H490.312V38.7881C490.312 39.1462 490.362 39.4219 490.462 39.6152C490.569 39.8014 490.716 39.9268 490.902 39.9912C491.089 40.0557 491.307 40.0879 491.558 40.0879C491.737 40.0879 491.909 40.0771 492.073 40.0557C492.238 40.0342 492.37 40.0127 492.471 39.9912L492.481 41.9678C492.267 42.0322 492.016 42.0895 491.729 42.1396C491.45 42.1898 491.128 42.2148 490.763 42.2148C490.168 42.2148 489.642 42.111 489.184 41.9033C488.725 41.6885 488.367 41.3411 488.109 40.8613C487.852 40.3815 487.723 39.7441 487.723 38.9492V27.5303ZM497.154 30.377V42H494.555V30.377H497.154ZM494.383 27.3262C494.383 26.9323 494.512 26.6064 494.77 26.3486C495.035 26.0837 495.4 25.9512 495.865 25.9512C496.324 25.9512 496.685 26.0837 496.95 26.3486C497.215 26.6064 497.348 26.9323 497.348 27.3262C497.348 27.7129 497.215 28.0352 496.95 28.293C496.685 28.5508 496.324 28.6797 495.865 28.6797C495.4 28.6797 495.035 28.5508 494.77 28.293C494.512 28.0352 494.383 27.7129 494.383 27.3262ZM499.496 36.3174V36.0703C499.496 35.2324 499.618 34.4554 499.861 33.7393C500.105 33.016 500.456 32.3893 500.914 31.8594C501.38 31.3223 501.945 30.9069 502.611 30.6133C503.285 30.3125 504.044 30.1621 504.889 30.1621C505.741 30.1621 506.5 30.3125 507.166 30.6133C507.839 30.9069 508.409 31.3223 508.874 31.8594C509.34 32.3893 509.694 33.016 509.938 33.7393C510.181 34.4554 510.303 35.2324 510.303 36.0703V36.3174C510.303 37.1553 510.181 37.9323 509.938 38.6484C509.694 39.3646 509.34 39.9912 508.874 40.5283C508.409 41.0583 507.843 41.4736 507.177 41.7744C506.511 42.068 505.755 42.2148 504.91 42.2148C504.058 42.2148 503.295 42.068 502.622 41.7744C501.956 41.4736 501.39 41.0583 500.925 40.5283C500.459 39.9912 500.105 39.3646 499.861 38.6484C499.618 37.9323 499.496 37.1553 499.496 36.3174ZM502.085 36.0703V36.3174C502.085 36.8402 502.139 37.3343 502.246 37.7998C502.354 38.2653 502.522 38.6735 502.751 39.0244C502.98 39.3753 503.274 39.651 503.632 39.8516C503.99 40.0521 504.416 40.1523 504.91 40.1523C505.39 40.1523 505.805 40.0521 506.156 39.8516C506.514 39.651 506.808 39.3753 507.037 39.0244C507.266 38.6735 507.435 38.2653 507.542 37.7998C507.657 37.3343 507.714 36.8402 507.714 36.3174V36.0703C507.714 35.5547 507.657 35.0677 507.542 34.6094C507.435 34.1439 507.263 33.7321 507.026 33.374C506.797 33.016 506.504 32.7367 506.146 32.5361C505.795 32.3285 505.376 32.2246 504.889 32.2246C504.402 32.2246 503.979 32.3285 503.621 32.5361C503.27 32.7367 502.98 33.016 502.751 33.374C502.522 33.7321 502.354 34.1439 502.246 34.6094C502.139 35.0677 502.085 35.5547 502.085 36.0703ZM515.04 32.8584V42H512.451V30.377H514.89L515.04 32.8584ZM514.578 35.7588L513.74 35.748C513.747 34.9245 513.862 34.1689 514.084 33.4814C514.313 32.7939 514.628 32.2031 515.029 31.709C515.438 31.2148 515.924 30.8353 516.49 30.5703C517.056 30.2982 517.686 30.1621 518.381 30.1621C518.939 30.1621 519.444 30.2409 519.896 30.3984C520.354 30.5488 520.744 30.7959 521.066 31.1396C521.396 31.4834 521.646 31.931 521.818 32.4824C521.99 33.0267 522.076 33.6963 522.076 34.4912V42H519.477V34.4805C519.477 33.9219 519.394 33.4814 519.229 33.1592C519.072 32.8298 518.839 32.597 518.531 32.4609C518.23 32.3177 517.854 32.2461 517.403 32.2461C516.959 32.2461 516.562 32.3392 516.211 32.5254C515.86 32.7116 515.563 32.9658 515.319 33.2881C515.083 33.6104 514.9 33.9827 514.771 34.4053C514.643 34.8278 514.578 35.279 514.578 35.7588ZM98.1035 58.377V70H95.5039V58.377H98.1035ZM95.332 55.3262C95.332 54.9323 95.4609 54.6064 95.7188 54.3486C95.9837 54.0837 96.349 53.9512 96.8145 53.9512C97.2728 53.9512 97.6344 54.0837 97.8994 54.3486C98.1644 54.6064 98.2969 54.9323 98.2969 55.3262C98.2969 55.7129 98.1644 56.0352 97.8994 56.293C97.6344 56.5508 97.2728 56.6797 96.8145 56.6797C96.349 56.6797 95.9837 56.5508 95.7188 56.293C95.4609 56.0352 95.332 55.7129 95.332 55.3262ZM103.507 60.8584V70H100.918V58.377H103.356L103.507 60.8584ZM103.045 63.7588L102.207 63.748C102.214 62.9245 102.329 62.1689 102.551 61.4814C102.78 60.7939 103.095 60.2031 103.496 59.709C103.904 59.2148 104.391 58.8353 104.957 58.5703C105.523 58.2982 106.153 58.1621 106.848 58.1621C107.406 58.1621 107.911 58.2409 108.362 58.3984C108.821 58.5488 109.211 58.7959 109.533 59.1396C109.863 59.4834 110.113 59.931 110.285 60.4824C110.457 61.0267 110.543 61.6963 110.543 62.4912V70H107.943V62.4805C107.943 61.9219 107.861 61.4814 107.696 61.1592C107.539 60.8298 107.306 60.597 106.998 60.4609C106.697 60.3177 106.321 60.2461 105.87 60.2461C105.426 60.2461 105.029 60.3392 104.678 60.5254C104.327 60.7116 104.03 60.9658 103.786 61.2881C103.55 61.6104 103.367 61.9827 103.238 62.4053C103.109 62.8278 103.045 63.279 103.045 63.7588ZM121.264 60.6113V74.4688H118.675V58.377H121.06L121.264 60.6113ZM128.837 64.0811V64.3066C128.837 65.1517 128.737 65.9359 128.536 66.6592C128.343 67.3753 128.053 68.002 127.666 68.5391C127.286 69.069 126.817 69.4808 126.259 69.7744C125.7 70.068 125.056 70.2148 124.325 70.2148C123.602 70.2148 122.968 70.0824 122.424 69.8174C121.887 69.5452 121.432 69.1621 121.06 68.668C120.687 68.1738 120.386 67.5938 120.157 66.9277C119.935 66.2546 119.778 65.5169 119.685 64.7148V63.8447C119.778 62.9925 119.935 62.2191 120.157 61.5244C120.386 60.8298 120.687 60.2318 121.06 59.7305C121.432 59.2292 121.887 58.8424 122.424 58.5703C122.961 58.2982 123.588 58.1621 124.304 58.1621C125.034 58.1621 125.682 58.3053 126.248 58.5918C126.814 58.8711 127.29 59.2721 127.677 59.7949C128.063 60.3105 128.354 60.9336 128.547 61.6641C128.74 62.3874 128.837 63.193 128.837 64.0811ZM126.248 64.3066V64.0811C126.248 63.5439 126.198 63.0462 126.098 62.5879C125.997 62.1224 125.84 61.7142 125.625 61.3633C125.41 61.0124 125.134 60.7402 124.798 60.5469C124.468 60.3464 124.071 60.2461 123.605 60.2461C123.147 60.2461 122.753 60.3249 122.424 60.4824C122.094 60.6328 121.819 60.8441 121.597 61.1162C121.375 61.3883 121.203 61.707 121.081 62.0723C120.959 62.4303 120.873 62.8206 120.823 63.2432V65.3271C120.909 65.8428 121.056 66.3154 121.264 66.7451C121.471 67.1748 121.765 67.5186 122.145 67.7764C122.531 68.027 123.025 68.1523 123.627 68.1523C124.092 68.1523 124.49 68.0521 124.819 67.8516C125.149 67.651 125.417 67.3753 125.625 67.0244C125.84 66.6663 125.997 66.2546 126.098 65.7891C126.198 65.3236 126.248 64.8294 126.248 64.3066ZM133.811 53.5V70H131.211V53.5H133.811ZM143.199 67.6689V62.126C143.199 61.7106 143.124 61.3525 142.974 61.0518C142.823 60.751 142.594 60.5182 142.286 60.3535C141.985 60.1888 141.606 60.1064 141.147 60.1064C140.725 60.1064 140.36 60.1781 140.052 60.3213C139.744 60.4645 139.504 60.6579 139.332 60.9014C139.16 61.1449 139.074 61.4206 139.074 61.7285H136.496C136.496 61.2702 136.607 60.8262 136.829 60.3965C137.051 59.9668 137.373 59.5837 137.796 59.2471C138.218 58.9105 138.723 58.6455 139.311 58.4521C139.898 58.2588 140.557 58.1621 141.287 58.1621C142.161 58.1621 142.934 58.3089 143.607 58.6025C144.288 58.8962 144.821 59.3402 145.208 59.9346C145.602 60.5218 145.799 61.2594 145.799 62.1475V67.3145C145.799 67.8444 145.835 68.3206 145.906 68.7432C145.985 69.1585 146.096 69.5202 146.239 69.8281V70H143.586C143.464 69.7207 143.368 69.3662 143.296 68.9365C143.231 68.4997 143.199 68.0771 143.199 67.6689ZM143.575 62.9316L143.597 64.5322H141.738C141.258 64.5322 140.836 64.5788 140.471 64.6719C140.105 64.7578 139.801 64.8867 139.558 65.0586C139.314 65.2305 139.132 65.4382 139.01 65.6816C138.888 65.9251 138.827 66.2008 138.827 66.5088C138.827 66.8167 138.899 67.0996 139.042 67.3574C139.185 67.6081 139.393 67.805 139.665 67.9482C139.944 68.0915 140.281 68.1631 140.675 68.1631C141.205 68.1631 141.667 68.0557 142.061 67.8408C142.462 67.6188 142.777 67.3503 143.006 67.0352C143.235 66.7129 143.357 66.4085 143.371 66.1221L144.209 67.2715C144.123 67.5651 143.976 67.8802 143.769 68.2168C143.561 68.5534 143.289 68.8757 142.952 69.1836C142.623 69.4844 142.225 69.7314 141.76 69.9248C141.301 70.1182 140.771 70.2148 140.17 70.2148C139.411 70.2148 138.734 70.0645 138.14 69.7637C137.545 69.4557 137.08 69.0439 136.743 68.5283C136.407 68.0055 136.238 67.4147 136.238 66.7559C136.238 66.14 136.353 65.5957 136.582 65.123C136.818 64.6432 137.162 64.2422 137.613 63.9199C138.072 63.5977 138.63 63.3542 139.289 63.1895C139.948 63.0176 140.7 62.9316 141.545 62.9316H143.575ZM153.254 68.1523C153.676 68.1523 154.056 68.07 154.393 67.9053C154.736 67.7334 155.012 67.4971 155.22 67.1963C155.435 66.8955 155.553 66.5482 155.574 66.1543H158.013C157.998 66.9062 157.776 67.5902 157.347 68.2061C156.917 68.8219 156.348 69.3125 155.639 69.6777C154.93 70.0358 154.146 70.2148 153.286 70.2148C152.398 70.2148 151.625 70.0645 150.966 69.7637C150.307 69.4557 149.759 69.0332 149.322 68.4961C148.885 67.959 148.556 67.3395 148.334 66.6377C148.119 65.9359 148.012 65.1839 148.012 64.3818V64.0059C148.012 63.2038 148.119 62.4518 148.334 61.75C148.556 61.041 148.885 60.418 149.322 59.8809C149.759 59.3438 150.307 58.9248 150.966 58.624C151.625 58.3161 152.395 58.1621 153.275 58.1621C154.206 58.1621 155.023 58.3483 155.725 58.7207C156.426 59.0859 156.978 59.598 157.379 60.2568C157.787 60.9085 157.998 61.6676 158.013 62.5342H155.574C155.553 62.1045 155.445 61.7178 155.252 61.374C155.066 61.0231 154.801 60.7438 154.457 60.5361C154.12 60.3285 153.716 60.2246 153.243 60.2246C152.72 60.2246 152.287 60.332 151.943 60.5469C151.6 60.7546 151.331 61.041 151.138 61.4062C150.944 61.7643 150.805 62.1689 150.719 62.6201C150.64 63.0641 150.601 63.526 150.601 64.0059V64.3818C150.601 64.8617 150.64 65.3271 150.719 65.7783C150.798 66.2295 150.934 66.6341 151.127 66.9922C151.327 67.3431 151.6 67.626 151.943 67.8408C152.287 68.0485 152.724 68.1523 153.254 68.1523ZM165.124 70.2148C164.265 70.2148 163.488 70.0752 162.793 69.7959C162.105 69.5094 161.518 69.112 161.031 68.6035C160.551 68.0951 160.183 67.4971 159.925 66.8096C159.667 66.1221 159.538 65.3809 159.538 64.5859V64.1562C159.538 63.2467 159.671 62.4232 159.936 61.6855C160.201 60.9479 160.569 60.3177 161.042 59.7949C161.515 59.265 162.073 58.8604 162.718 58.5811C163.362 58.3018 164.061 58.1621 164.812 58.1621C165.643 58.1621 166.37 58.3018 166.993 58.5811C167.616 58.8604 168.132 59.2542 168.54 59.7627C168.955 60.264 169.263 60.862 169.464 61.5566C169.672 62.2513 169.775 63.0176 169.775 63.8555V64.9619H160.795V63.1035H167.219V62.8994C167.204 62.4339 167.111 61.9971 166.939 61.5889C166.775 61.1807 166.521 60.8512 166.177 60.6006C165.833 60.3499 165.375 60.2246 164.802 60.2246C164.372 60.2246 163.989 60.3177 163.652 60.5039C163.323 60.6829 163.047 60.9443 162.825 61.2881C162.603 61.6318 162.431 62.0472 162.31 62.5342C162.195 63.014 162.138 63.5547 162.138 64.1562V64.5859C162.138 65.0944 162.206 65.5671 162.342 66.0039C162.485 66.4336 162.693 66.8096 162.965 67.1318C163.237 67.4541 163.566 67.7083 163.953 67.8945C164.34 68.0736 164.78 68.1631 165.274 68.1631C165.897 68.1631 166.452 68.0378 166.939 67.7871C167.426 67.5365 167.849 67.182 168.207 66.7236L169.571 68.0449C169.321 68.4102 168.995 68.7611 168.594 69.0977C168.193 69.4271 167.702 69.6956 167.122 69.9033C166.549 70.111 165.883 70.2148 165.124 70.2148Z" fill="white"/>
<defs>
<filter id="filter0_d_156_2707" x="11.8771" y="9.34583" width="80.6" height="80.6" filterUnits="userSpaceOnUse" color-interpolation-filters="sRGB">
<feFlood flood-opacity="0" result="BackgroundImageFix"/>
<feColorMatrix in="SourceAlpha" type="matrix" values="0 0 0 0 0 0 0 0 0 0 0 0 0 0 0 0 0 0 127 0" result="hardAlpha"/>
<feOffset dx="-0.822917" dy="1.64583"/>
<feGaussianBlur stdDeviation="7.65"/>
<feColorMatrix type="matrix" values="0 0 0 0 0.247059 0 0 0 0 0.8 0 0 0 0 0.988235 0 0 0 0.24 0"/>
<feBlend mode="normal" in2="BackgroundImageFix" result="effect1_dropShadow_156_2707"/>
<feBlend mode="normal" in="SourceGraphic" in2="effect1_dropShadow_156_2707" result="shape"/>
</filter>
<linearGradient id="paint0_linear_156_2707" x1="0" y1="0" x2="606.224" y2="66.7031" gradientUnits="userSpaceOnUse">
<stop stop-color="#38DBFF"/>
<stop offset="1" stop-color="#228499"/>
</linearGradient>
</defs>
</svg>
