<svg width="56" height="56" viewBox="0 0 56 56" fill="none" xmlns="http://www.w3.org/2000/svg">
<rect width="56" height="56" rx="12" fill="url(#paint0_linear_934_888)" fill-opacity="0.9"/>
<g clip-path="url(#clip0_934_888)">
<path fill-rule="evenodd" clip-rule="evenodd" d="M22 24C22 22.4087 22.6321 20.8826 23.7574 19.7574C24.8826 18.6321 26.4087 18 28 18C29.5913 18 31.1174 18.6321 32.2426 19.7574C33.3679 20.8826 34 22.4087 34 24H35C35.5304 24 36.0391 24.2107 36.4142 24.5858C36.7893 24.9609 37 25.4696 37 26V36C37 36.5304 36.7893 37.0391 36.4142 37.4142C36.0391 37.7893 35.5304 38 35 38H21C20.4696 38 19.9609 37.7893 19.5858 37.4142C19.2107 37.0391 19 36.5304 19 36V26C19 25.4696 19.2107 24.9609 19.5858 24.5858C19.9609 24.2107 20.4696 24 21 24H22ZM28 20C29.0609 20 30.0783 20.4214 30.8284 21.1716C31.5786 21.9217 32 22.9391 32 24H24C24 22.9391 24.4214 21.9217 25.1716 21.1716C25.9217 20.4214 26.9391 20 28 20ZM30 30C30 30.3511 29.9076 30.6959 29.732 31C29.5565 31.304 29.304 31.5565 29 31.732V33C29 33.2652 28.8946 33.5196 28.7071 33.7071C28.5196 33.8946 28.2652 34 28 34C27.7348 34 27.4804 33.8946 27.2929 33.7071C27.1054 33.5196 27 33.2652 27 33V31.732C26.6187 31.5119 26.3208 31.1721 26.1523 30.7653C25.9838 30.3586 25.9543 29.9076 26.0682 29.4824C26.1822 29.0571 26.4333 28.6813 26.7825 28.4133C27.1318 28.1453 27.5597 28 28 28C28.5304 28 29.0391 28.2107 29.4142 28.5858C29.7893 28.9609 30 29.4696 30 30Z" fill="white"/>
</g>
<defs>
<linearGradient id="paint0_linear_934_888" x1="33.1852" y1="-10.1874" x2="45.6036" y2="53.5816" gradientUnits="userSpaceOnUse">
<stop offset="0.168198" stop-color="#FF9DC8"/>
<stop offset="0.984375" stop-color="#EB2B7E"/>
</linearGradient>
<clipPath id="clip0_934_888">
<rect width="24" height="24" fill="white" transform="translate(16 16)"/>
</clipPath>
</defs>
</svg>
