<svg width="1280" height="480" viewBox="0 0 1280 480" fill="none" xmlns="http://www.w3.org/2000/svg">
<path d="M336.171 146.041H378.936C396.332 146.041 410.096 158.455 410.096 175.343C410.096 188.933 400.526 201.333 385.55 204.035L411.849 240.48H400.245L374.354 204.577H346.284V240.48H336.171V146.035V146.041ZM346.284 154.816V195.816H376.374C392.433 195.816 399.99 187.321 399.99 175.349C399.99 162.374 391.356 154.816 376.374 154.816H346.284Z" fill="white"/>
<path d="M513.377 146.041V154.816H456.059V188.94H506.087V197.581H456.059V231.718H513.377V240.493H445.926V146.048H513.377V146.041Z" fill="white"/>
<path d="M547.166 146.041H585.456C602.866 146.041 616.624 158.455 616.624 175.343C616.624 190.799 604.23 204.584 585.604 204.584H557.279V240.486H547.166V146.041ZM557.279 154.816V195.815H582.888C598.967 195.815 606.518 187.321 606.518 175.349C606.518 162.234 597.749 154.816 582.888 154.816H557.279Z" fill="white"/>
<path d="M645.456 192.986C645.456 165.457 668.129 144.677 695.11 144.677C722.09 144.677 744.616 165.879 744.616 192.986C744.616 220.094 721.943 241.824 694.976 241.824C667.728 241.958 645.449 220.1 645.449 192.986H645.456ZM695.116 233.062C716.84 233.062 734.524 214.295 734.524 192.986C734.524 171.677 716.84 153.485 695.116 153.485C673.393 153.485 655.582 171.53 655.582 192.986C655.582 214.442 673.246 233.062 695.116 233.062Z" fill="white"/>
<path d="M780.741 146.041H823.533C840.929 146.041 854.687 158.455 854.687 175.343C854.687 188.933 845.116 201.333 830.121 204.035L856.432 240.48H844.835L818.938 204.577H790.867V240.48H780.734V146.035L780.741 146.041ZM790.874 154.816V195.816H820.958C837.03 195.816 844.567 187.321 844.567 175.349C844.567 162.374 835.933 154.816 820.958 154.816H790.874Z" fill="white"/>
<path d="M878.691 154.816V146.041H952.891V154.816H920.767V240.486H910.675V154.816H878.698H878.691Z" fill="white"/>
<path d="M993.929 240.486H983.85V146.041H993.929V240.486Z" fill="white"/>
<path d="M1036.09 146.041H1047.58L1106.93 227.538V146.041H1117.06V240.486H1104.64L1046.24 159.939V240.486H1036.09V146.041Z" fill="white"/>
<path d="M1153.1 193.521C1153.1 166.166 1175.77 144.677 1202.74 144.677C1216.77 144.677 1230.12 150.482 1239.56 161.01L1232.82 167.096C1225.28 158.869 1215.71 153.492 1202.74 153.492C1180.89 153.492 1163.21 172.199 1163.21 193.528C1163.21 214.857 1181.17 233.069 1202.88 233.069C1213.94 233.069 1222.15 229.257 1228.65 223.465V199.053H1194.92V190.451H1238.75V225.752C1230.38 236.433 1216.76 241.831 1202.73 241.831C1175.36 241.831 1153.09 220.642 1153.09 193.535L1153.1 193.521Z" fill="white"/>
<path d="M358.71 303.195L358.858 341.359H402.565V303.195H425.239V397.641H402.565V359.564H358.858V397.641H336.171V303.195H358.71Z" fill="white"/>
<path d="M460.854 361.337V303.189H483.513V361.477C483.513 371.871 490.148 380.753 502.401 380.753C514.654 380.753 521.456 371.871 521.456 361.477L521.309 303.189H543.969L544.089 361.477C544.089 386.05 524.814 399.105 502.568 399.105C480.323 399.105 460.854 386.05 460.854 361.33V361.337Z" fill="white"/>
<path d="M629.452 303.195C653.336 303.195 663.863 314.405 663.863 327.608C663.863 336.784 659.141 344.208 651.303 347.86C660.064 350.281 667.221 357.986 667.221 369.717C667.221 385.889 655.77 397.647 632.274 397.647H579.678V303.202H629.452V303.195ZM602.338 321.548V341.118H628.382C637.812 341.118 641.477 336.784 641.477 331.139C641.477 325.494 637.143 321.548 628.382 321.548H602.338ZM602.338 357.832V379.261H630.81C639.692 379.261 644.561 375.101 644.561 368.359C644.561 361.617 639.692 357.832 631.05 357.832H602.331H602.338Z" fill="white"/>
<path d="M126.657 40.0046V374.707C125.552 386.605 121.489 403.01 107.481 411.128L62.0159 437.312C61.9292 437.312 61.9292 437.412 61.8379 437.412L58.7058 439.239C57.2265 439.805 55.6605 440.07 54.0031 440.07C46.9035 440.07 41 434.271 41 427.076V112.202C41 111.28 41 110.449 41.0913 109.526C41 109.435 41 109.248 41.0913 109.157C41.2694 107.687 41.3698 106.116 41.7396 104.733C41.9131 103.902 42.2875 102.979 42.7441 102.24C43.4837 100.952 44.511 99.66 45.7027 98.7377C45.794 98.5551 45.9766 98.3679 46.1638 98.2766H46.2506C46.351 98.1853 46.5336 98.0894 46.6204 97.9981C47.2641 97.537 47.917 97.0758 48.7434 96.7973C48.8348 96.7151 49.0265 96.6147 49.2046 96.6147C49.3963 96.5279 49.5744 96.4275 49.6657 96.4275C51.0491 95.875 52.5284 95.6057 54.099 95.6057H54.3775C55.9435 95.6057 57.4091 95.875 58.7058 96.5279L47.0907 89.6109C50.1268 84.1686 54.2771 79.4659 59.1715 75.786C59.2537 75.6855 59.345 75.6855 59.4454 75.6033C59.7194 75.4116 60.0846 75.1331 60.3631 74.9504L68.0198 70.6176L115.316 43.5065C115.316 43.5065 115.316 43.4151 115.407 43.4151L117.991 41.9404C120.58 40.6529 123.338 40 126.388 40H126.662L126.657 40.0046Z" fill="url(#paint0_linear_107_344)"/>
<path d="M275.188 132.401V181.167C274.275 193.065 270.029 209.474 256.108 217.496L210.744 243.685L207.237 245.703C205.767 246.265 204.297 246.543 202.626 246.543C195.531 246.543 189.723 240.74 189.723 233.444V182.053C189.723 177.218 187.174 172.742 183.017 170.274L126.652 136.82L125.913 136.355L62.2944 98.6464L58.6966 96.5279C57.3999 95.875 55.9344 95.6057 54.3683 95.6057H54.0898C52.5192 95.6057 51.0399 95.875 49.6565 96.4275C49.5652 96.4275 49.3871 96.5279 49.1954 96.6147C49.0173 96.6147 48.8256 96.7151 48.7342 96.7973C47.9078 97.0758 47.255 97.537 46.6112 97.9981C46.5245 98.0894 46.3418 98.1853 46.2414 98.2766H46.1546C45.9674 98.3679 45.7848 98.5551 45.6935 98.7377C44.5018 99.66 43.4745 100.952 42.7349 102.24C42.2783 102.979 41.904 103.902 41.7305 104.732C42.5614 99.1989 44.406 94.2177 47.0815 89.6155C50.1176 84.1732 54.2679 79.4705 59.1623 75.7905C59.2445 75.6901 59.3358 75.6901 59.4362 75.6079L68.0106 70.8048L69.7639 69.7912L115.307 43.511C115.307 43.511 115.307 43.4197 115.398 43.4197L117.982 41.945C120.571 40.6575 123.329 40.0046 126.379 40.0046H126.652C129.972 40.105 133.013 40.9268 135.688 42.4061L267.363 120.493C267.637 120.594 267.902 120.786 268.276 120.964L269.755 121.886C269.938 121.973 270.029 122.068 270.212 122.164C271.518 123.269 272.613 124.47 273.444 126.031C274.641 127.881 275.188 130.095 275.188 132.405V132.401Z" fill="url(#paint1_linear_107_344)"/>
<path d="M228.66 294.634C228.6 294.69 202.622 309.611 193.12 315.068C190.994 316.29 189.691 318.55 189.691 321.002V427.034C189.691 434.244 195.54 440.101 202.676 440.101C204.356 440.101 205.941 439.796 207.47 439.17C207.539 439.17 207.63 439.106 207.694 439.106L210.351 437.513C210.4 437.513 210.452 437.49 210.506 437.444L267.012 405.078C267.012 405.078 267.103 405 267.162 405L269.536 403.631C269.669 403.548 269.829 403.471 269.966 403.316C271.262 402.343 272.408 401.124 273.239 399.759C273.33 399.677 273.399 399.526 273.481 399.444C274.618 397.549 275.225 395.289 275.225 392.924V326.598C275.225 286.032 254.406 279.663 228.655 294.634H228.66Z" fill="url(#paint2_linear_107_344)"/>
<path d="M1150.9 59.0511V54.3636H1183.62V59.0511H1169.9V98H1164.62V59.0511H1150.9ZM1191.78 54.3636H1198.09L1212.92 90.5852H1213.43L1228.26 54.3636H1234.56V98H1229.62V64.8466H1229.19L1215.56 98H1210.79L1197.15 64.8466H1196.72V98H1191.78V54.3636Z" fill="white"/>
<defs>
<linearGradient id="paint0_linear_107_344" x1="83.8263" y1="387.176" x2="83.8263" y2="106.664" gradientUnits="userSpaceOnUse">
<stop stop-color="#22A4F7"/>
<stop offset="0.625" stop-color="#6C6EF3"/>
<stop offset="1" stop-color="#5E2C8F"/>
</linearGradient>
<linearGradient id="paint1_linear_107_344" x1="158.462" y1="14.8384" x2="539.524" y2="643.59" gradientUnits="userSpaceOnUse">
<stop stop-color="#29ABFF"/>
<stop offset="0.0285072" stop-color="#7BCAFF"/>
<stop offset="0.179414" stop-color="#6DBDFF"/>
<stop offset="0.210024" stop-color="#8FCBFF"/>
<stop offset="0.234769" stop-color="#63B2FF"/>
<stop offset="0.322145" stop-color="#4D84F4"/>
<stop offset="0.498691" stop-color="#C729ED"/>
</linearGradient>
<linearGradient id="paint2_linear_107_344" x1="232.463" y1="13.455" x2="232.463" y2="881.066" gradientUnits="userSpaceOnUse">
<stop stop-color="#22A4F7"/>
<stop offset="1" stop-color="#C729ED"/>
</linearGradient>
</defs>
</svg>
