<svg width="236" height="401" viewBox="0 0 236 401" fill="none" xmlns="http://www.w3.org/2000/svg">
<path d="M86.5467 0.0045657V334.707C85.4418 346.605 81.3784 363.01 67.3708 371.128L21.9056 397.312C21.8188 397.312 21.8188 397.412 21.7275 397.412L18.5954 399.239C17.1162 399.805 15.5501 400.07 13.8928 400.07C6.79312 400.07 0.889648 394.271 0.889648 387.076V72.202C0.889648 71.2797 0.889654 70.4488 0.980968 69.5265C0.889654 69.4352 0.889654 69.248 0.980968 69.1567C1.15903 67.6865 1.25947 66.1159 1.62929 64.7325C1.80279 63.9015 2.17718 62.9793 2.63375 62.2396C3.37339 60.9521 4.40067 59.66 5.59231 58.7377C5.68363 58.5551 5.86626 58.3679 6.05345 58.2766H6.1402C6.24065 58.1853 6.42328 58.0894 6.51002 57.9981C7.15379 57.537 7.80669 57.0758 8.63309 56.7973C8.7244 56.7151 8.91616 56.6147 9.09423 56.6147C9.28599 56.5279 9.46405 56.4275 9.55537 56.4275C10.9388 55.875 12.418 55.6057 13.9886 55.6057H14.2671C15.8332 55.6057 17.2988 55.875 18.5954 56.5279L6.9803 49.6109C10.0165 44.1686 14.1667 39.4659 19.0611 35.786C19.1433 35.6855 19.2346 35.6855 19.3351 35.6033C19.609 35.4116 19.9743 35.1331 20.2528 34.9504L27.9095 30.6176L75.2056 3.50646C75.2056 3.50646 75.2056 3.41514 75.2969 3.41514L77.8811 1.94042C80.4698 0.652895 83.2275 0 86.2774 0H86.5513L86.5467 0.0045657Z" fill="white"/>
<path d="M235.078 92.4006V141.167C234.165 153.065 229.919 169.474 215.998 177.496L170.633 203.685L167.127 205.703C165.657 206.265 164.186 206.543 162.515 206.543C155.42 206.543 149.613 200.74 149.613 193.444V142.053C149.613 137.218 147.064 132.742 142.907 130.274L86.5421 96.8202L85.8025 96.3545L22.184 58.6464L18.5862 56.5279C17.2896 55.875 15.824 55.6056 14.258 55.6056H13.9795C12.4089 55.6056 10.9296 55.875 9.54617 56.4274C9.45485 56.4274 9.27679 56.5279 9.08503 56.6146C8.90696 56.6146 8.7152 56.7151 8.62389 56.7973C7.79749 57.0758 7.14462 57.5369 6.50085 57.998C6.4141 58.0894 6.23148 58.1852 6.13103 58.2766H6.04428C5.85709 58.3679 5.67446 58.5551 5.58314 58.7377C4.39149 59.66 3.36419 60.9521 2.62455 62.2396C2.16798 62.9792 1.79361 63.9015 1.62012 64.7325C2.45107 59.1988 4.2956 54.2176 6.97111 49.6154C10.0073 44.1731 14.1575 39.4704 19.052 35.7905C19.1341 35.69 19.2254 35.69 19.3259 35.6079L27.9003 30.8047L29.6535 29.7911L75.1964 3.51097C75.1964 3.51097 75.1964 3.41966 75.2877 3.41966L77.8719 1.94494C80.4606 0.657412 83.2183 0.0045166 86.2682 0.0045166H86.5421C89.8614 0.104962 92.9022 0.926788 95.5777 2.40608L227.252 80.4932C227.526 80.5937 227.791 80.7855 228.166 80.9635L229.645 81.8858C229.828 81.9725 229.919 82.0684 230.101 82.1643C231.407 83.2692 232.503 84.47 233.334 86.0314C234.53 87.8806 235.078 90.0949 235.078 92.4052V92.4006Z" fill="white"/>
<path d="M188.549 254.634C188.49 254.69 162.512 269.611 153.01 275.068C150.883 276.29 149.581 278.55 149.581 281.002V387.034C149.581 394.244 155.43 400.101 162.566 400.101C164.246 400.101 165.83 399.796 167.36 399.17C167.428 399.17 167.52 399.106 167.584 399.106L170.241 397.513C170.29 397.513 170.341 397.49 170.396 397.444L226.901 365.078C226.901 365.078 226.992 365 227.052 365L229.426 363.631C229.558 363.548 229.718 363.471 229.855 363.316C231.152 362.343 232.298 361.124 233.129 359.759C233.22 359.677 233.289 359.526 233.371 359.444C234.508 357.549 235.115 355.289 235.115 352.924V286.598C235.115 246.032 214.295 239.663 188.545 254.634H188.549Z" fill="white"/>
</svg>
