<svg width="338" height="383" viewBox="0 0 338 383" fill="none" xmlns="http://www.w3.org/2000/svg">
<path fill-rule="evenodd" clip-rule="evenodd" d="M90.943 260.589C96.7772 265.504 101.564 271.616 104.449 278.69C107.292 285.678 108.745 293.286 108.745 301.429V325.749C44.6748 301.343 -0.674419 238.919 0.308646 166.043C1.52679 75.7725 74.9788 1.80758 165.25 0.0337939C247.314 -1.5904 316.321 55.5128 333.119 132.171H315.894C298.113 132.171 281.722 122.703 272.724 107.38C251.204 70.7076 210.834 46.4302 164.929 47.8193C101.906 49.7213 50.4236 100.883 48.1369 163.885C46.7264 202.695 63.6522 237.572 90.943 260.589ZM337.008 168.223C337.008 161.598 331.537 156.298 324.933 156.298H203.204C201.152 150.399 197.626 145.163 193.074 141.081L209.722 112.252C211.667 112.466 213.697 112.38 215.813 111.889C223.122 110.222 228.849 104.152 229.982 96.7366C231.884 84.1919 221.177 73.5491 208.589 75.5794C200.96 76.8189 194.784 82.9096 193.459 90.5177C192.518 95.8604 193.908 100.883 196.729 104.751L180.081 133.58C176.49 132.405 172.643 131.764 168.668 131.764C164.693 131.764 160.847 132.405 157.256 133.58L148.345 118.129C150.033 115.223 150.781 111.718 150.183 107.999C149.157 101.673 143.964 96.587 137.616 95.6467C126.653 94.0225 117.506 104.195 120.99 115.372C122.913 121.548 128.833 125.63 135.308 125.63H135.351L144.284 141.103C136.804 147.813 132.081 157.537 132.081 168.372C132.081 169.035 132.103 169.718 132.145 170.381L104.149 177.882C100.88 173.864 95.9858 171.236 90.4507 171.022C80.3422 170.659 71.5374 178.887 71.2596 188.995C70.9817 199.104 79.3592 208.037 89.7668 208.037C99.0205 208.037 106.671 201.262 108.06 192.414L136.056 184.913C141.014 194.658 150.183 201.903 161.189 204.19V252.616C151.7 256.014 145.182 265.653 146.571 276.595C147.853 286.639 156.081 294.717 166.147 295.85C179.653 297.367 191.087 286.853 191.087 273.646C191.087 263.943 184.91 255.694 176.277 252.616V204.19C180.786 203.25 184.996 201.476 188.736 199.018L201.366 211.648C200.853 213.572 200.704 215.666 201.024 217.803C202.007 224.599 207.713 229.963 214.552 230.583C224.169 231.438 232.119 223.253 230.879 213.593C230.003 206.818 224.425 201.348 217.629 200.6C215.663 200.386 213.783 200.535 212.009 201.027L199.379 188.397C200.981 185.939 202.285 183.268 203.268 180.447H288.688C285.504 212.567 269.732 240.991 246.352 260.673C240.539 265.567 235.795 271.679 232.931 278.732C230.067 285.784 228.635 293.328 228.635 301.449V325.769C292.043 301.62 337.093 240.264 337.093 168.372V168.244L337.008 168.223ZM108.747 325.749V334.704C108.747 359.815 128.045 380.545 153.092 382.361C158.242 382.724 163.436 382.917 168.65 382.917C173.865 382.917 179.058 382.724 184.208 382.361C209.255 380.566 228.553 359.815 228.553 334.704V325.749C209.939 332.845 189.743 336.713 168.65 336.713C147.557 336.713 127.361 332.823 108.747 325.749Z" fill="white"/>
</svg>
