<svg width="56" height="56" viewBox="0 0 56 56" fill="none" xmlns="http://www.w3.org/2000/svg">
<rect x="0.5" y="0.5" width="55" height="55" rx="27.5" stroke="url(#paint0_linear_1380_28046)"/>
<path d="M27.6193 37.2386C26.483 37.2386 25.4659 37.0256 24.5682 36.5994C23.6705 36.1676 22.9574 35.5767 22.429 34.8267C21.9063 34.0767 21.6278 33.2187 21.5938 32.2528H24.6619C24.7188 32.9687 25.0284 33.554 25.5909 34.0085C26.1534 34.4574 26.8295 34.6818 27.6193 34.6818C28.2386 34.6818 28.7898 34.5398 29.2727 34.2557C29.7557 33.9716 30.1364 33.5767 30.4148 33.071C30.6932 32.5653 30.8295 31.9886 30.8239 31.3409C30.8295 30.6818 30.6903 30.0966 30.4062 29.5852C30.1222 29.0739 29.733 28.6733 29.2386 28.3835C28.7443 28.0881 28.1761 27.9403 27.5341 27.9403C27.0114 27.9347 26.4972 28.0312 25.9915 28.2301C25.4858 28.429 25.0852 28.6903 24.7898 29.0142L21.9347 28.5455L22.8466 19.5455H32.9716V22.1875H25.4631L24.9602 26.8153H25.0625C25.3864 26.4347 25.8438 26.1193 26.4347 25.8693C27.0256 25.6136 27.6733 25.4858 28.3778 25.4858C29.4347 25.4858 30.3778 25.7358 31.2074 26.2358C32.0369 26.7301 32.6903 27.4119 33.1676 28.2812C33.6449 29.1506 33.8835 30.1449 33.8835 31.2642C33.8835 32.4176 33.6165 33.446 33.0824 34.3494C32.554 35.2472 31.8182 35.9545 30.875 36.4716C29.9375 36.983 28.8523 37.2386 27.6193 37.2386Z" fill="url(#paint1_linear_1380_28046)"/>
<defs>
<linearGradient id="paint0_linear_1380_28046" x1="3.07648" y1="57.7129" x2="25.5308" y2="14.1902" gradientUnits="userSpaceOnUse">
<stop offset="0.168198" stop-color="#38DBFF"/>
<stop offset="0.984375" stop-color="#8A21DD"/>
</linearGradient>
<linearGradient id="paint1_linear_1380_28046" x1="20.879" y1="46.04" x2="37.5375" y2="30.8452" gradientUnits="userSpaceOnUse">
<stop offset="0.168198" stop-color="#38DBFF"/>
<stop offset="0.984375" stop-color="#8A21DD"/>
</linearGradient>
</defs>
</svg>
