<svg width="56" height="56" viewBox="0 0 56 56" fill="none" xmlns="http://www.w3.org/2000/svg">
<rect x="0.5" y="0.5" width="55" height="55" rx="27.5" stroke="url(#paint0_linear_1380_28068)"/>
<path d="M27.9432 37.2386C27.108 37.233 26.2926 37.0881 25.4972 36.804C24.7017 36.5142 23.9858 36.0455 23.3494 35.3977C22.7131 34.7443 22.2074 33.8778 21.8324 32.7983C21.4574 31.7131 21.2727 30.3693 21.2784 28.767C21.2784 27.2727 21.4375 25.9403 21.7557 24.7699C22.0739 23.5994 22.5312 22.6108 23.1278 21.804C23.7244 20.9915 24.4432 20.3722 25.2841 19.946C26.1307 19.5199 27.0767 19.3068 28.1222 19.3068C29.2188 19.3068 30.1903 19.5227 31.0369 19.9545C31.8892 20.3864 32.5767 20.9773 33.0994 21.7273C33.6222 22.4716 33.946 23.3125 34.071 24.25H30.9602C30.8011 23.5795 30.4744 23.0455 29.9801 22.6477C29.4915 22.2443 28.8722 22.0426 28.1222 22.0426C26.9119 22.0426 25.9801 22.5682 25.3267 23.6193C24.679 24.6705 24.3523 26.1136 24.3466 27.9489H24.4659C24.7443 27.4489 25.1051 27.0199 25.5483 26.6619C25.9915 26.304 26.4915 26.0284 27.0483 25.8352C27.6108 25.6364 28.2045 25.5369 28.8295 25.5369C29.8523 25.5369 30.7699 25.7812 31.5824 26.2699C32.4006 26.7585 33.0483 27.4318 33.5256 28.2898C34.0028 29.142 34.2386 30.1193 34.233 31.2216C34.2386 32.3693 33.9773 33.4006 33.4489 34.3153C32.9205 35.2244 32.1847 35.9403 31.2415 36.4631C30.2983 36.9858 29.1989 37.2443 27.9432 37.2386ZM27.9261 34.6818C28.5455 34.6818 29.0994 34.5312 29.5881 34.2301C30.0767 33.929 30.4631 33.5227 30.7472 33.0114C31.0313 32.5 31.1705 31.9261 31.1648 31.2898C31.1705 30.6648 31.0341 30.0994 30.7557 29.5938C30.483 29.0881 30.1051 28.6875 29.6222 28.392C29.1392 28.0966 28.5881 27.9489 27.9688 27.9489C27.5085 27.9489 27.0795 28.0369 26.6818 28.2131C26.2841 28.3892 25.9375 28.6335 25.642 28.946C25.3466 29.2528 25.1136 29.6108 24.9432 30.0199C24.7784 30.4233 24.6932 30.8551 24.6875 31.3153C24.6932 31.9233 24.8352 32.483 25.1136 32.9943C25.392 33.5057 25.7756 33.9148 26.2642 34.2216C26.7528 34.5284 27.3068 34.6818 27.9261 34.6818Z" fill="url(#paint1_linear_1380_28068)"/>
<defs>
<linearGradient id="paint0_linear_1380_28068" x1="3.07648" y1="57.7129" x2="25.5308" y2="14.1902" gradientUnits="userSpaceOnUse">
<stop offset="0.168198" stop-color="#38DBFF"/>
<stop offset="0.984375" stop-color="#8A21DD"/>
</linearGradient>
<linearGradient id="paint1_linear_1380_28068" x1="20.879" y1="46.04" x2="37.5375" y2="30.8452" gradientUnits="userSpaceOnUse">
<stop offset="0.168198" stop-color="#38DBFF"/>
<stop offset="0.984375" stop-color="#8A21DD"/>
</linearGradient>
</defs>
</svg>
