<svg width="56" height="56" viewBox="0 0 56 56" fill="none" xmlns="http://www.w3.org/2000/svg">
<rect x="0.5" y="0.5" width="55" height="55" rx="27.5" stroke="url(#paint0_linear_1380_28027)"/>
<path d="M22.0511 37V34.7159L28.1108 28.7756C28.6903 28.1903 29.1733 27.6705 29.5597 27.2159C29.946 26.7614 30.2358 26.321 30.429 25.8949C30.6222 25.4687 30.7188 25.0142 30.7188 24.5312C30.7188 23.9801 30.5938 23.5085 30.3438 23.1165C30.0938 22.7188 29.75 22.4119 29.3125 22.196C28.875 21.9801 28.3778 21.8722 27.821 21.8722C27.2472 21.8722 26.7443 21.9915 26.3125 22.2301C25.8807 22.4631 25.5455 22.7955 25.3068 23.2273C25.0739 23.6591 24.9574 24.1733 24.9574 24.7699H21.9489C21.9489 23.6619 22.2017 22.6989 22.7074 21.8807C23.2131 21.0625 23.9091 20.429 24.7955 19.9801C25.6875 19.5312 26.7102 19.3068 27.8636 19.3068C29.0341 19.3068 30.0625 19.5256 30.9489 19.9631C31.8352 20.4006 32.5227 21 33.0114 21.7614C33.5057 22.5227 33.7528 23.392 33.7528 24.3693C33.7528 25.0227 33.6278 25.6648 33.3778 26.2955C33.1278 26.9261 32.6875 27.625 32.0568 28.392C31.4318 29.1591 30.554 30.0881 29.4233 31.179L26.4148 34.2386V34.358H34.017V37H22.0511Z" fill="url(#paint1_linear_1380_28027)"/>
<defs>
<linearGradient id="paint0_linear_1380_28027" x1="3.07648" y1="57.7129" x2="25.5308" y2="14.1902" gradientUnits="userSpaceOnUse">
<stop offset="0.168198" stop-color="#38DBFF"/>
<stop offset="0.984375" stop-color="#8A21DD"/>
</linearGradient>
<linearGradient id="paint1_linear_1380_28027" x1="21.3241" y1="46.04" x2="37.8503" y2="31.9081" gradientUnits="userSpaceOnUse">
<stop offset="0.168198" stop-color="#38DBFF"/>
<stop offset="0.984375" stop-color="#8A21DD"/>
</linearGradient>
</defs>
</svg>
