<svg width="56" height="56" viewBox="0 0 56 56" fill="none" xmlns="http://www.w3.org/2000/svg">
<rect x="0.5" y="0.5" width="55" height="55" rx="27.5" stroke="url(#paint0_linear_1380_28034)"/>
<path d="M27.8153 37.2386C26.5881 37.2386 25.4972 37.0284 24.5426 36.608C23.5938 36.1875 22.8438 35.6023 22.2926 34.8523C21.7415 34.1023 21.4489 33.2358 21.4148 32.2528H24.6193C24.6477 32.7244 24.804 33.1364 25.0881 33.4886C25.3722 33.8352 25.75 34.1051 26.2216 34.2983C26.6932 34.4915 27.2216 34.5881 27.8068 34.5881C28.4318 34.5881 28.9858 34.4801 29.4688 34.2642C29.9517 34.0426 30.3295 33.7358 30.6023 33.3438C30.875 32.9517 31.0085 32.5 31.0028 31.9886C31.0085 31.4602 30.8722 30.9943 30.5938 30.5909C30.3153 30.1875 29.9119 29.8722 29.3835 29.6449C28.8608 29.4176 28.2301 29.304 27.4915 29.304H25.9489V26.8665H27.4915C28.0994 26.8665 28.6307 26.7614 29.0852 26.5511C29.5455 26.3409 29.9063 26.0455 30.1676 25.6648C30.429 25.2784 30.5568 24.8324 30.5511 24.3267C30.5568 23.8324 30.446 23.4034 30.2188 23.0398C29.9972 22.6705 29.6818 22.3835 29.2727 22.179C28.8693 21.9744 28.3949 21.8722 27.8494 21.8722C27.3153 21.8722 26.821 21.9687 26.3665 22.1619C25.9119 22.3551 25.5455 22.6307 25.267 22.9886C24.9886 23.3409 24.8409 23.7614 24.8239 24.25H21.7812C21.804 23.2727 22.0852 22.4148 22.625 21.6761C23.1705 20.9318 23.8977 20.3523 24.8068 19.9375C25.7159 19.517 26.7358 19.3068 27.8665 19.3068C29.0313 19.3068 30.0426 19.5256 30.9006 19.9631C31.7642 20.3949 32.4318 20.9773 32.9034 21.7102C33.375 22.4432 33.6108 23.2528 33.6108 24.1392C33.6165 25.1222 33.3267 25.946 32.7415 26.6108C32.1619 27.2756 31.4006 27.7102 30.4574 27.9148V28.0511C31.6847 28.2216 32.625 28.6761 33.2784 29.4148C33.9375 30.1477 34.2642 31.0597 34.2585 32.1506C34.2585 33.1278 33.9801 34.0028 33.4233 34.7756C32.8722 35.5426 32.1108 36.1449 31.1392 36.5824C30.1733 37.0199 29.0653 37.2386 27.8153 37.2386Z" fill="url(#paint1_linear_1380_28034)"/>
<defs>
<linearGradient id="paint0_linear_1380_28034" x1="3.07648" y1="57.7129" x2="25.5308" y2="14.1902" gradientUnits="userSpaceOnUse">
<stop offset="0.168198" stop-color="#38DBFF"/>
<stop offset="0.984375" stop-color="#8A21DD"/>
</linearGradient>
<linearGradient id="paint1_linear_1380_28034" x1="20.879" y1="46.04" x2="37.5375" y2="30.8452" gradientUnits="userSpaceOnUse">
<stop offset="0.168198" stop-color="#38DBFF"/>
<stop offset="0.984375" stop-color="#8A21DD"/>
</linearGradient>
</defs>
</svg>
