<svg width="354" height="188" viewBox="0 0 354 188" fill="none" xmlns="http://www.w3.org/2000/svg">
<g filter="url(#filter0_d_445_7650)">
<g clip-path="url(#clip0_445_7650)">
<rect x="3" y="2" width="347.697" height="181.615" rx="28.6761" fill="white"/>
<path d="M34.8326 46.676H32.1442L37.039 32.7725H40.1483L45.0498 46.676H42.3614L38.6479 35.6238H38.5393L34.8326 46.676ZM34.9208 41.2246H42.2528V43.2477H34.9208V41.2246ZM50.6213 46.8797C49.5803 46.8797 48.6864 46.6511 47.9397 46.194C47.1974 45.7369 46.6249 45.1055 46.2221 44.2999C45.8238 43.4898 45.6247 42.5575 45.6247 41.5029C45.6247 40.4439 45.8283 39.5093 46.2357 38.6991C46.643 37.8845 47.2178 37.2509 47.96 36.7983C48.7068 36.3411 49.5894 36.1126 50.6077 36.1126C51.454 36.1126 52.2031 36.2687 52.8548 36.581C53.511 36.8888 54.0338 37.3255 54.423 37.8913C54.8122 38.4525 55.034 39.1087 55.0883 39.86H52.7394C52.6443 39.3577 52.418 38.939 52.0605 38.6041C51.7075 38.2647 51.2345 38.0949 50.6416 38.0949C50.1393 38.0949 49.698 38.2307 49.3178 38.5023C48.9376 38.7693 48.6412 39.154 48.4285 39.6564C48.2203 40.1587 48.1162 40.7607 48.1162 41.4622C48.1162 42.1728 48.2203 42.7838 48.4285 43.2952C48.6367 43.8021 48.9286 44.1936 49.3042 44.4697C49.6844 44.7412 50.1302 44.877 50.6416 44.877C51.0037 44.877 51.3273 44.8091 51.6124 44.6733C51.9021 44.533 52.1442 44.3316 52.3388 44.0691C52.5334 43.8066 52.667 43.4875 52.7394 43.1119H55.0883C55.0295 43.8496 54.8122 44.5036 54.4366 45.0739C54.0609 45.6396 53.5495 46.0831 52.9023 46.4045C52.2551 46.7213 51.4948 46.8797 50.6213 46.8797ZM61.931 36.2484V38.1492H55.9364V36.2484H61.931ZM57.4164 33.7501H59.874V43.5396C59.874 43.87 59.9238 44.1234 60.0233 44.2999C60.1274 44.4719 60.2632 44.5896 60.4307 44.653C60.5981 44.7163 60.7837 44.748 60.9873 44.748C61.1412 44.748 61.2815 44.7367 61.4082 44.7141C61.5395 44.6914 61.6391 44.6711 61.707 44.653L62.1211 46.5742C61.9898 46.6195 61.802 46.6692 61.5576 46.7235C61.3177 46.7779 61.0235 46.8095 60.6751 46.8186C60.0595 46.8367 59.5051 46.7439 59.0118 46.5402C58.5185 46.3321 58.127 46.0107 57.8373 45.5762C57.5522 45.1417 57.4119 44.5986 57.4164 43.9469V33.7501ZM70.2502 42.2904V36.2484H72.7078V46.676H70.3249V44.8227H70.2163C69.9809 45.4065 69.594 45.884 69.0554 46.2551C68.5213 46.6262 67.8628 46.8118 67.0798 46.8118C66.3964 46.8118 65.7922 46.6602 65.2672 46.3569C64.7468 46.0492 64.3394 45.6034 64.0452 45.0195C63.7511 44.4312 63.604 43.7206 63.604 42.8879V36.2484H66.0615V42.5077C66.0615 43.1685 66.2426 43.6935 66.6046 44.0827C66.9667 44.4719 67.4419 44.6665 68.0303 44.6665C68.3924 44.6665 68.7431 44.5783 69.0826 44.4018C69.422 44.2253 69.7003 43.9628 69.9176 43.6143C70.1394 43.2612 70.2502 42.82 70.2502 42.2904ZM77.8533 46.8865C77.1925 46.8865 76.5973 46.7688 76.0678 46.5335C75.5428 46.2936 75.1264 45.9406 74.8187 45.4744C74.5154 45.0082 74.3638 44.4334 74.3638 43.75C74.3638 43.1617 74.4724 42.6751 74.6897 42.2904C74.9069 41.9057 75.2034 41.598 75.579 41.3672C75.9546 41.1363 76.3778 40.9621 76.8485 40.8444C77.3237 40.7222 77.8148 40.634 78.3217 40.5796C78.9327 40.5163 79.4283 40.4597 79.8084 40.4099C80.1886 40.3556 80.4647 40.2742 80.6367 40.1655C80.8132 40.0524 80.9015 39.8781 80.9015 39.6428V39.6021C80.9015 39.0906 80.7498 38.6946 80.4466 38.414C80.1434 38.1334 79.7066 37.9931 79.1364 37.9931C78.5344 37.9931 78.0569 38.1244 77.7039 38.3869C77.3554 38.6494 77.1201 38.9594 76.9979 39.3169L74.7032 38.9911C74.8843 38.3574 75.183 37.8279 75.5994 37.4025C76.0157 36.9725 76.5249 36.6512 77.1269 36.4385C77.7288 36.2212 78.3941 36.1126 79.1228 36.1126C79.6251 36.1126 80.1253 36.1714 80.6231 36.2891C81.121 36.4068 81.5758 36.6014 81.9877 36.8729C82.3995 37.14 82.7299 37.5043 82.9788 37.9659C83.2323 38.4276 83.359 39.0046 83.359 39.6971V46.676H80.9965V45.2436H80.915C80.7657 45.5332 80.5552 45.8048 80.2837 46.0582C80.0166 46.3072 79.6795 46.5086 79.2721 46.6624C78.8693 46.8118 78.3964 46.8865 77.8533 46.8865ZM78.4914 45.0806C78.9847 45.0806 79.4124 44.9833 79.7745 44.7887C80.1366 44.5896 80.4149 44.3271 80.6095 44.0012C80.8087 43.6754 80.9082 43.3201 80.9082 42.9354V41.7066C80.8313 41.77 80.7 41.8288 80.5145 41.8831C80.3335 41.9374 80.1298 41.9849 79.9035 42.0257C79.6772 42.0664 79.4532 42.1026 79.2314 42.1343C79.0096 42.166 78.8173 42.1931 78.6543 42.2158C78.2877 42.2655 77.9596 42.347 77.67 42.4602C77.3803 42.5733 77.1517 42.7317 76.9843 42.9354C76.8168 43.1345 76.7331 43.3925 76.7331 43.7093C76.7331 44.1619 76.8983 44.5036 77.2287 44.7344C77.5591 44.9652 77.98 45.0806 78.4914 45.0806ZM87.9054 32.7725V46.676H85.4478V32.7725H87.9054ZM98.2918 39.0046L96.0515 39.249C95.9881 39.0227 95.8772 38.81 95.7188 38.6109C95.565 38.4117 95.3568 38.2511 95.0943 38.1289C94.8318 38.0067 94.5104 37.9456 94.1303 37.9456C93.6188 37.9456 93.1889 38.0565 92.8404 38.2782C92.4964 38.5 92.3267 38.7874 92.3312 39.1404C92.3267 39.4436 92.4376 39.6903 92.6639 39.8804C92.8947 40.0705 93.2749 40.2266 93.8044 40.3488L95.5831 40.729C96.5697 40.9417 97.3029 41.2789 97.7826 41.7405C98.2669 42.2022 98.5113 42.8064 98.5158 43.5532C98.5113 44.2094 98.319 44.7887 97.9388 45.2911C97.5631 45.789 97.0404 46.1782 96.3706 46.4588C95.7007 46.7394 94.9313 46.8797 94.0624 46.8797C92.7861 46.8797 91.7587 46.6127 90.9802 46.0786C90.2018 45.54 89.7379 44.791 89.5885 43.8315L91.985 43.6007C92.0936 44.0714 92.3244 44.4267 92.6774 44.6665C93.0305 44.9064 93.4898 45.0263 94.0556 45.0263C94.6394 45.0263 95.1078 44.9064 95.4609 44.6665C95.8184 44.4267 95.9972 44.1302 95.9972 43.7772C95.9972 43.4785 95.8818 43.2318 95.651 43.0372C95.4247 42.8426 95.0716 42.6932 94.5919 42.5891L92.8132 42.2158C91.813 42.0076 91.073 41.6568 90.5933 41.1635C90.1135 40.6656 89.8759 40.0365 89.8804 39.2762C89.8759 38.6335 90.0502 38.0768 90.4032 37.6061C90.7607 37.1309 91.2563 36.7643 91.8899 36.5063C92.5281 36.2438 93.2635 36.1126 94.0963 36.1126C95.3183 36.1126 96.28 36.3728 96.9816 36.8933C97.6876 37.4138 98.1244 38.1176 98.2918 39.0046ZM113.834 36.2484L110.12 46.676H107.405L103.691 36.2484H106.312L108.708 43.9944H108.817L111.22 36.2484H113.834ZM123.394 39.0046L121.153 39.249C121.09 39.0227 120.979 38.81 120.821 38.6109C120.667 38.4117 120.459 38.2511 120.196 38.1289C119.934 38.0067 119.612 37.9456 119.232 37.9456C118.721 37.9456 118.291 38.0565 117.942 38.2782C117.598 38.5 117.429 38.7874 117.433 39.1404C117.429 39.4436 117.54 39.6903 117.766 39.8804C117.997 40.0705 118.377 40.2266 118.906 40.3488L120.685 40.729C121.672 40.9417 122.405 41.2789 122.885 41.7405C123.369 42.2022 123.613 42.8064 123.618 43.5532C123.613 44.2094 123.421 44.7887 123.041 45.2911C122.665 45.789 122.142 46.1782 121.473 46.4588C120.803 46.7394 120.033 46.8797 119.164 46.8797C117.888 46.8797 116.861 46.6127 116.082 46.0786C115.304 45.54 114.84 44.791 114.691 43.8315L117.087 43.6007C117.196 44.0714 117.426 44.4267 117.779 44.6665C118.132 44.9064 118.592 45.0263 119.158 45.0263C119.741 45.0263 120.21 44.9064 120.563 44.6665C120.92 44.4267 121.099 44.1302 121.099 43.7772C121.099 43.4785 120.984 43.2318 120.753 43.0372C120.527 42.8426 120.174 42.6932 119.694 42.5891L117.915 42.2158C116.915 42.0076 116.175 41.6568 115.695 41.1635C115.216 40.6656 114.978 40.0365 114.982 39.2762C114.978 38.6335 115.152 38.0768 115.505 37.6061C115.863 37.1309 116.358 36.7643 116.992 36.5063C117.63 36.2438 118.366 36.1126 119.198 36.1126C120.42 36.1126 121.382 36.3728 122.084 36.8933C122.79 37.4138 123.226 38.1176 123.394 39.0046ZM129.73 46.676V32.7725H135.053C136.057 32.7725 136.892 32.9309 137.558 33.2477C138.228 33.56 138.728 33.9877 139.058 34.5308C139.393 35.0739 139.56 35.6894 139.56 36.3774C139.56 36.9431 139.452 37.4274 139.235 37.8302C139.017 38.2284 138.725 38.552 138.359 38.801C137.992 39.0499 137.583 39.2287 137.13 39.3373V39.4731C137.623 39.5002 138.096 39.6518 138.549 39.9279C139.006 40.1995 139.379 40.5842 139.669 41.082C139.959 41.5799 140.104 42.1818 140.104 42.8879C140.104 43.6075 139.929 44.2547 139.581 44.8295C139.232 45.3997 138.707 45.85 138.006 46.1804C137.304 46.5108 136.422 46.676 135.358 46.676H129.73ZM132.249 44.5715H134.958C135.872 44.5715 136.53 44.3972 136.933 44.0487C137.341 43.6957 137.544 43.2431 137.544 42.691C137.544 42.2791 137.442 41.908 137.239 41.5776C137.035 41.2427 136.745 40.9802 136.37 40.7901C135.994 40.5955 135.546 40.4982 135.026 40.4982H132.249V44.5715ZM132.249 38.6856H134.74C135.175 38.6856 135.566 38.6064 135.915 38.448C136.263 38.285 136.537 38.0565 136.736 37.7623C136.94 37.4636 137.042 37.1106 137.042 36.7032C137.042 36.1646 136.852 35.7211 136.472 35.3726C136.096 35.0241 135.537 34.8499 134.795 34.8499H132.249V38.6856ZM148.45 42.2904V36.2484H150.908V46.676H148.525V44.8227H148.416C148.181 45.4065 147.794 45.884 147.255 46.2551C146.721 46.6262 146.063 46.8118 145.28 46.8118C144.596 46.8118 143.992 46.6602 143.467 46.3569C142.947 46.0492 142.539 45.6034 142.245 45.0195C141.951 44.4312 141.804 43.7206 141.804 42.8879V36.2484H144.261V42.5077C144.261 43.1685 144.442 43.6935 144.804 44.0827C145.166 44.4719 145.642 44.6665 146.23 44.6665C146.592 44.6665 146.943 44.5783 147.282 44.4018C147.622 44.2253 147.9 43.9628 148.117 43.6143C148.339 43.2612 148.45 42.82 148.45 42.2904ZM156.922 46.8593C156.103 46.8593 155.37 46.6489 154.722 46.228C154.075 45.8071 153.564 45.1961 153.188 44.395C152.812 43.5939 152.625 42.6208 152.625 41.4758C152.625 40.3171 152.815 39.3396 153.195 38.543C153.58 37.7419 154.098 37.1377 154.75 36.7304C155.401 36.3185 156.128 36.1126 156.929 36.1126C157.54 36.1126 158.042 36.2167 158.436 36.4249C158.83 36.6285 159.142 36.8752 159.373 37.1649C159.604 37.45 159.782 37.7193 159.909 37.9727H160.011V32.7725H162.475V46.676H160.058V45.0331H159.909C159.782 45.2866 159.599 45.5559 159.359 45.841C159.119 46.1216 158.802 46.3615 158.409 46.5606C158.015 46.7598 157.519 46.8593 156.922 46.8593ZM157.608 44.843C158.128 44.843 158.572 44.7027 158.938 44.4221C159.305 44.137 159.583 43.741 159.773 43.2341C159.963 42.7272 160.058 42.1366 160.058 41.4622C160.058 40.7878 159.963 40.2017 159.773 39.7039C159.588 39.206 159.312 38.8191 158.945 38.543C158.583 38.2669 158.137 38.1289 157.608 38.1289C157.06 38.1289 156.603 38.2714 156.236 38.5566C155.87 38.8417 155.594 39.2355 155.408 39.7378C155.223 40.2402 155.13 40.815 155.13 41.4622C155.13 42.1139 155.223 42.6955 155.408 43.2069C155.598 43.7138 155.877 44.1144 156.243 44.4086C156.614 44.6982 157.069 44.843 157.608 44.843ZM169.247 50.8036C168.364 50.8036 167.606 50.6837 166.972 50.4438C166.339 50.2085 165.83 49.8917 165.445 49.4934C165.06 49.0951 164.793 48.6538 164.644 48.1696L166.857 47.6333C166.957 47.8369 167.101 48.0383 167.291 48.2375C167.482 48.4411 167.737 48.6086 168.059 48.7398C168.384 48.8756 168.794 48.9435 169.287 48.9435C169.984 48.9435 170.561 48.7738 171.019 48.4343C171.476 48.0994 171.704 47.5473 171.704 46.7779V44.8023H171.582C171.455 45.0558 171.27 45.316 171.025 45.583C170.785 45.85 170.466 46.0741 170.068 46.2551C169.674 46.4362 169.179 46.5267 168.581 46.5267C167.78 46.5267 167.054 46.3388 166.402 45.9632C165.755 45.583 165.239 45.0173 164.854 44.266C164.474 43.5102 164.284 42.5643 164.284 41.4283C164.284 40.2832 164.474 39.3169 164.854 38.5294C165.239 37.7374 165.757 37.1377 166.409 36.7304C167.061 36.3185 167.787 36.1126 168.588 36.1126C169.199 36.1126 169.701 36.2167 170.095 36.4249C170.494 36.6285 170.81 36.8752 171.046 37.1649C171.281 37.45 171.46 37.7193 171.582 37.9727H171.718V36.2484H174.141V46.8457C174.141 47.7373 173.929 48.4751 173.503 49.0589C173.078 49.6427 172.496 50.0795 171.759 50.3692C171.021 50.6588 170.184 50.8036 169.247 50.8036ZM169.267 44.5986C169.787 44.5986 170.231 44.4719 170.598 44.2185C170.964 43.965 171.243 43.6007 171.433 43.1255C171.623 42.6502 171.718 42.08 171.718 41.4147C171.718 40.7584 171.623 40.1836 171.433 39.6903C171.247 39.197 170.971 38.8145 170.604 38.543C170.242 38.2669 169.797 38.1289 169.267 38.1289C168.719 38.1289 168.262 38.2714 167.896 38.5566C167.529 38.8417 167.253 39.2332 167.067 39.731C166.882 40.2244 166.789 40.7856 166.789 41.4147C166.789 42.0528 166.882 42.6118 167.067 43.0915C167.258 43.5667 167.536 43.9379 167.902 44.2049C168.274 44.4674 168.728 44.5986 169.267 44.5986ZM180.894 46.8797C179.849 46.8797 178.946 46.6624 178.185 46.228C177.43 45.789 176.848 45.1689 176.441 44.3678C176.033 43.5622 175.83 42.614 175.83 41.5233C175.83 40.4507 176.033 39.5093 176.441 38.6991C176.852 37.8845 177.427 37.2509 178.165 36.7983C178.903 36.3411 179.769 36.1126 180.765 36.1126C181.408 36.1126 182.014 36.2167 182.585 36.4249C183.159 36.6285 183.666 36.9454 184.105 37.3753C184.549 37.8053 184.897 38.3529 185.151 39.0182C185.404 39.679 185.531 40.4665 185.531 41.3807V42.1343H176.984V40.4778H183.175C183.171 40.0071 183.069 39.5885 182.87 39.2219C182.671 38.8508 182.392 38.5588 182.035 38.3461C181.682 38.1334 181.27 38.027 180.799 38.027C180.297 38.027 179.855 38.1492 179.475 38.3936C179.095 38.6335 178.799 38.9503 178.586 39.3441C178.378 39.7333 178.271 40.161 178.267 40.6272V42.0732C178.267 42.6797 178.378 43.2001 178.599 43.6346C178.821 44.0646 179.131 44.395 179.53 44.6258C179.928 44.8521 180.394 44.9652 180.928 44.9652C181.286 44.9652 181.609 44.9155 181.899 44.8159C182.189 44.7118 182.44 44.5602 182.652 44.361C182.865 44.1619 183.026 43.9152 183.134 43.621L185.429 43.879C185.284 44.4855 185.008 45.015 184.601 45.4676C184.198 45.9157 183.682 46.2642 183.053 46.5131C182.424 46.7575 181.704 46.8797 180.894 46.8797ZM192.435 36.2484V38.1492H186.44V36.2484H192.435ZM187.92 33.7501H190.378V43.5396C190.378 43.87 190.427 44.1234 190.527 44.2999C190.631 44.4719 190.767 44.5896 190.934 44.653C191.102 44.7163 191.287 44.748 191.491 44.748C191.645 44.748 191.785 44.7367 191.912 44.7141C192.043 44.6914 192.143 44.6711 192.211 44.653L192.625 46.5742C192.494 46.6195 192.306 46.6692 192.061 46.7235C191.821 46.7779 191.527 46.8095 191.179 46.8186C190.563 46.8367 190.009 46.7439 189.515 46.5402C189.022 46.3321 188.631 46.0107 188.341 45.5762C188.056 45.1417 187.916 44.5986 187.92 43.9469V33.7501ZM202.2 39.0046L199.96 39.249C199.896 39.0227 199.785 38.81 199.627 38.6109C199.473 38.4117 199.265 38.2511 199.002 38.1289C198.74 38.0067 198.419 37.9456 198.038 37.9456C197.527 37.9456 197.097 38.0565 196.749 38.2782C196.405 38.5 196.235 38.7874 196.239 39.1404C196.235 39.4436 196.346 39.6903 196.572 39.8804C196.803 40.0705 197.183 40.2266 197.713 40.3488L199.491 40.729C200.478 40.9417 201.211 41.2789 201.691 41.7405C202.175 42.2022 202.419 42.8064 202.424 43.5532C202.419 44.2094 202.227 44.7887 201.847 45.2911C201.471 45.789 200.949 46.1782 200.279 46.4588C199.609 46.7394 198.839 46.8797 197.971 46.8797C196.694 46.8797 195.667 46.6127 194.888 46.0786C194.11 45.54 193.646 44.791 193.497 43.8315L195.893 43.6007C196.002 44.0714 196.233 44.4267 196.586 44.6665C196.939 44.9064 197.398 45.0263 197.964 45.0263C198.548 45.0263 199.016 44.9064 199.369 44.6665C199.727 44.4267 199.905 44.1302 199.905 43.7772C199.905 43.4785 199.79 43.2318 199.559 43.0372C199.333 42.8426 198.98 42.6932 198.5 42.5891L196.721 42.2158C195.721 42.0076 194.981 41.6568 194.501 41.1635C194.022 40.6656 193.784 40.0365 193.789 39.2762C193.784 38.6335 193.958 38.0768 194.311 37.6061C194.669 37.1309 195.164 36.7643 195.798 36.5063C196.436 36.2438 197.172 36.1126 198.004 36.1126C199.226 36.1126 200.188 36.3728 200.89 36.8933C201.596 37.4138 202.032 38.1176 202.2 39.0046ZM209.039 39.7243C209.039 38.027 209.263 36.4679 209.711 35.0467C210.163 33.6211 210.836 32.3041 211.727 31.0956H214.042C213.698 31.5437 213.377 32.0936 213.078 32.7453C212.779 33.3925 212.519 34.1031 212.297 34.877C212.08 35.6464 211.908 36.4452 211.781 37.2735C211.659 38.1017 211.598 38.9186 211.598 39.7243C211.598 40.7969 211.704 41.8831 211.917 42.9829C212.134 44.0827 212.426 45.1033 212.793 46.0447C213.164 46.9815 213.58 47.7487 214.042 48.3461H211.727C210.836 47.1377 210.163 45.8229 209.711 44.4018C209.263 42.9761 209.039 41.4169 209.039 39.7243ZM220.389 46.676H215.678V32.7725H220.484C221.865 32.7725 223.05 33.0508 224.042 33.6075C225.037 34.1597 225.802 34.954 226.336 35.9904C226.87 37.0268 227.137 38.2669 227.137 39.7107C227.137 41.159 226.868 42.4036 226.329 43.4445C225.795 44.4855 225.024 45.2843 224.014 45.841C223.01 46.3977 221.801 46.676 220.389 46.676ZM218.196 44.4968H220.267C221.236 44.4968 222.043 44.3203 222.691 43.9673C223.338 43.6097 223.824 43.0779 224.15 42.3719C224.476 41.6613 224.639 40.7743 224.639 39.7107C224.639 38.6471 224.476 37.7645 224.15 37.063C223.824 36.357 223.342 35.8297 222.704 35.4812C222.071 35.1282 221.283 34.9517 220.342 34.9517H218.196V44.4968ZM232.04 46.8865C231.379 46.8865 230.784 46.7688 230.255 46.5335C229.73 46.2936 229.313 45.9406 229.005 45.4744C228.702 45.0082 228.551 44.4334 228.551 43.75C228.551 43.1617 228.659 42.6751 228.876 42.2904C229.094 41.9057 229.39 41.598 229.766 41.3672C230.141 41.1363 230.565 40.9621 231.035 40.8444C231.511 40.7222 232.002 40.634 232.509 40.5796C233.12 40.5163 233.615 40.4597 233.995 40.4099C234.375 40.3556 234.652 40.2742 234.824 40.1655C235 40.0524 235.088 39.8781 235.088 39.6428V39.6021C235.088 39.0906 234.937 38.6946 234.633 38.414C234.33 38.1334 233.893 37.9931 233.323 37.9931C232.721 37.9931 232.244 38.1244 231.891 38.3869C231.542 38.6494 231.307 38.9594 231.185 39.3169L228.89 38.9911C229.071 38.3574 229.37 37.8279 229.786 37.4025C230.203 36.9725 230.712 36.6512 231.314 36.4385C231.916 36.2212 232.581 36.1126 233.31 36.1126C233.812 36.1126 234.312 36.1714 234.81 36.2891C235.308 36.4068 235.763 36.6014 236.174 36.8729C236.586 37.14 236.917 37.5043 237.166 37.9659C237.419 38.4276 237.546 39.0046 237.546 39.6971V46.676H235.183V45.2436H235.102C234.952 45.5332 234.742 45.8048 234.47 46.0582C234.203 46.3072 233.866 46.5086 233.459 46.6624C233.056 46.8118 232.583 46.8865 232.04 46.8865ZM232.678 45.0806C233.172 45.0806 233.599 44.9833 233.961 44.7887C234.323 44.5896 234.602 44.3271 234.796 44.0012C234.995 43.6754 235.095 43.3201 235.095 42.9354V41.7066C235.018 41.77 234.887 41.8288 234.701 41.8831C234.52 41.9374 234.317 41.9849 234.09 42.0257C233.864 42.0664 233.64 42.1026 233.418 42.1343C233.196 42.166 233.004 42.1931 232.841 42.2158C232.475 42.2655 232.146 42.347 231.857 42.4602C231.567 42.5733 231.339 42.7317 231.171 42.9354C231.004 43.1345 230.92 43.3925 230.92 43.7093C230.92 44.1619 231.085 44.5036 231.416 44.7344C231.746 44.9652 232.167 45.0806 232.678 45.0806ZM239.635 46.676V36.2484H242.092V46.676H239.635ZM240.87 34.7684C240.481 34.7684 240.146 34.6394 239.865 34.3814C239.585 34.1189 239.445 33.8044 239.445 33.4378C239.445 33.0667 239.585 32.7521 239.865 32.4941C240.146 32.2316 240.481 32.1004 240.87 32.1004C241.264 32.1004 241.599 32.2316 241.875 32.4941C242.156 32.7521 242.296 33.0667 242.296 33.4378C242.296 33.8044 242.156 34.1189 241.875 34.3814C241.599 34.6394 241.264 34.7684 240.87 34.7684ZM246.695 32.7725V46.676H244.237V32.7725H246.695ZM250.367 50.5864C250.032 50.5864 249.722 50.5592 249.437 50.5049C249.156 50.4551 248.932 50.3963 248.765 50.3284L249.335 48.414C249.692 48.5181 250.012 48.5678 250.292 48.5633C250.573 48.5588 250.819 48.4705 251.032 48.2986C251.249 48.1311 251.433 47.8505 251.582 47.4567L251.792 46.8933L248.011 36.2484H250.618L253.021 44.1234H253.13L255.54 36.2484H258.154L253.978 47.9387C253.784 48.4909 253.526 48.9639 253.205 49.3576C252.883 49.7559 252.489 50.0591 252.023 50.2673C251.562 50.48 251.01 50.5864 250.367 50.5864ZM263.857 41.0073C263.857 42.7 263.631 44.2592 263.179 45.6849C262.731 47.106 262.061 48.4208 261.169 49.6292H258.854C259.203 49.1811 259.524 48.6335 259.818 47.9863C260.117 47.3391 260.375 46.6285 260.592 45.8546C260.814 45.0806 260.986 44.2796 261.108 43.4513C261.235 42.6231 261.298 41.8084 261.298 41.0073C261.298 39.9347 261.189 38.8485 260.972 37.7487C260.759 36.6489 260.468 35.6283 260.096 34.6869C259.73 33.7456 259.316 32.9761 258.854 32.3787H261.169C262.061 33.5871 262.731 34.9042 263.179 36.3298C263.631 37.751 263.857 39.3101 263.857 41.0073Z" fill="#1F1F28"/>
<path d="M35.8967 91.7729V78.7384H36.7318V91.7729H35.8967ZM38.5087 82.7811C38.4544 82.2991 38.2304 81.9257 37.8367 81.661C37.4429 81.3928 36.9473 81.2587 36.3499 81.2587C35.9222 81.2587 35.5522 81.3266 35.2399 81.4624C34.9276 81.5948 34.6849 81.7781 34.5118 82.0123C34.3421 82.2431 34.2572 82.5062 34.2572 82.8015C34.2572 83.0493 34.3149 83.2631 34.4304 83.443C34.5492 83.6229 34.7036 83.774 34.8937 83.8962C35.0872 84.015 35.2942 84.1151 35.5149 84.1966C35.7355 84.2747 35.9477 84.3392 36.1513 84.3901L37.1696 84.6548C37.5023 84.7363 37.8434 84.8466 38.1931 84.9858C38.5427 85.125 38.8669 85.3083 39.1656 85.5357C39.4643 85.7631 39.7053 86.0449 39.8886 86.3809C40.0753 86.717 40.1686 87.1192 40.1686 87.5876C40.1686 88.1782 40.0159 88.7027 39.7104 89.1609C39.4083 89.6192 38.9687 89.9807 38.3916 90.2455C37.818 90.5102 37.1238 90.6426 36.3092 90.6426C35.5284 90.6426 34.853 90.5187 34.2827 90.2709C33.7124 90.0231 33.2661 89.6718 32.9436 89.2169C32.6211 88.7587 32.4429 88.2156 32.409 87.5876H33.9874C34.0179 87.9644 34.1401 88.2784 34.354 88.5296C34.5712 88.7774 34.8479 88.9624 35.1839 89.0846C35.5234 89.2034 35.895 89.2628 36.299 89.2628C36.7436 89.2628 37.1391 89.1932 37.4853 89.054C37.835 88.9114 38.1099 88.7146 38.3102 88.4634C38.5104 88.2088 38.6106 87.9118 38.6106 87.5723C38.6106 87.2635 38.5223 87.0106 38.3458 86.8137C38.1727 86.6168 37.9368 86.4539 37.6381 86.3249C37.3428 86.1959 37.0084 86.0822 36.635 85.9838L35.4029 85.6477C34.5678 85.4203 33.9059 85.0859 33.4171 84.6447C32.9317 84.2034 32.689 83.6195 32.689 82.8931C32.689 82.2923 32.8519 81.7679 33.1778 81.3198C33.5037 80.8718 33.945 80.5238 34.5016 80.276C35.0583 80.0249 35.6863 79.8993 36.3855 79.8993C37.0916 79.8993 37.7145 80.0232 38.2542 80.2709C38.7973 80.5187 39.225 80.8599 39.5373 81.2944C39.8495 81.7255 40.0125 82.221 40.0261 82.7811H38.5087ZM45.2599 90.612C44.7949 90.6053 44.3366 90.5204 43.8852 90.3575C43.4371 90.1945 43.0298 89.923 42.6632 89.5428C42.2966 89.1626 42.0029 88.6518 41.7823 88.0102C41.5651 87.3687 41.4564 86.5676 41.4564 85.607C41.4564 84.6973 41.5464 83.8894 41.7263 83.1834C41.9096 82.4773 42.1727 81.8816 42.5155 81.3962C42.8583 80.9074 43.2725 80.5357 43.7579 80.2811C44.2433 80.0266 44.7881 79.8993 45.3923 79.8993C46.0135 79.8993 46.565 80.0215 47.0471 80.2659C47.5291 80.5103 47.9194 80.848 48.2181 81.2791C48.5202 81.7102 48.712 82.2007 48.7935 82.7506H47.2405C47.1353 82.3161 46.9266 81.9614 46.6143 81.6864C46.302 81.4115 45.8946 81.274 45.3923 81.274C44.6285 81.274 44.0328 81.6067 43.6051 82.272C43.1808 82.9373 42.967 83.8622 42.9636 85.0469H43.0399C43.2198 84.7516 43.4405 84.5004 43.7019 84.2933C43.9666 84.0829 44.2619 83.9216 44.5878 83.8096C44.9171 83.6942 45.2633 83.6365 45.6265 83.6365C46.2307 83.6365 46.7772 83.7842 47.266 84.0795C47.7582 84.3714 48.1502 84.7753 48.4422 85.2913C48.7341 85.8072 48.88 86.3979 48.88 87.0632C48.88 87.7285 48.729 88.331 48.4269 88.8707C48.1282 89.4104 47.7073 89.8381 47.1642 90.1538C46.6211 90.4661 45.9863 90.6188 45.2599 90.612ZM45.2548 89.2882C45.6553 89.2882 46.0135 89.1898 46.3291 88.9929C46.6448 88.796 46.8943 88.5313 47.0776 88.1986C47.2609 87.866 47.3526 87.4943 47.3526 87.0835C47.3526 86.683 47.2626 86.3181 47.0827 85.9888C46.9062 85.6596 46.6618 85.3982 46.3495 85.2047C46.0406 85.0113 45.6876 84.9145 45.2904 84.9145C44.9883 84.9145 44.7083 84.9722 44.4503 85.0876C44.1957 85.203 43.9717 85.3626 43.7782 85.5662C43.5847 85.7699 43.432 86.0041 43.32 86.2689C43.2114 86.5303 43.157 86.8069 43.157 87.0988C43.157 87.4892 43.247 87.8507 43.4269 88.1833C43.6102 88.516 43.8597 88.7842 44.1754 88.9878C44.4945 89.1881 44.8543 89.2882 45.2548 89.2882ZM51.8685 87.8167L51.8583 85.9583H52.1231L55.2391 82.6487H57.0619L53.508 86.4165H53.2687L51.8685 87.8167ZM50.4683 90.4695V80.0418H51.9907V90.4695H50.4683ZM55.4072 90.4695L52.6068 86.7526L53.6556 85.6884L57.2758 90.4695H55.4072Z" fill="#1F1F28"/>
<line x1="89.0273" y1="84.8721" x2="322.02" y2="84.8721" stroke="#EAECF0" stroke-width="1.19484"/>
<path d="M35.8967 153.566V140.532H36.7318V153.566H35.8967ZM38.5087 144.575C38.4544 144.093 38.2304 143.719 37.8367 143.454C37.4429 143.186 36.9473 143.052 36.3499 143.052C35.9222 143.052 35.5522 143.12 35.2399 143.256C34.9276 143.388 34.6849 143.572 34.5118 143.806C34.3421 144.037 34.2572 144.3 34.2572 144.595C34.2572 144.843 34.3149 145.057 34.4304 145.236C34.5492 145.416 34.7036 145.567 34.8937 145.69C35.0872 145.808 35.2942 145.909 35.5149 145.99C35.7355 146.068 35.9477 146.133 36.1513 146.184L37.1696 146.448C37.5023 146.53 37.8434 146.64 38.1931 146.779C38.5427 146.918 38.8669 147.102 39.1656 147.329C39.4643 147.557 39.7053 147.838 39.8886 148.174C40.0753 148.51 40.1686 148.913 40.1686 149.381C40.1686 149.972 40.0159 150.496 39.7104 150.954C39.4083 151.413 38.9687 151.774 38.3916 152.039C37.818 152.304 37.1238 152.436 36.3092 152.436C35.5284 152.436 34.853 152.312 34.2827 152.064C33.7124 151.817 33.2661 151.465 32.9436 151.01C32.6211 150.552 32.4429 150.009 32.409 149.381H33.9874C34.0179 149.758 34.1401 150.072 34.354 150.323C34.5712 150.571 34.8479 150.756 35.1839 150.878C35.5234 150.997 35.895 151.056 36.299 151.056C36.7436 151.056 37.1391 150.987 37.4853 150.847C37.835 150.705 38.1099 150.508 38.3102 150.257C38.5104 150.002 38.6106 149.705 38.6106 149.366C38.6106 149.057 38.5223 148.804 38.3458 148.607C38.1727 148.41 37.9368 148.247 37.6381 148.118C37.3428 147.989 37.0084 147.876 36.635 147.777L35.4029 147.441C34.5678 147.214 33.9059 146.879 33.4171 146.438C32.9317 145.997 32.689 145.413 32.689 144.687C32.689 144.086 32.8519 143.561 33.1778 143.113C33.5037 142.665 33.945 142.317 34.5016 142.069C35.0583 141.818 35.6863 141.693 36.3855 141.693C37.0916 141.693 37.7145 141.817 38.2542 142.064C38.7973 142.312 39.225 142.653 39.5373 143.088C39.8495 143.519 40.0125 144.014 40.0261 144.575H38.5087ZM41.4004 150.226V148.953L45.9065 141.835H46.9096V143.709H46.2731L43.0501 148.811V148.892H49.2263V150.226H41.4004ZM46.3444 152.263V149.839L46.3546 149.259V141.835H47.8464V152.263H46.3444ZM52.1345 149.61L52.1243 147.752H52.3891L55.5052 144.442H57.328L53.774 148.21H53.5347L52.1345 149.61ZM50.7343 152.263V141.835H52.2567V152.263H50.7343ZM55.6732 152.263L52.8728 148.546L53.9217 147.482L57.5418 152.263H55.6732Z" fill="#1F1F28"/>
<line x1="89.0273" y1="146.666" x2="322.02" y2="146.666" stroke="#EAECF0" stroke-width="1.19484"/>
<path d="M89.0273 132.273L93.1149 134.54L97.2025 132.273L101.29 135.822L105.378 130.104L109.465 126.654L113.553 113.346H117.641L121.728 102.108L125.816 98.4606L129.903 92.8416L133.991 95.3061L138.078 96.1933L142.166 99.2492L146.254 96.1933L150.341 99.2492L154.429 96.1933L158.516 98.4606L162.604 96.1933L166.692 95.3061L170.779 98.4606L174.867 91.8558L178.954 87.3212L183.042 91.8558L187.13 89.5885L191.217 91.8558H195.305L199.392 95.3061H203.48L207.568 100.136L211.655 98.4606L215.743 100.136H219.83L223.918 105.164L228.006 102.108H232.093L236.181 100.136H240.268L244.356 97.2776L248.444 103.192L252.531 98.017L256.619 92.8416H260.706L264.794 96.1933L268.882 91.8558H272.969L277.057 90.5743L281.144 92.8416L285.232 89.5885L289.32 91.8558L293.407 89.5885L297.495 85.0539L301.582 86.5326L305.67 91.8558L309.757 93.7288L313.845 86.5326L317.933 75.1961L322.02 66.5212" stroke="#178EE8" stroke-width="1.79225"/>
<path d="M89.0273 143.311H105.139V133.283H138.6V131.042H155.455V148.218H188.669V150.565H205.524V154.939H222.131V152.059H255.345V133.923H288.806V138.937H322.02" stroke="#13C2C2" stroke-width="1.79225" stroke-linecap="round"/>
</g>
<rect x="3.59742" y="2.59742" width="346.502" height="180.42" rx="28.0786" stroke="#EAECF0" stroke-width="1.19484"/>
</g>
<defs>
<filter id="filter0_d_445_7650" x="0.610329" y="0.805164" width="352.475" height="186.394" filterUnits="userSpaceOnUse" color-interpolation-filters="sRGB">
<feFlood flood-opacity="0" result="BackgroundImageFix"/>
<feColorMatrix in="SourceAlpha" type="matrix" values="0 0 0 0 0 0 0 0 0 0 0 0 0 0 0 0 0 0 127 0" result="hardAlpha"/>
<feOffset dy="1.19484"/>
<feGaussianBlur stdDeviation="1.19484"/>
<feColorMatrix type="matrix" values="0 0 0 0 0.0627451 0 0 0 0 0.0941176 0 0 0 0 0.156863 0 0 0 0.05 0"/>
<feBlend mode="normal" in2="BackgroundImageFix" result="effect1_dropShadow_445_7650"/>
<feBlend mode="normal" in="SourceGraphic" in2="effect1_dropShadow_445_7650" result="shape"/>
</filter>
<clipPath id="clip0_445_7650">
<rect x="3" y="2" width="347.697" height="181.615" rx="28.6761" fill="white"/>
</clipPath>
</defs>
</svg>
