<svg width="98" height="98" viewBox="0 0 98 98" fill="none" xmlns="http://www.w3.org/2000/svg">
<rect width="98" height="98" rx="49" fill="#00D4FF" fill-opacity="0.2"/>
<path d="M67.125 29.0625H30.875C29.4329 29.0625 28.0498 29.6354 27.0301 30.6551C26.0104 31.6748 25.4375 33.0579 25.4375 34.5V59.875C25.4375 61.3171 26.0104 62.7002 27.0301 63.7199C28.0498 64.7396 29.4329 65.3125 30.875 65.3125H47.1875V68.9375H41.75C41.2693 68.9375 40.8083 69.1285 40.4684 69.4684C40.1285 69.8083 39.9375 70.2693 39.9375 70.75C39.9375 71.2307 40.1285 71.6917 40.4684 72.0316C40.8083 72.3715 41.2693 72.5625 41.75 72.5625H56.25C56.7307 72.5625 57.1917 72.3715 57.5316 72.0316C57.8715 71.6917 58.0625 71.2307 58.0625 70.75C58.0625 70.2693 57.8715 69.8083 57.5316 69.4684C57.1917 69.1285 56.7307 68.9375 56.25 68.9375H50.8125V65.3125H67.125C68.5671 65.3125 69.9502 64.7396 70.9699 63.7199C71.9896 62.7002 72.5625 61.3171 72.5625 59.875V34.5C72.5625 33.0579 71.9896 31.6748 70.9699 30.6551C69.9502 29.6354 68.5671 29.0625 67.125 29.0625ZM30.875 32.6875H67.125C67.6057 32.6875 68.0667 32.8785 68.4066 33.2184C68.7465 33.5583 68.9375 34.0193 68.9375 34.5V52.625H29.0625V34.5C29.0625 34.0193 29.2535 33.5583 29.5934 33.2184C29.9333 32.8785 30.3943 32.6875 30.875 32.6875ZM67.125 61.6875H30.875C30.3943 61.6875 29.9333 61.4965 29.5934 61.1566C29.2535 60.8167 29.0625 60.3557 29.0625 59.875V56.25H68.9375V59.875C68.9375 60.3557 68.7465 60.8167 68.4066 61.1566C68.0667 61.4965 67.6057 61.6875 67.125 61.6875Z" fill="#28D0F3"/>
</svg>
