<svg width="354" height="312" viewBox="0 0 354 312" fill="none" xmlns="http://www.w3.org/2000/svg">
<g filter="url(#filter0_d_445_7662)">
<g clip-path="url(#clip0_445_7662)">
<rect x="3" y="2.12207" width="347.697" height="305.878" rx="28.6761" fill="white"/>
<path d="M34.8326 46.7981H32.1442L37.039 32.8946H40.1483L45.0498 46.7981H42.3614L38.6479 35.7459H38.5393L34.8326 46.7981ZM34.9208 41.3467H42.2528V43.3697H34.9208V41.3467ZM50.6213 47.0018C49.5803 47.0018 48.6864 46.7732 47.9397 46.3161C47.1974 45.859 46.6249 45.2276 46.2221 44.422C45.8238 43.6119 45.6247 42.6795 45.6247 41.625C45.6247 40.5659 45.8283 39.6313 46.2357 38.8212C46.643 38.0065 47.2178 37.3729 47.96 36.9203C48.7068 36.4632 49.5894 36.2347 50.6077 36.2347C51.454 36.2347 52.2031 36.3908 52.8548 36.7031C53.511 37.0109 54.0338 37.4476 54.423 38.0133C54.8122 38.5745 55.034 39.2308 55.0883 39.9821H52.7394C52.6443 39.4797 52.418 39.0611 52.0605 38.7262C51.7075 38.3867 51.2345 38.217 50.6416 38.217C50.1393 38.217 49.698 38.3528 49.3178 38.6243C48.9376 38.8914 48.6412 39.2761 48.4285 39.7784C48.2203 40.2808 48.1162 40.8828 48.1162 41.5843C48.1162 42.2948 48.2203 42.9058 48.4285 43.4173C48.6367 43.9242 48.9286 44.3156 49.3042 44.5917C49.6844 44.8633 50.1302 44.9991 50.6416 44.9991C51.0037 44.9991 51.3273 44.9312 51.6124 44.7954C51.9021 44.6551 52.1442 44.4537 52.3388 44.1912C52.5334 43.9287 52.667 43.6096 52.7394 43.234H55.0883C55.0295 43.9717 54.8122 44.6257 54.4366 45.1959C54.0609 45.7617 53.5495 46.2052 52.9023 46.5265C52.2551 46.8434 51.4948 47.0018 50.6213 47.0018ZM61.931 36.3704V38.2713H55.9364V36.3704H61.931ZM57.4164 33.8721H59.874V43.6617C59.874 43.992 59.9238 44.2455 60.0233 44.422C60.1274 44.594 60.2632 44.7117 60.4307 44.775C60.5981 44.8384 60.7837 44.8701 60.9873 44.8701C61.1412 44.8701 61.2815 44.8588 61.4082 44.8361C61.5395 44.8135 61.6391 44.7931 61.707 44.775L62.1211 46.6963C61.9898 46.7415 61.802 46.7913 61.5576 46.8456C61.3177 46.8999 61.0235 46.9316 60.6751 46.9407C60.0595 46.9588 59.5051 46.866 59.0118 46.6623C58.5185 46.4541 58.127 46.1328 57.8373 45.6983C57.5522 45.2638 57.4119 44.7207 57.4164 44.069V33.8721ZM70.2502 42.4125V36.3704H72.7078V46.7981H70.3249V44.9447H70.2163C69.9809 45.5286 69.594 46.0061 69.0554 46.3772C68.5213 46.7483 67.8628 46.9339 67.0798 46.9339C66.3964 46.9339 65.7922 46.7823 65.2672 46.479C64.7468 46.1713 64.3394 45.7255 64.0452 45.1416C63.7511 44.5533 63.604 43.8427 63.604 43.0099V36.3704H66.0615V42.6297C66.0615 43.2905 66.2426 43.8155 66.6046 44.2048C66.9667 44.594 67.4419 44.7886 68.0303 44.7886C68.3924 44.7886 68.7431 44.7003 69.0826 44.5238C69.422 44.3473 69.7003 44.0848 69.9176 43.7363C70.1394 43.3833 70.2502 42.942 70.2502 42.4125ZM77.8533 47.0085C77.1925 47.0085 76.5973 46.8909 76.0678 46.6555C75.5428 46.4157 75.1264 46.0626 74.8187 45.5965C74.5154 45.1303 74.3638 44.5555 74.3638 43.8721C74.3638 43.2837 74.4724 42.7972 74.6897 42.4125C74.9069 42.0278 75.2034 41.72 75.579 41.4892C75.9546 41.2584 76.3778 41.0842 76.8485 40.9665C77.3237 40.8443 77.8148 40.756 78.3217 40.7017C78.9327 40.6384 79.4283 40.5818 79.8084 40.532C80.1886 40.4777 80.4647 40.3962 80.6367 40.2876C80.8132 40.1745 80.9015 40.0002 80.9015 39.7649V39.7241C80.9015 39.2127 80.7498 38.8167 80.4466 38.5361C80.1434 38.2555 79.7066 38.1152 79.1364 38.1152C78.5344 38.1152 78.0569 38.2464 77.7039 38.5089C77.3554 38.7714 77.1201 39.0814 76.9979 39.439L74.7032 39.1131C74.8843 38.4795 75.183 37.95 75.5994 37.5245C76.0157 37.0946 76.5249 36.7732 77.1269 36.5605C77.7288 36.3433 78.3941 36.2347 79.1228 36.2347C79.6251 36.2347 80.1253 36.2935 80.6231 36.4112C81.121 36.5288 81.5758 36.7235 81.9877 36.995C82.3995 37.262 82.7299 37.6264 82.9788 38.088C83.2323 38.5497 83.359 39.1267 83.359 39.8192V46.7981H80.9965V45.3657H80.915C80.7657 45.6553 80.5552 45.9269 80.2837 46.1803C80.0166 46.4292 79.6795 46.6306 79.2721 46.7845C78.8693 46.9339 78.3964 47.0085 77.8533 47.0085ZM78.4914 45.2027C78.9847 45.2027 79.4124 45.1054 79.7745 44.9108C80.1366 44.7117 80.4149 44.4492 80.6095 44.1233C80.8087 43.7974 80.9082 43.4421 80.9082 43.0574V41.8287C80.8313 41.892 80.7 41.9509 80.5145 42.0052C80.3335 42.0595 80.1298 42.107 79.9035 42.1477C79.6772 42.1885 79.4532 42.2247 79.2314 42.2564C79.0096 42.288 78.8173 42.3152 78.6543 42.3378C78.2877 42.3876 77.9596 42.4691 77.67 42.5822C77.3803 42.6954 77.1517 42.8538 76.9843 43.0574C76.8168 43.2566 76.7331 43.5146 76.7331 43.8314C76.7331 44.284 76.8983 44.6257 77.2287 44.8565C77.5591 45.0873 77.98 45.2027 78.4914 45.2027ZM87.9054 32.8946V46.7981H85.4478V32.8946H87.9054ZM98.2918 39.1267L96.0515 39.3711C95.9881 39.1448 95.8772 38.9321 95.7188 38.733C95.565 38.5338 95.3568 38.3731 95.0943 38.2509C94.8318 38.1287 94.5104 38.0676 94.1303 38.0676C93.6188 38.0676 93.1889 38.1785 92.8404 38.4003C92.4964 38.6221 92.3267 38.9095 92.3312 39.2625C92.3267 39.5657 92.4376 39.8124 92.6639 40.0025C92.8947 40.1926 93.2749 40.3487 93.8044 40.4709L95.5831 40.8511C96.5697 41.0638 97.3029 41.401 97.7826 41.8626C98.2669 42.3243 98.5113 42.9285 98.5158 43.6752C98.5113 44.3315 98.319 44.9108 97.9388 45.4132C97.5631 45.911 97.0404 46.3002 96.3706 46.5809C95.7007 46.8615 94.9313 47.0018 94.0624 47.0018C92.7861 47.0018 91.7587 46.7347 90.9802 46.2007C90.2018 45.6621 89.7379 44.9131 89.5885 43.9536L91.985 43.7228C92.0936 44.1934 92.3244 44.5487 92.6774 44.7886C93.0305 45.0285 93.4898 45.1484 94.0556 45.1484C94.6394 45.1484 95.1078 45.0285 95.4609 44.7886C95.8184 44.5487 95.9972 44.2523 95.9972 43.8993C95.9972 43.6006 95.8818 43.3539 95.651 43.1593C95.4247 42.9647 95.0716 42.8153 94.5919 42.7112L92.8132 42.3378C91.813 42.1296 91.073 41.7789 90.5933 41.2856C90.1135 40.7877 89.8759 40.1586 89.8804 39.3983C89.8759 38.7556 90.0502 38.1989 90.4032 37.7282C90.7607 37.253 91.2563 36.8864 91.8899 36.6284C92.5281 36.3659 93.2635 36.2347 94.0963 36.2347C95.3183 36.2347 96.28 36.4949 96.9816 37.0154C97.6876 37.5359 98.1244 38.2396 98.2918 39.1267ZM113.834 36.3704L110.12 46.7981H107.405L103.691 36.3704H106.312L108.708 44.1165H108.817L111.22 36.3704H113.834ZM123.394 39.1267L121.153 39.3711C121.09 39.1448 120.979 38.9321 120.821 38.733C120.667 38.5338 120.459 38.3731 120.196 38.2509C119.934 38.1287 119.612 38.0676 119.232 38.0676C118.721 38.0676 118.291 38.1785 117.942 38.4003C117.598 38.6221 117.429 38.9095 117.433 39.2625C117.429 39.5657 117.54 39.8124 117.766 40.0025C117.997 40.1926 118.377 40.3487 118.906 40.4709L120.685 40.8511C121.672 41.0638 122.405 41.401 122.885 41.8626C123.369 42.3243 123.613 42.9285 123.618 43.6752C123.613 44.3315 123.421 44.9108 123.041 45.4132C122.665 45.911 122.142 46.3002 121.473 46.5809C120.803 46.8615 120.033 47.0018 119.164 47.0018C117.888 47.0018 116.861 46.7347 116.082 46.2007C115.304 45.6621 114.84 44.9131 114.691 43.9536L117.087 43.7228C117.196 44.1934 117.426 44.5487 117.779 44.7886C118.132 45.0285 118.592 45.1484 119.158 45.1484C119.741 45.1484 120.21 45.0285 120.563 44.7886C120.92 44.5487 121.099 44.2523 121.099 43.8993C121.099 43.6006 120.984 43.3539 120.753 43.1593C120.527 42.9647 120.174 42.8153 119.694 42.7112L117.915 42.3378C116.915 42.1296 116.175 41.7789 115.695 41.2856C115.216 40.7877 114.978 40.1586 114.982 39.3983C114.978 38.7556 115.152 38.1989 115.505 37.7282C115.863 37.253 116.358 36.8864 116.992 36.6284C117.63 36.3659 118.366 36.2347 119.198 36.2347C120.42 36.2347 121.382 36.4949 122.084 37.0154C122.79 37.5359 123.226 38.2396 123.394 39.1267ZM129.73 46.7981V32.8946H135.053C136.057 32.8946 136.892 33.053 137.558 33.3698C138.228 33.6821 138.728 34.1098 139.058 34.6529C139.393 35.196 139.56 35.8115 139.56 36.4994C139.56 37.0652 139.452 37.5494 139.235 37.9522C139.017 38.3505 138.725 38.6741 138.359 38.923C137.992 39.172 137.583 39.3507 137.13 39.4594V39.5951C137.623 39.6223 138.096 39.7739 138.549 40.05C139.006 40.3215 139.379 40.7062 139.669 41.2041C139.959 41.7019 140.104 42.3039 140.104 43.0099C140.104 43.7295 139.929 44.3767 139.581 44.9515C139.232 45.5218 138.707 45.9721 138.006 46.3025C137.304 46.6329 136.422 46.7981 135.358 46.7981H129.73ZM132.249 44.6936H134.958C135.872 44.6936 136.53 44.5193 136.933 44.1708C137.341 43.8178 137.544 43.3652 137.544 42.813C137.544 42.4012 137.442 42.0301 137.239 41.6997C137.035 41.3648 136.745 41.1023 136.37 40.9122C135.994 40.7176 135.546 40.6203 135.026 40.6203H132.249V44.6936ZM132.249 38.8076H134.74C135.175 38.8076 135.566 38.7284 135.915 38.57C136.263 38.4071 136.537 38.1785 136.736 37.8843C136.94 37.5856 137.042 37.2326 137.042 36.8253C137.042 36.2867 136.852 35.8432 136.472 35.4947C136.096 35.1462 135.537 34.9719 134.795 34.9719H132.249V38.8076ZM148.45 42.4125V36.3704H150.908V46.7981H148.525V44.9447H148.416C148.181 45.5286 147.794 46.0061 147.255 46.3772C146.721 46.7483 146.063 46.9339 145.28 46.9339C144.596 46.9339 143.992 46.7823 143.467 46.479C142.947 46.1713 142.539 45.7255 142.245 45.1416C141.951 44.5533 141.804 43.8427 141.804 43.0099V36.3704H144.261V42.6297C144.261 43.2905 144.442 43.8155 144.804 44.2048C145.166 44.594 145.642 44.7886 146.23 44.7886C146.592 44.7886 146.943 44.7003 147.282 44.5238C147.622 44.3473 147.9 44.0848 148.117 43.7363C148.339 43.3833 148.45 42.942 148.45 42.4125ZM156.922 46.9814C156.103 46.9814 155.37 46.7709 154.722 46.35C154.075 45.9291 153.564 45.3181 153.188 44.517C152.812 43.716 152.625 42.7429 152.625 41.5978C152.625 40.4392 152.815 39.4616 153.195 38.6651C153.58 37.864 154.098 37.2598 154.75 36.8524C155.401 36.4406 156.128 36.2347 156.929 36.2347C157.54 36.2347 158.042 36.3388 158.436 36.5469C158.83 36.7506 159.142 36.9973 159.373 37.2869C159.604 37.5721 159.782 37.8414 159.909 38.0948H160.011V32.8946H162.475V46.7981H160.058V45.1552H159.909C159.782 45.4086 159.599 45.6779 159.359 45.9631C159.119 46.2437 158.802 46.4835 158.409 46.6827C158.015 46.8818 157.519 46.9814 156.922 46.9814ZM157.608 44.9651C158.128 44.9651 158.572 44.8248 158.938 44.5442C159.305 44.2591 159.583 43.8631 159.773 43.3562C159.963 42.8493 160.058 42.2586 160.058 41.5843C160.058 40.9099 159.963 40.3238 159.773 39.826C159.588 39.3281 159.312 38.9411 158.945 38.6651C158.583 38.389 158.137 38.2509 157.608 38.2509C157.06 38.2509 156.603 38.3935 156.236 38.6786C155.87 38.9638 155.594 39.3575 155.408 39.8599C155.223 40.3623 155.13 40.9371 155.13 41.5843C155.13 42.236 155.223 42.8176 155.408 43.329C155.598 43.8359 155.877 44.2364 156.243 44.5306C156.614 44.8203 157.069 44.9651 157.608 44.9651ZM169.247 50.9257C168.364 50.9257 167.606 50.8058 166.972 50.5659C166.339 50.3306 165.83 50.0137 165.445 49.6155C165.06 49.2172 164.793 48.7759 164.644 48.2916L166.857 47.7553C166.957 47.959 167.101 48.1604 167.291 48.3595C167.482 48.5632 167.737 48.7307 168.059 48.8619C168.384 48.9977 168.794 49.0656 169.287 49.0656C169.984 49.0656 170.561 48.8958 171.019 48.5564C171.476 48.2215 171.704 47.6693 171.704 46.8999V44.9244H171.582C171.455 45.1778 171.27 45.4381 171.025 45.7051C170.785 45.9721 170.466 46.1962 170.068 46.3772C169.674 46.5582 169.179 46.6487 168.581 46.6487C167.78 46.6487 167.054 46.4609 166.402 46.0853C165.755 45.7051 165.239 45.1394 164.854 44.3881C164.474 43.6322 164.284 42.6863 164.284 41.5503C164.284 40.4053 164.474 39.439 164.854 38.6515C165.239 37.8595 165.757 37.2598 166.409 36.8524C167.061 36.4406 167.787 36.2347 168.588 36.2347C169.199 36.2347 169.701 36.3388 170.095 36.5469C170.494 36.7506 170.81 36.9973 171.046 37.2869C171.281 37.5721 171.46 37.8414 171.582 38.0948H171.718V36.3704H174.141V46.9678C174.141 47.8594 173.929 48.5971 173.503 49.181C173.078 49.7648 172.496 50.2016 171.759 50.4912C171.021 50.7809 170.184 50.9257 169.247 50.9257ZM169.267 44.7207C169.787 44.7207 170.231 44.594 170.598 44.3405C170.964 44.0871 171.243 43.7228 171.433 43.2475C171.623 42.7723 171.718 42.2021 171.718 41.5367C171.718 40.8805 171.623 40.3057 171.433 39.8124C171.247 39.3191 170.971 38.9366 170.604 38.6651C170.242 38.389 169.797 38.2509 169.267 38.2509C168.719 38.2509 168.262 38.3935 167.896 38.6786C167.529 38.9638 167.253 39.3553 167.067 39.8531C166.882 40.3464 166.789 40.9076 166.789 41.5367C166.789 42.1749 166.882 42.7338 167.067 43.2136C167.258 43.6888 167.536 44.0599 167.902 44.327C168.274 44.5895 168.728 44.7207 169.267 44.7207ZM180.894 47.0018C179.849 47.0018 178.946 46.7845 178.185 46.35C177.43 45.911 176.848 45.291 176.441 44.4899C176.033 43.6843 175.83 42.7361 175.83 41.6454C175.83 40.5727 176.033 39.6313 176.441 38.8212C176.852 38.0065 177.427 37.3729 178.165 36.9203C178.903 36.4632 179.769 36.2347 180.765 36.2347C181.408 36.2347 182.014 36.3388 182.585 36.5469C183.159 36.7506 183.666 37.0674 184.105 37.4974C184.549 37.9273 184.897 38.475 185.151 39.1403C185.404 39.8011 185.531 40.5886 185.531 41.5028V42.2564H176.984V40.5999H183.175C183.171 40.1292 183.069 39.7105 182.87 39.344C182.671 38.9728 182.392 38.6809 182.035 38.4682C181.682 38.2555 181.27 38.1491 180.799 38.1491C180.297 38.1491 179.855 38.2713 179.475 38.5157C179.095 38.7556 178.799 39.0724 178.586 39.4661C178.378 39.8554 178.271 40.2831 178.267 40.7492V42.1953C178.267 42.8017 178.378 43.3222 178.599 43.7567C178.821 44.1867 179.131 44.517 179.53 44.7479C179.928 44.9742 180.394 45.0873 180.928 45.0873C181.286 45.0873 181.609 45.0375 181.899 44.938C182.189 44.8339 182.44 44.6822 182.652 44.4831C182.865 44.284 183.026 44.0373 183.134 43.7431L185.429 44.0011C185.284 44.6076 185.008 45.1371 184.601 45.5897C184.198 46.0377 183.682 46.3862 183.053 46.6352C182.424 46.8796 181.704 47.0018 180.894 47.0018ZM192.435 36.3704V38.2713H186.44V36.3704H192.435ZM187.92 33.8721H190.378V43.6617C190.378 43.992 190.427 44.2455 190.527 44.422C190.631 44.594 190.767 44.7117 190.934 44.775C191.102 44.8384 191.287 44.8701 191.491 44.8701C191.645 44.8701 191.785 44.8588 191.912 44.8361C192.043 44.8135 192.143 44.7931 192.211 44.775L192.625 46.6963C192.494 46.7415 192.306 46.7913 192.061 46.8456C191.821 46.8999 191.527 46.9316 191.179 46.9407C190.563 46.9588 190.009 46.866 189.515 46.6623C189.022 46.4541 188.631 46.1328 188.341 45.6983C188.056 45.2638 187.916 44.7207 187.92 44.069V33.8721ZM202.2 39.1267L199.96 39.3711C199.896 39.1448 199.785 38.9321 199.627 38.733C199.473 38.5338 199.265 38.3731 199.002 38.2509C198.74 38.1287 198.419 38.0676 198.038 38.0676C197.527 38.0676 197.097 38.1785 196.749 38.4003C196.405 38.6221 196.235 38.9095 196.239 39.2625C196.235 39.5657 196.346 39.8124 196.572 40.0025C196.803 40.1926 197.183 40.3487 197.713 40.4709L199.491 40.8511C200.478 41.0638 201.211 41.401 201.691 41.8626C202.175 42.3243 202.419 42.9285 202.424 43.6752C202.419 44.3315 202.227 44.9108 201.847 45.4132C201.471 45.911 200.949 46.3002 200.279 46.5809C199.609 46.8615 198.839 47.0018 197.971 47.0018C196.694 47.0018 195.667 46.7347 194.888 46.2007C194.11 45.6621 193.646 44.9131 193.497 43.9536L195.893 43.7228C196.002 44.1934 196.233 44.5487 196.586 44.7886C196.939 45.0285 197.398 45.1484 197.964 45.1484C198.548 45.1484 199.016 45.0285 199.369 44.7886C199.727 44.5487 199.905 44.2523 199.905 43.8993C199.905 43.6006 199.79 43.3539 199.559 43.1593C199.333 42.9647 198.98 42.8153 198.5 42.7112L196.721 42.3378C195.721 42.1296 194.981 41.7789 194.501 41.2856C194.022 40.7877 193.784 40.1586 193.789 39.3983C193.784 38.7556 193.958 38.1989 194.311 37.7282C194.669 37.253 195.164 36.8864 195.798 36.6284C196.436 36.3659 197.172 36.2347 198.004 36.2347C199.226 36.2347 200.188 36.4949 200.89 37.0154C201.596 37.5359 202.032 38.2396 202.2 39.1267ZM209.039 39.8463C209.039 38.1491 209.263 36.5899 209.711 35.1688C210.163 33.7432 210.836 32.4261 211.727 31.2177H214.042C213.698 31.6658 213.377 32.2157 213.078 32.8674C212.779 33.5146 212.519 34.2252 212.297 34.9991C212.08 35.7685 211.908 36.5673 211.781 37.3956C211.659 38.2238 211.598 39.0407 211.598 39.8463C211.598 40.919 211.704 42.0052 211.917 43.105C212.134 44.2048 212.426 45.2253 212.793 46.1667C213.164 47.1036 213.58 47.8707 214.042 48.4682H211.727C210.836 47.2597 210.163 45.945 209.711 44.5238C209.263 43.0982 209.039 41.539 209.039 39.8463ZM227.579 37.5856H225.04C224.967 37.1693 224.834 36.8004 224.639 36.4791C224.444 36.1532 224.202 35.8771 223.913 35.6508C223.623 35.4245 223.293 35.2548 222.921 35.1417C222.555 35.024 222.159 34.9651 221.733 34.9651C220.978 34.9651 220.308 35.1552 219.724 35.5354C219.14 35.9111 218.683 36.4632 218.353 37.1919C218.022 37.916 217.857 38.8008 217.857 39.8463C217.857 40.9099 218.022 41.806 218.353 42.5347C218.687 43.2588 219.145 43.8065 219.724 44.1776C220.308 44.5442 220.975 44.7275 221.727 44.7275C222.143 44.7275 222.532 44.6732 222.894 44.5646C223.261 44.4514 223.589 44.2862 223.879 44.069C224.173 43.8517 224.42 43.5847 224.619 43.2679C224.822 42.9511 224.963 42.589 225.04 42.1817L227.579 42.1953C227.484 42.856 227.278 43.4761 226.961 44.0554C226.649 44.6347 226.239 45.1461 225.732 45.5897C225.225 46.0287 224.632 46.3727 223.953 46.6216C223.274 46.866 222.521 46.9882 221.693 46.9882C220.471 46.9882 219.38 46.7053 218.42 46.1396C217.461 45.5738 216.705 44.7569 216.153 43.6888C215.601 42.6207 215.325 41.3399 215.325 39.8463C215.325 38.3483 215.603 37.0674 216.16 36.0038C216.716 34.9357 217.475 34.1188 218.434 33.5531C219.394 32.9873 220.48 32.7045 221.693 32.7045C222.467 32.7045 223.186 32.8131 223.852 33.0303C224.517 33.2476 225.11 33.5666 225.63 33.9876C226.151 34.4039 226.578 34.9154 226.913 35.5218C227.253 36.1238 227.474 36.8117 227.579 37.5856ZM236.04 42.4125V36.3704H238.498V46.7981H236.115V44.9447H236.006C235.771 45.5286 235.384 46.0061 234.846 46.3772C234.312 46.7483 233.653 46.9339 232.87 46.9339C232.187 46.9339 231.582 46.7823 231.057 46.479C230.537 46.1713 230.13 45.7255 229.835 45.1416C229.541 44.5533 229.394 43.8427 229.394 43.0099V36.3704H231.852V42.6297C231.852 43.2905 232.033 43.8155 232.395 44.2048C232.757 44.594 233.232 44.7886 233.82 44.7886C234.183 44.7886 234.533 44.7003 234.873 44.5238C235.212 44.3473 235.491 44.0848 235.708 43.7363C235.93 43.3833 236.04 42.942 236.04 42.4125ZM240.643 46.7981V36.3704H242.992V38.1423H243.114C243.331 37.5449 243.691 37.0787 244.193 36.7438C244.696 36.4044 245.295 36.2347 245.992 36.2347C246.698 36.2347 247.294 36.4066 247.778 36.7506C248.267 37.0901 248.611 37.554 248.81 38.1423H248.918C249.149 37.563 249.538 37.1014 250.086 36.7574C250.638 36.4089 251.292 36.2347 252.048 36.2347C253.007 36.2347 253.79 36.5379 254.397 37.1444C255.003 37.7508 255.307 38.6356 255.307 39.7988V46.7981H252.842V40.179C252.842 39.5318 252.67 39.0588 252.326 38.7601C251.982 38.4569 251.561 38.3053 251.064 38.3053C250.471 38.3053 250.007 38.4908 249.672 38.8619C249.342 39.2285 249.176 39.706 249.176 40.2944V46.7981H246.766V40.0771C246.766 39.5386 246.603 39.1086 246.277 38.7873C245.956 38.4659 245.535 38.3053 245.015 38.3053C244.662 38.3053 244.34 38.3958 244.051 38.5768C243.761 38.7533 243.53 39.0045 243.358 39.3304C243.186 39.6517 243.1 40.0274 243.1 40.4573V46.7981H240.643ZM264.064 42.4125V36.3704H266.521V46.7981H264.138V44.9447H264.03C263.794 45.5286 263.408 46.0061 262.869 46.3772C262.335 46.7483 261.676 46.9339 260.893 46.9339C260.21 46.9339 259.606 46.7823 259.081 46.479C258.56 46.1713 258.153 45.7255 257.859 45.1416C257.565 44.5533 257.418 43.8427 257.418 43.0099V36.3704H259.875V42.6297C259.875 43.2905 260.056 43.8155 260.418 44.2048C260.78 44.594 261.255 44.7886 261.844 44.7886C262.206 44.7886 262.557 44.7003 262.896 44.5238C263.236 44.3473 263.514 44.0848 263.731 43.7363C263.953 43.3833 264.064 42.942 264.064 42.4125ZM271.124 32.8946V46.7981H268.666V32.8946H271.124ZM276.269 47.0085C275.608 47.0085 275.013 46.8909 274.484 46.6555C273.959 46.4157 273.542 46.0626 273.235 45.5965C272.931 45.1303 272.78 44.5555 272.78 43.8721C272.78 43.2837 272.888 42.7972 273.106 42.4125C273.323 42.0278 273.619 41.72 273.995 41.4892C274.371 41.2584 274.794 41.0842 275.264 40.9665C275.74 40.8443 276.231 40.756 276.738 40.7017C277.349 40.6384 277.844 40.5818 278.224 40.532C278.605 40.4777 278.881 40.3962 279.053 40.2876C279.229 40.1745 279.317 40.0002 279.317 39.7649V39.7241C279.317 39.2127 279.166 38.8167 278.862 38.5361C278.559 38.2555 278.123 38.1152 277.552 38.1152C276.95 38.1152 276.473 38.2464 276.12 38.5089C275.771 38.7714 275.536 39.0814 275.414 39.439L273.119 39.1131C273.3 38.4795 273.599 37.95 274.015 37.5245C274.432 37.0946 274.941 36.7732 275.543 36.5605C276.145 36.3433 276.81 36.2347 277.539 36.2347C278.041 36.2347 278.541 36.2935 279.039 36.4112C279.537 36.5288 279.992 36.7235 280.404 36.995C280.815 37.262 281.146 37.6264 281.395 38.088C281.648 38.5497 281.775 39.1267 281.775 39.8192V46.7981H279.412V45.3657H279.331C279.182 45.6553 278.971 45.9269 278.7 46.1803C278.433 46.4292 278.095 46.6306 277.688 46.7845C277.285 46.9339 276.812 47.0085 276.269 47.0085ZM276.907 45.2027C277.401 45.2027 277.828 45.1054 278.19 44.9108C278.552 44.7117 278.831 44.4492 279.025 44.1233C279.225 43.7974 279.324 43.4421 279.324 43.0574V41.8287C279.247 41.892 279.116 41.9509 278.93 42.0052C278.749 42.0595 278.546 42.107 278.319 42.1477C278.093 42.1885 277.869 42.2247 277.647 42.2564C277.426 42.288 277.233 42.3152 277.07 42.3378C276.704 42.3876 276.376 42.4691 276.086 42.5822C275.796 42.6954 275.568 42.8538 275.4 43.0574C275.233 43.2566 275.149 43.5146 275.149 43.8314C275.149 44.284 275.314 44.6257 275.645 44.8565C275.975 45.0873 276.396 45.2027 276.907 45.2027ZM289.071 36.3704V38.2713H283.076V36.3704H289.071ZM284.556 33.8721H287.014V43.6617C287.014 43.992 287.064 44.2455 287.163 44.422C287.267 44.594 287.403 44.7117 287.57 44.775C287.738 44.8384 287.923 44.8701 288.127 44.8701C288.281 44.8701 288.421 44.8588 288.548 44.8361C288.679 44.8135 288.779 44.7931 288.847 44.775L289.261 46.6963C289.13 46.7415 288.942 46.7913 288.697 46.8456C288.457 46.8999 288.163 46.9316 287.815 46.9407C287.199 46.9588 286.645 46.866 286.152 46.6623C285.658 46.4541 285.267 46.1328 284.977 45.6983C284.692 45.2638 284.552 44.7207 284.556 44.069V33.8721ZM290.744 46.7981V36.3704H293.201V46.7981H290.744ZM291.979 34.8905C291.59 34.8905 291.255 34.7615 290.975 34.5035C290.694 34.241 290.554 33.9265 290.554 33.5599C290.554 33.1887 290.694 32.8742 290.975 32.6162C291.255 32.3537 291.59 32.2225 291.979 32.2225C292.373 32.2225 292.708 32.3537 292.984 32.6162C293.265 32.8742 293.405 33.1887 293.405 33.5599C293.405 33.9265 293.265 34.241 292.984 34.5035C292.708 34.7615 292.373 34.8905 291.979 34.8905ZM304.66 36.3704L300.947 46.7981H298.231L294.518 36.3704H297.138L299.535 44.1165H299.643L302.047 36.3704H304.66ZM310.24 47.0018C309.195 47.0018 308.292 46.7845 307.532 46.35C306.776 45.911 306.194 45.291 305.787 44.4899C305.38 43.6843 305.176 42.7361 305.176 41.6454C305.176 40.5727 305.38 39.6313 305.787 38.8212C306.199 38.0065 306.773 37.3729 307.511 36.9203C308.249 36.4632 309.116 36.2347 310.111 36.2347C310.754 36.2347 311.36 36.3388 311.931 36.5469C312.506 36.7506 313.012 37.0674 313.451 37.4974C313.895 37.9273 314.243 38.475 314.497 39.1403C314.75 39.8011 314.877 40.5886 314.877 41.5028V42.2564H306.33V40.5999H312.521C312.517 40.1292 312.415 39.7105 312.216 39.344C312.017 38.9728 311.738 38.6809 311.381 38.4682C311.028 38.2555 310.616 38.1491 310.145 38.1491C309.643 38.1491 309.202 38.2713 308.821 38.5157C308.441 38.7556 308.145 39.0724 307.932 39.4661C307.724 39.8554 307.618 40.2831 307.613 40.7492V42.1953C307.613 42.8017 307.724 43.3222 307.946 43.7567C308.167 44.1867 308.477 44.517 308.876 44.7479C309.274 44.9742 309.74 45.0873 310.274 45.0873C310.632 45.0873 310.955 45.0375 311.245 44.938C311.535 44.8339 311.786 44.6822 311.999 44.4831C312.211 44.284 312.372 44.0373 312.481 43.7431L314.775 44.0011C314.63 44.6076 314.354 45.1371 313.947 45.5897C313.544 46.0377 313.028 46.3862 312.399 46.6352C311.77 46.8796 311.05 47.0018 310.24 47.0018ZM320.959 41.1294C320.959 42.8221 320.733 44.3813 320.281 45.8069C319.832 47.2281 319.163 48.5428 318.271 49.7512H315.956C316.305 49.3032 316.626 48.7555 316.92 48.1083C317.219 47.4611 317.477 46.7506 317.694 45.9766C317.916 45.2027 318.088 44.4016 318.21 43.5734C318.337 42.7452 318.4 41.9305 318.4 41.1294C318.4 40.0568 318.291 38.9706 318.074 37.8708C317.861 36.771 317.57 35.7504 317.198 34.809C316.832 33.8676 316.418 33.0982 315.956 32.5008H318.271C319.163 33.7092 319.832 35.0262 320.281 36.4519C320.733 37.873 320.959 39.4322 320.959 41.1294Z" fill="#1F1F28"/>
<path d="M35.8967 91.895V78.8604H36.7318V91.895H35.8967ZM38.5087 82.9032C38.4544 82.4212 38.2304 82.0478 37.8367 81.783C37.4429 81.5149 36.9473 81.3808 36.3499 81.3808C35.9222 81.3808 35.5522 81.4487 35.2399 81.5845C34.9276 81.7168 34.6849 81.9001 34.5118 82.1344C34.3421 82.3652 34.2572 82.6282 34.2572 82.9236C34.2572 83.1714 34.3149 83.3852 34.4304 83.5651C34.5492 83.745 34.7036 83.8961 34.8937 84.0183C35.0872 84.1371 35.2942 84.2372 35.5149 84.3187C35.7355 84.3967 35.9477 84.4612 36.1513 84.5121L37.1696 84.7769C37.5023 84.8584 37.8434 84.9687 38.1931 85.1079C38.5427 85.247 38.8669 85.4303 39.1656 85.6578C39.4643 85.8852 39.7053 86.1669 39.8886 86.503C40.0753 86.839 40.1686 87.2413 40.1686 87.7097C40.1686 88.3003 40.0159 88.8248 39.7104 89.283C39.4083 89.7413 38.9687 90.1028 38.3916 90.3675C37.818 90.6323 37.1238 90.7647 36.3092 90.7647C35.5284 90.7647 34.853 90.6408 34.2827 90.393C33.7124 90.1452 33.2661 89.7939 32.9436 89.339C32.6211 88.8808 32.4429 88.3377 32.409 87.7097H33.9874C34.0179 88.0865 34.1401 88.4005 34.354 88.6516C34.5712 88.8994 34.8479 89.0844 35.1839 89.2066C35.5234 89.3254 35.895 89.3848 36.299 89.3848C36.7436 89.3848 37.1391 89.3153 37.4853 89.1761C37.835 89.0335 38.1099 88.8366 38.3102 88.5855C38.5104 88.3309 38.6106 88.0339 38.6106 87.6944C38.6106 87.3855 38.5223 87.1326 38.3458 86.9358C38.1727 86.7389 37.9368 86.576 37.6381 86.447C37.3428 86.318 37.0084 86.2043 36.635 86.1058L35.4029 85.7698C34.5678 85.5424 33.9059 85.208 33.4171 84.7667C32.9317 84.3255 32.689 83.7416 32.689 83.0152C32.689 82.4144 32.8519 81.89 33.1778 81.4419C33.5037 80.9938 33.945 80.6459 34.5016 80.3981C35.0583 80.1469 35.6863 80.0213 36.3855 80.0213C37.0916 80.0213 37.7145 80.1452 38.2542 80.393C38.7973 80.6408 39.225 80.982 39.5373 81.4164C39.8495 81.8475 40.0125 82.3431 40.0261 82.9032H38.5087ZM41.6194 90.5916V89.451L45.1479 85.7952C45.5247 85.3981 45.8352 85.0502 46.0796 84.7515C46.3274 84.4494 46.5124 84.1625 46.6346 83.891C46.7568 83.6194 46.8179 83.3309 46.8179 83.0254C46.8179 82.6792 46.7365 82.3805 46.5735 82.1293C46.4106 81.8747 46.1883 81.6795 45.9065 81.5437C45.6248 81.4046 45.3074 81.335 44.9544 81.335C44.581 81.335 44.2551 81.4113 43.9768 81.5641C43.6985 81.7168 43.4846 81.9324 43.3353 82.2107C43.1859 82.4891 43.1112 82.8149 43.1112 83.1883H41.6092C41.6092 82.5536 41.7552 81.9986 42.0471 81.5234C42.339 81.0481 42.7395 80.6798 43.2487 80.4185C43.7579 80.1537 44.3366 80.0213 44.9849 80.0213C45.6401 80.0213 46.2171 80.152 46.7161 80.4134C47.2185 80.6714 47.6105 81.0244 47.8923 81.4724C48.174 81.9171 48.3149 82.4195 48.3149 82.9796C48.3149 83.3665 48.2419 83.745 48.0959 84.115C47.9534 84.485 47.7039 84.8974 47.3475 85.3523C46.991 85.8037 46.4955 86.3519 45.8607 86.9969L43.7884 89.1659V89.2423H48.4829V90.5916H41.6194ZM53.7562 90.7647C52.9517 90.7613 52.2643 90.5491 51.6941 90.1282C51.1238 89.7073 50.6876 89.0946 50.3855 88.2901C50.0834 87.4857 49.9324 86.5166 49.9324 85.3828C49.9324 84.2525 50.0834 83.2868 50.3855 82.4857C50.691 81.6846 51.1289 81.0736 51.6992 80.6527C52.2728 80.2318 52.9585 80.0213 53.7562 80.0213C54.5539 80.0213 55.2379 80.2335 55.8081 80.6578C56.3784 81.0787 56.8146 81.6897 57.1167 82.4908C57.4222 83.2885 57.5749 84.2525 57.5749 85.3828C57.5749 86.5199 57.4239 87.4908 57.1218 88.2952C56.8197 89.0963 56.3835 89.709 55.8132 90.1333C55.2429 90.5542 54.5573 90.7647 53.7562 90.7647ZM53.7562 89.4052C54.4622 89.4052 55.0138 89.0607 55.411 88.3716C55.8115 87.6825 56.0118 86.6863 56.0118 85.3828C56.0118 84.5172 55.9201 83.7857 55.7368 83.1883C55.5569 82.5875 55.2973 82.1327 54.9578 81.8238C54.6218 81.5115 54.2212 81.3553 53.7562 81.3553C53.0535 81.3553 52.502 81.7016 52.1014 82.394C51.7009 83.0865 51.4989 84.0828 51.4955 85.3828C51.4955 86.2518 51.5855 86.9867 51.7654 87.5875C51.9487 88.1849 52.2083 88.6381 52.5444 88.947C52.8804 89.2525 53.2844 89.4052 53.7562 89.4052ZM60.515 87.9388L60.5048 86.0804H60.7696L63.8856 82.7708H65.7084L62.1545 86.5386H61.9152L60.515 87.9388ZM59.1148 90.5916V80.1639H60.6372V90.5916H59.1148ZM64.0537 90.5916L61.2533 86.8747L62.3021 85.8105L65.9223 90.5916H64.0537Z" fill="#1F1F28"/>
<line x1="89.0273" y1="84.9941" x2="322.02" y2="84.9941" stroke="#EAECF0" stroke-width="1.19484"/>
<path d="M35.8967 153.688V140.654H36.7318V153.688H35.8967ZM38.5087 144.697C38.4544 144.215 38.2304 143.841 37.8367 143.576C37.4429 143.308 36.9473 143.174 36.3499 143.174C35.9222 143.174 35.5522 143.242 35.2399 143.378C34.9276 143.51 34.6849 143.694 34.5118 143.928C34.3421 144.159 34.2572 144.422 34.2572 144.717C34.2572 144.965 34.3149 145.179 34.4304 145.359C34.5492 145.538 34.7036 145.69 34.8937 145.812C35.0872 145.931 35.2942 146.031 35.5149 146.112C35.7355 146.19 35.9477 146.255 36.1513 146.306L37.1696 146.57C37.5023 146.652 37.8434 146.762 38.1931 146.901C38.5427 147.04 38.8669 147.224 39.1656 147.451C39.4643 147.679 39.7053 147.96 39.8886 148.296C40.0753 148.632 40.1686 149.035 40.1686 149.503C40.1686 150.094 40.0159 150.618 39.7104 151.076C39.4083 151.535 38.9687 151.896 38.3916 152.161C37.818 152.426 37.1238 152.558 36.3092 152.558C35.5284 152.558 34.853 152.434 34.2827 152.186C33.7124 151.939 33.2661 151.587 32.9436 151.132C32.6211 150.674 32.4429 150.131 32.409 149.503H33.9874C34.0179 149.88 34.1401 150.194 34.354 150.445C34.5712 150.693 34.8479 150.878 35.1839 151C35.5234 151.119 35.895 151.178 36.299 151.178C36.7436 151.178 37.1391 151.109 37.4853 150.97C37.835 150.827 38.1099 150.63 38.3102 150.379C38.5104 150.124 38.6106 149.827 38.6106 149.488C38.6106 149.179 38.5223 148.926 38.3458 148.729C38.1727 148.532 37.9368 148.369 37.6381 148.24C37.3428 148.111 37.0084 147.998 36.635 147.899L35.4029 147.563C34.5678 147.336 33.9059 147.001 33.4171 146.56C32.9317 146.119 32.689 145.535 32.689 144.809C32.689 144.208 32.8519 143.683 33.1778 143.235C33.5037 142.787 33.945 142.439 34.5016 142.192C35.0583 141.94 35.6863 141.815 36.3855 141.815C37.0916 141.815 37.7145 141.939 38.2542 142.186C38.7973 142.434 39.225 142.775 39.5373 143.21C39.8495 143.641 40.0125 144.137 40.0261 144.697H38.5087ZM45.2497 152.558C44.4452 152.555 43.7579 152.343 43.1876 151.922C42.6173 151.501 42.1812 150.888 41.8791 150.084C41.5769 149.279 41.4259 148.31 41.4259 147.176C41.4259 146.046 41.5769 145.08 41.8791 144.279C42.1845 143.478 42.6224 142.867 43.1927 142.446C43.7663 142.025 44.452 141.815 45.2497 141.815C46.0474 141.815 46.7314 142.027 47.3016 142.451C47.8719 142.872 48.3081 143.483 48.6102 144.284C48.9157 145.082 49.0684 146.046 49.0684 147.176C49.0684 148.313 48.9174 149.284 48.6153 150.089C48.3132 150.89 47.877 151.502 47.3067 151.927C46.7365 152.348 46.0508 152.558 45.2497 152.558ZM45.2497 151.199C45.9557 151.199 46.5073 150.854 46.9045 150.165C47.305 149.476 47.5053 148.48 47.5053 147.176C47.5053 146.311 47.4137 145.579 47.2304 144.982C47.0504 144.381 46.7908 143.926 46.4513 143.617C46.1153 143.305 45.7147 143.149 45.2497 143.149C44.5471 143.149 43.9955 143.495 43.5949 144.187C43.1944 144.88 42.9924 145.876 42.989 147.176C42.989 148.045 43.079 148.78 43.2589 149.381C43.4422 149.978 43.7019 150.432 44.0379 150.74C44.3739 151.046 44.7779 151.199 45.2497 151.199ZM52.0085 149.732L51.9983 147.874H52.2631L55.3791 144.564H57.202L53.648 148.332H53.4087L52.0085 149.732ZM50.6083 152.385V141.957H52.1307V152.385H50.6083ZM55.5472 152.385L52.7468 148.668L53.7957 147.604L57.4158 152.385H55.5472Z" fill="#1F1F28"/>
<line x1="89.0273" y1="146.788" x2="322.02" y2="146.788" stroke="#EAECF0" stroke-width="1.19484"/>
<path d="M33.1422 208.965C33.1422 207.688 33.3102 206.514 33.6462 205.441C33.9823 204.369 34.4728 203.379 35.1177 202.473H36.5128C36.2616 202.809 36.0274 203.221 35.8102 203.71C35.5929 204.199 35.4029 204.735 35.2399 205.319C35.077 205.899 34.9497 206.502 34.858 207.127C34.7664 207.748 34.7206 208.36 34.7206 208.965C34.7206 209.773 34.8003 210.591 34.9599 211.419C35.1194 212.247 35.335 213.016 35.6065 213.725C35.8781 214.435 36.1802 215.013 36.5128 215.462H35.1177C34.4728 214.555 33.9823 213.566 33.6462 212.493C33.3102 211.421 33.1422 210.244 33.1422 208.965ZM41.0287 215.482V202.447H41.8638V215.482H41.0287ZM43.6408 206.49C43.5864 206.008 43.3624 205.635 42.9687 205.37C42.5749 205.102 42.0793 204.968 41.4819 204.968C41.0542 204.968 40.6842 205.036 40.3719 205.171C40.0596 205.304 39.8169 205.487 39.6438 205.721C39.4741 205.952 39.3892 206.215 39.3892 206.51C39.3892 206.758 39.4469 206.972 39.5624 207.152C39.6812 207.332 39.8356 207.483 40.0257 207.605C40.2192 207.724 40.4262 207.824 40.6469 207.906C40.8675 207.984 41.0797 208.048 41.2833 208.099L42.3017 208.364C42.6343 208.445 42.9754 208.556 43.3251 208.695C43.6747 208.834 43.9989 209.017 44.2976 209.245C44.5963 209.472 44.8373 209.754 45.0206 210.09C45.2073 210.426 45.3006 210.828 45.3006 211.297C45.3006 211.887 45.1479 212.412 44.8424 212.87C44.5403 213.328 44.1007 213.69 43.5236 213.954C42.95 214.219 42.2558 214.352 41.4412 214.352C40.6605 214.352 39.985 214.228 39.4147 213.98C38.8444 213.732 38.3981 213.381 38.0756 212.926C37.7531 212.468 37.5749 211.925 37.541 211.297H39.1194C39.1499 211.673 39.2721 211.987 39.486 212.239C39.7032 212.486 39.9799 212.671 40.3159 212.794C40.6554 212.912 41.0271 212.972 41.431 212.972C41.8757 212.972 42.2711 212.902 42.6173 212.763C42.967 212.62 43.2419 212.424 43.4422 212.172C43.6425 211.918 43.7426 211.621 43.7426 211.281C43.7426 210.972 43.6543 210.72 43.4778 210.523C43.3047 210.326 43.0688 210.163 42.7701 210.034C42.4748 209.905 42.1404 209.791 41.767 209.693L40.5349 209.357C39.6998 209.129 39.0379 208.795 38.5491 208.354C38.0637 207.912 37.821 207.329 37.821 206.602C37.821 206.001 37.984 205.477 38.3098 205.029C38.6357 204.581 39.077 204.233 39.6336 203.985C40.1903 203.734 40.8183 203.608 41.5175 203.608C42.2236 203.608 42.8465 203.732 43.3862 203.98C43.9293 204.228 44.357 204.569 44.6693 205.003C44.9815 205.434 45.1445 205.93 45.1581 206.49H43.6408ZM46.7514 214.178V213.038L50.2799 209.382C50.6567 208.985 50.9673 208.637 51.2117 208.338C51.4594 208.036 51.6444 207.749 51.7666 207.478C51.8888 207.206 51.9499 206.918 51.9499 206.612C51.9499 206.266 51.8685 205.967 51.7055 205.716C51.5426 205.462 51.3203 205.266 51.0385 205.131C50.7568 204.991 50.4394 204.922 50.0864 204.922C49.713 204.922 49.3871 204.998 49.1088 205.151C48.8305 205.304 48.6166 205.519 48.4673 205.798C48.3179 206.076 48.2432 206.402 48.2432 206.775H46.7412C46.7412 206.14 46.8872 205.585 47.1791 205.11C47.471 204.635 47.8715 204.267 48.3807 204.005C48.8899 203.741 49.4686 203.608 50.1169 203.608C50.7721 203.608 51.3491 203.739 51.8481 204C52.3505 204.258 52.7425 204.611 53.0243 205.059C53.306 205.504 53.4469 206.006 53.4469 206.566C53.4469 206.953 53.3739 207.332 53.2279 207.702C53.0854 208.072 52.8359 208.484 52.4795 208.939C52.1231 209.391 51.6275 209.939 50.9927 210.584L48.9204 212.753V212.829H53.6149V214.178H46.7514ZM58.8882 214.352C58.0837 214.348 57.3963 214.136 56.8261 213.715C56.2558 213.294 55.8196 212.682 55.5175 211.877C55.2154 211.073 55.0644 210.103 55.0644 208.97C55.0644 207.839 55.2154 206.874 55.5175 206.073C55.823 205.272 56.2609 204.661 56.8312 204.24C57.4048 203.819 58.0905 203.608 58.8882 203.608C59.6859 203.608 60.3699 203.82 60.9401 204.245C61.5104 204.666 61.9466 205.277 62.2487 206.078C62.5542 206.875 62.7069 207.839 62.7069 208.97C62.7069 210.107 62.5559 211.078 62.2538 211.882C61.9517 212.683 61.5155 213.296 60.9452 213.72C60.375 214.141 59.6893 214.352 58.8882 214.352ZM58.8882 212.992C59.5942 212.992 60.1458 212.648 60.543 211.959C60.9435 211.269 61.1438 210.273 61.1438 208.97C61.1438 208.104 61.0521 207.373 60.8688 206.775C60.6889 206.174 60.4293 205.72 60.0898 205.411C59.7538 205.098 59.3532 204.942 58.8882 204.942C58.1856 204.942 57.634 205.288 57.2334 205.981C56.8329 206.673 56.6309 207.67 56.6275 208.97C56.6275 209.839 56.7175 210.574 56.8974 211.174C57.0807 211.772 57.3403 212.225 57.6764 212.534C58.0124 212.839 58.4164 212.992 58.8882 212.992ZM65.647 211.526L65.6368 209.667H65.9016L69.0176 206.358H70.8404L67.2865 210.126H67.0472L65.647 211.526ZM64.2468 214.178V203.751H65.7692V214.178H64.2468ZM69.1857 214.178L66.3853 210.462L67.4341 209.397L71.0543 214.178H69.1857ZM74.8688 209.851C74.8688 211.13 74.7008 212.306 74.3648 213.379C74.0287 214.452 73.5382 215.441 72.8933 216.348H71.4982C71.7494 216.011 71.9836 215.599 72.2008 215.11C72.4181 214.621 72.6082 214.087 72.7711 213.506C72.934 212.923 73.0613 212.318 73.153 211.694C73.2446 211.069 73.2904 210.455 73.2904 209.851C73.2904 209.046 73.2107 208.23 73.0511 207.402C72.8916 206.573 72.676 205.804 72.4045 205.095C72.1329 204.386 71.8308 203.807 71.4982 203.359H72.8933C73.5382 204.265 74.0287 205.255 74.3648 206.327C74.7008 207.4 74.8688 208.574 74.8688 209.851Z" fill="#1F1F28"/>
<line x1="89.0273" y1="208.581" x2="322.02" y2="208.581" stroke="#EAECF0" stroke-width="1.19484"/>
<path d="M33.1422 270.758C33.1422 269.482 33.3102 268.307 33.6462 267.235C33.9823 266.162 34.4728 265.173 35.1177 264.266H36.5128C36.2616 264.602 36.0274 265.015 35.8102 265.504C35.5929 265.992 35.4029 266.529 35.2399 267.112C35.077 267.693 34.9497 268.295 34.858 268.92C34.7664 269.541 34.7206 270.154 34.7206 270.758C34.7206 271.566 34.8003 272.384 34.9599 273.212C35.1194 274.04 35.335 274.809 35.6065 275.519C35.8781 276.228 36.1802 276.807 36.5128 277.255H35.1177C34.4728 276.349 33.9823 275.359 33.6462 274.287C33.3102 273.214 33.1422 272.038 33.1422 270.758ZM41.0287 277.275V264.241H41.8638V277.275H41.0287ZM43.6408 268.284C43.5864 267.802 43.3624 267.428 42.9687 267.163C42.5749 266.895 42.0793 266.761 41.4819 266.761C41.0542 266.761 40.6842 266.829 40.3719 266.965C40.0596 267.097 39.8169 267.281 39.6438 267.515C39.4741 267.746 39.3892 268.009 39.3892 268.304C39.3892 268.552 39.4469 268.766 39.5624 268.945C39.6812 269.125 39.8356 269.276 40.0257 269.399C40.2192 269.517 40.4262 269.618 40.6469 269.699C40.8675 269.777 41.0797 269.842 41.2833 269.893L42.3017 270.157C42.6343 270.239 42.9754 270.349 43.3251 270.488C43.6747 270.627 43.9989 270.811 44.2976 271.038C44.5963 271.266 44.8373 271.547 45.0206 271.883C45.2073 272.219 45.3006 272.622 45.3006 273.09C45.3006 273.681 45.1479 274.205 44.8424 274.663C44.5403 275.122 44.1007 275.483 43.5236 275.748C42.95 276.013 42.2558 276.145 41.4412 276.145C40.6605 276.145 39.985 276.021 39.4147 275.773C38.8444 275.526 38.3981 275.174 38.0756 274.719C37.7531 274.261 37.5749 273.718 37.541 273.09H39.1194C39.1499 273.467 39.2721 273.781 39.486 274.032C39.7032 274.28 39.9799 274.465 40.3159 274.587C40.6554 274.706 41.0271 274.765 41.431 274.765C41.8757 274.765 42.2711 274.696 42.6173 274.556C42.967 274.414 43.2419 274.217 43.4422 273.966C43.6425 273.711 43.7426 273.414 43.7426 273.075C43.7426 272.766 43.6543 272.513 43.4778 272.316C43.3047 272.119 43.0688 271.956 42.7701 271.827C42.4748 271.698 42.1404 271.585 41.767 271.486L40.5349 271.15C39.6998 270.923 39.0379 270.588 38.5491 270.147C38.0637 269.706 37.821 269.122 37.821 268.396C37.821 267.795 37.984 267.27 38.3098 266.822C38.6357 266.374 39.077 266.026 39.6336 265.778C40.1903 265.527 40.8183 265.402 41.5175 265.402C42.2236 265.402 42.8465 265.526 43.3862 265.773C43.9293 266.021 44.357 266.362 44.6693 266.797C44.9815 267.228 45.1445 267.723 45.1581 268.284H43.6408ZM46.5324 273.935V272.662L51.0385 265.544H52.0416V267.418H51.4051L48.1821 272.52V272.601H54.3583V273.935H46.5324ZM51.4764 275.972V273.548L51.4866 272.968V265.544H52.9784V275.972H51.4764ZM59.4763 276.145C58.6718 276.142 57.9844 275.929 57.4142 275.509C56.8439 275.088 56.4077 274.475 56.1056 273.671C55.8035 272.866 55.6525 271.897 55.6525 270.763C55.6525 269.633 55.8035 268.667 56.1056 267.866C56.4111 267.065 56.849 266.454 57.4193 266.033C57.9929 265.612 58.6786 265.402 59.4763 265.402C60.274 265.402 60.9579 265.614 61.5282 266.038C62.0985 266.459 62.5347 267.07 62.8368 267.871C63.1423 268.669 63.295 269.633 63.295 270.763C63.295 271.9 63.144 272.871 62.8418 273.676C62.5397 274.477 62.1036 275.089 61.5333 275.514C60.963 275.935 60.2774 276.145 59.4763 276.145ZM59.4763 274.786C60.1823 274.786 60.7339 274.441 61.1311 273.752C61.5316 273.063 61.7319 272.067 61.7319 270.763C61.7319 269.898 61.6402 269.166 61.4569 268.569C61.277 267.968 61.0173 267.513 60.6779 267.204C60.3419 266.892 59.9413 266.736 59.4763 266.736C58.7736 266.736 58.222 267.082 57.8215 267.774C57.421 268.467 57.219 269.463 57.2156 270.763C57.2156 271.632 57.3055 272.367 57.4855 272.968C57.6688 273.565 57.9284 274.018 58.2645 274.327C58.6005 274.633 59.0045 274.786 59.4763 274.786ZM66.2351 273.319L66.2249 271.461H66.4896L69.6057 268.151H71.4285L67.8746 271.919H67.6353L66.2351 273.319ZM64.8349 275.972V265.544H66.3573V275.972H64.8349ZM69.7737 275.972L66.9733 272.255L68.0222 271.191L71.6424 275.972H69.7737ZM75.4569 271.644C75.4569 272.924 75.2889 274.1 74.9528 275.173C74.6168 276.245 74.1263 277.235 73.4814 278.141H72.0863C72.3374 277.805 72.5717 277.392 72.7889 276.904C73.0061 276.415 73.1962 275.88 73.3592 275.3C73.5221 274.716 73.6494 274.112 73.741 273.487C73.8327 272.863 73.8785 272.248 73.8785 271.644C73.8785 270.84 73.7987 270.023 73.6392 269.195C73.4797 268.367 73.2641 267.598 72.9926 266.888C72.721 266.179 72.4189 265.6 72.0863 265.152H73.4814C74.1263 266.059 74.6168 267.048 74.9528 268.121C75.2889 269.193 75.4569 270.368 75.4569 271.644Z" fill="#1F1F28"/>
<line x1="89.0273" y1="270.375" x2="322.02" y2="270.375" stroke="#EAECF0" stroke-width="1.19484"/>
<path d="M89.0273 106.073L105.158 141.32L121.885 133.554L134.431 145.502L139.808 147.892L155.938 118.619L172.068 126.982L176.25 147.892H89.0273V106.073Z" fill="#6461EE" fill-opacity="0.1"/>
<path d="M89.0273 106.073L105.158 141.32L121.885 133.554L134.431 145.502L139.808 147.892L155.938 118.619L172.068 126.982L176.25 147.892H89.0273V106.073Z" fill="url(#paint0_linear_445_7662)" fill-opacity="0.04"/>
<path d="M175.055 147.892H322.019V230.336L305.292 198.075L289.161 176.568L271.836 195.088L255.109 169.399L238.381 171.789L224.043 147.892H220.458L204.328 209.426L189.393 223.167L175.055 147.892Z" fill="#6461EE" fill-opacity="0.1"/>
<path d="M175.055 147.892H322.019V230.336L305.292 198.075L289.161 176.568L271.836 195.088L255.109 169.399L238.381 171.789L224.043 147.892H220.458L204.328 209.426L189.393 223.167L175.055 147.892Z" fill="url(#paint1_linear_445_7662)" fill-opacity="0.04"/>
<path d="M89.0273 106.073L105.404 142.013L121.78 133.754L138.653 150.273L155.774 118.127L172.096 126.61L189.023 223.941L205.524 208.314L222.521 140.451L238.701 172.15L255.274 168.802L272.146 195.367L289.019 176.615L305.148 197.599L322.02 231.53" stroke="#6461EE" stroke-width="1.79225" stroke-linecap="round"/>
</g>
<rect x="3.59742" y="2.71949" width="346.502" height="304.683" rx="28.0786" stroke="#EAECF0" stroke-width="1.19484"/>
</g>
<defs>
<filter id="filter0_d_445_7662" x="0.610329" y="0.927235" width="352.475" height="310.657" filterUnits="userSpaceOnUse" color-interpolation-filters="sRGB">
<feFlood flood-opacity="0" result="BackgroundImageFix"/>
<feColorMatrix in="SourceAlpha" type="matrix" values="0 0 0 0 0 0 0 0 0 0 0 0 0 0 0 0 0 0 127 0" result="hardAlpha"/>
<feOffset dy="1.19484"/>
<feGaussianBlur stdDeviation="1.19484"/>
<feColorMatrix type="matrix" values="0 0 0 0 0.0627451 0 0 0 0 0.0941176 0 0 0 0 0.156863 0 0 0 0.05 0"/>
<feBlend mode="normal" in2="BackgroundImageFix" result="effect1_dropShadow_445_7662"/>
<feBlend mode="normal" in="SourceGraphic" in2="effect1_dropShadow_445_7662" result="shape"/>
</filter>
<linearGradient id="paint0_linear_445_7662" x1="132.639" y1="106.073" x2="132.639" y2="147.892" gradientUnits="userSpaceOnUse">
<stop offset="0.61" stop-color="#6461EE" stop-opacity="0"/>
<stop offset="1" stop-color="#6461EE"/>
</linearGradient>
<linearGradient id="paint1_linear_445_7662" x1="248.537" y1="147.892" x2="248.537" y2="230.336" gradientUnits="userSpaceOnUse">
<stop offset="0.61" stop-color="#6461EE" stop-opacity="0"/>
<stop offset="1" stop-color="#6461EE"/>
</linearGradient>
<clipPath id="clip0_445_7662">
<rect x="3" y="2.12207" width="347.697" height="305.878" rx="28.6761" fill="white"/>
</clipPath>
</defs>
</svg>
