<svg width="32" height="32" viewBox="0 0 32 32" fill="none" xmlns="http://www.w3.org/2000/svg">
<path d="M21.5758 3.66675H10.4185C9.08781 3.66675 8.00781 4.77741 8.00781 6.14675V25.8534C8.00781 27.2227 9.08781 28.3334 10.4185 28.3334H21.5758C22.9065 28.3334 23.9865 27.2227 23.9865 25.8534V6.14675C23.9865 4.77741 22.9065 3.66675 21.5758 3.66675Z" stroke="#39F3FF" stroke-width="2" stroke-linecap="round" stroke-linejoin="round"/>
<path d="M13.3359 7.0293H18.6613M15.9986 25.0306C16.0931 25.0365 16.1878 25.023 16.2768 24.9908C16.3659 24.9587 16.4474 24.9087 16.5164 24.8439C16.5854 24.779 16.6404 24.7008 16.6779 24.6139C16.7155 24.527 16.7349 24.4333 16.7349 24.3386C16.7349 24.244 16.7155 24.1503 16.6779 24.0634C16.6404 23.9765 16.5854 23.8982 16.5164 23.8334C16.4474 23.7686 16.3659 23.7186 16.2768 23.6864C16.1878 23.6543 16.0931 23.6408 15.9986 23.6466C15.8225 23.6576 15.6572 23.7352 15.5364 23.8638C15.4155 23.9924 15.3482 24.1622 15.3482 24.3386C15.3482 24.5151 15.4155 24.6849 15.5364 24.8135C15.6572 24.942 15.8225 25.0197 15.9986 25.0306Z" stroke="#39F3FF" stroke-width="2" stroke-linecap="round" stroke-linejoin="round"/>
</svg>
