<svg width="354" height="515" viewBox="0 0 354 515" fill="none" xmlns="http://www.w3.org/2000/svg">
<g filter="url(#filter0_d_445_7681)">
<g clip-path="url(#clip0_445_7681)">
<rect x="3" y="2" width="347.697" height="509" rx="28.6761" fill="white"/>
<path d="M34.8326 46.676H32.1442L37.039 32.7725H40.1483L45.0498 46.676H42.3614L38.6479 35.6238H38.5393L34.8326 46.676ZM34.9208 41.2246H42.2528V43.2477H34.9208V41.2246ZM50.6213 46.8797C49.5803 46.8797 48.6864 46.6511 47.9397 46.194C47.1974 45.7369 46.6249 45.1055 46.2221 44.2999C45.8238 43.4898 45.6247 42.5575 45.6247 41.5029C45.6247 40.4439 45.8283 39.5093 46.2357 38.6991C46.643 37.8845 47.2178 37.2509 47.96 36.7983C48.7068 36.3411 49.5894 36.1126 50.6077 36.1126C51.454 36.1126 52.2031 36.2687 52.8548 36.581C53.511 36.8888 54.0338 37.3255 54.423 37.8913C54.8122 38.4525 55.034 39.1087 55.0883 39.86H52.7394C52.6443 39.3577 52.418 38.939 52.0605 38.6041C51.7075 38.2647 51.2345 38.0949 50.6416 38.0949C50.1393 38.0949 49.698 38.2307 49.3178 38.5023C48.9376 38.7693 48.6412 39.154 48.4285 39.6564C48.2203 40.1587 48.1162 40.7607 48.1162 41.4622C48.1162 42.1728 48.2203 42.7838 48.4285 43.2952C48.6367 43.8021 48.9286 44.1936 49.3042 44.4697C49.6844 44.7412 50.1302 44.877 50.6416 44.877C51.0037 44.877 51.3273 44.8091 51.6124 44.6733C51.9021 44.533 52.1442 44.3316 52.3388 44.0691C52.5334 43.8066 52.667 43.4875 52.7394 43.1119H55.0883C55.0295 43.8496 54.8122 44.5036 54.4366 45.0739C54.0609 45.6396 53.5495 46.0831 52.9023 46.4045C52.2551 46.7213 51.4948 46.8797 50.6213 46.8797ZM61.931 36.2484V38.1492H55.9364V36.2484H61.931ZM57.4164 33.7501H59.874V43.5396C59.874 43.87 59.9238 44.1234 60.0233 44.2999C60.1274 44.4719 60.2632 44.5896 60.4307 44.653C60.5981 44.7163 60.7837 44.748 60.9873 44.748C61.1412 44.748 61.2815 44.7367 61.4082 44.7141C61.5395 44.6914 61.6391 44.6711 61.707 44.653L62.1211 46.5742C61.9898 46.6195 61.802 46.6692 61.5576 46.7235C61.3177 46.7779 61.0235 46.8095 60.6751 46.8186C60.0595 46.8367 59.5051 46.7439 59.0118 46.5402C58.5185 46.3321 58.127 46.0107 57.8373 45.5762C57.5522 45.1417 57.4119 44.5986 57.4164 43.9469V33.7501ZM70.2502 42.2904V36.2484H72.7078V46.676H70.3249V44.8227H70.2163C69.9809 45.4065 69.594 45.884 69.0554 46.2551C68.5213 46.6262 67.8628 46.8118 67.0798 46.8118C66.3964 46.8118 65.7922 46.6602 65.2672 46.3569C64.7468 46.0492 64.3394 45.6034 64.0452 45.0195C63.7511 44.4312 63.604 43.7206 63.604 42.8879V36.2484H66.0615V42.5077C66.0615 43.1685 66.2426 43.6935 66.6046 44.0827C66.9667 44.4719 67.4419 44.6665 68.0303 44.6665C68.3924 44.6665 68.7431 44.5783 69.0826 44.4018C69.422 44.2253 69.7003 43.9628 69.9176 43.6143C70.1394 43.2612 70.2502 42.82 70.2502 42.2904ZM77.8533 46.8865C77.1925 46.8865 76.5973 46.7688 76.0678 46.5335C75.5428 46.2936 75.1264 45.9406 74.8187 45.4744C74.5154 45.0082 74.3638 44.4334 74.3638 43.75C74.3638 43.1617 74.4724 42.6751 74.6897 42.2904C74.9069 41.9057 75.2034 41.598 75.579 41.3672C75.9546 41.1363 76.3778 40.9621 76.8485 40.8444C77.3237 40.7222 77.8148 40.634 78.3217 40.5796C78.9327 40.5163 79.4283 40.4597 79.8084 40.4099C80.1886 40.3556 80.4647 40.2742 80.6367 40.1655C80.8132 40.0524 80.9015 39.8781 80.9015 39.6428V39.6021C80.9015 39.0906 80.7498 38.6946 80.4466 38.414C80.1434 38.1334 79.7066 37.9931 79.1364 37.9931C78.5344 37.9931 78.0569 38.1244 77.7039 38.3869C77.3554 38.6494 77.1201 38.9594 76.9979 39.3169L74.7032 38.9911C74.8843 38.3574 75.183 37.8279 75.5994 37.4025C76.0157 36.9725 76.5249 36.6512 77.1269 36.4385C77.7288 36.2212 78.3941 36.1126 79.1228 36.1126C79.6251 36.1126 80.1253 36.1714 80.6231 36.2891C81.121 36.4068 81.5758 36.6014 81.9877 36.8729C82.3995 37.14 82.7299 37.5043 82.9788 37.9659C83.2323 38.4276 83.359 39.0046 83.359 39.6971V46.676H80.9965V45.2436H80.915C80.7657 45.5332 80.5552 45.8048 80.2837 46.0582C80.0166 46.3072 79.6795 46.5086 79.2721 46.6624C78.8693 46.8118 78.3964 46.8865 77.8533 46.8865ZM78.4914 45.0806C78.9847 45.0806 79.4124 44.9833 79.7745 44.7887C80.1366 44.5896 80.4149 44.3271 80.6095 44.0012C80.8087 43.6754 80.9082 43.3201 80.9082 42.9354V41.7066C80.8313 41.77 80.7 41.8288 80.5145 41.8831C80.3335 41.9374 80.1298 41.9849 79.9035 42.0257C79.6772 42.0664 79.4532 42.1026 79.2314 42.1343C79.0096 42.166 78.8173 42.1931 78.6543 42.2158C78.2877 42.2655 77.9596 42.347 77.67 42.4602C77.3803 42.5733 77.1517 42.7317 76.9843 42.9354C76.8168 43.1345 76.7331 43.3925 76.7331 43.7093C76.7331 44.1619 76.8983 44.5036 77.2287 44.7344C77.5591 44.9652 77.98 45.0806 78.4914 45.0806ZM87.9054 32.7725V46.676H85.4478V32.7725H87.9054ZM98.2918 39.0046L96.0515 39.249C95.9881 39.0227 95.8772 38.81 95.7188 38.6109C95.565 38.4117 95.3568 38.2511 95.0943 38.1289C94.8318 38.0067 94.5104 37.9456 94.1303 37.9456C93.6188 37.9456 93.1889 38.0565 92.8404 38.2782C92.4964 38.5 92.3267 38.7874 92.3312 39.1404C92.3267 39.4436 92.4376 39.6903 92.6639 39.8804C92.8947 40.0705 93.2749 40.2266 93.8044 40.3488L95.5831 40.729C96.5697 40.9417 97.3029 41.2789 97.7826 41.7405C98.2669 42.2022 98.5113 42.8064 98.5158 43.5532C98.5113 44.2094 98.319 44.7887 97.9388 45.2911C97.5631 45.789 97.0404 46.1782 96.3706 46.4588C95.7007 46.7394 94.9313 46.8797 94.0624 46.8797C92.7861 46.8797 91.7587 46.6127 90.9802 46.0786C90.2018 45.54 89.7379 44.791 89.5885 43.8315L91.985 43.6007C92.0936 44.0714 92.3244 44.4267 92.6774 44.6665C93.0305 44.9064 93.4898 45.0263 94.0556 45.0263C94.6394 45.0263 95.1078 44.9064 95.4609 44.6665C95.8184 44.4267 95.9972 44.1302 95.9972 43.7772C95.9972 43.4785 95.8818 43.2318 95.651 43.0372C95.4247 42.8426 95.0716 42.6932 94.5919 42.5891L92.8132 42.2158C91.813 42.0076 91.073 41.6568 90.5933 41.1635C90.1135 40.6656 89.8759 40.0365 89.8804 39.2762C89.8759 38.6335 90.0502 38.0768 90.4032 37.6061C90.7607 37.1309 91.2563 36.7643 91.8899 36.5063C92.5281 36.2438 93.2635 36.1126 94.0963 36.1126C95.3183 36.1126 96.28 36.3728 96.9816 36.8933C97.6876 37.4138 98.1244 38.1176 98.2918 39.0046ZM113.834 36.2484L110.12 46.676H107.405L103.691 36.2484H106.312L108.708 43.9944H108.817L111.22 36.2484H113.834ZM123.394 39.0046L121.153 39.249C121.09 39.0227 120.979 38.81 120.821 38.6109C120.667 38.4117 120.459 38.2511 120.196 38.1289C119.934 38.0067 119.612 37.9456 119.232 37.9456C118.721 37.9456 118.291 38.0565 117.942 38.2782C117.598 38.5 117.429 38.7874 117.433 39.1404C117.429 39.4436 117.54 39.6903 117.766 39.8804C117.997 40.0705 118.377 40.2266 118.906 40.3488L120.685 40.729C121.672 40.9417 122.405 41.2789 122.885 41.7405C123.369 42.2022 123.613 42.8064 123.618 43.5532C123.613 44.2094 123.421 44.7887 123.041 45.2911C122.665 45.789 122.142 46.1782 121.473 46.4588C120.803 46.7394 120.033 46.8797 119.164 46.8797C117.888 46.8797 116.861 46.6127 116.082 46.0786C115.304 45.54 114.84 44.791 114.691 43.8315L117.087 43.6007C117.196 44.0714 117.426 44.4267 117.779 44.6665C118.132 44.9064 118.592 45.0263 119.158 45.0263C119.741 45.0263 120.21 44.9064 120.563 44.6665C120.92 44.4267 121.099 44.1302 121.099 43.7772C121.099 43.4785 120.984 43.2318 120.753 43.0372C120.527 42.8426 120.174 42.6932 119.694 42.5891L117.915 42.2158C116.915 42.0076 116.175 41.6568 115.695 41.1635C115.216 40.6656 114.978 40.0365 114.982 39.2762C114.978 38.6335 115.152 38.0768 115.505 37.6061C115.863 37.1309 116.358 36.7643 116.992 36.5063C117.63 36.2438 118.366 36.1126 119.198 36.1126C120.42 36.1126 121.382 36.3728 122.084 36.8933C122.79 37.4138 123.226 38.1176 123.394 39.0046ZM129.73 46.676V32.7725H132.249V44.5647H138.372V46.676H129.73ZM137.825 32.7725H140.67L144.071 38.9232H144.207L147.608 32.7725H150.453L145.395 41.4894V46.676H142.883V41.4894L137.825 32.7725ZM156.716 39.7243C156.716 38.027 156.94 36.4679 157.388 35.0467C157.841 33.6211 158.513 32.3041 159.405 31.0956H161.72C161.376 31.5437 161.054 32.0936 160.756 32.7453C160.457 33.3925 160.197 34.1031 159.975 34.877C159.758 35.6464 159.586 36.4452 159.459 37.2735C159.337 38.1017 159.276 38.9186 159.276 39.7243C159.276 40.7969 159.382 41.8831 159.595 42.9829C159.812 44.0827 160.104 45.1033 160.47 46.0447C160.842 46.9815 161.258 47.7487 161.72 48.3461H159.405C158.513 47.1377 157.841 45.8229 157.388 44.4018C156.94 42.9761 156.716 41.4169 156.716 39.7243ZM175.256 37.4636H172.717C172.645 37.0472 172.511 36.6783 172.316 36.357C172.122 36.0311 171.88 35.755 171.59 35.5288C171.3 35.3025 170.97 35.1327 170.599 35.0196C170.232 34.9019 169.836 34.8431 169.411 34.8431C168.655 34.8431 167.985 35.0332 167.401 35.4133C166.817 35.789 166.36 36.3411 166.03 37.0698C165.7 37.794 165.534 38.6788 165.534 39.7243C165.534 40.7878 165.7 41.684 166.03 42.4126C166.365 43.1368 166.822 43.6844 167.401 44.0555C167.985 44.4221 168.653 44.6054 169.404 44.6054C169.82 44.6054 170.21 44.5511 170.572 44.4425C170.938 44.3293 171.266 44.1642 171.556 43.9469C171.85 43.7297 172.097 43.4626 172.296 43.1458C172.5 42.829 172.64 42.4669 172.717 42.0596L175.256 42.0732C175.161 42.734 174.955 43.354 174.638 43.9333C174.326 44.5126 173.916 45.0241 173.409 45.4676C172.903 45.9066 172.31 46.2506 171.631 46.4995C170.952 46.7439 170.198 46.8661 169.37 46.8661C168.148 46.8661 167.057 46.5832 166.098 46.0175C165.138 45.4518 164.383 44.6348 163.83 43.5667C163.278 42.4986 163.002 41.2178 163.002 39.7243C163.002 38.2262 163.28 36.9454 163.837 35.8818C164.394 34.8137 165.152 33.9967 166.111 33.431C167.071 32.8653 168.157 32.5824 169.37 32.5824C170.144 32.5824 170.864 32.691 171.529 32.9083C172.194 33.1255 172.787 33.4446 173.308 33.8655C173.828 34.2819 174.256 34.7933 174.591 35.3998C174.93 36.0017 175.152 36.6896 175.256 37.4636ZM183.718 42.2904V36.2484H186.175V46.676H183.792V44.8227H183.684C183.449 45.4065 183.062 45.884 182.523 46.2551C181.989 46.6262 181.33 46.8118 180.547 46.8118C179.864 46.8118 179.26 46.6602 178.735 46.3569C178.214 46.0492 177.807 45.6034 177.513 45.0195C177.219 44.4312 177.072 43.7206 177.072 42.8879V36.2484H179.529V42.5077C179.529 43.1685 179.71 43.6935 180.072 44.0827C180.434 44.4719 180.909 44.6665 181.498 44.6665C181.86 44.6665 182.211 44.5783 182.55 44.4018C182.89 44.2253 183.168 43.9628 183.385 43.6143C183.607 43.2612 183.718 42.82 183.718 42.2904ZM188.32 46.676V36.2484H190.669V38.0203H190.791C191.009 37.4228 191.368 36.9567 191.871 36.6218C192.373 36.2823 192.973 36.1126 193.67 36.1126C194.376 36.1126 194.971 36.2846 195.455 36.6285C195.944 36.968 196.288 37.4319 196.487 38.0203H196.596C196.827 37.4409 197.216 36.9793 197.763 36.6353C198.316 36.2868 198.97 36.1126 199.725 36.1126C200.685 36.1126 201.468 36.4158 202.074 37.0223C202.681 37.6288 202.984 38.5136 202.984 39.6767V46.676H200.52V40.0569C200.52 39.4097 200.348 38.9367 200.004 38.638C199.66 38.3348 199.239 38.1832 198.741 38.1832C198.148 38.1832 197.684 38.3687 197.349 38.7399C197.019 39.1065 196.854 39.584 196.854 40.1723V46.676H194.444V39.9551C194.444 39.4165 194.281 38.9865 193.955 38.6652C193.634 38.3439 193.213 38.1832 192.692 38.1832C192.339 38.1832 192.018 38.2737 191.728 38.4547C191.438 38.6313 191.208 38.8824 191.036 39.2083C190.864 39.5296 190.778 39.9053 190.778 40.3352V46.676H188.32ZM211.741 42.2904V36.2484H214.199V46.676H211.816V44.8227H211.707C211.472 45.4065 211.085 45.884 210.546 46.2551C210.012 46.6262 209.354 46.8118 208.571 46.8118C207.887 46.8118 207.283 46.6602 206.758 46.3569C206.238 46.0492 205.83 45.6034 205.536 45.0195C205.242 44.4312 205.095 43.7206 205.095 42.8879V36.2484H207.552V42.5077C207.552 43.1685 207.734 43.6935 208.096 44.0827C208.458 44.4719 208.933 44.6665 209.521 44.6665C209.883 44.6665 210.234 44.5783 210.574 44.4018C210.913 44.2253 211.191 43.9628 211.409 43.6143C211.63 43.2612 211.741 42.82 211.741 42.2904ZM218.801 32.7725V46.676H216.344V32.7725H218.801ZM223.947 46.8865C223.286 46.8865 222.691 46.7688 222.161 46.5335C221.636 46.2936 221.22 45.9406 220.912 45.4744C220.609 45.0082 220.457 44.4334 220.457 43.75C220.457 43.1617 220.566 42.6751 220.783 42.2904C221 41.9057 221.297 41.598 221.672 41.3672C222.048 41.1363 222.471 40.9621 222.942 40.8444C223.417 40.7222 223.908 40.634 224.415 40.5796C225.026 40.5163 225.522 40.4597 225.902 40.4099C226.282 40.3556 226.558 40.2742 226.73 40.1655C226.906 40.0524 226.995 39.8781 226.995 39.6428V39.6021C226.995 39.0906 226.843 38.6946 226.54 38.414C226.237 38.1334 225.8 37.9931 225.23 37.9931C224.628 37.9931 224.15 38.1244 223.797 38.3869C223.449 38.6494 223.213 38.9594 223.091 39.3169L220.797 38.9911C220.978 38.3574 221.276 37.8279 221.693 37.4025C222.109 36.9725 222.618 36.6512 223.22 36.4385C223.822 36.2212 224.487 36.1126 225.216 36.1126C225.718 36.1126 226.219 36.1714 226.716 36.2891C227.214 36.4068 227.669 36.6014 228.081 36.8729C228.493 37.14 228.823 37.5043 229.072 37.9659C229.326 38.4276 229.452 39.0046 229.452 39.6971V46.676H227.09V45.2436H227.008C226.859 45.5332 226.649 45.8048 226.377 46.0582C226.11 46.3072 225.773 46.5086 225.365 46.6624C224.963 46.8118 224.49 46.8865 223.947 46.8865ZM224.585 45.0806C225.078 45.0806 225.506 44.9833 225.868 44.7887C226.23 44.5896 226.508 44.3271 226.703 44.0012C226.902 43.6754 227.002 43.3201 227.002 42.9354V41.7066C226.925 41.77 226.793 41.8288 226.608 41.8831C226.427 41.9374 226.223 41.9849 225.997 42.0257C225.77 42.0664 225.546 42.1026 225.325 42.1343C225.103 42.166 224.911 42.1931 224.748 42.2158C224.381 42.2655 224.053 42.347 223.763 42.4602C223.474 42.5733 223.245 42.7317 223.078 42.9354C222.91 43.1345 222.826 43.3925 222.826 43.7093C222.826 44.1619 222.992 44.5036 223.322 44.7344C223.652 44.9652 224.073 45.0806 224.585 45.0806ZM236.748 36.2484V38.1492H230.754V36.2484H236.748ZM232.234 33.7501H234.691V43.5396C234.691 43.87 234.741 44.1234 234.84 44.2999C234.945 44.4719 235.08 44.5896 235.248 44.653C235.415 44.7163 235.601 44.748 235.804 44.748C235.958 44.748 236.099 44.7367 236.225 44.7141C236.357 44.6914 236.456 44.6711 236.524 44.653L236.938 46.5742C236.807 46.6195 236.619 46.6692 236.375 46.7235C236.135 46.7779 235.841 46.8095 235.492 46.8186C234.877 46.8367 234.322 46.7439 233.829 46.5402C233.336 46.3321 232.944 46.0107 232.654 45.5762C232.369 45.1417 232.229 44.5986 232.234 43.9469V33.7501ZM238.421 46.676V36.2484H240.879V46.676H238.421ZM239.657 34.7684C239.267 34.7684 238.933 34.6394 238.652 34.3814C238.371 34.1189 238.231 33.8044 238.231 33.4378C238.231 33.0667 238.371 32.7521 238.652 32.4941C238.933 32.2316 239.267 32.1004 239.657 32.1004C240.05 32.1004 240.385 32.2316 240.661 32.4941C240.942 32.7521 241.082 33.0667 241.082 33.4378C241.082 33.8044 240.942 34.1189 240.661 34.3814C240.385 34.6394 240.05 34.7684 239.657 34.7684ZM252.338 36.2484L248.624 46.676H245.909L242.195 36.2484H244.816L247.212 43.9944H247.321L249.724 36.2484H252.338ZM257.918 46.8797C256.872 46.8797 255.969 46.6624 255.209 46.228C254.453 45.789 253.872 45.1689 253.464 44.3678C253.057 43.5622 252.853 42.614 252.853 41.5233C252.853 40.4507 253.057 39.5093 253.464 38.6991C253.876 37.8845 254.451 37.2509 255.189 36.7983C255.926 36.3411 256.793 36.1126 257.789 36.1126C258.431 36.1126 259.038 36.2167 259.608 36.4249C260.183 36.6285 260.69 36.9454 261.129 37.3753C261.572 37.8053 261.921 38.3529 262.174 39.0182C262.428 39.679 262.554 40.4665 262.554 41.3807V42.1343H254.007V40.4778H260.199C260.194 40.0071 260.092 39.5885 259.893 39.2219C259.694 38.8508 259.416 38.5588 259.058 38.3461C258.705 38.1334 258.293 38.027 257.823 38.027C257.32 38.027 256.879 38.1492 256.499 38.3936C256.119 38.6335 255.822 38.9503 255.61 39.3441C255.401 39.7333 255.295 40.161 255.29 40.6272V42.0732C255.29 42.6797 255.401 43.2001 255.623 43.6346C255.845 44.0646 256.155 44.395 256.553 44.6258C256.951 44.8521 257.418 44.9652 257.952 44.9652C258.309 44.9652 258.633 44.9155 258.922 44.8159C259.212 44.7118 259.463 44.5602 259.676 44.361C259.889 44.1619 260.049 43.9152 260.158 43.621L262.453 43.879C262.308 44.4855 262.032 45.015 261.624 45.4676C261.222 45.9157 260.706 46.2642 260.077 46.5131C259.447 46.7575 258.728 46.8797 257.918 46.8797ZM268.637 41.0073C268.637 42.7 268.411 44.2592 267.958 45.6849C267.51 47.106 266.84 48.4208 265.948 49.6292H263.633C263.982 49.1811 264.303 48.6335 264.597 47.9863C264.896 47.3391 265.154 46.6285 265.371 45.8546C265.593 45.0806 265.765 44.2796 265.887 43.4513C266.014 42.6231 266.077 41.8084 266.077 41.0073C266.077 39.9347 265.969 38.8485 265.752 37.7487C265.539 36.6489 265.247 35.6283 264.876 34.6869C264.509 33.7456 264.095 32.9761 263.633 32.3787H265.948C266.84 33.5871 267.51 34.9042 267.958 36.3298C268.411 37.751 268.637 39.3101 268.637 41.0073Z" fill="#1F1F28"/>
<path d="M35.8967 91.7729V78.7384H36.7318V91.7729H35.8967ZM38.5087 82.7811C38.4544 82.2991 38.2304 81.9257 37.8367 81.661C37.4429 81.3928 36.9473 81.2587 36.3499 81.2587C35.9222 81.2587 35.5522 81.3266 35.2399 81.4624C34.9276 81.5948 34.6849 81.7781 34.5118 82.0123C34.3421 82.2431 34.2572 82.5062 34.2572 82.8015C34.2572 83.0493 34.3149 83.2631 34.4304 83.443C34.5492 83.6229 34.7036 83.774 34.8937 83.8962C35.0872 84.015 35.2942 84.1151 35.5149 84.1966C35.7355 84.2747 35.9477 84.3392 36.1513 84.3901L37.1696 84.6548C37.5023 84.7363 37.8434 84.8466 38.1931 84.9858C38.5427 85.125 38.8669 85.3083 39.1656 85.5357C39.4643 85.7631 39.7053 86.0449 39.8886 86.3809C40.0753 86.717 40.1686 87.1192 40.1686 87.5876C40.1686 88.1782 40.0159 88.7027 39.7104 89.1609C39.4083 89.6192 38.9687 89.9807 38.3916 90.2455C37.818 90.5102 37.1238 90.6426 36.3092 90.6426C35.5284 90.6426 34.853 90.5187 34.2827 90.2709C33.7124 90.0231 33.2661 89.6718 32.9436 89.2169C32.6211 88.7587 32.4429 88.2156 32.409 87.5876H33.9874C34.0179 87.9644 34.1401 88.2784 34.354 88.5296C34.5712 88.7774 34.8479 88.9624 35.1839 89.0846C35.5234 89.2034 35.895 89.2628 36.299 89.2628C36.7436 89.2628 37.1391 89.1932 37.4853 89.054C37.835 88.9114 38.1099 88.7146 38.3102 88.4634C38.5104 88.2088 38.6106 87.9118 38.6106 87.5723C38.6106 87.2635 38.5223 87.0106 38.3458 86.8137C38.1727 86.6168 37.9368 86.4539 37.6381 86.3249C37.3428 86.1959 37.0084 86.0822 36.635 85.9838L35.4029 85.6477C34.5678 85.4203 33.9059 85.0859 33.4171 84.6447C32.9317 84.2034 32.689 83.6195 32.689 82.8931C32.689 82.2923 32.8519 81.7679 33.1778 81.3198C33.5037 80.8718 33.945 80.5238 34.5016 80.276C35.0583 80.0249 35.6863 79.8993 36.3855 79.8993C37.0916 79.8993 37.7145 80.0232 38.2542 80.2709C38.7973 80.5187 39.225 80.8599 39.5373 81.2944C39.8495 81.7255 40.0125 82.221 40.0261 82.7811H38.5087ZM41.4004 88.4328V87.1599L45.9065 80.0418H46.9096V81.9155H46.2731L43.0501 87.0174V87.0988H49.2263V88.4328H41.4004ZM46.3444 90.4695V88.0459L46.3546 87.4654V80.0418H47.8464V90.4695H46.3444ZM54.3443 90.6426C53.5398 90.6392 52.8524 90.4271 52.2822 90.0061C51.7119 89.5852 51.2757 88.9725 50.9736 88.1681C50.6715 87.3636 50.5205 86.3945 50.5205 85.2607C50.5205 84.1304 50.6715 83.1647 50.9736 82.3636C51.2791 81.5625 51.717 80.9515 52.2873 80.5306C52.8609 80.1097 53.5466 79.8993 54.3443 79.8993C55.142 79.8993 55.8259 80.1114 56.3962 80.5357C56.9665 80.9566 57.4026 81.5676 57.7048 82.3687C58.0102 83.1664 58.163 84.1304 58.163 85.2607C58.163 86.3979 58.0119 87.3687 57.7098 88.1732C57.4077 88.9742 56.9716 89.5869 56.4013 90.0112C55.831 90.4321 55.1454 90.6426 54.3443 90.6426ZM54.3443 89.2831C55.0503 89.2831 55.6019 88.9386 55.9991 88.2495C56.3996 87.5605 56.5999 86.5642 56.5999 85.2607C56.5999 84.3952 56.5082 83.6637 56.3249 83.0663C56.145 82.4654 55.8853 82.0106 55.5459 81.7017C55.2099 81.3894 54.8093 81.2333 54.3443 81.2333C53.6416 81.2333 53.09 81.5795 52.6895 82.272C52.289 82.9644 52.087 83.9607 52.0836 85.2607C52.0836 86.1297 52.1735 86.8646 52.3534 87.4654C52.5367 88.0628 52.7964 88.516 53.1325 88.8249C53.4685 89.1304 53.8725 89.2831 54.3443 89.2831ZM61.1031 87.8167L61.0929 85.9583H61.3576L64.4737 82.6487H66.2965L62.7426 86.4165H62.5033L61.1031 87.8167ZM59.7029 90.4695V80.0418H61.2253V90.4695H59.7029ZM64.6417 90.4695L61.8413 86.7526L62.8902 85.6884L66.5104 90.4695H64.6417Z" fill="#1F1F28"/>
<line x1="89.0273" y1="84.8721" x2="322.02" y2="84.8721" stroke="#EAECF0" stroke-width="1.19484"/>
<path d="M35.8967 188.217V175.182H36.7318V188.217H35.8967ZM38.5087 179.225C38.4544 178.743 38.2304 178.369 37.8367 178.105C37.4429 177.836 36.9473 177.702 36.3499 177.702C35.9222 177.702 35.5522 177.77 35.2399 177.906C34.9276 178.038 34.6849 178.222 34.5118 178.456C34.3421 178.687 34.2572 178.95 34.2572 179.245C34.2572 179.493 34.3149 179.707 34.4304 179.887C34.5492 180.067 34.7036 180.218 34.8937 180.34C35.0872 180.459 35.2942 180.559 35.5149 180.64C35.7355 180.718 35.9477 180.783 36.1513 180.834L37.1696 181.098C37.5023 181.18 37.8434 181.29 38.1931 181.429C38.5427 181.569 38.8669 181.752 39.1656 181.979C39.4643 182.207 39.7053 182.488 39.8886 182.825C40.0753 183.161 40.1686 183.563 40.1686 184.031C40.1686 184.622 40.0159 185.146 39.7104 185.605C39.4083 186.063 38.9687 186.424 38.3916 186.689C37.818 186.954 37.1238 187.086 36.3092 187.086C35.5284 187.086 34.853 186.962 34.2827 186.715C33.7124 186.467 33.2661 186.115 32.9436 185.661C32.6211 185.202 32.4429 184.659 32.409 184.031H33.9874C34.0179 184.408 34.1401 184.722 34.354 184.973C34.5712 185.221 34.8479 185.406 35.1839 185.528C35.5234 185.647 35.895 185.706 36.299 185.706C36.7436 185.706 37.1391 185.637 37.4853 185.498C37.835 185.355 38.1099 185.158 38.3102 184.907C38.5104 184.652 38.6106 184.355 38.6106 184.016C38.6106 183.707 38.5223 183.454 38.3458 183.257C38.1727 183.06 37.9368 182.897 37.6381 182.768C37.3428 182.64 37.0084 182.526 36.635 182.427L35.4029 182.091C34.5678 181.864 33.9059 181.53 33.4171 181.088C32.9317 180.647 32.689 180.063 32.689 179.337C32.689 178.736 32.8519 178.211 33.1778 177.763C33.5037 177.315 33.945 176.967 34.5016 176.72C35.0583 176.468 35.6863 176.343 36.3855 176.343C37.0916 176.343 37.7145 176.467 38.2542 176.715C38.7973 176.962 39.225 177.303 39.5373 177.738C39.8495 178.169 40.0125 178.665 40.0261 179.225H38.5087ZM41.6194 186.913V185.773L45.1479 182.117C45.5247 181.72 45.8352 181.372 46.0796 181.073C46.3274 180.771 46.5124 180.484 46.6346 180.213C46.7568 179.941 46.8179 179.652 46.8179 179.347C46.8179 179.001 46.7365 178.702 46.5735 178.451C46.4106 178.196 46.1883 178.001 45.9065 177.865C45.6248 177.726 45.3074 177.657 44.9544 177.657C44.581 177.657 44.2551 177.733 43.9768 177.886C43.6985 178.038 43.4846 178.254 43.3353 178.532C43.1859 178.811 43.1112 179.136 43.1112 179.51H41.6092C41.6092 178.875 41.7552 178.32 42.0471 177.845C42.339 177.37 42.7395 177.001 43.2487 176.74C43.7579 176.475 44.3366 176.343 44.9849 176.343C45.6401 176.343 46.2171 176.474 46.7161 176.735C47.2185 176.993 47.6105 177.346 47.8923 177.794C48.174 178.239 48.3149 178.741 48.3149 179.301C48.3149 179.688 48.2419 180.067 48.0959 180.437C47.9534 180.807 47.7039 181.219 47.3475 181.674C46.991 182.125 46.4955 182.673 45.8607 183.318L43.7884 185.487V185.564H48.4829V186.913H41.6194ZM53.7562 187.086C52.9517 187.083 52.2643 186.871 51.6941 186.45C51.1238 186.029 50.6876 185.416 50.3855 184.612C50.0834 183.807 49.9324 182.838 49.9324 181.704C49.9324 180.574 50.0834 179.608 50.3855 178.807C50.691 178.006 51.1289 177.395 51.6992 176.974C52.2728 176.553 52.9585 176.343 53.7562 176.343C54.5539 176.343 55.2379 176.555 55.8081 176.979C56.3784 177.4 56.8146 178.011 57.1167 178.812C57.4222 179.61 57.5749 180.574 57.5749 181.704C57.5749 182.841 57.4239 183.812 57.1218 184.617C56.8197 185.418 56.3835 186.031 55.8132 186.455C55.2429 186.876 54.5573 187.086 53.7562 187.086ZM53.7562 185.727C54.4622 185.727 55.0138 185.382 55.411 184.693C55.8115 184.004 56.0118 183.008 56.0118 181.704C56.0118 180.839 55.9201 180.107 55.7368 179.51C55.5569 178.909 55.2973 178.454 54.9578 178.145C54.6218 177.833 54.2212 177.677 53.7562 177.677C53.0535 177.677 52.502 178.023 52.1014 178.716C51.7009 179.408 51.4989 180.404 51.4955 181.704C51.4955 182.573 51.5855 183.308 51.7654 183.909C51.9487 184.506 52.2083 184.96 52.5444 185.268C52.8804 185.574 53.2844 185.727 53.7562 185.727ZM60.515 184.26L60.5048 182.402H60.7696L63.8856 179.092H65.7084L62.1545 182.86H61.9152L60.515 184.26ZM59.1148 186.913V176.485H60.6372V186.913H59.1148ZM64.0537 186.913L61.2533 183.196L62.3021 182.132L65.9223 186.913H64.0537Z" fill="#1F1F28"/>
<line x1="89.0273" y1="181.316" x2="322.02" y2="181.316" stroke="#EAECF0" stroke-width="1.19484"/>
<path d="M35.8967 284.66V271.626H36.7318V284.66H35.8967ZM38.5087 275.669C38.4544 275.187 38.2304 274.813 37.8367 274.548C37.4429 274.28 36.9473 274.146 36.3499 274.146C35.9222 274.146 35.5522 274.214 35.2399 274.35C34.9276 274.482 34.6849 274.666 34.5118 274.9C34.3421 275.131 34.2572 275.394 34.2572 275.689C34.2572 275.937 34.3149 276.151 34.4304 276.33C34.5492 276.51 34.7036 276.661 34.8937 276.784C35.0872 276.902 35.2942 277.003 35.5149 277.084C35.7355 277.162 35.9477 277.227 36.1513 277.278L37.1696 277.542C37.5023 277.624 37.8434 277.734 38.1931 277.873C38.5427 278.012 38.8669 278.196 39.1656 278.423C39.4643 278.651 39.7053 278.932 39.8886 279.268C40.0753 279.604 40.1686 280.007 40.1686 280.475C40.1686 281.066 40.0159 281.59 39.7104 282.048C39.4083 282.507 38.9687 282.868 38.3916 283.133C37.818 283.398 37.1238 283.53 36.3092 283.53C35.5284 283.53 34.853 283.406 34.2827 283.158C33.7124 282.911 33.2661 282.559 32.9436 282.104C32.6211 281.646 32.4429 281.103 32.409 280.475H33.9874C34.0179 280.852 34.1401 281.166 34.354 281.417C34.5712 281.665 34.8479 281.85 35.1839 281.972C35.5234 282.091 35.895 282.15 36.299 282.15C36.7436 282.15 37.1391 282.081 37.4853 281.941C37.835 281.799 38.1099 281.602 38.3102 281.351C38.5104 281.096 38.6106 280.799 38.6106 280.46C38.6106 280.151 38.5223 279.898 38.3458 279.701C38.1727 279.504 37.9368 279.341 37.6381 279.212C37.3428 279.083 37.0084 278.97 36.635 278.871L35.4029 278.535C34.5678 278.308 33.9059 277.973 33.4171 277.532C32.9317 277.091 32.689 276.507 32.689 275.781C32.689 275.18 32.8519 274.655 33.1778 274.207C33.5037 273.759 33.945 273.411 34.5016 273.163C35.0583 272.912 35.6863 272.787 36.3855 272.787C37.0916 272.787 37.7145 272.911 38.2542 273.158C38.7973 273.406 39.225 273.747 39.5373 274.182C39.8495 274.613 40.0125 275.108 40.0261 275.669H38.5087ZM45.2497 283.53C44.4452 283.527 43.7579 283.315 43.1876 282.894C42.6173 282.473 42.1812 281.86 41.8791 281.056C41.5769 280.251 41.4259 279.282 41.4259 278.148C41.4259 277.018 41.5769 276.052 41.8791 275.251C42.1845 274.45 42.6224 273.839 43.1927 273.418C43.7663 272.997 44.452 272.787 45.2497 272.787C46.0474 272.787 46.7314 272.999 47.3016 273.423C47.8719 273.844 48.3081 274.455 48.6102 275.256C48.9157 276.054 49.0684 277.018 49.0684 278.148C49.0684 279.285 48.9174 280.256 48.6153 281.061C48.3132 281.862 47.877 282.474 47.3067 282.899C46.7365 283.32 46.0508 283.53 45.2497 283.53ZM45.2497 282.171C45.9557 282.171 46.5073 281.826 46.9045 281.137C47.305 280.448 47.5053 279.452 47.5053 278.148C47.5053 277.283 47.4137 276.551 47.2304 275.954C47.0504 275.353 46.7908 274.898 46.4513 274.589C46.1153 274.277 45.7147 274.121 45.2497 274.121C44.5471 274.121 43.9955 274.467 43.5949 275.159C43.1944 275.852 42.9924 276.848 42.989 278.148C42.989 279.017 43.079 279.752 43.2589 280.353C43.4422 280.95 43.7019 281.403 44.0379 281.712C44.3739 282.018 44.7779 282.171 45.2497 282.171ZM52.0085 280.704L51.9983 278.846H52.2631L55.3791 275.536H57.202L53.648 279.304H53.4087L52.0085 280.704ZM50.6083 283.357V272.929H52.1307V283.357H50.6083ZM55.5472 283.357L52.7468 279.64L53.7957 278.576L57.4158 283.357H55.5472Z" fill="#1F1F28"/>
<line x1="89.0273" y1="277.76" x2="322.02" y2="277.76" stroke="#EAECF0" stroke-width="1.19484"/>
<path d="M33.1422 374.587C33.1422 373.31 33.3102 372.136 33.6462 371.063C33.9823 369.991 34.4728 369.001 35.1177 368.095H36.5128C36.2616 368.431 36.0274 368.843 35.8102 369.332C35.5929 369.821 35.4029 370.357 35.2399 370.941C35.077 371.522 34.9497 372.124 34.858 372.749C34.7664 373.37 34.7206 373.983 34.7206 374.587C34.7206 375.395 34.8003 376.213 34.9599 377.041C35.1194 377.869 35.335 378.638 35.6065 379.347C35.8781 380.057 36.1802 380.636 36.5128 381.084H35.1177C34.4728 380.177 33.9823 379.188 33.6462 378.115C33.3102 377.043 33.1422 375.866 33.1422 374.587ZM41.0287 381.104V368.069H41.8638V381.104H41.0287ZM43.6408 372.112C43.5864 371.63 43.3624 371.257 42.9687 370.992C42.5749 370.724 42.0793 370.59 41.4819 370.59C41.0542 370.59 40.6842 370.658 40.3719 370.793C40.0596 370.926 39.8169 371.109 39.6438 371.343C39.4741 371.574 39.3892 371.837 39.3892 372.133C39.3892 372.38 39.4469 372.594 39.5624 372.774C39.6812 372.954 39.8356 373.105 40.0257 373.227C40.2192 373.346 40.4262 373.446 40.6469 373.528C40.8675 373.606 41.0797 373.67 41.2833 373.721L42.3017 373.986C42.6343 374.067 42.9754 374.178 43.3251 374.317C43.6747 374.456 43.9989 374.639 44.2976 374.867C44.5963 375.094 44.8373 375.376 45.0206 375.712C45.2073 376.048 45.3006 376.45 45.3006 376.919C45.3006 377.509 45.1479 378.034 44.8424 378.492C44.5403 378.95 44.1007 379.312 43.5236 379.577C42.95 379.841 42.2558 379.974 41.4412 379.974C40.6605 379.974 39.985 379.85 39.4147 379.602C38.8444 379.354 38.3981 379.003 38.0756 378.548C37.7531 378.09 37.5749 377.547 37.541 376.919H39.1194C39.1499 377.295 39.2721 377.609 39.486 377.861C39.7032 378.108 39.9799 378.293 40.3159 378.416C40.6554 378.534 41.0271 378.594 41.431 378.594C41.8757 378.594 42.2711 378.524 42.6173 378.385C42.967 378.242 43.2419 378.046 43.4422 377.794C43.6425 377.54 43.7426 377.243 43.7426 376.903C43.7426 376.595 43.6543 376.342 43.4778 376.145C43.3047 375.948 43.0688 375.785 42.7701 375.656C42.4748 375.527 42.1404 375.413 41.767 375.315L40.5349 374.979C39.6998 374.751 39.0379 374.417 38.5491 373.976C38.0637 373.534 37.821 372.951 37.821 372.224C37.821 371.623 37.984 371.099 38.3098 370.651C38.6357 370.203 39.077 369.855 39.6336 369.607C40.1903 369.356 40.8183 369.23 41.5175 369.23C42.2236 369.23 42.8465 369.354 43.3862 369.602C43.9293 369.85 44.357 370.191 44.6693 370.625C44.9815 371.057 45.1445 371.552 45.1581 372.112H43.6408ZM46.7514 379.801V378.66L50.2799 375.004C50.6567 374.607 50.9673 374.259 51.2117 373.96C51.4594 373.658 51.6444 373.372 51.7666 373.1C51.8888 372.828 51.9499 372.54 51.9499 372.234C51.9499 371.888 51.8685 371.589 51.7055 371.338C51.5426 371.084 51.3203 370.888 51.0385 370.753C50.7568 370.614 50.4394 370.544 50.0864 370.544C49.713 370.544 49.3871 370.62 49.1088 370.773C48.8305 370.926 48.6166 371.141 48.4673 371.42C48.3179 371.698 48.2432 372.024 48.2432 372.397H46.7412C46.7412 371.763 46.8872 371.208 47.1791 370.732C47.471 370.257 47.8715 369.889 48.3807 369.627C48.8899 369.363 49.4686 369.23 50.1169 369.23C50.7721 369.23 51.3491 369.361 51.8481 369.622C52.3505 369.88 52.7425 370.233 53.0243 370.681C53.306 371.126 53.4469 371.628 53.4469 372.189C53.4469 372.576 53.3739 372.954 53.2279 373.324C53.0854 373.694 52.8359 374.106 52.4795 374.561C52.1231 375.013 51.6275 375.561 50.9927 376.206L48.9204 378.375V378.451H53.6149V379.801H46.7514ZM58.8882 379.974C58.0837 379.97 57.3963 379.758 56.8261 379.337C56.2558 378.916 55.8196 378.304 55.5175 377.499C55.2154 376.695 55.0644 375.726 55.0644 374.592C55.0644 373.461 55.2154 372.496 55.5175 371.695C55.823 370.894 56.2609 370.283 56.8312 369.862C57.4048 369.441 58.0905 369.23 58.8882 369.23C59.6859 369.23 60.3699 369.442 60.9401 369.867C61.5104 370.288 61.9466 370.899 62.2487 371.7C62.5542 372.497 62.7069 373.461 62.7069 374.592C62.7069 375.729 62.5559 376.7 62.2538 377.504C61.9517 378.305 61.5155 378.918 60.9452 379.342C60.375 379.763 59.6893 379.974 58.8882 379.974ZM58.8882 378.614C59.5942 378.614 60.1458 378.27 60.543 377.581C60.9435 376.892 61.1438 375.895 61.1438 374.592C61.1438 373.726 61.0521 372.995 60.8688 372.397C60.6889 371.796 60.4293 371.342 60.0898 371.033C59.7538 370.72 59.3532 370.564 58.8882 370.564C58.1856 370.564 57.634 370.911 57.2334 371.603C56.8329 372.295 56.6309 373.292 56.6275 374.592C56.6275 375.461 56.7175 376.196 56.8974 376.796C57.0807 377.394 57.3403 377.847 57.6764 378.156C58.0124 378.461 58.4164 378.614 58.8882 378.614ZM65.647 377.148L65.6368 375.289H65.9016L69.0176 371.98H70.8404L67.2865 375.748H67.0472L65.647 377.148ZM64.2468 379.801V369.373H65.7692V379.801H64.2468ZM69.1857 379.801L66.3853 376.084L67.4341 375.019L71.0543 379.801H69.1857ZM74.8688 375.473C74.8688 376.752 74.7008 377.929 74.3648 379.001C74.0287 380.074 73.5382 381.063 72.8933 381.97H71.4982C71.7494 381.634 71.9836 381.221 72.2008 380.732C72.4181 380.244 72.6082 379.709 72.7711 379.128C72.934 378.545 73.0613 377.94 73.153 377.316C73.2446 376.691 73.2904 376.077 73.2904 375.473C73.2904 374.668 73.2107 373.852 73.0511 373.024C72.8916 372.195 72.676 371.427 72.4045 370.717C72.1329 370.008 71.8308 369.429 71.4982 368.981H72.8933C73.5382 369.887 74.0287 370.877 74.3648 371.949C74.7008 373.022 74.8688 374.196 74.8688 375.473Z" fill="#1F1F28"/>
<line x1="89.0273" y1="374.203" x2="322.02" y2="374.203" stroke="#EAECF0" stroke-width="1.19484"/>
<path d="M33.1422 471.03C33.1422 469.754 33.3102 468.58 33.6462 467.507C33.9823 466.434 34.4728 465.445 35.1177 464.538H36.5128C36.2616 464.875 36.0274 465.287 35.8102 465.776C35.5929 466.265 35.4029 466.801 35.2399 467.385C35.077 467.965 34.9497 468.568 34.858 469.192C34.7664 469.813 34.7206 470.426 34.7206 471.03C34.7206 471.838 34.8003 472.656 34.9599 473.484C35.1194 474.313 35.335 475.082 35.6065 475.791C35.8781 476.5 36.1802 477.079 36.5128 477.527H35.1177C34.4728 476.621 33.9823 475.631 33.6462 474.559C33.3102 473.486 33.1422 472.31 33.1422 471.03ZM41.0287 477.548V464.513H41.8638V477.548H41.0287ZM43.6408 468.556C43.5864 468.074 43.3624 467.7 42.9687 467.436C42.5749 467.167 42.0793 467.033 41.4819 467.033C41.0542 467.033 40.6842 467.101 40.3719 467.237C40.0596 467.369 39.8169 467.553 39.6438 467.787C39.4741 468.018 39.3892 468.281 39.3892 468.576C39.3892 468.824 39.4469 469.038 39.5624 469.218C39.6812 469.398 39.8356 469.549 40.0257 469.671C40.2192 469.79 40.4262 469.89 40.6469 469.971C40.8675 470.049 41.0797 470.114 41.2833 470.165L42.3017 470.429C42.6343 470.511 42.9754 470.621 43.3251 470.76C43.6747 470.9 43.9989 471.083 44.2976 471.31C44.5963 471.538 44.8373 471.82 45.0206 472.156C45.2073 472.492 45.3006 472.894 45.3006 473.362C45.3006 473.953 45.1479 474.477 44.8424 474.936C44.5403 475.394 44.1007 475.755 43.5236 476.02C42.95 476.285 42.2558 476.417 41.4412 476.417C40.6605 476.417 39.985 476.293 39.4147 476.046C38.8444 475.798 38.3981 475.446 38.0756 474.992C37.7531 474.533 37.5749 473.99 37.541 473.362H39.1194C39.1499 473.739 39.2721 474.053 39.486 474.304C39.7032 474.552 39.9799 474.737 40.3159 474.859C40.6554 474.978 41.0271 475.037 41.431 475.037C41.8757 475.037 42.2711 474.968 42.6173 474.829C42.967 474.686 43.2419 474.489 43.4422 474.238C43.6425 473.983 43.7426 473.686 43.7426 473.347C43.7426 473.038 43.6543 472.785 43.4778 472.588C43.3047 472.391 43.0688 472.229 42.7701 472.1C42.4748 471.971 42.1404 471.857 41.767 471.758L40.5349 471.422C39.6998 471.195 39.0379 470.861 38.5491 470.419C38.0637 469.978 37.821 469.394 37.821 468.668C37.821 468.067 37.984 467.543 38.3098 467.094C38.6357 466.646 39.077 466.298 39.6336 466.051C40.1903 465.8 40.8183 465.674 41.5175 465.674C42.2236 465.674 42.8465 465.798 43.3862 466.046C43.9293 466.293 44.357 466.635 44.6693 467.069C44.9815 467.5 45.1445 467.996 45.1581 468.556H43.6408ZM46.5324 474.207V472.935L51.0385 465.816H52.0416V467.69H51.4051L48.1821 472.792V472.873H54.3583V474.207H46.5324ZM51.4764 476.244V473.821L51.4866 473.24V465.816H52.9784V476.244H51.4764ZM59.4763 476.417C58.6718 476.414 57.9844 476.202 57.4142 475.781C56.8439 475.36 56.4077 474.747 56.1056 473.943C55.8035 473.138 55.6525 472.169 55.6525 471.035C55.6525 469.905 55.8035 468.939 56.1056 468.138C56.4111 467.337 56.849 466.726 57.4193 466.305C57.9929 465.884 58.6786 465.674 59.4763 465.674C60.274 465.674 60.9579 465.886 61.5282 466.31C62.0985 466.731 62.5347 467.342 62.8368 468.143C63.1423 468.941 63.295 469.905 63.295 471.035C63.295 472.173 63.144 473.143 62.8418 473.948C62.5397 474.749 62.1036 475.362 61.5333 475.786C60.963 476.207 60.2774 476.417 59.4763 476.417ZM59.4763 475.058C60.1823 475.058 60.7339 474.713 61.1311 474.024C61.5316 473.335 61.7319 472.339 61.7319 471.035C61.7319 470.17 61.6402 469.438 61.4569 468.841C61.277 468.24 61.0173 467.785 60.6779 467.476C60.3419 467.164 59.9413 467.008 59.4763 467.008C58.7736 467.008 58.222 467.354 57.8215 468.047C57.421 468.739 57.219 469.735 57.2156 471.035C57.2156 471.904 57.3055 472.639 57.4855 473.24C57.6688 473.837 57.9284 474.291 58.2645 474.6C58.6005 474.905 59.0045 475.058 59.4763 475.058ZM66.2351 473.591L66.2249 471.733H66.4896L69.6057 468.423H71.4285L67.8746 472.191H67.6353L66.2351 473.591ZM64.8349 476.244V465.816H66.3573V476.244H64.8349ZM69.7737 476.244L66.9733 472.527L68.0222 471.463L71.6424 476.244H69.7737ZM75.4569 471.916C75.4569 473.196 75.2889 474.372 74.9528 475.445C74.6168 476.517 74.1263 477.507 73.4814 478.413H72.0863C72.3374 478.077 72.5717 477.665 72.7889 477.176C73.0061 476.687 73.1962 476.152 73.3592 475.572C73.5221 474.988 73.6494 474.384 73.741 473.759C73.8327 473.135 73.8785 472.52 73.8785 471.916C73.8785 471.112 73.7987 470.295 73.6392 469.467C73.4797 468.639 73.2641 467.87 72.9926 467.161C72.721 466.451 72.4189 465.872 72.0863 465.424H73.4814C74.1263 466.331 74.6168 467.32 74.9528 468.393C75.2889 469.465 75.4569 470.64 75.4569 471.916Z" fill="#1F1F28"/>
<line x1="89.0273" y1="470.647" x2="322.02" y2="470.647" stroke="#EAECF0" stroke-width="1.19484"/>
<path d="M160.719 279.202L172.07 215.921L188.2 205.685L205.525 268.965L221.655 253.145L228.227 279.202H246.149L255.111 219.644L272.436 186.142L289.164 236.395L305.294 215.921L322.022 85.6384V279.202H160.719Z" fill="#00D4FF" fill-opacity="0.1"/>
<path d="M160.719 279.202L172.07 215.921L188.2 205.685L205.525 268.965L221.655 253.145L228.227 279.202H246.149L255.111 219.644L272.436 186.142L289.164 236.395L305.294 215.921L322.022 85.6384V279.202H160.719Z" fill="url(#paint0_linear_445_7681)" fill-opacity="0.04"/>
<path d="M89.0273 279.202H246.746L238.979 357.549L228.226 279.202H161.315L154.743 340.651H138.613L121.885 431.287L105.158 343.723L89.0273 472.765V279.202Z" fill="#00D4FF" fill-opacity="0.1"/>
<path d="M89.0273 279.202H246.746L238.979 357.549L228.226 279.202H161.315L154.743 340.651H138.613L121.885 431.287L105.158 343.723L89.0273 472.765V279.202Z" fill="url(#paint1_linear_445_7681)" fill-opacity="0.04"/>
<path d="M89.0273 467.986L105.158 343.126L122.483 427.361L138.613 340.736H153.548L169.679 219.523L188.836 206.245L205.524 270.241L223.446 251.721L238.754 357.464L254.512 219.523L272.356 186.329L288.912 237.227L305.464 217.31L322.02 85.6384" stroke="#00D4FF" stroke-width="1.79225" stroke-linecap="round"/>
</g>
<rect x="3.59742" y="2.59742" width="346.502" height="507.805" rx="28.0786" stroke="#EAECF0" stroke-width="1.19484"/>
</g>
<defs>
<filter id="filter0_d_445_7681" x="0.610329" y="0.805164" width="352.475" height="513.779" filterUnits="userSpaceOnUse" color-interpolation-filters="sRGB">
<feFlood flood-opacity="0" result="BackgroundImageFix"/>
<feColorMatrix in="SourceAlpha" type="matrix" values="0 0 0 0 0 0 0 0 0 0 0 0 0 0 0 0 0 0 127 0" result="hardAlpha"/>
<feOffset dy="1.19484"/>
<feGaussianBlur stdDeviation="1.19484"/>
<feColorMatrix type="matrix" values="0 0 0 0 0.0627451 0 0 0 0 0.0941176 0 0 0 0 0.156863 0 0 0 0.05 0"/>
<feBlend mode="normal" in2="BackgroundImageFix" result="effect1_dropShadow_445_7681"/>
<feBlend mode="normal" in="SourceGraphic" in2="effect1_dropShadow_445_7681" result="shape"/>
</filter>
<linearGradient id="paint0_linear_445_7681" x1="241.37" y1="85.6384" x2="241.37" y2="279.202" gradientUnits="userSpaceOnUse">
<stop offset="0.61" stop-color="#6461EE" stop-opacity="0"/>
<stop offset="1" stop-color="#00D4FF"/>
</linearGradient>
<linearGradient id="paint1_linear_445_7681" x1="167.886" y1="279.202" x2="167.886" y2="472.765" gradientUnits="userSpaceOnUse">
<stop offset="0.61" stop-color="#6461EE" stop-opacity="0"/>
<stop offset="1" stop-color="#00D4FF"/>
</linearGradient>
<clipPath id="clip0_445_7681">
<rect x="3" y="2" width="347.697" height="509" rx="28.6761" fill="white"/>
</clipPath>
</defs>
</svg>
