<svg width="98" height="98" viewBox="0 0 98 98" fill="none" xmlns="http://www.w3.org/2000/svg">
<rect width="98" height="98" rx="49" fill="#00D4FF" fill-opacity="0.2"/>
<path d="M59.1076 26.646H38.885C36.4731 26.646 34.5156 28.6591 34.5156 31.141V66.8593C34.5156 69.3412 36.4731 71.3543 38.885 71.3543H59.1076C61.5195 71.3543 63.477 69.3412 63.477 66.8593V31.141C63.477 28.6591 61.5195 26.646 59.1076 26.646Z" stroke="#28D0F3" stroke-width="3.625" stroke-linecap="round" stroke-linejoin="round"/>
<path d="M44.1719 32.7407H53.824M48.998 65.3681C49.1692 65.3788 49.3408 65.3542 49.5022 65.296C49.6637 65.2378 49.8114 65.1471 49.9365 65.0296C50.0615 64.9121 50.1612 64.7702 50.2293 64.6127C50.2974 64.4553 50.3325 64.2855 50.3325 64.1139C50.3325 63.9423 50.2974 63.7725 50.2293 63.615C50.1612 63.4576 50.0615 63.3157 49.9365 63.1982C49.8114 63.0807 49.6637 62.99 49.5022 62.9318C49.3408 62.8736 49.1692 62.849 48.998 62.8596C48.6788 62.8795 48.3791 63.0202 48.1601 63.2533C47.9411 63.4863 47.8192 63.7941 47.8192 64.1139C47.8192 64.4337 47.9411 64.7415 48.1601 64.9745C48.3791 65.2075 48.6788 65.3483 48.998 65.3681Z" stroke="#28D0F3" stroke-width="3.625" stroke-linecap="round" stroke-linejoin="round"/>
</svg>
