<svg width="20" height="20" viewBox="0 0 20 20" fill="none" xmlns="http://www.w3.org/2000/svg">
<g clip-path="url(#clip0_1765_37080)">
<path d="M14.998 10.833C14.2651 10.8305 13.5518 11.0704 12.9694 11.5154C12.387 11.9604 11.968 12.5855 11.7779 13.2934C11.5877 14.0013 11.6369 14.7522 11.9179 15.4292C12.1989 16.1061 12.6958 16.6712 13.3314 17.0364V19.3972C13.3313 19.5161 13.3665 19.6323 13.4325 19.7312C13.4985 19.83 13.5924 19.9071 13.7022 19.9526C13.8121 19.9981 13.9329 20.01 14.0495 19.9868C14.1661 19.9636 14.2732 19.9063 14.3572 19.8222L14.998 19.1822L15.6389 19.8222C15.7229 19.9063 15.83 19.9636 15.9466 19.9868C16.0632 20.01 16.184 19.9981 16.2938 19.9526C16.4037 19.9071 16.4975 19.83 16.5635 19.7312C16.6295 19.6323 16.6648 19.5161 16.6647 19.3972V17.0364C17.3002 16.6712 17.7972 16.1061 18.0782 15.4292C18.3592 14.7522 18.4084 14.0013 18.2182 13.2934C18.028 12.5855 17.6091 11.9604 17.0267 11.5154C16.4442 11.0704 15.731 10.8305 14.998 10.833Z" fill="#787A88"/>
<path d="M9.5 14.1673C9.49908 13.3746 9.66964 12.5933 9.99758 11.8761C9.76265 12.0633 9.46999 12.1667 9.16667 12.1667H6.66667C6.31304 12.1667 5.97391 12.0262 5.72386 11.7761C5.47381 11.5261 5.33333 11.187 5.33333 10.8333C5.33333 10.4797 5.47381 10.1406 5.72386 9.89052C5.97391 9.64048 6.31304 9.5 6.66667 9.5H9.16667C9.52029 9.5 9.85943 9.64048 10.1095 9.89052C10.3595 10.1406 10.5 10.4797 10.5 10.8333C10.5 10.8958 10.4956 10.9578 10.487 11.0189C10.9474 10.3585 11.5485 9.8057 12.2491 9.40158C13.0858 8.91898 14.035 8.6655 15.0009 8.66668C15.6875 8.66752 16.3653 8.79702 17 9.04591V4.16727C16.9988 3.195 16.6121 2.2629 15.9246 1.5754C15.2372 0.887978 14.3052 0.501241 13.333 0.5H6.66698C5.69482 0.501241 4.76283 0.887978 4.0754 1.5754C3.38798 2.26283 3.00124 3.19482 3 4.16698V14.1664C3.00124 15.1385 3.38798 16.0705 4.0754 16.7579C4.7629 17.4454 5.695 17.8322 6.66727 17.8333M9.5 14.1673C9.5 14.1671 9.5 14.1669 9.5 14.1667L10 14.1667L9.5 14.1673ZM9.5 14.1673C9.50019 14.9396 9.66365 15.7031 9.97966 16.4078C10.2136 16.9296 10.5273 17.4103 10.9084 17.8333M10.9084 17.8333H6.66727M10.9084 17.8333C10.9913 17.9254 11.0775 18.0147 11.1667 18.1011V18.3333H6.66667M10.9084 17.8333H11.6114L6.66667 18.3333M6.66727 17.8333H6.66667V18.3333M6.66727 17.8333L6.66667 18.3333M13.3333 2.83333H6.66667C6.31304 2.83333 5.97391 2.97381 5.72386 3.22386C5.47381 3.47391 5.33333 3.81304 5.33333 4.16667C5.33333 4.52029 5.47381 4.85943 5.72386 5.10948C5.97391 5.35952 6.31304 5.5 6.66667 5.5H13.3333C13.687 5.5 14.0261 5.35952 14.2761 5.10948C14.5262 4.85943 14.6667 4.52029 14.6667 4.16667C14.6667 3.81305 14.5262 3.47391 14.2761 3.22386C14.0261 2.97381 13.687 2.83333 13.3333 2.83333ZM13.3333 6.16667H6.66667C6.31304 6.16667 5.97391 6.30714 5.72386 6.55719C5.47381 6.80724 5.33333 7.14638 5.33333 7.5C5.33333 7.85362 5.47381 8.19276 5.72386 8.44281C5.97391 8.69286 6.31304 8.83333 6.66667 8.83333H13.3333C13.687 8.83333 14.0261 8.69286 14.2761 8.44281C14.5262 8.19276 14.6667 7.85362 14.6667 7.5C14.6667 7.14638 14.5262 6.80724 14.2761 6.55719C14.0261 6.30714 13.687 6.16667 13.3333 6.16667Z" fill="#787A88" stroke="black"/>
</g>
<defs>
<clipPath id="clip0_1765_37080">
<rect width="20" height="20" fill="white"/>
</clipPath>
</defs>
</svg>
