<svg width="42.1041" height="42.1041" viewBox="24.208 21 42.1041 42.1041" fill="none" xmlns="http://www.w3.org/2000/svg">
<g filter="url(#filter0_d_1764_4374)">
<rect x="24" y="21" width="42.1041" height="42.1041" rx="14.9256" fill="#F3569A" shape-rendering="crispEdges"/>
<path d="M54.8194 47.6991L53.3128 49.1832L53.6677 51.2848C53.6871 51.3972 53.6749 51.5128 53.6326 51.6186C53.5902 51.7243 53.5194 51.816 53.4281 51.8831C53.3369 51.9502 53.2288 51.9901 53.1162 51.9982C53.0037 52.0064 52.8911 51.9825 52.7913 51.9292L50.9299 50.9382L49.066 51.9292C48.9797 51.9755 48.8836 51.9998 48.7859 52C48.6585 51.999 48.5345 51.9581 48.431 51.8828C48.3392 51.8162 48.2679 51.7247 48.2252 51.6189C48.1825 51.5132 48.1702 51.3974 48.1896 51.2848L48.5445 49.1881L47.0379 47.704C46.9525 47.6252 46.8912 47.5232 46.8614 47.4102C46.8316 47.2972 46.8345 47.1779 46.8699 47.0666C46.9053 46.9552 46.9715 46.8565 47.0608 46.7821C47.1501 46.7077 47.2587 46.6609 47.3735 46.6471L49.4571 46.342L50.389 44.4503C50.439 44.3484 50.5161 44.2627 50.6116 44.2027C50.7072 44.1428 50.8174 44.111 50.9299 44.111C51.0423 44.111 51.1525 44.1428 51.2481 44.2027C51.3437 44.2627 51.4207 44.3484 51.4707 44.4503L52.4026 46.3591L54.4838 46.6471C54.5951 46.664 54.6996 46.7118 54.7855 46.7854C54.8714 46.8589 54.9354 46.9551 54.9702 47.0634C55.0051 47.1716 55.0094 47.2875 54.9828 47.398C54.9561 47.5086 54.8995 47.6095 54.8194 47.6894V47.6991ZM36.5693 42.1119C36.1533 42.1113 35.7545 41.9439 35.4604 41.6465C35.1662 41.3491 35.0006 40.9459 35 40.5253V36.9665C35.0006 36.5459 35.1662 36.1427 35.4604 35.8453C35.7545 35.5479 36.1533 35.3805 36.5693 35.3799H40.4757V34.3425C40.4757 34.1662 40.5101 33.9916 40.5768 33.8287C40.6436 33.6659 40.7414 33.5179 40.8647 33.3932C40.988 33.2685 41.1344 33.1697 41.2955 33.1022C41.4566 33.0347 41.6292 33 41.8036 33H45.908C46.26 33.0006 46.5974 33.1423 46.8463 33.3939C47.0952 33.6455 47.2353 33.9866 47.2359 34.3425V35.3799H51.1303C51.5463 35.3805 51.9451 35.5479 52.2392 35.8453C52.5334 36.1427 52.6989 36.5459 52.6996 36.9665V40.5253C52.6989 40.9459 52.5334 41.3491 52.2392 41.6465C51.9451 41.9439 51.5463 42.1113 51.1303 42.1119H47.2263V40.7694C47.2263 40.6076 47.1627 40.4523 47.0495 40.3379C46.9363 40.2235 46.7827 40.1592 46.6227 40.1592H41.0697C40.9903 40.1588 40.9117 40.1744 40.8383 40.205C40.7649 40.2355 40.6983 40.2805 40.6422 40.3372C40.586 40.3939 40.5416 40.4613 40.5114 40.5355C40.4812 40.6097 40.4658 40.6892 40.4661 40.7694V42.1119H36.5693ZM41.6829 35.3799H46.0287V34.3425C46.0281 34.3103 46.0152 34.2796 45.9927 34.2569C45.9702 34.2341 45.9398 34.2211 45.908 34.2205H41.8036C41.7716 34.2205 41.7409 34.2333 41.7183 34.2562C41.6956 34.2791 41.6829 34.3101 41.6829 34.3425V35.3799ZM44.4449 42.1119H46.0191V41.3796H44.4546V42.0313C44.4538 42.0584 44.4505 42.0854 44.4449 42.1119ZM47.2504 49.6104L46.2074 48.573C45.9658 48.3353 45.7947 48.0341 45.7133 47.7034C45.6319 47.3727 45.6434 47.0255 45.7465 46.7011C45.8496 46.3766 46.0403 46.0877 46.297 45.8669C46.5538 45.646 46.8664 45.502 47.1997 45.4511L48.6483 45.2363L49.2978 43.9035C49.4051 43.6861 49.5536 43.492 49.7348 43.3323H36.5693C36.3479 43.3321 36.1273 43.3042 35.9126 43.2494V47.7821C35.9133 48.2707 36.1055 48.7391 36.4472 49.0845C36.7889 49.43 37.2522 49.6244 37.7355 49.625H47.248L47.2504 49.6104ZM41.6829 41.3796V42.1119H43.2547C43.2523 42.0851 43.2523 42.0581 43.2547 42.0313V41.3796H41.6829Z" fill="white"/>
</g>
<defs>
<filter id="filter0_d_1764_4355" x="0.119009" y="0.104133" width="89.8665" height="89.8662" filterUnits="userSpaceOnUse" color-interpolation-filters="sRGB">
<feFlood flood-opacity="0" result="BackgroundImageFix"/>
<feColorMatrix in="SourceAlpha" type="matrix" values="0 0 0 0 0 0 0 0 0 0 0 0 0 0 0 0 0 0 127 0" result="hardAlpha"/>
<feOffset dy="2.98512"/>
<feGaussianBlur stdDeviation="11.9405"/>
<feComposite in2="hardAlpha" operator="out"/>
<feColorMatrix type="matrix" values="0 0 0 0 0.952941 0 0 0 0 0.337255 0 0 0 0 0.603922 0 0 0 0.33 0"/>
<feBlend mode="normal" in2="BackgroundImageFix" result="effect1_dropShadow_1764_4355"/>
<feBlend mode="normal" in="SourceGraphic" in2="effect1_dropShadow_1764_4355" result="shape"/>
</filter>
</defs>
</svg>
