<svg width="43" height="43" viewBox="0 0 43 43" fill="none" xmlns="http://www.w3.org/2000/svg">
<rect width="42.1041" height="42.1041" rx="14.9256" fill="#E3B52D"/>
<path d="M12.963 23.4284L13.4159 25.1188C13.9446 27.0919 14.209 28.0785 14.8083 28.7184C15.2815 29.2237 15.8939 29.5772 16.5681 29.7344C17.4219 29.9335 18.4085 29.6691 20.3817 29.1404C22.3549 28.6117 23.3415 28.3473 23.9813 27.748C24.0344 27.6983 24.0859 27.647 24.1356 27.5943C23.8432 27.5697 23.5482 27.5227 23.2485 27.4631C22.6394 27.342 21.9156 27.148 21.0597 26.9187L20.9663 26.8937L20.9446 26.8879C20.0133 26.6383 19.2352 26.4294 18.6139 26.205C17.9605 25.9689 17.3669 25.678 16.8628 25.2058C16.1681 24.5552 15.6819 23.7131 15.4658 22.7862C15.3089 22.1135 15.3538 21.4539 15.4761 20.7701C15.5932 20.1148 15.8037 19.3294 16.0558 18.3885L16.0558 18.3885L16.5234 16.6434L16.5399 16.582C14.8594 17.0347 13.9749 17.3026 13.385 17.855C12.8798 18.3282 12.5262 18.9406 12.369 19.6148C12.1699 20.4686 12.4343 21.4552 12.963 23.4284Z" fill="white"/>
<path fill-rule="evenodd" clip-rule="evenodd" d="M28.7783 19.9278L28.3254 21.6181C27.7967 23.5913 27.5323 24.5779 26.933 25.2178C26.4598 25.723 25.8474 26.0766 25.1733 26.2338C25.089 26.2534 25.0035 26.2686 24.9159 26.2794C24.1152 26.3781 23.1382 26.1163 21.3597 25.6398C19.3865 25.1111 18.3999 24.8467 17.76 24.2474C17.2548 23.7742 16.9012 23.1618 16.744 22.4877C16.5449 21.6339 16.8093 20.6473 17.338 18.6741L17.7909 16.9837C17.8669 16.7 17.9375 16.4365 18.0044 16.1917C18.4026 14.7339 18.6702 13.9319 19.1833 13.384C19.6565 12.8788 20.2689 12.5252 20.9431 12.368C21.7969 12.1689 22.7835 12.4333 24.7567 12.962C26.7299 13.4907 27.7165 13.7551 28.3563 14.3544C28.8616 14.8276 29.2151 15.44 29.3723 16.1142C29.5714 16.968 29.307 17.9546 28.7783 19.9278ZM20.2236 19.1319C20.3174 18.7818 20.6772 18.5741 21.0273 18.6679L25.2533 19.8002C25.6033 19.894 25.8111 20.2539 25.7173 20.6039C25.6235 20.954 25.2636 21.1618 24.9136 21.068L20.6876 19.9356C20.3375 19.8418 20.1298 19.482 20.2236 19.1319ZM19.5438 21.6672C19.6377 21.3171 19.9975 21.1093 20.3476 21.2031L22.8831 21.8825C23.2332 21.9764 23.441 22.3362 23.3472 22.6863C23.2534 23.0364 22.8935 23.2441 22.5434 23.1503L20.0079 22.4709C19.6578 22.3771 19.45 22.0173 19.5438 21.6672Z" fill="white"/>
</svg>
