<svg width="1280" height="480" viewBox="0 0 1280 480" fill="none" xmlns="http://www.w3.org/2000/svg">
<path d="M336.171 146.041H378.936C396.332 146.041 410.096 158.455 410.096 175.343C410.096 188.933 400.526 201.333 385.55 204.035L411.849 240.48H400.245L374.354 204.577H346.284V240.48H336.171V146.035V146.041ZM346.284 154.816V195.816H376.374C392.433 195.816 399.99 187.321 399.99 175.349C399.99 162.374 391.356 154.816 376.374 154.816H346.284Z" fill="white"/>
<path d="M513.377 146.041V154.816H456.059V188.94H506.087V197.581H456.059V231.718H513.377V240.493H445.926V146.048H513.377V146.041Z" fill="white"/>
<path d="M547.166 146.041H585.456C602.866 146.041 616.624 158.455 616.624 175.343C616.624 190.799 604.23 204.584 585.604 204.584H557.279V240.486H547.166V146.041ZM557.279 154.816V195.815H582.888C598.967 195.815 606.518 187.321 606.518 175.349C606.518 162.233 597.749 154.816 582.888 154.816H557.279Z" fill="white"/>
<path d="M645.456 192.986C645.456 165.457 668.129 144.677 695.11 144.677C722.09 144.677 744.616 165.879 744.616 192.986C744.616 220.094 721.943 241.824 694.976 241.824C667.728 241.958 645.449 220.1 645.449 192.986H645.456ZM695.116 233.062C716.84 233.062 734.524 214.295 734.524 192.986C734.524 171.677 716.84 153.485 695.116 153.485C673.393 153.485 655.582 171.53 655.582 192.986C655.582 214.442 673.246 233.062 695.116 233.062Z" fill="white"/>
<path d="M780.741 146.041H823.533C840.929 146.041 854.687 158.455 854.687 175.343C854.687 188.933 845.116 201.333 830.121 204.035L856.432 240.48H844.835L818.938 204.577H790.867V240.48H780.734V146.035L780.741 146.041ZM790.874 154.816V195.816H820.958C837.03 195.816 844.567 187.321 844.567 175.349C844.567 162.374 835.933 154.816 820.958 154.816H790.874Z" fill="white"/>
<path d="M878.691 154.816V146.041H952.891V154.816H920.767V240.486H910.675V154.816H878.698H878.691Z" fill="white"/>
<path d="M993.929 240.486H983.85V146.041H993.929V240.486Z" fill="white"/>
<path d="M1036.09 146.041H1047.58L1106.93 227.538V146.041H1117.06V240.486H1104.64L1046.24 159.939V240.486H1036.09V146.041Z" fill="white"/>
<path d="M1153.1 193.521C1153.1 166.166 1175.77 144.677 1202.74 144.677C1216.77 144.677 1230.12 150.482 1239.56 161.01L1232.82 167.096C1225.28 158.869 1215.71 153.492 1202.74 153.492C1180.89 153.492 1163.21 172.199 1163.21 193.528C1163.21 214.857 1181.17 233.069 1202.88 233.069C1213.94 233.069 1222.15 229.257 1228.65 223.465V199.052H1194.92V190.451H1238.75V225.752C1230.38 236.433 1216.76 241.831 1202.73 241.831C1175.36 241.831 1153.09 220.642 1153.09 193.535L1153.1 193.521Z" fill="white"/>
<path d="M358.71 303.195L358.858 341.359H402.565V303.195H425.239V397.64H402.565V359.564H358.858V397.64H336.171V303.195H358.71Z" fill="white"/>
<path d="M460.854 361.337V303.189H483.513V361.477C483.513 371.871 490.148 380.753 502.401 380.753C514.654 380.753 521.456 371.871 521.456 361.477L521.309 303.189H543.969L544.089 361.477C544.089 386.05 524.814 399.105 502.568 399.105C480.323 399.105 460.854 386.05 460.854 361.33V361.337Z" fill="white"/>
<path d="M629.452 303.195C653.336 303.195 663.863 314.405 663.863 327.608C663.863 336.784 659.141 344.208 651.303 347.86C660.064 350.281 667.221 357.986 667.221 369.717C667.221 385.889 655.77 397.647 632.274 397.647H579.678V303.202H629.452V303.195ZM602.338 321.548V341.118H628.382C637.812 341.118 641.477 336.784 641.477 331.139C641.477 325.494 637.143 321.548 628.382 321.548H602.338ZM602.338 357.832V379.261H630.81C639.692 379.261 644.561 375.101 644.561 368.359C644.561 361.617 639.692 357.832 631.05 357.832H602.331H602.338Z" fill="white"/>
<path d="M127.657 40.0046V374.707C126.552 386.605 122.489 403.01 108.481 411.128L63.0159 437.312C62.9292 437.312 62.9292 437.412 62.8379 437.412L59.7058 439.239C58.2265 439.805 56.6605 440.07 55.0031 440.07C47.9035 440.07 42 434.271 42 427.076V112.202C42 111.28 42 110.449 42.0913 109.526C42 109.435 42 109.248 42.0913 109.157C42.2694 107.687 42.3698 106.116 42.7396 104.733C42.9131 103.902 43.2875 102.979 43.7441 102.24C44.4837 100.952 45.511 99.66 46.7027 98.7377C46.794 98.5551 46.9766 98.3679 47.1638 98.2766H47.2506C47.351 98.1853 47.5336 98.0894 47.6204 97.9981C48.2641 97.537 48.917 97.0758 49.7434 96.7973C49.8348 96.7151 50.0265 96.6147 50.2046 96.6147C50.3963 96.5279 50.5744 96.4275 50.6657 96.4275C52.0491 95.875 53.5284 95.6057 55.099 95.6057H55.3775C56.9435 95.6057 58.4091 95.875 59.7058 96.5279L48.0907 89.6109C51.1268 84.1686 55.2771 79.4659 60.1715 75.786C60.2537 75.6855 60.345 75.6855 60.4454 75.6033C60.7194 75.4116 61.0846 75.1331 61.3631 74.9504L69.0198 70.6176L116.316 43.5065C116.316 43.5065 116.316 43.4151 116.407 43.4151L118.991 41.9404C121.58 40.6529 124.338 40 127.388 40H127.662L127.657 40.0046Z" fill="white"/>
<path d="M276.188 132.401V181.167C275.275 193.065 271.029 209.474 257.108 217.496L211.744 243.685L208.237 245.703C206.767 246.265 205.297 246.543 203.626 246.543C196.531 246.543 190.723 240.74 190.723 233.444V182.053C190.723 177.218 188.174 172.742 184.017 170.274L127.652 136.82L126.913 136.354L63.2944 98.6464L59.6966 96.5279C58.3999 95.875 56.9344 95.6056 55.3683 95.6056H55.0898C53.5192 95.6056 52.0399 95.875 50.6565 96.4274C50.5652 96.4274 50.3871 96.5279 50.1954 96.6146C50.0173 96.6146 49.8256 96.7151 49.7342 96.7973C48.9078 97.0758 48.255 97.5369 47.6112 97.998C47.5245 98.0894 47.3418 98.1852 47.2414 98.2766H47.1546C46.9674 98.3679 46.7848 98.5551 46.6935 98.7377C45.5018 99.66 44.4745 100.952 43.7349 102.24C43.2783 102.979 42.904 103.901 42.7305 104.732C43.5614 99.1988 45.406 94.2176 48.0815 89.6154C51.1176 84.1731 55.2679 79.4704 60.1623 75.7905C60.2445 75.69 60.3358 75.69 60.4362 75.6079L69.0106 70.8047L70.7639 69.7911L116.307 43.511C116.307 43.511 116.307 43.4197 116.398 43.4197L118.982 41.9449C121.571 40.6574 124.329 40.0045 127.379 40.0045H127.652C130.972 40.105 134.013 40.9268 136.688 42.4061L268.363 120.493C268.637 120.594 268.902 120.785 269.276 120.964L270.755 121.886C270.938 121.973 271.029 122.068 271.212 122.164C272.518 123.269 273.613 124.47 274.444 126.031C275.641 127.881 276.188 130.095 276.188 132.405V132.401Z" fill="white"/>
<path d="M229.66 294.634C229.6 294.69 203.622 309.611 194.12 315.068C191.994 316.29 190.691 318.55 190.691 321.002V427.034C190.691 434.244 196.54 440.101 203.676 440.101C205.356 440.101 206.941 439.796 208.47 439.17C208.539 439.17 208.63 439.106 208.694 439.106L211.351 437.513C211.4 437.513 211.452 437.49 211.506 437.444L268.012 405.078C268.012 405.078 268.103 405 268.162 405L270.536 403.631C270.669 403.548 270.829 403.471 270.966 403.316C272.262 402.343 273.408 401.124 274.239 399.759C274.33 399.677 274.399 399.526 274.481 399.444C275.618 397.549 276.225 395.289 276.225 392.924V326.598C276.225 286.032 255.406 279.663 229.655 294.634H229.66Z" fill="white"/>
<path d="M1144.9 70.0511V65.3636H1177.62V70.0511H1163.9V109H1158.62V70.0511H1144.9ZM1185.78 65.3636H1192.09L1206.92 101.585H1207.43L1222.26 65.3636H1228.56V109H1223.62V75.8466H1223.19L1209.56 109H1204.79L1191.15 75.8466H1190.72V109H1185.78V65.3636Z" fill="white"/>
</svg>
