<svg width="24" height="24" viewBox="0 0 24 24" fill="none" xmlns="http://www.w3.org/2000/svg">
<path d="M12 13.3323L2.777 19.4813C2.70171 19.5314 2.61423 19.5602 2.52389 19.5645C2.43355 19.5688 2.34373 19.5486 2.264 19.5059C2.18427 19.4632 2.1176 19.3997 2.07111 19.3221C2.02462 19.2445 2.00005 19.1558 2 19.0653V4.93334C2.00005 4.84289 2.02462 4.75416 2.07111 4.67658C2.1176 4.599 2.18427 4.53548 2.264 4.49279C2.34373 4.45011 2.43355 4.42984 2.52389 4.43416C2.61423 4.43849 2.70171 4.46723 2.777 4.51734L12 10.6663V4.93334C12 4.84289 12.0246 4.75416 12.0711 4.67658C12.1176 4.599 12.1843 4.53548 12.264 4.49279C12.3437 4.45011 12.4336 4.42984 12.5239 4.43416C12.6142 4.43849 12.7017 4.46723 12.777 4.51734L23.376 11.5833C23.4445 11.629 23.5006 11.6909 23.5395 11.7634C23.5783 11.836 23.5986 11.917 23.5986 11.9993C23.5986 12.0816 23.5783 12.1627 23.5395 12.2352C23.5006 12.3078 23.4445 12.3697 23.376 12.4153L12.777 19.4813C12.7017 19.5314 12.6142 19.5602 12.5239 19.5645C12.4336 19.5688 12.3437 19.5486 12.264 19.5059C12.1843 19.4632 12.1176 19.3997 12.0711 19.3221C12.0246 19.2445 12 19.1558 12 19.0653V13.3323ZM10.394 11.9993L4 7.73634V16.2623L10.394 11.9993ZM14 7.73634V16.2623L20.394 11.9993L14 7.73634Z" fill="white"/>
</svg>
