<svg width="93" height="99" viewBox="0 0 93 99" fill="none" xmlns="http://www.w3.org/2000/svg">
<g filter="url(#filter0_d_450_9560)">
<rect x="16" y="12" width="61.092" height="67" rx="11.546" fill="white" shape-rendering="crispEdges"/>
<path d="M52.7314 29.6667C52.7314 30.3222 53.2634 30.8542 53.9189 30.8542H59.5128L47.7344 42.6342V39.1667C47.7344 38.8517 47.6093 38.5497 47.3866 38.327C47.1639 38.1043 46.8618 37.9792 46.5469 37.9792C46.2319 37.9792 45.9299 38.1043 45.7072 38.327C45.4845 38.5497 45.3594 38.8517 45.3594 39.1667V45.5C45.3594 46.1555 45.8914 46.6875 46.5469 46.6875H52.8802C53.1952 46.6875 53.4972 46.5624 53.7199 46.3397C53.9426 46.117 54.0677 45.815 54.0677 45.5C54.0677 45.1851 53.9426 44.883 53.7199 44.6603C53.4972 44.4376 53.1952 44.3125 52.8802 44.3125H49.4127L61.1927 32.5325V38.128C61.1927 38.443 61.3178 38.745 61.5405 38.9677C61.7632 39.1904 62.0653 39.3155 62.3802 39.3155C62.6952 39.3155 62.9972 39.1904 63.2199 38.9677C63.4426 38.745 63.5677 38.443 63.5677 38.128V29.6667C63.5677 29.3517 63.4426 29.0497 63.2199 28.827C62.9972 28.6043 62.6952 28.4792 62.3802 28.4792H53.9189C53.6039 28.4792 53.3019 28.6043 53.0792 28.827C52.8565 29.0497 52.7314 29.3517 52.7314 29.6667Z" fill="#325090"/>
<path d="M58.8222 38.2642C58.8573 39.1819 59.2455 40.0507 59.9057 40.6891C60.566 41.3275 61.4473 41.6863 62.3657 41.6905C62.3815 42.84 62.3815 44.1051 62.3815 45.5C62.3815 52.9639 62.3815 56.6958 60.0619 59.0138C57.7455 61.3334 54.012 61.3334 46.5482 61.3334C39.0843 61.3334 35.3524 61.3334 33.0328 59.0138C30.7148 56.6974 30.7148 52.9639 30.7148 45.5C30.7148 38.0362 30.7148 34.3043 33.0328 31.9847C35.354 29.6667 39.0843 29.6667 46.5482 29.6667C47.9431 29.6667 49.2082 29.6667 50.3577 29.6825C50.3619 30.6009 50.7207 31.4822 51.3591 32.1425C51.9975 32.8027 52.8663 33.1909 53.784 33.226L49.6309 37.3791C49.238 36.7007 48.6323 36.1708 47.9076 35.8717C47.1829 35.5725 46.3798 35.5208 45.6228 35.7244C44.8657 35.9281 44.1969 36.3758 43.7202 36.9981C43.2434 37.6205 42.9852 38.3827 42.9857 39.1667V45.5C42.9857 46.4449 43.361 47.351 44.0291 48.0191C44.6972 48.6872 45.6033 49.0625 46.5482 49.0625H52.8815C53.6655 49.063 54.4277 48.8048 55.0501 48.328C55.6724 47.8513 56.1201 47.1825 56.3238 46.4254C56.5274 45.6684 56.4757 44.8653 56.1765 44.1406C55.8773 43.4159 55.3475 42.8102 54.6691 42.4173L58.8222 38.2642Z" fill="black"/>
<path d="M58.8222 38.2642C58.8573 39.1819 59.2455 40.0507 59.9057 40.6891C60.566 41.3275 61.4473 41.6863 62.3657 41.6905C62.3815 42.84 62.3815 44.1051 62.3815 45.5C62.3815 52.9639 62.3815 56.6958 60.0619 59.0138C57.7455 61.3334 54.012 61.3334 46.5482 61.3334C39.0843 61.3334 35.3524 61.3334 33.0328 59.0138C30.7148 56.6974 30.7148 52.9639 30.7148 45.5C30.7148 38.0362 30.7148 34.3043 33.0328 31.9847C35.354 29.6667 39.0843 29.6667 46.5482 29.6667C47.9431 29.6667 49.2082 29.6667 50.3577 29.6825C50.3619 30.6009 50.7207 31.4822 51.3591 32.1425C51.9975 32.8027 52.8663 33.1909 53.784 33.226L49.6309 37.3791C49.238 36.7007 48.6323 36.1708 47.9076 35.8717C47.1829 35.5725 46.3798 35.5208 45.6228 35.7244C44.8657 35.9281 44.1969 36.3758 43.7202 36.9981C43.2434 37.6205 42.9852 38.3827 42.9857 39.1667V45.5C42.9857 46.4449 43.361 47.351 44.0291 48.0191C44.6972 48.6872 45.6033 49.0625 46.5482 49.0625H52.8815C53.6655 49.063 54.4277 48.8048 55.0501 48.328C55.6724 47.8513 56.1201 47.1825 56.3238 46.4254C56.5274 45.6684 56.4757 44.8653 56.1765 44.1406C55.8773 43.4159 55.3475 42.8102 54.6691 42.4173L58.8222 38.2642Z" fill="url(#paint0_linear_450_9560)"/>
</g>
<defs>
<filter id="filter0_d_450_9560" x="0.7" y="0.7" width="91.6938" height="97.6" filterUnits="userSpaceOnUse" color-interpolation-filters="sRGB">
<feFlood flood-opacity="0" result="BackgroundImageFix"/>
<feColorMatrix in="SourceAlpha" type="matrix" values="0 0 0 0 0 0 0 0 0 0 0 0 0 0 0 0 0 0 127 0" result="hardAlpha"/>
<feOffset dy="4"/>
<feGaussianBlur stdDeviation="7.65"/>
<feComposite in2="hardAlpha" operator="out"/>
<feColorMatrix type="matrix" values="0 0 0 0 0.615273 0 0 0 0 0.615273 0 0 0 0 0.7025 0 0 0 0.26 0"/>
<feBlend mode="normal" in2="BackgroundImageFix" result="effect1_dropShadow_450_9560"/>
<feBlend mode="normal" in="SourceGraphic" in2="effect1_dropShadow_450_9560" result="shape"/>
</filter>
<linearGradient id="paint0_linear_450_9560" x1="35.8327" y1="32.7599" x2="49.7458" y2="60.9319" gradientUnits="userSpaceOnUse">
<stop stop-color="#009DBD"/>
<stop offset="1" stop-color="#00D3FE"/>
</linearGradient>
</defs>
</svg>
