<svg width="52" height="52" viewBox="0 0 52 52" fill="none" xmlns="http://www.w3.org/2000/svg">
<path d="M4.32812 26.0002C4.32812 15.7865 4.32812 10.6797 7.50013 7.5055C10.6765 4.3335 15.7811 4.3335 25.9948 4.3335C36.2085 4.3335 41.3153 4.3335 44.4873 7.5055C47.6615 10.6818 47.6615 15.7865 47.6615 26.0002C47.6615 36.2138 47.6615 41.3207 44.4873 44.4927C41.3175 47.6668 36.2085 47.6668 25.9948 47.6668C15.7811 47.6668 10.6743 47.6668 7.50013 44.4927C4.32812 41.3228 4.32812 36.2138 4.32812 26.0002Z" fill="url(#paint0_linear_5673_38968)" fill-opacity="0.1" stroke="url(#paint1_linear_5673_38968)" stroke-width="3"/>
<path d="M19.04 28.4102H19.5205C20.4054 28.7876 21.3763 29.0039 22.4004 29.0039C23.4232 29.0039 24.3966 28.7878 25.2793 28.4102H25.2861C25.3899 31.2596 26.5294 33.6061 28.0508 35.2773H15.7998C15.1979 35.2772 14.7227 34.7961 14.7227 34.2188V32.6748C14.7228 30.3274 16.6493 28.4102 19.04 28.4102ZM32.7021 26.0479L32.7559 26.0645L37.0762 27.7344V27.7334C37.2247 27.7916 37.2773 27.9049 37.2773 27.9844C37.2773 32.247 34.4607 34.5893 32.7568 35.2471C32.6904 35.2713 32.5733 35.2966 32.4424 35.2471C32.3612 35.2156 32.28 35.1811 32.1982 35.1445L32.9062 34.8135C34.3867 34.1191 36.6716 32.1238 36.9023 28.5732L36.9365 28.0439L36.4414 27.8525L32.8604 26.4688L32.1289 26.1855L32.4414 26.0654C32.5429 26.0268 32.6376 26.0331 32.7021 26.0479ZM31.8779 34.9893C29.9053 33.9535 27.9219 31.4801 27.9219 27.9844C27.9219 27.905 27.975 27.7916 28.123 27.7334L28.124 27.7344L31.8779 26.2832V34.9893ZM22.4004 17.7227C24.6597 17.7229 26.4775 19.5325 26.4775 21.75C26.4775 23.9675 24.6597 25.7771 22.4004 25.7773C20.1409 25.7773 18.3223 23.9676 18.3223 21.75C18.3223 19.5324 20.1409 17.7227 22.4004 17.7227Z" fill="url(#paint2_linear_5673_38968)" stroke="url(#paint3_linear_5673_38968)" stroke-width="1.44444"/>
<defs>
<linearGradient id="paint0_linear_5673_38968" x1="4.32813" y1="42.3458" x2="52.4936" y2="31.8685" gradientUnits="userSpaceOnUse">
<stop stop-color="#3AA0FF"/>
<stop offset="0.984375" stop-color="#53D0F7"/>
</linearGradient>
<linearGradient id="paint1_linear_5673_38968" x1="4.32813" y1="42.3458" x2="52.4936" y2="31.8685" gradientUnits="userSpaceOnUse">
<stop stop-color="#3AA0FF"/>
<stop offset="0.984375" stop-color="#53D0F7"/>
</linearGradient>
<linearGradient id="paint2_linear_5673_38968" x1="14" y1="33.6669" x2="39.9773" y2="26.5291" gradientUnits="userSpaceOnUse">
<stop stop-color="#3AA0FF"/>
<stop offset="0.984375" stop-color="#53D0F7"/>
</linearGradient>
<linearGradient id="paint3_linear_5673_38968" x1="14" y1="33.6669" x2="39.9773" y2="26.5291" gradientUnits="userSpaceOnUse">
<stop stop-color="#3AA0FF"/>
<stop offset="0.984375" stop-color="#53D0F7"/>
</linearGradient>
</defs>
</svg>
