<svg width="98" height="98" viewBox="0 0 98 98" fill="none" xmlns="http://www.w3.org/2000/svg">
<circle opacity="0.2" cx="49" cy="49" r="49" fill="#00D4FF"/>
<path d="M23.6875 27.0625H30.0156C30.4814 27.0625 30.8594 26.6845 30.8594 26.2188C30.8594 25.753 30.4814 25.375 30.0156 25.375H23.6875C23.2218 25.375 22.8438 25.753 22.8438 26.2188C22.8438 26.6845 23.2218 27.0625 23.6875 27.0625Z" fill="#22CEF1"/>
<path d="M23.6875 68.8281H30.0156C30.2392 68.8281 30.454 68.7391 30.6122 68.5809L36.0965 63.0965C36.426 62.7671 36.426 62.233 36.0965 61.9035C35.767 61.574 35.233 61.574 34.9035 61.9035L29.6663 67.1406H23.6875C23.2218 67.1406 22.8438 67.5186 22.8438 67.9844C22.8438 68.4501 23.2218 68.8281 23.6875 68.8281Z" fill="#22CEF1"/>
<path d="M30.0156 70.9375H23.6875C23.2218 70.9375 22.8438 71.3155 22.8438 71.7812C22.8438 72.247 23.2218 72.625 23.6875 72.625H30.0156C30.4814 72.625 30.8594 72.247 30.8594 71.7812C30.8594 71.3155 30.4814 70.9375 30.0156 70.9375Z" fill="#22CEF1"/>
<path d="M74.3125 67.1406H68.3345L66.8748 65.6852C70.9628 61.3103 73.4688 55.442 73.4688 49C73.4688 43.0136 71.3088 37.5208 67.7186 33.2641L63.9934 36.9934C63.5927 37.39 63.0611 37.6094 62.5 37.6094C61.9389 37.6094 61.4073 37.39 61.0066 36.9934C60.61 36.5927 60.3906 36.0653 60.3906 35.5C60.3906 34.9347 60.61 34.4073 61.0066 34.0066L64.7359 30.2772C60.4792 26.6913 54.9864 24.5312 49 24.5312C42.5571 24.5312 36.6914 27.0389 32.317 31.1239L30.6122 29.4191C30.454 29.2609 30.2392 29.1719 30.0156 29.1719H23.6875C23.2218 29.1719 22.8438 29.5499 22.8438 30.0156C22.8438 30.4814 23.2218 30.8594 23.6875 30.8594H29.6663L31.1239 32.317C27.0389 36.6914 24.5312 42.5571 24.5312 49C24.5312 54.9864 26.6912 60.4792 30.2814 64.7359L34.0066 61.0066C34.4073 60.61 34.9389 60.3906 35.5 60.3906C36.0611 60.3906 36.5927 60.61 36.9934 61.0066C37.39 61.4073 37.6094 61.9347 37.6094 62.5C37.6094 63.0653 37.39 63.5927 36.9934 63.9934L33.2641 67.7228C37.5208 71.3088 43.0136 73.4688 49 73.4688C55.442 73.4688 61.3103 70.9628 65.6852 66.8748L67.3895 68.5792C67.5456 68.7395 67.7608 68.8281 67.9844 68.8281H74.3125C74.7766 68.8281 75.1562 68.4484 75.1562 67.9844C75.1562 67.5203 74.7766 67.1406 74.3125 67.1406ZM36.3733 48.1562H26.2398C26.4461 42.5103 28.7184 37.3858 32.3182 33.5113L34.9035 36.0965C35.0684 36.2615 35.284 36.3438 35.5 36.3438C35.716 36.3438 35.9316 36.2615 36.0965 36.0965C36.426 35.767 36.426 35.233 36.0965 34.9035L33.5113 32.3182C37.3858 28.7184 42.5103 26.4461 48.1562 26.2398V36.3733C41.8492 36.7909 36.7909 41.8492 36.3733 48.1562ZM38.0312 49C38.0312 42.9503 42.9503 38.0312 49 38.0312C55.0497 38.0312 59.9688 42.9503 59.9688 49C59.9688 55.0497 55.0497 59.9688 49 59.9688C42.9503 59.9688 38.0312 55.0497 38.0312 49ZM63.0948 61.9052C62.7658 61.5719 62.2342 61.5719 61.9052 61.9052C61.5719 62.2342 61.5719 62.7658 61.9052 63.0948L64.4912 65.6852C60.6142 69.2838 55.4884 71.5534 49.8438 71.7602V61.6267C56.1508 61.2091 61.2091 56.1508 61.6267 49.8438H71.7602C71.5534 55.4884 69.2838 60.6142 65.6852 64.4912L63.0948 61.9052Z" fill="#22CEF1"/>
<path d="M74.3125 70.9375H67.9844C67.5186 70.9375 67.1406 71.3155 67.1406 71.7812C67.1406 72.247 67.5186 72.625 67.9844 72.625H74.3125C74.7783 72.625 75.1562 72.247 75.1562 71.7812C75.1562 71.3155 74.7783 70.9375 74.3125 70.9375Z" fill="#22CEF1"/>
<path d="M74.3124 29.1719H67.9843C67.7607 29.1719 67.5459 29.2609 67.3877 29.4191L61.9034 34.9035C61.5739 35.233 61.5739 35.767 61.9034 36.0965C62.0683 36.2615 62.2839 36.3438 62.4999 36.3438C62.7159 36.3438 62.9315 36.2615 63.0964 36.0965L68.3336 30.8594H74.3124C74.7781 30.8594 75.1561 30.4814 75.1561 30.0156C75.1561 29.5499 74.7781 29.1719 74.3124 29.1719Z" fill="#22CEF1"/>
<path d="M67.9844 27.0625H74.3125C74.7783 27.0625 75.1562 26.6845 75.1562 26.2188C75.1562 25.753 74.7783 25.375 74.3125 25.375H67.9844C67.5186 25.375 67.1406 25.753 67.1406 26.2188C67.1406 26.6845 67.5186 27.0625 67.9844 27.0625Z" fill="#22CEF1"/>
</svg>
