<svg width="645" height="345" viewBox="0 0 645 345" fill="none" xmlns="http://www.w3.org/2000/svg">
<rect y="0.5" width="80" height="80" rx="20" fill="url(#paint0_linear_131_713)"/>
<path fill-rule="evenodd" clip-rule="evenodd" d="M28.8677 47.1427C25.2342 43.5092 25.2342 37.6082 28.8677 33.9746C29.0905 33.7519 29.0905 33.3898 28.8677 33.1671C28.645 32.9443 28.2829 32.9443 28.0601 33.1671C23.98 37.2461 23.98 43.8713 28.0601 47.9503C28.2829 48.1731 28.645 48.1731 28.8677 47.9503C29.0905 47.7276 29.0905 47.3655 28.8677 47.1427ZM51.9736 33.9746C55.6072 37.6082 55.6072 43.5092 51.9736 47.1427C51.7508 47.3655 51.7508 47.7276 51.9736 47.9503C52.1963 48.1731 52.5584 48.1731 52.7812 47.9503C56.8614 43.8713 56.8614 37.2461 52.7812 33.1671C52.5584 32.9443 52.1963 32.9443 51.9736 33.1671C51.7508 33.3898 51.7508 33.7519 51.9736 33.9746ZM31.174 44.5224C28.9854 42.3349 28.9854 38.7825 31.174 36.595C31.3967 36.3723 31.3967 36.0102 31.174 35.7874C30.9512 35.5647 30.5891 35.5647 30.3664 35.7874C27.7323 38.4204 27.7323 42.697 30.3664 45.33C30.5891 45.5527 30.9512 45.5527 31.174 45.33C31.3967 45.1072 31.3967 44.7451 31.174 44.5224ZM49.6673 36.595C51.8559 38.7825 51.8559 42.3349 49.6673 44.5224C49.4446 44.7451 49.4446 45.1072 49.6673 45.33C49.8901 45.5527 50.2522 45.5527 50.4749 45.33C53.109 42.697 53.109 38.4204 50.4749 35.7874C50.2522 35.5647 49.8901 35.5647 49.6673 35.7874C49.4446 36.0102 49.4446 36.3723 49.6673 36.595ZM35.7716 40.5587C35.7716 37.9931 37.8551 35.9096 40.4207 35.9096C42.9862 35.9096 45.0697 37.9931 45.0697 40.5587C45.0697 43.1242 42.9862 45.2077 40.4207 45.2077C37.8551 45.2077 35.7716 43.1242 35.7716 40.5587ZM47.2297 38.8967C48.147 39.8139 48.147 41.3034 47.2297 42.2207C47.007 42.4434 47.007 42.8055 47.2297 43.0283C47.4525 43.2522 47.8146 43.2522 48.0373 43.0283C49.4012 41.6655 49.4012 39.4518 48.0373 38.0891C47.8146 37.8652 47.4525 37.8652 47.2297 38.0891C47.007 38.3118 47.007 38.6739 47.2297 38.8967ZM33.6116 42.2207C32.6943 41.3034 32.6943 39.8139 33.6116 38.8967C33.8343 38.6739 33.8343 38.3118 33.6116 38.0891C33.3888 37.8652 33.0267 37.8652 32.804 38.0891C31.4401 39.4518 31.4401 41.6655 32.804 43.0283C33.0267 43.2522 33.3888 43.2522 33.6116 43.0283C33.8343 42.8055 33.8343 42.4434 33.6116 42.2207Z" fill="url(#paint1_linear_131_713)"/>
<path d="M1.13778 124.5V111.409H3.90554V122.218H9.51776V124.5H1.13778ZM11.2995 124.5V114.682H14.0225V124.5H11.2995ZM12.6674 113.416C12.2626 113.416 11.9153 113.282 11.6255 113.013C11.34 112.741 11.1973 112.415 11.1973 112.036C11.1973 111.661 11.34 111.339 11.6255 111.07C11.9153 110.798 12.2626 110.661 12.6674 110.661C13.0723 110.661 13.4174 110.798 13.7029 111.07C13.9927 111.339 14.1376 111.661 14.1376 112.036C14.1376 112.415 13.9927 112.741 13.7029 113.013C13.4174 113.282 13.0723 113.416 12.6674 113.416ZM25.3572 114.682L21.9247 124.5H18.8565L15.424 114.682H18.3004L20.3395 121.707H20.4418L22.4744 114.682H25.3572ZM30.9087 124.692C29.8988 124.692 29.0295 124.487 28.3008 124.078C27.5763 123.665 27.0181 123.081 26.6261 122.327C26.234 121.568 26.038 120.671 26.038 119.636C26.038 118.626 26.234 117.739 26.6261 116.977C27.0181 116.214 27.57 115.619 28.2816 115.193C28.9975 114.767 29.837 114.554 30.8001 114.554C31.4478 114.554 32.0508 114.658 32.609 114.867C33.1715 115.072 33.6616 115.381 34.0792 115.794C34.5011 116.207 34.8292 116.727 35.0636 117.354C35.2979 117.976 35.4151 118.705 35.4151 119.54V120.288H27.1246V118.6H32.8519C32.8519 118.208 32.7667 117.861 32.5962 117.558C32.4258 117.256 32.1893 117.019 31.8867 116.849C31.5884 116.674 31.2411 116.587 30.8448 116.587C30.4315 116.587 30.065 116.683 29.7454 116.874C29.43 117.062 29.1829 117.315 29.0039 117.635C28.8249 117.95 28.7333 118.302 28.729 118.69V120.294C28.729 120.78 28.8185 121.2 28.9975 121.553C29.1808 121.907 29.4386 122.18 29.771 122.371C30.1033 122.563 30.4975 122.659 30.9535 122.659C31.256 122.659 31.533 122.616 31.7844 122.531C32.0359 122.446 32.2511 122.318 32.43 122.148C32.609 121.977 32.7454 121.768 32.8391 121.521L35.3576 121.688C35.2298 122.293 34.9677 122.821 34.5714 123.273C34.1793 123.72 33.6722 124.07 33.0501 124.321C32.4322 124.568 31.7184 124.692 30.9087 124.692ZM40.9107 113.691V111.409H51.6621V113.691H47.6543V124.5H44.9185V113.691H40.9107ZM52.362 124.5V114.682H55.002V116.395H55.1042C55.2832 115.786 55.5836 115.325 56.0055 115.014C56.4274 114.699 56.9132 114.541 57.4629 114.541C57.5993 114.541 57.7463 114.55 57.9039 114.567C58.0616 114.584 58.2001 114.607 58.3194 114.637V117.053C58.1916 117.015 58.0147 116.981 57.7889 116.951C57.563 116.921 57.3564 116.906 57.1689 116.906C56.7683 116.906 56.4103 116.994 56.095 117.168C55.7839 117.339 55.5368 117.577 55.3535 117.884C55.1745 118.191 55.085 118.545 55.085 118.945V124.5H52.362ZM62.2457 124.685C61.6193 124.685 61.0611 124.577 60.571 124.359C60.081 124.138 59.6932 123.812 59.4077 123.381C59.1264 122.947 58.9858 122.406 58.9858 121.758C58.9858 121.212 59.0859 120.754 59.2862 120.384C59.4865 120.013 59.7592 119.714 60.1044 119.489C60.4496 119.263 60.8416 119.092 61.2805 118.977C61.7237 118.862 62.1882 118.781 62.674 118.734C63.245 118.675 63.7053 118.619 64.0547 118.568C64.4041 118.513 64.6577 118.432 64.8153 118.325C64.973 118.219 65.0518 118.061 65.0518 117.852V117.814C65.0518 117.409 64.924 117.096 64.6683 116.874C64.4169 116.653 64.0589 116.542 63.5945 116.542C63.1044 116.542 62.7145 116.651 62.4247 116.868C62.1349 117.081 61.9432 117.349 61.8494 117.673L59.331 117.469C59.4588 116.872 59.7102 116.357 60.0852 115.922C60.4602 115.483 60.9439 115.146 61.5362 114.912C62.1328 114.673 62.8232 114.554 63.6072 114.554C64.1527 114.554 64.6747 114.618 65.1733 114.746C65.6761 114.874 66.1214 115.072 66.5092 115.34C66.9013 115.609 67.2102 115.954 67.4361 116.376C67.6619 116.793 67.7749 117.294 67.7749 117.878V124.5H65.1925V123.138H65.1158C64.9581 123.445 64.7472 123.716 64.483 123.95C64.2188 124.18 63.9013 124.362 63.5305 124.494C63.1598 124.621 62.7315 124.685 62.2457 124.685ZM63.0256 122.806C63.4261 122.806 63.7798 122.727 64.0866 122.57C64.3935 122.408 64.6342 122.19 64.8089 121.918C64.9837 121.645 65.071 121.336 65.071 120.991V119.949C64.9858 120.004 64.8686 120.055 64.7195 120.102C64.5746 120.145 64.4105 120.185 64.2273 120.224C64.044 120.258 63.8608 120.29 63.6776 120.32C63.4943 120.345 63.3281 120.369 63.179 120.39C62.8594 120.437 62.5803 120.511 62.3416 120.614C62.103 120.716 61.9176 120.854 61.7855 121.029C61.6534 121.2 61.5874 121.413 61.5874 121.668C61.5874 122.039 61.7216 122.322 61.9901 122.518C62.2628 122.71 62.608 122.806 63.0256 122.806ZM69.8874 124.5V114.682H72.6104V124.5H69.8874ZM71.2553 113.416C70.8505 113.416 70.5032 113.282 70.2134 113.013C69.9279 112.741 69.7852 112.415 69.7852 112.036C69.7852 111.661 69.9279 111.339 70.2134 111.07C70.5032 110.798 70.8505 110.661 71.2553 110.661C71.6602 110.661 72.0053 110.798 72.2908 111.07C72.5806 111.339 72.7255 111.661 72.7255 112.036C72.7255 112.415 72.5806 112.741 72.2908 113.013C72.0053 113.282 71.6602 113.416 71.2553 113.416ZM77.5147 118.824V124.5H74.7917V114.682H77.3869V116.414H77.502C77.7193 115.843 78.0836 115.391 78.595 115.059C79.1064 114.722 79.7264 114.554 80.4551 114.554C81.1369 114.554 81.7314 114.703 82.2385 115.001C82.7456 115.3 83.1397 115.726 83.421 116.28C83.7022 116.83 83.8429 117.486 83.8429 118.249V124.5H81.1199V118.734C81.1241 118.134 80.9707 117.665 80.6596 117.328C80.3485 116.987 79.9203 116.817 79.3748 116.817C79.0083 116.817 78.6845 116.896 78.4032 117.053C78.1262 117.211 77.9089 117.441 77.7512 117.744C77.5978 118.042 77.519 118.402 77.5147 118.824ZM85.989 124.5V114.682H88.712V124.5H85.989ZM87.3569 113.416C86.9521 113.416 86.6048 113.282 86.315 113.013C86.0295 112.741 85.8867 112.415 85.8867 112.036C85.8867 111.661 86.0295 111.339 86.315 111.07C86.6048 110.798 86.9521 110.661 87.3569 110.661C87.7617 110.661 88.1069 110.798 88.3924 111.07C88.6822 111.339 88.8271 111.661 88.8271 112.036C88.8271 112.415 88.6822 112.741 88.3924 113.013C88.1069 113.282 87.7617 113.416 87.3569 113.416ZM93.6163 118.824V124.5H90.8933V114.682H93.4885V116.414H93.6035C93.8208 115.843 94.1852 115.391 94.6966 115.059C95.2079 114.722 95.8279 114.554 96.5566 114.554C97.2385 114.554 97.8329 114.703 98.34 115.001C98.8471 115.3 99.2413 115.726 99.5226 116.28C99.8038 116.83 99.9444 117.486 99.9444 118.249V124.5H97.2214V118.734C97.2257 118.134 97.0723 117.665 96.7612 117.328C96.4501 116.987 96.0218 116.817 95.4764 116.817C95.1099 116.817 94.786 116.896 94.5048 117.053C94.2278 117.211 94.0105 117.441 93.8528 117.744C93.6994 118.042 93.6206 118.402 93.6163 118.824ZM106.514 128.386C105.632 128.386 104.875 128.265 104.245 128.022C103.618 127.783 103.12 127.457 102.749 127.044C102.378 126.631 102.137 126.166 102.027 125.651L104.545 125.312C104.622 125.508 104.743 125.691 104.909 125.862C105.076 126.032 105.295 126.168 105.568 126.271C105.845 126.377 106.181 126.43 106.578 126.43C107.17 126.43 107.658 126.286 108.042 125.996C108.429 125.71 108.623 125.231 108.623 124.558V122.761H108.508C108.389 123.034 108.21 123.292 107.971 123.535C107.733 123.778 107.426 123.976 107.051 124.129C106.676 124.283 106.228 124.359 105.708 124.359C104.971 124.359 104.3 124.189 103.695 123.848C103.094 123.503 102.615 122.977 102.257 122.269C101.903 121.558 101.726 120.658 101.726 119.572C101.726 118.46 101.907 117.531 102.27 116.785C102.632 116.039 103.113 115.481 103.714 115.11C104.319 114.739 104.982 114.554 105.702 114.554C106.252 114.554 106.712 114.648 107.083 114.835C107.453 115.018 107.752 115.249 107.978 115.526C108.208 115.798 108.385 116.067 108.508 116.331H108.61V114.682H111.314V124.596C111.314 125.431 111.11 126.13 110.701 126.692C110.292 127.255 109.725 127.677 109 127.958C108.28 128.244 107.451 128.386 106.514 128.386ZM106.571 122.314C107.01 122.314 107.381 122.205 107.684 121.988C107.99 121.766 108.225 121.451 108.387 121.042C108.553 120.629 108.636 120.134 108.636 119.559C108.636 118.984 108.555 118.485 108.393 118.063C108.231 117.637 107.997 117.307 107.69 117.072C107.383 116.838 107.01 116.721 106.571 116.721C106.124 116.721 105.747 116.842 105.44 117.085C105.133 117.324 104.901 117.656 104.743 118.082C104.586 118.509 104.507 119.001 104.507 119.559C104.507 120.126 104.586 120.616 104.743 121.029C104.905 121.438 105.137 121.756 105.44 121.982C105.747 122.203 106.124 122.314 106.571 122.314ZM8.23935 137.174C8.18821 136.658 7.96875 136.258 7.58097 135.972C7.19318 135.687 6.6669 135.544 6.00213 135.544C5.55043 135.544 5.16903 135.608 4.85795 135.736C4.54688 135.859 4.30824 136.032 4.14205 136.254C3.98011 136.475 3.89915 136.727 3.89915 137.008C3.89063 137.242 3.93963 137.447 4.04616 137.621C4.15696 137.796 4.30824 137.947 4.5 138.075C4.69176 138.199 4.91335 138.308 5.16477 138.401C5.41619 138.491 5.68466 138.567 5.97017 138.631L7.14631 138.913C7.71733 139.04 8.24148 139.211 8.71875 139.424C9.19602 139.637 9.60938 139.899 9.95881 140.21C10.3082 140.521 10.5788 140.888 10.7706 141.31C10.9666 141.732 11.0668 142.215 11.071 142.761C11.0668 143.562 10.8622 144.256 10.4574 144.844C10.0568 145.428 9.47727 145.882 8.71875 146.206C7.96449 146.526 7.05469 146.685 5.98935 146.685C4.93253 146.685 4.01207 146.523 3.22798 146.2C2.44815 145.876 1.83878 145.396 1.39986 144.761C0.965199 144.122 0.737216 143.332 0.715909 142.39H3.39418C3.42401 142.829 3.54972 143.195 3.77131 143.489C3.99716 143.779 4.29759 143.999 4.67259 144.148C5.05185 144.293 5.48011 144.365 5.95739 144.365C6.42614 144.365 6.8331 144.297 7.17827 144.161C7.5277 144.024 7.7983 143.835 7.99006 143.592C8.18182 143.349 8.2777 143.07 8.2777 142.754C8.2777 142.46 8.19034 142.213 8.01562 142.013C7.84517 141.812 7.59375 141.642 7.26136 141.501C6.93324 141.361 6.53054 141.233 6.05327 141.118L4.62784 140.76C3.52415 140.491 2.6527 140.072 2.01349 139.501C1.37429 138.93 1.05682 138.161 1.06108 137.193C1.05682 136.401 1.26776 135.708 1.69389 135.116C2.12429 134.523 2.71449 134.061 3.46449 133.729C4.21449 133.396 5.06676 133.23 6.02131 133.23C6.9929 133.23 7.84091 133.396 8.56534 133.729C9.29403 134.061 9.8608 134.523 10.2656 135.116C10.6705 135.708 10.8793 136.394 10.892 137.174H8.23935ZM17.356 146.692C16.3461 146.692 15.4767 146.487 14.748 146.078C14.0236 145.665 13.4654 145.081 13.0733 144.327C12.6813 143.568 12.4853 142.671 12.4853 141.636C12.4853 140.626 12.6813 139.739 13.0733 138.977C13.4654 138.214 14.0172 137.619 14.7289 137.193C15.4448 136.767 16.2843 136.554 17.2473 136.554C17.8951 136.554 18.498 136.658 19.0563 136.867C19.6188 137.072 20.1088 137.381 20.5265 137.794C20.9483 138.207 21.2765 138.727 21.5108 139.354C21.7452 139.976 21.8624 140.705 21.8624 141.54V142.288H13.5719V140.6H19.2992C19.2992 140.208 19.214 139.861 19.0435 139.558C18.873 139.256 18.6365 139.019 18.334 138.849C18.0357 138.674 17.6884 138.587 17.2921 138.587C16.8787 138.587 16.5123 138.683 16.1926 138.874C15.8773 139.062 15.6301 139.315 15.4512 139.635C15.2722 139.95 15.1806 140.302 15.1763 140.69V142.294C15.1763 142.78 15.2658 143.2 15.4448 143.553C15.628 143.907 15.8858 144.18 16.2182 144.371C16.5506 144.563 16.9448 144.659 17.4007 144.659C17.7033 144.659 17.9803 144.616 18.2317 144.531C18.4831 144.446 18.6983 144.318 18.8773 144.148C19.0563 143.977 19.1926 143.768 19.2864 143.521L21.8049 143.688C21.677 144.293 21.415 144.821 21.0186 145.273C20.6266 145.72 20.1195 146.07 19.4973 146.321C18.8794 146.568 18.1657 146.692 17.356 146.692ZM31.8084 139.482L29.3155 139.635C29.2729 139.422 29.1813 139.23 29.0407 139.06C28.9 138.885 28.7147 138.746 28.4846 138.644C28.2587 138.538 27.9881 138.484 27.6728 138.484C27.2509 138.484 26.8951 138.574 26.6053 138.753C26.3155 138.928 26.1706 139.162 26.1706 139.456C26.1706 139.69 26.2644 139.888 26.4519 140.05C26.6394 140.212 26.9611 140.342 27.4171 140.44L29.1941 140.798C30.1486 140.994 30.8603 141.31 31.329 141.744C31.7978 142.179 32.0321 142.75 32.0321 143.457C32.0321 144.101 31.8425 144.665 31.4632 145.151C31.0882 145.637 30.5726 146.016 29.9164 146.289C29.2644 146.558 28.5123 146.692 27.66 146.692C26.3603 146.692 25.3248 146.421 24.5534 145.88C23.7864 145.335 23.3368 144.593 23.2047 143.656L25.883 143.515C25.964 143.911 26.16 144.214 26.4711 144.423C26.7821 144.627 27.1806 144.729 27.6664 144.729C28.1436 144.729 28.5272 144.638 28.8169 144.455C29.111 144.267 29.2601 144.026 29.2644 143.732C29.2601 143.485 29.1557 143.283 28.9512 143.125C28.7466 142.963 28.4313 142.839 28.0051 142.754L26.3049 142.415C25.3461 142.224 24.6323 141.891 24.1635 141.418C23.699 140.945 23.4668 140.342 23.4668 139.609C23.4668 138.979 23.6373 138.435 23.9782 137.979C24.3233 137.523 24.807 137.172 25.4292 136.925C26.0556 136.678 26.7885 136.554 27.628 136.554C28.8681 136.554 29.8439 136.816 30.5556 137.34C31.2715 137.864 31.6891 138.578 31.8084 139.482ZM41.9158 139.482L39.4229 139.635C39.3803 139.422 39.2887 139.23 39.1481 139.06C39.0075 138.885 38.8221 138.746 38.592 138.644C38.3661 138.538 38.0955 138.484 37.7802 138.484C37.3583 138.484 37.0025 138.574 36.7127 138.753C36.4229 138.928 36.2781 139.162 36.2781 139.456C36.2781 139.69 36.3718 139.888 36.5593 140.05C36.7468 140.212 37.0685 140.342 37.5245 140.44L39.3015 140.798C40.256 140.994 40.9677 141.31 41.4364 141.744C41.9052 142.179 42.1396 142.75 42.1396 143.457C42.1396 144.101 41.9499 144.665 41.5707 145.151C41.1957 145.637 40.68 146.016 40.0238 146.289C39.3718 146.558 38.6197 146.692 37.7674 146.692C36.4677 146.692 35.4322 146.421 34.6609 145.88C33.8938 145.335 33.4442 144.593 33.3121 143.656L35.9904 143.515C36.0714 143.911 36.2674 144.214 36.5785 144.423C36.8896 144.627 37.288 144.729 37.7738 144.729C38.2511 144.729 38.6346 144.638 38.9244 144.455C39.2184 144.267 39.3675 144.026 39.3718 143.732C39.3675 143.485 39.2631 143.283 39.0586 143.125C38.854 142.963 38.5387 142.839 38.1126 142.754L36.4123 142.415C35.4535 142.224 34.7397 141.891 34.271 141.418C33.8065 140.945 33.5742 140.342 33.5742 139.609C33.5742 138.979 33.7447 138.435 34.0856 137.979C34.4308 137.523 34.9144 137.172 35.5366 136.925C36.163 136.678 36.896 136.554 37.7354 136.554C38.9755 136.554 39.9513 136.816 40.663 137.34C41.3789 137.864 41.7965 138.578 41.9158 139.482ZM43.8542 146.5V136.682H46.5772V146.5H43.8542ZM45.2221 135.416C44.8173 135.416 44.47 135.282 44.1802 135.013C43.8947 134.741 43.752 134.415 43.752 134.036C43.752 133.661 43.8947 133.339 44.1802 133.07C44.47 132.798 44.8173 132.661 45.2221 132.661C45.627 132.661 45.9721 132.798 46.2576 133.07C46.5474 133.339 46.6923 133.661 46.6923 134.036C46.6923 134.415 46.5474 134.741 46.2576 135.013C45.9721 135.282 45.627 135.416 45.2221 135.416ZM53.1946 146.692C52.2017 146.692 51.343 146.481 50.6186 146.059C49.8984 145.633 49.3423 145.04 48.9503 144.282C48.5582 143.519 48.3622 142.635 48.3622 141.629C48.3622 140.615 48.5582 139.729 48.9503 138.97C49.3423 138.207 49.8984 137.615 50.6186 137.193C51.343 136.767 52.2017 136.554 53.1946 136.554C54.1875 136.554 55.044 136.767 55.7642 137.193C56.4886 137.615 57.0469 138.207 57.4389 138.97C57.831 139.729 58.027 140.615 58.027 141.629C58.027 142.635 57.831 143.519 57.4389 144.282C57.0469 145.04 56.4886 145.633 55.7642 146.059C55.044 146.481 54.1875 146.692 53.1946 146.692ZM53.2074 144.582C53.6591 144.582 54.0362 144.455 54.3388 144.199C54.6413 143.939 54.8693 143.585 55.0227 143.138C55.1804 142.69 55.2592 142.181 55.2592 141.61C55.2592 141.039 55.1804 140.53 55.0227 140.082C54.8693 139.635 54.6413 139.281 54.3388 139.021C54.0362 138.761 53.6591 138.631 53.2074 138.631C52.7514 138.631 52.3679 138.761 52.0568 139.021C51.75 139.281 51.5178 139.635 51.3601 140.082C51.2067 140.53 51.13 141.039 51.13 141.61C51.13 142.181 51.2067 142.69 51.3601 143.138C51.5178 143.585 51.75 143.939 52.0568 144.199C52.3679 144.455 52.7514 144.582 53.2074 144.582ZM62.5206 140.824V146.5H59.7976V136.682H62.3928V138.414H62.5078C62.7251 137.843 63.0895 137.391 63.6009 137.059C64.1122 136.722 64.7322 136.554 65.4609 136.554C66.1428 136.554 66.7372 136.703 67.2443 137.001C67.7514 137.3 68.1456 137.726 68.4268 138.28C68.7081 138.83 68.8487 139.486 68.8487 140.249V146.5H66.1257V140.734C66.13 140.134 65.9766 139.665 65.6655 139.328C65.3544 138.987 64.9261 138.817 64.3807 138.817C64.0142 138.817 63.6903 138.896 63.4091 139.053C63.1321 139.211 62.9148 139.441 62.7571 139.744C62.6037 140.042 62.5249 140.402 62.5206 140.824ZM79.1639 139.482L76.671 139.635C76.6284 139.422 76.5368 139.23 76.3961 139.06C76.2555 138.885 76.0701 138.746 75.84 138.644C75.6142 138.538 75.3436 138.484 75.0282 138.484C74.6064 138.484 74.2505 138.574 73.9608 138.753C73.671 138.928 73.5261 139.162 73.5261 139.456C73.5261 139.69 73.6199 139.888 73.8074 140.05C73.9949 140.212 74.3166 140.342 74.7726 140.44L76.5495 140.798C77.5041 140.994 78.2157 141.31 78.6845 141.744C79.1532 142.179 79.3876 142.75 79.3876 143.457C79.3876 144.101 79.198 144.665 78.8187 145.151C78.4437 145.637 77.9281 146.016 77.2718 146.289C76.6199 146.558 75.8677 146.692 75.0154 146.692C73.7157 146.692 72.6802 146.421 71.9089 145.88C71.1419 145.335 70.6923 144.593 70.5602 143.656L73.2385 143.515C73.3194 143.911 73.5154 144.214 73.8265 144.423C74.1376 144.627 74.536 144.729 75.0218 144.729C75.4991 144.729 75.8826 144.638 76.1724 144.455C76.4664 144.267 76.6156 144.026 76.6199 143.732C76.6156 143.485 76.5112 143.283 76.3066 143.125C76.1021 142.963 75.7868 142.839 75.3606 142.754L73.6603 142.415C72.7015 142.224 71.9877 141.891 71.519 141.418C71.0545 140.945 70.8223 140.342 70.8223 139.609C70.8223 138.979 70.9927 138.435 71.3336 137.979C71.6788 137.523 72.1625 137.172 72.7846 136.925C73.411 136.678 74.144 136.554 74.9835 136.554C76.2235 136.554 77.1994 136.816 77.911 137.34C78.627 137.864 79.0446 138.578 79.1639 139.482Z" fill="#1F1F28"/>
<rect x="262" y="0.5" width="73" height="73" rx="20" fill="url(#paint2_linear_131_713)"/>
<g clip-path="url(#clip0_131_713)">
<path d="M301.59 39.7539C301.59 39.756 301.591 39.757 301.591 39.758C301.591 41.6352 300.069 43.1716 298.178 43.1716C296.287 43.1716 294.766 41.6352 294.766 39.758C294.766 39.757 294.766 39.756 294.766 39.7539H289V40.5381C289 41.1856 289.47 41.7212 290.086 41.7865L290.849 41.8839C291.011 42.4184 291.222 42.953 291.497 43.4399L291.043 44.0242C290.622 44.5266 290.654 45.2404 291.108 45.6941L292.243 46.813C292.697 47.2668 293.411 47.3154 293.897 46.9104L294.497 46.4235C295 46.7156 295.519 46.927 296.054 47.0886L296.135 47.8023C296.2 48.4674 296.735 48.9367 297.384 48.9367H298.957C299.605 48.9367 300.14 48.4674 300.189 47.851L300.302 47.0886C300.837 46.927 301.373 46.699 301.843 46.4235L302.443 46.9104C302.946 47.3154 303.659 47.2668 304.113 46.8296L305.232 45.6941C305.686 45.2404 305.735 44.5266 305.329 44.0397L304.843 43.4399C305.135 42.9374 305.346 42.4184 305.508 41.8839L306.221 41.7865C306.87 41.7212 307.356 41.1856 307.356 40.5381V39.7539H301.59Z" fill="url(#paint3_linear_131_713)"/>
<path d="M298.179 31.6703C300.021 31.6703 301.514 30.1771 301.514 28.3352C301.514 26.4932 300.021 25 298.179 25C296.337 25 294.844 26.4932 294.844 28.3352C294.844 30.1771 296.337 31.6703 298.179 31.6703Z" fill="url(#paint4_linear_131_713)"/>
<path d="M304.454 37.7524H291.914C292.744 35.0825 295.234 33.1426 298.174 33.1426C300.957 33.1426 303.539 34.8973 304.454 37.7524Z" fill="url(#paint5_linear_131_713)"/>
</g>
<path d="M265.394 117.5H262.428L266.947 104.409H270.514L275.027 117.5H272.061L268.782 107.401H268.68L265.394 117.5ZM265.209 112.354H272.214V114.515H265.209V112.354ZM279.712 117.66C278.967 117.66 278.291 117.468 277.686 117.085C277.085 116.697 276.608 116.128 276.254 115.378C275.905 114.624 275.73 113.699 275.73 112.604C275.73 111.479 275.911 110.543 276.273 109.798C276.636 109.048 277.117 108.487 277.718 108.116C278.323 107.741 278.986 107.554 279.706 107.554C280.256 107.554 280.714 107.648 281.08 107.835C281.451 108.018 281.749 108.249 281.975 108.526C282.205 108.798 282.38 109.067 282.499 109.331H282.582V104.409H285.299V117.5H282.614V115.928H282.499C282.371 116.2 282.19 116.471 281.956 116.739C281.726 117.004 281.425 117.223 281.055 117.398C280.688 117.572 280.241 117.66 279.712 117.66ZM280.575 115.493C281.014 115.493 281.385 115.374 281.688 115.135C281.994 114.892 282.229 114.553 282.391 114.119C282.557 113.684 282.64 113.175 282.64 112.591C282.64 112.007 282.559 111.5 282.397 111.07C282.235 110.639 282.001 110.307 281.694 110.072C281.387 109.838 281.014 109.721 280.575 109.721C280.128 109.721 279.751 109.842 279.444 110.085C279.137 110.328 278.905 110.665 278.747 111.095C278.589 111.526 278.511 112.024 278.511 112.591C278.511 113.162 278.589 113.667 278.747 114.106C278.909 114.54 279.141 114.881 279.444 115.129C279.751 115.371 280.128 115.493 280.575 115.493ZM287.538 117.5V107.682H290.133V109.414H290.248C290.453 108.839 290.794 108.385 291.271 108.053C291.748 107.72 292.319 107.554 292.984 107.554C293.657 107.554 294.23 107.722 294.703 108.059C295.176 108.391 295.492 108.843 295.649 109.414H295.752C295.952 108.852 296.314 108.402 296.838 108.065C297.367 107.724 297.991 107.554 298.711 107.554C299.627 107.554 300.371 107.846 300.942 108.43C301.517 109.009 301.805 109.832 301.805 110.897V117.5H299.088V111.434C299.088 110.888 298.943 110.479 298.654 110.207C298.364 109.934 298.002 109.798 297.567 109.798C297.073 109.798 296.687 109.955 296.41 110.271C296.133 110.582 295.994 110.993 295.994 111.504V117.5H293.355V111.376C293.355 110.895 293.216 110.511 292.939 110.226C292.666 109.94 292.306 109.798 291.859 109.798C291.556 109.798 291.284 109.874 291.041 110.028C290.802 110.177 290.612 110.388 290.472 110.661C290.331 110.929 290.261 111.244 290.261 111.607V117.5H287.538ZM303.956 117.5V107.682H306.679V117.5H303.956ZM305.324 106.416C304.919 106.416 304.572 106.282 304.282 106.013C303.996 105.741 303.854 105.415 303.854 105.036C303.854 104.661 303.996 104.339 304.282 104.07C304.572 103.798 304.919 103.661 305.324 103.661C305.729 103.661 306.074 103.798 306.359 104.07C306.649 104.339 306.794 104.661 306.794 105.036C306.794 105.415 306.649 105.741 306.359 106.013C306.074 106.282 305.729 106.416 305.324 106.416ZM311.583 111.824V117.5H308.86V107.682H311.455V109.414H311.57C311.788 108.843 312.152 108.391 312.663 108.059C313.175 107.722 313.795 107.554 314.523 107.554C315.205 107.554 315.8 107.703 316.307 108.001C316.814 108.3 317.208 108.726 317.489 109.28C317.771 109.83 317.911 110.486 317.911 111.249V117.5H315.188V111.734C315.192 111.134 315.039 110.665 314.728 110.328C314.417 109.987 313.989 109.817 313.443 109.817C313.077 109.817 312.753 109.896 312.472 110.053C312.195 110.211 311.977 110.441 311.82 110.744C311.666 111.042 311.587 111.402 311.583 111.824ZM320.057 117.5V107.682H322.78V117.5H320.057ZM321.425 106.416C321.02 106.416 320.673 106.282 320.383 106.013C320.098 105.741 319.955 105.415 319.955 105.036C319.955 104.661 320.098 104.339 320.383 104.07C320.673 103.798 321.02 103.661 321.425 103.661C321.83 103.661 322.175 103.798 322.461 104.07C322.751 104.339 322.895 104.661 322.895 105.036C322.895 105.415 322.751 105.741 322.461 106.013C322.175 106.282 321.83 106.416 321.425 106.416ZM333.131 110.482L330.638 110.635C330.595 110.422 330.504 110.23 330.363 110.06C330.222 109.885 330.037 109.746 329.807 109.644C329.581 109.538 329.31 109.484 328.995 109.484C328.573 109.484 328.217 109.574 327.928 109.753C327.638 109.928 327.493 110.162 327.493 110.456C327.493 110.69 327.587 110.888 327.774 111.05C327.962 111.212 328.283 111.342 328.739 111.44L330.516 111.798C331.471 111.994 332.183 112.31 332.651 112.744C333.12 113.179 333.354 113.75 333.354 114.457C333.354 115.101 333.165 115.665 332.786 116.151C332.411 116.637 331.895 117.016 331.239 117.289C330.587 117.558 329.835 117.692 328.982 117.692C327.683 117.692 326.647 117.421 325.876 116.88C325.109 116.335 324.659 115.593 324.527 114.656L327.205 114.515C327.286 114.911 327.482 115.214 327.793 115.423C328.104 115.627 328.503 115.729 328.989 115.729C329.466 115.729 329.849 115.638 330.139 115.455C330.433 115.267 330.582 115.026 330.587 114.732C330.582 114.485 330.478 114.283 330.273 114.125C330.069 113.963 329.754 113.839 329.327 113.754L327.627 113.415C326.668 113.224 325.955 112.891 325.486 112.418C325.021 111.945 324.789 111.342 324.789 110.609C324.789 109.979 324.96 109.435 325.3 108.979C325.646 108.523 326.129 108.172 326.751 107.925C327.378 107.678 328.111 107.554 328.95 107.554C330.19 107.554 331.166 107.816 331.878 108.34C332.594 108.864 333.011 109.578 333.131 110.482ZM340.291 107.682V109.727H334.379V107.682H340.291ZM335.721 105.33H338.444V114.483C338.444 114.734 338.482 114.93 338.559 115.071C338.636 115.207 338.742 115.303 338.879 115.359C339.019 115.414 339.181 115.442 339.365 115.442C339.492 115.442 339.62 115.431 339.748 115.41C339.876 115.384 339.974 115.365 340.042 115.352L340.47 117.379C340.334 117.421 340.142 117.47 339.895 117.526C339.648 117.585 339.347 117.621 338.994 117.634C338.338 117.66 337.762 117.572 337.268 117.372C336.778 117.172 336.396 116.861 336.124 116.439C335.851 116.017 335.717 115.484 335.721 114.841V105.33ZM342.065 117.5V107.682H344.705V109.395H344.807C344.986 108.786 345.287 108.325 345.709 108.014C346.131 107.699 346.616 107.541 347.166 107.541C347.302 107.541 347.449 107.55 347.607 107.567C347.765 107.584 347.903 107.607 348.023 107.637V110.053C347.895 110.015 347.718 109.981 347.492 109.951C347.266 109.921 347.059 109.906 346.872 109.906C346.471 109.906 346.113 109.994 345.798 110.168C345.487 110.339 345.24 110.577 345.057 110.884C344.878 111.191 344.788 111.545 344.788 111.945V117.5H342.065ZM351.949 117.685C351.322 117.685 350.764 117.577 350.274 117.359C349.784 117.138 349.396 116.812 349.111 116.381C348.83 115.947 348.689 115.406 348.689 114.758C348.689 114.212 348.789 113.754 348.989 113.384C349.19 113.013 349.462 112.714 349.808 112.489C350.153 112.263 350.545 112.092 350.984 111.977C351.427 111.862 351.891 111.781 352.377 111.734C352.948 111.675 353.408 111.619 353.758 111.568C354.107 111.513 354.361 111.432 354.518 111.325C354.676 111.219 354.755 111.061 354.755 110.852V110.814C354.755 110.409 354.627 110.096 354.371 109.874C354.12 109.653 353.762 109.542 353.298 109.542C352.808 109.542 352.418 109.651 352.128 109.868C351.838 110.081 351.646 110.349 351.553 110.673L349.034 110.469C349.162 109.872 349.413 109.357 349.788 108.922C350.163 108.483 350.647 108.146 351.239 107.912C351.836 107.673 352.526 107.554 353.31 107.554C353.856 107.554 354.378 107.618 354.876 107.746C355.379 107.874 355.825 108.072 356.212 108.34C356.604 108.609 356.913 108.954 357.139 109.376C357.365 109.793 357.478 110.294 357.478 110.878V117.5H354.896V116.138H354.819C354.661 116.445 354.45 116.716 354.186 116.95C353.922 117.18 353.604 117.362 353.234 117.494C352.863 117.621 352.435 117.685 351.949 117.685ZM352.729 115.806C353.129 115.806 353.483 115.727 353.79 115.57C354.097 115.408 354.337 115.19 354.512 114.918C354.687 114.645 354.774 114.336 354.774 113.991V112.949C354.689 113.004 354.572 113.055 354.423 113.102C354.278 113.145 354.114 113.185 353.93 113.224C353.747 113.258 353.564 113.29 353.381 113.32C353.197 113.345 353.031 113.369 352.882 113.39C352.563 113.437 352.283 113.511 352.045 113.614C351.806 113.716 351.621 113.854 351.489 114.029C351.357 114.2 351.29 114.413 351.29 114.668C351.29 115.039 351.425 115.322 351.693 115.518C351.966 115.71 352.311 115.806 352.729 115.806ZM364.813 107.682V109.727H358.9V107.682H364.813ZM360.243 105.33H362.966V114.483C362.966 114.734 363.004 114.93 363.081 115.071C363.157 115.207 363.264 115.303 363.4 115.359C363.541 115.414 363.703 115.442 363.886 115.442C364.014 115.442 364.142 115.431 364.27 115.41C364.397 115.384 364.495 115.365 364.564 115.352L364.992 117.379C364.855 117.421 364.664 117.47 364.417 117.526C364.169 117.585 363.869 117.621 363.515 117.634C362.859 117.66 362.284 117.572 361.789 117.372C361.299 117.172 360.918 116.861 360.645 116.439C360.373 116.017 360.238 115.484 360.243 114.841V105.33ZM370.917 117.692C369.924 117.692 369.066 117.481 368.341 117.059C367.621 116.633 367.065 116.04 366.673 115.282C366.281 114.519 366.085 113.635 366.085 112.629C366.085 111.615 366.281 110.729 366.673 109.97C367.065 109.207 367.621 108.615 368.341 108.193C369.066 107.767 369.924 107.554 370.917 107.554C371.91 107.554 372.767 107.767 373.487 108.193C374.211 108.615 374.77 109.207 375.162 109.97C375.554 110.729 375.75 111.615 375.75 112.629C375.75 113.635 375.554 114.519 375.162 115.282C374.77 116.04 374.211 116.633 373.487 117.059C372.767 117.481 371.91 117.692 370.917 117.692ZM370.93 115.582C371.382 115.582 371.759 115.455 372.061 115.199C372.364 114.939 372.592 114.585 372.745 114.138C372.903 113.69 372.982 113.181 372.982 112.61C372.982 112.039 372.903 111.53 372.745 111.082C372.592 110.635 372.364 110.281 372.061 110.021C371.759 109.761 371.382 109.631 370.93 109.631C370.474 109.631 370.091 109.761 369.779 110.021C369.473 110.281 369.24 110.635 369.083 111.082C368.929 111.53 368.853 112.039 368.853 112.61C368.853 113.181 368.929 113.69 369.083 114.138C369.24 114.585 369.473 114.939 369.779 115.199C370.091 115.455 370.474 115.582 370.93 115.582ZM377.52 117.5V107.682H380.16V109.395H380.262C380.441 108.786 380.742 108.325 381.164 108.014C381.586 107.699 382.071 107.541 382.621 107.541C382.757 107.541 382.904 107.55 383.062 107.567C383.22 107.584 383.358 107.607 383.478 107.637V110.053C383.35 110.015 383.173 109.981 382.947 109.951C382.721 109.921 382.515 109.906 382.327 109.906C381.926 109.906 381.569 109.994 381.253 110.168C380.942 110.339 380.695 110.577 380.512 110.884C380.333 111.191 380.243 111.545 380.243 111.945V117.5H377.52ZM263.138 139.5V126.409H271.959V128.691H265.906V131.81H271.505V134.092H265.906V137.218H271.984V139.5H263.138ZM276.831 133.824V139.5H274.108V129.682H276.703V131.414H276.818C277.036 130.843 277.4 130.391 277.911 130.059C278.423 129.722 279.043 129.554 279.771 129.554C280.453 129.554 281.048 129.703 281.555 130.001C282.062 130.3 282.456 130.726 282.737 131.28C283.019 131.83 283.159 132.486 283.159 133.249V139.5H280.436V133.734C280.441 133.134 280.287 132.665 279.976 132.328C279.665 131.987 279.237 131.817 278.691 131.817C278.325 131.817 278.001 131.896 277.72 132.053C277.443 132.211 277.225 132.441 277.068 132.744C276.914 133.042 276.835 133.402 276.831 133.824ZM288.105 139.685C287.479 139.685 286.92 139.577 286.43 139.359C285.94 139.138 285.553 138.812 285.267 138.381C284.986 137.947 284.845 137.406 284.845 136.758C284.845 136.212 284.945 135.754 285.146 135.384C285.346 135.013 285.619 134.714 285.964 134.489C286.309 134.263 286.701 134.092 287.14 133.977C287.583 133.862 288.048 133.781 288.533 133.734C289.104 133.675 289.565 133.619 289.914 133.568C290.263 133.513 290.517 133.432 290.675 133.325C290.832 133.219 290.911 133.061 290.911 132.852V132.814C290.911 132.409 290.783 132.096 290.528 131.874C290.276 131.653 289.918 131.542 289.454 131.542C288.964 131.542 288.574 131.651 288.284 131.868C287.994 132.081 287.803 132.349 287.709 132.673L285.19 132.469C285.318 131.872 285.57 131.357 285.945 130.922C286.32 130.483 286.803 130.146 287.396 129.912C287.992 129.673 288.683 129.554 289.467 129.554C290.012 129.554 290.534 129.618 291.033 129.746C291.536 129.874 291.981 130.072 292.369 130.34C292.761 130.609 293.07 130.954 293.295 131.376C293.521 131.793 293.634 132.294 293.634 132.878V139.5H291.052V138.138H290.975C290.817 138.445 290.607 138.716 290.342 138.95C290.078 139.18 289.761 139.362 289.39 139.494C289.019 139.621 288.591 139.685 288.105 139.685ZM288.885 137.806C289.286 137.806 289.639 137.727 289.946 137.57C290.253 137.408 290.494 137.19 290.668 136.918C290.843 136.645 290.93 136.336 290.93 135.991V134.949C290.845 135.004 290.728 135.055 290.579 135.102C290.434 135.145 290.27 135.185 290.087 135.224C289.903 135.258 289.72 135.29 289.537 135.32C289.354 135.345 289.188 135.369 289.038 135.39C288.719 135.437 288.44 135.511 288.201 135.614C287.962 135.716 287.777 135.854 287.645 136.029C287.513 136.2 287.447 136.413 287.447 136.668C287.447 137.039 287.581 137.322 287.849 137.518C288.122 137.71 288.467 137.806 288.885 137.806ZM295.798 139.5V126.409H298.521V131.331H298.604C298.723 131.067 298.896 130.798 299.122 130.526C299.352 130.249 299.65 130.018 300.017 129.835C300.387 129.648 300.848 129.554 301.397 129.554C302.113 129.554 302.774 129.741 303.379 130.116C303.984 130.487 304.468 131.048 304.83 131.798C305.192 132.543 305.373 133.479 305.373 134.604C305.373 135.699 305.196 136.624 304.843 137.378C304.493 138.128 304.016 138.697 303.411 139.085C302.81 139.468 302.137 139.66 301.391 139.66C300.863 139.66 300.413 139.572 300.042 139.398C299.676 139.223 299.375 139.004 299.141 138.739C298.907 138.471 298.728 138.2 298.604 137.928H298.483V139.5H295.798ZM298.463 134.591C298.463 135.175 298.544 135.684 298.706 136.119C298.868 136.553 299.103 136.892 299.409 137.135C299.716 137.374 300.089 137.493 300.528 137.493C300.971 137.493 301.346 137.371 301.653 137.129C301.96 136.881 302.192 136.54 302.35 136.106C302.512 135.667 302.593 135.162 302.593 134.591C302.593 134.024 302.514 133.526 302.356 133.095C302.199 132.665 301.966 132.328 301.659 132.085C301.353 131.842 300.975 131.721 300.528 131.721C300.085 131.721 299.71 131.838 299.403 132.072C299.1 132.307 298.868 132.639 298.706 133.07C298.544 133.5 298.463 134.007 298.463 134.591ZM309.913 126.409V139.5H307.19V126.409H309.913ZM316.569 139.692C315.559 139.692 314.69 139.487 313.961 139.078C313.237 138.665 312.678 138.081 312.286 137.327C311.894 136.568 311.698 135.671 311.698 134.636C311.698 133.626 311.894 132.739 312.286 131.977C312.678 131.214 313.23 130.619 313.942 130.193C314.658 129.767 315.497 129.554 316.46 129.554C317.108 129.554 317.711 129.658 318.269 129.867C318.832 130.072 319.322 130.381 319.739 130.794C320.161 131.207 320.489 131.727 320.724 132.354C320.958 132.976 321.075 133.705 321.075 134.54V135.288H312.785V133.6H318.512C318.512 133.208 318.427 132.861 318.256 132.558C318.086 132.256 317.849 132.019 317.547 131.849C317.249 131.674 316.901 131.587 316.505 131.587C316.092 131.587 315.725 131.683 315.406 131.874C315.09 132.062 314.843 132.315 314.664 132.635C314.485 132.95 314.393 133.302 314.389 133.69V135.294C314.389 135.78 314.479 136.2 314.658 136.553C314.841 136.907 315.099 137.18 315.431 137.371C315.763 137.563 316.158 137.659 316.614 137.659C316.916 137.659 317.193 137.616 317.445 137.531C317.696 137.446 317.911 137.318 318.09 137.148C318.269 136.977 318.406 136.768 318.499 136.521L321.018 136.688C320.89 137.293 320.628 137.821 320.232 138.273C319.839 138.72 319.332 139.07 318.71 139.321C318.092 139.568 317.379 139.692 316.569 139.692ZM322.852 139.5V129.682H325.447V131.414H325.562C325.767 130.839 326.108 130.385 326.585 130.053C327.062 129.72 327.634 129.554 328.298 129.554C328.972 129.554 329.545 129.722 330.018 130.059C330.491 130.391 330.806 130.843 330.964 131.414H331.066C331.266 130.852 331.629 130.402 332.153 130.065C332.681 129.724 333.305 129.554 334.026 129.554C334.942 129.554 335.685 129.846 336.256 130.43C336.832 131.009 337.119 131.832 337.119 132.897V139.5H334.403V133.434C334.403 132.888 334.258 132.479 333.968 132.207C333.678 131.934 333.316 131.798 332.881 131.798C332.387 131.798 332.001 131.955 331.724 132.271C331.447 132.582 331.309 132.993 331.309 133.504V139.5H328.669V133.376C328.669 132.895 328.531 132.511 328.254 132.226C327.981 131.94 327.621 131.798 327.173 131.798C326.871 131.798 326.598 131.874 326.355 132.028C326.116 132.177 325.927 132.388 325.786 132.661C325.646 132.929 325.575 133.244 325.575 133.607V139.5H322.852ZM343.745 139.692C342.735 139.692 341.865 139.487 341.137 139.078C340.412 138.665 339.854 138.081 339.462 137.327C339.07 136.568 338.874 135.671 338.874 134.636C338.874 133.626 339.07 132.739 339.462 131.977C339.854 131.214 340.406 130.619 341.118 130.193C341.833 129.767 342.673 129.554 343.636 129.554C344.284 129.554 344.887 129.658 345.445 129.867C346.007 130.072 346.498 130.381 346.915 130.794C347.337 131.207 347.665 131.727 347.9 132.354C348.134 132.976 348.251 133.705 348.251 134.54V135.288H339.961V133.6H345.688C345.688 133.208 345.603 132.861 345.432 132.558C345.262 132.256 345.025 132.019 344.723 131.849C344.424 131.674 344.077 131.587 343.681 131.587C343.267 131.587 342.901 131.683 342.581 131.874C342.266 132.062 342.019 132.315 341.84 132.635C341.661 132.95 341.569 133.302 341.565 133.69V135.294C341.565 135.78 341.654 136.2 341.833 136.553C342.017 136.907 342.275 137.18 342.607 137.371C342.939 137.563 343.333 137.659 343.789 137.659C344.092 137.659 344.369 137.616 344.62 137.531C344.872 137.446 345.087 137.318 345.266 137.148C345.445 136.977 345.581 136.768 345.675 136.521L348.194 136.688C348.066 137.293 347.804 137.821 347.407 138.273C347.015 138.72 346.508 139.07 345.886 139.321C345.268 139.568 344.554 139.692 343.745 139.692ZM352.751 133.824V139.5H350.028V129.682H352.623V131.414H352.738C352.956 130.843 353.32 130.391 353.831 130.059C354.343 129.722 354.963 129.554 355.691 129.554C356.373 129.554 356.968 129.703 357.475 130.001C357.982 130.3 358.376 130.726 358.657 131.28C358.939 131.83 359.079 132.486 359.079 133.249V139.5H356.356V133.734C356.36 133.134 356.207 132.665 355.896 132.328C355.585 131.987 355.157 131.817 354.611 131.817C354.245 131.817 353.921 131.896 353.64 132.053C353.363 132.211 353.145 132.441 352.988 132.744C352.834 133.042 352.755 133.402 352.751 133.824ZM366.448 129.682V131.727H360.535V129.682H366.448ZM361.877 127.33H364.6V136.483C364.6 136.734 364.639 136.93 364.715 137.071C364.792 137.207 364.899 137.303 365.035 137.359C365.176 137.414 365.338 137.442 365.521 137.442C365.649 137.442 365.776 137.431 365.904 137.41C366.032 137.384 366.13 137.365 366.198 137.352L366.627 139.379C366.49 139.421 366.298 139.47 366.051 139.526C365.804 139.585 365.504 139.621 365.15 139.634C364.494 139.66 363.919 139.572 363.424 139.372C362.934 139.172 362.553 138.861 362.28 138.439C362.007 138.017 361.873 137.484 361.877 136.841V127.33Z" fill="#1F1F28"/>
<rect y="198.5" width="76" height="76" rx="20" fill="url(#paint6_linear_131_713)"/>
<path d="M38.0009 229.104C33.4453 229.104 31.6172 232.624 31.6172 235.1C31.6172 238.717 34.4499 241.387 35.0993 244.192H40.9025C41.5521 241.387 44.3846 238.717 44.3846 235.1C44.3846 232.624 42.5568 229.104 38.0009 229.104Z" fill="url(#paint7_linear_131_713)"/>
<path d="M35.0977 246.905C35.0977 247.745 35.4281 248.075 36.2683 248.075H36.3731H36.3876L36.5024 248.42C36.6771 248.945 36.8911 249.099 37.4446 249.099H38.5543C39.1081 249.099 39.3215 248.945 39.4965 248.42L39.611 248.075H39.6255H39.7305C40.5711 248.075 40.9009 247.745 40.9009 246.905V245.154H35.0977V246.905Z" fill="url(#paint8_linear_131_713)"/>
<path d="M38.0001 227.615C38.3529 227.615 38.5802 227.387 38.5802 227.034V224.481C38.5802 224.128 38.3529 223.9 38.0001 223.9C37.6476 223.9 37.4199 224.128 37.4199 224.481V227.034C37.4199 227.387 37.6476 227.615 38.0001 227.615Z" fill="url(#paint9_linear_131_713)"/>
<path d="M43.1278 229.144C43.4061 229.361 43.7256 229.322 43.9426 229.044L45.5145 227.032C45.7318 226.754 45.6926 226.434 45.4148 226.218C45.1371 226 44.817 226.039 44.6 226.318L43.0284 228.33C42.8105 228.608 42.8503 228.927 43.1278 229.144Z" fill="url(#paint10_linear_131_713)"/>
<path d="M49.5249 232.685C49.4392 232.343 49.1634 232.177 48.8213 232.262L46.3433 232.88C46.0011 232.966 45.8354 233.242 45.9205 233.584C46.0059 233.926 46.282 234.092 46.6241 234.006L49.1018 233.389C49.4443 233.303 49.6103 233.027 49.5249 232.685Z" fill="url(#paint11_linear_131_713)"/>
<path d="M48.2923 239.435L45.9596 238.397C45.6376 238.253 45.3366 238.369 45.1935 238.691C45.0502 239.013 45.1655 239.314 45.4878 239.458L47.8202 240.495C48.1422 240.639 48.4432 240.524 48.5863 240.201C48.7299 239.88 48.6143 239.579 48.2923 239.435Z" fill="url(#paint12_linear_131_713)"/>
<path d="M32.0589 229.044C32.2759 229.322 32.5957 229.361 32.8734 229.144C33.1512 228.927 33.1904 228.607 32.9734 228.329L31.4012 226.317C31.1842 226.04 30.8644 226 30.5867 226.217C30.3089 226.434 30.27 226.754 30.487 227.032L32.0589 229.044Z" fill="url(#paint13_linear_131_713)"/>
<path d="M30.0812 233.584C30.1666 233.241 30.0005 232.966 29.6584 232.88L27.1807 232.262C26.8385 232.177 26.5624 232.343 26.477 232.685C26.3922 233.027 26.5577 233.303 26.9001 233.389L29.3775 234.006C29.7197 234.091 29.9958 233.926 30.0812 233.584Z" fill="url(#paint14_linear_131_713)"/>
<path d="M30.0411 238.396L27.7084 239.435C27.3861 239.578 27.2708 239.879 27.4144 240.201C27.5575 240.523 27.8585 240.639 28.1805 240.496L30.5132 239.457C30.8355 239.314 30.9508 239.013 30.8072 238.691C30.6638 238.369 30.3634 238.254 30.0411 238.396Z" fill="url(#paint15_linear_131_713)"/>
<path d="M1.13778 318.5V305.409H9.95881V307.691H3.90554V310.81H9.50497V313.092H3.90554V316.218H9.98438V318.5H1.13778ZM14.8311 312.824V318.5H12.1081V308.682H14.7033V310.414H14.8184C15.0357 309.843 15.4 309.391 15.9114 309.059C16.4228 308.722 17.0428 308.554 17.7715 308.554C18.4533 308.554 19.0478 308.703 19.5549 309.001C20.062 309.3 20.4561 309.726 20.7374 310.28C21.0186 310.83 21.1593 311.486 21.1593 312.249V318.5H18.4363V312.734C18.4405 312.134 18.2871 311.665 17.976 311.328C17.665 310.987 17.2367 310.817 16.6912 310.817C16.3248 310.817 16.0009 310.896 15.7196 311.053C15.4426 311.211 15.2253 311.441 15.0676 311.744C14.9142 312.042 14.8354 312.402 14.8311 312.824ZM26.9233 318.66C26.1776 318.66 25.5021 318.468 24.897 318.085C24.2962 317.697 23.8189 317.128 23.4652 316.378C23.1158 315.624 22.9411 314.699 22.9411 313.604C22.9411 312.479 23.1222 311.543 23.4844 310.798C23.8466 310.048 24.3281 309.487 24.929 309.116C25.5341 308.741 26.1967 308.554 26.9169 308.554C27.4666 308.554 27.9247 308.648 28.2912 308.835C28.6619 309.018 28.9602 309.249 29.1861 309.526C29.4162 309.798 29.5909 310.067 29.7102 310.331H29.7933V305.409H32.5099V318.5H29.8253V316.928H29.7102C29.5824 317.2 29.4013 317.471 29.1669 317.739C28.9368 318.004 28.6364 318.223 28.2656 318.398C27.8991 318.572 27.4517 318.66 26.9233 318.66ZM27.7862 316.493C28.2251 316.493 28.5959 316.374 28.8984 316.135C29.2053 315.892 29.4396 315.553 29.6016 315.119C29.7678 314.684 29.8509 314.175 29.8509 313.591C29.8509 313.007 29.7699 312.5 29.608 312.07C29.446 311.639 29.2116 311.307 28.9048 311.072C28.598 310.838 28.2251 310.721 27.7862 310.721C27.3388 310.721 26.9616 310.842 26.6548 311.085C26.348 311.328 26.1158 311.665 25.9581 312.095C25.8004 312.526 25.7216 313.024 25.7216 313.591C25.7216 314.162 25.8004 314.667 25.9581 315.106C26.12 315.54 26.3523 315.881 26.6548 316.129C26.9616 316.371 27.3388 316.493 27.7862 316.493ZM40.8659 312.044V314.205H34.8958V312.044H40.8659ZM51.3233 305.409H54.0911V313.911C54.0911 314.865 53.8631 315.7 53.4071 316.416C52.9554 317.132 52.3226 317.69 51.5087 318.091C50.6948 318.487 49.7466 318.685 48.6642 318.685C47.5776 318.685 46.6273 318.487 45.8134 318.091C44.9995 317.69 44.3667 317.132 43.915 316.416C43.4632 315.7 43.2374 314.865 43.2374 313.911V305.409H46.0051V313.674C46.0051 314.173 46.1138 314.616 46.3311 315.004C46.5527 315.391 46.8638 315.696 47.2644 315.918C47.665 316.139 48.1316 316.25 48.6642 316.25C49.2012 316.25 49.6678 316.139 50.0641 315.918C50.4647 315.696 50.7736 315.391 50.9909 315.004C51.2125 314.616 51.3233 314.173 51.3233 313.674V305.409ZM64.4862 311.482L61.9933 311.635C61.9506 311.422 61.859 311.23 61.7184 311.06C61.5778 310.885 61.3924 310.746 61.1623 310.644C60.9364 310.538 60.6658 310.484 60.3505 310.484C59.9286 310.484 59.5728 310.574 59.283 310.753C58.9933 310.928 58.8484 311.162 58.8484 311.456C58.8484 311.69 58.9421 311.888 59.1296 312.05C59.3171 312.212 59.6388 312.342 60.0948 312.44L61.8718 312.798C62.8263 312.994 63.538 313.31 64.0067 313.744C64.4755 314.179 64.7099 314.75 64.7099 315.457C64.7099 316.101 64.5202 316.665 64.141 317.151C63.766 317.637 63.2504 318.016 62.5941 318.289C61.9421 318.558 61.19 318.692 60.3377 318.692C59.038 318.692 58.0025 318.421 57.2312 317.88C56.4641 317.335 56.0146 316.593 55.8825 315.656L58.5607 315.515C58.6417 315.911 58.8377 316.214 59.1488 316.423C59.4599 316.627 59.8583 316.729 60.3441 316.729C60.8214 316.729 61.2049 316.638 61.4947 316.455C61.7887 316.267 61.9379 316.026 61.9421 315.732C61.9379 315.485 61.8335 315.283 61.6289 315.125C61.4244 314.963 61.109 314.839 60.6829 314.754L58.9826 314.415C58.0238 314.224 57.31 313.891 56.8413 313.418C56.3768 312.945 56.1445 312.342 56.1445 311.609C56.1445 310.979 56.315 310.435 56.6559 309.979C57.0011 309.523 57.4847 309.172 58.1069 308.925C58.7333 308.678 59.4663 308.554 60.3058 308.554C61.5458 308.554 62.5217 308.816 63.2333 309.34C63.9492 309.864 64.3668 310.578 64.4862 311.482ZM70.899 318.692C69.889 318.692 69.0197 318.487 68.291 318.078C67.5666 317.665 67.0083 317.081 66.6163 316.327C66.2243 315.568 66.0282 314.671 66.0282 313.636C66.0282 312.626 66.2243 311.739 66.6163 310.977C67.0083 310.214 67.5602 309.619 68.2718 309.193C68.9877 308.767 69.8272 308.554 70.7903 308.554C71.438 308.554 72.041 308.658 72.5993 308.867C73.1618 309.072 73.6518 309.381 74.0694 309.794C74.4913 310.207 74.8194 310.727 75.0538 311.354C75.2882 311.976 75.4054 312.705 75.4054 313.54V314.288H67.1149V312.6H72.8422C72.8422 312.208 72.7569 311.861 72.5865 311.558C72.416 311.256 72.1795 311.019 71.877 310.849C71.5787 310.674 71.2314 310.587 70.8351 310.587C70.4217 310.587 70.0552 310.683 69.7356 310.874C69.4203 311.062 69.1731 311.315 68.9941 311.635C68.8152 311.95 68.7235 312.302 68.7193 312.69V314.294C68.7193 314.78 68.8088 315.2 68.9877 315.553C69.171 315.907 69.4288 316.18 69.7612 316.371C70.0936 316.563 70.4877 316.659 70.9437 316.659C71.2463 316.659 71.5233 316.616 71.7747 316.531C72.0261 316.446 72.2413 316.318 72.4203 316.148C72.5993 315.977 72.7356 315.768 72.8294 315.521L75.3478 315.688C75.22 316.293 74.9579 316.821 74.5616 317.273C74.1696 317.72 73.6625 318.07 73.0403 318.321C72.4224 318.568 71.7086 318.692 70.899 318.692ZM77.1824 318.5V308.682H79.8223V310.395H79.9245C80.1035 309.786 80.4039 309.325 80.8258 309.014C81.2477 308.699 81.7335 308.541 82.2832 308.541C82.4196 308.541 82.5666 308.55 82.7243 308.567C82.8819 308.584 83.0204 308.607 83.1397 308.637V311.053C83.0119 311.015 82.8351 310.981 82.6092 310.951C82.3833 310.921 82.1767 310.906 81.9892 310.906C81.5886 310.906 81.2306 310.994 80.9153 311.168C80.6042 311.339 80.3571 311.577 80.1738 311.884C79.9949 312.191 79.9054 312.545 79.9054 312.945V318.5H77.1824ZM88.7647 318.5V305.409H97.5858V307.691H91.5325V310.81H97.1319V313.092H91.5325V316.218H97.6113V318.5H88.7647ZM102.458 312.824V318.5H99.7351V308.682H102.33V310.414H102.445C102.663 309.843 103.027 309.391 103.538 309.059C104.05 308.722 104.67 308.554 105.398 308.554C106.08 308.554 106.675 308.703 107.182 309.001C107.689 309.3 108.083 309.726 108.364 310.28C108.646 310.83 108.786 311.486 108.786 312.249V318.5H106.063V312.734C106.067 312.134 105.914 311.665 105.603 311.328C105.292 310.987 104.864 310.817 104.318 310.817C103.952 310.817 103.628 310.896 103.347 311.053C103.07 311.211 102.852 311.441 102.695 311.744C102.541 312.042 102.462 312.402 102.458 312.824ZM113.732 318.685C113.106 318.685 112.547 318.577 112.057 318.359C111.567 318.138 111.18 317.812 110.894 317.381C110.613 316.947 110.472 316.406 110.472 315.758C110.472 315.212 110.572 314.754 110.773 314.384C110.973 314.013 111.246 313.714 111.591 313.489C111.936 313.263 112.328 313.092 112.767 312.977C113.21 312.862 113.675 312.781 114.16 312.734C114.731 312.675 115.192 312.619 115.541 312.568C115.89 312.513 116.144 312.432 116.302 312.325C116.459 312.219 116.538 312.061 116.538 311.852V311.814C116.538 311.409 116.41 311.096 116.155 310.874C115.903 310.653 115.545 310.542 115.081 310.542C114.591 310.542 114.201 310.651 113.911 310.868C113.621 311.081 113.43 311.349 113.336 311.673L110.817 311.469C110.945 310.872 111.197 310.357 111.572 309.922C111.947 309.483 112.43 309.146 113.023 308.912C113.619 308.673 114.309 308.554 115.094 308.554C115.639 308.554 116.161 308.618 116.66 308.746C117.162 308.874 117.608 309.072 117.996 309.34C118.388 309.609 118.697 309.954 118.922 310.376C119.148 310.793 119.261 311.294 119.261 311.878V318.5H116.679V317.138H116.602C116.444 317.445 116.233 317.716 115.969 317.95C115.705 318.18 115.388 318.362 115.017 318.494C114.646 318.621 114.218 318.685 113.732 318.685ZM114.512 316.806C114.912 316.806 115.266 316.727 115.573 316.57C115.88 316.408 116.121 316.19 116.295 315.918C116.47 315.645 116.557 315.336 116.557 314.991V313.949C116.472 314.004 116.355 314.055 116.206 314.102C116.061 314.145 115.897 314.185 115.714 314.224C115.53 314.258 115.347 314.29 115.164 314.32C114.981 314.345 114.814 314.369 114.665 314.39C114.346 314.437 114.067 314.511 113.828 314.614C113.589 314.716 113.404 314.854 113.272 315.029C113.14 315.2 113.074 315.413 113.074 315.668C113.074 316.039 113.208 316.322 113.476 316.518C113.749 316.71 114.094 316.806 114.512 316.806ZM121.425 318.5V305.409H124.148V310.331H124.231C124.35 310.067 124.523 309.798 124.749 309.526C124.979 309.249 125.277 309.018 125.644 308.835C126.014 308.648 126.475 308.554 127.024 308.554C127.74 308.554 128.401 308.741 129.006 309.116C129.611 309.487 130.095 310.048 130.457 310.798C130.819 311.543 131 312.479 131 313.604C131 314.699 130.823 315.624 130.47 316.378C130.12 317.128 129.643 317.697 129.038 318.085C128.437 318.468 127.764 318.66 127.018 318.66C126.49 318.66 126.04 318.572 125.669 318.398C125.303 318.223 125.002 318.004 124.768 317.739C124.534 317.471 124.355 317.2 124.231 316.928H124.11V318.5H121.425ZM124.09 313.591C124.09 314.175 124.171 314.684 124.333 315.119C124.495 315.553 124.73 315.892 125.036 316.135C125.343 316.374 125.716 316.493 126.155 316.493C126.598 316.493 126.973 316.371 127.28 316.129C127.587 315.881 127.819 315.54 127.977 315.106C128.139 314.667 128.22 314.162 128.22 313.591C128.22 313.024 128.141 312.526 127.983 312.095C127.825 311.665 127.593 311.328 127.286 311.085C126.98 310.842 126.602 310.721 126.155 310.721C125.712 310.721 125.337 310.838 125.03 311.072C124.727 311.307 124.495 311.639 124.333 312.07C124.171 312.5 124.09 313.007 124.09 313.591ZM135.54 305.409V318.5H132.817V305.409H135.54ZM142.196 318.692C141.186 318.692 140.317 318.487 139.588 318.078C138.863 317.665 138.305 317.081 137.913 316.327C137.521 315.568 137.325 314.671 137.325 313.636C137.325 312.626 137.521 311.739 137.913 310.977C138.305 310.214 138.857 309.619 139.569 309.193C140.285 308.767 141.124 308.554 142.087 308.554C142.735 308.554 143.338 308.658 143.896 308.867C144.459 309.072 144.949 309.381 145.366 309.794C145.788 310.207 146.116 310.727 146.351 311.354C146.585 311.976 146.702 312.705 146.702 313.54V314.288H138.412V312.6H144.139C144.139 312.208 144.054 311.861 143.883 311.558C143.713 311.256 143.476 311.019 143.174 310.849C142.876 310.674 142.528 310.587 142.132 310.587C141.719 310.587 141.352 310.683 141.032 310.874C140.717 311.062 140.47 311.315 140.291 311.635C140.112 311.95 140.02 312.302 140.016 312.69V314.294C140.016 314.78 140.106 315.2 140.285 315.553C140.468 315.907 140.726 316.18 141.058 316.371C141.39 316.563 141.785 316.659 142.241 316.659C142.543 316.659 142.82 316.616 143.072 316.531C143.323 316.446 143.538 316.318 143.717 316.148C143.896 315.977 144.032 315.768 144.126 315.521L146.645 315.688C146.517 316.293 146.255 316.821 145.858 317.273C145.466 317.72 144.959 318.07 144.337 318.321C143.719 318.568 143.006 318.692 142.196 318.692ZM148.479 318.5V308.682H151.074V310.414H151.189C151.394 309.839 151.735 309.385 152.212 309.053C152.689 308.72 153.26 308.554 153.925 308.554C154.599 308.554 155.172 308.722 155.645 309.059C156.118 309.391 156.433 309.843 156.591 310.414H156.693C156.893 309.852 157.256 309.402 157.78 309.065C158.308 308.724 158.932 308.554 159.653 308.554C160.569 308.554 161.312 308.846 161.883 309.43C162.459 310.009 162.746 310.832 162.746 311.897V318.5H160.03V312.434C160.03 311.888 159.885 311.479 159.595 311.207C159.305 310.934 158.943 310.798 158.508 310.798C158.014 310.798 157.628 310.955 157.351 311.271C157.074 311.582 156.936 311.993 156.936 312.504V318.5H154.296V312.376C154.296 311.895 154.157 311.511 153.881 311.226C153.608 310.94 153.248 310.798 152.8 310.798C152.498 310.798 152.225 310.874 151.982 311.028C151.743 311.177 151.554 311.388 151.413 311.661C151.273 311.929 151.202 312.244 151.202 312.607V318.5H148.479ZM169.372 318.692C168.362 318.692 167.492 318.487 166.764 318.078C166.039 317.665 165.481 317.081 165.089 316.327C164.697 315.568 164.501 314.671 164.501 313.636C164.501 312.626 164.697 311.739 165.089 310.977C165.481 310.214 166.033 309.619 166.744 309.193C167.46 308.767 168.3 308.554 169.263 308.554C169.911 308.554 170.514 308.658 171.072 308.867C171.634 309.072 172.124 309.381 172.542 309.794C172.964 310.207 173.292 310.727 173.526 311.354C173.761 311.976 173.878 312.705 173.878 313.54V314.288H165.588V312.6H171.315C171.315 312.208 171.23 311.861 171.059 311.558C170.889 311.256 170.652 311.019 170.35 310.849C170.051 310.674 169.704 310.587 169.308 310.587C168.894 310.587 168.528 310.683 168.208 310.874C167.893 311.062 167.646 311.315 167.467 311.635C167.288 311.95 167.196 312.302 167.192 312.69V314.294C167.192 314.78 167.281 315.2 167.46 315.553C167.644 315.907 167.901 316.18 168.234 316.371C168.566 316.563 168.96 316.659 169.416 316.659C169.719 316.659 169.996 316.616 170.247 316.531C170.499 316.446 170.714 316.318 170.893 316.148C171.072 315.977 171.208 315.768 171.302 315.521L173.82 315.688C173.693 316.293 173.431 316.821 173.034 317.273C172.642 317.72 172.135 318.07 171.513 318.321C170.895 318.568 170.181 318.692 169.372 318.692ZM178.378 312.824V318.5H175.655V308.682H178.25V310.414H178.365C178.583 309.843 178.947 309.391 179.458 309.059C179.97 308.722 180.59 308.554 181.318 308.554C182 308.554 182.595 308.703 183.102 309.001C183.609 309.3 184.003 309.726 184.284 310.28C184.566 310.83 184.706 311.486 184.706 312.249V318.5H181.983V312.734C181.987 312.134 181.834 311.665 181.523 311.328C181.212 310.987 180.784 310.817 180.238 310.817C179.872 310.817 179.548 310.896 179.267 311.053C178.99 311.211 178.772 311.441 178.615 311.744C178.461 312.042 178.382 312.402 178.378 312.824ZM192.075 308.682V310.727H186.162V308.682H192.075ZM187.504 306.33H190.227V315.483C190.227 315.734 190.266 315.93 190.342 316.071C190.419 316.207 190.526 316.303 190.662 316.359C190.803 316.414 190.964 316.442 191.148 316.442C191.276 316.442 191.403 316.431 191.531 316.41C191.659 316.384 191.757 316.365 191.825 316.352L192.254 318.379C192.117 318.421 191.925 318.47 191.678 318.526C191.431 318.585 191.131 318.621 190.777 318.634C190.121 318.66 189.545 318.572 189.051 318.372C188.561 318.172 188.18 317.861 187.907 317.439C187.634 317.017 187.5 316.484 187.504 315.841V306.33ZM5.10085 340.692C4.19744 340.692 3.41761 340.53 2.76136 340.206C2.10511 339.882 1.60014 339.443 1.24645 338.889C0.897017 338.331 0.722301 337.709 0.722301 337.023C0.722301 336.511 0.824574 336.058 1.02912 335.661C1.23366 335.265 1.51918 334.901 1.88565 334.568C2.25213 334.232 2.67827 333.897 3.16406 333.565L5.7017 331.896C6.02983 331.687 6.2706 331.468 6.42401 331.238C6.57742 331.004 6.65412 330.75 6.65412 330.477C6.65412 330.217 6.54972 329.977 6.34091 329.755C6.1321 329.533 5.83594 329.425 5.45241 329.429C5.19673 329.429 4.97514 329.487 4.78764 329.602C4.60014 329.712 4.45313 329.859 4.34659 330.043C4.24432 330.222 4.19318 330.422 4.19318 330.643C4.19318 330.916 4.26989 331.193 4.4233 331.474C4.5767 331.756 4.78125 332.054 5.03693 332.369C5.29261 332.68 5.57173 333.017 5.87429 333.379L12.081 340.5H9.2429L4.06534 334.734C3.72443 334.347 3.38352 333.942 3.04261 333.52C2.70597 333.094 2.42472 332.642 2.19886 332.165C1.97301 331.683 1.86009 331.161 1.86009 330.599C1.86009 329.964 2.0071 329.393 2.30114 328.886C2.59943 328.379 3.01705 327.978 3.55398 327.684C4.09091 327.386 4.71733 327.237 5.43324 327.237C6.1321 327.237 6.73509 327.379 7.24219 327.665C7.75355 327.946 8.1456 328.321 8.41832 328.79C8.69531 329.254 8.83381 329.766 8.83381 330.324C8.83381 330.942 8.6804 331.502 8.37358 332.005C8.07102 332.504 7.64489 332.951 7.09517 333.347L4.4233 335.271C4.06108 335.536 3.79261 335.806 3.6179 336.083C3.44744 336.356 3.36222 336.618 3.36222 336.869C3.36222 337.18 3.43892 337.46 3.59233 337.707C3.74574 337.954 3.96307 338.15 4.24432 338.295C4.52557 338.435 4.85582 338.506 5.23509 338.506C5.69531 338.506 6.14915 338.401 6.59659 338.192C7.0483 337.979 7.45739 337.679 7.82386 337.291C8.1946 336.899 8.49077 336.435 8.71236 335.898C8.93395 335.361 9.04474 334.766 9.04474 334.114H11.3011C11.3011 334.915 11.2138 335.638 11.0391 336.281C10.8643 336.92 10.6214 337.479 10.3104 337.956C9.99929 338.429 9.64347 338.817 9.2429 339.119C9.11506 339.2 8.99148 339.277 8.87216 339.349C8.75284 339.422 8.62926 339.499 8.50142 339.58C8.01563 339.972 7.4723 340.255 6.87145 340.43C6.27486 340.604 5.68466 340.692 5.10085 340.692ZM19.6891 340.5H16.7232L21.2424 327.409H24.8091L29.3219 340.5H26.356L23.0769 330.401H22.9746L19.6891 340.5ZM19.5037 335.354H26.5094V337.515H19.5037V335.354ZM34.0073 340.66C33.2615 340.66 32.5861 340.468 31.981 340.085C31.3801 339.697 30.9029 339.128 30.5492 338.378C30.1998 337.624 30.025 336.699 30.025 335.604C30.025 334.479 30.2061 333.543 30.5684 332.798C30.9306 332.048 31.4121 331.487 32.013 331.116C32.6181 330.741 33.2807 330.554 34.0009 330.554C34.5506 330.554 35.0087 330.648 35.3752 330.835C35.7459 331.018 36.0442 331.249 36.2701 331.526C36.5002 331.798 36.6749 332.067 36.7942 332.331H36.8773V327.409H39.5939V340.5H36.9093V338.928H36.7942C36.6664 339.2 36.4853 339.471 36.2509 339.739C36.0208 340.004 35.7203 340.223 35.3496 340.398C34.9831 340.572 34.5357 340.66 34.0073 340.66ZM34.8702 338.493C35.3091 338.493 35.6799 338.374 35.9824 338.135C36.2892 337.892 36.5236 337.553 36.6855 337.119C36.8517 336.684 36.9348 336.175 36.9348 335.591C36.9348 335.007 36.8539 334.5 36.6919 334.07C36.53 333.639 36.2956 333.307 35.9888 333.072C35.682 332.838 35.3091 332.721 34.8702 332.721C34.4228 332.721 34.0456 332.842 33.7388 333.085C33.432 333.328 33.1998 333.665 33.0421 334.095C32.8844 334.526 32.8056 335.024 32.8056 335.591C32.8056 336.162 32.8844 336.667 33.0421 337.106C33.204 337.54 33.4363 337.881 33.7388 338.129C34.0456 338.371 34.4228 338.493 34.8702 338.493ZM46.2688 340.692C45.2759 340.692 44.4173 340.481 43.6928 340.059C42.9727 339.633 42.4165 339.04 42.0245 338.282C41.6325 337.519 41.4364 336.635 41.4364 335.629C41.4364 334.615 41.6325 333.729 42.0245 332.97C42.4165 332.207 42.9727 331.615 43.6928 331.193C44.4173 330.767 45.2759 330.554 46.2688 330.554C47.2617 330.554 48.1183 330.767 48.8384 331.193C49.5629 331.615 50.1211 332.207 50.5131 332.97C50.9052 333.729 51.1012 334.615 51.1012 335.629C51.1012 336.635 50.9052 337.519 50.5131 338.282C50.1211 339.04 49.5629 339.633 48.8384 340.059C48.1183 340.481 47.2617 340.692 46.2688 340.692ZM46.2816 338.582C46.7333 338.582 47.1104 338.455 47.413 338.199C47.7156 337.939 47.9435 337.585 48.0969 337.138C48.2546 336.69 48.3335 336.181 48.3335 335.61C48.3335 335.039 48.2546 334.53 48.0969 334.082C47.9435 333.635 47.7156 333.281 47.413 333.021C47.1104 332.761 46.7333 332.631 46.2816 332.631C45.8256 332.631 45.4421 332.761 45.131 333.021C44.8242 333.281 44.592 333.635 44.4343 334.082C44.2809 334.53 44.2042 335.039 44.2042 335.61C44.2042 336.181 44.2809 336.69 44.4343 337.138C44.592 337.585 44.8242 337.939 45.131 338.199C45.4421 338.455 45.8256 338.582 46.2816 338.582ZM52.8718 344.182V330.682H55.5565V332.331H55.6779C55.7972 332.067 55.9698 331.798 56.1957 331.526C56.4258 331.249 56.7241 331.018 57.0906 330.835C57.4613 330.648 57.9215 330.554 58.4712 330.554C59.1871 330.554 59.8477 330.741 60.4528 331.116C61.0579 331.487 61.5415 332.048 61.9038 332.798C62.266 333.543 62.4471 334.479 62.4471 335.604C62.4471 336.699 62.2702 337.624 61.9165 338.378C61.5671 339.128 61.0898 339.697 60.4847 340.085C59.8839 340.468 59.2106 340.66 58.4648 340.66C57.9364 340.66 57.4869 340.572 57.1161 340.398C56.7496 340.223 56.4492 340.004 56.2148 339.739C55.9805 339.471 55.8015 339.2 55.6779 338.928H55.5948V344.182H52.8718ZM55.5373 335.591C55.5373 336.175 55.6183 336.684 55.7802 337.119C55.9421 337.553 56.1765 337.892 56.4833 338.135C56.7901 338.374 57.163 338.493 57.6019 338.493C58.0451 338.493 58.4201 338.371 58.7269 338.129C59.0337 337.881 59.266 337.54 59.4237 337.106C59.5856 336.667 59.6665 336.162 59.6665 335.591C59.6665 335.024 59.5877 334.526 59.43 334.095C59.2724 333.665 59.0401 333.328 58.7333 333.085C58.4265 332.842 58.0494 332.721 57.6019 332.721C57.1587 332.721 56.7837 332.838 56.4769 333.072C56.1744 333.307 55.9421 333.639 55.7802 334.07C55.6183 334.5 55.5373 335.007 55.5373 335.591ZM69.4847 330.682V332.727H63.5721V330.682H69.4847ZM64.9144 328.33H67.6374V337.483C67.6374 337.734 67.6758 337.93 67.7525 338.071C67.8292 338.207 67.9357 338.303 68.0721 338.359C68.2127 338.414 68.3746 338.442 68.5579 338.442C68.6857 338.442 68.8136 338.431 68.9414 338.41C69.0692 338.384 69.1673 338.365 69.2354 338.352L69.6637 340.379C69.5273 340.421 69.3356 340.47 69.0884 340.526C68.8413 340.585 68.5408 340.621 68.1871 340.634C67.5309 340.66 66.9556 340.572 66.4613 340.372C65.9712 340.172 65.5898 339.861 65.3171 339.439C65.0444 339.017 64.9102 338.484 64.9144 337.841V328.33ZM71.2585 340.5V330.682H73.9815V340.5H71.2585ZM72.6264 329.416C72.2216 329.416 71.8743 329.282 71.5845 329.013C71.299 328.741 71.1562 328.415 71.1562 328.036C71.1562 327.661 71.299 327.339 71.5845 327.07C71.8743 326.798 72.2216 326.661 72.6264 326.661C73.0313 326.661 73.3764 326.798 73.6619 327.07C73.9517 327.339 74.0966 327.661 74.0966 328.036C74.0966 328.415 73.9517 328.741 73.6619 329.013C73.3764 329.282 73.0313 329.416 72.6264 329.416ZM80.5989 340.692C79.606 340.692 78.7473 340.481 78.0229 340.059C77.3027 339.633 76.7466 339.04 76.3546 338.282C75.9625 337.519 75.7665 336.635 75.7665 335.629C75.7665 334.615 75.9625 333.729 76.3546 332.97C76.7466 332.207 77.3027 331.615 78.0229 331.193C78.7473 330.767 79.606 330.554 80.5989 330.554C81.5918 330.554 82.4483 330.767 83.1685 331.193C83.8929 331.615 84.4512 332.207 84.8432 332.97C85.2353 333.729 85.4313 334.615 85.4313 335.629C85.4313 336.635 85.2353 337.519 84.8432 338.282C84.4512 339.04 83.8929 339.633 83.1685 340.059C82.4483 340.481 81.5918 340.692 80.5989 340.692ZM80.6117 338.582C81.0634 338.582 81.4405 338.455 81.7431 338.199C82.0456 337.939 82.2736 337.585 82.427 337.138C82.5847 336.69 82.6635 336.181 82.6635 335.61C82.6635 335.039 82.5847 334.53 82.427 334.082C82.2736 333.635 82.0456 333.281 81.7431 333.021C81.4405 332.761 81.0634 332.631 80.6117 332.631C80.1557 332.631 79.7722 332.761 79.4611 333.021C79.1543 333.281 78.9221 333.635 78.7644 334.082C78.611 334.53 78.5343 335.039 78.5343 335.61C78.5343 336.181 78.611 336.69 78.7644 337.138C78.9221 337.585 79.1543 337.939 79.4611 338.199C79.7722 338.455 80.1557 338.582 80.6117 338.582ZM89.9249 334.824V340.5H87.2019V330.682H89.7971V332.414H89.9121C90.1294 331.843 90.4938 331.391 91.0051 331.059C91.5165 330.722 92.1365 330.554 92.8652 330.554C93.5471 330.554 94.1415 330.703 94.6486 331.001C95.1557 331.3 95.5499 331.726 95.8311 332.28C96.1124 332.83 96.253 333.486 96.253 334.249V340.5H93.53V334.734C93.5343 334.134 93.3809 333.665 93.0698 333.328C92.7587 332.987 92.3304 332.817 91.785 332.817C91.4185 332.817 91.0946 332.896 90.8134 333.053C90.5364 333.211 90.3191 333.441 90.1614 333.744C90.008 334.042 89.9292 334.402 89.9249 334.824Z" fill="#1F1F28"/>
<rect x="262" y="198.5" width="76" height="76" rx="20" fill="url(#paint16_linear_131_713)"/>
<path d="M310.062 241.117L305.351 245.827C305.047 246.131 304.727 246.412 304.391 246.67L306.602 248.881C306.71 248.989 306.88 248.989 306.988 248.881L312.214 243.655C312.286 243.583 312.296 243.504 312.296 243.462C312.296 243.42 312.286 243.338 312.214 243.269L310.062 241.117Z" fill="url(#paint17_linear_131_713)"/>
<path d="M312.6 234.387C311.953 233.744 310.901 233.744 310.254 234.387L309.601 235.044C309.474 235.171 309.307 235.233 309.137 235.233C308.971 235.233 308.804 235.171 308.677 235.044C308.422 234.789 308.422 234.374 308.677 234.119L310.31 232.486C310.957 231.839 310.957 230.787 310.31 230.141C309.996 229.827 309.581 229.654 309.137 229.654C308.696 229.654 308.278 229.827 307.968 230.141L307.311 230.794C307.184 230.921 307.017 230.987 306.851 230.987C306.684 230.987 306.517 230.921 306.39 230.794C306.263 230.666 306.2 230.5 306.2 230.33C306.2 230.163 306.263 229.997 306.39 229.869L307.043 229.216C307.357 228.902 307.527 228.488 307.527 228.043C307.527 227.602 307.357 227.184 307.043 226.871C306.73 226.557 306.312 226.387 305.871 226.387C305.426 226.387 305.011 226.557 304.698 226.871L304.044 227.524C303.992 227.576 303.93 227.615 303.868 227.648C303.901 228.448 303.617 229.259 303.009 229.869C302.447 230.428 301.702 230.738 300.912 230.738C300.752 230.738 300.595 230.722 300.441 230.696C300.445 230.758 300.448 230.82 300.448 230.882C300.448 231.676 300.141 232.421 299.582 232.979C299.004 233.557 298.243 233.845 297.485 233.845C297.096 233.845 296.708 233.77 296.345 233.62C296.28 234.302 295.982 234.933 295.489 235.426C294.93 235.985 294.186 236.295 293.395 236.295C293.385 236.295 293.379 236.292 293.372 236.292C293.421 236.507 293.451 236.729 293.451 236.958C293.451 237.749 293.14 238.493 292.582 239.055C292.004 239.63 291.246 239.921 290.485 239.921C290.266 239.921 290.047 239.895 289.834 239.846C289.88 240.248 289.955 240.649 290.06 241.048C290.122 241.273 290.057 241.512 289.89 241.678L287.375 244.194C287.306 244.262 287.296 244.344 287.296 244.386C287.296 244.429 287.306 244.507 287.375 244.579L292.605 249.806C292.709 249.914 292.882 249.914 292.987 249.806L295.505 247.291C295.669 247.127 295.91 247.062 296.136 247.121C299.092 247.911 302.271 247.062 304.427 244.906L312.6 236.733C313.247 236.086 313.247 235.034 312.6 234.387Z" fill="url(#paint18_linear_131_713)"/>
<path d="M303.46 226.263L303.773 225.946C304.42 225.303 304.42 224.251 303.773 223.604C303.46 223.29 303.045 223.117 302.601 223.117C302.16 223.117 301.741 223.29 301.428 223.604L301.183 223.852L303.009 225.678C303.185 225.855 303.336 226.054 303.46 226.263Z" fill="url(#paint19_linear_131_713)"/>
<path d="M289.312 238.131C289.959 238.778 291.01 238.778 291.657 238.131C291.971 237.817 292.144 237.399 292.144 236.958C292.144 236.514 291.971 236.099 291.657 235.785L289.743 233.871C289.429 233.557 289.015 233.384 288.57 233.384C288.129 233.384 287.711 233.557 287.398 233.871C287.084 234.185 286.914 234.6 286.914 235.044C286.914 235.485 287.084 235.903 287.398 236.217L289.312 238.131Z" fill="url(#paint20_linear_131_713)"/>
<path d="M290.667 232.947L292.222 234.502C292.536 234.815 292.951 234.988 293.395 234.988C293.836 234.988 294.254 234.815 294.565 234.502C294.878 234.188 295.051 233.773 295.051 233.329C295.051 232.888 294.878 232.47 294.568 232.156L291.625 229.216C291.301 228.893 290.877 228.729 290.452 228.729C290.027 228.729 289.603 228.893 289.279 229.216C288.632 229.863 288.632 230.915 289.279 231.562L290.667 232.947Z" fill="url(#paint21_linear_131_713)"/>
<path d="M296.312 232.055C296.959 232.702 298.011 232.702 298.658 232.055C298.971 231.741 299.141 231.326 299.141 230.882C299.141 230.441 298.971 230.023 298.658 229.709L294.895 225.946C294.571 225.623 294.146 225.463 293.722 225.463C293.297 225.463 292.872 225.623 292.549 225.946C291.902 226.593 291.902 227.645 292.549 228.292L296.312 232.055Z" fill="url(#paint22_linear_131_713)"/>
<path d="M299.739 228.945C300.053 229.259 300.467 229.432 300.912 229.432C301.353 229.432 301.771 229.259 302.084 228.945C302.731 228.298 302.731 227.246 302.084 226.599L299.141 223.659C298.818 223.336 298.393 223.173 297.968 223.173C297.547 223.173 297.122 223.336 296.799 223.659C296.485 223.973 296.312 224.388 296.312 224.832C296.312 225.273 296.485 225.691 296.799 226.005L299.739 228.945Z" fill="url(#paint23_linear_131_713)"/>
<path d="M265.906 305.409V318.5H263.138V305.409H265.906ZM270.855 312.824V318.5H268.132V308.682H270.727V310.414H270.842C271.059 309.843 271.423 309.391 271.935 309.059C272.446 308.722 273.066 308.554 273.795 308.554C274.477 308.554 275.071 308.703 275.578 309.001C276.085 309.3 276.48 309.726 276.761 310.28C277.042 310.83 277.183 311.486 277.183 312.249V318.5H274.46V312.734C274.464 312.134 274.311 311.665 273.999 311.328C273.688 310.987 273.26 310.817 272.715 310.817C272.348 310.817 272.024 310.896 271.743 311.053C271.466 311.211 271.249 311.441 271.091 311.744C270.938 312.042 270.859 312.402 270.855 312.824ZM285.446 312.044V314.205H279.476V312.044H285.446ZM287.817 318.5V305.409H292.982C293.975 305.409 294.821 305.599 295.52 305.978C296.219 306.353 296.751 306.875 297.118 307.544C297.489 308.209 297.674 308.976 297.674 309.845C297.674 310.714 297.487 311.482 297.112 312.146C296.737 312.811 296.193 313.329 295.482 313.7C294.774 314.07 293.918 314.256 292.912 314.256H289.62V312.038H292.464C292.997 312.038 293.436 311.946 293.781 311.763C294.131 311.575 294.391 311.317 294.561 310.989C294.736 310.657 294.823 310.276 294.823 309.845C294.823 309.411 294.736 309.031 294.561 308.707C294.391 308.379 294.131 308.126 293.781 307.947C293.432 307.763 292.989 307.672 292.452 307.672H290.585V318.5H287.817ZM303.737 318.692C302.727 318.692 301.858 318.487 301.129 318.078C300.404 317.665 299.846 317.081 299.454 316.327C299.062 315.568 298.866 314.671 298.866 313.636C298.866 312.626 299.062 311.739 299.454 310.977C299.846 310.214 300.398 309.619 301.11 309.193C301.826 308.767 302.665 308.554 303.628 308.554C304.276 308.554 304.879 308.658 305.437 308.867C306 309.072 306.49 309.381 306.907 309.794C307.329 310.207 307.657 310.727 307.892 311.354C308.126 311.976 308.243 312.705 308.243 313.54V314.288H299.953V312.6H305.68C305.68 312.208 305.595 311.861 305.424 311.558C305.254 311.256 305.017 311.019 304.715 310.849C304.417 310.674 304.069 310.587 303.673 310.587C303.26 310.587 302.893 310.683 302.574 310.874C302.258 311.062 302.011 311.315 301.832 311.635C301.653 311.95 301.561 312.302 301.557 312.69V314.294C301.557 314.78 301.647 315.2 301.826 315.553C302.009 315.907 302.267 316.18 302.599 316.371C302.931 316.563 303.326 316.659 303.782 316.659C304.084 316.659 304.361 316.616 304.613 316.531C304.864 316.446 305.079 316.318 305.258 316.148C305.437 315.977 305.574 315.768 305.667 315.521L308.186 315.688C308.058 316.293 307.796 316.821 307.4 317.273C307.007 317.72 306.5 318.07 305.878 318.321C305.26 318.568 304.547 318.692 303.737 318.692ZM310.02 318.5V308.682H312.66V310.395H312.762C312.941 309.786 313.242 309.325 313.664 309.014C314.086 308.699 314.571 308.541 315.121 308.541C315.257 308.541 315.404 308.55 315.562 308.567C315.72 308.584 315.858 308.607 315.978 308.637V311.053C315.85 311.015 315.673 310.981 315.447 310.951C315.221 310.921 315.015 310.906 314.827 310.906C314.426 310.906 314.069 310.994 313.753 311.168C313.442 311.339 313.195 311.577 313.012 311.884C312.833 312.191 312.743 312.545 312.743 312.945V318.5H310.02ZM325.555 311.482L323.062 311.635C323.019 311.422 322.927 311.23 322.787 311.06C322.646 310.885 322.461 310.746 322.231 310.644C322.005 310.538 321.734 310.484 321.419 310.484C320.997 310.484 320.641 310.574 320.351 310.753C320.062 310.928 319.917 311.162 319.917 311.456C319.917 311.69 320.01 311.888 320.198 312.05C320.385 312.212 320.707 312.342 321.163 312.44L322.94 312.798C323.895 312.994 324.606 313.31 325.075 313.744C325.544 314.179 325.778 314.75 325.778 315.457C325.778 316.101 325.589 316.665 325.209 317.151C324.834 317.637 324.319 318.016 323.662 318.289C323.01 318.558 322.258 318.692 321.406 318.692C320.106 318.692 319.071 318.421 318.3 317.88C317.532 317.335 317.083 316.593 316.951 315.656L319.629 315.515C319.71 315.911 319.906 316.214 320.217 316.423C320.528 316.627 320.927 316.729 321.412 316.729C321.89 316.729 322.273 316.638 322.563 316.455C322.857 316.267 323.006 316.026 323.01 315.732C323.006 315.485 322.902 315.283 322.697 315.125C322.493 314.963 322.177 314.839 321.751 314.754L320.051 314.415C319.092 314.224 318.378 313.891 317.91 313.418C317.445 312.945 317.213 312.342 317.213 311.609C317.213 310.979 317.383 310.435 317.724 309.979C318.069 309.523 318.553 309.172 319.175 308.925C319.802 308.678 320.535 308.554 321.374 308.554C322.614 308.554 323.59 308.816 324.302 309.34C325.018 309.864 325.435 310.578 325.555 311.482ZM331.929 318.692C330.936 318.692 330.077 318.481 329.353 318.059C328.633 317.633 328.077 317.04 327.685 316.282C327.293 315.519 327.097 314.635 327.097 313.629C327.097 312.615 327.293 311.729 327.685 310.97C328.077 310.207 328.633 309.615 329.353 309.193C330.077 308.767 330.936 308.554 331.929 308.554C332.922 308.554 333.778 308.767 334.499 309.193C335.223 309.615 335.781 310.207 336.173 310.97C336.565 311.729 336.761 312.615 336.761 313.629C336.761 314.635 336.565 315.519 336.173 316.282C335.781 317.04 335.223 317.633 334.499 318.059C333.778 318.481 332.922 318.692 331.929 318.692ZM331.942 316.582C332.393 316.582 332.771 316.455 333.073 316.199C333.376 315.939 333.604 315.585 333.757 315.138C333.915 314.69 333.994 314.181 333.994 313.61C333.994 313.039 333.915 312.53 333.757 312.082C333.604 311.635 333.376 311.281 333.073 311.021C332.771 310.761 332.393 310.631 331.942 310.631C331.486 310.631 331.102 310.761 330.791 311.021C330.484 311.281 330.252 311.635 330.094 312.082C329.941 312.53 329.864 313.039 329.864 313.61C329.864 314.181 329.941 314.69 330.094 315.138C330.252 315.585 330.484 315.939 330.791 316.199C331.102 316.455 331.486 316.582 331.942 316.582ZM341.255 312.824V318.5H338.532V308.682H341.127V310.414H341.242C341.46 309.843 341.824 309.391 342.335 309.059C342.847 308.722 343.467 308.554 344.195 308.554C344.877 308.554 345.472 308.703 345.979 309.001C346.486 309.3 346.88 309.726 347.161 310.28C347.442 310.83 347.583 311.486 347.583 312.249V318.5H344.86V312.734C344.864 312.134 344.711 311.665 344.4 311.328C344.089 310.987 343.661 310.817 343.115 310.817C342.749 310.817 342.425 310.896 342.143 311.053C341.866 311.211 341.649 311.441 341.491 311.744C341.338 312.042 341.259 312.402 341.255 312.824ZM353.946 318.5V305.409H356.714V311.181H356.887L361.598 305.409H364.915L360.057 311.271L364.973 318.5H361.662L358.076 313.118L356.714 314.78V318.5H353.946ZM369.028 312.824V318.5H366.305V308.682H368.901V310.414H369.016C369.233 309.843 369.597 309.391 370.109 309.059C370.62 308.722 371.24 308.554 371.969 308.554C372.651 308.554 373.245 308.703 373.752 309.001C374.259 309.3 374.653 309.726 374.935 310.28C375.216 310.83 375.357 311.486 375.357 312.249V318.5H372.634V312.734C372.638 312.134 372.484 311.665 372.173 311.328C371.862 310.987 371.434 310.817 370.888 310.817C370.522 310.817 370.198 310.896 369.917 311.053C369.64 311.211 369.423 311.441 369.265 311.744C369.112 312.042 369.033 312.402 369.028 312.824ZM381.939 318.692C380.946 318.692 380.087 318.481 379.363 318.059C378.643 317.633 378.086 317.04 377.694 316.282C377.302 315.519 377.106 314.635 377.106 313.629C377.106 312.615 377.302 311.729 377.694 310.97C378.086 310.207 378.643 309.615 379.363 309.193C380.087 308.767 380.946 308.554 381.939 308.554C382.932 308.554 383.788 308.767 384.508 309.193C385.233 309.615 385.791 310.207 386.183 310.97C386.575 311.729 386.771 312.615 386.771 313.629C386.771 314.635 386.575 315.519 386.183 316.282C385.791 317.04 385.233 317.633 384.508 318.059C383.788 318.481 382.932 318.692 381.939 318.692ZM381.952 316.582C382.403 316.582 382.78 316.455 383.083 316.199C383.385 315.939 383.613 315.585 383.767 315.138C383.925 314.69 384.003 314.181 384.003 313.61C384.003 313.039 383.925 312.53 383.767 312.082C383.613 311.635 383.385 311.281 383.083 311.021C382.78 310.761 382.403 310.631 381.952 310.631C381.496 310.631 381.112 310.761 380.801 311.021C380.494 311.281 380.262 311.635 380.104 312.082C379.951 312.53 379.874 313.039 379.874 313.61C379.874 314.181 379.951 314.69 380.104 315.138C380.262 315.585 380.494 315.939 380.801 316.199C381.112 316.455 381.496 316.582 381.952 316.582ZM390.232 318.5L387.561 308.682H390.316L391.837 315.278H391.926L393.512 308.682H396.215L397.826 315.24H397.909L399.405 308.682H402.154L399.488 318.5H396.605L394.918 312.325H394.796L393.109 318.5H390.232ZM406.329 305.409V318.5H403.606V305.409H406.329ZM412.985 318.692C411.975 318.692 411.106 318.487 410.377 318.078C409.653 317.665 409.094 317.081 408.702 316.327C408.31 315.568 408.114 314.671 408.114 313.636C408.114 312.626 408.31 311.739 408.702 310.977C409.094 310.214 409.646 309.619 410.358 309.193C411.074 308.767 411.913 308.554 412.876 308.554C413.524 308.554 414.127 308.658 414.685 308.867C415.248 309.072 415.738 309.381 416.155 309.794C416.577 310.207 416.905 310.727 417.14 311.354C417.374 311.976 417.491 312.705 417.491 313.54V314.288H409.201V312.6H414.928C414.928 312.208 414.843 311.861 414.672 311.558C414.502 311.256 414.265 311.019 413.963 310.849C413.665 310.674 413.317 310.587 412.921 310.587C412.508 310.587 412.141 310.683 411.822 310.874C411.506 311.062 411.259 311.315 411.08 311.635C410.901 311.95 410.809 312.302 410.805 312.69V314.294C410.805 314.78 410.895 315.2 411.074 315.553C411.257 315.907 411.515 316.18 411.847 316.371C412.18 316.563 412.574 316.659 413.03 316.659C413.332 316.659 413.609 316.616 413.861 316.531C414.112 316.446 414.327 316.318 414.506 316.148C414.685 315.977 414.822 315.768 414.915 315.521L417.434 315.688C417.306 316.293 417.044 316.821 416.648 317.273C416.256 317.72 415.748 318.07 415.126 318.321C414.508 318.568 413.795 318.692 412.985 318.692ZM422.886 318.66C422.14 318.66 421.465 318.468 420.86 318.085C420.259 317.697 419.782 317.128 419.428 316.378C419.079 315.624 418.904 314.699 418.904 313.604C418.904 312.479 419.085 311.543 419.447 310.798C419.809 310.048 420.291 309.487 420.892 309.116C421.497 308.741 422.16 308.554 422.88 308.554C423.43 308.554 423.888 308.648 424.254 308.835C424.625 309.018 424.923 309.249 425.149 309.526C425.379 309.798 425.554 310.067 425.673 310.331H425.756V305.409H428.473V318.5H425.788V316.928H425.673C425.545 317.2 425.364 317.471 425.13 317.739C424.9 318.004 424.599 318.223 424.229 318.398C423.862 318.572 423.415 318.66 422.886 318.66ZM423.749 316.493C424.188 316.493 424.559 316.374 424.861 316.135C425.168 315.892 425.403 315.553 425.564 315.119C425.731 314.684 425.814 314.175 425.814 313.591C425.814 313.007 425.733 312.5 425.571 312.07C425.409 311.639 425.175 311.307 424.868 311.072C424.561 310.838 424.188 310.721 423.749 310.721C423.302 310.721 422.925 310.842 422.618 311.085C422.311 311.328 422.079 311.665 421.921 312.095C421.763 312.526 421.684 313.024 421.684 313.591C421.684 314.162 421.763 314.667 421.921 315.106C422.083 315.54 422.315 315.881 422.618 316.129C422.925 316.371 423.302 316.493 423.749 316.493ZM435.135 322.386C434.253 322.386 433.496 322.265 432.866 322.022C432.239 321.783 431.741 321.457 431.37 321.044C430.999 320.631 430.759 320.166 430.648 319.651L433.166 319.312C433.243 319.508 433.364 319.691 433.531 319.862C433.697 320.032 433.916 320.168 434.189 320.271C434.466 320.377 434.803 320.43 435.199 320.43C435.791 320.43 436.279 320.286 436.663 319.996C437.05 319.71 437.244 319.231 437.244 318.558V316.761H437.129C437.01 317.034 436.831 317.292 436.592 317.535C436.354 317.778 436.047 317.976 435.672 318.129C435.297 318.283 434.849 318.359 434.33 318.359C433.592 318.359 432.921 318.189 432.316 317.848C431.715 317.503 431.236 316.977 430.878 316.269C430.524 315.558 430.347 314.658 430.347 313.572C430.347 312.46 430.528 311.531 430.891 310.785C431.253 310.039 431.734 309.481 432.335 309.11C432.94 308.739 433.603 308.554 434.323 308.554C434.873 308.554 435.333 308.648 435.704 308.835C436.075 309.018 436.373 309.249 436.599 309.526C436.829 309.798 437.006 310.067 437.129 310.331H437.232V308.682H439.935V318.596C439.935 319.431 439.731 320.13 439.322 320.692C438.913 321.255 438.346 321.677 437.621 321.958C436.901 322.244 436.072 322.386 435.135 322.386ZM435.192 316.314C435.631 316.314 436.002 316.205 436.305 315.988C436.612 315.766 436.846 315.451 437.008 315.042C437.174 314.629 437.257 314.134 437.257 313.559C437.257 312.984 437.176 312.485 437.014 312.063C436.852 311.637 436.618 311.307 436.311 311.072C436.004 310.838 435.631 310.721 435.192 310.721C434.745 310.721 434.368 310.842 434.061 311.085C433.754 311.324 433.522 311.656 433.364 312.082C433.207 312.509 433.128 313.001 433.128 313.559C433.128 314.126 433.207 314.616 433.364 315.029C433.526 315.438 433.759 315.756 434.061 315.982C434.368 316.203 434.745 316.314 435.192 316.314ZM446.577 318.692C445.567 318.692 444.697 318.487 443.969 318.078C443.244 317.665 442.686 317.081 442.294 316.327C441.902 315.568 441.706 314.671 441.706 313.636C441.706 312.626 441.902 311.739 442.294 310.977C442.686 310.214 443.238 309.619 443.95 309.193C444.665 308.767 445.505 308.554 446.468 308.554C447.116 308.554 447.719 308.658 448.277 308.867C448.839 309.072 449.33 309.381 449.747 309.794C450.169 310.207 450.497 310.727 450.732 311.354C450.966 311.976 451.083 312.705 451.083 313.54V314.288H442.793V312.6H448.52C448.52 312.208 448.435 311.861 448.264 311.558C448.094 311.256 447.857 311.019 447.555 310.849C447.256 310.674 446.909 310.587 446.513 310.587C446.099 310.587 445.733 310.683 445.413 310.874C445.098 311.062 444.851 311.315 444.672 311.635C444.493 311.95 444.401 312.302 444.397 312.69V314.294C444.397 314.78 444.487 315.2 444.665 315.553C444.849 315.907 445.107 316.18 445.439 316.371C445.771 316.563 446.165 316.659 446.621 316.659C446.924 316.659 447.201 316.616 447.452 316.531C447.704 316.446 447.919 316.318 448.098 316.148C448.277 315.977 448.413 315.768 448.507 315.521L451.026 315.688C450.898 316.293 450.636 316.821 450.239 317.273C449.847 317.72 449.34 318.07 448.718 318.321C448.1 318.568 447.386 318.692 446.577 318.692ZM262.639 329.691V327.409H273.391V329.691H269.383V340.5H266.647V329.691H262.639ZM274.091 340.5V330.682H276.73V332.395H276.833C277.012 331.786 277.312 331.325 277.734 331.014C278.156 330.699 278.642 330.541 279.191 330.541C279.328 330.541 279.475 330.55 279.632 330.567C279.79 330.584 279.929 330.607 280.048 330.637V333.053C279.92 333.015 279.743 332.981 279.517 332.951C279.292 332.921 279.085 332.906 278.897 332.906C278.497 332.906 278.139 332.994 277.824 333.168C277.512 333.339 277.265 333.577 277.082 333.884C276.903 334.191 276.814 334.545 276.814 334.945V340.5H274.091ZM283.974 340.685C283.348 340.685 282.79 340.577 282.3 340.359C281.809 340.138 281.422 339.812 281.136 339.381C280.855 338.947 280.714 338.406 280.714 337.758C280.714 337.212 280.814 336.754 281.015 336.384C281.215 336.013 281.488 335.714 281.833 335.489C282.178 335.263 282.57 335.092 283.009 334.977C283.452 334.862 283.917 334.781 284.403 334.734C284.974 334.675 285.434 334.619 285.783 334.568C286.133 334.513 286.386 334.432 286.544 334.325C286.702 334.219 286.78 334.061 286.78 333.852V333.814C286.78 333.409 286.653 333.096 286.397 332.874C286.145 332.653 285.787 332.542 285.323 332.542C284.833 332.542 284.443 332.651 284.153 332.868C283.863 333.081 283.672 333.349 283.578 333.673L281.059 333.469C281.187 332.872 281.439 332.357 281.814 331.922C282.189 331.483 282.672 331.146 283.265 330.912C283.861 330.673 284.552 330.554 285.336 330.554C285.881 330.554 286.403 330.618 286.902 330.746C287.405 330.874 287.85 331.072 288.238 331.34C288.63 331.609 288.939 331.954 289.165 332.376C289.39 332.793 289.503 333.294 289.503 333.878V340.5H286.921V339.138H286.844C286.687 339.445 286.476 339.716 286.211 339.95C285.947 340.18 285.63 340.362 285.259 340.494C284.888 340.621 284.46 340.685 283.974 340.685ZM284.754 338.806C285.155 338.806 285.508 338.727 285.815 338.57C286.122 338.408 286.363 338.19 286.537 337.918C286.712 337.645 286.8 337.336 286.8 336.991V335.949C286.714 336.004 286.597 336.055 286.448 336.102C286.303 336.145 286.139 336.185 285.956 336.224C285.773 336.258 285.589 336.29 285.406 336.32C285.223 336.345 285.057 336.369 284.907 336.39C284.588 336.437 284.309 336.511 284.07 336.614C283.831 336.716 283.646 336.854 283.514 337.029C283.382 337.2 283.316 337.413 283.316 337.668C283.316 338.039 283.45 338.322 283.719 338.518C283.991 338.71 284.336 338.806 284.754 338.806ZM294.339 334.824V340.5H291.616V330.682H294.211V332.414H294.326C294.544 331.843 294.908 331.391 295.419 331.059C295.931 330.722 296.551 330.554 297.279 330.554C297.961 330.554 298.556 330.703 299.063 331.001C299.57 331.3 299.964 331.726 300.245 332.28C300.526 332.83 300.667 333.486 300.667 334.249V340.5H297.944V334.734C297.948 334.134 297.795 333.665 297.484 333.328C297.173 332.987 296.744 332.817 296.199 332.817C295.833 332.817 295.509 332.896 295.227 333.053C294.95 333.211 294.733 333.441 294.575 333.744C294.422 334.042 294.343 334.402 294.339 334.824ZM310.982 333.482L308.489 333.635C308.447 333.422 308.355 333.23 308.214 333.06C308.074 332.885 307.888 332.746 307.658 332.644C307.433 332.538 307.162 332.484 306.847 332.484C306.425 332.484 306.069 332.574 305.779 332.753C305.489 332.928 305.344 333.162 305.344 333.456C305.344 333.69 305.438 333.888 305.626 334.05C305.813 334.212 306.135 334.342 306.591 334.44L308.368 334.798C309.322 334.994 310.034 335.31 310.503 335.744C310.972 336.179 311.206 336.75 311.206 337.457C311.206 338.101 311.016 338.665 310.637 339.151C310.262 339.637 309.746 340.016 309.09 340.289C308.438 340.558 307.686 340.692 306.834 340.692C305.534 340.692 304.499 340.421 303.727 339.88C302.96 339.335 302.511 338.593 302.379 337.656L305.057 337.515C305.138 337.911 305.334 338.214 305.645 338.423C305.956 338.627 306.354 338.729 306.84 338.729C307.317 338.729 307.701 338.638 307.991 338.455C308.285 338.267 308.434 338.026 308.438 337.732C308.434 337.485 308.33 337.283 308.125 337.125C307.92 336.963 307.605 336.839 307.179 336.754L305.479 336.415C304.52 336.224 303.806 335.891 303.337 335.418C302.873 334.945 302.641 334.342 302.641 333.609C302.641 332.979 302.811 332.435 303.152 331.979C303.497 331.523 303.981 331.172 304.603 330.925C305.229 330.678 305.962 330.554 306.802 330.554C308.042 330.554 309.018 330.816 309.729 331.34C310.445 331.864 310.863 332.578 310.982 333.482ZM318.2 330.682V332.727H312.141V330.682H318.2ZM313.528 340.5V329.972C313.528 329.261 313.666 328.67 313.943 328.202C314.225 327.733 314.608 327.381 315.094 327.147C315.58 326.913 316.132 326.795 316.749 326.795C317.167 326.795 317.548 326.827 317.894 326.891C318.243 326.955 318.503 327.013 318.673 327.064L318.188 329.109C318.081 329.075 317.949 329.043 317.791 329.013C317.638 328.984 317.48 328.969 317.318 328.969C316.918 328.969 316.639 329.062 316.481 329.25C316.323 329.433 316.244 329.691 316.244 330.023V340.5H313.528ZM323.987 340.692C322.977 340.692 322.108 340.487 321.379 340.078C320.654 339.665 320.096 339.081 319.704 338.327C319.312 337.568 319.116 336.671 319.116 335.636C319.116 334.626 319.312 333.739 319.704 332.977C320.096 332.214 320.648 331.619 321.36 331.193C322.076 330.767 322.915 330.554 323.878 330.554C324.526 330.554 325.129 330.658 325.687 330.867C326.25 331.072 326.74 331.381 327.157 331.794C327.579 332.207 327.907 332.727 328.142 333.354C328.376 333.976 328.493 334.705 328.493 335.54V336.288H320.203V334.6H325.93C325.93 334.208 325.845 333.861 325.674 333.558C325.504 333.256 325.267 333.019 324.965 332.849C324.667 332.674 324.319 332.587 323.923 332.587C323.51 332.587 323.143 332.683 322.824 332.874C322.508 333.062 322.261 333.315 322.082 333.635C321.903 333.95 321.811 334.302 321.807 334.69V336.294C321.807 336.78 321.897 337.2 322.076 337.553C322.259 337.907 322.517 338.18 322.849 338.371C323.181 338.563 323.576 338.659 324.032 338.659C324.334 338.659 324.611 338.616 324.863 338.531C325.114 338.446 325.329 338.318 325.508 338.148C325.687 337.977 325.824 337.768 325.917 337.521L328.436 337.688C328.308 338.293 328.046 338.821 327.65 339.273C327.257 339.72 326.75 340.07 326.128 340.321C325.51 340.568 324.797 340.692 323.987 340.692ZM330.27 340.5V330.682H332.91V332.395H333.012C333.191 331.786 333.492 331.325 333.914 331.014C334.336 330.699 334.821 330.541 335.371 330.541C335.507 330.541 335.654 330.55 335.812 330.567C335.97 330.584 336.108 330.607 336.228 330.637V333.053C336.1 333.015 335.923 332.981 335.697 332.951C335.471 332.921 335.265 332.906 335.077 332.906C334.676 332.906 334.319 332.994 334.003 333.168C333.692 333.339 333.445 333.577 333.262 333.884C333.083 334.191 332.993 334.545 332.993 334.945V340.5H330.27ZM345.805 333.482L343.312 333.635C343.269 333.422 343.177 333.23 343.037 333.06C342.896 332.885 342.711 332.746 342.481 332.644C342.255 332.538 341.984 332.484 341.669 332.484C341.247 332.484 340.891 332.574 340.601 332.753C340.312 332.928 340.167 333.162 340.167 333.456C340.167 333.69 340.26 333.888 340.448 334.05C340.635 334.212 340.957 334.342 341.413 334.44L343.19 334.798C344.145 334.994 344.856 335.31 345.325 335.744C345.794 336.179 346.028 336.75 346.028 337.457C346.028 338.101 345.839 338.665 345.459 339.151C345.084 339.637 344.569 340.016 343.912 340.289C343.26 340.558 342.508 340.692 341.656 340.692C340.356 340.692 339.321 340.421 338.55 339.88C337.782 339.335 337.333 338.593 337.201 337.656L339.879 337.515C339.96 337.911 340.156 338.214 340.467 338.423C340.778 338.627 341.177 338.729 341.662 338.729C342.14 338.729 342.523 338.638 342.813 338.455C343.107 338.267 343.256 338.026 343.26 337.732C343.256 337.485 343.152 337.283 342.947 337.125C342.743 336.963 342.427 336.839 342.001 336.754L340.301 336.415C339.342 336.224 338.628 335.891 338.16 335.418C337.695 334.945 337.463 334.342 337.463 333.609C337.463 332.979 337.633 332.435 337.974 331.979C338.319 331.523 338.803 331.172 339.425 330.925C340.052 330.678 340.785 330.554 341.624 330.554C342.864 330.554 343.84 330.816 344.552 331.34C345.268 331.864 345.685 332.578 345.805 333.482Z" fill="#1F1F28"/>
<defs>
<linearGradient id="paint0_linear_131_713" x1="4.39498" y1="82.9471" x2="36.4725" y2="20.7718" gradientUnits="userSpaceOnUse">
<stop stop-color="#38DBFF"/>
<stop offset="0.501" stop-color="#5990F1"/>
<stop offset="1" stop-color="#8A21DD"/>
</linearGradient>
<linearGradient id="paint1_linear_131_713" x1="29.5" y1="33.5" x2="53" y2="47" gradientUnits="userSpaceOnUse">
<stop stop-color="white"/>
<stop offset="1" stop-color="white" stop-opacity="0.55"/>
</linearGradient>
<linearGradient id="paint2_linear_131_713" x1="266.01" y1="75.7329" x2="295.281" y2="18.998" gradientUnits="userSpaceOnUse">
<stop stop-color="#38DBFF"/>
<stop offset="0.501" stop-color="#5990F1"/>
<stop offset="1" stop-color="#8A21DD"/>
</linearGradient>
<linearGradient id="paint3_linear_131_713" x1="291.678" y1="40.0576" x2="305.805" y2="48.0094" gradientUnits="userSpaceOnUse">
<stop stop-color="white"/>
<stop offset="1" stop-color="white" stop-opacity="0.55"/>
</linearGradient>
<linearGradient id="paint4_linear_131_713" x1="295.817" y1="25.2206" x2="302.08" y2="26.9842" gradientUnits="userSpaceOnUse">
<stop stop-color="white"/>
<stop offset="1" stop-color="white" stop-opacity="0.55"/>
</linearGradient>
<linearGradient id="paint5_linear_131_713" x1="293.744" y1="33.295" x2="301.753" y2="39.4299" gradientUnits="userSpaceOnUse">
<stop stop-color="white"/>
<stop offset="1" stop-color="white" stop-opacity="0.55"/>
</linearGradient>
<linearGradient id="paint6_linear_131_713" x1="4.17523" y1="276.825" x2="34.6489" y2="217.758" gradientUnits="userSpaceOnUse">
<stop stop-color="#38DBFF"/>
<stop offset="0.501" stop-color="#5990F1"/>
<stop offset="1" stop-color="#8A21DD"/>
</linearGradient>
<linearGradient id="paint7_linear_131_713" x1="33.4801" y1="229.603" x2="45.7238" y2="232.52" gradientUnits="userSpaceOnUse">
<stop stop-color="white"/>
<stop offset="1" stop-color="white" stop-opacity="0.55"/>
</linearGradient>
<linearGradient id="paint8_linear_131_713" x1="35.9444" y1="245.285" x2="40.9643" y2="247.364" gradientUnits="userSpaceOnUse">
<stop stop-color="white"/>
<stop offset="1" stop-color="white" stop-opacity="0.55"/>
</linearGradient>
<linearGradient id="paint9_linear_131_713" x1="37.5892" y1="224.023" x2="38.7561" y2="224.126" gradientUnits="userSpaceOnUse">
<stop stop-color="white"/>
<stop offset="1" stop-color="white" stop-opacity="0.55"/>
</linearGradient>
<linearGradient id="paint10_linear_131_713" x1="43.2921" y1="226.184" x2="45.9384" y2="226.827" gradientUnits="userSpaceOnUse">
<stop stop-color="white"/>
<stop offset="1" stop-color="white" stop-opacity="0.55"/>
</linearGradient>
<linearGradient id="paint11_linear_131_713" x1="46.4308" y1="232.299" x2="49.2108" y2="233.897" gradientUnits="userSpaceOnUse">
<stop stop-color="white"/>
<stop offset="1" stop-color="white" stop-opacity="0.55"/>
</linearGradient>
<linearGradient id="paint12_linear_131_713" x1="45.6456" y1="238.409" x2="48.617" y2="239.734" gradientUnits="userSpaceOnUse">
<stop stop-color="white"/>
<stop offset="1" stop-color="white" stop-opacity="0.55"/>
</linearGradient>
<linearGradient id="paint13_linear_131_713" x1="30.7511" y1="226.184" x2="33.397" y2="226.827" gradientUnits="userSpaceOnUse">
<stop stop-color="white"/>
<stop offset="1" stop-color="white" stop-opacity="0.55"/>
</linearGradient>
<linearGradient id="paint14_linear_131_713" x1="26.9874" y1="232.299" x2="29.7671" y2="233.896" gradientUnits="userSpaceOnUse">
<stop stop-color="white"/>
<stop offset="1" stop-color="white" stop-opacity="0.55"/>
</linearGradient>
<linearGradient id="paint15_linear_131_713" x1="27.8663" y1="238.409" x2="30.8378" y2="239.734" gradientUnits="userSpaceOnUse">
<stop stop-color="white"/>
<stop offset="1" stop-color="white" stop-opacity="0.55"/>
</linearGradient>
<linearGradient id="paint16_linear_131_713" x1="266.175" y1="276.825" x2="296.649" y2="217.758" gradientUnits="userSpaceOnUse">
<stop stop-color="#38DBFF"/>
<stop offset="0.501" stop-color="#5990F1"/>
<stop offset="1" stop-color="#8A21DD"/>
</linearGradient>
<linearGradient id="paint17_linear_131_713" x1="290.733" y1="224.003" x2="315.386" y2="230.789" gradientUnits="userSpaceOnUse">
<stop stop-color="white"/>
<stop offset="1" stop-color="white" stop-opacity="0.55"/>
</linearGradient>
<linearGradient id="paint18_linear_131_713" x1="290.733" y1="224.003" x2="315.386" y2="230.789" gradientUnits="userSpaceOnUse">
<stop stop-color="white"/>
<stop offset="1" stop-color="white" stop-opacity="0.55"/>
</linearGradient>
<linearGradient id="paint19_linear_131_713" x1="290.733" y1="224.003" x2="315.386" y2="230.789" gradientUnits="userSpaceOnUse">
<stop stop-color="white"/>
<stop offset="1" stop-color="white" stop-opacity="0.55"/>
</linearGradient>
<linearGradient id="paint20_linear_131_713" x1="290.733" y1="224.003" x2="315.386" y2="230.789" gradientUnits="userSpaceOnUse">
<stop stop-color="white"/>
<stop offset="1" stop-color="white" stop-opacity="0.55"/>
</linearGradient>
<linearGradient id="paint21_linear_131_713" x1="290.733" y1="224.003" x2="315.386" y2="230.789" gradientUnits="userSpaceOnUse">
<stop stop-color="white"/>
<stop offset="1" stop-color="white" stop-opacity="0.55"/>
</linearGradient>
<linearGradient id="paint22_linear_131_713" x1="290.733" y1="224.003" x2="315.386" y2="230.789" gradientUnits="userSpaceOnUse">
<stop stop-color="white"/>
<stop offset="1" stop-color="white" stop-opacity="0.55"/>
</linearGradient>
<linearGradient id="paint23_linear_131_713" x1="290.733" y1="224.003" x2="315.386" y2="230.789" gradientUnits="userSpaceOnUse">
<stop stop-color="white"/>
<stop offset="1" stop-color="white" stop-opacity="0.55"/>
</linearGradient>
<clipPath id="clip0_131_713">
<rect width="25" height="25" fill="white" transform="translate(286 24.5)"/>
</clipPath>
</defs>
</svg>
