<svg width="98" height="98" viewBox="0 0 98 98" fill="none" xmlns="http://www.w3.org/2000/svg">
<circle opacity="0.2" cx="49" cy="49" r="49" fill="#00D4FF"/>
<g clip-path="url(#clip0_1765_37386)">
<path d="M39.5039 55.2227C40.3776 55.2227 41.0859 54.5144 41.0859 53.6406C41.0859 52.7669 40.3776 52.0586 39.5039 52.0586C38.6302 52.0586 37.9219 52.7669 37.9219 53.6406C37.9219 54.5144 38.6302 55.2227 39.5039 55.2227Z" fill="#22CEF1"/>
<path d="M47.9453 51.2148C47.9453 48.5978 50.0744 46.4688 52.6914 46.4688C53.4963 46.4688 54.1918 46.039 54.5518 45.319L54.7745 44.8735C54.9088 44.605 55.0674 44.3552 55.2438 44.1222C54.5802 43.486 53.681 43.0938 52.6914 43.0938H26.3242C24.2888 43.0938 22.6328 44.7497 22.6328 46.7852V63.6602C22.6328 65.6956 24.2888 67.3516 26.3242 67.3516H49.2773C48.3994 65.1073 47.9453 62.7091 47.9453 60.2427V51.2148ZM41.0898 58.1146V59.9688C41.0898 60.8425 40.3815 61.5508 39.5078 61.5508C38.6341 61.5508 37.9258 60.8425 37.9258 59.9688V58.1146C36.0844 57.4615 34.7617 55.7031 34.7617 53.6406C34.7617 51.0236 36.8908 48.8945 39.5078 48.8945C42.1248 48.8945 44.2539 51.0236 44.2539 53.6406C44.2539 55.7031 42.9312 57.4615 41.0898 58.1146Z" fill="#22CEF1"/>
<path d="M73.7852 49.6328C71.786 49.6328 69.9887 48.522 69.0948 46.7341L68.8721 46.2887C68.6041 45.7526 68.0563 45.4141 67.457 45.4141H59.0195C58.4203 45.4141 57.8725 45.7526 57.6045 46.2886L57.3818 46.7339C56.4879 48.522 54.6906 49.6328 52.6914 49.6328C51.8177 49.6328 51.1094 50.3411 51.1094 51.2148V60.2427C51.1094 63.7921 52.2293 67.1735 54.3481 70.0213C56.4669 72.8689 59.3839 74.9134 62.7837 75.9332C62.932 75.9777 63.0851 76 63.2383 76C63.3914 76 63.5446 75.9777 63.6929 75.9332C67.0926 74.9134 70.0097 72.8689 72.1285 70.0213C74.2472 67.1735 75.3672 63.7921 75.3672 60.2427V51.2148C75.3672 50.3411 74.6589 49.6328 73.7852 49.6328ZM68.8316 58.8426L62.8654 64.8087C62.5565 65.1176 62.1516 65.2721 61.7468 65.2721C61.3421 65.2721 60.9371 65.1177 60.6282 64.8087L57.6452 61.8256C57.0273 61.2078 57.0273 60.2062 57.6452 59.5883C58.2629 58.9705 59.2646 58.9705 59.8825 59.5883L61.747 61.4527L66.5945 56.6052C67.2122 55.9874 68.214 55.9874 68.8318 56.6052C69.4494 57.2231 69.4494 58.2247 68.8316 58.8426Z" fill="#22CEF1"/>
<path d="M33.1797 34.6562C33.1797 31.1613 36.0129 28.3281 39.5078 28.3281C43.0027 28.3281 45.8359 31.1613 45.8359 34.6562V39.9297H52.1641V34.6562C52.1641 27.6664 46.4976 22 39.5078 22C32.518 22 26.8516 27.6664 26.8516 34.6562V39.9297H33.1797V34.6562Z" fill="#22CEF1"/>
</g>
<defs>
<clipPath id="clip0_1765_37386">
<rect width="54" height="54" fill="white" transform="translate(22 22)"/>
</clipPath>
</defs>
</svg>
