<svg width="120" height="120" viewBox="0 0 120 120" fill="none" xmlns="http://www.w3.org/2000/svg">
<g filter="url(#filter0_d_445_7531)">
<rect x="32" y="28" width="56" height="56" rx="12" fill="url(#paint0_linear_445_7531)" fill-opacity="0.9" shape-rendering="crispEdges"/>
<path fill-rule="evenodd" clip-rule="evenodd" d="M63.326 48.8239C63.4014 48.5415 63.3638 48.2407 63.2213 47.9855C63.0788 47.7302 62.8425 47.5405 62.5624 47.4564C62.2824 47.3724 61.9807 47.4006 61.7211 47.5352C61.4616 47.6698 61.2647 47.9001 61.172 48.1774L56.672 63.1774C56.5987 63.4593 56.6376 63.7586 56.7805 64.0124C56.9233 64.2662 57.1591 64.4547 57.4381 64.5383C57.7171 64.6218 58.0176 64.5939 58.2765 64.4604C58.5353 64.3269 58.7323 64.0982 58.826 63.8224L63.326 48.8239ZM54.794 51.4549C55.0047 51.6659 55.123 51.9518 55.123 52.2499C55.123 52.5481 55.0047 52.834 54.794 53.0449L51.839 55.9999L54.794 58.9549C54.9927 59.1682 55.1009 59.4503 55.0958 59.7417C55.0906 60.0332 54.9726 60.3112 54.7664 60.5174C54.5603 60.7235 54.2822 60.8416 53.9908 60.8467C53.6993 60.8518 53.4173 60.7437 53.204 60.5449L49.454 56.7949C49.2433 56.584 49.125 56.2981 49.125 55.9999C49.125 55.7018 49.2433 55.4159 49.454 55.2049L53.204 51.4549C53.4149 51.2443 53.7009 51.1259 53.999 51.1259C54.2971 51.1259 54.5831 51.2443 54.794 51.4549ZM65.204 60.5449C64.9933 60.334 64.875 60.0481 64.875 59.7499C64.875 59.4518 64.9933 59.1659 65.204 58.9549L68.159 55.9999L65.204 53.0449C65.0053 52.8317 64.8971 52.5496 64.9022 52.2581C64.9074 51.9667 65.0255 51.6886 65.2316 51.4825C65.4377 51.2764 65.7158 51.1583 66.0072 51.1532C66.2987 51.148 66.5807 51.2562 66.794 51.4549L70.544 55.2049C70.7547 55.4159 70.873 55.7018 70.873 55.9999C70.873 56.2981 70.7547 56.584 70.544 56.7949L66.794 60.5449C66.5831 60.7556 66.2971 60.8739 65.999 60.8739C65.7009 60.8739 65.4149 60.7556 65.204 60.5449Z" fill="white"/>
</g>
<defs>
<filter id="filter0_d_445_7531" x="0" y="0" width="120" height="120" filterUnits="userSpaceOnUse" color-interpolation-filters="sRGB">
<feFlood flood-opacity="0" result="BackgroundImageFix"/>
<feColorMatrix in="SourceAlpha" type="matrix" values="0 0 0 0 0 0 0 0 0 0 0 0 0 0 0 0 0 0 127 0" result="hardAlpha"/>
<feOffset dy="4"/>
<feGaussianBlur stdDeviation="16"/>
<feComposite in2="hardAlpha" operator="out"/>
<feColorMatrix type="matrix" values="0 0 0 0 0.0901961 0 0 0 0 0.556863 0 0 0 0 0.909804 0 0 0 0.33 0"/>
<feBlend mode="normal" in2="BackgroundImageFix" result="effect1_dropShadow_445_7531"/>
<feBlend mode="normal" in="SourceGraphic" in2="effect1_dropShadow_445_7531" result="shape"/>
</filter>
<linearGradient id="paint0_linear_445_7531" x1="35.1242" y1="31.1374" x2="86.3643" y2="65.6734" gradientUnits="userSpaceOnUse">
<stop offset="0.168198" stop-color="#5FBAFD"/>
<stop offset="0.984375" stop-color="#2B6CEB"/>
</linearGradient>
</defs>
</svg>
