<svg width="120" height="120" viewBox="0 0 120 120" fill="none" xmlns="http://www.w3.org/2000/svg">
<g filter="url(#filter0_d_445_7516)">
<rect x="32" y="28" width="56" height="56" rx="12" fill="url(#paint0_linear_445_7516)" fill-opacity="0.9" shape-rendering="crispEdges"/>
<path d="M67.5 47.75H52.5C51.9033 47.75 51.331 47.9871 50.909 48.409C50.4871 48.831 50.25 49.4033 50.25 50V60.5C50.25 61.0967 50.4871 61.669 50.909 62.091C51.331 62.5129 51.9033 62.75 52.5 62.75H59.25V64.25H57C56.8011 64.25 56.6103 64.329 56.4697 64.4697C56.329 64.6103 56.25 64.8011 56.25 65C56.25 65.1989 56.329 65.3897 56.4697 65.5303C56.6103 65.671 56.8011 65.75 57 65.75H63C63.1989 65.75 63.3897 65.671 63.5303 65.5303C63.671 65.3897 63.75 65.1989 63.75 65C63.75 64.8011 63.671 64.6103 63.5303 64.4697C63.3897 64.329 63.1989 64.25 63 64.25H60.75V62.75H67.5C68.0967 62.75 68.669 62.5129 69.091 62.091C69.5129 61.669 69.75 61.0967 69.75 60.5V50C69.75 49.4033 69.5129 48.831 69.091 48.409C68.669 47.9871 68.0967 47.75 67.5 47.75ZM67.5 61.25H52.5C52.3011 61.25 52.1103 61.171 51.9697 61.0303C51.829 60.8897 51.75 60.6989 51.75 60.5V59H68.25V60.5C68.25 60.6989 68.171 60.8897 68.0303 61.0303C67.8897 61.171 67.6989 61.25 67.5 61.25Z" fill="white"/>
</g>
<defs>
<filter id="filter0_d_445_7516" x="0" y="0" width="120" height="120" filterUnits="userSpaceOnUse" color-interpolation-filters="sRGB">
<feFlood flood-opacity="0" result="BackgroundImageFix"/>
<feColorMatrix in="SourceAlpha" type="matrix" values="0 0 0 0 0 0 0 0 0 0 0 0 0 0 0 0 0 0 127 0" result="hardAlpha"/>
<feOffset dy="4"/>
<feGaussianBlur stdDeviation="16"/>
<feComposite in2="hardAlpha" operator="out"/>
<feColorMatrix type="matrix" values="0 0 0 0 0.0901961 0 0 0 0 0.556863 0 0 0 0 0.909804 0 0 0 0.33 0"/>
<feBlend mode="normal" in2="BackgroundImageFix" result="effect1_dropShadow_445_7516"/>
<feBlend mode="normal" in="SourceGraphic" in2="effect1_dropShadow_445_7516" result="shape"/>
</filter>
<linearGradient id="paint0_linear_445_7516" x1="35.1242" y1="31.1374" x2="86.3643" y2="65.6734" gradientUnits="userSpaceOnUse">
<stop offset="0.168198" stop-color="#5FBAFD"/>
<stop offset="0.984375" stop-color="#2B6CEB"/>
</linearGradient>
</defs>
</svg>
