<svg width="98" height="98" viewBox="0 0 98 98" fill="none" xmlns="http://www.w3.org/2000/svg">
<circle opacity="0.2" cx="49" cy="49" r="49" fill="#00D4FF"/>
<path d="M50.7969 55.2446V57.3659C51.4251 57.0023 52.0272 56.6081 52.5969 56.1761V53.8496C52.0308 54.3581 51.4287 54.8225 50.7969 55.2446Z" fill="#22CEF1"/>
<path d="M41.7984 27.4003C33.8586 27.4003 27.3984 33.8605 27.3984 41.8003C27.3984 49.0948 32.8614 55.1797 39.9984 56.0725V54.4003C39.9984 52.9117 41.2098 51.7003 42.6984 51.7003H48.0984C49.1685 51.7003 50.0874 52.3312 50.5239 53.2357C51.2754 52.6615 51.9693 52.0099 52.5984 51.2899V45.3994C52.5984 43.9108 53.8098 42.6994 55.2984 42.6994H56.1687C56.1876 42.4024 56.1984 42.1018 56.1984 41.7994C56.1984 33.8596 49.7382 27.4003 41.7984 27.4003ZM48.0039 44.9026C47.8455 45.2185 47.5287 45.4003 47.1975 45.4003C47.0625 45.4003 46.9248 45.3697 46.7961 45.3058L41.3961 42.6058C41.091 42.4528 40.8984 42.1414 40.8984 41.8003V31.0003C40.8984 30.5026 41.3007 30.1003 41.7984 30.1003C42.2961 30.1003 42.6984 30.5026 42.6984 31.0003V41.2441L47.6007 43.6957C48.0453 43.918 48.2253 44.4589 48.003 44.9035L48.0039 44.9026Z" fill="#22CEF1"/>
<path d="M39.9969 59.6837V57.8801C31.8591 56.9765 25.5969 50.0825 25.5969 41.7998C25.5969 32.8673 32.8644 25.5998 41.7969 25.5998C50.7294 25.5998 57.9969 32.8673 57.9969 41.7998C57.9969 42.1022 57.987 42.4019 57.9699 42.6998H59.7735C59.7888 42.4073 59.796 42.1067 59.796 41.7998C59.796 31.8746 51.7212 23.7998 41.796 23.7998C31.8708 23.7998 23.7969 31.8746 23.7969 41.7998C23.7969 51.1112 30.8421 58.7783 39.9969 59.6837Z" fill="#22CEF1"/>
<path d="M48.0969 53.5H42.6969C42.1998 53.5 41.7969 53.9029 41.7969 54.4V73.3C41.7969 73.7971 42.1998 74.2 42.6969 74.2H48.0969C48.5939 74.2 48.9969 73.7971 48.9969 73.3V54.4C48.9969 53.9029 48.5939 53.5 48.0969 53.5Z" fill="#22CEF1"/>
<path d="M60.6984 44.5H55.2984C54.8014 44.5 54.3984 44.9029 54.3984 45.4V73.3C54.3984 73.7971 54.8014 74.2 55.2984 74.2H60.6984C61.1955 74.2 61.5984 73.7971 61.5984 73.3V45.4C61.5984 44.9029 61.1955 44.5 60.6984 44.5Z" fill="#22CEF1"/>
<path d="M73.3 56.2H67.9C67.4029 56.2 67 56.603 67 57.1V73.3C67 73.7971 67.4029 74.2 67.9 74.2H73.3C73.7971 74.2 74.2 73.7971 74.2 73.3V57.1C74.2 56.603 73.7971 56.2 73.3 56.2Z" fill="#22CEF1"/>
</svg>
