<svg width="98" height="98" viewBox="0 0 98 98" fill="none" xmlns="http://www.w3.org/2000/svg">
<circle opacity="0.2" cx="49" cy="49" r="49" fill="#00D4FF"/>
<path d="M40.25 24H30.25C29.5596 24 29 24.5596 29 25.25V35.25C29 35.9404 29.5596 36.5 30.25 36.5H40.25C40.9404 36.5 41.5 35.9404 41.5 35.25V25.25C41.5 24.5596 40.9404 24 40.25 24Z" fill="#22CEF1"/>
<path d="M47.75 29H67.75C68.0815 29 68.3995 28.8683 68.6339 28.6339C68.8683 28.3995 69 28.0815 69 27.75C69 27.4185 68.8683 27.1005 68.6339 26.8661C68.3995 26.6317 68.0815 26.5 67.75 26.5H47.75C47.4185 26.5 47.1005 26.6317 46.8661 26.8661C46.6317 27.1005 46.5 27.4185 46.5 27.75C46.5 28.0815 46.6317 28.3995 46.8661 28.6339C47.1005 28.8683 47.4185 29 47.75 29Z" fill="#22CEF1"/>
<path d="M47.75 34H57.75C58.0815 34 58.3995 33.8683 58.6339 33.6339C58.8683 33.3995 59 33.0815 59 32.75C59 32.4185 58.8683 32.1005 58.6339 31.8661C58.3995 31.6317 58.0815 31.5 57.75 31.5H47.75C47.4185 31.5 47.1005 31.6317 46.8661 31.8661C46.6317 32.1005 46.5 32.4185 46.5 32.75C46.5 33.0815 46.6317 33.3995 46.8661 33.6339C47.1005 33.8683 47.4185 34 47.75 34Z" fill="#22CEF1"/>
<path d="M40.25 42.75H30.25C29.5596 42.75 29 43.3096 29 44V54C29 54.6904 29.5596 55.25 30.25 55.25H40.25C40.9404 55.25 41.5 54.6904 41.5 54V44C41.5 43.3096 40.9404 42.75 40.25 42.75Z" fill="#22CEF1"/>
<path d="M67.75 45.25H47.75C47.4185 45.25 47.1005 45.3817 46.8661 45.6161C46.6317 45.8505 46.5 46.1685 46.5 46.5C46.5 46.8315 46.6317 47.1495 46.8661 47.3839C47.1005 47.6183 47.4185 47.75 47.75 47.75H67.75C68.0815 47.75 68.3995 47.6183 68.6339 47.3839C68.8683 47.1495 69 46.8315 69 46.5C69 46.1685 68.8683 45.8505 68.6339 45.6161C68.3995 45.3817 68.0815 45.25 67.75 45.25Z" fill="#22CEF1"/>
<path d="M47.75 52.75H57.75C58.0815 52.75 58.3995 52.6183 58.6339 52.3839C58.8683 52.1495 59 51.8315 59 51.5C59 51.1685 58.8683 50.8505 58.6339 50.6161C58.3995 50.3817 58.0815 50.25 57.75 50.25H47.75C47.4185 50.25 47.1005 50.3817 46.8661 50.6161C46.6317 50.8505 46.5 51.1685 46.5 51.5C46.5 51.8315 46.6317 52.1495 46.8661 52.3839C47.1005 52.6183 47.4185 52.75 47.75 52.75Z" fill="#22CEF1"/>
<path d="M40.25 61.5H30.25C29.5596 61.5 29 62.0596 29 62.75V72.75C29 73.4404 29.5596 74 30.25 74H40.25C40.9404 74 41.5 73.4404 41.5 72.75V62.75C41.5 62.0596 40.9404 61.5 40.25 61.5Z" fill="#22CEF1"/>
<path d="M67.75 64H47.75C47.4185 64 47.1005 64.1317 46.8661 64.3661C46.6317 64.6005 46.5 64.9185 46.5 65.25C46.5 65.5815 46.6317 65.8995 46.8661 66.1339C47.1005 66.3683 47.4185 66.5 47.75 66.5H67.75C68.0815 66.5 68.3995 66.3683 68.6339 66.1339C68.8683 65.8995 69 65.5815 69 65.25C69 64.9185 68.8683 64.6005 68.6339 64.3661C68.3995 64.1317 68.0815 64 67.75 64Z" fill="#22CEF1"/>
<path d="M57.75 69H47.75C47.4185 69 47.1005 69.1317 46.8661 69.3661C46.6317 69.6005 46.5 69.9185 46.5 70.25C46.5 70.5815 46.6317 70.8995 46.8661 71.1339C47.1005 71.3683 47.4185 71.5 47.75 71.5H57.75C58.0815 71.5 58.3995 71.3683 58.6339 71.1339C58.8683 70.8995 59 70.5815 59 70.25C59 69.9185 58.8683 69.6005 58.6339 69.3661C58.3995 69.1317 58.0815 69 57.75 69Z" fill="#22CEF1"/>
</svg>
