<svg width="120" height="120" viewBox="0 0 120 120" fill="none" xmlns="http://www.w3.org/2000/svg">
<g filter="url(#filter0_d_2114_29893)">
<rect x="32" y="28" width="56" height="56" rx="12" fill="url(#paint0_linear_2114_29893)" shape-rendering="crispEdges"/>
<path fill-rule="evenodd" clip-rule="evenodd" d="M61.803 49.3333C61.803 47.4924 63.3022 46 65.1515 46C67.0008 46 68.5 47.4924 68.5 49.3333C68.5 51.1743 67.0008 52.6667 65.1515 52.6667C64.2177 52.6667 63.3738 52.286 62.7671 51.6735L58.1317 54.8295C58.1745 55.0425 58.197 55.2625 58.197 55.4872C58.197 55.9322 58.109 56.3576 57.9496 56.7464L63.0323 60.0858C63.6092 59.6161 64.3473 59.3333 65.1515 59.3333C67.0008 59.3333 68.5 60.8257 68.5 62.6667C68.5 64.5076 67.0008 66 65.1515 66C63.3022 66 61.803 64.5076 61.803 62.6667C61.803 62.1845 61.9062 61.7255 62.0917 61.3111L57.0501 57.9987C56.462 58.5098 55.6916 58.8205 54.8485 58.8205C52.9992 58.8205 51.5 57.3281 51.5 55.4872C51.5 53.6462 52.9992 52.1538 54.8485 52.1538C55.9119 52.1538 56.8585 52.6473 57.4714 53.4152L61.9639 50.3564C61.8594 50.0336 61.803 49.6896 61.803 49.3333Z" fill="white"/>
</g>
<defs>
<filter id="filter0_d_2114_29893" x="0" y="0" width="120" height="120" filterUnits="userSpaceOnUse" color-interpolation-filters="sRGB">
<feFlood flood-opacity="0" result="BackgroundImageFix"/>
<feColorMatrix in="SourceAlpha" type="matrix" values="0 0 0 0 0 0 0 0 0 0 0 0 0 0 0 0 0 0 127 0" result="hardAlpha"/>
<feOffset dy="4"/>
<feGaussianBlur stdDeviation="16"/>
<feComposite in2="hardAlpha" operator="out"/>
<feColorMatrix type="matrix" values="0 0 0 0 0.0901961 0 0 0 0 0.556863 0 0 0 0 0.909804 0 0 0 0.33 0"/>
<feBlend mode="normal" in2="BackgroundImageFix" result="effect1_dropShadow_2114_29893"/>
<feBlend mode="normal" in="SourceGraphic" in2="effect1_dropShadow_2114_29893" result="shape"/>
</filter>
<linearGradient id="paint0_linear_2114_29893" x1="29.5" y1="91.5" x2="78.5907" y2="14.9401" gradientUnits="userSpaceOnUse">
<stop offset="0.168198" stop-color="#38DBFF"/>
<stop offset="0.984375" stop-color="#2521DD"/>
</linearGradient>
</defs>
</svg>
