<svg width="20" height="20" viewBox="0 0 20 20" fill="none" xmlns="http://www.w3.org/2000/svg">
<path d="M12.4253 7.44824C12.1017 7.44824 11.8394 7.1859 11.8394 6.86231V5.56543H11.0329C10.4672 7.22906 8.10672 7.22805 7.54172 5.56543H6.73523V6.86231C6.73523 7.1859 6.47289 7.44824 6.1493 7.44824C5.26262 7.48191 5.26285 8.75328 6.1493 8.7868C6.47289 8.7868 6.73523 9.04914 6.73523 9.37273V10.6696H7.54172C8.10738 9.00594 10.4679 9.00703 11.0329 10.6696H11.8394V9.37273C11.8394 9.04914 12.1017 8.7868 12.4253 8.7868C13.312 8.75316 13.3117 7.48176 12.4253 7.44824Z" fill="#787A88"/>
<path d="M18.6031 11.2064C18.6022 11.2049 18.6013 11.2035 18.6005 11.202C18.1611 10.4719 17.6106 9.55451 17.404 9.21014V8.11658C17.404 3.628 13.7605 3.87507e-05 9.28685 3.87507e-05C2.00452 -0.0214846 -1.49102 8.92826 3.55881 13.8874C3.60827 13.9371 3.63096 14.0063 3.61956 14.0725C3.61932 14.074 3.61905 14.0754 3.61881 14.0768C3.40799 15.357 2.75327 19.2781 2.74671 19.3176C2.68714 19.6743 2.96245 20 3.32463 20H10.7523C11.0388 20 11.2833 19.7928 11.3303 19.5102L11.6511 17.5806C12.094 17.6565 12.7239 17.7645 13.2986 17.8631C14.4037 18.0525 15.5001 17.4706 15.9652 16.4468C16.4204 15.438 17.0092 14.1368 17.2462 13.6132C17.3867 13.5664 17.5742 13.5038 17.7711 13.4379C18.2119 13.292 18.5587 12.9576 18.7224 12.5205C18.7231 12.5187 18.7237 12.5169 18.7244 12.5151C18.882 12.0814 18.8378 11.6044 18.6031 11.2064ZM13.0108 9.86279V11.2552C13.0108 11.5788 12.7484 11.8411 12.4249 11.8411H10.5421C10.2185 11.8411 9.95615 11.5788 9.95615 11.2552C9.92247 10.3686 8.65111 10.3688 8.61759 11.2552C8.61759 11.5788 8.35525 11.8411 8.03166 11.8411H6.14885C5.82525 11.8411 5.56291 11.5788 5.56291 11.2552V9.86279C3.89924 9.29717 3.9003 6.93663 5.56291 6.37163V4.97921C5.56291 4.65562 5.82525 4.39327 6.14885 4.39327H8.03166C8.35525 4.39327 8.61759 4.65562 8.61759 4.97921C8.65123 5.86589 9.92263 5.86557 9.95615 4.97921C9.95615 4.65562 10.2185 4.39327 10.5421 4.39327H12.4249C12.7484 4.39327 13.0108 4.65562 13.0108 4.97921V6.37163C14.6745 6.93725 14.6734 9.29779 13.0108 9.86279Z" fill="#787A88"/>
</svg>
