<svg width="75" height="75" viewBox="0 0 75 75" fill="none" xmlns="http://www.w3.org/2000/svg">
<g filter="url(#filter0_d_5673_37848)">
<rect x="9.39844" y="5.39999" width="56" height="56" rx="12" fill="url(#paint0_linear_5673_37848)" fill-opacity="0.9" shape-rendering="crispEdges"/>
<path d="M39.1484 27.775V21.4H28.2109C27.4836 21.4 26.8984 21.9016 26.8984 22.525V44.275C26.8984 44.8984 27.4836 45.4 28.2109 45.4H46.5859C47.3133 45.4 47.8984 44.8984 47.8984 44.275V28.9H40.4609C39.7391 28.9 39.1484 28.3937 39.1484 27.775ZM30.3984 24.775C30.3984 24.5678 30.5942 24.4 30.8359 24.4H35.2109C35.4527 24.4 35.6484 24.5678 35.6484 24.775V25.525C35.6484 25.7322 35.4527 25.9 35.2109 25.9H30.8359C30.5942 25.9 30.3984 25.7322 30.3984 25.525V24.775ZM30.3984 27.775C30.3984 27.5678 30.5942 27.4 30.8359 27.4H35.2109C35.4527 27.4 35.6484 27.5678 35.6484 27.775V28.525C35.6484 28.7322 35.4527 28.9 35.2109 28.9H30.8359C30.5942 28.9 30.3984 28.7322 30.3984 28.525V27.775ZM40.9427 39.4H43.5234C44.0069 39.4 44.3984 39.7356 44.3984 40.15C44.3984 40.5644 44.0069 40.9 43.5234 40.9H40.9427C40.0431 40.9 39.2327 40.4716 38.8296 39.7816C38.6683 39.5041 38.3872 39.4759 38.2734 39.4759C38.1597 39.4759 37.8786 39.5036 37.7255 39.7661L37.306 40.4851C37.2334 40.6097 37.1217 40.7145 36.9834 40.7877C36.8452 40.8609 36.6859 40.8996 36.5234 40.8995C36.5027 40.8995 36.4824 40.8986 36.4611 40.8972C36.1084 40.8761 35.8048 40.6745 35.6938 40.3867L34.7734 38.0214L34.1932 39.5158C33.8711 40.3436 32.9693 40.9 31.951 40.9H31.2734C30.79 40.9 30.3984 40.5644 30.3984 40.15C30.3984 39.7356 30.79 39.4 31.2734 39.4H31.951C32.2152 39.4 32.4492 39.2556 32.5329 39.0409L33.5277 36.4797C33.7081 36.0198 34.208 35.7105 34.7734 35.7105C35.3389 35.7105 35.8387 36.0194 36.0187 36.4797L36.7777 38.4316C37.8589 37.6726 39.7336 37.9769 40.3871 39.0953C40.4976 39.2856 40.713 39.4 40.9427 39.4ZM47.5156 26.3219L42.1617 21.7281C41.9156 21.5172 41.582 21.4 41.232 21.4H40.8984V27.4H47.8984V27.1141C47.8984 26.8187 47.7617 26.5328 47.5156 26.3219Z" fill="white"/>
</g>
<defs>
<filter id="filter0_d_5673_37848" x="-0.00156212" y="-5.72205e-06" width="74.8" height="74.8" filterUnits="userSpaceOnUse" color-interpolation-filters="sRGB">
<feFlood flood-opacity="0" result="BackgroundImageFix"/>
<feColorMatrix in="SourceAlpha" type="matrix" values="0 0 0 0 0 0 0 0 0 0 0 0 0 0 0 0 0 0 127 0" result="hardAlpha"/>
<feOffset dy="4"/>
<feGaussianBlur stdDeviation="4.7"/>
<feComposite in2="hardAlpha" operator="out"/>
<feColorMatrix type="matrix" values="0 0 0 0 0.52732 0 0 0 0 0.0901961 0 0 0 0 0.909804 0 0 0 0.33 0"/>
<feBlend mode="normal" in2="BackgroundImageFix" result="effect1_dropShadow_5673_37848"/>
<feBlend mode="normal" in="SourceGraphic" in2="effect1_dropShadow_5673_37848" result="shape"/>
</filter>
<linearGradient id="paint0_linear_5673_37848" x1="9.39844" y1="5.39999" x2="65.3984" y2="61.4" gradientUnits="userSpaceOnUse">
<stop stop-color="#9E74F8"/>
<stop offset="1" stop-color="#7E3FE2"/>
</linearGradient>
</defs>
</svg>
