<svg width="52" height="52" viewBox="0 0 52 52" fill="none" xmlns="http://www.w3.org/2000/svg">
<path d="M4.32812 26.0002C4.32812 15.7865 4.32812 10.6797 7.50013 7.5055C10.6765 4.3335 15.7811 4.3335 25.9948 4.3335C36.2085 4.3335 41.3153 4.3335 44.4873 7.5055C47.6615 10.6818 47.6615 15.7865 47.6615 26.0002C47.6615 36.2138 47.6615 41.3207 44.4873 44.4927C41.3175 47.6668 36.2085 47.6668 25.9948 47.6668C15.7811 47.6668 10.6743 47.6668 7.50013 44.4927C4.32812 41.3228 4.32812 36.2138 4.32812 26.0002Z" fill="url(#paint0_linear_5676_32857)" fill-opacity="0.1" stroke="url(#paint1_linear_5676_32857)" stroke-width="3"/>
<path d="M24.8809 28.3384L21.0625 30.1567L20.6504 30.353V35.7085L21.707 35.1567L25.5254 33.1646L25.9141 32.9624V27.8462L24.8809 28.3384ZM30.2832 19.9751L26.4648 21.7095L26.041 21.9019V26.6226L27.0273 26.2358L30.8457 24.7407L31.3047 24.561V19.5112L30.2832 19.9751ZM25.6943 16.2798C25.8933 16.2013 26.1071 16.2018 26.2979 16.2778L26.3027 16.2798L30.7949 18.0376C30.9495 18.0983 31.0825 18.2046 31.1846 18.3394L30.8447 18.2065L26.2627 16.4165L26 16.313L25.7373 16.4165L21.1553 18.2065L20.8086 18.3413C20.9109 18.2053 21.0455 18.0986 21.2012 18.0376L21.2002 18.0366L25.6924 16.2798H25.6943ZM31.3047 18.5464C31.3563 18.6678 31.3867 18.802 31.3867 18.9448V24.5239L31.8467 24.7036L36.1855 26.4009V26.3999C36.3425 26.4615 36.4775 26.5699 36.5801 26.7075L36.2354 26.5737L31.6533 24.7837L31.3906 24.6802L31.1279 24.7837L26.5459 26.5737L26.0859 26.7534V27.7534L26.5273 27.9399L31.1094 29.8804L31.3906 29.9995L31.6719 29.8804L36.2539 27.9399L36.6953 27.7534V26.9087C36.7469 27.0301 36.7773 27.1643 36.7773 27.3071V32.4683C36.7773 32.6115 36.7478 32.7478 36.6953 32.8706V27.8462L35.6621 28.3384L31.8438 30.1567L31.4316 30.353V35.7085L32.4883 35.1567L36.3066 33.1646L36.6299 32.9956C36.5412 33.1414 36.4186 33.261 36.2725 33.3374L31.7803 35.6812L31.7773 35.6831C31.5344 35.8111 31.2469 35.8111 31.0039 35.6831L31.002 35.6812L26.334 33.2437L26 33.0688L25.666 33.2437L20.998 35.6812L20.9961 35.6831C20.7531 35.8111 20.4656 35.8111 20.2227 35.6831L20.2197 35.6812L15.7275 33.3374C15.4288 33.1813 15.2227 32.8486 15.2227 32.4683V27.3071C15.2227 27.1639 15.253 27.0293 15.3047 26.9077V27.7534L15.7461 27.9399L20.3281 29.8804L20.6094 29.9995L20.8906 29.8804L25.4727 27.9399L25.9141 27.7534V26.7534L25.4541 26.5737L20.8721 24.7837L20.6094 24.6802L20.3467 24.7837L15.7646 26.5737L15.418 26.7085C15.5204 26.5698 15.6555 26.4606 15.8115 26.3989L20.1494 24.7036L20.6084 24.5239V18.9448C20.6084 18.7971 20.6404 18.6582 20.6953 18.5337V19.3862L21.1367 19.5728L25.7188 21.5132L26 21.6323L26.2812 21.5132L30.8633 19.5728L31.3047 19.3862V18.5464Z" fill="url(#paint2_linear_5676_32857)" stroke="url(#paint3_linear_5676_32857)" stroke-width="1.44444"/>
<defs>
<linearGradient id="paint0_linear_5676_32857" x1="4.32813" y1="42.3458" x2="52.4936" y2="31.8685" gradientUnits="userSpaceOnUse">
<stop stop-color="#9B70F6"/>
<stop offset="0.984375" stop-color="#8043E4"/>
</linearGradient>
<linearGradient id="paint1_linear_5676_32857" x1="4.32812" y1="4.3335" x2="47.6615" y2="47.6668" gradientUnits="userSpaceOnUse">
<stop stop-color="#9E74F8"/>
<stop offset="1" stop-color="#7E3FE2"/>
</linearGradient>
<linearGradient id="paint2_linear_5676_32857" x1="14.5" y1="15.4985" x2="35.4159" y2="38.4039" gradientUnits="userSpaceOnUse">
<stop stop-color="#9E74F8"/>
<stop offset="1" stop-color="#7E3FE2"/>
</linearGradient>
<linearGradient id="paint3_linear_5676_32857" x1="14.5" y1="15.4985" x2="35.4159" y2="38.4039" gradientUnits="userSpaceOnUse">
<stop stop-color="#9E74F8"/>
<stop offset="1" stop-color="#7E3FE2"/>
</linearGradient>
</defs>
</svg>
