<svg width="24" height="24" viewBox="0 0 24 24" fill="none" xmlns="http://www.w3.org/2000/svg">
<g clip-path="url(#clip0_7517_1935)">
<mask id="mask0_7517_1935" style="mask-type:luminance" maskUnits="userSpaceOnUse" x="0" y="0" width="24" height="24">
<path d="M0 1.90735e-06H24V24H0V1.90735e-06Z" fill="white"/>
</mask>
<g mask="url(#mask0_7517_1935)">
<path d="M16.7159 11.5029C16.9905 11.7775 16.9905 12.2225 16.7159 12.4972L15.3096 13.9034C15.035 14.178 14.59 14.178 14.3153 13.9034C14.0407 13.6288 14.0407 13.1838 14.3153 12.9091L15.2245 12L14.3153 11.0909C14.0407 10.8163 14.0407 10.3713 14.3153 10.0966C14.59 9.822 15.035 9.822 15.3096 10.0966L16.7159 11.5029ZM13.3856 9.3578L11.9794 14.9828C11.8853 15.3605 11.5026 15.5884 11.1266 15.4943C10.7489 15.4003 10.521 15.0185 10.6143 14.6423L12.0206 9.01725C12.114 8.64028 12.4916 8.40816 12.8734 8.5057C13.251 8.59974 13.479 8.98153 13.3856 9.3578ZM9.68461 12.9091C9.95925 13.1838 9.95925 13.6288 9.68461 13.9034C9.40997 14.178 8.96498 14.178 8.69034 13.9034L7.28409 12.4972C7.00945 12.2225 7.00945 11.7775 7.28409 11.5029L8.69034 10.0966C8.96498 9.822 9.40997 9.822 9.68461 10.0966C9.95925 10.3713 9.95925 10.8163 9.68461 11.0909L8.77547 12L9.68461 12.9091ZM21.1875 8.55511V3.5625C21.1875 3.17386 20.873 2.85938 20.4844 2.85938H14.8125C14.4239 2.85938 14.1094 3.17386 14.1094 3.5625C14.1094 4.7257 13.1632 5.67188 12 5.67188C10.8368 5.67188 9.89062 4.7257 9.89062 3.5625C9.89062 3.17386 9.57614 2.85938 9.1875 2.85938H3.51562C3.12698 2.85938 2.8125 3.17386 2.8125 3.5625V8.55511C1.20984 8.88197 0 10.302 0 12C0 13.6981 1.20984 15.1181 2.8125 15.4449V20.4375C2.8125 20.8261 3.12698 21.1406 3.51562 21.1406H9.1875C9.57614 21.1406 9.89062 20.8261 9.89062 20.4375C9.89062 19.2743 10.8368 18.3281 12 18.3281C13.1632 18.3281 14.1094 19.2743 14.1094 20.4375C14.1094 20.8261 14.4239 21.1406 14.8125 21.1406H20.4844C20.873 21.1406 21.1875 20.8261 21.1875 20.4375V15.4449C22.7901 15.1181 24 13.6981 24 12C24 10.302 22.7901 8.88197 21.1875 8.55511Z" fill="white" fill-opacity="0.88"/>
</g>
</g>
<defs>
<clipPath id="clip0_7517_1935">
<rect width="24" height="24" fill="white"/>
</clipPath>
</defs>
</svg>
