<svg width="32" height="32" viewBox="0 0 32 32" fill="none" xmlns="http://www.w3.org/2000/svg">
<g clip-path="url(#clip0_7516_2331)">
<mask id="mask0_7516_2331" style="mask-type:luminance" maskUnits="userSpaceOnUse" x="-2" y="0" width="70" height="66">
<path d="M32 0H0V32H32V0Z" fill="white"/>
<path d="M24.1094 18.8066C24.1094 16.8876 25.6651 15.3319 27.5841 15.3319C29.5031 15.3319 31.0587 16.8876 31.0587 18.8066C31.0587 20.7256 29.5031 22.2812 27.5841 22.2812C25.6651 22.2812 24.1094 20.7256 24.1094 18.8066Z" fill="white"/>
<path d="M11.0156 3.60156V1.342V3.60156Z" fill="black"/>
<path d="M11.0156 3.60156V1.342" stroke="white" stroke-width="2" stroke-miterlimit="10" stroke-linecap="round" stroke-linejoin="round"/>
<path d="M4.24219 1.342V3.60156V1.342Z" fill="black"/>
<path d="M4.24219 1.342V3.60156" stroke="white" stroke-width="2" stroke-miterlimit="10" stroke-linecap="round" stroke-linejoin="round"/>
<path d="M13.2899 14.1687H1.97656L7.63325 18.3184L13.2899 14.1687Z" fill="white"/>
<path d="M66.2502 22.125H32.375" stroke="black" stroke-width="2" stroke-miterlimit="10" stroke-linecap="round" stroke-linejoin="round"/>
<path d="M2.09595 33.7833L-0.251992 44.4136C-0.510492 45.584 0.380321 46.693 1.57888 46.693H1.68245C2.99801 46.693 4.06451 47.7594 4.06451 49.075L4.25945 63.0783C4.27907 64.49 5.79307 65.3744 7.03245 64.698L10.6008 62.7506C11.2029 62.4219 11.5776 61.7907 11.5776 61.1047V54.1518C11.5776 50.0324 14.9169 46.693 19.0363 46.693H26.1142C27.1497 46.693 27.9892 45.8535 27.9892 44.818V34.1878C27.9892 33.1522 27.1497 32.3128 26.1142 32.3128H3.92682C3.04713 32.3128 2.2857 32.9243 2.09595 33.7833Z" stroke="black" stroke-width="2" stroke-miterlimit="10" stroke-linecap="round" stroke-linejoin="round"/>
<path d="M2.096 33.7824L0.296875 41.9277H27.9892V34.1869C27.9892 33.1513 27.1497 32.3119 26.1142 32.3119H3.92687C3.04719 32.3119 2.28575 32.9234 2.096 33.7824Z" stroke="black" stroke-width="2" stroke-miterlimit="10" stroke-linecap="round" stroke-linejoin="round"/>
</mask>
<g mask="url(#mask0_7516_2331)">
<mask id="mask1_7516_2331" style="mask-type:luminance" maskUnits="userSpaceOnUse" x="0" y="0" width="32" height="32">
<path d="M0 1.90735e-06H32V32H0V1.90735e-06Z" fill="white"/>
</mask>
<g mask="url(#mask1_7516_2331)">
<path d="M27.5858 15.3313V9.49408C27.5858 7.20852 25.733 5.3557 23.4475 5.3557C21.1619 5.3557 19.3091 7.20852 19.3091 9.49408V24.82C19.3091 28.0444 16.6953 30.6582 13.471 30.6582C10.2466 30.6582 7.63281 28.0444 7.63281 24.82V18.3171L13.2895 14.1675L14.3186 4.79483C14.4414 3.67689 13.566 2.70008 12.4413 2.70008H11.0165" stroke="#178EE8" stroke-width="2" stroke-miterlimit="10" stroke-linecap="round" stroke-linejoin="round"/>
<path d="M24.1094 18.8066C24.1094 16.8876 25.6651 15.3319 27.5841 15.3319C29.5031 15.3319 31.0587 16.8876 31.0587 18.8066C31.0587 20.7256 29.5031 22.2812 27.5841 22.2812C25.6651 22.2812 24.1094 20.7256 24.1094 18.8066Z" fill="#178EE8"/>
<path d="M24.1094 18.8066C24.1094 16.8876 25.6651 15.3319 27.5841 15.3319C29.5031 15.3319 31.0587 16.8876 31.0587 18.8066C31.0587 20.7256 29.5031 22.2812 27.5841 22.2812C25.6651 22.2812 24.1094 20.7256 24.1094 18.8066Z" stroke="#178EE8" stroke-width="2" stroke-miterlimit="10" stroke-linecap="round" stroke-linejoin="round"/>
<path d="M11.0156 3.60156V1.342V3.60156Z" fill="white"/>
<path d="M11.0156 3.60156V1.342" stroke="#178EE8" stroke-width="2" stroke-miterlimit="10" stroke-linecap="round" stroke-linejoin="round"/>
<path d="M4.24219 1.342V3.60156V1.342Z" fill="white"/>
<path d="M4.24219 1.342V3.60156" stroke="#178EE8" stroke-width="2" stroke-miterlimit="10" stroke-linecap="round" stroke-linejoin="round"/>
<path d="M7.63481 18.3164L1.97813 14.1667L0.949002 4.79416C0.826252 3.67622 1.70163 2.69941 2.82631 2.69941H3.75269" stroke="#178EE8" stroke-width="2" stroke-miterlimit="10" stroke-linecap="round" stroke-linejoin="round"/>
<path d="M13.2899 14.1667H1.97656L7.63325 18.3164L13.2899 14.1667Z" fill="#178EE8"/>
<path d="M13.2899 14.1667H1.97656L7.63325 18.3164L13.2899 14.1667Z" stroke="#178EE8" stroke-width="2" stroke-miterlimit="10" stroke-linecap="round" stroke-linejoin="round"/>
</g>
<mask id="mask2_7516_2331" style="mask-type:luminance" maskUnits="userSpaceOnUse" x="0" y="0" width="32" height="32">
<path d="M0 1.90735e-06H32V32H0V1.90735e-06Z" fill="white"/>
</mask>
<g mask="url(#mask2_7516_2331)">
<path d="M66.2502 22.125H32.375" stroke="white" stroke-width="2" stroke-miterlimit="10" stroke-linecap="round" stroke-linejoin="round"/>
</g>
<mask id="mask3_7516_2331" style="mask-type:luminance" maskUnits="userSpaceOnUse" x="0" y="0" width="32" height="32">
<path d="M0 1.90735e-06H32V32H0V1.90735e-06Z" fill="white"/>
</mask>
<g mask="url(#mask3_7516_2331)">
<path d="M2.09595 33.7833L-0.251992 44.4136C-0.510492 45.584 0.380321 46.693 1.57888 46.693H1.68245C2.99801 46.693 4.06451 47.7594 4.06451 49.075L4.25945 63.0783C4.27907 64.49 5.79307 65.3744 7.03245 64.698L10.6008 62.7506C11.2029 62.4219 11.5776 61.7907 11.5776 61.1047V54.1518C11.5776 50.0324 14.9169 46.693 19.0363 46.693H26.1142C27.1497 46.693 27.9892 45.8535 27.9892 44.818V34.1878C27.9892 33.1522 27.1497 32.3128 26.1142 32.3128H3.92682C3.04713 32.3128 2.2857 32.9243 2.09595 33.7833Z" stroke="white" stroke-width="2" stroke-miterlimit="10" stroke-linecap="round" stroke-linejoin="round"/>
<path d="M2.096 33.7824L0.296875 41.9277H27.9892V34.1869C27.9892 33.1513 27.1497 32.3119 26.1142 32.3119H3.92687C3.04719 32.3119 2.28575 32.9234 2.096 33.7824Z" stroke="white" stroke-width="2" stroke-miterlimit="10" stroke-linecap="round" stroke-linejoin="round"/>
</g>
</g>
</g>
<defs>
<clipPath id="clip0_7516_2331">
<rect width="32" height="32" fill="white"/>
</clipPath>
</defs>
</svg>
