<svg width="36" height="36" viewBox="0 0 36 36" fill="none" xmlns="http://www.w3.org/2000/svg">
<g clip-path="url(#clip0_1290_34827)">
<g opacity="0.15">
<path d="M18 36C27.9411 36 36 27.9411 36 18C36 8.05887 27.9411 0 18 0C8.05887 0 0 8.05887 0 18C0 27.9411 8.05887 36 18 36Z" fill="#212529"/>
<path d="M18 36C27.9411 36 36 27.9411 36 18C36 8.05887 27.9411 0 18 0C8.05887 0 0 8.05887 0 18C0 27.9411 8.05887 36 18 36Z" fill="url(#paint0_linear_1290_34827)"/>
</g>
<path fill-rule="evenodd" clip-rule="evenodd" d="M25.671 11.0924L14.9385 21.4649L12.1035 18.4049C11.8354 18.171 11.496 18.0348 11.1405 18.0184C10.785 18.0021 10.4345 18.1066 10.146 18.3149C9.86695 18.511 9.67085 18.804 9.59598 19.1367C9.52111 19.4695 9.57282 19.8182 9.74105 20.1149L13.116 25.6274C13.4535 26.1224 14.0385 26.4374 14.6685 26.4374C15.2985 26.4374 15.861 26.1224 16.1985 25.6274C16.7385 24.9299 27.0435 12.6224 27.0435 12.6224C28.3935 11.2724 26.751 10.0349 25.6935 11.0924H25.671Z" fill="#212529"/>
<path fill-rule="evenodd" clip-rule="evenodd" d="M25.671 11.0924L14.9385 21.4649L12.1035 18.4049C11.8354 18.171 11.496 18.0348 11.1405 18.0184C10.785 18.0021 10.4345 18.1066 10.146 18.3149C9.86695 18.511 9.67085 18.804 9.59598 19.1367C9.52111 19.4695 9.57282 19.8182 9.74105 20.1149L13.116 25.6274C13.4535 26.1224 14.0385 26.4374 14.6685 26.4374C15.2985 26.4374 15.861 26.1224 16.1985 25.6274C16.7385 24.9299 27.0435 12.6224 27.0435 12.6224C28.3935 11.2724 26.751 10.0349 25.6935 11.0924H25.671Z" fill="url(#paint1_linear_1290_34827)"/>
<path fill-rule="evenodd" clip-rule="evenodd" d="M25.671 11.0924L14.9385 21.4649L12.1035 18.4049C11.8354 18.171 11.496 18.0348 11.1405 18.0184C10.785 18.0021 10.4345 18.1066 10.146 18.3149C9.86695 18.511 9.67085 18.804 9.59598 19.1367C9.52111 19.4695 9.57282 19.8182 9.74105 20.1149L13.116 25.6274C13.4535 26.1224 14.0385 26.4374 14.6685 26.4374C15.2985 26.4374 15.861 26.1224 16.1985 25.6274C16.7385 24.9299 27.0435 12.6224 27.0435 12.6224C28.3935 11.2724 26.751 10.0349 25.6935 11.0924H25.671Z" fill="url(#paint2_linear_1290_34827)"/>
</g>
<defs>
<linearGradient id="paint0_linear_1290_34827" x1="18" y1="0" x2="18" y2="36" gradientUnits="userSpaceOnUse">
<stop stop-color="#00D4FF"/>
<stop offset="1" stop-color="#178EE8"/>
</linearGradient>
<linearGradient id="paint1_linear_1290_34827" x1="18.5578" y1="10.6946" x2="18.5578" y2="26.4374" gradientUnits="userSpaceOnUse">
<stop stop-color="#00D4FF"/>
<stop offset="1" stop-color="#178EE8"/>
</linearGradient>
<linearGradient id="paint2_linear_1290_34827" x1="8.75935" y1="28.5458" x2="21.7203" y2="5.44652" gradientUnits="userSpaceOnUse">
<stop offset="0.168198" stop-color="#38DBFF"/>
<stop offset="0.984375" stop-color="#2521DD"/>
</linearGradient>
<clipPath id="clip0_1290_34827">
<rect width="36" height="36" fill="white"/>
</clipPath>
</defs>
</svg>
