<svg width="141" height="156" viewBox="0 0 141 156" fill="none" xmlns="http://www.w3.org/2000/svg">
<path d="M70.3825 124C72.0101 124 73.6111 123.548 75.026 122.686L107.988 102.655C110.935 100.862 112.76 97.495 112.76 93.8568V54.118C112.76 50.4904 110.935 47.1181 107.988 45.3202L75.026 25.2886C72.1909 23.5652 68.5633 23.5758 65.7442 25.2886L32.7819 45.3309C29.8351 47.1234 28 50.4904 28 54.1286V93.8621C28 96.9259 29.3032 99.8088 31.484 101.708V101.724L65.7442 122.697C67.1485 123.548 68.7548 124 70.3825 124ZM70.7282 27.6981C71.7654 27.6981 73.0846 28.3417 73.9941 28.9002L106.313 48.6819C108.308 49.8946 109.435 53.4052 109.435 55.9318L109.1 93.8568C109.1 96.3833 107.398 98.6546 105.403 99.8673L73.276 119.218C71.4516 120.33 69.9676 120.33 68.1378 119.218L35.5797 99.8194C33.585 98.6067 31.9787 96.3727 31.9787 93.8568V54.6871C31.9787 52.1659 33.4308 49.5648 35.4361 48.3468L67.6591 28.9002C68.5633 28.347 69.691 27.6981 70.7282 27.6981Z" fill="#F2F1F0"/>
<g filter="url(#filter0_d_1765_38113)">
<path fill-rule="evenodd" clip-rule="evenodd" d="M74.5846 29.6017C73.2814 28.8038 71.8346 28.4049 70.3825 28.4049C68.9304 28.4049 67.4836 28.8092 66.1804 29.6017L36.3244 47.8621C33.6542 49.4951 32 52.5535 32 55.878V92.101C32 95.4148 33.6489 98.4839 36.3244 100.117L66.1804 118.377C67.4836 119.175 68.9304 119.574 70.3825 119.574C71.8346 119.574 73.2814 119.18 74.5846 118.377L104.441 100.117C107.111 98.4839 108.765 95.4148 108.765 92.101V55.878C108.765 52.5642 107.116 49.5057 104.441 47.8621L74.5846 29.6017Z" fill="url(#paint0_linear_1765_38113)"/>
</g>
<path fill-rule="evenodd" clip-rule="evenodd" d="M70.3838 29.1872C71.2774 29.1872 72.2827 29.6499 73.3785 30.3148L104.479 49.2188C106.421 50.3997 107.702 52.6709 107.702 55.2401V92.7289C107.702 95.2927 106.421 97.5693 104.479 98.7501L73.3838 117.654C72.3413 118.287 71.32 118.686 70.3891 118.686C69.4583 118.686 68.437 118.287 67.3945 117.654L36.2885 98.7554C35.2194 98.1012 34.4481 97.4629 33.9268 96.6065C33.4056 95.7555 33.0651 94.5746 33.0651 92.7342V55.2454C33.0651 52.6763 34.347 50.405 36.2885 49.2242L67.3839 30.3201C68.4956 29.6553 69.4849 29.1872 70.3838 29.1872ZM74.4848 119.479L105.58 100.575C108.197 98.9841 109.825 95.9948 109.825 92.7342V55.2454C109.825 51.9848 108.197 48.9954 105.58 47.405L74.4848 28.501C73.3625 27.8202 71.921 27.0596 70.3838 27.0596C68.8413 27.0596 67.3998 27.8255 66.2881 28.4957H66.2828L35.1821 47.405C32.5651 48.9954 30.9375 51.9848 30.9375 55.2454V92.7342C30.9375 94.8406 31.3311 96.431 32.1077 97.7129C32.8843 98.9895 33.98 99.8405 35.1821 100.569L66.2775 119.473C67.4583 120.191 68.8785 120.819 70.3785 120.819C71.8785 120.819 73.304 120.197 74.4848 119.479Z" fill="url(#paint1_linear_1765_38113)"/>
<path d="M48.4193 84.7425V61.4198C47.5968 61.6375 46.7741 61.9037 46 62.1456V91.5892C52.494 89.7943 59.3948 90.1508 65.6694 92.6053C61.4054 88.2939 55.5961 85.864 49.5323 85.8553C48.923 85.8425 48.4322 85.3517 48.4193 84.7425Z" fill="url(#paint2_linear_1765_38113)"/>
<path d="M50.6898 55.0565L50.6172 83.7501C57.7389 84.1189 64.381 87.453 68.9317 92.9436V65.5807C64.777 59.4712 58.0583 55.5951 50.6898 55.0565Z" fill="url(#paint3_linear_1765_38113)"/>
<path d="M91.5844 61.4678V84.7662C91.5716 85.3754 91.0808 85.8662 90.4716 85.879C84.4213 85.8844 78.6258 88.3159 74.3828 92.6291V92.6532C80.6368 90.1899 87.52 89.8164 94.0038 91.5887V62.1935C93.2296 61.9274 92.4313 61.6614 91.5844 61.4678Z" fill="url(#paint4_linear_1765_38113)"/>
<path d="M89.3997 55.0565C82.0017 55.5416 75.2465 59.4285 71.1094 65.5807V92.9436C75.6545 87.459 82.2865 84.1255 89.3997 83.7501V55.0565Z" fill="url(#paint5_linear_1765_38113)"/>
<defs>
<filter id="filter0_d_1765_38113" x="0" y="0.404907" width="140.766" height="155.169" filterUnits="userSpaceOnUse" color-interpolation-filters="sRGB">
<feFlood flood-opacity="0" result="BackgroundImageFix"/>
<feColorMatrix in="SourceAlpha" type="matrix" values="0 0 0 0 0 0 0 0 0 0 0 0 0 0 0 0 0 0 127 0" result="hardAlpha"/>
<feOffset dy="4"/>
<feGaussianBlur stdDeviation="16"/>
<feComposite in2="hardAlpha" operator="out"/>
<feColorMatrix type="matrix" values="0 0 0 0 0.168627 0 0 0 0 0.364706 0 0 0 0 0.909804 0 0 0 0.33 0"/>
<feBlend mode="normal" in2="BackgroundImageFix" result="effect1_dropShadow_1765_38113"/>
<feBlend mode="normal" in="SourceGraphic" in2="effect1_dropShadow_1765_38113" result="shape"/>
</filter>
<linearGradient id="paint0_linear_1765_38113" x1="28.573" y1="131.784" x2="113.351" y2="20.4575" gradientUnits="userSpaceOnUse">
<stop offset="0.168198" stop-color="#38DBFF"/>
<stop offset="0.984375" stop-color="#2521DD"/>
</linearGradient>
<linearGradient id="paint1_linear_1765_38113" x1="41.7244" y1="25.6346" x2="130.381" y2="175.809" gradientUnits="userSpaceOnUse">
<stop stop-color="#007ED8"/>
<stop offset="0.7065" stop-color="#002D4C"/>
</linearGradient>
<linearGradient id="paint2_linear_1765_38113" x1="55.8347" y1="61.4198" x2="55.8347" y2="92.6053" gradientUnits="userSpaceOnUse">
<stop stop-color="white"/>
<stop offset="1" stop-color="white" stop-opacity="0.8"/>
</linearGradient>
<linearGradient id="paint3_linear_1765_38113" x1="59.7744" y1="55.0565" x2="59.7744" y2="92.9436" gradientUnits="userSpaceOnUse">
<stop stop-color="white"/>
<stop offset="1" stop-color="white" stop-opacity="0.8"/>
</linearGradient>
<linearGradient id="paint4_linear_1765_38113" x1="84.1933" y1="61.4678" x2="84.1933" y2="92.6532" gradientUnits="userSpaceOnUse">
<stop stop-color="white"/>
<stop offset="1" stop-color="white" stop-opacity="0.8"/>
</linearGradient>
<linearGradient id="paint5_linear_1765_38113" x1="80.2545" y1="55.0565" x2="80.2545" y2="92.9436" gradientUnits="userSpaceOnUse">
<stop stop-color="white"/>
<stop offset="1" stop-color="white" stop-opacity="0.8"/>
</linearGradient>
</defs>
</svg>
