<svg width="142" height="156" viewBox="0 0 142 156" fill="none" xmlns="http://www.w3.org/2000/svg">
<path d="M70.7184 124C72.346 124 73.9471 123.548 75.362 122.686L108.324 102.655C111.271 100.862 113.096 97.495 113.096 93.8568V54.118C113.096 50.4904 111.271 47.1181 108.324 45.3202L75.362 25.2886C72.5269 23.5652 68.8993 23.5758 66.0802 25.2886L33.1178 45.3309C30.171 47.1234 28.3359 50.4904 28.3359 54.1286V93.8621C28.3359 96.9259 29.6391 99.8088 31.8199 101.708V101.724L66.0802 122.697C67.4844 123.548 69.0908 124 70.7184 124ZM71.0641 27.6981C72.1014 27.6981 73.4205 28.3417 74.3301 28.9002L106.649 48.6819C108.643 49.8946 109.771 53.4052 109.771 55.9318L109.436 93.8568C109.436 96.3833 107.734 98.6546 105.739 99.8673L73.612 119.218C71.7875 120.33 70.3035 120.33 68.4737 119.218L35.9156 99.8194C33.921 98.6067 32.3146 96.3727 32.3146 93.8568V54.6871C32.3146 52.1659 33.7667 49.5648 35.772 48.3468L67.995 28.9002C68.8993 28.347 70.0269 27.6981 71.0641 27.6981Z" fill="#F2F1F0"/>
<g filter="url(#filter0_d_1765_38120)">
<path fill-rule="evenodd" clip-rule="evenodd" d="M74.9205 29.6017C73.6173 28.8038 72.1706 28.4049 70.7184 28.4049C69.2663 28.4049 67.8195 28.8092 66.5164 29.6017L36.6604 47.8621C33.9902 49.4951 32.3359 52.5535 32.3359 55.878V92.101C32.3359 95.4148 33.9849 98.4839 36.6604 100.117L66.5164 118.377C67.8195 119.175 69.2663 119.574 70.7184 119.574C72.1706 119.574 73.6173 119.18 74.9205 118.377L104.776 100.117C107.447 98.4839 109.101 95.4148 109.101 92.101V55.878C109.101 52.5642 107.452 49.5057 104.776 47.8621L74.9205 29.6017Z" fill="url(#paint0_linear_1765_38120)"/>
</g>
<path d="M80.7552 68.5833C80.7552 64.4667 77.2885 61 73.1719 61V69.6667H80.5385C80.7552 69.2333 80.7552 69.0167 80.7552 68.5833Z" fill="url(#paint1_linear_1765_38120)"/>
<path d="M71.0052 78.3337C74.9052 78.3337 77.9385 75.517 78.3719 71.8337H71.0052V63.167C66.8885 63.167 63.4219 66.6337 63.4219 70.7503C63.4219 74.867 66.8885 78.3337 71.0052 78.3337Z" fill="url(#paint2_linear_1765_38120)"/>
<path d="M92.6693 54.5H49.3359V87H65.3693C63.4193 88.5167 62.3359 90.9 62.3359 93.5H79.6693C79.6693 90.9 78.5859 88.5167 76.6359 87H92.6693V54.5ZM88.3359 82.6667H53.6693V58.8333H88.3359V82.6667Z" fill="url(#paint3_linear_1765_38120)"/>
<path fill-rule="evenodd" clip-rule="evenodd" d="M70.7198 29.1872C71.6134 29.1872 72.6187 29.6499 73.7144 30.3148L104.815 49.2188C106.757 50.3997 108.038 52.6709 108.038 55.2401V92.7289C108.038 95.2927 106.757 97.5693 104.815 98.7501L73.7197 117.654C72.6772 118.287 71.6559 118.686 70.7251 118.686C69.7942 118.686 68.773 118.287 67.7304 117.654L36.6244 98.7554C35.5553 98.1012 34.784 97.4629 34.2628 96.6065C33.7415 95.7555 33.4011 94.5746 33.4011 92.7342V55.2454C33.4011 52.6763 34.683 50.405 36.6244 49.2242L67.7198 30.3201C68.8315 29.6553 69.8208 29.1872 70.7198 29.1872ZM74.8208 119.479L105.916 100.575C108.533 98.9841 110.161 95.9948 110.161 92.7342V55.2454C110.161 51.9848 108.533 48.9954 105.916 47.405L74.8208 28.501C73.6984 27.8202 72.257 27.0596 70.7198 27.0596C69.1772 27.0596 67.7358 27.8255 66.6241 28.4957H66.6187L35.5181 47.405C32.9011 48.9954 31.2734 51.9848 31.2734 55.2454V92.7342C31.2734 94.8406 31.667 96.431 32.4436 97.7129C33.2202 98.9895 34.316 99.8405 35.5181 100.569L66.6134 119.473C67.7943 120.191 69.2145 120.819 70.7144 120.819C72.2144 120.819 73.6399 120.197 74.8208 119.479Z" fill="url(#paint4_linear_1765_38120)"/>
<defs>
<filter id="filter0_d_1765_38120" x="0.335938" y="0.404907" width="140.766" height="155.169" filterUnits="userSpaceOnUse" color-interpolation-filters="sRGB">
<feFlood flood-opacity="0" result="BackgroundImageFix"/>
<feColorMatrix in="SourceAlpha" type="matrix" values="0 0 0 0 0 0 0 0 0 0 0 0 0 0 0 0 0 0 127 0" result="hardAlpha"/>
<feOffset dy="4"/>
<feGaussianBlur stdDeviation="16"/>
<feComposite in2="hardAlpha" operator="out"/>
<feColorMatrix type="matrix" values="0 0 0 0 0.168627 0 0 0 0 0.364706 0 0 0 0 0.909804 0 0 0 0.33 0"/>
<feBlend mode="normal" in2="BackgroundImageFix" result="effect1_dropShadow_1765_38120"/>
<feBlend mode="normal" in="SourceGraphic" in2="effect1_dropShadow_1765_38120" result="shape"/>
</filter>
<linearGradient id="paint0_linear_1765_38120" x1="28.9089" y1="131.784" x2="113.687" y2="20.4575" gradientUnits="userSpaceOnUse">
<stop offset="0.168198" stop-color="#38DBFF"/>
<stop offset="0.984375" stop-color="#2521DD"/>
</linearGradient>
<linearGradient id="paint1_linear_1765_38120" x1="76.9635" y1="61" x2="76.9635" y2="69.6667" gradientUnits="userSpaceOnUse">
<stop stop-color="white"/>
<stop offset="1" stop-color="white" stop-opacity="0.8"/>
</linearGradient>
<linearGradient id="paint2_linear_1765_38120" x1="70.8969" y1="63.167" x2="70.8969" y2="78.3337" gradientUnits="userSpaceOnUse">
<stop stop-color="white"/>
<stop offset="1" stop-color="white" stop-opacity="0.8"/>
</linearGradient>
<linearGradient id="paint3_linear_1765_38120" x1="71.0026" y1="54.5" x2="71.0026" y2="93.5" gradientUnits="userSpaceOnUse">
<stop stop-color="white"/>
<stop offset="1" stop-color="white" stop-opacity="0.8"/>
</linearGradient>
<linearGradient id="paint4_linear_1765_38120" x1="42.0604" y1="25.6346" x2="130.717" y2="175.809" gradientUnits="userSpaceOnUse">
<stop stop-color="#007ED8"/>
<stop offset="0.7065" stop-color="#002D4C"/>
</linearGradient>
</defs>
</svg>
