<svg width="142" height="156" viewBox="0 0 142 156" fill="none" xmlns="http://www.w3.org/2000/svg">
<path d="M71.0465 124C72.6742 124 74.2752 123.548 75.6901 122.686L108.652 102.655C111.599 100.862 113.424 97.495 113.424 93.8568V54.118C113.424 50.4904 111.599 47.1181 108.652 45.3202L75.6901 25.2886C72.855 23.5652 69.2274 23.5758 66.4083 25.2886L33.4459 45.3309C30.4991 47.1234 28.6641 50.4904 28.6641 54.1286V93.8621C28.6641 96.9259 29.9672 99.8088 32.1481 101.708V101.724L66.4083 122.697C67.8125 123.548 69.4189 124 71.0465 124ZM71.3923 27.6981C72.4295 27.6981 73.7486 28.3417 74.6582 28.9002L106.977 48.6819C108.972 49.8946 110.099 53.4052 110.099 55.9318L109.764 93.8568C109.764 96.3833 108.062 98.6546 106.067 99.8673L73.9401 119.218C72.1157 120.33 70.6316 120.33 68.8019 119.218L36.2438 99.8194C34.2491 98.6067 32.6427 96.3727 32.6427 93.8568V54.6871C32.6427 52.1659 34.0948 49.5648 36.1001 48.3468L68.3232 28.9002C69.2274 28.347 70.355 27.6981 71.3923 27.6981Z" fill="#F2F1F0"/>
<g filter="url(#filter0_d_1765_38129)">
<path fill-rule="evenodd" clip-rule="evenodd" d="M75.2486 29.6017C73.9455 28.8038 72.4987 28.4049 71.0466 28.4049C69.5945 28.4049 68.1477 28.8092 66.8445 29.6017L36.9885 47.8621C34.3183 49.4951 32.6641 52.5535 32.6641 55.878V92.101C32.6641 95.4148 34.313 98.4839 36.9885 100.117L66.8445 118.377C68.1477 119.175 69.5945 119.574 71.0466 119.574C72.4987 119.574 73.9455 119.18 75.2486 118.377L105.105 100.117C107.775 98.4839 109.429 95.4148 109.429 92.101V55.878C109.429 52.5642 107.78 49.5057 105.105 47.8621L75.2486 29.6017Z" fill="url(#paint0_linear_1765_38129)"/>
</g>
<path d="M77.7031 52.7549V62.3122H87.2605L77.7031 52.7549Z" fill="url(#paint1_linear_1765_38129)"/>
<path d="M75.125 64.8906V52H53.9844V96H88.0156V64.8906H75.125ZM62.4062 87.8542L58.9167 84.3646L60.7397 82.5416L62.4062 84.2083L65.7917 80.8229L67.6147 82.6459L62.4062 87.8542ZM62.4062 79.2605L58.9167 75.7708L60.7397 73.9478L62.4062 75.6145L65.7917 72.2292L67.6147 74.0522L62.4062 79.2605ZM82.8594 85.6016H69.7109V83.0234H82.8594V85.6016ZM82.8594 77.0078H69.7109V74.4297H82.8594V77.0078Z" fill="url(#paint2_linear_1765_38129)"/>
<path fill-rule="evenodd" clip-rule="evenodd" d="M71.0479 29.1872C71.9415 29.1872 72.9468 29.6499 74.0425 30.3148L105.143 49.2188C107.085 50.3997 108.367 52.6709 108.367 55.2401V92.7289C108.367 95.2927 107.085 97.5693 105.143 98.7501L74.0479 117.654C73.0053 118.287 71.984 118.686 71.0532 118.686C70.1224 118.686 69.1011 118.287 68.0586 117.654L36.9526 98.7554C35.8834 98.1012 35.1122 97.4629 34.5909 96.6065C34.0696 95.7555 33.7292 94.5746 33.7292 92.7342V55.2454C33.7292 52.6763 35.0111 50.405 36.9526 49.2242L68.0479 30.3201C69.1596 29.6553 70.149 29.1872 71.0479 29.1872ZM75.1489 119.479L106.244 100.575C108.861 98.9841 110.489 95.9948 110.489 92.7342V55.2454C110.489 51.9848 108.861 48.9954 106.244 47.405L75.1489 28.501C74.0266 27.8202 72.5851 27.0596 71.0479 27.0596C69.5054 27.0596 68.0639 27.8255 66.9522 28.4957H66.9469L35.8462 47.405C33.2292 48.9954 31.6016 51.9848 31.6016 55.2454V92.7342C31.6016 94.8406 31.9952 96.431 32.7718 97.7129C33.5483 98.9895 34.6441 99.8405 35.8462 100.569L66.9416 119.473C68.1224 120.191 69.5426 120.819 71.0426 120.819C72.5425 120.819 73.9681 120.197 75.1489 119.479Z" fill="url(#paint3_linear_1765_38129)"/>
<defs>
<filter id="filter0_d_1765_38129" x="0.664062" y="0.404907" width="140.766" height="155.169" filterUnits="userSpaceOnUse" color-interpolation-filters="sRGB">
<feFlood flood-opacity="0" result="BackgroundImageFix"/>
<feColorMatrix in="SourceAlpha" type="matrix" values="0 0 0 0 0 0 0 0 0 0 0 0 0 0 0 0 0 0 127 0" result="hardAlpha"/>
<feOffset dy="4"/>
<feGaussianBlur stdDeviation="16"/>
<feComposite in2="hardAlpha" operator="out"/>
<feColorMatrix type="matrix" values="0 0 0 0 0.168627 0 0 0 0 0.364706 0 0 0 0 0.909804 0 0 0 0.33 0"/>
<feBlend mode="normal" in2="BackgroundImageFix" result="effect1_dropShadow_1765_38129"/>
<feBlend mode="normal" in="SourceGraphic" in2="effect1_dropShadow_1765_38129" result="shape"/>
</filter>
<linearGradient id="paint0_linear_1765_38129" x1="29.237" y1="131.784" x2="114.015" y2="20.4575" gradientUnits="userSpaceOnUse">
<stop offset="0.168198" stop-color="#38DBFF"/>
<stop offset="0.984375" stop-color="#2521DD"/>
</linearGradient>
<linearGradient id="paint1_linear_1765_38129" x1="82.4818" y1="52.7549" x2="82.4818" y2="62.3122" gradientUnits="userSpaceOnUse">
<stop stop-color="white"/>
<stop offset="1" stop-color="white" stop-opacity="0.8"/>
</linearGradient>
<linearGradient id="paint2_linear_1765_38129" x1="71" y1="52" x2="71" y2="96" gradientUnits="userSpaceOnUse">
<stop stop-color="white"/>
<stop offset="1" stop-color="white" stop-opacity="0.8"/>
</linearGradient>
<linearGradient id="paint3_linear_1765_38129" x1="42.3885" y1="25.6346" x2="131.046" y2="175.809" gradientUnits="userSpaceOnUse">
<stop stop-color="#007ED8"/>
<stop offset="0.7065" stop-color="#002D4C"/>
</linearGradient>
</defs>
</svg>
