<svg width="52" height="52" viewBox="0 0 52 52" fill="none" xmlns="http://www.w3.org/2000/svg">
<path d="M4.32812 26.0002C4.32812 15.7865 4.32812 10.6797 7.50013 7.5055C10.6765 4.3335 15.7811 4.3335 25.9948 4.3335C36.2085 4.3335 41.3153 4.3335 44.4873 7.5055C47.6615 10.6818 47.6615 15.7865 47.6615 26.0002C47.6615 36.2138 47.6615 41.3207 44.4873 44.4927C41.3175 47.6668 36.2085 47.6668 25.9948 47.6668C15.7811 47.6668 10.6743 47.6668 7.50013 44.4927C4.32812 41.3228 4.32812 36.2138 4.32812 26.0002Z" fill="url(#paint0_linear_5690_32924)" fill-opacity="0.1" stroke="url(#paint1_linear_5690_32924)" stroke-width="3"/>
<path d="M23.0498 17.7227H29.9502C30.1646 17.7228 30.3779 17.9087 30.3779 18.1875V22.9375C30.3779 23.2163 30.1646 23.4022 29.9502 23.4023H26.6406V26.332H37.2773V26.668H32.9648V29.5977H35.7002C35.9146 29.5978 36.1279 29.7837 36.1279 30.0625V34.8125C36.1279 35.0913 35.9146 35.2772 35.7002 35.2773H29.9502C29.7357 35.2773 29.5225 35.0914 29.5225 34.8125V30.0625C29.5225 29.7836 29.7357 29.5977 29.9502 29.5977H32.6846V26.668H20.3154V29.5977H23.0498C23.2643 29.5977 23.4775 29.7836 23.4775 30.0625V34.8125C23.4775 35.0914 23.2643 35.2773 23.0498 35.2773H17.2998C17.0854 35.2772 16.8721 35.0913 16.8721 34.8125V30.0625C16.8721 29.7837 17.0854 29.5978 17.2998 29.5977H20.0352V26.668H15.7227V26.332H26.3594V23.4023H23.0498C22.8354 23.4022 22.6221 23.2163 22.6221 22.9375V18.1875C22.6221 17.9087 22.8354 17.7228 23.0498 17.7227ZM17.7275 34.3477H22.6221V30.5273H17.7275V34.3477ZM30.3779 34.3477H35.2725V30.5273H30.3779V34.3477ZM23.4775 22.4727H29.5225V18.6523H23.4775V22.4727Z" fill="url(#paint2_linear_5690_32924)" stroke="url(#paint3_linear_5690_32924)" stroke-width="1.44444"/>
<defs>
<linearGradient id="paint0_linear_5690_32924" x1="4.32813" y1="42.3458" x2="52.4936" y2="31.8685" gradientUnits="userSpaceOnUse">
<stop stop-color="#9B70F6"/>
<stop offset="0.984375" stop-color="#8043E4"/>
</linearGradient>
<linearGradient id="paint1_linear_5690_32924" x1="4.32812" y1="4.3335" x2="47.6615" y2="47.6668" gradientUnits="userSpaceOnUse">
<stop stop-color="#9E74F8"/>
<stop offset="1" stop-color="#7E3FE2"/>
</linearGradient>
<linearGradient id="paint2_linear_5690_32924" x1="15" y1="17" x2="33.6584" y2="39.5865" gradientUnits="userSpaceOnUse">
<stop stop-color="#9E74F8"/>
<stop offset="1" stop-color="#7E3FE2"/>
</linearGradient>
<linearGradient id="paint3_linear_5690_32924" x1="15" y1="17" x2="33.6584" y2="39.5865" gradientUnits="userSpaceOnUse">
<stop stop-color="#9E74F8"/>
<stop offset="1" stop-color="#7E3FE2"/>
</linearGradient>
</defs>
</svg>
