<svg width="118" height="23" viewBox="0 0 118 23" fill="none" xmlns="http://www.w3.org/2000/svg">
<path d="M0.773438 11.1562L7.24254 15.3084L13.7116 14.6924L20.1807 18.8446L26.6498 10.4261L33.1189 0.501953L39.588 3.58187L46.0571 3.33092L52.5262 14.5327L58.9953 8.96603L65.4644 5.15605L71.9335 7.30059L78.4026 7.98502L84.8717 5.93174L91.3408 21.3541L97.8099 5.08761L104.279 13.2779L110.748 8.89759L117.217 19.0499V22.3352H110.748H104.279H97.8099H91.3408H84.8717H78.4026H71.9335H65.4644H58.9953H52.5262H46.0571H39.588H33.1189H26.6498H20.1807H13.7116H7.24254H0.773438V11.1562Z" fill="#17B6E8" fill-opacity="0.33"/>
</svg>
