<svg width="40" height="40" viewBox="0 0 40 40" fill="none" xmlns="http://www.w3.org/2000/svg">
<path d="M20 0C13.1067 0 7.5 5.60667 7.5 12.5C7.5 19.3933 13.1067 25 20 25C26.8933 25 32.5 19.3933 32.5 12.5C32.5 5.60667 26.8933 0 20 0ZM19.3667 11.25H20.6333C22.5817 11.25 24.1667 12.835 24.1667 14.7833C24.1667 16.535 22.9033 17.9767 21.25 18.27V19.5817C21.25 20.2717 20.69 20.8317 20 20.8317C19.31 20.8317 18.75 20.2717 18.75 19.5817V18.3333H17.0833C16.3933 18.3333 15.8333 17.7733 15.8333 17.0833C15.8333 16.3933 16.3933 15.8333 17.0833 15.8333H20.6333C21.2033 15.8333 21.6667 15.37 21.6667 14.8C21.6667 14.2133 21.2033 13.75 20.6333 13.75H19.3667C17.4183 13.75 15.8333 12.165 15.8333 10.2167C15.8333 8.465 17.0967 7.02333 18.75 6.73V5.41667C18.75 4.72667 19.31 4.16667 20 4.16667C20.69 4.16667 21.25 4.72667 21.25 5.41667V6.66667H22.9167C23.6067 6.66667 24.1667 7.22667 24.1667 7.91667C24.1667 8.60667 23.6067 9.16667 22.9167 9.16667H19.3667C18.7967 9.16667 18.3333 9.63 18.3333 10.2C18.3333 10.7867 18.7967 11.25 19.3667 11.25Z" fill="url(#paint0_linear_2261_31738)"/>
<path d="M40 25C40 24.955 39.9783 24.9183 39.975 24.875C39.855 22.3667 37.6417 20.2017 33.655 18.6717C31.2967 23.87 26.0683 27.5 20 27.5C13.9317 27.5 8.705 23.87 6.345 18.6733C2.24167 20.2467 0 22.4883 0 25.0867V31.605C0 31.6933 0.0366667 31.77 0.05 31.855C0.576667 37.2 10.3317 40 20 40C29.59 40 39.265 37.245 39.9367 31.9833C39.9567 31.8783 40 31.78 40 31.6667V25ZM36.6667 31.4117C36.6583 33.5567 30.1667 36.6667 20 36.6667C9.82667 36.6667 3.33333 33.5517 3.33333 31.4067V30.0367C7.10833 32.435 13.5717 33.6783 20 33.6783C26.4283 33.6783 32.8917 32.4367 36.6667 30.0367V31.4117Z" fill="url(#paint1_linear_2261_31738)"/>
<defs>
<linearGradient id="paint0_linear_2261_31738" x1="6.29172e-05" y1="3.17721e-07" x2="40" y2="39.9999" gradientUnits="userSpaceOnUse">
<stop stop-color="#5175FE"/>
<stop offset="1" stop-color="#08C1EA"/>
</linearGradient>
<linearGradient id="paint1_linear_2261_31738" x1="6.29172e-05" y1="3.17721e-07" x2="40" y2="39.9999" gradientUnits="userSpaceOnUse">
<stop stop-color="#5175FE"/>
<stop offset="1" stop-color="#08C1EA"/>
</linearGradient>
</defs>
</svg>
