<svg width="23" height="23" viewBox="0 0 23 23" fill="none" xmlns="http://www.w3.org/2000/svg">
<path d="M22.7951 21.375C22.7951 22.23 22.0826 22.8 21.3701 22.8H9.97012C9.11512 22.8 8.54512 22.23 8.54512 21.375C8.54512 17.955 10.9676 15.105 14.2451 14.3925V8.265C13.2476 7.98 12.3926 7.2675 11.9651 6.4125L6.97762 9.2625C7.40512 10.9725 6.55012 12.6825 4.98262 13.68C4.27012 14.1075 3.41512 13.8225 2.98762 13.11C2.70262 12.3975 2.84512 11.5425 3.55762 11.2575C4.27012 10.83 4.41262 9.975 4.12762 9.2625C3.70012 8.55 2.84512 8.265 2.13262 8.6925C1.42012 9.12 0.565119 8.835 0.137619 8.265C-0.147381 7.5525 -0.00488131 6.6975 0.707619 6.27C2.27512 5.2725 4.27012 5.5575 5.69512 6.6975L11.5376 3.42C11.9651 1.425 13.6751 0 15.6701 0C18.0926 0 19.9451 1.8525 19.9451 4.275C19.9451 6.1275 18.8051 7.695 17.0951 8.265V14.3925C20.3726 14.9625 22.7951 17.955 22.7951 21.375Z" fill="url(#paint0_linear_7484_3592)"/>
<defs>
<linearGradient id="paint0_linear_7484_3592" x1="0" y1="0" x2="22.8" y2="22.7951" gradientUnits="userSpaceOnUse">
<stop stop-color="#9E74F8"/>
<stop offset="1" stop-color="#7E3FE2"/>
</linearGradient>
</defs>
</svg>
