<svg width="13" height="13" viewBox="0 0 13 13" fill="none" xmlns="http://www.w3.org/2000/svg">
<path fill-rule="evenodd" clip-rule="evenodd" d="M1.99947 5C1.99947 4.60603 2.07707 4.21593 2.22783 3.85195C2.3786 3.48797 2.59958 3.15726 2.87815 2.87868C3.15673 2.6001 3.48745 2.37913 3.85142 2.22836C4.2154 2.0776 4.60551 2 4.99947 2C5.39344 2 5.78355 2.0776 6.14752 2.22836C6.5115 2.37913 6.84222 2.6001 7.12079 2.87868C7.39937 3.15726 7.62035 3.48797 7.77111 3.85195C7.92188 4.21593 7.99947 4.60603 7.99947 5C7.99947 5.79565 7.6834 6.55871 7.12079 7.12132C6.55818 7.68393 5.79512 8 4.99947 8C4.20382 8 3.44076 7.68393 2.87815 7.12132C2.31554 6.55871 1.99947 5.79565 1.99947 5ZM4.99947 1.2163e-08C4.2198 8.22788e-05 3.45096 0.182495 2.75435 0.532667C2.05775 0.882838 1.45268 1.39106 0.987493 2.01675C0.522304 2.64243 0.209882 3.36824 0.075184 4.13618C-0.0595144 4.90413 -0.0127567 5.69293 0.211722 6.43958C0.436201 7.18623 0.83218 7.87005 1.36803 8.43639C1.90388 9.00274 2.56475 9.43592 3.29784 9.70135C4.03094 9.96677 4.81595 10.0571 5.59017 9.96505C6.36439 9.87302 7.10635 9.60121 7.75681 9.17133L10.9588 12.374C11.1464 12.5616 11.4008 12.667 11.6661 12.667C11.9314 12.667 12.1859 12.5616 12.3735 12.374C12.5611 12.1864 12.6665 11.932 12.6665 11.6667C12.6665 11.4014 12.5611 11.1469 12.3735 10.9593L9.17081 7.75733C9.66899 7.00374 9.9537 6.12925 9.99467 5.22679C10.0357 4.32434 9.83136 3.42765 9.40353 2.63201C8.97569 1.83636 8.34028 1.17149 7.56483 0.70806C6.78937 0.244625 5.90285 -6.29894e-05 4.99947 1.2163e-08Z" fill="#BBBCC3"/>
</svg>
