<svg width="1920" height="907" viewBox="0 0 1920 907" fill="none" xmlns="http://www.w3.org/2000/svg">
<path fill-rule="evenodd" clip-rule="evenodd" d="M-254.932 -1220.67C-459.19 -865.931 -415.781 -311.619 -297.073 80.1283C-196.431 412.275 -147.221 635.641 153.726 808.499C439.594 972.7 812.957 917.282 1213.98 742.357C1310.62 700.203 1411.46 667.05 1516.1 654.172C1825.13 616.14 2028.75 595.733 2030.4 361.208C2030.47 351.575 2031.22 341.785 2033.03 332.323C2113.88 -90.9053 2034.01 -625.482 1767.75 -961.954C1501.96 -1297.81 1338.52 -1780.59 913.675 -1834.94C454.424 -1893.68 -23.9002 -1621.91 -254.932 -1220.67Z" fill="url(#paint0_linear_7761_2279)"/>
<defs>
<linearGradient id="paint0_linear_7761_2279" x1="2857.39" y1="-190.68" x2="-47.272" y2="-412.002" gradientUnits="userSpaceOnUse">
<stop offset="0.260829" stop-color="#38DBFF"/>
<stop offset="1" stop-color="#8A21DD"/>
</linearGradient>
</defs>
</svg>
