<svg width="30" height="30" viewBox="0 0 30 30" fill="none" xmlns="http://www.w3.org/2000/svg">
<path d="M29.1211 11.7773H27.786C27.4732 10.5286 26.982 9.34301 26.3197 8.23787L27.2639 7.29363C27.6071 6.95039 27.6071 6.39393 27.2639 6.05068L23.9493 2.73609C23.6061 2.39285 23.0496 2.39285 22.7064 2.73609L21.7621 3.68033C20.6571 3.01799 19.4713 2.5268 18.2227 2.21396V0.878906C18.2227 0.393516 17.8291 0 17.3438 0H12.6562C12.1709 0 11.7773 0.393516 11.7773 0.878906V2.21396C10.5287 2.52674 9.34289 3.01799 8.23787 3.68033L7.29363 2.73609C6.95039 2.39285 6.39393 2.39285 6.05068 2.73609L2.73615 6.05068C2.39291 6.39393 2.39291 6.95039 2.73615 7.29363L3.68033 8.23787C3.01799 9.34295 2.5268 10.5285 2.21396 11.7773H0.878906C0.393516 11.7773 0 12.1709 0 12.6562V17.3438C0 17.8291 0.393516 18.2227 0.878906 18.2227H2.21396C2.5268 19.4715 3.01799 20.6571 3.68033 21.7621L2.73609 22.7064C2.39285 23.0496 2.39285 23.6061 2.73609 23.9493L6.05062 27.2638C6.39387 27.6071 6.95033 27.6071 7.29357 27.2638L8.23781 26.3196C9.34289 26.9819 10.5287 27.4731 11.7773 27.7859V29.1211C11.7773 29.6065 12.1708 30 12.6562 30H17.3437C17.8291 30 18.2226 29.6065 18.2226 29.1211V27.786C19.4712 27.4732 20.657 26.982 21.7621 26.3197L22.7063 27.2638C23.0496 27.6071 23.606 27.6071 23.9493 27.2638L27.2638 23.9493C27.6071 23.6061 27.6071 23.0496 27.2638 22.7064L26.3196 21.7621C26.982 20.657 27.4731 19.4714 27.7859 18.2227H29.1211C29.6065 18.2227 30 17.8291 30 17.3438V12.6562C30 12.1709 29.6065 11.7773 29.1211 11.7773ZM15 24.082C9.99217 24.082 5.91797 20.0078 5.91797 15C5.91797 9.99217 9.99217 5.91797 15 5.91797C20.0079 5.91797 24.082 9.99217 24.082 15C24.082 20.0078 20.0079 24.082 15 24.082Z" fill="url(#paint0_linear_7047_1020)"/>
<defs>
<linearGradient id="paint0_linear_7047_1020" x1="9.74064e-07" y1="26.3162" x2="33.3453" y2="19.0627" gradientUnits="userSpaceOnUse">
<stop stop-color="#3AA0FF"/>
<stop offset="0.984375" stop-color="#53D0F7"/>
</linearGradient>
</defs>
</svg>
