<svg width="42.1041" height="42.1041" viewBox="24.208 21 42.1041 42.1041" fill="none" xmlns="http://www.w3.org/2000/svg">
<g filter="url(#filter0_d_1764_4410)">
<rect x="24" y="21" width="42.1041" height="42.1041" rx="14.9256" fill="#F64F63" shape-rendering="crispEdges"/>
<path fill-rule="evenodd" clip-rule="evenodd" d="M44.944 50.8925C46.1189 50.8925 47.2822 50.6611 48.3675 50.2115C49.4529 49.7619 50.4391 49.103 51.2698 48.2723C52.1005 47.4416 52.7595 46.4554 53.2091 45.37C53.6587 44.2846 53.89 43.1213 53.89 41.9465C53.89 40.7717 53.6587 39.6084 53.2091 38.523C52.7595 37.4376 52.1005 36.4514 51.2698 35.6207C50.4391 34.79 49.4529 34.131 48.3675 33.6815C47.2822 33.2319 46.1189 33.0005 44.944 33.0005C42.5714 33.0005 40.296 33.943 38.6183 35.6207C36.9406 37.2984 35.998 39.5739 35.998 41.9465C35.998 44.3191 36.9406 46.5946 38.6183 48.2723C40.296 49.95 42.5714 50.8925 44.944 50.8925ZM43.7343 37.9605L49.3445 41.0777C49.4994 41.1638 49.6284 41.2898 49.7183 41.4425C49.8081 41.5953 49.8555 41.7693 49.8555 41.9465C49.8555 42.1237 49.8081 42.2977 49.7183 42.4504C49.6284 42.6032 49.4994 42.7291 49.3445 42.8152L43.7343 45.9324C43.5527 46.0334 43.3478 46.0852 43.14 46.0826C42.9322 46.08 42.7287 46.0231 42.5496 45.9177C42.3705 45.8122 42.2221 45.6618 42.119 45.4813C42.016 45.3008 41.9618 45.0966 41.962 44.8887V39.0042C41.9618 38.7964 42.016 38.5921 42.119 38.4117C42.2221 38.2312 42.3705 38.0808 42.5496 37.9753C42.7287 37.8698 42.9322 37.813 43.14 37.8104C43.3478 37.8078 43.5527 37.8596 43.7343 37.9605Z" fill="white"/>
</g>
<defs>
<filter id="filter0_d_1764_4410" x="0.119009" y="0.104133" width="89.8665" height="89.866" filterUnits="userSpaceOnUse" color-interpolation-filters="sRGB">
<feFlood flood-opacity="0" result="BackgroundImageFix"/>
<feColorMatrix in="SourceAlpha" type="matrix" values="0 0 0 0 0 0 0 0 0 0 0 0 0 0 0 0 0 0 127 0" result="hardAlpha"/>
<feOffset dy="2.98512"/>
<feGaussianBlur stdDeviation="11.9405"/>
<feComposite in2="hardAlpha" operator="out"/>
<feColorMatrix type="matrix" values="0 0 0 0 0.0588235 0 0 0 0 0.827451 0 0 0 0 0.552941 0 0 0 0.33 0"/>
<feBlend mode="normal" in2="BackgroundImageFix" result="effect1_dropShadow_1764_4410"/>
<feBlend mode="normal" in="SourceGraphic" in2="effect1_dropShadow_1764_4410" result="shape"/>
</filter>
</defs>
</svg>