<svg width="40" height="58" viewBox="0 0 40 58" fill="none" xmlns="http://www.w3.org/2000/svg">
<path d="M6 0.5H39.5V57.5H6C2.96243 57.5 0.5 55.0376 0.5 52V6L0.506836 5.7168C0.654222 2.81084 3.05741 0.5 6 0.5Z" fill="#E9ECEF"/>
<path d="M6 0.5H39.5V57.5H6C2.96243 57.5 0.5 55.0376 0.5 52V6L0.506836 5.7168C0.654222 2.81084 3.05741 0.5 6 0.5Z" stroke="#CED4DA"/>
<path d="M26.625 36C26.8125 36 27 36.1875 27 36.375V37H13V36.375C13 36.1875 13.1562 36 13.375 36H14V21.75C14 21.3438 14.3125 21 14.75 21H25.25C25.6562 21 26 21.3438 26 21.75V36H26.625ZM17 23.375V24.625C17 24.8438 17.1562 25 17.375 25H18.625C18.8125 25 19 24.8438 19 24.625V23.375C19 23.1875 18.8125 23 18.625 23H17.375C17.1562 23 17 23.1875 17 23.375ZM17 26.375V27.625C17 27.8438 17.1562 28 17.375 28H18.625C18.8125 28 19 27.8438 19 27.625V26.375C19 26.1875 18.8125 26 18.625 26H17.375C17.1562 26 17 26.1875 17 26.375ZM18.625 31C18.8125 31 19 30.8438 19 30.625V29.375C19 29.1875 18.8125 29 18.625 29H17.375C17.1562 29 17 29.1875 17 29.375V30.625C17 30.8438 17.1562 31 17.375 31H18.625ZM21 36V33.375C21 33.1875 20.8125 33 20.625 33H19.375C19.1562 33 19 33.1875 19 33.375V36H21ZM23 30.625V29.375C23 29.1875 22.8125 29 22.625 29H21.375C21.1562 29 21 29.1875 21 29.375V30.625C21 30.8438 21.1562 31 21.375 31H22.625C22.8125 31 23 30.8438 23 30.625ZM23 27.625V26.375C23 26.1875 22.8125 26 22.625 26H21.375C21.1562 26 21 26.1875 21 26.375V27.625C21 27.8438 21.1562 28 21.375 28H22.625C22.8125 28 23 27.8438 23 27.625ZM23 24.625V23.375C23 23.1875 22.8125 23 22.625 23H21.375C21.1562 23 21 23.1875 21 23.375V24.625C21 24.8438 21.1562 25 21.375 25H22.625C22.8125 25 23 24.8438 23 24.625Z" fill="#787A88"/>
</svg>
