<svg width="42" height="58" viewBox="0 0 42 58" fill="none" xmlns="http://www.w3.org/2000/svg">
<path d="M6 0.5H41.5V57.5H6C2.96243 57.5 0.5 55.0376 0.5 52V6L0.506836 5.7168C0.654222 2.81084 3.05741 0.5 6 0.5Z" fill="#E9ECEF"/>
<path d="M6 0.5H41.5V57.5H6C2.96243 57.5 0.5 55.0376 0.5 52V6L0.506836 5.7168C0.654222 2.81084 3.05741 0.5 6 0.5Z" stroke="#CED4DA"/>
<path d="M28.6875 26.9688C28.8125 26.875 29 26.9688 29 27.125V33.5C29 34.3438 28.3125 35 27.5 35H14.5C13.6562 35 13 34.3438 13 33.5V27.125C13 26.9688 13.1562 26.875 13.2812 26.9688C14 27.5312 14.9062 28.2188 18.0938 30.5312C18.75 31 19.875 32.0312 21 32.0312C22.0938 32.0312 23.25 31 23.875 30.5312C27.0625 28.2188 27.9688 27.5312 28.6875 26.9688ZM21 31C20.25 31.0312 19.2188 30.0938 18.6875 29.7188C14.5312 26.7188 14.2188 26.4375 13.2812 25.6875C13.0938 25.5625 13 25.3438 13 25.0938V24.5C13 23.6875 13.6562 23 14.5 23H27.5C28.3125 23 29 23.6875 29 24.5V25.0938C29 25.3438 28.875 25.5625 28.6875 25.6875C27.75 26.4375 27.4375 26.7188 23.2812 29.7188C22.75 30.0938 21.7188 31.0312 21 31Z" fill="#787A88"/>
</svg>
