<svg width="40" height="58" viewBox="0 0 40 58" fill="none" xmlns="http://www.w3.org/2000/svg">
<path d="M6 0.5H39.5V57.5H6C2.96243 57.5 0.5 55.0376 0.5 52V6L0.506836 5.7168C0.654222 2.81084 3.05741 0.5 6 0.5Z" fill="#E9ECEF"/>
<path d="M6 0.5H39.5V57.5H6C2.96243 57.5 0.5 55.0376 0.5 52V6L0.506836 5.7168C0.654222 2.81084 3.05741 0.5 6 0.5Z" stroke="#CED4DA"/>
<path d="M20 29C17.7812 29 16 27.2188 16 25C16 22.8125 17.7812 21 20 21C22.1875 21 24 22.8125 24 25C24 27.2188 22.1875 29 20 29ZM22.7812 30C25.0938 30 27 31.9062 27 34.2188V35.5C27 36.3438 26.3125 37 25.5 37H14.5C13.6562 37 13 36.3438 13 35.5V34.2188C13 31.9062 14.875 30 17.1875 30H17.7188C18.4062 30.3438 19.1875 30.5 20 30.5C20.8125 30.5 21.5625 30.3438 22.25 30H22.7812Z" fill="#787A88"/>
</svg>
