<svg width="42" height="58" viewBox="0 0 42 58" fill="none" xmlns="http://www.w3.org/2000/svg">
<path d="M6 0.5H41.5V57.5H6C2.96243 57.5 0.5 55.0376 0.5 52V6L0.506836 5.7168C0.654222 2.81084 3.05741 0.5 6 0.5Z" fill="#E9ECEF"/>
<path d="M6 0.5H41.5V57.5H6C2.96243 57.5 0.5 55.0376 0.5 52V6L0.506836 5.7168C0.654222 2.81084 3.05741 0.5 6 0.5Z" stroke="#CED4DA"/>
<path d="M23 31.5V30H29V34.5C29 35.3125 28.2812 36 27.5 36H14.5C13.6875 36 13 35.3125 13 34.5V30H19V31.5C19 31.7812 19.2188 32 19.5 32H22.5C22.75 32 23 31.7812 23 31.5ZM27.5 25C28.2812 25 29 25.7188 29 26.5V29H13V26.5C13 25.7188 13.6875 25 14.5 25H17V23.5C17 22.7188 17.6875 22 18.5 22H23.5C24.2812 22 25 22.7188 25 23.5V25H27.5ZM23 25V24H19V25H23Z" fill="#787A88"/>
</svg>
