<svg width="46" height="58" viewBox="0 0 46 58" fill="none" xmlns="http://www.w3.org/2000/svg">
<path d="M6 0.5H45.5V57.5H6C2.96243 57.5 0.5 55.0376 0.5 52V6L0.506836 5.7168C0.654222 2.81084 3.05741 0.5 6 0.5Z" fill="#E9ECEF"/>
<path d="M6 0.5H45.5V57.5H6C2.96243 57.5 0.5 55.0376 0.5 52V6L0.506836 5.7168C0.654222 2.81084 3.05741 0.5 6 0.5Z" stroke="#CED4DA"/>
<path d="M16 28C14.875 28 14 27.125 14 26C14 24.9062 14.875 24 16 24C17.0938 24 18 24.9062 18 26C18 27.125 17.0938 28 16 28ZM30 28C28.875 28 28 27.125 28 26C28 24.9062 28.875 24 30 24C31.0938 24 32 24.9062 32 26C32 27.125 31.0938 28 30 28ZM31 29C32.0938 29 33 29.9062 33 31V32C33 32.5625 32.5312 33 32 33H29.9375C29.7188 31.5312 28.8438 30.2812 27.5625 29.5938C27.9375 29.25 28.4375 29 29 29H31ZM23 29C21.0625 29 19.5 27.4375 19.5 25.5C19.5 23.5938 21.0625 22 23 22C24.9062 22 26.5 23.5938 26.5 25.5C26.5 27.4375 24.9062 29 23 29ZM25.375 30C27.375 30 29 31.625 29 33.625V34.5C29 35.3438 28.3125 36 27.5 36H18.5C17.6562 36 17 35.3438 17 34.5V33.625C17 31.625 18.5938 30 20.5938 30H20.8438C21.5 30.3125 22.2188 30.5 23 30.5C23.75 30.5 24.4688 30.3125 25.125 30H25.375ZM18.4062 29.5938C17.125 30.2812 16.25 31.5312 16.0312 33H14C13.4375 33 13 32.5625 13 32V31C13 29.9062 13.875 29 15 29H17C17.5312 29 18.0312 29.25 18.4062 29.5938Z" fill="#787A88"/>
</svg>
